%TF.GenerationSoftware,KiCad,Pcbnew,10.0.3*%
%TF.CreationDate,2026-06-14T21:01:51-04:00*%
%TF.ProjectId,index,696e6465-782e-46b6-9963-61645f706362,rev?*%
%TF.SameCoordinates,Original*%
%TF.FileFunction,Legend,Top*%
%TF.FilePolarity,Positive*%
%FSLAX46Y46*%
G04 Gerber Fmt 4.6, Leading zero omitted, Abs format (unit mm)*
G04 Created by KiCad (PCBNEW 10.0.3) date 2026-06-14 21:01:51*
%MOMM*%
%LPD*%
G01*
G04 APERTURE LIST*
%ADD10C,0.166667*%
%ADD11C,0.100000*%
G04 APERTURE END LIST*
D10*
X90698414Y-130858159D02*
X90063494Y-130858159D01*
X90063494Y-130858159D02*
X90063494Y-129524826D01*
X91333335Y-130858159D02*
X91206351Y-130794667D01*
X91206351Y-130794667D02*
X91142859Y-130731174D01*
X91142859Y-130731174D02*
X91079367Y-130604190D01*
X91079367Y-130604190D02*
X91079367Y-130223238D01*
X91079367Y-130223238D02*
X91142859Y-130096254D01*
X91142859Y-130096254D02*
X91206351Y-130032762D01*
X91206351Y-130032762D02*
X91333335Y-129969270D01*
X91333335Y-129969270D02*
X91523811Y-129969270D01*
X91523811Y-129969270D02*
X91650795Y-130032762D01*
X91650795Y-130032762D02*
X91714287Y-130096254D01*
X91714287Y-130096254D02*
X91777779Y-130223238D01*
X91777779Y-130223238D02*
X91777779Y-130604190D01*
X91777779Y-130604190D02*
X91714287Y-130731174D01*
X91714287Y-130731174D02*
X91650795Y-130794667D01*
X91650795Y-130794667D02*
X91523811Y-130858159D01*
X91523811Y-130858159D02*
X91333335Y-130858159D01*
X92349208Y-130858159D02*
X92349208Y-129524826D01*
X92476192Y-130350222D02*
X92857144Y-130858159D01*
X92857144Y-129969270D02*
X92349208Y-130477206D01*
X93936509Y-130794667D02*
X93809525Y-130858159D01*
X93809525Y-130858159D02*
X93555557Y-130858159D01*
X93555557Y-130858159D02*
X93428573Y-130794667D01*
X93428573Y-130794667D02*
X93365081Y-130667682D01*
X93365081Y-130667682D02*
X93365081Y-130159746D01*
X93365081Y-130159746D02*
X93428573Y-130032762D01*
X93428573Y-130032762D02*
X93555557Y-129969270D01*
X93555557Y-129969270D02*
X93809525Y-129969270D01*
X93809525Y-129969270D02*
X93936509Y-130032762D01*
X93936509Y-130032762D02*
X94000001Y-130159746D01*
X94000001Y-130159746D02*
X94000001Y-130286730D01*
X94000001Y-130286730D02*
X93365081Y-130413714D01*
X94444446Y-129969270D02*
X94761906Y-130858159D01*
X95079366Y-129969270D02*
X94761906Y-130858159D01*
X94761906Y-130858159D02*
X94634922Y-131175619D01*
X94634922Y-131175619D02*
X94571430Y-131239111D01*
X94571430Y-131239111D02*
X94444446Y-131302603D01*
X96476192Y-129524826D02*
X97365080Y-129524826D01*
X97365080Y-129524826D02*
X96793652Y-130858159D01*
X98063493Y-130096254D02*
X97936509Y-130032762D01*
X97936509Y-130032762D02*
X97873017Y-129969270D01*
X97873017Y-129969270D02*
X97809525Y-129842286D01*
X97809525Y-129842286D02*
X97809525Y-129778794D01*
X97809525Y-129778794D02*
X97873017Y-129651810D01*
X97873017Y-129651810D02*
X97936509Y-129588318D01*
X97936509Y-129588318D02*
X98063493Y-129524826D01*
X98063493Y-129524826D02*
X98317461Y-129524826D01*
X98317461Y-129524826D02*
X98444445Y-129588318D01*
X98444445Y-129588318D02*
X98507937Y-129651810D01*
X98507937Y-129651810D02*
X98571429Y-129778794D01*
X98571429Y-129778794D02*
X98571429Y-129842286D01*
X98571429Y-129842286D02*
X98507937Y-129969270D01*
X98507937Y-129969270D02*
X98444445Y-130032762D01*
X98444445Y-130032762D02*
X98317461Y-130096254D01*
X98317461Y-130096254D02*
X98063493Y-130096254D01*
X98063493Y-130096254D02*
X97936509Y-130159746D01*
X97936509Y-130159746D02*
X97873017Y-130223238D01*
X97873017Y-130223238D02*
X97809525Y-130350222D01*
X97809525Y-130350222D02*
X97809525Y-130604190D01*
X97809525Y-130604190D02*
X97873017Y-130731174D01*
X97873017Y-130731174D02*
X97936509Y-130794667D01*
X97936509Y-130794667D02*
X98063493Y-130858159D01*
X98063493Y-130858159D02*
X98317461Y-130858159D01*
X98317461Y-130858159D02*
X98444445Y-130794667D01*
X98444445Y-130794667D02*
X98507937Y-130731174D01*
X98507937Y-130731174D02*
X98571429Y-130604190D01*
X98571429Y-130604190D02*
X98571429Y-130350222D01*
X98571429Y-130350222D02*
X98507937Y-130223238D01*
X98507937Y-130223238D02*
X98444445Y-130159746D01*
X98444445Y-130159746D02*
X98317461Y-130096254D01*
X99396826Y-129524826D02*
X99523810Y-129524826D01*
X99523810Y-129524826D02*
X99650794Y-129588318D01*
X99650794Y-129588318D02*
X99714286Y-129651810D01*
X99714286Y-129651810D02*
X99777778Y-129778794D01*
X99777778Y-129778794D02*
X99841270Y-130032762D01*
X99841270Y-130032762D02*
X99841270Y-130350222D01*
X99841270Y-130350222D02*
X99777778Y-130604190D01*
X99777778Y-130604190D02*
X99714286Y-130731174D01*
X99714286Y-130731174D02*
X99650794Y-130794667D01*
X99650794Y-130794667D02*
X99523810Y-130858159D01*
X99523810Y-130858159D02*
X99396826Y-130858159D01*
X99396826Y-130858159D02*
X99269842Y-130794667D01*
X99269842Y-130794667D02*
X99206350Y-130731174D01*
X99206350Y-130731174D02*
X99142858Y-130604190D01*
X99142858Y-130604190D02*
X99079366Y-130350222D01*
X99079366Y-130350222D02*
X99079366Y-130032762D01*
X99079366Y-130032762D02*
X99142858Y-129778794D01*
X99142858Y-129778794D02*
X99206350Y-129651810D01*
X99206350Y-129651810D02*
X99269842Y-129588318D01*
X99269842Y-129588318D02*
X99396826Y-129524826D01*
X100666667Y-129524826D02*
X100793651Y-129524826D01*
X100793651Y-129524826D02*
X100920635Y-129588318D01*
X100920635Y-129588318D02*
X100984127Y-129651810D01*
X100984127Y-129651810D02*
X101047619Y-129778794D01*
X101047619Y-129778794D02*
X101111111Y-130032762D01*
X101111111Y-130032762D02*
X101111111Y-130350222D01*
X101111111Y-130350222D02*
X101047619Y-130604190D01*
X101047619Y-130604190D02*
X100984127Y-130731174D01*
X100984127Y-130731174D02*
X100920635Y-130794667D01*
X100920635Y-130794667D02*
X100793651Y-130858159D01*
X100793651Y-130858159D02*
X100666667Y-130858159D01*
X100666667Y-130858159D02*
X100539683Y-130794667D01*
X100539683Y-130794667D02*
X100476191Y-130731174D01*
X100476191Y-130731174D02*
X100412699Y-130604190D01*
X100412699Y-130604190D02*
X100349207Y-130350222D01*
X100349207Y-130350222D02*
X100349207Y-130032762D01*
X100349207Y-130032762D02*
X100412699Y-129778794D01*
X100412699Y-129778794D02*
X100476191Y-129651810D01*
X100476191Y-129651810D02*
X100539683Y-129588318D01*
X100539683Y-129588318D02*
X100666667Y-129524826D01*
X102952381Y-130223238D02*
X102952381Y-130858159D01*
X102507937Y-129524826D02*
X102952381Y-130223238D01*
X102952381Y-130223238D02*
X103396825Y-129524826D01*
X103841270Y-130858159D02*
X103841270Y-129524826D01*
X103841270Y-129524826D02*
X104285714Y-130477206D01*
X104285714Y-130477206D02*
X104730158Y-129524826D01*
X104730158Y-129524826D02*
X104730158Y-130858159D01*
X106253968Y-129969270D02*
X106571428Y-130858159D01*
X106571428Y-130858159D02*
X106888888Y-129969270D01*
X107650793Y-129524826D02*
X107777777Y-129524826D01*
X107777777Y-129524826D02*
X107904761Y-129588318D01*
X107904761Y-129588318D02*
X107968253Y-129651810D01*
X107968253Y-129651810D02*
X108031745Y-129778794D01*
X108031745Y-129778794D02*
X108095237Y-130032762D01*
X108095237Y-130032762D02*
X108095237Y-130350222D01*
X108095237Y-130350222D02*
X108031745Y-130604190D01*
X108031745Y-130604190D02*
X107968253Y-130731174D01*
X107968253Y-130731174D02*
X107904761Y-130794667D01*
X107904761Y-130794667D02*
X107777777Y-130858159D01*
X107777777Y-130858159D02*
X107650793Y-130858159D01*
X107650793Y-130858159D02*
X107523809Y-130794667D01*
X107523809Y-130794667D02*
X107460317Y-130731174D01*
X107460317Y-130731174D02*
X107396825Y-130604190D01*
X107396825Y-130604190D02*
X107333333Y-130350222D01*
X107333333Y-130350222D02*
X107333333Y-130032762D01*
X107333333Y-130032762D02*
X107396825Y-129778794D01*
X107396825Y-129778794D02*
X107460317Y-129651810D01*
X107460317Y-129651810D02*
X107523809Y-129588318D01*
X107523809Y-129588318D02*
X107650793Y-129524826D01*
X108666666Y-130731174D02*
X108730158Y-130794667D01*
X108730158Y-130794667D02*
X108666666Y-130858159D01*
X108666666Y-130858159D02*
X108603174Y-130794667D01*
X108603174Y-130794667D02*
X108666666Y-130731174D01*
X108666666Y-130731174D02*
X108666666Y-130858159D01*
X109999998Y-130858159D02*
X109238094Y-130858159D01*
X109619046Y-130858159D02*
X109619046Y-129524826D01*
X109619046Y-129524826D02*
X109492062Y-129715302D01*
X109492062Y-129715302D02*
X109365078Y-129842286D01*
X109365078Y-129842286D02*
X109238094Y-129905778D01*
D11*
X88864895Y-66495237D02*
X88483942Y-66761904D01*
X88864895Y-66952380D02*
X88064895Y-66952380D01*
X88064895Y-66952380D02*
X88064895Y-66647618D01*
X88064895Y-66647618D02*
X88102990Y-66571428D01*
X88102990Y-66571428D02*
X88141085Y-66533333D01*
X88141085Y-66533333D02*
X88217276Y-66495237D01*
X88217276Y-66495237D02*
X88331561Y-66495237D01*
X88331561Y-66495237D02*
X88407752Y-66533333D01*
X88407752Y-66533333D02*
X88445847Y-66571428D01*
X88445847Y-66571428D02*
X88483942Y-66647618D01*
X88483942Y-66647618D02*
X88483942Y-66952380D01*
X88445847Y-65885714D02*
X88445847Y-66152380D01*
X88864895Y-66152380D02*
X88064895Y-66152380D01*
X88064895Y-66152380D02*
X88064895Y-65771428D01*
X88445847Y-65200000D02*
X88483942Y-65085714D01*
X88483942Y-65085714D02*
X88522038Y-65047619D01*
X88522038Y-65047619D02*
X88598228Y-65009523D01*
X88598228Y-65009523D02*
X88712514Y-65009523D01*
X88712514Y-65009523D02*
X88788704Y-65047619D01*
X88788704Y-65047619D02*
X88826800Y-65085714D01*
X88826800Y-65085714D02*
X88864895Y-65161904D01*
X88864895Y-65161904D02*
X88864895Y-65466666D01*
X88864895Y-65466666D02*
X88064895Y-65466666D01*
X88064895Y-65466666D02*
X88064895Y-65200000D01*
X88064895Y-65200000D02*
X88102990Y-65123809D01*
X88102990Y-65123809D02*
X88141085Y-65085714D01*
X88141085Y-65085714D02*
X88217276Y-65047619D01*
X88217276Y-65047619D02*
X88293466Y-65047619D01*
X88293466Y-65047619D02*
X88369657Y-65085714D01*
X88369657Y-65085714D02*
X88407752Y-65123809D01*
X88407752Y-65123809D02*
X88445847Y-65200000D01*
X88445847Y-65200000D02*
X88445847Y-65466666D01*
X120076191Y-72614895D02*
X119809524Y-72233942D01*
X119619048Y-72614895D02*
X119619048Y-71814895D01*
X119619048Y-71814895D02*
X119923810Y-71814895D01*
X119923810Y-71814895D02*
X120000000Y-71852990D01*
X120000000Y-71852990D02*
X120038095Y-71891085D01*
X120038095Y-71891085D02*
X120076191Y-71967276D01*
X120076191Y-71967276D02*
X120076191Y-72081561D01*
X120076191Y-72081561D02*
X120038095Y-72157752D01*
X120038095Y-72157752D02*
X120000000Y-72195847D01*
X120000000Y-72195847D02*
X119923810Y-72233942D01*
X119923810Y-72233942D02*
X119619048Y-72233942D01*
X120380952Y-72386323D02*
X120761905Y-72386323D01*
X120304762Y-72614895D02*
X120571429Y-71814895D01*
X120571429Y-71814895D02*
X120838095Y-72614895D01*
X121104762Y-71814895D02*
X121104762Y-72462514D01*
X121104762Y-72462514D02*
X121142857Y-72538704D01*
X121142857Y-72538704D02*
X121180952Y-72576800D01*
X121180952Y-72576800D02*
X121257143Y-72614895D01*
X121257143Y-72614895D02*
X121409524Y-72614895D01*
X121409524Y-72614895D02*
X121485714Y-72576800D01*
X121485714Y-72576800D02*
X121523809Y-72538704D01*
X121523809Y-72538704D02*
X121561905Y-72462514D01*
X121561905Y-72462514D02*
X121561905Y-71814895D01*
X121942857Y-72614895D02*
X121942857Y-71814895D01*
X121942857Y-71814895D02*
X122133333Y-71814895D01*
X122133333Y-71814895D02*
X122247619Y-71852990D01*
X122247619Y-71852990D02*
X122323809Y-71929180D01*
X122323809Y-71929180D02*
X122361904Y-72005371D01*
X122361904Y-72005371D02*
X122400000Y-72157752D01*
X122400000Y-72157752D02*
X122400000Y-72272038D01*
X122400000Y-72272038D02*
X122361904Y-72424419D01*
X122361904Y-72424419D02*
X122323809Y-72500609D01*
X122323809Y-72500609D02*
X122247619Y-72576800D01*
X122247619Y-72576800D02*
X122133333Y-72614895D01*
X122133333Y-72614895D02*
X121942857Y-72614895D01*
X122742857Y-72614895D02*
X122742857Y-71814895D01*
X123276190Y-71814895D02*
X123428571Y-71814895D01*
X123428571Y-71814895D02*
X123504761Y-71852990D01*
X123504761Y-71852990D02*
X123580952Y-71929180D01*
X123580952Y-71929180D02*
X123619047Y-72081561D01*
X123619047Y-72081561D02*
X123619047Y-72348228D01*
X123619047Y-72348228D02*
X123580952Y-72500609D01*
X123580952Y-72500609D02*
X123504761Y-72576800D01*
X123504761Y-72576800D02*
X123428571Y-72614895D01*
X123428571Y-72614895D02*
X123276190Y-72614895D01*
X123276190Y-72614895D02*
X123199999Y-72576800D01*
X123199999Y-72576800D02*
X123123809Y-72500609D01*
X123123809Y-72500609D02*
X123085713Y-72348228D01*
X123085713Y-72348228D02*
X123085713Y-72081561D01*
X123085713Y-72081561D02*
X123123809Y-71929180D01*
X123123809Y-71929180D02*
X123199999Y-71852990D01*
X123199999Y-71852990D02*
X123276190Y-71814895D01*
X124228570Y-72195847D02*
X124342856Y-72233942D01*
X124342856Y-72233942D02*
X124380951Y-72272038D01*
X124380951Y-72272038D02*
X124419047Y-72348228D01*
X124419047Y-72348228D02*
X124419047Y-72462514D01*
X124419047Y-72462514D02*
X124380951Y-72538704D01*
X124380951Y-72538704D02*
X124342856Y-72576800D01*
X124342856Y-72576800D02*
X124266666Y-72614895D01*
X124266666Y-72614895D02*
X123961904Y-72614895D01*
X123961904Y-72614895D02*
X123961904Y-71814895D01*
X123961904Y-71814895D02*
X124228570Y-71814895D01*
X124228570Y-71814895D02*
X124304761Y-71852990D01*
X124304761Y-71852990D02*
X124342856Y-71891085D01*
X124342856Y-71891085D02*
X124380951Y-71967276D01*
X124380951Y-71967276D02*
X124380951Y-72043466D01*
X124380951Y-72043466D02*
X124342856Y-72119657D01*
X124342856Y-72119657D02*
X124304761Y-72157752D01*
X124304761Y-72157752D02*
X124228570Y-72195847D01*
X124228570Y-72195847D02*
X123961904Y-72195847D01*
X118864895Y-67219046D02*
X118483942Y-67485713D01*
X118864895Y-67676189D02*
X118064895Y-67676189D01*
X118064895Y-67676189D02*
X118064895Y-67371427D01*
X118064895Y-67371427D02*
X118102990Y-67295237D01*
X118102990Y-67295237D02*
X118141085Y-67257142D01*
X118141085Y-67257142D02*
X118217276Y-67219046D01*
X118217276Y-67219046D02*
X118331561Y-67219046D01*
X118331561Y-67219046D02*
X118407752Y-67257142D01*
X118407752Y-67257142D02*
X118445847Y-67295237D01*
X118445847Y-67295237D02*
X118483942Y-67371427D01*
X118483942Y-67371427D02*
X118483942Y-67676189D01*
X118864895Y-66876189D02*
X118064895Y-66876189D01*
X118064895Y-66876189D02*
X118064895Y-66571427D01*
X118064895Y-66571427D02*
X118102990Y-66495237D01*
X118102990Y-66495237D02*
X118141085Y-66457142D01*
X118141085Y-66457142D02*
X118217276Y-66419046D01*
X118217276Y-66419046D02*
X118331561Y-66419046D01*
X118331561Y-66419046D02*
X118407752Y-66457142D01*
X118407752Y-66457142D02*
X118445847Y-66495237D01*
X118445847Y-66495237D02*
X118483942Y-66571427D01*
X118483942Y-66571427D02*
X118483942Y-66876189D01*
X118064895Y-66076189D02*
X118712514Y-66076189D01*
X118712514Y-66076189D02*
X118788704Y-66038094D01*
X118788704Y-66038094D02*
X118826800Y-65999999D01*
X118826800Y-65999999D02*
X118864895Y-65923808D01*
X118864895Y-65923808D02*
X118864895Y-65771427D01*
X118864895Y-65771427D02*
X118826800Y-65695237D01*
X118826800Y-65695237D02*
X118788704Y-65657142D01*
X118788704Y-65657142D02*
X118712514Y-65619046D01*
X118712514Y-65619046D02*
X118064895Y-65619046D01*
X118864895Y-64857142D02*
X118864895Y-65238094D01*
X118864895Y-65238094D02*
X118064895Y-65238094D01*
X118864895Y-64209523D02*
X118864895Y-64590475D01*
X118864895Y-64590475D02*
X118064895Y-64590475D01*
X117574895Y-118859523D02*
X118222514Y-118859523D01*
X118222514Y-118859523D02*
X118298704Y-118821428D01*
X118298704Y-118821428D02*
X118336800Y-118783333D01*
X118336800Y-118783333D02*
X118374895Y-118707142D01*
X118374895Y-118707142D02*
X118374895Y-118554761D01*
X118374895Y-118554761D02*
X118336800Y-118478571D01*
X118336800Y-118478571D02*
X118298704Y-118440476D01*
X118298704Y-118440476D02*
X118222514Y-118402380D01*
X118222514Y-118402380D02*
X117574895Y-118402380D01*
X118374895Y-117602381D02*
X118374895Y-118059524D01*
X118374895Y-117830952D02*
X117574895Y-117830952D01*
X117574895Y-117830952D02*
X117689180Y-117907143D01*
X117689180Y-117907143D02*
X117765371Y-117983333D01*
X117765371Y-117983333D02*
X117803466Y-118059524D01*
X113788704Y-66133332D02*
X113826800Y-66171428D01*
X113826800Y-66171428D02*
X113864895Y-66285713D01*
X113864895Y-66285713D02*
X113864895Y-66361904D01*
X113864895Y-66361904D02*
X113826800Y-66476190D01*
X113826800Y-66476190D02*
X113750609Y-66552380D01*
X113750609Y-66552380D02*
X113674419Y-66590475D01*
X113674419Y-66590475D02*
X113522038Y-66628571D01*
X113522038Y-66628571D02*
X113407752Y-66628571D01*
X113407752Y-66628571D02*
X113255371Y-66590475D01*
X113255371Y-66590475D02*
X113179180Y-66552380D01*
X113179180Y-66552380D02*
X113102990Y-66476190D01*
X113102990Y-66476190D02*
X113064895Y-66361904D01*
X113064895Y-66361904D02*
X113064895Y-66285713D01*
X113064895Y-66285713D02*
X113102990Y-66171428D01*
X113102990Y-66171428D02*
X113141085Y-66133332D01*
X113064895Y-65409523D02*
X113064895Y-65790475D01*
X113064895Y-65790475D02*
X113445847Y-65828571D01*
X113445847Y-65828571D02*
X113407752Y-65790475D01*
X113407752Y-65790475D02*
X113369657Y-65714285D01*
X113369657Y-65714285D02*
X113369657Y-65523809D01*
X113369657Y-65523809D02*
X113407752Y-65447618D01*
X113407752Y-65447618D02*
X113445847Y-65409523D01*
X113445847Y-65409523D02*
X113522038Y-65371428D01*
X113522038Y-65371428D02*
X113712514Y-65371428D01*
X113712514Y-65371428D02*
X113788704Y-65409523D01*
X113788704Y-65409523D02*
X113826800Y-65447618D01*
X113826800Y-65447618D02*
X113864895Y-65523809D01*
X113864895Y-65523809D02*
X113864895Y-65714285D01*
X113864895Y-65714285D02*
X113826800Y-65790475D01*
X113826800Y-65790475D02*
X113788704Y-65828571D01*
X114133334Y-72614895D02*
X113866667Y-72233942D01*
X113676191Y-72614895D02*
X113676191Y-71814895D01*
X113676191Y-71814895D02*
X113980953Y-71814895D01*
X113980953Y-71814895D02*
X114057143Y-71852990D01*
X114057143Y-71852990D02*
X114095238Y-71891085D01*
X114095238Y-71891085D02*
X114133334Y-71967276D01*
X114133334Y-71967276D02*
X114133334Y-72081561D01*
X114133334Y-72081561D02*
X114095238Y-72157752D01*
X114095238Y-72157752D02*
X114057143Y-72195847D01*
X114057143Y-72195847D02*
X113980953Y-72233942D01*
X113980953Y-72233942D02*
X113676191Y-72233942D01*
X114438095Y-72386323D02*
X114819048Y-72386323D01*
X114361905Y-72614895D02*
X114628572Y-71814895D01*
X114628572Y-71814895D02*
X114895238Y-72614895D01*
X115161905Y-71814895D02*
X115161905Y-72462514D01*
X115161905Y-72462514D02*
X115200000Y-72538704D01*
X115200000Y-72538704D02*
X115238095Y-72576800D01*
X115238095Y-72576800D02*
X115314286Y-72614895D01*
X115314286Y-72614895D02*
X115466667Y-72614895D01*
X115466667Y-72614895D02*
X115542857Y-72576800D01*
X115542857Y-72576800D02*
X115580952Y-72538704D01*
X115580952Y-72538704D02*
X115619048Y-72462514D01*
X115619048Y-72462514D02*
X115619048Y-71814895D01*
X116000000Y-72614895D02*
X116000000Y-71814895D01*
X116000000Y-71814895D02*
X116190476Y-71814895D01*
X116190476Y-71814895D02*
X116304762Y-71852990D01*
X116304762Y-71852990D02*
X116380952Y-71929180D01*
X116380952Y-71929180D02*
X116419047Y-72005371D01*
X116419047Y-72005371D02*
X116457143Y-72157752D01*
X116457143Y-72157752D02*
X116457143Y-72272038D01*
X116457143Y-72272038D02*
X116419047Y-72424419D01*
X116419047Y-72424419D02*
X116380952Y-72500609D01*
X116380952Y-72500609D02*
X116304762Y-72576800D01*
X116304762Y-72576800D02*
X116190476Y-72614895D01*
X116190476Y-72614895D02*
X116000000Y-72614895D01*
X116800000Y-72614895D02*
X116800000Y-71814895D01*
X117333333Y-71814895D02*
X117485714Y-71814895D01*
X117485714Y-71814895D02*
X117561904Y-71852990D01*
X117561904Y-71852990D02*
X117638095Y-71929180D01*
X117638095Y-71929180D02*
X117676190Y-72081561D01*
X117676190Y-72081561D02*
X117676190Y-72348228D01*
X117676190Y-72348228D02*
X117638095Y-72500609D01*
X117638095Y-72500609D02*
X117561904Y-72576800D01*
X117561904Y-72576800D02*
X117485714Y-72614895D01*
X117485714Y-72614895D02*
X117333333Y-72614895D01*
X117333333Y-72614895D02*
X117257142Y-72576800D01*
X117257142Y-72576800D02*
X117180952Y-72500609D01*
X117180952Y-72500609D02*
X117142856Y-72348228D01*
X117142856Y-72348228D02*
X117142856Y-72081561D01*
X117142856Y-72081561D02*
X117180952Y-71929180D01*
X117180952Y-71929180D02*
X117257142Y-71852990D01*
X117257142Y-71852990D02*
X117333333Y-71814895D01*
X117980951Y-72386323D02*
X118361904Y-72386323D01*
X117904761Y-72614895D02*
X118171428Y-71814895D01*
X118171428Y-71814895D02*
X118438094Y-72614895D01*
X121788704Y-118383332D02*
X121826800Y-118421428D01*
X121826800Y-118421428D02*
X121864895Y-118535713D01*
X121864895Y-118535713D02*
X121864895Y-118611904D01*
X121864895Y-118611904D02*
X121826800Y-118726190D01*
X121826800Y-118726190D02*
X121750609Y-118802380D01*
X121750609Y-118802380D02*
X121674419Y-118840475D01*
X121674419Y-118840475D02*
X121522038Y-118878571D01*
X121522038Y-118878571D02*
X121407752Y-118878571D01*
X121407752Y-118878571D02*
X121255371Y-118840475D01*
X121255371Y-118840475D02*
X121179180Y-118802380D01*
X121179180Y-118802380D02*
X121102990Y-118726190D01*
X121102990Y-118726190D02*
X121064895Y-118611904D01*
X121064895Y-118611904D02*
X121064895Y-118535713D01*
X121064895Y-118535713D02*
X121102990Y-118421428D01*
X121102990Y-118421428D02*
X121141085Y-118383332D01*
X121864895Y-117621428D02*
X121864895Y-118078571D01*
X121864895Y-117849999D02*
X121064895Y-117849999D01*
X121064895Y-117849999D02*
X121179180Y-117926190D01*
X121179180Y-117926190D02*
X121255371Y-118002380D01*
X121255371Y-118002380D02*
X121293466Y-118078571D01*
X78057142Y-94538704D02*
X78019046Y-94576800D01*
X78019046Y-94576800D02*
X77904761Y-94614895D01*
X77904761Y-94614895D02*
X77828570Y-94614895D01*
X77828570Y-94614895D02*
X77714284Y-94576800D01*
X77714284Y-94576800D02*
X77638094Y-94500609D01*
X77638094Y-94500609D02*
X77599999Y-94424419D01*
X77599999Y-94424419D02*
X77561903Y-94272038D01*
X77561903Y-94272038D02*
X77561903Y-94157752D01*
X77561903Y-94157752D02*
X77599999Y-94005371D01*
X77599999Y-94005371D02*
X77638094Y-93929180D01*
X77638094Y-93929180D02*
X77714284Y-93852990D01*
X77714284Y-93852990D02*
X77828570Y-93814895D01*
X77828570Y-93814895D02*
X77904761Y-93814895D01*
X77904761Y-93814895D02*
X78019046Y-93852990D01*
X78019046Y-93852990D02*
X78057142Y-93891085D01*
X78857142Y-94614895D02*
X78590475Y-94233942D01*
X78399999Y-94614895D02*
X78399999Y-93814895D01*
X78399999Y-93814895D02*
X78704761Y-93814895D01*
X78704761Y-93814895D02*
X78780951Y-93852990D01*
X78780951Y-93852990D02*
X78819046Y-93891085D01*
X78819046Y-93891085D02*
X78857142Y-93967276D01*
X78857142Y-93967276D02*
X78857142Y-94081561D01*
X78857142Y-94081561D02*
X78819046Y-94157752D01*
X78819046Y-94157752D02*
X78780951Y-94195847D01*
X78780951Y-94195847D02*
X78704761Y-94233942D01*
X78704761Y-94233942D02*
X78399999Y-94233942D01*
X79199999Y-94195847D02*
X79466665Y-94195847D01*
X79580951Y-94614895D02*
X79199999Y-94614895D01*
X79199999Y-94614895D02*
X79199999Y-93814895D01*
X79199999Y-93814895D02*
X79580951Y-93814895D01*
X79885713Y-94576800D02*
X79999999Y-94614895D01*
X79999999Y-94614895D02*
X80190475Y-94614895D01*
X80190475Y-94614895D02*
X80266666Y-94576800D01*
X80266666Y-94576800D02*
X80304761Y-94538704D01*
X80304761Y-94538704D02*
X80342856Y-94462514D01*
X80342856Y-94462514D02*
X80342856Y-94386323D01*
X80342856Y-94386323D02*
X80304761Y-94310133D01*
X80304761Y-94310133D02*
X80266666Y-94272038D01*
X80266666Y-94272038D02*
X80190475Y-94233942D01*
X80190475Y-94233942D02*
X80038094Y-94195847D01*
X80038094Y-94195847D02*
X79961904Y-94157752D01*
X79961904Y-94157752D02*
X79923809Y-94119657D01*
X79923809Y-94119657D02*
X79885713Y-94043466D01*
X79885713Y-94043466D02*
X79885713Y-93967276D01*
X79885713Y-93967276D02*
X79923809Y-93891085D01*
X79923809Y-93891085D02*
X79961904Y-93852990D01*
X79961904Y-93852990D02*
X80038094Y-93814895D01*
X80038094Y-93814895D02*
X80228571Y-93814895D01*
X80228571Y-93814895D02*
X80342856Y-93852990D01*
X80685714Y-94195847D02*
X80952380Y-94195847D01*
X81066666Y-94614895D02*
X80685714Y-94614895D01*
X80685714Y-94614895D02*
X80685714Y-93814895D01*
X80685714Y-93814895D02*
X81066666Y-93814895D01*
X81295238Y-93814895D02*
X81752381Y-93814895D01*
X81523809Y-94614895D02*
X81523809Y-93814895D01*
X82438095Y-94614895D02*
X81980952Y-94614895D01*
X82209524Y-94614895D02*
X82209524Y-93814895D01*
X82209524Y-93814895D02*
X82133333Y-93929180D01*
X82133333Y-93929180D02*
X82057143Y-94005371D01*
X82057143Y-94005371D02*
X81980952Y-94043466D01*
X100788704Y-102383332D02*
X100826800Y-102421428D01*
X100826800Y-102421428D02*
X100864895Y-102535713D01*
X100864895Y-102535713D02*
X100864895Y-102611904D01*
X100864895Y-102611904D02*
X100826800Y-102726190D01*
X100826800Y-102726190D02*
X100750609Y-102802380D01*
X100750609Y-102802380D02*
X100674419Y-102840475D01*
X100674419Y-102840475D02*
X100522038Y-102878571D01*
X100522038Y-102878571D02*
X100407752Y-102878571D01*
X100407752Y-102878571D02*
X100255371Y-102840475D01*
X100255371Y-102840475D02*
X100179180Y-102802380D01*
X100179180Y-102802380D02*
X100102990Y-102726190D01*
X100102990Y-102726190D02*
X100064895Y-102611904D01*
X100064895Y-102611904D02*
X100064895Y-102535713D01*
X100064895Y-102535713D02*
X100102990Y-102421428D01*
X100102990Y-102421428D02*
X100141085Y-102383332D01*
X100141085Y-102078571D02*
X100102990Y-102040475D01*
X100102990Y-102040475D02*
X100064895Y-101964285D01*
X100064895Y-101964285D02*
X100064895Y-101773809D01*
X100064895Y-101773809D02*
X100102990Y-101697618D01*
X100102990Y-101697618D02*
X100141085Y-101659523D01*
X100141085Y-101659523D02*
X100217276Y-101621428D01*
X100217276Y-101621428D02*
X100293466Y-101621428D01*
X100293466Y-101621428D02*
X100407752Y-101659523D01*
X100407752Y-101659523D02*
X100864895Y-102116666D01*
X100864895Y-102116666D02*
X100864895Y-101621428D01*
X130788704Y-102383332D02*
X130826800Y-102421428D01*
X130826800Y-102421428D02*
X130864895Y-102535713D01*
X130864895Y-102535713D02*
X130864895Y-102611904D01*
X130864895Y-102611904D02*
X130826800Y-102726190D01*
X130826800Y-102726190D02*
X130750609Y-102802380D01*
X130750609Y-102802380D02*
X130674419Y-102840475D01*
X130674419Y-102840475D02*
X130522038Y-102878571D01*
X130522038Y-102878571D02*
X130407752Y-102878571D01*
X130407752Y-102878571D02*
X130255371Y-102840475D01*
X130255371Y-102840475D02*
X130179180Y-102802380D01*
X130179180Y-102802380D02*
X130102990Y-102726190D01*
X130102990Y-102726190D02*
X130064895Y-102611904D01*
X130064895Y-102611904D02*
X130064895Y-102535713D01*
X130064895Y-102535713D02*
X130102990Y-102421428D01*
X130102990Y-102421428D02*
X130141085Y-102383332D01*
X130064895Y-102116666D02*
X130064895Y-101621428D01*
X130064895Y-101621428D02*
X130369657Y-101888094D01*
X130369657Y-101888094D02*
X130369657Y-101773809D01*
X130369657Y-101773809D02*
X130407752Y-101697618D01*
X130407752Y-101697618D02*
X130445847Y-101659523D01*
X130445847Y-101659523D02*
X130522038Y-101621428D01*
X130522038Y-101621428D02*
X130712514Y-101621428D01*
X130712514Y-101621428D02*
X130788704Y-101659523D01*
X130788704Y-101659523D02*
X130826800Y-101697618D01*
X130826800Y-101697618D02*
X130864895Y-101773809D01*
X130864895Y-101773809D02*
X130864895Y-102002380D01*
X130864895Y-102002380D02*
X130826800Y-102078571D01*
X130826800Y-102078571D02*
X130788704Y-102116666D01*
X125194895Y-84859523D02*
X125842514Y-84859523D01*
X125842514Y-84859523D02*
X125918704Y-84821428D01*
X125918704Y-84821428D02*
X125956800Y-84783333D01*
X125956800Y-84783333D02*
X125994895Y-84707142D01*
X125994895Y-84707142D02*
X125994895Y-84554761D01*
X125994895Y-84554761D02*
X125956800Y-84478571D01*
X125956800Y-84478571D02*
X125918704Y-84440476D01*
X125918704Y-84440476D02*
X125842514Y-84402380D01*
X125842514Y-84402380D02*
X125194895Y-84402380D01*
X125461561Y-83678571D02*
X125994895Y-83678571D01*
X125156800Y-83869047D02*
X125728228Y-84059524D01*
X125728228Y-84059524D02*
X125728228Y-83564285D01*
X108864895Y-67828571D02*
X108483942Y-68095238D01*
X108864895Y-68285714D02*
X108064895Y-68285714D01*
X108064895Y-68285714D02*
X108064895Y-67980952D01*
X108064895Y-67980952D02*
X108102990Y-67904762D01*
X108102990Y-67904762D02*
X108141085Y-67866667D01*
X108141085Y-67866667D02*
X108217276Y-67828571D01*
X108217276Y-67828571D02*
X108331561Y-67828571D01*
X108331561Y-67828571D02*
X108407752Y-67866667D01*
X108407752Y-67866667D02*
X108445847Y-67904762D01*
X108445847Y-67904762D02*
X108483942Y-67980952D01*
X108483942Y-67980952D02*
X108483942Y-68285714D01*
X108826800Y-67523810D02*
X108864895Y-67409524D01*
X108864895Y-67409524D02*
X108864895Y-67219048D01*
X108864895Y-67219048D02*
X108826800Y-67142857D01*
X108826800Y-67142857D02*
X108788704Y-67104762D01*
X108788704Y-67104762D02*
X108712514Y-67066667D01*
X108712514Y-67066667D02*
X108636323Y-67066667D01*
X108636323Y-67066667D02*
X108560133Y-67104762D01*
X108560133Y-67104762D02*
X108522038Y-67142857D01*
X108522038Y-67142857D02*
X108483942Y-67219048D01*
X108483942Y-67219048D02*
X108445847Y-67371429D01*
X108445847Y-67371429D02*
X108407752Y-67447619D01*
X108407752Y-67447619D02*
X108369657Y-67485714D01*
X108369657Y-67485714D02*
X108293466Y-67523810D01*
X108293466Y-67523810D02*
X108217276Y-67523810D01*
X108217276Y-67523810D02*
X108141085Y-67485714D01*
X108141085Y-67485714D02*
X108102990Y-67447619D01*
X108102990Y-67447619D02*
X108064895Y-67371429D01*
X108064895Y-67371429D02*
X108064895Y-67180952D01*
X108064895Y-67180952D02*
X108102990Y-67066667D01*
X108445847Y-66723809D02*
X108445847Y-66457143D01*
X108864895Y-66342857D02*
X108864895Y-66723809D01*
X108864895Y-66723809D02*
X108064895Y-66723809D01*
X108064895Y-66723809D02*
X108064895Y-66342857D01*
X108864895Y-65542856D02*
X108483942Y-65809523D01*
X108864895Y-65999999D02*
X108064895Y-65999999D01*
X108064895Y-65999999D02*
X108064895Y-65695237D01*
X108064895Y-65695237D02*
X108102990Y-65619047D01*
X108102990Y-65619047D02*
X108141085Y-65580952D01*
X108141085Y-65580952D02*
X108217276Y-65542856D01*
X108217276Y-65542856D02*
X108331561Y-65542856D01*
X108331561Y-65542856D02*
X108407752Y-65580952D01*
X108407752Y-65580952D02*
X108445847Y-65619047D01*
X108445847Y-65619047D02*
X108483942Y-65695237D01*
X108483942Y-65695237D02*
X108483942Y-65999999D01*
X108864895Y-65199999D02*
X108064895Y-65199999D01*
X108445847Y-64819047D02*
X108445847Y-64552381D01*
X108864895Y-64438095D02*
X108864895Y-64819047D01*
X108864895Y-64819047D02*
X108064895Y-64819047D01*
X108064895Y-64819047D02*
X108064895Y-64438095D01*
X108826800Y-64133333D02*
X108864895Y-64019047D01*
X108864895Y-64019047D02*
X108864895Y-63828571D01*
X108864895Y-63828571D02*
X108826800Y-63752380D01*
X108826800Y-63752380D02*
X108788704Y-63714285D01*
X108788704Y-63714285D02*
X108712514Y-63676190D01*
X108712514Y-63676190D02*
X108636323Y-63676190D01*
X108636323Y-63676190D02*
X108560133Y-63714285D01*
X108560133Y-63714285D02*
X108522038Y-63752380D01*
X108522038Y-63752380D02*
X108483942Y-63828571D01*
X108483942Y-63828571D02*
X108445847Y-63980952D01*
X108445847Y-63980952D02*
X108407752Y-64057142D01*
X108407752Y-64057142D02*
X108369657Y-64095237D01*
X108369657Y-64095237D02*
X108293466Y-64133333D01*
X108293466Y-64133333D02*
X108217276Y-64133333D01*
X108217276Y-64133333D02*
X108141085Y-64095237D01*
X108141085Y-64095237D02*
X108102990Y-64057142D01*
X108102990Y-64057142D02*
X108064895Y-63980952D01*
X108064895Y-63980952D02*
X108064895Y-63790475D01*
X108064895Y-63790475D02*
X108102990Y-63676190D01*
X77228571Y-141854895D02*
X76771428Y-141854895D01*
X77000000Y-141854895D02*
X77000000Y-141054895D01*
X77000000Y-141054895D02*
X76923809Y-141169180D01*
X76923809Y-141169180D02*
X76847619Y-141245371D01*
X76847619Y-141245371D02*
X76771428Y-141283466D01*
X122847618Y-141854895D02*
X122390475Y-141854895D01*
X122619047Y-141854895D02*
X122619047Y-141054895D01*
X122619047Y-141054895D02*
X122542856Y-141169180D01*
X122542856Y-141169180D02*
X122466666Y-141245371D01*
X122466666Y-141245371D02*
X122390475Y-141283466D01*
X123533333Y-141054895D02*
X123380952Y-141054895D01*
X123380952Y-141054895D02*
X123304761Y-141092990D01*
X123304761Y-141092990D02*
X123266666Y-141131085D01*
X123266666Y-141131085D02*
X123190476Y-141245371D01*
X123190476Y-141245371D02*
X123152380Y-141397752D01*
X123152380Y-141397752D02*
X123152380Y-141702514D01*
X123152380Y-141702514D02*
X123190476Y-141778704D01*
X123190476Y-141778704D02*
X123228571Y-141816800D01*
X123228571Y-141816800D02*
X123304761Y-141854895D01*
X123304761Y-141854895D02*
X123457142Y-141854895D01*
X123457142Y-141854895D02*
X123533333Y-141816800D01*
X123533333Y-141816800D02*
X123571428Y-141778704D01*
X123571428Y-141778704D02*
X123609523Y-141702514D01*
X123609523Y-141702514D02*
X123609523Y-141512038D01*
X123609523Y-141512038D02*
X123571428Y-141435847D01*
X123571428Y-141435847D02*
X123533333Y-141397752D01*
X123533333Y-141397752D02*
X123457142Y-141359657D01*
X123457142Y-141359657D02*
X123304761Y-141359657D01*
X123304761Y-141359657D02*
X123228571Y-141397752D01*
X123228571Y-141397752D02*
X123190476Y-141435847D01*
X123190476Y-141435847D02*
X123152380Y-141512038D01*
X83788704Y-67999999D02*
X83826800Y-68038095D01*
X83826800Y-68038095D02*
X83864895Y-68152380D01*
X83864895Y-68152380D02*
X83864895Y-68228571D01*
X83864895Y-68228571D02*
X83826800Y-68342857D01*
X83826800Y-68342857D02*
X83750609Y-68419047D01*
X83750609Y-68419047D02*
X83674419Y-68457142D01*
X83674419Y-68457142D02*
X83522038Y-68495238D01*
X83522038Y-68495238D02*
X83407752Y-68495238D01*
X83407752Y-68495238D02*
X83255371Y-68457142D01*
X83255371Y-68457142D02*
X83179180Y-68419047D01*
X83179180Y-68419047D02*
X83102990Y-68342857D01*
X83102990Y-68342857D02*
X83064895Y-68228571D01*
X83064895Y-68228571D02*
X83064895Y-68152380D01*
X83064895Y-68152380D02*
X83102990Y-68038095D01*
X83102990Y-68038095D02*
X83141085Y-67999999D01*
X83445847Y-67390476D02*
X83483942Y-67276190D01*
X83483942Y-67276190D02*
X83522038Y-67238095D01*
X83522038Y-67238095D02*
X83598228Y-67199999D01*
X83598228Y-67199999D02*
X83712514Y-67199999D01*
X83712514Y-67199999D02*
X83788704Y-67238095D01*
X83788704Y-67238095D02*
X83826800Y-67276190D01*
X83826800Y-67276190D02*
X83864895Y-67352380D01*
X83864895Y-67352380D02*
X83864895Y-67657142D01*
X83864895Y-67657142D02*
X83064895Y-67657142D01*
X83064895Y-67657142D02*
X83064895Y-67390476D01*
X83064895Y-67390476D02*
X83102990Y-67314285D01*
X83102990Y-67314285D02*
X83141085Y-67276190D01*
X83141085Y-67276190D02*
X83217276Y-67238095D01*
X83217276Y-67238095D02*
X83293466Y-67238095D01*
X83293466Y-67238095D02*
X83369657Y-67276190D01*
X83369657Y-67276190D02*
X83407752Y-67314285D01*
X83407752Y-67314285D02*
X83445847Y-67390476D01*
X83445847Y-67390476D02*
X83445847Y-67657142D01*
X83483942Y-66704761D02*
X83864895Y-66704761D01*
X83064895Y-66971428D02*
X83483942Y-66704761D01*
X83483942Y-66704761D02*
X83064895Y-66438095D01*
X83864895Y-66171428D02*
X83064895Y-66171428D01*
X83064895Y-66171428D02*
X83064895Y-65866666D01*
X83064895Y-65866666D02*
X83102990Y-65790476D01*
X83102990Y-65790476D02*
X83141085Y-65752381D01*
X83141085Y-65752381D02*
X83217276Y-65714285D01*
X83217276Y-65714285D02*
X83331561Y-65714285D01*
X83331561Y-65714285D02*
X83407752Y-65752381D01*
X83407752Y-65752381D02*
X83445847Y-65790476D01*
X83445847Y-65790476D02*
X83483942Y-65866666D01*
X83483942Y-65866666D02*
X83483942Y-66171428D01*
X83636323Y-65409524D02*
X83636323Y-65028571D01*
X83864895Y-65485714D02*
X83064895Y-65219047D01*
X83064895Y-65219047D02*
X83864895Y-64952381D01*
X83826800Y-64723810D02*
X83864895Y-64609524D01*
X83864895Y-64609524D02*
X83864895Y-64419048D01*
X83864895Y-64419048D02*
X83826800Y-64342857D01*
X83826800Y-64342857D02*
X83788704Y-64304762D01*
X83788704Y-64304762D02*
X83712514Y-64266667D01*
X83712514Y-64266667D02*
X83636323Y-64266667D01*
X83636323Y-64266667D02*
X83560133Y-64304762D01*
X83560133Y-64304762D02*
X83522038Y-64342857D01*
X83522038Y-64342857D02*
X83483942Y-64419048D01*
X83483942Y-64419048D02*
X83445847Y-64571429D01*
X83445847Y-64571429D02*
X83407752Y-64647619D01*
X83407752Y-64647619D02*
X83369657Y-64685714D01*
X83369657Y-64685714D02*
X83293466Y-64723810D01*
X83293466Y-64723810D02*
X83217276Y-64723810D01*
X83217276Y-64723810D02*
X83141085Y-64685714D01*
X83141085Y-64685714D02*
X83102990Y-64647619D01*
X83102990Y-64647619D02*
X83064895Y-64571429D01*
X83064895Y-64571429D02*
X83064895Y-64380952D01*
X83064895Y-64380952D02*
X83102990Y-64266667D01*
X83826800Y-63961905D02*
X83864895Y-63847619D01*
X83864895Y-63847619D02*
X83864895Y-63657143D01*
X83864895Y-63657143D02*
X83826800Y-63580952D01*
X83826800Y-63580952D02*
X83788704Y-63542857D01*
X83788704Y-63542857D02*
X83712514Y-63504762D01*
X83712514Y-63504762D02*
X83636323Y-63504762D01*
X83636323Y-63504762D02*
X83560133Y-63542857D01*
X83560133Y-63542857D02*
X83522038Y-63580952D01*
X83522038Y-63580952D02*
X83483942Y-63657143D01*
X83483942Y-63657143D02*
X83445847Y-63809524D01*
X83445847Y-63809524D02*
X83407752Y-63885714D01*
X83407752Y-63885714D02*
X83369657Y-63923809D01*
X83369657Y-63923809D02*
X83293466Y-63961905D01*
X83293466Y-63961905D02*
X83217276Y-63961905D01*
X83217276Y-63961905D02*
X83141085Y-63923809D01*
X83141085Y-63923809D02*
X83102990Y-63885714D01*
X83102990Y-63885714D02*
X83064895Y-63809524D01*
X83064895Y-63809524D02*
X83064895Y-63619047D01*
X83064895Y-63619047D02*
X83102990Y-63504762D01*
X126788704Y-84383332D02*
X126826800Y-84421428D01*
X126826800Y-84421428D02*
X126864895Y-84535713D01*
X126864895Y-84535713D02*
X126864895Y-84611904D01*
X126864895Y-84611904D02*
X126826800Y-84726190D01*
X126826800Y-84726190D02*
X126750609Y-84802380D01*
X126750609Y-84802380D02*
X126674419Y-84840475D01*
X126674419Y-84840475D02*
X126522038Y-84878571D01*
X126522038Y-84878571D02*
X126407752Y-84878571D01*
X126407752Y-84878571D02*
X126255371Y-84840475D01*
X126255371Y-84840475D02*
X126179180Y-84802380D01*
X126179180Y-84802380D02*
X126102990Y-84726190D01*
X126102990Y-84726190D02*
X126064895Y-84611904D01*
X126064895Y-84611904D02*
X126064895Y-84535713D01*
X126064895Y-84535713D02*
X126102990Y-84421428D01*
X126102990Y-84421428D02*
X126141085Y-84383332D01*
X126331561Y-83697618D02*
X126864895Y-83697618D01*
X126026800Y-83888094D02*
X126598228Y-84078571D01*
X126598228Y-84078571D02*
X126598228Y-83583332D01*
X84057142Y-94614895D02*
X83790475Y-94233942D01*
X83599999Y-94614895D02*
X83599999Y-93814895D01*
X83599999Y-93814895D02*
X83904761Y-93814895D01*
X83904761Y-93814895D02*
X83980951Y-93852990D01*
X83980951Y-93852990D02*
X84019046Y-93891085D01*
X84019046Y-93891085D02*
X84057142Y-93967276D01*
X84057142Y-93967276D02*
X84057142Y-94081561D01*
X84057142Y-94081561D02*
X84019046Y-94157752D01*
X84019046Y-94157752D02*
X83980951Y-94195847D01*
X83980951Y-94195847D02*
X83904761Y-94233942D01*
X83904761Y-94233942D02*
X83599999Y-94233942D01*
X84857142Y-94614895D02*
X84590475Y-94233942D01*
X84399999Y-94614895D02*
X84399999Y-93814895D01*
X84399999Y-93814895D02*
X84704761Y-93814895D01*
X84704761Y-93814895D02*
X84780951Y-93852990D01*
X84780951Y-93852990D02*
X84819046Y-93891085D01*
X84819046Y-93891085D02*
X84857142Y-93967276D01*
X84857142Y-93967276D02*
X84857142Y-94081561D01*
X84857142Y-94081561D02*
X84819046Y-94157752D01*
X84819046Y-94157752D02*
X84780951Y-94195847D01*
X84780951Y-94195847D02*
X84704761Y-94233942D01*
X84704761Y-94233942D02*
X84399999Y-94233942D01*
X85199999Y-94195847D02*
X85466665Y-94195847D01*
X85580951Y-94614895D02*
X85199999Y-94614895D01*
X85199999Y-94614895D02*
X85199999Y-93814895D01*
X85199999Y-93814895D02*
X85580951Y-93814895D01*
X85885713Y-94576800D02*
X85999999Y-94614895D01*
X85999999Y-94614895D02*
X86190475Y-94614895D01*
X86190475Y-94614895D02*
X86266666Y-94576800D01*
X86266666Y-94576800D02*
X86304761Y-94538704D01*
X86304761Y-94538704D02*
X86342856Y-94462514D01*
X86342856Y-94462514D02*
X86342856Y-94386323D01*
X86342856Y-94386323D02*
X86304761Y-94310133D01*
X86304761Y-94310133D02*
X86266666Y-94272038D01*
X86266666Y-94272038D02*
X86190475Y-94233942D01*
X86190475Y-94233942D02*
X86038094Y-94195847D01*
X86038094Y-94195847D02*
X85961904Y-94157752D01*
X85961904Y-94157752D02*
X85923809Y-94119657D01*
X85923809Y-94119657D02*
X85885713Y-94043466D01*
X85885713Y-94043466D02*
X85885713Y-93967276D01*
X85885713Y-93967276D02*
X85923809Y-93891085D01*
X85923809Y-93891085D02*
X85961904Y-93852990D01*
X85961904Y-93852990D02*
X86038094Y-93814895D01*
X86038094Y-93814895D02*
X86228571Y-93814895D01*
X86228571Y-93814895D02*
X86342856Y-93852990D01*
X86685714Y-94195847D02*
X86952380Y-94195847D01*
X87066666Y-94614895D02*
X86685714Y-94614895D01*
X86685714Y-94614895D02*
X86685714Y-93814895D01*
X86685714Y-93814895D02*
X87066666Y-93814895D01*
X87295238Y-93814895D02*
X87752381Y-93814895D01*
X87523809Y-94614895D02*
X87523809Y-93814895D01*
X88438095Y-94614895D02*
X87980952Y-94614895D01*
X88209524Y-94614895D02*
X88209524Y-93814895D01*
X88209524Y-93814895D02*
X88133333Y-93929180D01*
X88133333Y-93929180D02*
X88057143Y-94005371D01*
X88057143Y-94005371D02*
X87980952Y-94043466D01*
X118076191Y-94614895D02*
X117809524Y-94233942D01*
X117619048Y-94614895D02*
X117619048Y-93814895D01*
X117619048Y-93814895D02*
X117923810Y-93814895D01*
X117923810Y-93814895D02*
X118000000Y-93852990D01*
X118000000Y-93852990D02*
X118038095Y-93891085D01*
X118038095Y-93891085D02*
X118076191Y-93967276D01*
X118076191Y-93967276D02*
X118076191Y-94081561D01*
X118076191Y-94081561D02*
X118038095Y-94157752D01*
X118038095Y-94157752D02*
X118000000Y-94195847D01*
X118000000Y-94195847D02*
X117923810Y-94233942D01*
X117923810Y-94233942D02*
X117619048Y-94233942D01*
X118380952Y-94386323D02*
X118761905Y-94386323D01*
X118304762Y-94614895D02*
X118571429Y-93814895D01*
X118571429Y-93814895D02*
X118838095Y-94614895D01*
X119104762Y-93814895D02*
X119104762Y-94462514D01*
X119104762Y-94462514D02*
X119142857Y-94538704D01*
X119142857Y-94538704D02*
X119180952Y-94576800D01*
X119180952Y-94576800D02*
X119257143Y-94614895D01*
X119257143Y-94614895D02*
X119409524Y-94614895D01*
X119409524Y-94614895D02*
X119485714Y-94576800D01*
X119485714Y-94576800D02*
X119523809Y-94538704D01*
X119523809Y-94538704D02*
X119561905Y-94462514D01*
X119561905Y-94462514D02*
X119561905Y-93814895D01*
X119942857Y-94614895D02*
X119942857Y-93814895D01*
X119942857Y-93814895D02*
X120133333Y-93814895D01*
X120133333Y-93814895D02*
X120247619Y-93852990D01*
X120247619Y-93852990D02*
X120323809Y-93929180D01*
X120323809Y-93929180D02*
X120361904Y-94005371D01*
X120361904Y-94005371D02*
X120400000Y-94157752D01*
X120400000Y-94157752D02*
X120400000Y-94272038D01*
X120400000Y-94272038D02*
X120361904Y-94424419D01*
X120361904Y-94424419D02*
X120323809Y-94500609D01*
X120323809Y-94500609D02*
X120247619Y-94576800D01*
X120247619Y-94576800D02*
X120133333Y-94614895D01*
X120133333Y-94614895D02*
X119942857Y-94614895D01*
X120742857Y-94614895D02*
X120742857Y-93814895D01*
X121276190Y-93814895D02*
X121428571Y-93814895D01*
X121428571Y-93814895D02*
X121504761Y-93852990D01*
X121504761Y-93852990D02*
X121580952Y-93929180D01*
X121580952Y-93929180D02*
X121619047Y-94081561D01*
X121619047Y-94081561D02*
X121619047Y-94348228D01*
X121619047Y-94348228D02*
X121580952Y-94500609D01*
X121580952Y-94500609D02*
X121504761Y-94576800D01*
X121504761Y-94576800D02*
X121428571Y-94614895D01*
X121428571Y-94614895D02*
X121276190Y-94614895D01*
X121276190Y-94614895D02*
X121199999Y-94576800D01*
X121199999Y-94576800D02*
X121123809Y-94500609D01*
X121123809Y-94500609D02*
X121085713Y-94348228D01*
X121085713Y-94348228D02*
X121085713Y-94081561D01*
X121085713Y-94081561D02*
X121123809Y-93929180D01*
X121123809Y-93929180D02*
X121199999Y-93852990D01*
X121199999Y-93852990D02*
X121276190Y-93814895D01*
X122419047Y-94538704D02*
X122380951Y-94576800D01*
X122380951Y-94576800D02*
X122266666Y-94614895D01*
X122266666Y-94614895D02*
X122190475Y-94614895D01*
X122190475Y-94614895D02*
X122076189Y-94576800D01*
X122076189Y-94576800D02*
X121999999Y-94500609D01*
X121999999Y-94500609D02*
X121961904Y-94424419D01*
X121961904Y-94424419D02*
X121923808Y-94272038D01*
X121923808Y-94272038D02*
X121923808Y-94157752D01*
X121923808Y-94157752D02*
X121961904Y-94005371D01*
X121961904Y-94005371D02*
X121999999Y-93929180D01*
X121999999Y-93929180D02*
X122076189Y-93852990D01*
X122076189Y-93852990D02*
X122190475Y-93814895D01*
X122190475Y-93814895D02*
X122266666Y-93814895D01*
X122266666Y-93814895D02*
X122380951Y-93852990D01*
X122380951Y-93852990D02*
X122419047Y-93891085D01*
X96494895Y-102859523D02*
X97142514Y-102859523D01*
X97142514Y-102859523D02*
X97218704Y-102821428D01*
X97218704Y-102821428D02*
X97256800Y-102783333D01*
X97256800Y-102783333D02*
X97294895Y-102707142D01*
X97294895Y-102707142D02*
X97294895Y-102554761D01*
X97294895Y-102554761D02*
X97256800Y-102478571D01*
X97256800Y-102478571D02*
X97218704Y-102440476D01*
X97218704Y-102440476D02*
X97142514Y-102402380D01*
X97142514Y-102402380D02*
X96494895Y-102402380D01*
X96571085Y-102059524D02*
X96532990Y-102021428D01*
X96532990Y-102021428D02*
X96494895Y-101945238D01*
X96494895Y-101945238D02*
X96494895Y-101754762D01*
X96494895Y-101754762D02*
X96532990Y-101678571D01*
X96532990Y-101678571D02*
X96571085Y-101640476D01*
X96571085Y-101640476D02*
X96647276Y-101602381D01*
X96647276Y-101602381D02*
X96723466Y-101602381D01*
X96723466Y-101602381D02*
X96837752Y-101640476D01*
X96837752Y-101640476D02*
X97294895Y-102097619D01*
X97294895Y-102097619D02*
X97294895Y-101602381D01*
X104874895Y-66609523D02*
X105522514Y-66609523D01*
X105522514Y-66609523D02*
X105598704Y-66571428D01*
X105598704Y-66571428D02*
X105636800Y-66533333D01*
X105636800Y-66533333D02*
X105674895Y-66457142D01*
X105674895Y-66457142D02*
X105674895Y-66304761D01*
X105674895Y-66304761D02*
X105636800Y-66228571D01*
X105636800Y-66228571D02*
X105598704Y-66190476D01*
X105598704Y-66190476D02*
X105522514Y-66152380D01*
X105522514Y-66152380D02*
X104874895Y-66152380D01*
X104874895Y-65390476D02*
X104874895Y-65771428D01*
X104874895Y-65771428D02*
X105255847Y-65809524D01*
X105255847Y-65809524D02*
X105217752Y-65771428D01*
X105217752Y-65771428D02*
X105179657Y-65695238D01*
X105179657Y-65695238D02*
X105179657Y-65504762D01*
X105179657Y-65504762D02*
X105217752Y-65428571D01*
X105217752Y-65428571D02*
X105255847Y-65390476D01*
X105255847Y-65390476D02*
X105332038Y-65352381D01*
X105332038Y-65352381D02*
X105522514Y-65352381D01*
X105522514Y-65352381D02*
X105598704Y-65390476D01*
X105598704Y-65390476D02*
X105636800Y-65428571D01*
X105636800Y-65428571D02*
X105674895Y-65504762D01*
X105674895Y-65504762D02*
X105674895Y-65695238D01*
X105674895Y-65695238D02*
X105636800Y-65771428D01*
X105636800Y-65771428D02*
X105598704Y-65809524D01*
X126494895Y-102859523D02*
X127142514Y-102859523D01*
X127142514Y-102859523D02*
X127218704Y-102821428D01*
X127218704Y-102821428D02*
X127256800Y-102783333D01*
X127256800Y-102783333D02*
X127294895Y-102707142D01*
X127294895Y-102707142D02*
X127294895Y-102554761D01*
X127294895Y-102554761D02*
X127256800Y-102478571D01*
X127256800Y-102478571D02*
X127218704Y-102440476D01*
X127218704Y-102440476D02*
X127142514Y-102402380D01*
X127142514Y-102402380D02*
X126494895Y-102402380D01*
X126494895Y-102097619D02*
X126494895Y-101602381D01*
X126494895Y-101602381D02*
X126799657Y-101869047D01*
X126799657Y-101869047D02*
X126799657Y-101754762D01*
X126799657Y-101754762D02*
X126837752Y-101678571D01*
X126837752Y-101678571D02*
X126875847Y-101640476D01*
X126875847Y-101640476D02*
X126952038Y-101602381D01*
X126952038Y-101602381D02*
X127142514Y-101602381D01*
X127142514Y-101602381D02*
X127218704Y-101640476D01*
X127218704Y-101640476D02*
X127256800Y-101678571D01*
X127256800Y-101678571D02*
X127294895Y-101754762D01*
X127294895Y-101754762D02*
X127294895Y-101983333D01*
X127294895Y-101983333D02*
X127256800Y-102059524D01*
X127256800Y-102059524D02*
X127218704Y-102097619D01*
%TO.C,RFB*%
X90000000Y-65520000D02*
X90000000Y-66480000D01*
%TO.C,RAUDIOB*%
X122480000Y-73750000D02*
X121520000Y-73750000D01*
%TO.C,RPULL*%
X120000000Y-65520000D02*
X120000000Y-66480000D01*
%TO.C,U1*%
X82490000Y-111930000D02*
X117510000Y-111930000D01*
X82490000Y-124570000D02*
X82490000Y-111930000D01*
X115403333Y-118250000D02*
X115563694Y-119056186D01*
X115563694Y-117443814D02*
X115403333Y-118250000D01*
X115563694Y-119056186D02*
X116020362Y-119739638D01*
X116020362Y-116760362D02*
X115563694Y-117443814D01*
X116020362Y-119739638D02*
X116703814Y-120196306D01*
X116703814Y-116303694D02*
X116020362Y-116760362D01*
X116703814Y-120196306D02*
X117510000Y-120356667D01*
X117510000Y-111930000D02*
X117510000Y-116143333D01*
X117510000Y-116143333D02*
X116703814Y-116303694D01*
X117510000Y-120356667D02*
X117510000Y-124570000D01*
X117510000Y-124570000D02*
X82490000Y-124570000D01*
%TO.C,C5*%
X115000000Y-65520000D02*
X115000000Y-66480000D01*
%TO.C,RAUDIOA*%
X116480000Y-73750000D02*
X115520000Y-73750000D01*
%TO.C,C1*%
X120000000Y-118730000D02*
X120000000Y-117770000D01*
%TO.C,CRESET1*%
X80480000Y-95750000D02*
X79520000Y-95750000D01*
%TO.C,C2*%
X99000000Y-102730000D02*
X99000000Y-101770000D01*
%TO.C,C3*%
X129000000Y-102730000D02*
X129000000Y-101770000D01*
%TO.C,U4*%
X74870000Y-77930000D02*
X125130000Y-77930000D01*
X74870000Y-90570000D02*
X74870000Y-77930000D01*
X123023333Y-84250000D02*
X123183694Y-85056186D01*
X123183694Y-83443814D02*
X123023333Y-84250000D01*
X123183694Y-85056186D02*
X123640362Y-85739638D01*
X123640362Y-82760362D02*
X123183694Y-83443814D01*
X123640362Y-85739638D02*
X124323814Y-86196306D01*
X124323814Y-82303694D02*
X123640362Y-82760362D01*
X124323814Y-86196306D02*
X125130000Y-86356667D01*
X125130000Y-77930000D02*
X125130000Y-82143333D01*
X125130000Y-82143333D02*
X124323814Y-82303694D01*
X125130000Y-86356667D02*
X125130000Y-90570000D01*
X125130000Y-90570000D02*
X74870000Y-90570000D01*
%TO.C,RSERIES*%
X110000000Y-65520000D02*
X110000000Y-66480000D01*
%TO.C,CBYPASS*%
X85000000Y-65520000D02*
X85000000Y-66480000D01*
%TO.C,C4*%
X128000000Y-84730000D02*
X128000000Y-83770000D01*
%TO.C,RRESET1*%
X86480000Y-95750000D02*
X85520000Y-95750000D01*
%TO.C,RAUDIOC*%
X120480000Y-95750000D02*
X119520000Y-95750000D01*
%TO.C,U2*%
X71570000Y-99740000D02*
X96430000Y-99740000D01*
X71570000Y-104760000D02*
X71570000Y-99740000D01*
X95593333Y-102250000D02*
X95657021Y-102570178D01*
X95657021Y-101929822D02*
X95593333Y-102250000D01*
X95657021Y-102570178D02*
X95838387Y-102841613D01*
X95838387Y-101658387D02*
X95657021Y-101929822D01*
X95838387Y-102841613D02*
X96109822Y-103022979D01*
X96109822Y-101477021D02*
X95838387Y-101658387D01*
X96109822Y-103022979D02*
X96430000Y-103086667D01*
X96430000Y-99740000D02*
X96430000Y-101413333D01*
X96430000Y-101413333D02*
X96109822Y-101477021D01*
X96430000Y-103086667D02*
X96430000Y-104760000D01*
X96430000Y-104760000D02*
X71570000Y-104760000D01*
%TO.C,U5*%
X95190000Y-63490000D02*
X104810000Y-63490000D01*
X95190000Y-68510000D02*
X95190000Y-63490000D01*
X103973333Y-66000000D02*
X104037021Y-66320178D01*
X104037021Y-65679822D02*
X103973333Y-66000000D01*
X104037021Y-66320178D02*
X104218387Y-66591613D01*
X104218387Y-65408387D02*
X104037021Y-65679822D01*
X104218387Y-66591613D02*
X104489822Y-66772979D01*
X104489822Y-65227021D02*
X104218387Y-65408387D01*
X104489822Y-66772979D02*
X104810000Y-66836667D01*
X104810000Y-63490000D02*
X104810000Y-65163333D01*
X104810000Y-65163333D02*
X104489822Y-65227021D01*
X104810000Y-66836667D02*
X104810000Y-68510000D01*
X104810000Y-68510000D02*
X95190000Y-68510000D01*
%TO.C,U3*%
X101570000Y-99740000D02*
X126430000Y-99740000D01*
X101570000Y-104760000D02*
X101570000Y-99740000D01*
X125593333Y-102250000D02*
X125657021Y-102570178D01*
X125657021Y-101929822D02*
X125593333Y-102250000D01*
X125657021Y-102570178D02*
X125838387Y-102841613D01*
X125838387Y-101658387D02*
X125657021Y-101929822D01*
X125838387Y-102841613D02*
X126109822Y-103022979D01*
X126109822Y-101477021D02*
X125838387Y-101658387D01*
X126109822Y-103022979D02*
X126430000Y-103086667D01*
X126430000Y-99740000D02*
X126430000Y-101413333D01*
X126430000Y-101413333D02*
X126109822Y-101477021D01*
X126430000Y-103086667D02*
X126430000Y-104760000D01*
X126430000Y-104760000D02*
X101570000Y-104760000D01*
%TD*%
M02*
