%TF.GenerationSoftware,KiCad,Pcbnew,10.0.3*%
%TF.CreationDate,2026-06-14T23:32:41-04:00*%
%TF.ProjectId,index,696e6465-782e-46b6-9963-61645f706362,rev?*%
%TF.SameCoordinates,Original*%
%TF.FileFunction,Copper,L2,Bot*%
%TF.FilePolarity,Positive*%
%FSLAX46Y46*%
G04 Gerber Fmt 4.6, Leading zero omitted, Abs format (unit mm)*
G04 Created by KiCad (PCBNEW 10.0.3) date 2026-06-14 23:32:41*
%MOMM*%
%LPD*%
G01*
G04 APERTURE LIST*
%TA.AperFunction,ComponentPad*%
%ADD10C,1.400000*%
%TD*%
%TA.AperFunction,ComponentPad*%
%ADD11R,1.600000X1.600000*%
%TD*%
%TA.AperFunction,ComponentPad*%
%ADD12C,1.600000*%
%TD*%
%TA.AperFunction,ComponentPad*%
%ADD13C,0.600000*%
%TD*%
%TA.AperFunction,SMDPad,CuDef*%
%ADD14R,2.000000X7.000000*%
%TD*%
%TA.AperFunction,ViaPad*%
%ADD15C,0.600000*%
%TD*%
%TA.AperFunction,Conductor*%
%ADD16C,0.200000*%
%TD*%
G04 APERTURE END LIST*
D10*
%TO.P,RAUDIOB,1*%
%TO.N,ANALOG_B*%
X120730000Y-73750000D03*
%TO.P,RAUDIOB,2*%
%TO.N,SUM_NODE*%
X123270000Y-73750000D03*
%TD*%
D11*
%TO.P,U5,1*%
%TO.N,OPAMP_OUT*%
X111810000Y-62190000D03*
D12*
%TO.P,U5,2*%
%TO.N,SUM_NODE*%
X109270000Y-62190000D03*
%TO.P,U5,3*%
%TO.N,GND*%
X106730000Y-62190000D03*
%TO.P,U5,4*%
X104190000Y-62190000D03*
%TO.P,U5,5*%
X104190000Y-69810000D03*
%TO.P,U5,6*%
%TO.N,U5_UNUSED_FB*%
X106730000Y-69810000D03*
%TO.P,U5,7*%
X109270000Y-69810000D03*
%TO.P,U5,8*%
%TO.N,VCC*%
X111810000Y-69810000D03*
%TD*%
D13*
%TO.P,gnd_via2,1*%
%TO.N,GND*%
X130000000Y-84250000D03*
%TD*%
D11*
%TO.P,U1,1*%
%TO.N,VCC*%
X116510000Y-110630000D03*
D12*
%TO.P,U1,2*%
%TO.N,A12*%
X113970000Y-110630000D03*
%TO.P,U1,3*%
%TO.N,A7*%
X111430000Y-110630000D03*
%TO.P,U1,4*%
%TO.N,A6*%
X108890000Y-110630000D03*
%TO.P,U1,5*%
%TO.N,A5*%
X106350000Y-110630000D03*
%TO.P,U1,6*%
%TO.N,A4*%
X103810000Y-110630000D03*
%TO.P,U1,7*%
%TO.N,A3*%
X101270000Y-110630000D03*
%TO.P,U1,8*%
%TO.N,A2*%
X98730000Y-110630000D03*
%TO.P,U1,9*%
%TO.N,A1*%
X96190000Y-110630000D03*
%TO.P,U1,10*%
%TO.N,A0*%
X93650000Y-110630000D03*
%TO.P,U1,11*%
%TO.N,D0*%
X91110000Y-110630000D03*
%TO.P,U1,12*%
%TO.N,D1*%
X88570000Y-110630000D03*
%TO.P,U1,13*%
%TO.N,D2*%
X86030000Y-110630000D03*
%TO.P,U1,14*%
%TO.N,GND*%
X83490000Y-110630000D03*
%TO.P,U1,15*%
%TO.N,D3*%
X83490000Y-125870000D03*
%TO.P,U1,16*%
%TO.N,D4*%
X86030000Y-125870000D03*
%TO.P,U1,17*%
%TO.N,D5*%
X88570000Y-125870000D03*
%TO.P,U1,18*%
%TO.N,D6*%
X91110000Y-125870000D03*
%TO.P,U1,19*%
%TO.N,D7*%
X93650000Y-125870000D03*
%TO.P,U1,20*%
%TO.N,ROM_CE*%
X96190000Y-125870000D03*
%TO.P,U1,21*%
%TO.N,A10*%
X98730000Y-125870000D03*
%TO.P,U1,22*%
%TO.N,GND*%
X101270000Y-125870000D03*
%TO.P,U1,23*%
%TO.N,A11*%
X103810000Y-125870000D03*
%TO.P,U1,24*%
%TO.N,A9*%
X106350000Y-125870000D03*
%TO.P,U1,25*%
%TO.N,A8*%
X108890000Y-125870000D03*
%TO.P,U1,26*%
%TO.N,A13*%
X111430000Y-125870000D03*
%TO.P,U1,27*%
%TO.N,A14*%
X113970000Y-125870000D03*
%TO.P,U1,28*%
%TO.N,VCC*%
X116510000Y-125870000D03*
%TD*%
D10*
%TO.P,RAUDIOA,1*%
%TO.N,ANALOG_A*%
X114730000Y-73750000D03*
%TO.P,RAUDIOA,2*%
%TO.N,SUM_NODE*%
X117270000Y-73750000D03*
%TD*%
%TO.P,CRESET1,1*%
%TO.N,RESET_DELAYED*%
X78730000Y-95750000D03*
%TO.P,CRESET1,2*%
%TO.N,GND*%
X81270000Y-95750000D03*
%TD*%
%TO.P,RSERIES,1*%
%TO.N,OPAMP_OUT*%
X118000000Y-67270000D03*
%TO.P,RSERIES,2*%
%TO.N,CAP_PLUS*%
X118000000Y-64730000D03*
%TD*%
%TO.P,RPULL,1*%
%TO.N,OPAMP_OUT*%
X128000000Y-67270000D03*
%TO.P,RPULL,2*%
%TO.N,GND*%
X128000000Y-64730000D03*
%TD*%
D11*
%TO.P,U4,1*%
%TO.N,GND*%
X124130000Y-76630000D03*
D12*
%TO.P,U4,2*%
%TO.N,N/C*%
X121590000Y-76630000D03*
%TO.P,U4,3*%
%TO.N,ANALOG_B*%
X119050000Y-76630000D03*
%TO.P,U4,4*%
%TO.N,ANALOG_A*%
X116510000Y-76630000D03*
%TO.P,U4,5*%
%TO.N,N/C*%
X113970000Y-76630000D03*
%TO.P,U4,6*%
X111430000Y-76630000D03*
%TO.P,U4,7*%
X108890000Y-76630000D03*
%TO.P,U4,8*%
X106350000Y-76630000D03*
%TO.P,U4,9*%
X103810000Y-76630000D03*
%TO.P,U4,10*%
X101270000Y-76630000D03*
%TO.P,U4,11*%
X98730000Y-76630000D03*
%TO.P,U4,12*%
X96190000Y-76630000D03*
%TO.P,U4,13*%
X93650000Y-76630000D03*
%TO.P,U4,14*%
X91110000Y-76630000D03*
%TO.P,U4,15*%
X88570000Y-76630000D03*
%TO.P,U4,16*%
X86030000Y-76630000D03*
%TO.P,U4,17*%
X83490000Y-76630000D03*
%TO.P,U4,18*%
X80950000Y-76630000D03*
%TO.P,U4,19*%
X78410000Y-76630000D03*
%TO.P,U4,20*%
X75870000Y-76630000D03*
%TO.P,U4,21*%
X75870000Y-91870000D03*
%TO.P,U4,22*%
%TO.N,PHI2OUT*%
X78410000Y-91870000D03*
%TO.P,U4,23*%
%TO.N,RESET_DELAYED*%
X80950000Y-91870000D03*
%TO.P,U4,24*%
%TO.N,GND*%
X83490000Y-91870000D03*
%TO.P,U4,25*%
%TO.N,VCC*%
X86030000Y-91870000D03*
%TO.P,U4,26*%
%TO.N,N/C*%
X88570000Y-91870000D03*
%TO.P,U4,27*%
%TO.N,BDIR*%
X91110000Y-91870000D03*
%TO.P,U4,28*%
%TO.N,VCC*%
X93650000Y-91870000D03*
%TO.P,U4,29*%
%TO.N,BC1*%
X96190000Y-91870000D03*
%TO.P,U4,30*%
%TO.N,DA7*%
X98730000Y-91870000D03*
%TO.P,U4,31*%
%TO.N,DA6*%
X101270000Y-91870000D03*
%TO.P,U4,32*%
%TO.N,DA5*%
X103810000Y-91870000D03*
%TO.P,U4,33*%
%TO.N,DA4*%
X106350000Y-91870000D03*
%TO.P,U4,34*%
%TO.N,DA3*%
X108890000Y-91870000D03*
%TO.P,U4,35*%
%TO.N,DA2*%
X111430000Y-91870000D03*
%TO.P,U4,36*%
%TO.N,DA1*%
X113970000Y-91870000D03*
%TO.P,U4,37*%
%TO.N,DA0*%
X116510000Y-91870000D03*
%TO.P,U4,38*%
%TO.N,ANALOG_C*%
X119050000Y-91870000D03*
%TO.P,U4,39*%
%TO.N,N/C*%
X121590000Y-91870000D03*
%TO.P,U4,40*%
%TO.N,VCC*%
X124130000Y-91870000D03*
%TD*%
D10*
%TO.P,RFB,1*%
%TO.N,SUM_NODE*%
X98000000Y-67270000D03*
%TO.P,RFB,2*%
%TO.N,OPAMP_OUT*%
X98000000Y-64730000D03*
%TD*%
%TO.P,C5,1*%
%TO.N,CAP_PLUS*%
X123000000Y-67270000D03*
%TO.P,C5,2*%
%TO.N,SUM_NODE*%
X123000000Y-64730000D03*
%TD*%
D14*
%TO.P,J1,17*%
%TO.N,A15*%
X121590000Y-136490000D03*
%TO.P,J1,18*%
%TO.N,SUM_NODE*%
X119050000Y-136490000D03*
%TO.P,J1,19*%
%TO.N,A7*%
X113970000Y-136490000D03*
%TO.P,J1,20*%
%TO.N,A6*%
X111430000Y-136490000D03*
%TO.P,J1,21*%
%TO.N,A5*%
X108890000Y-136490000D03*
%TO.P,J1,22*%
%TO.N,A4*%
X106350000Y-136490000D03*
%TO.P,J1,23*%
%TO.N,A3*%
X103810000Y-136490000D03*
%TO.P,J1,24*%
%TO.N,A2*%
X101270000Y-136490000D03*
%TO.P,J1,25*%
%TO.N,A1*%
X98730000Y-136490000D03*
%TO.P,J1,26*%
%TO.N,A0*%
X96190000Y-136490000D03*
%TO.P,J1,27*%
%TO.N,D0*%
X93650000Y-136490000D03*
%TO.P,J1,28*%
%TO.N,D1*%
X91110000Y-136490000D03*
%TO.P,J1,29*%
%TO.N,D2*%
X88570000Y-136490000D03*
%TO.P,J1,30*%
%TO.N,GND*%
X86030000Y-136490000D03*
%TO.P,J1,31*%
%TO.N,N/C*%
X80950000Y-136490000D03*
%TO.P,J1,32*%
%TO.N,PHI2*%
X78410000Y-136490000D03*
%TD*%
D10*
%TO.P,RRESET1,1*%
%TO.N,VCC*%
X84730000Y-95750000D03*
%TO.P,RRESET1,2*%
%TO.N,RESET_DELAYED*%
X87270000Y-95750000D03*
%TD*%
D13*
%TO.P,gnd_via,1*%
%TO.N,GND*%
X131000000Y-115000000D03*
%TD*%
D10*
%TO.P,RAUDIOC,1*%
%TO.N,ANALOG_C*%
X118730000Y-95750000D03*
%TO.P,RAUDIOC,2*%
%TO.N,SUM_NODE*%
X121270000Y-95750000D03*
%TD*%
D11*
%TO.P,U2,1*%
%TO.N,N/C*%
X95430000Y-98440000D03*
D12*
%TO.P,U2,2*%
%TO.N,A15*%
X92890000Y-98440000D03*
%TO.P,U2,3*%
%TO.N,A14*%
X90350000Y-98440000D03*
%TO.P,U2,4*%
%TO.N,A0*%
X87810000Y-98440000D03*
%TO.P,U2,5*%
%TO.N,HALT*%
X85270000Y-98440000D03*
%TO.P,U2,6*%
%TO.N,RW*%
X82730000Y-98440000D03*
%TO.P,U2,7*%
%TO.N,PHI2*%
X80190000Y-98440000D03*
%TO.P,U2,8*%
%TO.N,N/C*%
X77650000Y-98440000D03*
%TO.P,U2,9*%
X75110000Y-98440000D03*
%TO.P,U2,10*%
%TO.N,GND*%
X72570000Y-98440000D03*
%TO.P,U2,11*%
%TO.N,N/C*%
X72570000Y-106060000D03*
%TO.P,U2,12*%
X75110000Y-106060000D03*
%TO.P,U2,13*%
X77650000Y-106060000D03*
%TO.P,U2,14*%
X80190000Y-106060000D03*
%TO.P,U2,15*%
%TO.N,YM_LE*%
X82730000Y-106060000D03*
%TO.P,U2,16*%
%TO.N,PHI2OUT*%
X85270000Y-106060000D03*
%TO.P,U2,17*%
%TO.N,BC1*%
X87810000Y-106060000D03*
%TO.P,U2,18*%
%TO.N,BDIR*%
X90350000Y-106060000D03*
%TO.P,U2,19*%
%TO.N,ROM_CE*%
X92890000Y-106060000D03*
%TO.P,U2,20*%
%TO.N,VCC*%
X95430000Y-106060000D03*
%TD*%
D11*
%TO.P,U3,1*%
%TO.N,GND*%
X125430000Y-98440000D03*
D12*
%TO.P,U3,2*%
%TO.N,DA0*%
X122890000Y-98440000D03*
%TO.P,U3,3*%
%TO.N,D0*%
X120350000Y-98440000D03*
%TO.P,U3,4*%
%TO.N,D1*%
X117810000Y-98440000D03*
%TO.P,U3,5*%
%TO.N,DA1*%
X115270000Y-98440000D03*
%TO.P,U3,6*%
%TO.N,DA2*%
X112730000Y-98440000D03*
%TO.P,U3,7*%
%TO.N,D2*%
X110190000Y-98440000D03*
%TO.P,U3,8*%
%TO.N,D3*%
X107650000Y-98440000D03*
%TO.P,U3,9*%
%TO.N,DA3*%
X105110000Y-98440000D03*
%TO.P,U3,10*%
%TO.N,GND*%
X102570000Y-98440000D03*
%TO.P,U3,11*%
%TO.N,YM_LE*%
X102570000Y-106060000D03*
%TO.P,U3,12*%
%TO.N,DA4*%
X105110000Y-106060000D03*
%TO.P,U3,13*%
%TO.N,D4*%
X107650000Y-106060000D03*
%TO.P,U3,14*%
%TO.N,D5*%
X110190000Y-106060000D03*
%TO.P,U3,15*%
%TO.N,DA5*%
X112730000Y-106060000D03*
%TO.P,U3,16*%
%TO.N,DA6*%
X115270000Y-106060000D03*
%TO.P,U3,17*%
%TO.N,D6*%
X117810000Y-106060000D03*
%TO.P,U3,18*%
%TO.N,D7*%
X120350000Y-106060000D03*
%TO.P,U3,19*%
%TO.N,DA7*%
X122890000Y-106060000D03*
%TO.P,U3,20*%
%TO.N,VCC*%
X125430000Y-106060000D03*
%TD*%
D15*
%TO.N,SUM_NODE*%
X119420900Y-126373300D03*
%TO.N,A1*%
X98593500Y-132178300D03*
%TO.N,A0*%
X95866000Y-132178300D03*
X92878200Y-100414300D03*
%TO.N,D0*%
X93144900Y-131771700D03*
%TO.N,D1*%
X90407800Y-132178300D03*
%TO.N,D6*%
X89644300Y-102246300D03*
%TO.N,A10*%
X102779200Y-129188100D03*
%TO.N,A14*%
X118760200Y-129505200D03*
X113710600Y-96634900D03*
%TO.N,A15*%
X98541100Y-99044500D03*
X113738100Y-123541900D03*
%TO.N,YM_LE*%
X101459300Y-104707600D03*
%TD*%
%TO.N,SUM_NODE*%
D16*
X97624400Y-63680500D02*
X107779500Y-63680500D01*
X109270000Y-62190000D02*
X110371700Y-61088300D01*
X122260900Y-74759100D02*
X123270000Y-73750000D01*
X110371700Y-61088300D02*
X119358300Y-61088300D01*
X119358300Y-61088300D02*
X123000000Y-64730000D01*
X119050000Y-136490000D02*
X119050000Y-132688300D01*
X96987400Y-64317500D02*
X97624400Y-63680500D01*
X107779500Y-63680500D02*
X109270000Y-62190000D01*
X119050000Y-132688300D02*
X119420900Y-132317400D01*
X117270000Y-73750000D02*
X118279100Y-74759100D01*
X96987400Y-66257400D02*
X96987400Y-64317500D01*
X119420900Y-132317400D02*
X119420900Y-126373300D01*
X118279100Y-74759100D02*
X122260900Y-74759100D01*
X98000000Y-67270000D02*
X96987400Y-66257400D01*
%TO.N,OPAMP_OUT*%
X118000000Y-67270000D02*
X115650600Y-67270000D01*
X111810000Y-62190000D02*
X110708300Y-62190000D01*
X128000000Y-67270000D02*
X126932800Y-68337200D01*
X108306000Y-64730000D02*
X110708300Y-62327700D01*
X115650600Y-67270000D02*
X110708300Y-62327700D01*
X126932800Y-68337200D02*
X119067200Y-68337200D01*
X119067200Y-68337200D02*
X118000000Y-67270000D01*
X98000000Y-64730000D02*
X108306000Y-64730000D01*
X110708300Y-62327700D02*
X110708300Y-62190000D01*
%TO.N,U5_UNUSED_FB*%
X109270000Y-69810000D02*
X106730000Y-69810000D01*
%TO.N,VCC*%
X93650000Y-91870000D02*
X92544900Y-92975100D01*
X120860000Y-110630000D02*
X116510000Y-110630000D01*
X92544900Y-92975100D02*
X87135100Y-92975100D01*
X125430000Y-106060000D02*
X126531700Y-104958300D01*
X95211800Y-90308200D02*
X122568200Y-90308200D01*
X126531700Y-104958300D02*
X126531700Y-94271700D01*
X122568200Y-90308200D02*
X124130000Y-91870000D01*
X87135100Y-92975100D02*
X86030000Y-91870000D01*
X126531700Y-94271700D02*
X124130000Y-91870000D01*
X125430000Y-106060000D02*
X120860000Y-110630000D01*
X93650000Y-91870000D02*
X95211800Y-90308200D01*
%TO.N,A7*%
X112785000Y-131503300D02*
X112785000Y-111985000D01*
X112785000Y-111985000D02*
X111430000Y-110630000D01*
X113970000Y-132688300D02*
X112785000Y-131503300D01*
X113970000Y-136490000D02*
X113970000Y-132688300D01*
%TO.N,A6*%
X110245000Y-111985000D02*
X108890000Y-110630000D01*
X111430000Y-136490000D02*
X111430000Y-132688300D01*
X110245000Y-131503300D02*
X110245000Y-111985000D01*
X111430000Y-132688300D02*
X110245000Y-131503300D01*
%TO.N,A5*%
X107705000Y-111985000D02*
X106350000Y-110630000D01*
X108890000Y-136490000D02*
X108890000Y-132688300D01*
X108890000Y-132688300D02*
X107705000Y-131503300D01*
X107705000Y-131503300D02*
X107705000Y-111985000D01*
%TO.N,A4*%
X105248300Y-131586600D02*
X105248300Y-112068300D01*
X106350000Y-136490000D02*
X106350000Y-132688300D01*
X105248300Y-112068300D02*
X103810000Y-110630000D01*
X106350000Y-132688300D02*
X105248300Y-131586600D01*
%TO.N,A3*%
X92520700Y-126298800D02*
X92520700Y-119379300D01*
X98267100Y-127145400D02*
X93367300Y-127145400D01*
X103810000Y-136490000D02*
X103810000Y-132688300D01*
X103810000Y-132688300D02*
X98267100Y-127145400D01*
X93367300Y-127145400D02*
X92520700Y-126298800D01*
X92520700Y-119379300D02*
X101270000Y-110630000D01*
%TO.N,A2*%
X91284400Y-127605500D02*
X96187200Y-127605500D01*
X89995600Y-126316700D02*
X91284400Y-127605500D01*
X89995600Y-119364400D02*
X89995600Y-126316700D01*
X96187200Y-127605500D02*
X101270000Y-132688300D01*
X98730000Y-110630000D02*
X89995600Y-119364400D01*
X101270000Y-136490000D02*
X101270000Y-132688300D01*
%TO.N,A1*%
X98730000Y-136490000D02*
X98730000Y-132688300D01*
X98593500Y-132551800D02*
X98593500Y-132178300D01*
X98730000Y-132688300D02*
X98593500Y-132551800D01*
%TO.N,A0*%
X96190000Y-132688300D02*
X95866000Y-132364300D01*
X87810000Y-98440000D02*
X89784300Y-100414300D01*
X96190000Y-136490000D02*
X96190000Y-132688300D01*
X89784300Y-100414300D02*
X92878200Y-100414300D01*
X95866000Y-132364300D02*
X95866000Y-132178300D01*
%TO.N,D0*%
X93650000Y-132276800D02*
X93650000Y-136490000D01*
X109892800Y-102250000D02*
X106380000Y-105762800D01*
X116540000Y-102250000D02*
X109892800Y-102250000D01*
X94002800Y-107737200D02*
X91110000Y-110630000D01*
X106380000Y-106387400D02*
X105030200Y-107737200D01*
X93144900Y-131771700D02*
X93650000Y-132276800D01*
X106380000Y-105762800D02*
X106380000Y-106387400D01*
X105030200Y-107737200D02*
X94002800Y-107737200D01*
X120350000Y-98440000D02*
X116540000Y-102250000D01*
%TO.N,D1*%
X90917800Y-132688300D02*
X90407800Y-132178300D01*
X115439800Y-100810200D02*
X108768400Y-100810200D01*
X103840000Y-105738600D02*
X103840000Y-106369600D01*
X91110000Y-136490000D02*
X91110000Y-132688300D01*
X108768400Y-100810200D02*
X103840000Y-105738600D01*
X117810000Y-98440000D02*
X115439800Y-100810200D01*
X91952000Y-107248000D02*
X88570000Y-110630000D01*
X103840000Y-106369600D02*
X102961600Y-107248000D01*
X102961600Y-107248000D02*
X91952000Y-107248000D01*
X91110000Y-132688300D02*
X90917800Y-132688300D01*
%TO.N,D2*%
X84832800Y-104907600D02*
X88263700Y-104907600D01*
X88927000Y-107733000D02*
X86030000Y-110630000D01*
X83831700Y-105908700D02*
X84832800Y-104907600D01*
X81628300Y-106516300D02*
X82273700Y-107161700D01*
X88570000Y-136490000D02*
X88570000Y-131905900D01*
X82273700Y-107161700D02*
X83186400Y-107161700D01*
X84905500Y-111754500D02*
X86030000Y-110630000D01*
X105625900Y-103004100D02*
X84227900Y-103004100D01*
X83186400Y-107161700D02*
X83831700Y-106516400D01*
X88570000Y-131905900D02*
X84905500Y-128241400D01*
X88927000Y-105570900D02*
X88927000Y-107733000D01*
X81628300Y-105603700D02*
X81628300Y-106516300D01*
X88263700Y-104907600D02*
X88927000Y-105570900D01*
X84905500Y-128241400D02*
X84905500Y-111754500D01*
X110190000Y-98440000D02*
X105625900Y-103004100D01*
X84227900Y-103004100D02*
X81628300Y-105603700D01*
X83831700Y-106516400D02*
X83831700Y-105908700D01*
%TO.N,D3*%
X80646600Y-123026600D02*
X83490000Y-125870000D01*
X80646500Y-108074500D02*
X80646600Y-108074500D01*
X79088300Y-106516300D02*
X80646500Y-108074500D01*
X105004000Y-101086000D02*
X83606000Y-101086000D01*
X83606000Y-101086000D02*
X79088300Y-105603700D01*
X79088300Y-105603700D02*
X79088300Y-106516300D01*
X107650000Y-98440000D02*
X105004000Y-101086000D01*
X80646600Y-108074500D02*
X80646600Y-123026600D01*
%TO.N,D4*%
X105571100Y-108138900D02*
X97110200Y-108138900D01*
X97110200Y-108138900D02*
X94920000Y-110329100D01*
X107650000Y-106060000D02*
X105571100Y-108138900D01*
X94920000Y-111730200D02*
X86030000Y-120620200D01*
X94920000Y-110329100D02*
X94920000Y-111730200D01*
X86030000Y-120620200D02*
X86030000Y-125870000D01*
%TO.N,D5*%
X99058800Y-108692700D02*
X97601600Y-110149900D01*
X88570000Y-119908100D02*
X88570000Y-125870000D01*
X97601600Y-110149900D02*
X97601600Y-110876500D01*
X107557300Y-108692700D02*
X99058800Y-108692700D01*
X110190000Y-106060000D02*
X107557300Y-108692700D01*
X97601600Y-110876500D02*
X88570000Y-119908100D01*
%TO.N,D6*%
X109061600Y-98615900D02*
X105431200Y-102246300D01*
X105431200Y-102246300D02*
X89644300Y-102246300D01*
X109777900Y-97270100D02*
X109061600Y-97986400D01*
X109061600Y-97986400D02*
X109061600Y-98615900D01*
X117810000Y-106060000D02*
X121510000Y-102360000D01*
X121510000Y-102360000D02*
X121510000Y-98025000D01*
X121510000Y-98025000D02*
X120755100Y-97270100D01*
X120755100Y-97270100D02*
X109777900Y-97270100D01*
%TO.N,D7*%
X103485300Y-109339500D02*
X102540000Y-110284800D01*
X102540000Y-116980000D02*
X93650000Y-125870000D01*
X102540000Y-110284800D02*
X102540000Y-116980000D01*
X117070500Y-109339500D02*
X103485300Y-109339500D01*
X120350000Y-106060000D02*
X117070500Y-109339500D01*
%TO.N,A10*%
X102048100Y-129188100D02*
X98730000Y-125870000D01*
X102779200Y-129188100D02*
X102048100Y-129188100D01*
%TO.N,A14*%
X106211700Y-98295800D02*
X107872600Y-96634900D01*
X91556200Y-99646200D02*
X105491100Y-99646200D01*
X117605200Y-129505200D02*
X113970000Y-125870000D01*
X105491100Y-99646200D02*
X106211700Y-98925600D01*
X106211700Y-98925600D02*
X106211700Y-98295800D01*
X90350000Y-98440000D02*
X91556200Y-99646200D01*
X107872600Y-96634900D02*
X113710600Y-96634900D01*
X118760200Y-129505200D02*
X117605200Y-129505200D01*
%TO.N,RESET_DELAYED*%
X87270000Y-95750000D02*
X86244800Y-96775200D01*
X86244800Y-96775200D02*
X79755200Y-96775200D01*
X79755200Y-96775200D02*
X78730000Y-95750000D01*
%TO.N,CAP_PLUS*%
X123000000Y-67270000D02*
X120460000Y-64730000D01*
X120460000Y-64730000D02*
X118000000Y-64730000D01*
%TO.N,DA7*%
X123994400Y-97049800D02*
X123994400Y-104955600D01*
X123994400Y-104955600D02*
X122890000Y-106060000D01*
X120307900Y-94714900D02*
X121659500Y-94714900D01*
X98730000Y-91870000D02*
X99874000Y-90726000D01*
X99874000Y-90726000D02*
X116949300Y-90726000D01*
X117948300Y-92355300D02*
X120307900Y-94714900D01*
X121659500Y-94714900D02*
X123994400Y-97049800D01*
X117948300Y-91725000D02*
X117948300Y-92355300D01*
X116949300Y-90726000D02*
X117948300Y-91725000D01*
%TO.N,DA3*%
X105110000Y-98440000D02*
X105110000Y-95650000D01*
X105110000Y-95650000D02*
X108890000Y-91870000D01*
%TO.N,DA0*%
X120000000Y-95930100D02*
X120000000Y-95360000D01*
X122509900Y-98440000D02*
X120000000Y-95930100D01*
X122890000Y-98440000D02*
X122509900Y-98440000D01*
X120000000Y-95360000D02*
X116510000Y-91870000D01*
%TO.N,A15*%
X93991700Y-97338300D02*
X96834900Y-97338300D01*
X96834900Y-97338300D02*
X98541100Y-99044500D01*
X92890000Y-98440000D02*
X93991700Y-97338300D01*
X121590000Y-127661200D02*
X121590000Y-136490000D01*
X117470700Y-123541900D02*
X121590000Y-127661200D01*
X113738100Y-123541900D02*
X117470700Y-123541900D01*
%TO.N,PHI2*%
X76548300Y-130826600D02*
X78410000Y-132688300D01*
X76548300Y-102081700D02*
X76548300Y-130826600D01*
X80190000Y-98440000D02*
X76548300Y-102081700D01*
X78410000Y-136490000D02*
X78410000Y-132688300D01*
%TO.N,YM_LE*%
X101459300Y-104707600D02*
X101245400Y-104493700D01*
X101245400Y-104493700D02*
X84296300Y-104493700D01*
X84296300Y-104493700D02*
X82730000Y-106060000D01*
%TD*%
%TA.AperFunction,Conductor*%
%TO.N,GND*%
G36*
X78775329Y-106178508D02*
G01*
X78787800Y-106219620D01*
X78787800Y-106555864D01*
X78808278Y-106632288D01*
X78830108Y-106670100D01*
X78830109Y-106670100D01*
X78847840Y-106700811D01*
X80324426Y-108177397D01*
X80346100Y-108229723D01*
X80346100Y-123066164D01*
X80366578Y-123142588D01*
X80381649Y-123168693D01*
X80381650Y-123168693D01*
X80406140Y-123211111D01*
X82564816Y-125369787D01*
X82586490Y-125422113D01*
X82580857Y-125450431D01*
X82527950Y-125578160D01*
X82527947Y-125578170D01*
X82514041Y-125648082D01*
X82489500Y-125771459D01*
X82489500Y-125968541D01*
X82493472Y-125988508D01*
X82527947Y-126161829D01*
X82527950Y-126161839D01*
X82603367Y-126343913D01*
X82704656Y-126495502D01*
X82712861Y-126507782D01*
X82852218Y-126647139D01*
X83016086Y-126756632D01*
X83198165Y-126832051D01*
X83391459Y-126870500D01*
X83391461Y-126870500D01*
X83588539Y-126870500D01*
X83588541Y-126870500D01*
X83781835Y-126832051D01*
X83963914Y-126756632D01*
X84127782Y-126647139D01*
X84267139Y-126507782D01*
X84376632Y-126343914D01*
X84452051Y-126161835D01*
X84458422Y-126129805D01*
X84489888Y-126082714D01*
X84545437Y-126071665D01*
X84592529Y-126103131D01*
X84605000Y-126144243D01*
X84605000Y-128280964D01*
X84625477Y-128357385D01*
X84625479Y-128357390D01*
X84665040Y-128425911D01*
X88247826Y-132008697D01*
X88269500Y-132061023D01*
X88269500Y-132715500D01*
X88247826Y-132767826D01*
X88195500Y-132789500D01*
X87550246Y-132789500D01*
X87548783Y-132789644D01*
X87541536Y-132790000D01*
X87370000Y-132790000D01*
X87370000Y-132961536D01*
X87369644Y-132968783D01*
X87369500Y-132970246D01*
X87369500Y-139726000D01*
X87347826Y-139778326D01*
X87295500Y-139800000D01*
X84964000Y-139800000D01*
X84911674Y-139778326D01*
X84890000Y-139726000D01*
X84890000Y-130300001D01*
X84890000Y-130300000D01*
X84886157Y-130260982D01*
X84874776Y-130223463D01*
X84856294Y-130188886D01*
X84831421Y-130158579D01*
X84801114Y-130133706D01*
X84766537Y-130115224D01*
X84740400Y-130107295D01*
X84729019Y-130103843D01*
X84709509Y-130101921D01*
X84690000Y-130100000D01*
X84689999Y-130100000D01*
X82290001Y-130100000D01*
X82290000Y-130100000D01*
X82276994Y-130101281D01*
X82250980Y-130103843D01*
X82228218Y-130110748D01*
X82213463Y-130115224D01*
X82213461Y-130115224D01*
X82213461Y-130115225D01*
X82178887Y-130133705D01*
X82178883Y-130133708D01*
X82148579Y-130158579D01*
X82123708Y-130188883D01*
X82123705Y-130188887D01*
X82105225Y-130223461D01*
X82093843Y-130260980D01*
X82090000Y-130300001D01*
X82090000Y-132716000D01*
X82068326Y-132768326D01*
X82016000Y-132790000D01*
X81978464Y-132790000D01*
X81971217Y-132789644D01*
X81969754Y-132789500D01*
X81969748Y-132789500D01*
X79930252Y-132789500D01*
X79930246Y-132789500D01*
X79928783Y-132789644D01*
X79921536Y-132790000D01*
X79750000Y-132790000D01*
X79732326Y-132807674D01*
X79680000Y-132829348D01*
X79627674Y-132807674D01*
X79610000Y-132790000D01*
X79438464Y-132790000D01*
X79431217Y-132789644D01*
X79429754Y-132789500D01*
X79429748Y-132789500D01*
X78784500Y-132789500D01*
X78732174Y-132767826D01*
X78710500Y-132715500D01*
X78710500Y-132648736D01*
X78710499Y-132648735D01*
X78709912Y-132646546D01*
X78698716Y-132604760D01*
X78690022Y-132572314D01*
X78690020Y-132572309D01*
X78678346Y-132552089D01*
X78650460Y-132503789D01*
X78594511Y-132447840D01*
X76870474Y-130723803D01*
X76848800Y-130671477D01*
X76848800Y-106852373D01*
X76870474Y-106800047D01*
X76922800Y-106778373D01*
X76975126Y-106800047D01*
X77012218Y-106837139D01*
X77176086Y-106946632D01*
X77358165Y-107022051D01*
X77551459Y-107060500D01*
X77551461Y-107060500D01*
X77748539Y-107060500D01*
X77748541Y-107060500D01*
X77941835Y-107022051D01*
X78123914Y-106946632D01*
X78287782Y-106837139D01*
X78427139Y-106697782D01*
X78536632Y-106533914D01*
X78612051Y-106351835D01*
X78641222Y-106205182D01*
X78672688Y-106158091D01*
X78728237Y-106147042D01*
X78775329Y-106178508D01*
G37*
%TD.AperFunction*%
%TA.AperFunction,Conductor*%
G36*
X131778326Y-60221674D02*
G01*
X131800000Y-60274000D01*
X131800000Y-115636506D01*
X131778326Y-115688832D01*
X131438832Y-116028326D01*
X131386506Y-116050000D01*
X131300000Y-116050000D01*
X123800000Y-116050000D01*
X123786994Y-116051281D01*
X123760980Y-116053843D01*
X123738218Y-116060748D01*
X123723463Y-116065224D01*
X123723461Y-116065224D01*
X123723461Y-116065225D01*
X123688887Y-116083705D01*
X123688883Y-116083708D01*
X123658579Y-116108579D01*
X123633708Y-116138883D01*
X123633705Y-116138887D01*
X123615225Y-116173461D01*
X123603843Y-116210980D01*
X123600000Y-116250001D01*
X123600000Y-139726000D01*
X123578326Y-139778326D01*
X123526000Y-139800000D01*
X122864500Y-139800000D01*
X122812174Y-139778326D01*
X122790500Y-139726000D01*
X122790500Y-132970246D01*
X122790356Y-132968783D01*
X122790000Y-132961536D01*
X122790000Y-132790000D01*
X122618464Y-132790000D01*
X122611217Y-132789644D01*
X122609754Y-132789500D01*
X122609748Y-132789500D01*
X121964500Y-132789500D01*
X121912174Y-132767826D01*
X121890500Y-132715500D01*
X121890500Y-127621636D01*
X121890499Y-127621635D01*
X121870022Y-127545214D01*
X121870020Y-127545209D01*
X121830459Y-127476688D01*
X117655211Y-123301440D01*
X117645766Y-123295987D01*
X117586690Y-123261879D01*
X117586685Y-123261877D01*
X117510264Y-123241400D01*
X117510262Y-123241400D01*
X114176066Y-123241400D01*
X114123740Y-123219726D01*
X114045414Y-123141400D01*
X113931290Y-123075510D01*
X113931281Y-123075506D01*
X113803994Y-123041400D01*
X113803992Y-123041400D01*
X113672208Y-123041400D01*
X113672206Y-123041400D01*
X113544918Y-123075506D01*
X113544909Y-123075510D01*
X113430785Y-123141400D01*
X113337600Y-123234585D01*
X113271710Y-123348709D01*
X113271706Y-123348718D01*
X113237600Y-123476005D01*
X113237600Y-123607794D01*
X113271706Y-123735081D01*
X113271707Y-123735084D01*
X113271708Y-123735086D01*
X113337600Y-123849214D01*
X113430786Y-123942400D01*
X113544914Y-124008292D01*
X113672205Y-124042399D01*
X113672206Y-124042400D01*
X113672208Y-124042400D01*
X113803994Y-124042400D01*
X113803994Y-124042399D01*
X113931286Y-124008292D01*
X114045414Y-123942400D01*
X114123740Y-123864074D01*
X114176066Y-123842400D01*
X117315577Y-123842400D01*
X117367903Y-123864074D01*
X119281428Y-125777599D01*
X119303102Y-125829925D01*
X119281428Y-125882251D01*
X119248257Y-125901403D01*
X119227715Y-125906907D01*
X119227709Y-125906910D01*
X119113585Y-125972800D01*
X119020400Y-126065985D01*
X118954510Y-126180109D01*
X118954506Y-126180118D01*
X118920400Y-126307405D01*
X118920400Y-126439194D01*
X118954506Y-126566481D01*
X118954510Y-126566490D01*
X119020400Y-126680614D01*
X119098726Y-126758940D01*
X119120400Y-126811266D01*
X119120400Y-129007061D01*
X119098726Y-129059387D01*
X119046400Y-129081061D01*
X119009400Y-129071147D01*
X118953390Y-129038810D01*
X118953381Y-129038806D01*
X118826094Y-129004700D01*
X118826092Y-129004700D01*
X118694308Y-129004700D01*
X118694306Y-129004700D01*
X118567018Y-129038806D01*
X118567009Y-129038810D01*
X118452885Y-129104700D01*
X118374560Y-129183026D01*
X118322234Y-129204700D01*
X117760323Y-129204700D01*
X117707997Y-129183026D01*
X114895183Y-126370212D01*
X114873509Y-126317886D01*
X114879142Y-126289567D01*
X114898721Y-126242300D01*
X114932051Y-126161835D01*
X114970500Y-125968541D01*
X114970500Y-125771459D01*
X115509500Y-125771459D01*
X115509500Y-125968541D01*
X115513472Y-125988508D01*
X115547947Y-126161829D01*
X115547950Y-126161839D01*
X115623367Y-126343913D01*
X115724656Y-126495502D01*
X115732861Y-126507782D01*
X115872218Y-126647139D01*
X116036086Y-126756632D01*
X116218165Y-126832051D01*
X116411459Y-126870500D01*
X116411461Y-126870500D01*
X116608539Y-126870500D01*
X116608541Y-126870500D01*
X116801835Y-126832051D01*
X116983914Y-126756632D01*
X117147782Y-126647139D01*
X117287139Y-126507782D01*
X117396632Y-126343914D01*
X117472051Y-126161835D01*
X117510500Y-125968541D01*
X117510500Y-125771459D01*
X117472051Y-125578165D01*
X117396632Y-125396086D01*
X117287139Y-125232218D01*
X117147782Y-125092861D01*
X116983914Y-124983368D01*
X116983915Y-124983368D01*
X116983913Y-124983367D01*
X116801839Y-124907950D01*
X116801829Y-124907947D01*
X116672388Y-124882200D01*
X116608541Y-124869500D01*
X116411459Y-124869500D01*
X116356662Y-124880399D01*
X116218170Y-124907947D01*
X116218160Y-124907950D01*
X116036086Y-124983367D01*
X115872218Y-125092860D01*
X115872217Y-125092862D01*
X115732862Y-125232217D01*
X115732860Y-125232218D01*
X115623367Y-125396086D01*
X115547950Y-125578160D01*
X115547947Y-125578170D01*
X115534041Y-125648082D01*
X115509500Y-125771459D01*
X114970500Y-125771459D01*
X114932051Y-125578165D01*
X114856632Y-125396086D01*
X114747139Y-125232218D01*
X114607782Y-125092861D01*
X114443914Y-124983368D01*
X114443915Y-124983368D01*
X114443913Y-124983367D01*
X114261839Y-124907950D01*
X114261829Y-124907947D01*
X114132388Y-124882200D01*
X114068541Y-124869500D01*
X113871459Y-124869500D01*
X113816662Y-124880399D01*
X113678170Y-124907947D01*
X113678160Y-124907950D01*
X113496086Y-124983367D01*
X113332218Y-125092860D01*
X113332217Y-125092862D01*
X113211826Y-125213253D01*
X113159500Y-125234927D01*
X113107174Y-125213253D01*
X113085500Y-125160927D01*
X113085500Y-111945436D01*
X113085499Y-111945435D01*
X113065022Y-111869014D01*
X113065020Y-111869009D01*
X113054420Y-111850649D01*
X113025460Y-111800489D01*
X112969511Y-111744540D01*
X112355183Y-111130212D01*
X112333509Y-111077886D01*
X112339142Y-111049567D01*
X112392051Y-110921835D01*
X112430500Y-110728541D01*
X112430500Y-110531459D01*
X112392051Y-110338165D01*
X112316632Y-110156086D01*
X112207139Y-109992218D01*
X112067782Y-109852861D01*
X111952045Y-109775528D01*
X111920580Y-109728437D01*
X111931629Y-109672888D01*
X111978721Y-109641422D01*
X111993158Y-109640000D01*
X113406842Y-109640000D01*
X113459168Y-109661674D01*
X113480842Y-109714000D01*
X113459168Y-109766326D01*
X113447954Y-109775529D01*
X113332218Y-109852860D01*
X113332217Y-109852862D01*
X113192862Y-109992217D01*
X113192860Y-109992218D01*
X113083367Y-110156086D01*
X113007950Y-110338160D01*
X113007947Y-110338170D01*
X112969500Y-110531460D01*
X112969500Y-110728539D01*
X113007947Y-110921829D01*
X113007950Y-110921839D01*
X113083367Y-111103913D01*
X113163499Y-111223838D01*
X113192861Y-111267782D01*
X113332218Y-111407139D01*
X113496086Y-111516632D01*
X113678165Y-111592051D01*
X113871459Y-111630500D01*
X113871461Y-111630500D01*
X114068539Y-111630500D01*
X114068541Y-111630500D01*
X114261835Y-111592051D01*
X114443914Y-111516632D01*
X114607782Y-111407139D01*
X114747139Y-111267782D01*
X114856632Y-111103914D01*
X114932051Y-110921835D01*
X114970500Y-110728541D01*
X114970500Y-110531459D01*
X114932051Y-110338165D01*
X114856632Y-110156086D01*
X114747139Y-109992218D01*
X114607782Y-109852861D01*
X114492045Y-109775528D01*
X114460580Y-109728437D01*
X114471629Y-109672888D01*
X114518721Y-109641422D01*
X114533158Y-109640000D01*
X115436000Y-109640000D01*
X115488326Y-109661674D01*
X115510000Y-109714000D01*
X115510000Y-109801536D01*
X115509644Y-109808783D01*
X115509500Y-109810246D01*
X115509500Y-111449751D01*
X115509643Y-111451203D01*
X115510000Y-111458459D01*
X115510000Y-111630000D01*
X115681536Y-111630000D01*
X115688783Y-111630356D01*
X115690246Y-111630500D01*
X115690252Y-111630500D01*
X117329754Y-111630500D01*
X117331217Y-111630356D01*
X117338464Y-111630000D01*
X117510000Y-111630000D01*
X117510000Y-111458459D01*
X117510357Y-111451203D01*
X117510500Y-111449751D01*
X117510500Y-111004500D01*
X117532174Y-110952174D01*
X117584500Y-110930500D01*
X120899564Y-110930500D01*
X120899564Y-110930499D01*
X120975989Y-110910021D01*
X121044511Y-110870460D01*
X121100460Y-110814511D01*
X124929787Y-106985182D01*
X124982112Y-106963509D01*
X125010430Y-106969142D01*
X125103132Y-107007540D01*
X125138165Y-107022051D01*
X125331459Y-107060500D01*
X125331461Y-107060500D01*
X125528539Y-107060500D01*
X125528541Y-107060500D01*
X125721835Y-107022051D01*
X125903914Y-106946632D01*
X126067782Y-106837139D01*
X126207139Y-106697782D01*
X126316632Y-106533914D01*
X126392051Y-106351835D01*
X126430500Y-106158541D01*
X126430500Y-105961459D01*
X126392051Y-105768165D01*
X126339142Y-105640431D01*
X126339142Y-105583794D01*
X126355183Y-105559787D01*
X126528582Y-105386388D01*
X126772160Y-105142811D01*
X126798061Y-105097949D01*
X126811721Y-105074289D01*
X126832199Y-104997864D01*
X126832200Y-104997864D01*
X126832200Y-94232140D01*
X126832200Y-94232138D01*
X126811722Y-94155712D01*
X126772160Y-94087189D01*
X125055183Y-92370212D01*
X125033509Y-92317886D01*
X125039142Y-92289567D01*
X125092051Y-92161835D01*
X125130500Y-91968541D01*
X125130500Y-91771459D01*
X125092051Y-91578165D01*
X125016632Y-91396086D01*
X124907139Y-91232218D01*
X124767782Y-91092861D01*
X124700904Y-91048174D01*
X124603913Y-90983367D01*
X124421839Y-90907950D01*
X124421829Y-90907947D01*
X124292388Y-90882200D01*
X124228541Y-90869500D01*
X124031459Y-90869500D01*
X123976662Y-90880399D01*
X123838170Y-90907947D01*
X123838160Y-90907950D01*
X123710431Y-90960857D01*
X123653794Y-90960857D01*
X123629787Y-90944816D01*
X122752711Y-90067740D01*
X122684190Y-90028179D01*
X122684185Y-90028177D01*
X122607764Y-90007700D01*
X122607762Y-90007700D01*
X95251362Y-90007700D01*
X95172238Y-90007700D01*
X95095812Y-90028178D01*
X95095811Y-90028178D01*
X95095809Y-90028179D01*
X95095807Y-90028180D01*
X95027290Y-90067738D01*
X94150211Y-90944816D01*
X94097885Y-90966490D01*
X94069567Y-90960857D01*
X93941839Y-90907950D01*
X93941829Y-90907947D01*
X93812388Y-90882200D01*
X93748541Y-90869500D01*
X93551459Y-90869500D01*
X93496662Y-90880399D01*
X93358170Y-90907947D01*
X93358160Y-90907950D01*
X93176086Y-90983367D01*
X93012218Y-91092860D01*
X93012217Y-91092862D01*
X92872862Y-91232217D01*
X92872860Y-91232218D01*
X92763367Y-91396086D01*
X92687950Y-91578160D01*
X92687947Y-91578170D01*
X92649500Y-91771460D01*
X92649500Y-91968539D01*
X92687947Y-92161829D01*
X92687950Y-92161839D01*
X92740857Y-92289567D01*
X92740857Y-92346204D01*
X92724816Y-92370211D01*
X92442103Y-92652926D01*
X92389777Y-92674600D01*
X91898973Y-92674600D01*
X91846647Y-92652926D01*
X91824973Y-92600600D01*
X91846647Y-92548274D01*
X91887138Y-92507783D01*
X91887139Y-92507782D01*
X91996632Y-92343914D01*
X92072051Y-92161835D01*
X92110500Y-91968541D01*
X92110500Y-91771459D01*
X92072051Y-91578165D01*
X91996632Y-91396086D01*
X91887139Y-91232218D01*
X91747782Y-91092861D01*
X91680904Y-91048174D01*
X91583913Y-90983367D01*
X91401839Y-90907950D01*
X91401829Y-90907947D01*
X91272388Y-90882200D01*
X91208541Y-90869500D01*
X91011459Y-90869500D01*
X90956662Y-90880399D01*
X90818170Y-90907947D01*
X90818160Y-90907950D01*
X90636086Y-90983367D01*
X90472218Y-91092860D01*
X90472217Y-91092862D01*
X90332862Y-91232217D01*
X90332860Y-91232218D01*
X90223367Y-91396086D01*
X90147950Y-91578160D01*
X90147947Y-91578170D01*
X90109500Y-91771460D01*
X90109500Y-91968539D01*
X90147947Y-92161829D01*
X90147950Y-92161839D01*
X90223367Y-92343913D01*
X90332860Y-92507781D01*
X90373353Y-92548274D01*
X90395027Y-92600600D01*
X90373353Y-92652926D01*
X90321027Y-92674600D01*
X89358973Y-92674600D01*
X89306647Y-92652926D01*
X89284973Y-92600600D01*
X89306647Y-92548274D01*
X89347138Y-92507783D01*
X89347139Y-92507782D01*
X89456632Y-92343914D01*
X89532051Y-92161835D01*
X89570500Y-91968541D01*
X89570500Y-91771459D01*
X89532051Y-91578165D01*
X89456632Y-91396086D01*
X89347139Y-91232218D01*
X89207782Y-91092861D01*
X89140904Y-91048174D01*
X89043913Y-90983367D01*
X88861839Y-90907950D01*
X88861829Y-90907947D01*
X88732388Y-90882200D01*
X88668541Y-90869500D01*
X88471459Y-90869500D01*
X88416662Y-90880399D01*
X88278170Y-90907947D01*
X88278160Y-90907950D01*
X88096086Y-90983367D01*
X87932218Y-91092860D01*
X87932217Y-91092862D01*
X87792862Y-91232217D01*
X87792860Y-91232218D01*
X87683367Y-91396086D01*
X87607950Y-91578160D01*
X87607947Y-91578170D01*
X87569500Y-91771460D01*
X87569500Y-91968539D01*
X87607947Y-92161829D01*
X87607950Y-92161839D01*
X87683367Y-92343913D01*
X87792860Y-92507781D01*
X87833353Y-92548274D01*
X87855027Y-92600600D01*
X87833353Y-92652926D01*
X87781027Y-92674600D01*
X87290223Y-92674600D01*
X87237897Y-92652926D01*
X86955183Y-92370212D01*
X86933509Y-92317886D01*
X86939142Y-92289567D01*
X86992051Y-92161835D01*
X87030500Y-91968541D01*
X87030500Y-91771459D01*
X86992051Y-91578165D01*
X86916632Y-91396086D01*
X86807139Y-91232218D01*
X86667782Y-91092861D01*
X86600904Y-91048174D01*
X86503913Y-90983367D01*
X86321839Y-90907950D01*
X86321829Y-90907947D01*
X86192388Y-90882200D01*
X86128541Y-90869500D01*
X85931459Y-90869500D01*
X85876662Y-90880399D01*
X85738170Y-90907947D01*
X85738160Y-90907950D01*
X85556086Y-90983367D01*
X85392218Y-91092860D01*
X85392217Y-91092862D01*
X85252862Y-91232217D01*
X85252860Y-91232218D01*
X85143367Y-91396086D01*
X85067950Y-91578160D01*
X85067947Y-91578170D01*
X85029500Y-91771460D01*
X85029500Y-91968539D01*
X85067947Y-92161829D01*
X85067950Y-92161839D01*
X85143367Y-92343913D01*
X85232226Y-92476899D01*
X85252861Y-92507782D01*
X85392218Y-92647139D01*
X85556086Y-92756632D01*
X85738165Y-92832051D01*
X85931459Y-92870500D01*
X85931461Y-92870500D01*
X86128539Y-92870500D01*
X86128541Y-92870500D01*
X86321835Y-92832051D01*
X86449568Y-92779142D01*
X86506204Y-92779142D01*
X86530212Y-92795183D01*
X86894640Y-93159611D01*
X86950589Y-93215560D01*
X87019111Y-93255121D01*
X87019112Y-93255121D01*
X87019114Y-93255122D01*
X87057324Y-93265360D01*
X87095535Y-93275599D01*
X87095536Y-93275600D01*
X87095538Y-93275600D01*
X92584464Y-93275600D01*
X92584464Y-93275599D01*
X92660889Y-93255121D01*
X92729411Y-93215560D01*
X92785360Y-93159611D01*
X93149787Y-92795182D01*
X93202113Y-92773509D01*
X93230431Y-92779141D01*
X93358165Y-92832051D01*
X93551459Y-92870500D01*
X93551461Y-92870500D01*
X93748539Y-92870500D01*
X93748541Y-92870500D01*
X93941835Y-92832051D01*
X94123914Y-92756632D01*
X94287782Y-92647139D01*
X94427139Y-92507782D01*
X94536632Y-92343914D01*
X94612051Y-92161835D01*
X94650500Y-91968541D01*
X94650500Y-91771460D01*
X95189500Y-91771460D01*
X95189500Y-91968539D01*
X95227947Y-92161829D01*
X95227950Y-92161839D01*
X95303367Y-92343913D01*
X95392226Y-92476899D01*
X95412861Y-92507782D01*
X95552218Y-92647139D01*
X95716086Y-92756632D01*
X95898165Y-92832051D01*
X96091459Y-92870500D01*
X96091461Y-92870500D01*
X96288539Y-92870500D01*
X96288541Y-92870500D01*
X96481835Y-92832051D01*
X96663914Y-92756632D01*
X96827782Y-92647139D01*
X96967139Y-92507782D01*
X97076632Y-92343914D01*
X97152051Y-92161835D01*
X97190500Y-91968541D01*
X97190500Y-91771459D01*
X97152051Y-91578165D01*
X97076632Y-91396086D01*
X96967139Y-91232218D01*
X96827782Y-91092861D01*
X96760904Y-91048174D01*
X96663913Y-90983367D01*
X96481839Y-90907950D01*
X96481829Y-90907947D01*
X96352388Y-90882200D01*
X96288541Y-90869500D01*
X96091459Y-90869500D01*
X96036662Y-90880399D01*
X95898170Y-90907947D01*
X95898160Y-90907950D01*
X95716086Y-90983367D01*
X95552218Y-91092860D01*
X95552217Y-91092862D01*
X95412862Y-91232217D01*
X95412860Y-91232218D01*
X95303367Y-91396086D01*
X95227950Y-91578160D01*
X95227947Y-91578170D01*
X95189500Y-91771460D01*
X94650500Y-91771460D01*
X94650500Y-91771459D01*
X94612051Y-91578165D01*
X94571489Y-91480239D01*
X94559142Y-91450430D01*
X94559142Y-91393793D01*
X94575180Y-91369789D01*
X95314597Y-90630374D01*
X95366923Y-90608700D01*
X99387677Y-90608700D01*
X99440003Y-90630374D01*
X99461677Y-90682700D01*
X99440003Y-90735026D01*
X99230211Y-90944816D01*
X99177885Y-90966490D01*
X99149567Y-90960857D01*
X99021839Y-90907950D01*
X99021829Y-90907947D01*
X98892388Y-90882200D01*
X98828541Y-90869500D01*
X98631459Y-90869500D01*
X98576662Y-90880399D01*
X98438170Y-90907947D01*
X98438160Y-90907950D01*
X98256086Y-90983367D01*
X98092218Y-91092860D01*
X98092217Y-91092862D01*
X97952862Y-91232217D01*
X97952860Y-91232218D01*
X97843367Y-91396086D01*
X97767950Y-91578160D01*
X97767947Y-91578170D01*
X97729500Y-91771460D01*
X97729500Y-91968539D01*
X97767947Y-92161829D01*
X97767950Y-92161839D01*
X97843367Y-92343913D01*
X97932226Y-92476899D01*
X97952861Y-92507782D01*
X98092218Y-92647139D01*
X98256086Y-92756632D01*
X98438165Y-92832051D01*
X98631459Y-92870500D01*
X98631461Y-92870500D01*
X98828539Y-92870500D01*
X98828541Y-92870500D01*
X99021835Y-92832051D01*
X99203914Y-92756632D01*
X99367782Y-92647139D01*
X99507139Y-92507782D01*
X99616632Y-92343914D01*
X99692051Y-92161835D01*
X99730500Y-91968541D01*
X99730500Y-91771459D01*
X99692051Y-91578165D01*
X99639142Y-91450431D01*
X99639142Y-91393794D01*
X99655183Y-91369787D01*
X99976797Y-91048174D01*
X100029123Y-91026500D01*
X100519928Y-91026500D01*
X100572254Y-91048174D01*
X100593928Y-91100500D01*
X100572254Y-91152824D01*
X100532557Y-91192521D01*
X100492861Y-91232217D01*
X100492860Y-91232218D01*
X100383367Y-91396086D01*
X100307950Y-91578160D01*
X100307947Y-91578170D01*
X100269500Y-91771460D01*
X100269500Y-91968539D01*
X100307947Y-92161829D01*
X100307950Y-92161839D01*
X100383367Y-92343913D01*
X100472226Y-92476899D01*
X100492861Y-92507782D01*
X100632218Y-92647139D01*
X100796086Y-92756632D01*
X100978165Y-92832051D01*
X101171459Y-92870500D01*
X101171461Y-92870500D01*
X101368539Y-92870500D01*
X101368541Y-92870500D01*
X101561835Y-92832051D01*
X101743914Y-92756632D01*
X101907782Y-92647139D01*
X102047139Y-92507782D01*
X102156632Y-92343914D01*
X102232051Y-92161835D01*
X102270500Y-91968541D01*
X102270500Y-91771459D01*
X102232051Y-91578165D01*
X102156632Y-91396086D01*
X102047139Y-91232218D01*
X101967745Y-91152824D01*
X101946072Y-91100500D01*
X101967746Y-91048174D01*
X102020072Y-91026500D01*
X103059928Y-91026500D01*
X103112254Y-91048174D01*
X103133928Y-91100500D01*
X103112254Y-91152824D01*
X103072557Y-91192521D01*
X103032861Y-91232217D01*
X103032860Y-91232218D01*
X102923367Y-91396086D01*
X102847950Y-91578160D01*
X102847947Y-91578170D01*
X102809500Y-91771460D01*
X102809500Y-91968539D01*
X102847947Y-92161829D01*
X102847950Y-92161839D01*
X102923367Y-92343913D01*
X103012226Y-92476899D01*
X103032861Y-92507782D01*
X103172218Y-92647139D01*
X103336086Y-92756632D01*
X103518165Y-92832051D01*
X103711459Y-92870500D01*
X103711461Y-92870500D01*
X103908539Y-92870500D01*
X103908541Y-92870500D01*
X104101835Y-92832051D01*
X104283914Y-92756632D01*
X104447782Y-92647139D01*
X104587139Y-92507782D01*
X104696632Y-92343914D01*
X104772051Y-92161835D01*
X104810500Y-91968541D01*
X104810500Y-91771459D01*
X104772051Y-91578165D01*
X104696632Y-91396086D01*
X104587139Y-91232218D01*
X104507745Y-91152824D01*
X104486072Y-91100500D01*
X104507746Y-91048174D01*
X104560072Y-91026500D01*
X105599928Y-91026500D01*
X105652254Y-91048174D01*
X105673928Y-91100500D01*
X105652254Y-91152824D01*
X105612557Y-91192521D01*
X105572861Y-91232217D01*
X105572860Y-91232218D01*
X105463367Y-91396086D01*
X105387950Y-91578160D01*
X105387947Y-91578170D01*
X105349500Y-91771460D01*
X105349500Y-91968539D01*
X105387947Y-92161829D01*
X105387950Y-92161839D01*
X105463367Y-92343913D01*
X105552226Y-92476899D01*
X105572861Y-92507782D01*
X105712218Y-92647139D01*
X105876086Y-92756632D01*
X106058165Y-92832051D01*
X106251459Y-92870500D01*
X106251461Y-92870500D01*
X106448539Y-92870500D01*
X106448541Y-92870500D01*
X106641835Y-92832051D01*
X106823914Y-92756632D01*
X106987782Y-92647139D01*
X107127139Y-92507782D01*
X107236632Y-92343914D01*
X107312051Y-92161835D01*
X107350500Y-91968541D01*
X107350500Y-91771459D01*
X107312051Y-91578165D01*
X107236632Y-91396086D01*
X107127139Y-91232218D01*
X107047745Y-91152824D01*
X107026072Y-91100500D01*
X107047746Y-91048174D01*
X107100072Y-91026500D01*
X108139928Y-91026500D01*
X108192254Y-91048174D01*
X108213928Y-91100500D01*
X108192254Y-91152824D01*
X108152557Y-91192521D01*
X108112861Y-91232217D01*
X108112860Y-91232218D01*
X108003367Y-91396086D01*
X107927950Y-91578160D01*
X107927947Y-91578170D01*
X107889500Y-91771460D01*
X107889500Y-91968539D01*
X107927947Y-92161829D01*
X107927950Y-92161839D01*
X107980857Y-92289567D01*
X107980857Y-92346204D01*
X107964816Y-92370211D01*
X104925489Y-95409540D01*
X104869540Y-95465488D01*
X104829979Y-95534009D01*
X104829977Y-95534014D01*
X104809500Y-95610435D01*
X104809500Y-97432092D01*
X104787826Y-97484418D01*
X104763819Y-97500459D01*
X104636089Y-97553366D01*
X104472218Y-97662860D01*
X104472217Y-97662862D01*
X104332862Y-97802217D01*
X104332860Y-97802218D01*
X104223367Y-97966086D01*
X104147950Y-98148160D01*
X104147947Y-98148170D01*
X104133630Y-98220149D01*
X104109500Y-98341459D01*
X104109500Y-98538541D01*
X104117371Y-98578110D01*
X104147947Y-98731829D01*
X104147950Y-98731839D01*
X104223367Y-98913913D01*
X104332860Y-99077781D01*
X104474453Y-99219374D01*
X104496127Y-99271700D01*
X104474453Y-99324026D01*
X104422127Y-99345700D01*
X99073302Y-99345700D01*
X99020976Y-99324026D01*
X98999302Y-99271700D01*
X99007056Y-99242760D01*
X99005634Y-99242171D01*
X99007488Y-99237692D01*
X99007492Y-99237686D01*
X99041599Y-99110394D01*
X99041600Y-99110394D01*
X99041600Y-98978606D01*
X99041599Y-98978605D01*
X99040581Y-98974807D01*
X99007492Y-98851314D01*
X98941600Y-98737186D01*
X98848414Y-98644000D01*
X98771546Y-98599620D01*
X98734290Y-98578110D01*
X98734281Y-98578106D01*
X98606994Y-98544000D01*
X98606992Y-98544000D01*
X98496223Y-98544000D01*
X98443897Y-98522326D01*
X97019411Y-97097840D01*
X96950890Y-97058279D01*
X96950885Y-97058277D01*
X96874464Y-97037800D01*
X96874462Y-97037800D01*
X93952138Y-97037800D01*
X93952136Y-97037800D01*
X93875714Y-97058277D01*
X93875709Y-97058279D01*
X93807188Y-97097840D01*
X93390211Y-97514816D01*
X93337885Y-97536490D01*
X93309567Y-97530857D01*
X93181839Y-97477950D01*
X93181829Y-97477947D01*
X93052388Y-97452200D01*
X92988541Y-97439500D01*
X92791459Y-97439500D01*
X92736662Y-97450399D01*
X92598170Y-97477947D01*
X92598160Y-97477950D01*
X92416086Y-97553367D01*
X92252218Y-97662860D01*
X92252217Y-97662862D01*
X92112862Y-97802217D01*
X92112860Y-97802218D01*
X92003367Y-97966086D01*
X91927950Y-98148160D01*
X91927947Y-98148170D01*
X91913630Y-98220149D01*
X91889500Y-98341459D01*
X91889500Y-98538541D01*
X91897371Y-98578110D01*
X91927947Y-98731829D01*
X91927950Y-98731839D01*
X92003367Y-98913913D01*
X92112860Y-99077781D01*
X92254453Y-99219374D01*
X92276127Y-99271700D01*
X92254453Y-99324026D01*
X92202127Y-99345700D01*
X91711323Y-99345700D01*
X91658997Y-99324026D01*
X91275183Y-98940212D01*
X91253509Y-98887886D01*
X91259142Y-98859567D01*
X91262559Y-98851318D01*
X91312051Y-98731835D01*
X91350500Y-98538541D01*
X91350500Y-98341459D01*
X91312051Y-98148165D01*
X91271723Y-98050805D01*
X91236632Y-97966086D01*
X91127139Y-97802218D01*
X90987781Y-97662860D01*
X90823913Y-97553367D01*
X90641839Y-97477950D01*
X90641829Y-97477947D01*
X90512388Y-97452200D01*
X90448541Y-97439500D01*
X90251459Y-97439500D01*
X90196662Y-97450399D01*
X90058170Y-97477947D01*
X90058160Y-97477950D01*
X89876086Y-97553367D01*
X89712218Y-97662860D01*
X89712217Y-97662862D01*
X89572862Y-97802217D01*
X89572860Y-97802218D01*
X89463367Y-97966086D01*
X89387950Y-98148160D01*
X89387947Y-98148170D01*
X89373630Y-98220149D01*
X89349500Y-98341459D01*
X89349500Y-98538541D01*
X89357371Y-98578110D01*
X89387947Y-98731829D01*
X89387950Y-98731839D01*
X89463367Y-98913913D01*
X89553501Y-99048807D01*
X89572861Y-99077782D01*
X89712218Y-99217139D01*
X89876086Y-99326632D01*
X90058165Y-99402051D01*
X90251459Y-99440500D01*
X90251461Y-99440500D01*
X90448539Y-99440500D01*
X90448541Y-99440500D01*
X90641835Y-99402051D01*
X90769568Y-99349142D01*
X90826204Y-99349142D01*
X90850212Y-99365183D01*
X91315740Y-99830711D01*
X91371689Y-99886660D01*
X91440211Y-99926221D01*
X91440212Y-99926221D01*
X91440214Y-99926222D01*
X91478424Y-99936460D01*
X91516635Y-99946699D01*
X91516636Y-99946700D01*
X91516638Y-99946700D01*
X91595762Y-99946700D01*
X92459334Y-99946700D01*
X92511660Y-99968374D01*
X92533334Y-100020700D01*
X92511660Y-100073026D01*
X92492560Y-100092126D01*
X92440234Y-100113800D01*
X89939423Y-100113800D01*
X89887097Y-100092126D01*
X88735183Y-98940212D01*
X88713509Y-98887886D01*
X88719142Y-98859567D01*
X88722559Y-98851318D01*
X88772051Y-98731835D01*
X88810500Y-98538541D01*
X88810500Y-98341459D01*
X88772051Y-98148165D01*
X88731723Y-98050805D01*
X88696632Y-97966086D01*
X88587139Y-97802218D01*
X88447781Y-97662860D01*
X88283913Y-97553367D01*
X88101839Y-97477950D01*
X88101829Y-97477947D01*
X87972388Y-97452200D01*
X87908541Y-97439500D01*
X87711459Y-97439500D01*
X87656662Y-97450399D01*
X87518170Y-97477947D01*
X87518160Y-97477950D01*
X87336086Y-97553367D01*
X87172218Y-97662860D01*
X87172217Y-97662862D01*
X87032862Y-97802217D01*
X87032860Y-97802218D01*
X86923367Y-97966086D01*
X86847950Y-98148160D01*
X86847947Y-98148170D01*
X86833630Y-98220149D01*
X86809500Y-98341459D01*
X86809500Y-98538541D01*
X86817371Y-98578110D01*
X86847947Y-98731829D01*
X86847950Y-98731839D01*
X86923367Y-98913913D01*
X87013501Y-99048807D01*
X87032861Y-99077782D01*
X87172218Y-99217139D01*
X87336086Y-99326632D01*
X87518165Y-99402051D01*
X87711459Y-99440500D01*
X87711461Y-99440500D01*
X87908539Y-99440500D01*
X87908541Y-99440500D01*
X88101835Y-99402051D01*
X88229568Y-99349142D01*
X88286204Y-99349142D01*
X88310212Y-99365183D01*
X89603219Y-100658190D01*
X89601396Y-100660012D01*
X89625543Y-100701851D01*
X89610877Y-100756557D01*
X89561824Y-100784868D01*
X89552175Y-100785500D01*
X83645562Y-100785500D01*
X83566438Y-100785500D01*
X83490012Y-100805978D01*
X83490011Y-100805978D01*
X83490009Y-100805979D01*
X83490007Y-100805980D01*
X83421492Y-100845537D01*
X78903789Y-105363240D01*
X78847840Y-105419188D01*
X78808279Y-105487709D01*
X78808277Y-105487714D01*
X78787800Y-105564135D01*
X78787800Y-105900379D01*
X78766126Y-105952705D01*
X78713800Y-105974379D01*
X78661474Y-105952705D01*
X78641222Y-105914816D01*
X78612052Y-105768170D01*
X78612051Y-105768169D01*
X78612051Y-105768165D01*
X78536632Y-105586086D01*
X78427139Y-105422218D01*
X78287782Y-105282861D01*
X78286644Y-105282100D01*
X78123913Y-105173367D01*
X77941839Y-105097950D01*
X77941829Y-105097947D01*
X77809296Y-105071585D01*
X77748541Y-105059500D01*
X77551459Y-105059500D01*
X77509034Y-105067939D01*
X77358170Y-105097947D01*
X77358160Y-105097950D01*
X77176086Y-105173367D01*
X77012218Y-105282860D01*
X77012217Y-105282862D01*
X76975126Y-105319953D01*
X76922800Y-105341627D01*
X76870474Y-105319953D01*
X76848800Y-105267627D01*
X76848800Y-102236822D01*
X76870473Y-102184497D01*
X79689787Y-99365182D01*
X79742112Y-99343509D01*
X79770430Y-99349142D01*
X79898160Y-99402049D01*
X79898165Y-99402051D01*
X80091459Y-99440500D01*
X80091461Y-99440500D01*
X80288539Y-99440500D01*
X80288541Y-99440500D01*
X80481835Y-99402051D01*
X80663914Y-99326632D01*
X80827782Y-99217139D01*
X80967139Y-99077782D01*
X81076632Y-98913914D01*
X81152051Y-98731835D01*
X81190500Y-98538541D01*
X81190500Y-98341459D01*
X81729500Y-98341459D01*
X81729500Y-98538541D01*
X81737371Y-98578110D01*
X81767947Y-98731829D01*
X81767950Y-98731839D01*
X81843367Y-98913913D01*
X81933501Y-99048807D01*
X81952861Y-99077782D01*
X82092218Y-99217139D01*
X82256086Y-99326632D01*
X82438165Y-99402051D01*
X82631459Y-99440500D01*
X82631461Y-99440500D01*
X82828539Y-99440500D01*
X82828541Y-99440500D01*
X83021835Y-99402051D01*
X83203914Y-99326632D01*
X83367782Y-99217139D01*
X83507139Y-99077782D01*
X83616632Y-98913914D01*
X83692051Y-98731835D01*
X83730500Y-98538541D01*
X83730500Y-98341459D01*
X84269500Y-98341459D01*
X84269500Y-98538541D01*
X84277371Y-98578110D01*
X84307947Y-98731829D01*
X84307950Y-98731839D01*
X84383367Y-98913913D01*
X84473501Y-99048807D01*
X84492861Y-99077782D01*
X84632218Y-99217139D01*
X84796086Y-99326632D01*
X84978165Y-99402051D01*
X85171459Y-99440500D01*
X85171461Y-99440500D01*
X85368539Y-99440500D01*
X85368541Y-99440500D01*
X85561835Y-99402051D01*
X85743914Y-99326632D01*
X85907782Y-99217139D01*
X86047139Y-99077782D01*
X86156632Y-98913914D01*
X86232051Y-98731835D01*
X86270500Y-98538541D01*
X86270500Y-98341459D01*
X86232051Y-98148165D01*
X86191723Y-98050805D01*
X86156632Y-97966086D01*
X86047139Y-97802218D01*
X85907781Y-97662860D01*
X85743913Y-97553367D01*
X85561839Y-97477950D01*
X85561829Y-97477947D01*
X85432388Y-97452200D01*
X85368541Y-97439500D01*
X85171459Y-97439500D01*
X85116662Y-97450399D01*
X84978170Y-97477947D01*
X84978160Y-97477950D01*
X84796086Y-97553367D01*
X84632218Y-97662860D01*
X84632217Y-97662862D01*
X84492862Y-97802217D01*
X84492860Y-97802218D01*
X84383367Y-97966086D01*
X84307950Y-98148160D01*
X84307947Y-98148170D01*
X84293630Y-98220149D01*
X84269500Y-98341459D01*
X83730500Y-98341459D01*
X83692051Y-98148165D01*
X83651723Y-98050805D01*
X83616632Y-97966086D01*
X83507139Y-97802218D01*
X83367781Y-97662860D01*
X83203913Y-97553367D01*
X83021839Y-97477950D01*
X83021829Y-97477947D01*
X82892388Y-97452200D01*
X82828541Y-97439500D01*
X82631459Y-97439500D01*
X82576662Y-97450399D01*
X82438170Y-97477947D01*
X82438160Y-97477950D01*
X82256086Y-97553367D01*
X82092218Y-97662860D01*
X82092217Y-97662862D01*
X81952862Y-97802217D01*
X81952860Y-97802218D01*
X81843367Y-97966086D01*
X81767950Y-98148160D01*
X81767947Y-98148170D01*
X81753630Y-98220149D01*
X81729500Y-98341459D01*
X81190500Y-98341459D01*
X81152051Y-98148165D01*
X81111723Y-98050805D01*
X81076632Y-97966086D01*
X80967139Y-97802218D01*
X80827781Y-97662860D01*
X80663913Y-97553367D01*
X80481839Y-97477950D01*
X80481829Y-97477947D01*
X80352388Y-97452200D01*
X80288541Y-97439500D01*
X80091459Y-97439500D01*
X80036662Y-97450399D01*
X79898170Y-97477947D01*
X79898160Y-97477950D01*
X79716086Y-97553367D01*
X79552218Y-97662860D01*
X79552217Y-97662862D01*
X79412862Y-97802217D01*
X79412860Y-97802218D01*
X79303367Y-97966086D01*
X79227950Y-98148160D01*
X79227947Y-98148170D01*
X79213630Y-98220149D01*
X79189500Y-98341459D01*
X79189500Y-98538541D01*
X79197371Y-98578110D01*
X79227947Y-98731829D01*
X79227950Y-98731839D01*
X79280857Y-98859567D01*
X79280857Y-98916204D01*
X79264816Y-98940211D01*
X76363789Y-101841240D01*
X76307840Y-101897188D01*
X76268279Y-101965709D01*
X76268277Y-101965714D01*
X76247800Y-102042135D01*
X76247800Y-105900379D01*
X76226126Y-105952705D01*
X76173800Y-105974379D01*
X76121474Y-105952705D01*
X76101222Y-105914816D01*
X76072052Y-105768170D01*
X76072051Y-105768169D01*
X76072051Y-105768165D01*
X75996632Y-105586086D01*
X75887139Y-105422218D01*
X75747782Y-105282861D01*
X75746644Y-105282100D01*
X75583913Y-105173367D01*
X75401839Y-105097950D01*
X75401829Y-105097947D01*
X75269296Y-105071585D01*
X75208541Y-105059500D01*
X75011459Y-105059500D01*
X74969034Y-105067939D01*
X74818170Y-105097947D01*
X74818160Y-105097950D01*
X74636086Y-105173367D01*
X74472218Y-105282860D01*
X74472217Y-105282862D01*
X74332862Y-105422217D01*
X74332860Y-105422218D01*
X74223367Y-105586086D01*
X74147950Y-105768160D01*
X74147947Y-105768170D01*
X74109500Y-105961460D01*
X74109500Y-106158539D01*
X74147947Y-106351829D01*
X74147950Y-106351839D01*
X74223367Y-106533913D01*
X74289165Y-106632386D01*
X74332861Y-106697782D01*
X74472218Y-106837139D01*
X74636086Y-106946632D01*
X74818165Y-107022051D01*
X75011459Y-107060500D01*
X75011461Y-107060500D01*
X75208539Y-107060500D01*
X75208541Y-107060500D01*
X75401835Y-107022051D01*
X75583914Y-106946632D01*
X75747782Y-106837139D01*
X75887139Y-106697782D01*
X75996632Y-106533914D01*
X76072051Y-106351835D01*
X76101222Y-106205182D01*
X76132688Y-106158091D01*
X76188237Y-106147042D01*
X76235329Y-106178508D01*
X76247800Y-106219620D01*
X76247800Y-115976000D01*
X76226126Y-116028326D01*
X76173800Y-116050000D01*
X68613494Y-116050000D01*
X68561168Y-116028326D01*
X68221674Y-115688832D01*
X68200000Y-115636506D01*
X68200000Y-105961460D01*
X71569500Y-105961460D01*
X71569500Y-106158539D01*
X71607947Y-106351829D01*
X71607950Y-106351839D01*
X71683367Y-106533913D01*
X71749165Y-106632386D01*
X71792861Y-106697782D01*
X71932218Y-106837139D01*
X72096086Y-106946632D01*
X72278165Y-107022051D01*
X72471459Y-107060500D01*
X72471461Y-107060500D01*
X72668539Y-107060500D01*
X72668541Y-107060500D01*
X72861835Y-107022051D01*
X73043914Y-106946632D01*
X73207782Y-106837139D01*
X73347139Y-106697782D01*
X73456632Y-106533914D01*
X73532051Y-106351835D01*
X73570500Y-106158541D01*
X73570500Y-105961459D01*
X73532051Y-105768165D01*
X73456632Y-105586086D01*
X73347139Y-105422218D01*
X73207782Y-105282861D01*
X73206644Y-105282100D01*
X73043913Y-105173367D01*
X72861839Y-105097950D01*
X72861829Y-105097947D01*
X72729296Y-105071585D01*
X72668541Y-105059500D01*
X72471459Y-105059500D01*
X72429034Y-105067939D01*
X72278170Y-105097947D01*
X72278160Y-105097950D01*
X72096086Y-105173367D01*
X71932218Y-105282860D01*
X71932217Y-105282862D01*
X71792862Y-105422217D01*
X71792860Y-105422218D01*
X71683367Y-105586086D01*
X71607950Y-105768160D01*
X71607947Y-105768170D01*
X71569500Y-105961460D01*
X68200000Y-105961460D01*
X68200000Y-98341459D01*
X74109500Y-98341459D01*
X74109500Y-98538541D01*
X74117371Y-98578110D01*
X74147947Y-98731829D01*
X74147950Y-98731839D01*
X74223367Y-98913913D01*
X74313501Y-99048807D01*
X74332861Y-99077782D01*
X74472218Y-99217139D01*
X74636086Y-99326632D01*
X74818165Y-99402051D01*
X75011459Y-99440500D01*
X75011461Y-99440500D01*
X75208539Y-99440500D01*
X75208541Y-99440500D01*
X75401835Y-99402051D01*
X75583914Y-99326632D01*
X75747782Y-99217139D01*
X75887139Y-99077782D01*
X75996632Y-98913914D01*
X76072051Y-98731835D01*
X76110500Y-98538541D01*
X76110500Y-98341459D01*
X76649500Y-98341459D01*
X76649500Y-98538541D01*
X76657371Y-98578110D01*
X76687947Y-98731829D01*
X76687950Y-98731839D01*
X76763367Y-98913913D01*
X76853501Y-99048807D01*
X76872861Y-99077782D01*
X77012218Y-99217139D01*
X77176086Y-99326632D01*
X77358165Y-99402051D01*
X77551459Y-99440500D01*
X77551461Y-99440500D01*
X77748539Y-99440500D01*
X77748541Y-99440500D01*
X77941835Y-99402051D01*
X78123914Y-99326632D01*
X78287782Y-99217139D01*
X78427139Y-99077782D01*
X78536632Y-98913914D01*
X78612051Y-98731835D01*
X78650500Y-98538541D01*
X78650500Y-98341459D01*
X78612051Y-98148165D01*
X78571723Y-98050805D01*
X78536632Y-97966086D01*
X78427139Y-97802218D01*
X78287781Y-97662860D01*
X78123913Y-97553367D01*
X77941839Y-97477950D01*
X77941829Y-97477947D01*
X77812388Y-97452200D01*
X77748541Y-97439500D01*
X77551459Y-97439500D01*
X77496662Y-97450399D01*
X77358170Y-97477947D01*
X77358160Y-97477950D01*
X77176086Y-97553367D01*
X77012218Y-97662860D01*
X77012217Y-97662862D01*
X76872862Y-97802217D01*
X76872860Y-97802218D01*
X76763367Y-97966086D01*
X76687950Y-98148160D01*
X76687947Y-98148170D01*
X76673630Y-98220149D01*
X76649500Y-98341459D01*
X76110500Y-98341459D01*
X76072051Y-98148165D01*
X76031723Y-98050805D01*
X75996632Y-97966086D01*
X75887139Y-97802218D01*
X75747781Y-97662860D01*
X75583913Y-97553367D01*
X75401839Y-97477950D01*
X75401829Y-97477947D01*
X75272388Y-97452200D01*
X75208541Y-97439500D01*
X75011459Y-97439500D01*
X74956662Y-97450399D01*
X74818170Y-97477947D01*
X74818160Y-97477950D01*
X74636086Y-97553367D01*
X74472218Y-97662860D01*
X74472217Y-97662862D01*
X74332862Y-97802217D01*
X74332860Y-97802218D01*
X74223367Y-97966086D01*
X74147950Y-98148160D01*
X74147947Y-98148170D01*
X74133630Y-98220149D01*
X74109500Y-98341459D01*
X68200000Y-98341459D01*
X68200000Y-95661309D01*
X77829500Y-95661309D01*
X77829500Y-95838691D01*
X77840930Y-95896156D01*
X77864104Y-96012660D01*
X77864107Y-96012670D01*
X77931985Y-96176544D01*
X78022979Y-96312726D01*
X78030536Y-96324035D01*
X78155965Y-96449464D01*
X78303453Y-96548013D01*
X78303454Y-96548013D01*
X78303455Y-96548014D01*
X78354135Y-96569006D01*
X78467334Y-96615894D01*
X78641309Y-96650500D01*
X78641311Y-96650500D01*
X78818689Y-96650500D01*
X78818691Y-96650500D01*
X78992666Y-96615894D01*
X79073033Y-96582605D01*
X79129667Y-96582605D01*
X79153675Y-96598646D01*
X79570689Y-97015660D01*
X79639212Y-97055222D01*
X79715638Y-97075700D01*
X79715640Y-97075700D01*
X86284364Y-97075700D01*
X86284364Y-97075699D01*
X86360789Y-97055221D01*
X86429311Y-97015660D01*
X86485260Y-96959711D01*
X86846324Y-96598645D01*
X86898649Y-96576972D01*
X86926964Y-96582604D01*
X87007334Y-96615894D01*
X87181309Y-96650500D01*
X87181311Y-96650500D01*
X87358689Y-96650500D01*
X87358691Y-96650500D01*
X87532666Y-96615894D01*
X87696547Y-96548013D01*
X87844035Y-96449464D01*
X87969464Y-96324035D01*
X88068013Y-96176547D01*
X88135894Y-96012666D01*
X88170500Y-95838691D01*
X88170500Y-95661309D01*
X88135894Y-95487334D01*
X88068013Y-95323453D01*
X87969464Y-95175965D01*
X87844035Y-95050536D01*
X87790437Y-95014723D01*
X87696544Y-94951985D01*
X87532670Y-94884107D01*
X87532660Y-94884104D01*
X87416156Y-94860930D01*
X87358691Y-94849500D01*
X87181309Y-94849500D01*
X87131989Y-94859310D01*
X87007339Y-94884104D01*
X87007329Y-94884107D01*
X86843455Y-94951985D01*
X86695968Y-95050533D01*
X86570533Y-95175968D01*
X86471985Y-95323455D01*
X86404107Y-95487329D01*
X86404104Y-95487339D01*
X86379619Y-95610438D01*
X86369500Y-95661309D01*
X86369500Y-95838691D01*
X86380930Y-95896156D01*
X86404104Y-96012660D01*
X86404105Y-96012662D01*
X86404106Y-96012666D01*
X86417950Y-96046089D01*
X86437394Y-96093032D01*
X86437393Y-96149669D01*
X86421352Y-96173675D01*
X86142003Y-96453026D01*
X86089677Y-96474700D01*
X85457450Y-96474700D01*
X85405124Y-96453026D01*
X85383450Y-96400700D01*
X85405123Y-96348375D01*
X85429464Y-96324035D01*
X85528013Y-96176547D01*
X85595894Y-96012666D01*
X85630500Y-95838691D01*
X85630500Y-95661309D01*
X85595894Y-95487334D01*
X85528013Y-95323453D01*
X85429464Y-95175965D01*
X85304035Y-95050536D01*
X85250437Y-95014723D01*
X85156544Y-94951985D01*
X84992670Y-94884107D01*
X84992660Y-94884104D01*
X84876156Y-94860930D01*
X84818691Y-94849500D01*
X84641309Y-94849500D01*
X84591989Y-94859310D01*
X84467339Y-94884104D01*
X84467329Y-94884107D01*
X84303455Y-94951985D01*
X84155968Y-95050533D01*
X84030533Y-95175968D01*
X83931985Y-95323455D01*
X83864107Y-95487329D01*
X83864104Y-95487339D01*
X83839619Y-95610438D01*
X83829500Y-95661309D01*
X83829500Y-95838691D01*
X83840930Y-95896156D01*
X83864104Y-96012660D01*
X83864107Y-96012670D01*
X83931985Y-96176544D01*
X84022979Y-96312726D01*
X84030536Y-96324035D01*
X84054876Y-96348375D01*
X84076550Y-96400700D01*
X84054876Y-96453026D01*
X84002550Y-96474700D01*
X79910323Y-96474700D01*
X79857997Y-96453026D01*
X79578646Y-96173675D01*
X79556972Y-96121349D01*
X79562603Y-96093036D01*
X79595894Y-96012666D01*
X79630500Y-95838691D01*
X79630500Y-95661309D01*
X79595894Y-95487334D01*
X79528013Y-95323453D01*
X79429464Y-95175965D01*
X79304035Y-95050536D01*
X79250437Y-95014723D01*
X79156544Y-94951985D01*
X78992670Y-94884107D01*
X78992660Y-94884104D01*
X78876156Y-94860930D01*
X78818691Y-94849500D01*
X78641309Y-94849500D01*
X78591989Y-94859310D01*
X78467339Y-94884104D01*
X78467329Y-94884107D01*
X78303455Y-94951985D01*
X78155968Y-95050533D01*
X78030533Y-95175968D01*
X77931985Y-95323455D01*
X77864107Y-95487329D01*
X77864104Y-95487339D01*
X77839619Y-95610438D01*
X77829500Y-95661309D01*
X68200000Y-95661309D01*
X68200000Y-91771460D01*
X74869500Y-91771460D01*
X74869500Y-91968539D01*
X74907947Y-92161829D01*
X74907950Y-92161839D01*
X74983367Y-92343913D01*
X75072226Y-92476899D01*
X75092861Y-92507782D01*
X75232218Y-92647139D01*
X75396086Y-92756632D01*
X75578165Y-92832051D01*
X75771459Y-92870500D01*
X75771461Y-92870500D01*
X75968539Y-92870500D01*
X75968541Y-92870500D01*
X76161835Y-92832051D01*
X76343914Y-92756632D01*
X76507782Y-92647139D01*
X76647139Y-92507782D01*
X76756632Y-92343914D01*
X76832051Y-92161835D01*
X76870500Y-91968541D01*
X76870500Y-91771460D01*
X77409500Y-91771460D01*
X77409500Y-91968539D01*
X77447947Y-92161829D01*
X77447950Y-92161839D01*
X77523367Y-92343913D01*
X77612226Y-92476899D01*
X77632861Y-92507782D01*
X77772218Y-92647139D01*
X77936086Y-92756632D01*
X78118165Y-92832051D01*
X78311459Y-92870500D01*
X78311461Y-92870500D01*
X78508539Y-92870500D01*
X78508541Y-92870500D01*
X78701835Y-92832051D01*
X78883914Y-92756632D01*
X79047782Y-92647139D01*
X79187139Y-92507782D01*
X79296632Y-92343914D01*
X79372051Y-92161835D01*
X79410500Y-91968541D01*
X79410500Y-91771460D01*
X79949500Y-91771460D01*
X79949500Y-91968539D01*
X79987947Y-92161829D01*
X79987950Y-92161839D01*
X80063367Y-92343913D01*
X80152226Y-92476899D01*
X80172861Y-92507782D01*
X80312218Y-92647139D01*
X80476086Y-92756632D01*
X80658165Y-92832051D01*
X80851459Y-92870500D01*
X80851461Y-92870500D01*
X81048539Y-92870500D01*
X81048541Y-92870500D01*
X81241835Y-92832051D01*
X81423914Y-92756632D01*
X81587782Y-92647139D01*
X81727139Y-92507782D01*
X81836632Y-92343914D01*
X81912051Y-92161835D01*
X81950500Y-91968541D01*
X81950500Y-91771459D01*
X81912051Y-91578165D01*
X81836632Y-91396086D01*
X81727139Y-91232218D01*
X81587782Y-91092861D01*
X81520904Y-91048174D01*
X81423913Y-90983367D01*
X81241839Y-90907950D01*
X81241829Y-90907947D01*
X81112388Y-90882200D01*
X81048541Y-90869500D01*
X80851459Y-90869500D01*
X80796662Y-90880399D01*
X80658170Y-90907947D01*
X80658160Y-90907950D01*
X80476086Y-90983367D01*
X80312218Y-91092860D01*
X80312217Y-91092862D01*
X80172862Y-91232217D01*
X80172860Y-91232218D01*
X80063367Y-91396086D01*
X79987950Y-91578160D01*
X79987947Y-91578170D01*
X79949500Y-91771460D01*
X79410500Y-91771460D01*
X79410500Y-91771459D01*
X79372051Y-91578165D01*
X79296632Y-91396086D01*
X79187139Y-91232218D01*
X79047782Y-91092861D01*
X78980904Y-91048174D01*
X78883913Y-90983367D01*
X78701839Y-90907950D01*
X78701829Y-90907947D01*
X78572388Y-90882200D01*
X78508541Y-90869500D01*
X78311459Y-90869500D01*
X78256662Y-90880399D01*
X78118170Y-90907947D01*
X78118160Y-90907950D01*
X77936086Y-90983367D01*
X77772218Y-91092860D01*
X77772217Y-91092862D01*
X77632862Y-91232217D01*
X77632860Y-91232218D01*
X77523367Y-91396086D01*
X77447950Y-91578160D01*
X77447947Y-91578170D01*
X77409500Y-91771460D01*
X76870500Y-91771460D01*
X76870500Y-91771459D01*
X76832051Y-91578165D01*
X76756632Y-91396086D01*
X76647139Y-91232218D01*
X76507782Y-91092861D01*
X76440904Y-91048174D01*
X76343913Y-90983367D01*
X76161839Y-90907950D01*
X76161829Y-90907947D01*
X76032388Y-90882200D01*
X75968541Y-90869500D01*
X75771459Y-90869500D01*
X75716662Y-90880399D01*
X75578170Y-90907947D01*
X75578160Y-90907950D01*
X75396086Y-90983367D01*
X75232218Y-91092860D01*
X75232217Y-91092862D01*
X75092862Y-91232217D01*
X75092860Y-91232218D01*
X74983367Y-91396086D01*
X74907950Y-91578160D01*
X74907947Y-91578170D01*
X74869500Y-91771460D01*
X68200000Y-91771460D01*
X68200000Y-76531460D01*
X74869500Y-76531460D01*
X74869500Y-76728539D01*
X74907947Y-76921829D01*
X74907950Y-76921839D01*
X74983367Y-77103913D01*
X74983368Y-77103914D01*
X75092861Y-77267782D01*
X75232218Y-77407139D01*
X75396086Y-77516632D01*
X75578165Y-77592051D01*
X75771459Y-77630500D01*
X75771461Y-77630500D01*
X75968539Y-77630500D01*
X75968541Y-77630500D01*
X76161835Y-77592051D01*
X76343914Y-77516632D01*
X76507782Y-77407139D01*
X76647139Y-77267782D01*
X76756632Y-77103914D01*
X76832051Y-76921835D01*
X76870500Y-76728541D01*
X76870500Y-76531460D01*
X77409500Y-76531460D01*
X77409500Y-76728539D01*
X77447947Y-76921829D01*
X77447950Y-76921839D01*
X77523367Y-77103913D01*
X77523368Y-77103914D01*
X77632861Y-77267782D01*
X77772218Y-77407139D01*
X77936086Y-77516632D01*
X78118165Y-77592051D01*
X78311459Y-77630500D01*
X78311461Y-77630500D01*
X78508539Y-77630500D01*
X78508541Y-77630500D01*
X78701835Y-77592051D01*
X78883914Y-77516632D01*
X79047782Y-77407139D01*
X79187139Y-77267782D01*
X79296632Y-77103914D01*
X79372051Y-76921835D01*
X79410500Y-76728541D01*
X79410500Y-76531460D01*
X79949500Y-76531460D01*
X79949500Y-76728539D01*
X79987947Y-76921829D01*
X79987950Y-76921839D01*
X80063367Y-77103913D01*
X80063368Y-77103914D01*
X80172861Y-77267782D01*
X80312218Y-77407139D01*
X80476086Y-77516632D01*
X80658165Y-77592051D01*
X80851459Y-77630500D01*
X80851461Y-77630500D01*
X81048539Y-77630500D01*
X81048541Y-77630500D01*
X81241835Y-77592051D01*
X81423914Y-77516632D01*
X81587782Y-77407139D01*
X81727139Y-77267782D01*
X81836632Y-77103914D01*
X81912051Y-76921835D01*
X81950500Y-76728541D01*
X81950500Y-76531460D01*
X82489500Y-76531460D01*
X82489500Y-76728539D01*
X82527947Y-76921829D01*
X82527950Y-76921839D01*
X82603367Y-77103913D01*
X82603368Y-77103914D01*
X82712861Y-77267782D01*
X82852218Y-77407139D01*
X83016086Y-77516632D01*
X83198165Y-77592051D01*
X83391459Y-77630500D01*
X83391461Y-77630500D01*
X83588539Y-77630500D01*
X83588541Y-77630500D01*
X83781835Y-77592051D01*
X83963914Y-77516632D01*
X84127782Y-77407139D01*
X84267139Y-77267782D01*
X84376632Y-77103914D01*
X84452051Y-76921835D01*
X84490500Y-76728541D01*
X84490500Y-76531460D01*
X85029500Y-76531460D01*
X85029500Y-76728539D01*
X85067947Y-76921829D01*
X85067950Y-76921839D01*
X85143367Y-77103913D01*
X85143368Y-77103914D01*
X85252861Y-77267782D01*
X85392218Y-77407139D01*
X85556086Y-77516632D01*
X85738165Y-77592051D01*
X85931459Y-77630500D01*
X85931461Y-77630500D01*
X86128539Y-77630500D01*
X86128541Y-77630500D01*
X86321835Y-77592051D01*
X86503914Y-77516632D01*
X86667782Y-77407139D01*
X86807139Y-77267782D01*
X86916632Y-77103914D01*
X86992051Y-76921835D01*
X87030500Y-76728541D01*
X87030500Y-76531460D01*
X87569500Y-76531460D01*
X87569500Y-76728539D01*
X87607947Y-76921829D01*
X87607950Y-76921839D01*
X87683367Y-77103913D01*
X87683368Y-77103914D01*
X87792861Y-77267782D01*
X87932218Y-77407139D01*
X88096086Y-77516632D01*
X88278165Y-77592051D01*
X88471459Y-77630500D01*
X88471461Y-77630500D01*
X88668539Y-77630500D01*
X88668541Y-77630500D01*
X88861835Y-77592051D01*
X89043914Y-77516632D01*
X89207782Y-77407139D01*
X89347139Y-77267782D01*
X89456632Y-77103914D01*
X89532051Y-76921835D01*
X89570500Y-76728541D01*
X89570500Y-76531460D01*
X90109500Y-76531460D01*
X90109500Y-76728539D01*
X90147947Y-76921829D01*
X90147950Y-76921839D01*
X90223367Y-77103913D01*
X90223368Y-77103914D01*
X90332861Y-77267782D01*
X90472218Y-77407139D01*
X90636086Y-77516632D01*
X90818165Y-77592051D01*
X91011459Y-77630500D01*
X91011461Y-77630500D01*
X91208539Y-77630500D01*
X91208541Y-77630500D01*
X91401835Y-77592051D01*
X91583914Y-77516632D01*
X91747782Y-77407139D01*
X91887139Y-77267782D01*
X91996632Y-77103914D01*
X92072051Y-76921835D01*
X92110500Y-76728541D01*
X92110500Y-76531460D01*
X92649500Y-76531460D01*
X92649500Y-76728539D01*
X92687947Y-76921829D01*
X92687950Y-76921839D01*
X92763367Y-77103913D01*
X92763368Y-77103914D01*
X92872861Y-77267782D01*
X93012218Y-77407139D01*
X93176086Y-77516632D01*
X93358165Y-77592051D01*
X93551459Y-77630500D01*
X93551461Y-77630500D01*
X93748539Y-77630500D01*
X93748541Y-77630500D01*
X93941835Y-77592051D01*
X94123914Y-77516632D01*
X94287782Y-77407139D01*
X94427139Y-77267782D01*
X94536632Y-77103914D01*
X94612051Y-76921835D01*
X94650500Y-76728541D01*
X94650500Y-76531460D01*
X95189500Y-76531460D01*
X95189500Y-76728539D01*
X95227947Y-76921829D01*
X95227950Y-76921839D01*
X95303367Y-77103913D01*
X95303368Y-77103914D01*
X95412861Y-77267782D01*
X95552218Y-77407139D01*
X95716086Y-77516632D01*
X95898165Y-77592051D01*
X96091459Y-77630500D01*
X96091461Y-77630500D01*
X96288539Y-77630500D01*
X96288541Y-77630500D01*
X96481835Y-77592051D01*
X96663914Y-77516632D01*
X96827782Y-77407139D01*
X96967139Y-77267782D01*
X97076632Y-77103914D01*
X97152051Y-76921835D01*
X97190500Y-76728541D01*
X97190500Y-76531460D01*
X97729500Y-76531460D01*
X97729500Y-76728539D01*
X97767947Y-76921829D01*
X97767950Y-76921839D01*
X97843367Y-77103913D01*
X97843368Y-77103914D01*
X97952861Y-77267782D01*
X98092218Y-77407139D01*
X98256086Y-77516632D01*
X98438165Y-77592051D01*
X98631459Y-77630500D01*
X98631461Y-77630500D01*
X98828539Y-77630500D01*
X98828541Y-77630500D01*
X99021835Y-77592051D01*
X99203914Y-77516632D01*
X99367782Y-77407139D01*
X99507139Y-77267782D01*
X99616632Y-77103914D01*
X99692051Y-76921835D01*
X99730500Y-76728541D01*
X99730500Y-76531460D01*
X100269500Y-76531460D01*
X100269500Y-76728539D01*
X100307947Y-76921829D01*
X100307950Y-76921839D01*
X100383367Y-77103913D01*
X100383368Y-77103914D01*
X100492861Y-77267782D01*
X100632218Y-77407139D01*
X100796086Y-77516632D01*
X100978165Y-77592051D01*
X101171459Y-77630500D01*
X101171461Y-77630500D01*
X101368539Y-77630500D01*
X101368541Y-77630500D01*
X101561835Y-77592051D01*
X101743914Y-77516632D01*
X101907782Y-77407139D01*
X102047139Y-77267782D01*
X102156632Y-77103914D01*
X102232051Y-76921835D01*
X102270500Y-76728541D01*
X102270500Y-76531460D01*
X102809500Y-76531460D01*
X102809500Y-76728539D01*
X102847947Y-76921829D01*
X102847950Y-76921839D01*
X102923367Y-77103913D01*
X102923368Y-77103914D01*
X103032861Y-77267782D01*
X103172218Y-77407139D01*
X103336086Y-77516632D01*
X103518165Y-77592051D01*
X103711459Y-77630500D01*
X103711461Y-77630500D01*
X103908539Y-77630500D01*
X103908541Y-77630500D01*
X104101835Y-77592051D01*
X104283914Y-77516632D01*
X104447782Y-77407139D01*
X104587139Y-77267782D01*
X104696632Y-77103914D01*
X104772051Y-76921835D01*
X104810500Y-76728541D01*
X104810500Y-76531460D01*
X105349500Y-76531460D01*
X105349500Y-76728539D01*
X105387947Y-76921829D01*
X105387950Y-76921839D01*
X105463367Y-77103913D01*
X105463368Y-77103914D01*
X105572861Y-77267782D01*
X105712218Y-77407139D01*
X105876086Y-77516632D01*
X106058165Y-77592051D01*
X106251459Y-77630500D01*
X106251461Y-77630500D01*
X106448539Y-77630500D01*
X106448541Y-77630500D01*
X106641835Y-77592051D01*
X106823914Y-77516632D01*
X106987782Y-77407139D01*
X107127139Y-77267782D01*
X107236632Y-77103914D01*
X107312051Y-76921835D01*
X107350500Y-76728541D01*
X107350500Y-76531460D01*
X107889500Y-76531460D01*
X107889500Y-76728539D01*
X107927947Y-76921829D01*
X107927950Y-76921839D01*
X108003367Y-77103913D01*
X108003368Y-77103914D01*
X108112861Y-77267782D01*
X108252218Y-77407139D01*
X108416086Y-77516632D01*
X108598165Y-77592051D01*
X108791459Y-77630500D01*
X108791461Y-77630500D01*
X108988539Y-77630500D01*
X108988541Y-77630500D01*
X109181835Y-77592051D01*
X109363914Y-77516632D01*
X109527782Y-77407139D01*
X109667139Y-77267782D01*
X109776632Y-77103914D01*
X109852051Y-76921835D01*
X109890500Y-76728541D01*
X109890500Y-76531460D01*
X110429500Y-76531460D01*
X110429500Y-76728539D01*
X110467947Y-76921829D01*
X110467950Y-76921839D01*
X110543367Y-77103913D01*
X110543368Y-77103914D01*
X110652861Y-77267782D01*
X110792218Y-77407139D01*
X110956086Y-77516632D01*
X111138165Y-77592051D01*
X111331459Y-77630500D01*
X111331461Y-77630500D01*
X111528539Y-77630500D01*
X111528541Y-77630500D01*
X111721835Y-77592051D01*
X111903914Y-77516632D01*
X112067782Y-77407139D01*
X112207139Y-77267782D01*
X112316632Y-77103914D01*
X112392051Y-76921835D01*
X112430500Y-76728541D01*
X112430500Y-76531460D01*
X112969500Y-76531460D01*
X112969500Y-76728539D01*
X113007947Y-76921829D01*
X113007950Y-76921839D01*
X113083367Y-77103913D01*
X113083368Y-77103914D01*
X113192861Y-77267782D01*
X113332218Y-77407139D01*
X113496086Y-77516632D01*
X113678165Y-77592051D01*
X113871459Y-77630500D01*
X113871461Y-77630500D01*
X114068539Y-77630500D01*
X114068541Y-77630500D01*
X114261835Y-77592051D01*
X114443914Y-77516632D01*
X114607782Y-77407139D01*
X114747139Y-77267782D01*
X114856632Y-77103914D01*
X114932051Y-76921835D01*
X114970500Y-76728541D01*
X114970500Y-76531460D01*
X115509500Y-76531460D01*
X115509500Y-76728539D01*
X115547947Y-76921829D01*
X115547950Y-76921839D01*
X115623367Y-77103913D01*
X115623368Y-77103914D01*
X115732861Y-77267782D01*
X115872218Y-77407139D01*
X116036086Y-77516632D01*
X116218165Y-77592051D01*
X116411459Y-77630500D01*
X116411461Y-77630500D01*
X116608539Y-77630500D01*
X116608541Y-77630500D01*
X116801835Y-77592051D01*
X116983914Y-77516632D01*
X117147782Y-77407139D01*
X117287139Y-77267782D01*
X117396632Y-77103914D01*
X117472051Y-76921835D01*
X117510500Y-76728541D01*
X117510500Y-76531460D01*
X118049500Y-76531460D01*
X118049500Y-76728539D01*
X118087947Y-76921829D01*
X118087950Y-76921839D01*
X118163367Y-77103913D01*
X118163368Y-77103914D01*
X118272861Y-77267782D01*
X118412218Y-77407139D01*
X118576086Y-77516632D01*
X118758165Y-77592051D01*
X118951459Y-77630500D01*
X118951461Y-77630500D01*
X119148539Y-77630500D01*
X119148541Y-77630500D01*
X119341835Y-77592051D01*
X119523914Y-77516632D01*
X119687782Y-77407139D01*
X119827139Y-77267782D01*
X119936632Y-77103914D01*
X120012051Y-76921835D01*
X120050500Y-76728541D01*
X120050500Y-76531460D01*
X120589500Y-76531460D01*
X120589500Y-76728539D01*
X120627947Y-76921829D01*
X120627950Y-76921839D01*
X120703367Y-77103913D01*
X120703368Y-77103914D01*
X120812861Y-77267782D01*
X120952218Y-77407139D01*
X121116086Y-77516632D01*
X121298165Y-77592051D01*
X121491459Y-77630500D01*
X121491461Y-77630500D01*
X121688539Y-77630500D01*
X121688541Y-77630500D01*
X121881835Y-77592051D01*
X122063914Y-77516632D01*
X122227782Y-77407139D01*
X122367139Y-77267782D01*
X122476632Y-77103914D01*
X122552051Y-76921835D01*
X122590500Y-76728541D01*
X122590500Y-76531459D01*
X122552051Y-76338165D01*
X122476632Y-76156086D01*
X122367139Y-75992218D01*
X122227782Y-75852861D01*
X122063914Y-75743368D01*
X122063915Y-75743368D01*
X122063913Y-75743367D01*
X121881839Y-75667950D01*
X121881829Y-75667947D01*
X121752388Y-75642200D01*
X121688541Y-75629500D01*
X121491459Y-75629500D01*
X121436662Y-75640399D01*
X121298170Y-75667947D01*
X121298160Y-75667950D01*
X121116086Y-75743367D01*
X120952218Y-75852860D01*
X120952217Y-75852862D01*
X120812862Y-75992217D01*
X120812860Y-75992218D01*
X120703367Y-76156086D01*
X120627950Y-76338160D01*
X120627947Y-76338170D01*
X120589500Y-76531460D01*
X120050500Y-76531460D01*
X120050500Y-76531459D01*
X120012051Y-76338165D01*
X119936632Y-76156086D01*
X119827139Y-75992218D01*
X119687782Y-75852861D01*
X119523914Y-75743368D01*
X119523915Y-75743368D01*
X119523913Y-75743367D01*
X119341839Y-75667950D01*
X119341829Y-75667947D01*
X119212388Y-75642200D01*
X119148541Y-75629500D01*
X118951459Y-75629500D01*
X118896662Y-75640399D01*
X118758170Y-75667947D01*
X118758160Y-75667950D01*
X118576086Y-75743367D01*
X118412218Y-75852860D01*
X118412217Y-75852862D01*
X118272862Y-75992217D01*
X118272860Y-75992218D01*
X118163367Y-76156086D01*
X118087950Y-76338160D01*
X118087947Y-76338170D01*
X118049500Y-76531460D01*
X117510500Y-76531460D01*
X117510500Y-76531459D01*
X117472051Y-76338165D01*
X117396632Y-76156086D01*
X117287139Y-75992218D01*
X117147782Y-75852861D01*
X116983914Y-75743368D01*
X116983915Y-75743368D01*
X116983913Y-75743367D01*
X116801839Y-75667950D01*
X116801829Y-75667947D01*
X116672388Y-75642200D01*
X116608541Y-75629500D01*
X116411459Y-75629500D01*
X116356662Y-75640399D01*
X116218170Y-75667947D01*
X116218160Y-75667950D01*
X116036086Y-75743367D01*
X115872218Y-75852860D01*
X115872217Y-75852862D01*
X115732862Y-75992217D01*
X115732860Y-75992218D01*
X115623367Y-76156086D01*
X115547950Y-76338160D01*
X115547947Y-76338170D01*
X115509500Y-76531460D01*
X114970500Y-76531460D01*
X114970500Y-76531459D01*
X114932051Y-76338165D01*
X114856632Y-76156086D01*
X114747139Y-75992218D01*
X114607782Y-75852861D01*
X114443914Y-75743368D01*
X114443915Y-75743368D01*
X114443913Y-75743367D01*
X114261839Y-75667950D01*
X114261829Y-75667947D01*
X114132388Y-75642200D01*
X114068541Y-75629500D01*
X113871459Y-75629500D01*
X113816662Y-75640399D01*
X113678170Y-75667947D01*
X113678160Y-75667950D01*
X113496086Y-75743367D01*
X113332218Y-75852860D01*
X113332217Y-75852862D01*
X113192862Y-75992217D01*
X113192860Y-75992218D01*
X113083367Y-76156086D01*
X113007950Y-76338160D01*
X113007947Y-76338170D01*
X112969500Y-76531460D01*
X112430500Y-76531460D01*
X112430500Y-76531459D01*
X112392051Y-76338165D01*
X112316632Y-76156086D01*
X112207139Y-75992218D01*
X112067782Y-75852861D01*
X111903914Y-75743368D01*
X111903915Y-75743368D01*
X111903913Y-75743367D01*
X111721839Y-75667950D01*
X111721829Y-75667947D01*
X111592388Y-75642200D01*
X111528541Y-75629500D01*
X111331459Y-75629500D01*
X111276662Y-75640399D01*
X111138170Y-75667947D01*
X111138160Y-75667950D01*
X110956086Y-75743367D01*
X110792218Y-75852860D01*
X110792217Y-75852862D01*
X110652862Y-75992217D01*
X110652860Y-75992218D01*
X110543367Y-76156086D01*
X110467950Y-76338160D01*
X110467947Y-76338170D01*
X110429500Y-76531460D01*
X109890500Y-76531460D01*
X109890500Y-76531459D01*
X109852051Y-76338165D01*
X109776632Y-76156086D01*
X109667139Y-75992218D01*
X109527782Y-75852861D01*
X109363914Y-75743368D01*
X109363915Y-75743368D01*
X109363913Y-75743367D01*
X109181839Y-75667950D01*
X109181829Y-75667947D01*
X109052388Y-75642200D01*
X108988541Y-75629500D01*
X108791459Y-75629500D01*
X108736662Y-75640399D01*
X108598170Y-75667947D01*
X108598160Y-75667950D01*
X108416086Y-75743367D01*
X108252218Y-75852860D01*
X108252217Y-75852862D01*
X108112862Y-75992217D01*
X108112860Y-75992218D01*
X108003367Y-76156086D01*
X107927950Y-76338160D01*
X107927947Y-76338170D01*
X107889500Y-76531460D01*
X107350500Y-76531460D01*
X107350500Y-76531459D01*
X107312051Y-76338165D01*
X107236632Y-76156086D01*
X107127139Y-75992218D01*
X106987782Y-75852861D01*
X106823914Y-75743368D01*
X106823915Y-75743368D01*
X106823913Y-75743367D01*
X106641839Y-75667950D01*
X106641829Y-75667947D01*
X106512388Y-75642200D01*
X106448541Y-75629500D01*
X106251459Y-75629500D01*
X106196662Y-75640399D01*
X106058170Y-75667947D01*
X106058160Y-75667950D01*
X105876086Y-75743367D01*
X105712218Y-75852860D01*
X105712217Y-75852862D01*
X105572862Y-75992217D01*
X105572860Y-75992218D01*
X105463367Y-76156086D01*
X105387950Y-76338160D01*
X105387947Y-76338170D01*
X105349500Y-76531460D01*
X104810500Y-76531460D01*
X104810500Y-76531459D01*
X104772051Y-76338165D01*
X104696632Y-76156086D01*
X104587139Y-75992218D01*
X104447782Y-75852861D01*
X104283914Y-75743368D01*
X104283915Y-75743368D01*
X104283913Y-75743367D01*
X104101839Y-75667950D01*
X104101829Y-75667947D01*
X103972388Y-75642200D01*
X103908541Y-75629500D01*
X103711459Y-75629500D01*
X103656662Y-75640399D01*
X103518170Y-75667947D01*
X103518160Y-75667950D01*
X103336086Y-75743367D01*
X103172218Y-75852860D01*
X103172217Y-75852862D01*
X103032862Y-75992217D01*
X103032860Y-75992218D01*
X102923367Y-76156086D01*
X102847950Y-76338160D01*
X102847947Y-76338170D01*
X102809500Y-76531460D01*
X102270500Y-76531460D01*
X102270500Y-76531459D01*
X102232051Y-76338165D01*
X102156632Y-76156086D01*
X102047139Y-75992218D01*
X101907782Y-75852861D01*
X101743914Y-75743368D01*
X101743915Y-75743368D01*
X101743913Y-75743367D01*
X101561839Y-75667950D01*
X101561829Y-75667947D01*
X101432388Y-75642200D01*
X101368541Y-75629500D01*
X101171459Y-75629500D01*
X101116662Y-75640399D01*
X100978170Y-75667947D01*
X100978160Y-75667950D01*
X100796086Y-75743367D01*
X100632218Y-75852860D01*
X100632217Y-75852862D01*
X100492862Y-75992217D01*
X100492860Y-75992218D01*
X100383367Y-76156086D01*
X100307950Y-76338160D01*
X100307947Y-76338170D01*
X100269500Y-76531460D01*
X99730500Y-76531460D01*
X99730500Y-76531459D01*
X99692051Y-76338165D01*
X99616632Y-76156086D01*
X99507139Y-75992218D01*
X99367782Y-75852861D01*
X99203914Y-75743368D01*
X99203915Y-75743368D01*
X99203913Y-75743367D01*
X99021839Y-75667950D01*
X99021829Y-75667947D01*
X98892388Y-75642200D01*
X98828541Y-75629500D01*
X98631459Y-75629500D01*
X98576662Y-75640399D01*
X98438170Y-75667947D01*
X98438160Y-75667950D01*
X98256086Y-75743367D01*
X98092218Y-75852860D01*
X98092217Y-75852862D01*
X97952862Y-75992217D01*
X97952860Y-75992218D01*
X97843367Y-76156086D01*
X97767950Y-76338160D01*
X97767947Y-76338170D01*
X97729500Y-76531460D01*
X97190500Y-76531460D01*
X97190500Y-76531459D01*
X97152051Y-76338165D01*
X97076632Y-76156086D01*
X96967139Y-75992218D01*
X96827782Y-75852861D01*
X96663914Y-75743368D01*
X96663915Y-75743368D01*
X96663913Y-75743367D01*
X96481839Y-75667950D01*
X96481829Y-75667947D01*
X96352388Y-75642200D01*
X96288541Y-75629500D01*
X96091459Y-75629500D01*
X96036662Y-75640399D01*
X95898170Y-75667947D01*
X95898160Y-75667950D01*
X95716086Y-75743367D01*
X95552218Y-75852860D01*
X95552217Y-75852862D01*
X95412862Y-75992217D01*
X95412860Y-75992218D01*
X95303367Y-76156086D01*
X95227950Y-76338160D01*
X95227947Y-76338170D01*
X95189500Y-76531460D01*
X94650500Y-76531460D01*
X94650500Y-76531459D01*
X94612051Y-76338165D01*
X94536632Y-76156086D01*
X94427139Y-75992218D01*
X94287782Y-75852861D01*
X94123914Y-75743368D01*
X94123915Y-75743368D01*
X94123913Y-75743367D01*
X93941839Y-75667950D01*
X93941829Y-75667947D01*
X93812388Y-75642200D01*
X93748541Y-75629500D01*
X93551459Y-75629500D01*
X93496662Y-75640399D01*
X93358170Y-75667947D01*
X93358160Y-75667950D01*
X93176086Y-75743367D01*
X93012218Y-75852860D01*
X93012217Y-75852862D01*
X92872862Y-75992217D01*
X92872860Y-75992218D01*
X92763367Y-76156086D01*
X92687950Y-76338160D01*
X92687947Y-76338170D01*
X92649500Y-76531460D01*
X92110500Y-76531460D01*
X92110500Y-76531459D01*
X92072051Y-76338165D01*
X91996632Y-76156086D01*
X91887139Y-75992218D01*
X91747782Y-75852861D01*
X91583914Y-75743368D01*
X91583915Y-75743368D01*
X91583913Y-75743367D01*
X91401839Y-75667950D01*
X91401829Y-75667947D01*
X91272388Y-75642200D01*
X91208541Y-75629500D01*
X91011459Y-75629500D01*
X90956662Y-75640399D01*
X90818170Y-75667947D01*
X90818160Y-75667950D01*
X90636086Y-75743367D01*
X90472218Y-75852860D01*
X90472217Y-75852862D01*
X90332862Y-75992217D01*
X90332860Y-75992218D01*
X90223367Y-76156086D01*
X90147950Y-76338160D01*
X90147947Y-76338170D01*
X90109500Y-76531460D01*
X89570500Y-76531460D01*
X89570500Y-76531459D01*
X89532051Y-76338165D01*
X89456632Y-76156086D01*
X89347139Y-75992218D01*
X89207782Y-75852861D01*
X89043914Y-75743368D01*
X89043915Y-75743368D01*
X89043913Y-75743367D01*
X88861839Y-75667950D01*
X88861829Y-75667947D01*
X88732388Y-75642200D01*
X88668541Y-75629500D01*
X88471459Y-75629500D01*
X88416662Y-75640399D01*
X88278170Y-75667947D01*
X88278160Y-75667950D01*
X88096086Y-75743367D01*
X87932218Y-75852860D01*
X87932217Y-75852862D01*
X87792862Y-75992217D01*
X87792860Y-75992218D01*
X87683367Y-76156086D01*
X87607950Y-76338160D01*
X87607947Y-76338170D01*
X87569500Y-76531460D01*
X87030500Y-76531460D01*
X87030500Y-76531459D01*
X86992051Y-76338165D01*
X86916632Y-76156086D01*
X86807139Y-75992218D01*
X86667782Y-75852861D01*
X86503914Y-75743368D01*
X86503915Y-75743368D01*
X86503913Y-75743367D01*
X86321839Y-75667950D01*
X86321829Y-75667947D01*
X86192388Y-75642200D01*
X86128541Y-75629500D01*
X85931459Y-75629500D01*
X85876662Y-75640399D01*
X85738170Y-75667947D01*
X85738160Y-75667950D01*
X85556086Y-75743367D01*
X85392218Y-75852860D01*
X85392217Y-75852862D01*
X85252862Y-75992217D01*
X85252860Y-75992218D01*
X85143367Y-76156086D01*
X85067950Y-76338160D01*
X85067947Y-76338170D01*
X85029500Y-76531460D01*
X84490500Y-76531460D01*
X84490500Y-76531459D01*
X84452051Y-76338165D01*
X84376632Y-76156086D01*
X84267139Y-75992218D01*
X84127782Y-75852861D01*
X83963914Y-75743368D01*
X83963915Y-75743368D01*
X83963913Y-75743367D01*
X83781839Y-75667950D01*
X83781829Y-75667947D01*
X83652388Y-75642200D01*
X83588541Y-75629500D01*
X83391459Y-75629500D01*
X83336662Y-75640399D01*
X83198170Y-75667947D01*
X83198160Y-75667950D01*
X83016086Y-75743367D01*
X82852218Y-75852860D01*
X82852217Y-75852862D01*
X82712862Y-75992217D01*
X82712860Y-75992218D01*
X82603367Y-76156086D01*
X82527950Y-76338160D01*
X82527947Y-76338170D01*
X82489500Y-76531460D01*
X81950500Y-76531460D01*
X81950500Y-76531459D01*
X81912051Y-76338165D01*
X81836632Y-76156086D01*
X81727139Y-75992218D01*
X81587782Y-75852861D01*
X81423914Y-75743368D01*
X81423915Y-75743368D01*
X81423913Y-75743367D01*
X81241839Y-75667950D01*
X81241829Y-75667947D01*
X81112388Y-75642200D01*
X81048541Y-75629500D01*
X80851459Y-75629500D01*
X80796662Y-75640399D01*
X80658170Y-75667947D01*
X80658160Y-75667950D01*
X80476086Y-75743367D01*
X80312218Y-75852860D01*
X80312217Y-75852862D01*
X80172862Y-75992217D01*
X80172860Y-75992218D01*
X80063367Y-76156086D01*
X79987950Y-76338160D01*
X79987947Y-76338170D01*
X79949500Y-76531460D01*
X79410500Y-76531460D01*
X79410500Y-76531459D01*
X79372051Y-76338165D01*
X79296632Y-76156086D01*
X79187139Y-75992218D01*
X79047782Y-75852861D01*
X78883914Y-75743368D01*
X78883915Y-75743368D01*
X78883913Y-75743367D01*
X78701839Y-75667950D01*
X78701829Y-75667947D01*
X78572388Y-75642200D01*
X78508541Y-75629500D01*
X78311459Y-75629500D01*
X78256662Y-75640399D01*
X78118170Y-75667947D01*
X78118160Y-75667950D01*
X77936086Y-75743367D01*
X77772218Y-75852860D01*
X77772217Y-75852862D01*
X77632862Y-75992217D01*
X77632860Y-75992218D01*
X77523367Y-76156086D01*
X77447950Y-76338160D01*
X77447947Y-76338170D01*
X77409500Y-76531460D01*
X76870500Y-76531460D01*
X76870500Y-76531459D01*
X76832051Y-76338165D01*
X76756632Y-76156086D01*
X76647139Y-75992218D01*
X76507782Y-75852861D01*
X76343914Y-75743368D01*
X76343915Y-75743368D01*
X76343913Y-75743367D01*
X76161839Y-75667950D01*
X76161829Y-75667947D01*
X76032388Y-75642200D01*
X75968541Y-75629500D01*
X75771459Y-75629500D01*
X75716662Y-75640399D01*
X75578170Y-75667947D01*
X75578160Y-75667950D01*
X75396086Y-75743367D01*
X75232218Y-75852860D01*
X75232217Y-75852862D01*
X75092862Y-75992217D01*
X75092860Y-75992218D01*
X74983367Y-76156086D01*
X74907950Y-76338160D01*
X74907947Y-76338170D01*
X74869500Y-76531460D01*
X68200000Y-76531460D01*
X68200000Y-73661310D01*
X113829500Y-73661310D01*
X113829500Y-73838689D01*
X113864104Y-74012660D01*
X113864107Y-74012670D01*
X113931985Y-74176544D01*
X113931986Y-74176546D01*
X113931987Y-74176547D01*
X114030536Y-74324035D01*
X114155965Y-74449464D01*
X114303453Y-74548013D01*
X114303454Y-74548013D01*
X114303455Y-74548014D01*
X114373367Y-74576972D01*
X114467334Y-74615894D01*
X114641309Y-74650500D01*
X114641311Y-74650500D01*
X114818689Y-74650500D01*
X114818691Y-74650500D01*
X114992666Y-74615894D01*
X115156547Y-74548013D01*
X115304035Y-74449464D01*
X115429464Y-74324035D01*
X115528013Y-74176547D01*
X115595894Y-74012666D01*
X115630500Y-73838691D01*
X115630500Y-73661310D01*
X116369500Y-73661310D01*
X116369500Y-73838689D01*
X116404104Y-74012660D01*
X116404107Y-74012670D01*
X116471985Y-74176544D01*
X116471986Y-74176546D01*
X116471987Y-74176547D01*
X116570536Y-74324035D01*
X116695965Y-74449464D01*
X116843453Y-74548013D01*
X116843454Y-74548013D01*
X116843455Y-74548014D01*
X116913367Y-74576972D01*
X117007334Y-74615894D01*
X117181309Y-74650500D01*
X117181311Y-74650500D01*
X117358689Y-74650500D01*
X117358691Y-74650500D01*
X117532666Y-74615894D01*
X117613033Y-74582605D01*
X117669667Y-74582605D01*
X117693675Y-74598646D01*
X118038640Y-74943611D01*
X118094589Y-74999560D01*
X118163111Y-75039121D01*
X118163112Y-75039121D01*
X118163114Y-75039122D01*
X118201324Y-75049360D01*
X118239535Y-75059599D01*
X118239536Y-75059600D01*
X118239538Y-75059600D01*
X122300464Y-75059600D01*
X122300464Y-75059599D01*
X122376889Y-75039121D01*
X122445411Y-74999560D01*
X122501360Y-74943611D01*
X122846324Y-74598645D01*
X122898649Y-74576972D01*
X122926964Y-74582604D01*
X123007334Y-74615894D01*
X123181309Y-74650500D01*
X123181311Y-74650500D01*
X123358689Y-74650500D01*
X123358691Y-74650500D01*
X123532666Y-74615894D01*
X123696547Y-74548013D01*
X123844035Y-74449464D01*
X123969464Y-74324035D01*
X124068013Y-74176547D01*
X124135894Y-74012666D01*
X124170500Y-73838691D01*
X124170500Y-73661309D01*
X124135894Y-73487334D01*
X124068013Y-73323453D01*
X123969464Y-73175965D01*
X123844035Y-73050536D01*
X123696547Y-72951987D01*
X123696546Y-72951986D01*
X123696544Y-72951985D01*
X123532670Y-72884107D01*
X123532660Y-72884104D01*
X123416156Y-72860930D01*
X123358691Y-72849500D01*
X123181309Y-72849500D01*
X123131989Y-72859310D01*
X123007339Y-72884104D01*
X123007329Y-72884107D01*
X122843455Y-72951985D01*
X122695968Y-73050533D01*
X122570533Y-73175968D01*
X122471985Y-73323455D01*
X122404107Y-73487329D01*
X122404104Y-73487339D01*
X122369500Y-73661310D01*
X122369500Y-73838689D01*
X122404104Y-74012660D01*
X122404105Y-74012662D01*
X122404106Y-74012666D01*
X122404108Y-74012670D01*
X122437394Y-74093032D01*
X122437393Y-74149669D01*
X122421352Y-74173675D01*
X122158103Y-74436926D01*
X122105777Y-74458600D01*
X121473550Y-74458600D01*
X121421224Y-74436926D01*
X121399550Y-74384600D01*
X121421223Y-74332275D01*
X121429464Y-74324035D01*
X121528013Y-74176547D01*
X121595894Y-74012666D01*
X121630500Y-73838691D01*
X121630500Y-73661309D01*
X121595894Y-73487334D01*
X121528013Y-73323453D01*
X121429464Y-73175965D01*
X121304035Y-73050536D01*
X121156547Y-72951987D01*
X121156546Y-72951986D01*
X121156544Y-72951985D01*
X120992670Y-72884107D01*
X120992660Y-72884104D01*
X120876156Y-72860930D01*
X120818691Y-72849500D01*
X120641309Y-72849500D01*
X120591989Y-72859310D01*
X120467339Y-72884104D01*
X120467329Y-72884107D01*
X120303455Y-72951985D01*
X120155968Y-73050533D01*
X120030533Y-73175968D01*
X119931985Y-73323455D01*
X119864107Y-73487329D01*
X119864104Y-73487339D01*
X119829500Y-73661310D01*
X119829500Y-73838689D01*
X119864104Y-74012660D01*
X119864107Y-74012670D01*
X119931985Y-74176544D01*
X119931986Y-74176546D01*
X119931987Y-74176547D01*
X120030536Y-74324035D01*
X120038776Y-74332275D01*
X120060450Y-74384600D01*
X120038776Y-74436926D01*
X119986450Y-74458600D01*
X118434223Y-74458600D01*
X118381897Y-74436926D01*
X118118646Y-74173675D01*
X118096972Y-74121349D01*
X118102603Y-74093036D01*
X118135894Y-74012666D01*
X118170500Y-73838691D01*
X118170500Y-73661309D01*
X118135894Y-73487334D01*
X118068013Y-73323453D01*
X117969464Y-73175965D01*
X117844035Y-73050536D01*
X117696547Y-72951987D01*
X117696546Y-72951986D01*
X117696544Y-72951985D01*
X117532670Y-72884107D01*
X117532660Y-72884104D01*
X117416156Y-72860930D01*
X117358691Y-72849500D01*
X117181309Y-72849500D01*
X117131989Y-72859310D01*
X117007339Y-72884104D01*
X117007329Y-72884107D01*
X116843455Y-72951985D01*
X116695968Y-73050533D01*
X116570533Y-73175968D01*
X116471985Y-73323455D01*
X116404107Y-73487329D01*
X116404104Y-73487339D01*
X116369500Y-73661310D01*
X115630500Y-73661310D01*
X115630500Y-73661309D01*
X115595894Y-73487334D01*
X115528013Y-73323453D01*
X115429464Y-73175965D01*
X115304035Y-73050536D01*
X115156547Y-72951987D01*
X115156546Y-72951986D01*
X115156544Y-72951985D01*
X114992670Y-72884107D01*
X114992660Y-72884104D01*
X114876156Y-72860930D01*
X114818691Y-72849500D01*
X114641309Y-72849500D01*
X114591989Y-72859310D01*
X114467339Y-72884104D01*
X114467329Y-72884107D01*
X114303455Y-72951985D01*
X114155968Y-73050533D01*
X114030533Y-73175968D01*
X113931985Y-73323455D01*
X113864107Y-73487329D01*
X113864104Y-73487339D01*
X113829500Y-73661310D01*
X68200000Y-73661310D01*
X68200000Y-69711460D01*
X105729500Y-69711460D01*
X105729500Y-69908539D01*
X105767947Y-70101829D01*
X105767950Y-70101839D01*
X105843367Y-70283913D01*
X105843368Y-70283914D01*
X105952861Y-70447782D01*
X106092218Y-70587139D01*
X106256086Y-70696632D01*
X106438165Y-70772051D01*
X106631459Y-70810500D01*
X106631461Y-70810500D01*
X106828539Y-70810500D01*
X106828541Y-70810500D01*
X107021835Y-70772051D01*
X107203914Y-70696632D01*
X107367782Y-70587139D01*
X107507139Y-70447782D01*
X107616632Y-70283914D01*
X107669540Y-70156181D01*
X107709588Y-70116133D01*
X107737907Y-70110500D01*
X108262093Y-70110500D01*
X108314419Y-70132174D01*
X108330460Y-70156182D01*
X108383365Y-70283909D01*
X108383367Y-70283912D01*
X108383368Y-70283914D01*
X108492861Y-70447782D01*
X108632218Y-70587139D01*
X108796086Y-70696632D01*
X108978165Y-70772051D01*
X109171459Y-70810500D01*
X109171461Y-70810500D01*
X109368539Y-70810500D01*
X109368541Y-70810500D01*
X109561835Y-70772051D01*
X109743914Y-70696632D01*
X109907782Y-70587139D01*
X110047139Y-70447782D01*
X110156632Y-70283914D01*
X110232051Y-70101835D01*
X110270500Y-69908541D01*
X110270500Y-69711460D01*
X110809500Y-69711460D01*
X110809500Y-69908539D01*
X110847947Y-70101829D01*
X110847950Y-70101839D01*
X110923367Y-70283913D01*
X110923368Y-70283914D01*
X111032861Y-70447782D01*
X111172218Y-70587139D01*
X111336086Y-70696632D01*
X111518165Y-70772051D01*
X111711459Y-70810500D01*
X111711461Y-70810500D01*
X111908539Y-70810500D01*
X111908541Y-70810500D01*
X112101835Y-70772051D01*
X112283914Y-70696632D01*
X112447782Y-70587139D01*
X112587139Y-70447782D01*
X112696632Y-70283914D01*
X112772051Y-70101835D01*
X112810500Y-69908541D01*
X112810500Y-69711459D01*
X112772051Y-69518165D01*
X112696632Y-69336086D01*
X112587139Y-69172218D01*
X112447782Y-69032861D01*
X112283914Y-68923368D01*
X112283915Y-68923368D01*
X112283913Y-68923367D01*
X112101839Y-68847950D01*
X112101829Y-68847947D01*
X111972388Y-68822200D01*
X111908541Y-68809500D01*
X111711459Y-68809500D01*
X111656662Y-68820399D01*
X111518170Y-68847947D01*
X111518160Y-68847950D01*
X111336086Y-68923367D01*
X111172218Y-69032860D01*
X111172217Y-69032862D01*
X111032862Y-69172217D01*
X111032860Y-69172218D01*
X110923367Y-69336086D01*
X110847950Y-69518160D01*
X110847947Y-69518170D01*
X110809500Y-69711460D01*
X110270500Y-69711460D01*
X110270500Y-69711459D01*
X110232051Y-69518165D01*
X110156632Y-69336086D01*
X110047139Y-69172218D01*
X109907782Y-69032861D01*
X109743914Y-68923368D01*
X109743915Y-68923368D01*
X109743913Y-68923367D01*
X109561839Y-68847950D01*
X109561829Y-68847947D01*
X109432388Y-68822200D01*
X109368541Y-68809500D01*
X109171459Y-68809500D01*
X109116662Y-68820399D01*
X108978170Y-68847947D01*
X108978160Y-68847950D01*
X108796086Y-68923367D01*
X108632218Y-69032860D01*
X108632217Y-69032862D01*
X108492862Y-69172217D01*
X108492860Y-69172218D01*
X108383365Y-69336090D01*
X108330460Y-69463818D01*
X108290412Y-69503867D01*
X108262093Y-69509500D01*
X107737907Y-69509500D01*
X107685581Y-69487826D01*
X107669540Y-69463818D01*
X107616634Y-69336090D01*
X107616633Y-69336088D01*
X107616632Y-69336086D01*
X107507139Y-69172218D01*
X107367782Y-69032861D01*
X107203914Y-68923368D01*
X107203915Y-68923368D01*
X107203913Y-68923367D01*
X107021839Y-68847950D01*
X107021829Y-68847947D01*
X106892388Y-68822200D01*
X106828541Y-68809500D01*
X106631459Y-68809500D01*
X106576662Y-68820399D01*
X106438170Y-68847947D01*
X106438160Y-68847950D01*
X106256086Y-68923367D01*
X106092218Y-69032860D01*
X106092217Y-69032862D01*
X105952862Y-69172217D01*
X105952860Y-69172218D01*
X105843367Y-69336086D01*
X105767950Y-69518160D01*
X105767947Y-69518170D01*
X105729500Y-69711460D01*
X68200000Y-69711460D01*
X68200000Y-64277935D01*
X96686900Y-64277935D01*
X96686900Y-66296964D01*
X96707377Y-66373385D01*
X96707379Y-66373390D01*
X96746940Y-66441911D01*
X97151352Y-66846323D01*
X97173026Y-66898649D01*
X97167394Y-66926966D01*
X97134105Y-67007337D01*
X97134104Y-67007339D01*
X97099500Y-67181310D01*
X97099500Y-67358689D01*
X97134104Y-67532660D01*
X97134107Y-67532670D01*
X97201985Y-67696544D01*
X97201986Y-67696546D01*
X97201987Y-67696547D01*
X97300536Y-67844035D01*
X97425965Y-67969464D01*
X97573453Y-68068013D01*
X97573454Y-68068013D01*
X97573455Y-68068014D01*
X97643367Y-68096972D01*
X97737334Y-68135894D01*
X97911309Y-68170500D01*
X97911311Y-68170500D01*
X98088689Y-68170500D01*
X98088691Y-68170500D01*
X98262666Y-68135894D01*
X98426547Y-68068013D01*
X98574035Y-67969464D01*
X98699464Y-67844035D01*
X98798013Y-67696547D01*
X98865894Y-67532666D01*
X98900500Y-67358691D01*
X98900500Y-67181309D01*
X98865894Y-67007334D01*
X98798013Y-66843453D01*
X98699464Y-66695965D01*
X98574035Y-66570536D01*
X98426547Y-66471987D01*
X98426546Y-66471986D01*
X98426544Y-66471985D01*
X98262670Y-66404107D01*
X98262660Y-66404104D01*
X98146156Y-66380930D01*
X98088691Y-66369500D01*
X97911309Y-66369500D01*
X97861989Y-66379310D01*
X97737339Y-66404104D01*
X97737337Y-66404105D01*
X97737335Y-66404105D01*
X97737334Y-66404106D01*
X97737332Y-66404107D01*
X97656966Y-66437394D01*
X97600329Y-66437392D01*
X97576323Y-66421352D01*
X97309574Y-66154603D01*
X97287900Y-66102277D01*
X97287900Y-65470050D01*
X97309574Y-65417724D01*
X97361900Y-65396050D01*
X97414224Y-65417723D01*
X97425965Y-65429464D01*
X97573453Y-65528013D01*
X97737334Y-65595894D01*
X97911309Y-65630500D01*
X97911311Y-65630500D01*
X98088689Y-65630500D01*
X98088691Y-65630500D01*
X98262666Y-65595894D01*
X98426547Y-65528013D01*
X98574035Y-65429464D01*
X98699464Y-65304035D01*
X98798013Y-65156547D01*
X98831301Y-65076181D01*
X98871349Y-65036133D01*
X98899668Y-65030500D01*
X108345564Y-65030500D01*
X108345564Y-65030499D01*
X108421989Y-65010021D01*
X108490511Y-64970460D01*
X108546460Y-64914511D01*
X110655974Y-62804997D01*
X110708300Y-62783323D01*
X110760626Y-62804997D01*
X110787826Y-62832197D01*
X110809500Y-62884523D01*
X110809500Y-63009751D01*
X110809643Y-63011203D01*
X110810000Y-63018459D01*
X110810000Y-63190000D01*
X110981536Y-63190000D01*
X110981812Y-63190001D01*
X110987856Y-63190023D01*
X110990252Y-63190500D01*
X111115485Y-63190500D01*
X111115753Y-63190501D01*
X111141657Y-63201344D01*
X111167803Y-63212174D01*
X115466089Y-67510460D01*
X115534612Y-67550022D01*
X115611038Y-67570500D01*
X115690162Y-67570500D01*
X117100332Y-67570500D01*
X117152658Y-67592174D01*
X117168699Y-67616182D01*
X117201985Y-67696544D01*
X117201986Y-67696546D01*
X117201987Y-67696547D01*
X117300536Y-67844035D01*
X117425965Y-67969464D01*
X117573453Y-68068013D01*
X117573454Y-68068013D01*
X117573455Y-68068014D01*
X117643367Y-68096972D01*
X117737334Y-68135894D01*
X117911309Y-68170500D01*
X117911311Y-68170500D01*
X118088689Y-68170500D01*
X118088691Y-68170500D01*
X118262666Y-68135894D01*
X118343033Y-68102605D01*
X118399667Y-68102605D01*
X118423675Y-68118646D01*
X118882689Y-68577660D01*
X118951212Y-68617222D01*
X119027638Y-68637700D01*
X119027640Y-68637700D01*
X126972364Y-68637700D01*
X126972364Y-68637699D01*
X127048789Y-68617221D01*
X127117311Y-68577660D01*
X127173260Y-68521711D01*
X127576324Y-68118645D01*
X127628649Y-68096972D01*
X127656964Y-68102604D01*
X127737334Y-68135894D01*
X127911309Y-68170500D01*
X127911311Y-68170500D01*
X128088689Y-68170500D01*
X128088691Y-68170500D01*
X128262666Y-68135894D01*
X128426547Y-68068013D01*
X128574035Y-67969464D01*
X128699464Y-67844035D01*
X128798013Y-67696547D01*
X128865894Y-67532666D01*
X128900500Y-67358691D01*
X128900500Y-67181309D01*
X128865894Y-67007334D01*
X128798013Y-66843453D01*
X128699464Y-66695965D01*
X128574035Y-66570536D01*
X128426547Y-66471987D01*
X128426546Y-66471986D01*
X128426544Y-66471985D01*
X128262670Y-66404107D01*
X128262660Y-66404104D01*
X128146156Y-66380930D01*
X128088691Y-66369500D01*
X127911309Y-66369500D01*
X127861989Y-66379310D01*
X127737339Y-66404104D01*
X127737329Y-66404107D01*
X127573455Y-66471985D01*
X127425968Y-66570533D01*
X127300533Y-66695968D01*
X127201985Y-66843455D01*
X127134107Y-67007329D01*
X127134104Y-67007339D01*
X127099500Y-67181310D01*
X127099500Y-67358689D01*
X127134104Y-67532660D01*
X127134105Y-67532662D01*
X127134106Y-67532666D01*
X127167393Y-67613030D01*
X127167394Y-67613032D01*
X127167393Y-67669669D01*
X127151352Y-67693675D01*
X126830003Y-68015026D01*
X126777677Y-68036700D01*
X123685450Y-68036700D01*
X123633124Y-68015026D01*
X123611450Y-67962700D01*
X123633123Y-67910375D01*
X123699464Y-67844035D01*
X123798013Y-67696547D01*
X123865894Y-67532666D01*
X123900500Y-67358691D01*
X123900500Y-67181309D01*
X123865894Y-67007334D01*
X123798013Y-66843453D01*
X123699464Y-66695965D01*
X123574035Y-66570536D01*
X123426547Y-66471987D01*
X123426546Y-66471986D01*
X123426544Y-66471985D01*
X123262670Y-66404107D01*
X123262660Y-66404104D01*
X123146156Y-66380930D01*
X123088691Y-66369500D01*
X122911309Y-66369500D01*
X122861989Y-66379310D01*
X122737339Y-66404104D01*
X122737337Y-66404105D01*
X122737335Y-66404105D01*
X122737334Y-66404106D01*
X122737332Y-66404107D01*
X122656966Y-66437394D01*
X122600329Y-66437392D01*
X122576323Y-66421352D01*
X120644511Y-64489540D01*
X120575990Y-64449979D01*
X120575985Y-64449977D01*
X120499564Y-64429500D01*
X120499562Y-64429500D01*
X118899668Y-64429500D01*
X118847342Y-64407826D01*
X118831301Y-64383818D01*
X118798014Y-64303455D01*
X118699466Y-64155968D01*
X118699464Y-64155965D01*
X118574035Y-64030536D01*
X118426547Y-63931987D01*
X118426546Y-63931986D01*
X118426544Y-63931985D01*
X118262670Y-63864107D01*
X118262660Y-63864104D01*
X118146156Y-63840930D01*
X118088691Y-63829500D01*
X117911309Y-63829500D01*
X117861989Y-63839310D01*
X117737339Y-63864104D01*
X117737329Y-63864107D01*
X117573455Y-63931985D01*
X117425968Y-64030533D01*
X117300533Y-64155968D01*
X117201985Y-64303455D01*
X117134107Y-64467329D01*
X117134104Y-64467339D01*
X117099500Y-64641310D01*
X117099500Y-64818689D01*
X117134104Y-64992660D01*
X117134107Y-64992670D01*
X117201985Y-65156544D01*
X117201986Y-65156546D01*
X117201987Y-65156547D01*
X117300536Y-65304035D01*
X117425965Y-65429464D01*
X117573453Y-65528013D01*
X117737334Y-65595894D01*
X117911309Y-65630500D01*
X117911311Y-65630500D01*
X118088689Y-65630500D01*
X118088691Y-65630500D01*
X118262666Y-65595894D01*
X118426547Y-65528013D01*
X118574035Y-65429464D01*
X118699464Y-65304035D01*
X118798013Y-65156547D01*
X118831301Y-65076181D01*
X118871349Y-65036133D01*
X118899668Y-65030500D01*
X120304877Y-65030500D01*
X120357203Y-65052174D01*
X122151352Y-66846323D01*
X122173026Y-66898649D01*
X122167394Y-66926966D01*
X122134105Y-67007337D01*
X122134104Y-67007339D01*
X122099500Y-67181310D01*
X122099500Y-67358689D01*
X122134104Y-67532660D01*
X122134107Y-67532670D01*
X122201985Y-67696544D01*
X122201986Y-67696546D01*
X122201987Y-67696547D01*
X122300536Y-67844035D01*
X122366876Y-67910375D01*
X122388550Y-67962700D01*
X122366876Y-68015026D01*
X122314550Y-68036700D01*
X119222323Y-68036700D01*
X119169997Y-68015026D01*
X118848646Y-67693675D01*
X118826972Y-67641349D01*
X118832603Y-67613036D01*
X118865894Y-67532666D01*
X118900500Y-67358691D01*
X118900500Y-67181309D01*
X118865894Y-67007334D01*
X118798013Y-66843453D01*
X118699464Y-66695965D01*
X118574035Y-66570536D01*
X118426547Y-66471987D01*
X118426546Y-66471986D01*
X118426544Y-66471985D01*
X118262670Y-66404107D01*
X118262660Y-66404104D01*
X118146156Y-66380930D01*
X118088691Y-66369500D01*
X117911309Y-66369500D01*
X117861989Y-66379310D01*
X117737339Y-66404104D01*
X117737329Y-66404107D01*
X117573455Y-66471985D01*
X117425968Y-66570533D01*
X117300533Y-66695968D01*
X117201985Y-66843455D01*
X117168699Y-66923818D01*
X117128651Y-66963867D01*
X117100332Y-66969500D01*
X115805723Y-66969500D01*
X115753397Y-66947826D01*
X112122397Y-63316826D01*
X112100723Y-63264500D01*
X112122397Y-63212174D01*
X112174723Y-63190500D01*
X112629754Y-63190500D01*
X112631217Y-63190356D01*
X112638464Y-63190000D01*
X112810000Y-63190000D01*
X112810000Y-63018459D01*
X112810357Y-63011203D01*
X112810500Y-63009751D01*
X112810500Y-61462800D01*
X112832174Y-61410474D01*
X112884500Y-61388800D01*
X119203177Y-61388800D01*
X119255503Y-61410474D01*
X122151352Y-64306323D01*
X122173026Y-64358649D01*
X122167394Y-64386966D01*
X122141295Y-64449979D01*
X122134105Y-64467337D01*
X122134104Y-64467339D01*
X122099500Y-64641310D01*
X122099500Y-64818689D01*
X122134104Y-64992660D01*
X122134107Y-64992670D01*
X122201985Y-65156544D01*
X122201986Y-65156546D01*
X122201987Y-65156547D01*
X122300536Y-65304035D01*
X122425965Y-65429464D01*
X122573453Y-65528013D01*
X122737334Y-65595894D01*
X122911309Y-65630500D01*
X122911311Y-65630500D01*
X123088689Y-65630500D01*
X123088691Y-65630500D01*
X123262666Y-65595894D01*
X123426547Y-65528013D01*
X123574035Y-65429464D01*
X123699464Y-65304035D01*
X123798013Y-65156547D01*
X123865894Y-64992666D01*
X123900500Y-64818691D01*
X123900500Y-64641309D01*
X123865894Y-64467334D01*
X123798013Y-64303453D01*
X123699464Y-64155965D01*
X123574035Y-64030536D01*
X123426547Y-63931987D01*
X123426546Y-63931986D01*
X123426544Y-63931985D01*
X123262670Y-63864107D01*
X123262660Y-63864104D01*
X123146156Y-63840930D01*
X123088691Y-63829500D01*
X122911309Y-63829500D01*
X122861989Y-63839310D01*
X122737339Y-63864104D01*
X122737337Y-63864105D01*
X122737335Y-63864105D01*
X122737334Y-63864106D01*
X122705693Y-63877211D01*
X122656966Y-63897394D01*
X122600329Y-63897392D01*
X122576323Y-63881352D01*
X119542811Y-60847840D01*
X119474290Y-60808279D01*
X119474285Y-60808277D01*
X119397864Y-60787800D01*
X119397862Y-60787800D01*
X110332138Y-60787800D01*
X110332136Y-60787800D01*
X110255714Y-60808277D01*
X110255709Y-60808279D01*
X110187188Y-60847840D01*
X109770211Y-61264816D01*
X109717885Y-61286490D01*
X109689567Y-61280857D01*
X109561839Y-61227950D01*
X109561829Y-61227947D01*
X109432388Y-61202200D01*
X109368541Y-61189500D01*
X109171459Y-61189500D01*
X109116662Y-61200399D01*
X108978170Y-61227947D01*
X108978160Y-61227950D01*
X108796086Y-61303367D01*
X108632218Y-61412860D01*
X108632217Y-61412862D01*
X108492862Y-61552217D01*
X108492860Y-61552218D01*
X108383367Y-61716086D01*
X108307950Y-61898160D01*
X108307947Y-61898170D01*
X108269500Y-62091460D01*
X108269500Y-62288539D01*
X108307947Y-62481829D01*
X108307950Y-62481839D01*
X108360857Y-62609567D01*
X108360857Y-62666204D01*
X108344816Y-62690211D01*
X107676703Y-63358326D01*
X107624377Y-63380000D01*
X97584836Y-63380000D01*
X97508414Y-63400477D01*
X97508409Y-63400479D01*
X97439888Y-63440040D01*
X96746940Y-64132988D01*
X96707379Y-64201509D01*
X96707377Y-64201514D01*
X96686900Y-64277935D01*
X68200000Y-64277935D01*
X68200000Y-60274000D01*
X68221674Y-60221674D01*
X68274000Y-60200000D01*
X131726000Y-60200000D01*
X131778326Y-60221674D01*
G37*
%TD.AperFunction*%
%TA.AperFunction,Conductor*%
G36*
X102921502Y-111152738D02*
G01*
X102928937Y-111151260D01*
X102946883Y-111163251D01*
X102966826Y-111171512D01*
X102976026Y-111182722D01*
X103032861Y-111267782D01*
X103172218Y-111407139D01*
X103336086Y-111516632D01*
X103518165Y-111592051D01*
X103711459Y-111630500D01*
X103711461Y-111630500D01*
X103908539Y-111630500D01*
X103908541Y-111630500D01*
X104101835Y-111592051D01*
X104229568Y-111539142D01*
X104286204Y-111539142D01*
X104310212Y-111555183D01*
X104926126Y-112171097D01*
X104947800Y-112223423D01*
X104947800Y-125710379D01*
X104926126Y-125762705D01*
X104873800Y-125784379D01*
X104821474Y-125762705D01*
X104801222Y-125724816D01*
X104781158Y-125623951D01*
X104772051Y-125578165D01*
X104696632Y-125396086D01*
X104587139Y-125232218D01*
X104447782Y-125092861D01*
X104283914Y-124983368D01*
X104283915Y-124983368D01*
X104283913Y-124983367D01*
X104101839Y-124907950D01*
X104101829Y-124907947D01*
X103972388Y-124882200D01*
X103908541Y-124869500D01*
X103711459Y-124869500D01*
X103656662Y-124880399D01*
X103518170Y-124907947D01*
X103518160Y-124907950D01*
X103336086Y-124983367D01*
X103172218Y-125092860D01*
X103172217Y-125092862D01*
X103032862Y-125232217D01*
X103032860Y-125232218D01*
X102923367Y-125396086D01*
X102847950Y-125578160D01*
X102847947Y-125578170D01*
X102834041Y-125648082D01*
X102809500Y-125771459D01*
X102809500Y-125968541D01*
X102813472Y-125988508D01*
X102847947Y-126161829D01*
X102847950Y-126161839D01*
X102923367Y-126343913D01*
X103024656Y-126495502D01*
X103032861Y-126507782D01*
X103172218Y-126647139D01*
X103336086Y-126756632D01*
X103518165Y-126832051D01*
X103711459Y-126870500D01*
X103711461Y-126870500D01*
X103908539Y-126870500D01*
X103908541Y-126870500D01*
X104101835Y-126832051D01*
X104283914Y-126756632D01*
X104447782Y-126647139D01*
X104587139Y-126507782D01*
X104696632Y-126343914D01*
X104772051Y-126161835D01*
X104801222Y-126015182D01*
X104832688Y-125968091D01*
X104888237Y-125957042D01*
X104935329Y-125988508D01*
X104947800Y-126029620D01*
X104947800Y-131626164D01*
X104968277Y-131702585D01*
X104968279Y-131702590D01*
X104985339Y-131732138D01*
X105007840Y-131771111D01*
X105899903Y-132663174D01*
X105921577Y-132715500D01*
X105899903Y-132767826D01*
X105847577Y-132789500D01*
X105330246Y-132789500D01*
X105328783Y-132789644D01*
X105321536Y-132790000D01*
X105150000Y-132790000D01*
X105132326Y-132807674D01*
X105080000Y-132829348D01*
X105027674Y-132807674D01*
X105010000Y-132790000D01*
X104838464Y-132790000D01*
X104831217Y-132789644D01*
X104829754Y-132789500D01*
X104829748Y-132789500D01*
X104184500Y-132789500D01*
X104132174Y-132767826D01*
X104110500Y-132715500D01*
X104110500Y-132648736D01*
X104110499Y-132648735D01*
X104109912Y-132646546D01*
X104098716Y-132604760D01*
X104090022Y-132572314D01*
X104090020Y-132572309D01*
X104078346Y-132552089D01*
X104050460Y-132503789D01*
X103994511Y-132447840D01*
X98536457Y-126989786D01*
X98514783Y-126937460D01*
X98536457Y-126885134D01*
X98588783Y-126863460D01*
X98603210Y-126864880D01*
X98631459Y-126870500D01*
X98631462Y-126870500D01*
X98828539Y-126870500D01*
X98828541Y-126870500D01*
X99021835Y-126832051D01*
X99149568Y-126779142D01*
X99206204Y-126779142D01*
X99230212Y-126795183D01*
X101807640Y-129372611D01*
X101863589Y-129428560D01*
X101932111Y-129468121D01*
X101932112Y-129468121D01*
X101932114Y-129468122D01*
X101970324Y-129478360D01*
X102008535Y-129488599D01*
X102008536Y-129488600D01*
X102008538Y-129488600D01*
X102341234Y-129488600D01*
X102393560Y-129510274D01*
X102471886Y-129588600D01*
X102586014Y-129654492D01*
X102713305Y-129688599D01*
X102713306Y-129688600D01*
X102713308Y-129688600D01*
X102845094Y-129688600D01*
X102845094Y-129688599D01*
X102972386Y-129654492D01*
X103086514Y-129588600D01*
X103179700Y-129495414D01*
X103245592Y-129381286D01*
X103279699Y-129253994D01*
X103279700Y-129253994D01*
X103279700Y-129122206D01*
X103279699Y-129122205D01*
X103245593Y-128994918D01*
X103245592Y-128994914D01*
X103179700Y-128880786D01*
X103086514Y-128787600D01*
X102972390Y-128721710D01*
X102972381Y-128721706D01*
X102845094Y-128687600D01*
X102845092Y-128687600D01*
X102713308Y-128687600D01*
X102713306Y-128687600D01*
X102586018Y-128721706D01*
X102586009Y-128721710D01*
X102471885Y-128787600D01*
X102393560Y-128865926D01*
X102341234Y-128887600D01*
X102203223Y-128887600D01*
X102150897Y-128865926D01*
X99655183Y-126370212D01*
X99633509Y-126317886D01*
X99639142Y-126289567D01*
X99658721Y-126242300D01*
X99692051Y-126161835D01*
X99730500Y-125968541D01*
X99730500Y-125771459D01*
X99692051Y-125578165D01*
X99616632Y-125396086D01*
X99507139Y-125232218D01*
X99367782Y-125092861D01*
X99203914Y-124983368D01*
X99203915Y-124983368D01*
X99203913Y-124983367D01*
X99021839Y-124907950D01*
X99021829Y-124907947D01*
X98892388Y-124882200D01*
X98828541Y-124869500D01*
X98631459Y-124869500D01*
X98576662Y-124880399D01*
X98438170Y-124907947D01*
X98438160Y-124907950D01*
X98256086Y-124983367D01*
X98092218Y-125092860D01*
X98092217Y-125092862D01*
X97952862Y-125232217D01*
X97952860Y-125232218D01*
X97843367Y-125396086D01*
X97767950Y-125578160D01*
X97767947Y-125578170D01*
X97754041Y-125648082D01*
X97729500Y-125771459D01*
X97729500Y-125968541D01*
X97733472Y-125988508D01*
X97767947Y-126161829D01*
X97767950Y-126161839D01*
X97843367Y-126343913D01*
X97952860Y-126507781D01*
X98092218Y-126647139D01*
X98185355Y-126709371D01*
X98216821Y-126756463D01*
X98205772Y-126812012D01*
X98158680Y-126843478D01*
X98144243Y-126844900D01*
X96775757Y-126844900D01*
X96723431Y-126823226D01*
X96701757Y-126770900D01*
X96723431Y-126718574D01*
X96734645Y-126709371D01*
X96777683Y-126680614D01*
X96827782Y-126647139D01*
X96967139Y-126507782D01*
X97076632Y-126343914D01*
X97152051Y-126161835D01*
X97190500Y-125968541D01*
X97190500Y-125771459D01*
X97152051Y-125578165D01*
X97076632Y-125396086D01*
X96967139Y-125232218D01*
X96827782Y-125092861D01*
X96663914Y-124983368D01*
X96663915Y-124983368D01*
X96663913Y-124983367D01*
X96481839Y-124907950D01*
X96481829Y-124907947D01*
X96352388Y-124882200D01*
X96288541Y-124869500D01*
X96091459Y-124869500D01*
X96036662Y-124880399D01*
X95898170Y-124907947D01*
X95898160Y-124907950D01*
X95716086Y-124983367D01*
X95552218Y-125092860D01*
X95552217Y-125092862D01*
X95412862Y-125232217D01*
X95412860Y-125232218D01*
X95303367Y-125396086D01*
X95227950Y-125578160D01*
X95227947Y-125578170D01*
X95214041Y-125648082D01*
X95189500Y-125771459D01*
X95189500Y-125968541D01*
X95193472Y-125988508D01*
X95227947Y-126161829D01*
X95227950Y-126161839D01*
X95303367Y-126343913D01*
X95412860Y-126507781D01*
X95552218Y-126647139D01*
X95645355Y-126709371D01*
X95676821Y-126756463D01*
X95665772Y-126812012D01*
X95618680Y-126843478D01*
X95604243Y-126844900D01*
X94235757Y-126844900D01*
X94183431Y-126823226D01*
X94161757Y-126770900D01*
X94183431Y-126718574D01*
X94194645Y-126709371D01*
X94237683Y-126680614D01*
X94287782Y-126647139D01*
X94427139Y-126507782D01*
X94536632Y-126343914D01*
X94612051Y-126161835D01*
X94650500Y-125968541D01*
X94650500Y-125771459D01*
X94612051Y-125578165D01*
X94609342Y-125571625D01*
X94559142Y-125450430D01*
X94559142Y-125393793D01*
X94575180Y-125369789D01*
X102780460Y-117164511D01*
X102820022Y-117095988D01*
X102840500Y-117019562D01*
X102840500Y-116940438D01*
X102840500Y-111223838D01*
X102843400Y-111216835D01*
X102841922Y-111209401D01*
X102853913Y-111191454D01*
X102862174Y-111171512D01*
X102869176Y-111168611D01*
X102873388Y-111162309D01*
X102894558Y-111158098D01*
X102914500Y-111149838D01*
X102921502Y-111152738D01*
G37*
%TD.AperFunction*%
%TA.AperFunction,Conductor*%
G36*
X87120653Y-105229774D02*
G01*
X87142327Y-105282100D01*
X87120653Y-105334426D01*
X87032862Y-105422217D01*
X87032860Y-105422218D01*
X86923367Y-105586086D01*
X86847950Y-105768160D01*
X86847947Y-105768170D01*
X86809500Y-105961460D01*
X86809500Y-106158539D01*
X86847947Y-106351829D01*
X86847950Y-106351839D01*
X86923367Y-106533913D01*
X86989165Y-106632386D01*
X87032861Y-106697782D01*
X87172218Y-106837139D01*
X87336086Y-106946632D01*
X87518165Y-107022051D01*
X87711459Y-107060500D01*
X87711461Y-107060500D01*
X87908539Y-107060500D01*
X87908541Y-107060500D01*
X88101835Y-107022051D01*
X88283914Y-106946632D01*
X88447782Y-106837139D01*
X88500174Y-106784747D01*
X88552500Y-106763073D01*
X88604826Y-106784747D01*
X88626500Y-106837073D01*
X88626500Y-107577876D01*
X88604826Y-107630202D01*
X86530211Y-109704816D01*
X86477885Y-109726490D01*
X86449567Y-109720857D01*
X86321839Y-109667950D01*
X86321829Y-109667947D01*
X86188476Y-109641422D01*
X86128541Y-109629500D01*
X85931459Y-109629500D01*
X85878673Y-109640000D01*
X85738170Y-109667947D01*
X85738160Y-109667950D01*
X85556086Y-109743367D01*
X85392218Y-109852860D01*
X85392217Y-109852862D01*
X85252862Y-109992217D01*
X85252860Y-109992218D01*
X85143367Y-110156086D01*
X85067950Y-110338160D01*
X85067947Y-110338170D01*
X85029500Y-110531460D01*
X85029500Y-110728539D01*
X85067947Y-110921829D01*
X85067950Y-110921839D01*
X85120857Y-111049567D01*
X85120857Y-111106204D01*
X85104816Y-111130211D01*
X84720989Y-111514040D01*
X84665040Y-111569988D01*
X84625479Y-111638509D01*
X84625477Y-111638514D01*
X84605000Y-111714935D01*
X84605000Y-125595756D01*
X84583326Y-125648082D01*
X84531000Y-125669756D01*
X84478674Y-125648082D01*
X84458422Y-125610193D01*
X84452052Y-125578170D01*
X84452051Y-125578169D01*
X84452051Y-125578165D01*
X84376632Y-125396086D01*
X84267139Y-125232218D01*
X84127782Y-125092861D01*
X83963914Y-124983368D01*
X83963915Y-124983368D01*
X83963913Y-124983367D01*
X83781839Y-124907950D01*
X83781829Y-124907947D01*
X83652388Y-124882200D01*
X83588541Y-124869500D01*
X83391459Y-124869500D01*
X83336662Y-124880399D01*
X83198170Y-124907947D01*
X83198160Y-124907950D01*
X83070431Y-124960857D01*
X83013794Y-124960857D01*
X82989787Y-124944816D01*
X80968774Y-122923803D01*
X80947100Y-122871477D01*
X80947100Y-108034936D01*
X80947099Y-108034935D01*
X80926622Y-107958514D01*
X80926620Y-107958509D01*
X80887059Y-107889988D01*
X80828072Y-107831001D01*
X80827257Y-107830286D01*
X80183797Y-107186826D01*
X80162123Y-107134500D01*
X80183797Y-107082174D01*
X80236123Y-107060500D01*
X80288539Y-107060500D01*
X80288541Y-107060500D01*
X80481835Y-107022051D01*
X80663914Y-106946632D01*
X80827782Y-106837139D01*
X80967139Y-106697782D01*
X81076632Y-106533914D01*
X81152051Y-106351835D01*
X81181222Y-106205182D01*
X81212688Y-106158091D01*
X81268237Y-106147042D01*
X81315329Y-106178508D01*
X81327800Y-106219620D01*
X81327800Y-106555864D01*
X81348278Y-106632288D01*
X81370108Y-106670100D01*
X81370109Y-106670100D01*
X81387840Y-106700811D01*
X82033240Y-107346211D01*
X82089189Y-107402160D01*
X82157711Y-107441721D01*
X82157712Y-107441721D01*
X82157714Y-107441722D01*
X82195924Y-107451960D01*
X82234135Y-107462199D01*
X82234136Y-107462200D01*
X82234138Y-107462200D01*
X83225964Y-107462200D01*
X83225964Y-107462199D01*
X83302389Y-107441721D01*
X83370911Y-107402160D01*
X83426860Y-107346211D01*
X84072160Y-106700911D01*
X84072218Y-106700811D01*
X84111721Y-106632389D01*
X84132199Y-106555964D01*
X84132200Y-106555964D01*
X84132200Y-106219620D01*
X84153874Y-106167294D01*
X84206200Y-106145620D01*
X84258526Y-106167294D01*
X84278778Y-106205183D01*
X84307947Y-106351829D01*
X84307950Y-106351839D01*
X84383367Y-106533913D01*
X84449165Y-106632386D01*
X84492861Y-106697782D01*
X84632218Y-106837139D01*
X84796086Y-106946632D01*
X84978165Y-107022051D01*
X85171459Y-107060500D01*
X85171461Y-107060500D01*
X85368539Y-107060500D01*
X85368541Y-107060500D01*
X85561835Y-107022051D01*
X85743914Y-106946632D01*
X85907782Y-106837139D01*
X86047139Y-106697782D01*
X86156632Y-106533914D01*
X86232051Y-106351835D01*
X86270500Y-106158541D01*
X86270500Y-105961459D01*
X86232051Y-105768165D01*
X86156632Y-105586086D01*
X86047139Y-105422218D01*
X85959347Y-105334426D01*
X85937673Y-105282100D01*
X85959347Y-105229774D01*
X86011673Y-105208100D01*
X87068327Y-105208100D01*
X87120653Y-105229774D01*
G37*
%TD.AperFunction*%
%TA.AperFunction,Conductor*%
G36*
X122465403Y-90630374D02*
G01*
X123204816Y-91369787D01*
X123226490Y-91422113D01*
X123220857Y-91450431D01*
X123167950Y-91578160D01*
X123167947Y-91578170D01*
X123129500Y-91771460D01*
X123129500Y-91968539D01*
X123167947Y-92161829D01*
X123167950Y-92161839D01*
X123243367Y-92343913D01*
X123332226Y-92476899D01*
X123352861Y-92507782D01*
X123492218Y-92647139D01*
X123656086Y-92756632D01*
X123838165Y-92832051D01*
X124031459Y-92870500D01*
X124031461Y-92870500D01*
X124228539Y-92870500D01*
X124228541Y-92870500D01*
X124421835Y-92832051D01*
X124549568Y-92779142D01*
X124606204Y-92779142D01*
X124630212Y-92795183D01*
X126209526Y-94374497D01*
X126231200Y-94426823D01*
X126231200Y-104803176D01*
X126209526Y-104855502D01*
X125930211Y-105134816D01*
X125877885Y-105156490D01*
X125849567Y-105150857D01*
X125721839Y-105097950D01*
X125721829Y-105097947D01*
X125589296Y-105071585D01*
X125528541Y-105059500D01*
X125331459Y-105059500D01*
X125289034Y-105067939D01*
X125138170Y-105097947D01*
X125138160Y-105097950D01*
X124956086Y-105173367D01*
X124792218Y-105282860D01*
X124792217Y-105282862D01*
X124652862Y-105422217D01*
X124652860Y-105422218D01*
X124543367Y-105586086D01*
X124467950Y-105768160D01*
X124467947Y-105768170D01*
X124429500Y-105961460D01*
X124429500Y-106158539D01*
X124467947Y-106351829D01*
X124467950Y-106351839D01*
X124520857Y-106479567D01*
X124520857Y-106536204D01*
X124504816Y-106560211D01*
X120757203Y-110307826D01*
X120704877Y-110329500D01*
X117584500Y-110329500D01*
X117532174Y-110307826D01*
X117510500Y-110255500D01*
X117510500Y-109810246D01*
X117510356Y-109808783D01*
X117510000Y-109801536D01*
X117510000Y-109630000D01*
X117383623Y-109630000D01*
X117331297Y-109608326D01*
X117309623Y-109556000D01*
X117331297Y-109503674D01*
X117957760Y-108877211D01*
X119849787Y-106985182D01*
X119902112Y-106963509D01*
X119930430Y-106969142D01*
X120023132Y-107007540D01*
X120058165Y-107022051D01*
X120251459Y-107060500D01*
X120251461Y-107060500D01*
X120448539Y-107060500D01*
X120448541Y-107060500D01*
X120641835Y-107022051D01*
X120823914Y-106946632D01*
X120987782Y-106837139D01*
X121127139Y-106697782D01*
X121236632Y-106533914D01*
X121312051Y-106351835D01*
X121350500Y-106158541D01*
X121350500Y-105961459D01*
X121312051Y-105768165D01*
X121236632Y-105586086D01*
X121127139Y-105422218D01*
X120987782Y-105282861D01*
X120986644Y-105282100D01*
X120823913Y-105173367D01*
X120641839Y-105097950D01*
X120641829Y-105097947D01*
X120509296Y-105071585D01*
X120448541Y-105059500D01*
X120251459Y-105059500D01*
X120209034Y-105067939D01*
X120058170Y-105097947D01*
X120058160Y-105097950D01*
X119876086Y-105173367D01*
X119712218Y-105282860D01*
X119712217Y-105282862D01*
X119572862Y-105422217D01*
X119572860Y-105422218D01*
X119463367Y-105586086D01*
X119387950Y-105768160D01*
X119387947Y-105768170D01*
X119349500Y-105961460D01*
X119349500Y-106158539D01*
X119387947Y-106351829D01*
X119387950Y-106351839D01*
X119440857Y-106479567D01*
X119440857Y-106536204D01*
X119424816Y-106560211D01*
X116967703Y-109017326D01*
X116915377Y-109039000D01*
X107814623Y-109039000D01*
X107762297Y-109017326D01*
X107740623Y-108965000D01*
X107762297Y-108912674D01*
X107797760Y-108877211D01*
X108235571Y-108439400D01*
X109689787Y-106985182D01*
X109742112Y-106963509D01*
X109770430Y-106969142D01*
X109863132Y-107007540D01*
X109898165Y-107022051D01*
X110091459Y-107060500D01*
X110091461Y-107060500D01*
X110288539Y-107060500D01*
X110288541Y-107060500D01*
X110481835Y-107022051D01*
X110663914Y-106946632D01*
X110827782Y-106837139D01*
X110967139Y-106697782D01*
X111076632Y-106533914D01*
X111152051Y-106351835D01*
X111190500Y-106158541D01*
X111190500Y-105961460D01*
X111729500Y-105961460D01*
X111729500Y-106158539D01*
X111767947Y-106351829D01*
X111767950Y-106351839D01*
X111843367Y-106533913D01*
X111909165Y-106632386D01*
X111952861Y-106697782D01*
X112092218Y-106837139D01*
X112256086Y-106946632D01*
X112438165Y-107022051D01*
X112631459Y-107060500D01*
X112631461Y-107060500D01*
X112828539Y-107060500D01*
X112828541Y-107060500D01*
X113021835Y-107022051D01*
X113203914Y-106946632D01*
X113367782Y-106837139D01*
X113507139Y-106697782D01*
X113616632Y-106533914D01*
X113692051Y-106351835D01*
X113730500Y-106158541D01*
X113730500Y-105961460D01*
X114269500Y-105961460D01*
X114269500Y-106158539D01*
X114307947Y-106351829D01*
X114307950Y-106351839D01*
X114383367Y-106533913D01*
X114449165Y-106632386D01*
X114492861Y-106697782D01*
X114632218Y-106837139D01*
X114796086Y-106946632D01*
X114978165Y-107022051D01*
X115171459Y-107060500D01*
X115171461Y-107060500D01*
X115368539Y-107060500D01*
X115368541Y-107060500D01*
X115561835Y-107022051D01*
X115743914Y-106946632D01*
X115907782Y-106837139D01*
X116047139Y-106697782D01*
X116156632Y-106533914D01*
X116232051Y-106351835D01*
X116270500Y-106158541D01*
X116270500Y-105961459D01*
X116232051Y-105768165D01*
X116156632Y-105586086D01*
X116047139Y-105422218D01*
X115907782Y-105282861D01*
X115906644Y-105282100D01*
X115743913Y-105173367D01*
X115561839Y-105097950D01*
X115561829Y-105097947D01*
X115429296Y-105071585D01*
X115368541Y-105059500D01*
X115171459Y-105059500D01*
X115129034Y-105067939D01*
X114978170Y-105097947D01*
X114978160Y-105097950D01*
X114796086Y-105173367D01*
X114632218Y-105282860D01*
X114632217Y-105282862D01*
X114492862Y-105422217D01*
X114492860Y-105422218D01*
X114383367Y-105586086D01*
X114307950Y-105768160D01*
X114307947Y-105768170D01*
X114269500Y-105961460D01*
X113730500Y-105961460D01*
X113730500Y-105961459D01*
X113692051Y-105768165D01*
X113616632Y-105586086D01*
X113507139Y-105422218D01*
X113367782Y-105282861D01*
X113366644Y-105282100D01*
X113203913Y-105173367D01*
X113021839Y-105097950D01*
X113021829Y-105097947D01*
X112889296Y-105071585D01*
X112828541Y-105059500D01*
X112631459Y-105059500D01*
X112589034Y-105067939D01*
X112438170Y-105097947D01*
X112438160Y-105097950D01*
X112256086Y-105173367D01*
X112092218Y-105282860D01*
X112092217Y-105282862D01*
X111952862Y-105422217D01*
X111952860Y-105422218D01*
X111843367Y-105586086D01*
X111767950Y-105768160D01*
X111767947Y-105768170D01*
X111729500Y-105961460D01*
X111190500Y-105961460D01*
X111190500Y-105961459D01*
X111152051Y-105768165D01*
X111076632Y-105586086D01*
X110967139Y-105422218D01*
X110827782Y-105282861D01*
X110826644Y-105282100D01*
X110663913Y-105173367D01*
X110481839Y-105097950D01*
X110481829Y-105097947D01*
X110349296Y-105071585D01*
X110288541Y-105059500D01*
X110091459Y-105059500D01*
X110049034Y-105067939D01*
X109898170Y-105097947D01*
X109898160Y-105097950D01*
X109716086Y-105173367D01*
X109552218Y-105282860D01*
X109552217Y-105282862D01*
X109412862Y-105422217D01*
X109412860Y-105422218D01*
X109303367Y-105586086D01*
X109227950Y-105768160D01*
X109227947Y-105768170D01*
X109189500Y-105961460D01*
X109189500Y-106158539D01*
X109227947Y-106351829D01*
X109227950Y-106351839D01*
X109280857Y-106479567D01*
X109280857Y-106536204D01*
X109264816Y-106560211D01*
X107454503Y-108370526D01*
X107402177Y-108392200D01*
X105921423Y-108392200D01*
X105869097Y-108370526D01*
X105847423Y-108318200D01*
X105869097Y-108265874D01*
X106176462Y-107958509D01*
X107149787Y-106985182D01*
X107202112Y-106963509D01*
X107230430Y-106969142D01*
X107323132Y-107007540D01*
X107358165Y-107022051D01*
X107551459Y-107060500D01*
X107551461Y-107060500D01*
X107748539Y-107060500D01*
X107748541Y-107060500D01*
X107941835Y-107022051D01*
X108123914Y-106946632D01*
X108287782Y-106837139D01*
X108427139Y-106697782D01*
X108536632Y-106533914D01*
X108612051Y-106351835D01*
X108650500Y-106158541D01*
X108650500Y-105961459D01*
X108612051Y-105768165D01*
X108536632Y-105586086D01*
X108427139Y-105422218D01*
X108287782Y-105282861D01*
X108286644Y-105282100D01*
X108123913Y-105173367D01*
X107941839Y-105097950D01*
X107941829Y-105097947D01*
X107809296Y-105071585D01*
X107748541Y-105059500D01*
X107686922Y-105059500D01*
X107634596Y-105037826D01*
X107612922Y-104985500D01*
X107634596Y-104933174D01*
X109995597Y-102572174D01*
X110047923Y-102550500D01*
X116579564Y-102550500D01*
X116579564Y-102550499D01*
X116655989Y-102530021D01*
X116724511Y-102490460D01*
X116780460Y-102434511D01*
X119849787Y-99365182D01*
X119902112Y-99343509D01*
X119930430Y-99349142D01*
X120058160Y-99402049D01*
X120058165Y-99402051D01*
X120251459Y-99440500D01*
X120251461Y-99440500D01*
X120448539Y-99440500D01*
X120448541Y-99440500D01*
X120641835Y-99402051D01*
X120823914Y-99326632D01*
X120987782Y-99217139D01*
X121083174Y-99121747D01*
X121135500Y-99100073D01*
X121187826Y-99121747D01*
X121209500Y-99174073D01*
X121209500Y-102204876D01*
X121187826Y-102257202D01*
X118310211Y-105134816D01*
X118257885Y-105156490D01*
X118229567Y-105150857D01*
X118101839Y-105097950D01*
X118101829Y-105097947D01*
X117969296Y-105071585D01*
X117908541Y-105059500D01*
X117711459Y-105059500D01*
X117669034Y-105067939D01*
X117518170Y-105097947D01*
X117518160Y-105097950D01*
X117336086Y-105173367D01*
X117172218Y-105282860D01*
X117172217Y-105282862D01*
X117032862Y-105422217D01*
X117032860Y-105422218D01*
X116923367Y-105586086D01*
X116847950Y-105768160D01*
X116847947Y-105768170D01*
X116809500Y-105961460D01*
X116809500Y-106158539D01*
X116847947Y-106351829D01*
X116847950Y-106351839D01*
X116923367Y-106533913D01*
X116989165Y-106632386D01*
X117032861Y-106697782D01*
X117172218Y-106837139D01*
X117336086Y-106946632D01*
X117518165Y-107022051D01*
X117711459Y-107060500D01*
X117711461Y-107060500D01*
X117908539Y-107060500D01*
X117908541Y-107060500D01*
X118101835Y-107022051D01*
X118283914Y-106946632D01*
X118447782Y-106837139D01*
X118587139Y-106697782D01*
X118696632Y-106533914D01*
X118772051Y-106351835D01*
X118810500Y-106158541D01*
X118810500Y-105961459D01*
X118772051Y-105768165D01*
X118743418Y-105699038D01*
X118719142Y-105640430D01*
X118719142Y-105583793D01*
X118735180Y-105559789D01*
X121750460Y-102544511D01*
X121783802Y-102486760D01*
X121790021Y-102475989D01*
X121810499Y-102399564D01*
X121810500Y-102399564D01*
X121810500Y-98820311D01*
X121832174Y-98767985D01*
X121884500Y-98746311D01*
X121936826Y-98767985D01*
X121952867Y-98791993D01*
X122003367Y-98913913D01*
X122093501Y-99048807D01*
X122112861Y-99077782D01*
X122252218Y-99217139D01*
X122416086Y-99326632D01*
X122598165Y-99402051D01*
X122791459Y-99440500D01*
X122791461Y-99440500D01*
X122988539Y-99440500D01*
X122988541Y-99440500D01*
X123181835Y-99402051D01*
X123363914Y-99326632D01*
X123527782Y-99217139D01*
X123567574Y-99177347D01*
X123619900Y-99155673D01*
X123672226Y-99177347D01*
X123693900Y-99229673D01*
X123693900Y-104800476D01*
X123672226Y-104852802D01*
X123390211Y-105134816D01*
X123337885Y-105156490D01*
X123309567Y-105150857D01*
X123181839Y-105097950D01*
X123181829Y-105097947D01*
X123049296Y-105071585D01*
X122988541Y-105059500D01*
X122791459Y-105059500D01*
X122749034Y-105067939D01*
X122598170Y-105097947D01*
X122598160Y-105097950D01*
X122416086Y-105173367D01*
X122252218Y-105282860D01*
X122252217Y-105282862D01*
X122112862Y-105422217D01*
X122112860Y-105422218D01*
X122003367Y-105586086D01*
X121927950Y-105768160D01*
X121927947Y-105768170D01*
X121889500Y-105961460D01*
X121889500Y-106158539D01*
X121927947Y-106351829D01*
X121927950Y-106351839D01*
X122003367Y-106533913D01*
X122069165Y-106632386D01*
X122112861Y-106697782D01*
X122252218Y-106837139D01*
X122416086Y-106946632D01*
X122598165Y-107022051D01*
X122791459Y-107060500D01*
X122791461Y-107060500D01*
X122988539Y-107060500D01*
X122988541Y-107060500D01*
X123181835Y-107022051D01*
X123363914Y-106946632D01*
X123527782Y-106837139D01*
X123667139Y-106697782D01*
X123776632Y-106533914D01*
X123852051Y-106351835D01*
X123890500Y-106158541D01*
X123890500Y-105961459D01*
X123852051Y-105768165D01*
X123799142Y-105640431D01*
X123799142Y-105583794D01*
X123815183Y-105559787D01*
X123988582Y-105386388D01*
X124234860Y-105140111D01*
X124259202Y-105097949D01*
X124274421Y-105071589D01*
X124294899Y-104995164D01*
X124294900Y-104995164D01*
X124294900Y-97010236D01*
X124294899Y-97010235D01*
X124274422Y-96933814D01*
X124274420Y-96933809D01*
X124234859Y-96865288D01*
X121844011Y-94474440D01*
X121812437Y-94456211D01*
X121775490Y-94434879D01*
X121775485Y-94434877D01*
X121699064Y-94414400D01*
X121699062Y-94414400D01*
X120463023Y-94414400D01*
X120410697Y-94392726D01*
X119014797Y-92996826D01*
X118993123Y-92944500D01*
X119014797Y-92892174D01*
X119067123Y-92870500D01*
X119148539Y-92870500D01*
X119148541Y-92870500D01*
X119341835Y-92832051D01*
X119523914Y-92756632D01*
X119687782Y-92647139D01*
X119827139Y-92507782D01*
X119936632Y-92343914D01*
X120012051Y-92161835D01*
X120050500Y-91968541D01*
X120050500Y-91771460D01*
X120589500Y-91771460D01*
X120589500Y-91968539D01*
X120627947Y-92161829D01*
X120627950Y-92161839D01*
X120703367Y-92343913D01*
X120792226Y-92476899D01*
X120812861Y-92507782D01*
X120952218Y-92647139D01*
X121116086Y-92756632D01*
X121298165Y-92832051D01*
X121491459Y-92870500D01*
X121491461Y-92870500D01*
X121688539Y-92870500D01*
X121688541Y-92870500D01*
X121881835Y-92832051D01*
X122063914Y-92756632D01*
X122227782Y-92647139D01*
X122367139Y-92507782D01*
X122476632Y-92343914D01*
X122552051Y-92161835D01*
X122590500Y-91968541D01*
X122590500Y-91771459D01*
X122552051Y-91578165D01*
X122476632Y-91396086D01*
X122367139Y-91232218D01*
X122227782Y-91092861D01*
X122160904Y-91048174D01*
X122063913Y-90983367D01*
X121881839Y-90907950D01*
X121881829Y-90907947D01*
X121752388Y-90882200D01*
X121688541Y-90869500D01*
X121491459Y-90869500D01*
X121436662Y-90880399D01*
X121298170Y-90907947D01*
X121298160Y-90907950D01*
X121116086Y-90983367D01*
X120952218Y-91092860D01*
X120952217Y-91092862D01*
X120812862Y-91232217D01*
X120812860Y-91232218D01*
X120703367Y-91396086D01*
X120627950Y-91578160D01*
X120627947Y-91578170D01*
X120589500Y-91771460D01*
X120050500Y-91771460D01*
X120050500Y-91771459D01*
X120012051Y-91578165D01*
X119936632Y-91396086D01*
X119827139Y-91232218D01*
X119687782Y-91092861D01*
X119620904Y-91048174D01*
X119523913Y-90983367D01*
X119341839Y-90907950D01*
X119341829Y-90907947D01*
X119212388Y-90882200D01*
X119148541Y-90869500D01*
X118951459Y-90869500D01*
X118896662Y-90880399D01*
X118758170Y-90907947D01*
X118758160Y-90907950D01*
X118576086Y-90983367D01*
X118412218Y-91092860D01*
X118412217Y-91092862D01*
X118272862Y-91232217D01*
X118272860Y-91232218D01*
X118165794Y-91392454D01*
X118118701Y-91423920D01*
X118063153Y-91412871D01*
X118051939Y-91403668D01*
X117383297Y-90735026D01*
X117361623Y-90682700D01*
X117383297Y-90630374D01*
X117435623Y-90608700D01*
X122413077Y-90608700D01*
X122465403Y-90630374D01*
G37*
%TD.AperFunction*%
%TD*%
M02*
