%TF.GenerationSoftware,KiCad,Pcbnew,10.0.3*%
%TF.CreationDate,2026-06-14T23:32:41-04:00*%
%TF.ProjectId,index,696e6465-782e-46b6-9963-61645f706362,rev?*%
%TF.SameCoordinates,Original*%
%TF.FileFunction,Copper,L1,Top*%
%TF.FilePolarity,Positive*%
%FSLAX46Y46*%
G04 Gerber Fmt 4.6, Leading zero omitted, Abs format (unit mm)*
G04 Created by KiCad (PCBNEW 10.0.3) date 2026-06-14 23:32:41*
%MOMM*%
%LPD*%
G01*
G04 APERTURE LIST*
%TA.AperFunction,ComponentPad*%
%ADD10C,1.400000*%
%TD*%
%TA.AperFunction,ComponentPad*%
%ADD11R,1.600000X1.600000*%
%TD*%
%TA.AperFunction,ComponentPad*%
%ADD12C,1.600000*%
%TD*%
%TA.AperFunction,ComponentPad*%
%ADD13C,0.600000*%
%TD*%
%TA.AperFunction,SMDPad,CuDef*%
%ADD14R,2.000000X7.000000*%
%TD*%
%TA.AperFunction,ViaPad*%
%ADD15C,0.600000*%
%TD*%
%TA.AperFunction,Conductor*%
%ADD16C,0.200000*%
%TD*%
G04 APERTURE END LIST*
D10*
%TO.P,RAUDIOB,1*%
%TO.N,ANALOG_B*%
X120730000Y-73750000D03*
%TO.P,RAUDIOB,2*%
%TO.N,SUM_NODE*%
X123270000Y-73750000D03*
%TD*%
D11*
%TO.P,U5,1*%
%TO.N,OPAMP_OUT*%
X111810000Y-62190000D03*
D12*
%TO.P,U5,2*%
%TO.N,SUM_NODE*%
X109270000Y-62190000D03*
%TO.P,U5,3*%
%TO.N,GND*%
X106730000Y-62190000D03*
%TO.P,U5,4*%
X104190000Y-62190000D03*
%TO.P,U5,5*%
X104190000Y-69810000D03*
%TO.P,U5,6*%
%TO.N,U5_UNUSED_FB*%
X106730000Y-69810000D03*
%TO.P,U5,7*%
X109270000Y-69810000D03*
%TO.P,U5,8*%
%TO.N,VCC*%
X111810000Y-69810000D03*
%TD*%
D13*
%TO.P,gnd_via2,1*%
%TO.N,GND*%
X130000000Y-84250000D03*
%TD*%
D11*
%TO.P,U1,1*%
%TO.N,VCC*%
X116510000Y-110630000D03*
D12*
%TO.P,U1,2*%
%TO.N,A12*%
X113970000Y-110630000D03*
%TO.P,U1,3*%
%TO.N,A7*%
X111430000Y-110630000D03*
%TO.P,U1,4*%
%TO.N,A6*%
X108890000Y-110630000D03*
%TO.P,U1,5*%
%TO.N,A5*%
X106350000Y-110630000D03*
%TO.P,U1,6*%
%TO.N,A4*%
X103810000Y-110630000D03*
%TO.P,U1,7*%
%TO.N,A3*%
X101270000Y-110630000D03*
%TO.P,U1,8*%
%TO.N,A2*%
X98730000Y-110630000D03*
%TO.P,U1,9*%
%TO.N,A1*%
X96190000Y-110630000D03*
%TO.P,U1,10*%
%TO.N,A0*%
X93650000Y-110630000D03*
%TO.P,U1,11*%
%TO.N,D0*%
X91110000Y-110630000D03*
%TO.P,U1,12*%
%TO.N,D1*%
X88570000Y-110630000D03*
%TO.P,U1,13*%
%TO.N,D2*%
X86030000Y-110630000D03*
%TO.P,U1,14*%
%TO.N,GND*%
X83490000Y-110630000D03*
%TO.P,U1,15*%
%TO.N,D3*%
X83490000Y-125870000D03*
%TO.P,U1,16*%
%TO.N,D4*%
X86030000Y-125870000D03*
%TO.P,U1,17*%
%TO.N,D5*%
X88570000Y-125870000D03*
%TO.P,U1,18*%
%TO.N,D6*%
X91110000Y-125870000D03*
%TO.P,U1,19*%
%TO.N,D7*%
X93650000Y-125870000D03*
%TO.P,U1,20*%
%TO.N,ROM_CE*%
X96190000Y-125870000D03*
%TO.P,U1,21*%
%TO.N,A10*%
X98730000Y-125870000D03*
%TO.P,U1,22*%
%TO.N,GND*%
X101270000Y-125870000D03*
%TO.P,U1,23*%
%TO.N,A11*%
X103810000Y-125870000D03*
%TO.P,U1,24*%
%TO.N,A9*%
X106350000Y-125870000D03*
%TO.P,U1,25*%
%TO.N,A8*%
X108890000Y-125870000D03*
%TO.P,U1,26*%
%TO.N,A13*%
X111430000Y-125870000D03*
%TO.P,U1,27*%
%TO.N,A14*%
X113970000Y-125870000D03*
%TO.P,U1,28*%
%TO.N,VCC*%
X116510000Y-125870000D03*
%TD*%
D10*
%TO.P,RAUDIOA,1*%
%TO.N,ANALOG_A*%
X114730000Y-73750000D03*
%TO.P,RAUDIOA,2*%
%TO.N,SUM_NODE*%
X117270000Y-73750000D03*
%TD*%
%TO.P,CRESET1,1*%
%TO.N,RESET_DELAYED*%
X78730000Y-95750000D03*
%TO.P,CRESET1,2*%
%TO.N,GND*%
X81270000Y-95750000D03*
%TD*%
%TO.P,RSERIES,1*%
%TO.N,OPAMP_OUT*%
X118000000Y-67270000D03*
%TO.P,RSERIES,2*%
%TO.N,CAP_PLUS*%
X118000000Y-64730000D03*
%TD*%
%TO.P,RPULL,1*%
%TO.N,OPAMP_OUT*%
X128000000Y-67270000D03*
%TO.P,RPULL,2*%
%TO.N,GND*%
X128000000Y-64730000D03*
%TD*%
D11*
%TO.P,U4,1*%
%TO.N,GND*%
X124130000Y-76630000D03*
D12*
%TO.P,U4,2*%
%TO.N,N/C*%
X121590000Y-76630000D03*
%TO.P,U4,3*%
%TO.N,ANALOG_B*%
X119050000Y-76630000D03*
%TO.P,U4,4*%
%TO.N,ANALOG_A*%
X116510000Y-76630000D03*
%TO.P,U4,5*%
%TO.N,N/C*%
X113970000Y-76630000D03*
%TO.P,U4,6*%
X111430000Y-76630000D03*
%TO.P,U4,7*%
X108890000Y-76630000D03*
%TO.P,U4,8*%
X106350000Y-76630000D03*
%TO.P,U4,9*%
X103810000Y-76630000D03*
%TO.P,U4,10*%
X101270000Y-76630000D03*
%TO.P,U4,11*%
X98730000Y-76630000D03*
%TO.P,U4,12*%
X96190000Y-76630000D03*
%TO.P,U4,13*%
X93650000Y-76630000D03*
%TO.P,U4,14*%
X91110000Y-76630000D03*
%TO.P,U4,15*%
X88570000Y-76630000D03*
%TO.P,U4,16*%
X86030000Y-76630000D03*
%TO.P,U4,17*%
X83490000Y-76630000D03*
%TO.P,U4,18*%
X80950000Y-76630000D03*
%TO.P,U4,19*%
X78410000Y-76630000D03*
%TO.P,U4,20*%
X75870000Y-76630000D03*
%TO.P,U4,21*%
X75870000Y-91870000D03*
%TO.P,U4,22*%
%TO.N,PHI2OUT*%
X78410000Y-91870000D03*
%TO.P,U4,23*%
%TO.N,RESET_DELAYED*%
X80950000Y-91870000D03*
%TO.P,U4,24*%
%TO.N,GND*%
X83490000Y-91870000D03*
%TO.P,U4,25*%
%TO.N,VCC*%
X86030000Y-91870000D03*
%TO.P,U4,26*%
%TO.N,N/C*%
X88570000Y-91870000D03*
%TO.P,U4,27*%
%TO.N,BDIR*%
X91110000Y-91870000D03*
%TO.P,U4,28*%
%TO.N,VCC*%
X93650000Y-91870000D03*
%TO.P,U4,29*%
%TO.N,BC1*%
X96190000Y-91870000D03*
%TO.P,U4,30*%
%TO.N,DA7*%
X98730000Y-91870000D03*
%TO.P,U4,31*%
%TO.N,DA6*%
X101270000Y-91870000D03*
%TO.P,U4,32*%
%TO.N,DA5*%
X103810000Y-91870000D03*
%TO.P,U4,33*%
%TO.N,DA4*%
X106350000Y-91870000D03*
%TO.P,U4,34*%
%TO.N,DA3*%
X108890000Y-91870000D03*
%TO.P,U4,35*%
%TO.N,DA2*%
X111430000Y-91870000D03*
%TO.P,U4,36*%
%TO.N,DA1*%
X113970000Y-91870000D03*
%TO.P,U4,37*%
%TO.N,DA0*%
X116510000Y-91870000D03*
%TO.P,U4,38*%
%TO.N,ANALOG_C*%
X119050000Y-91870000D03*
%TO.P,U4,39*%
%TO.N,N/C*%
X121590000Y-91870000D03*
%TO.P,U4,40*%
%TO.N,VCC*%
X124130000Y-91870000D03*
%TD*%
D10*
%TO.P,RFB,1*%
%TO.N,SUM_NODE*%
X98000000Y-67270000D03*
%TO.P,RFB,2*%
%TO.N,OPAMP_OUT*%
X98000000Y-64730000D03*
%TD*%
%TO.P,C5,1*%
%TO.N,CAP_PLUS*%
X123000000Y-67270000D03*
%TO.P,C5,2*%
%TO.N,SUM_NODE*%
X123000000Y-64730000D03*
%TD*%
D14*
%TO.P,J1,1*%
%TO.N,RW*%
X78410000Y-136490000D03*
%TO.P,J1,2*%
%TO.N,HALT*%
X80950000Y-136490000D03*
%TO.P,J1,3*%
%TO.N,D3*%
X86030000Y-136490000D03*
%TO.P,J1,4*%
%TO.N,D4*%
X88570000Y-136490000D03*
%TO.P,J1,5*%
%TO.N,D5*%
X91110000Y-136490000D03*
%TO.P,J1,6*%
%TO.N,D6*%
X93650000Y-136490000D03*
%TO.P,J1,7*%
%TO.N,D7*%
X96190000Y-136490000D03*
%TO.P,J1,8*%
%TO.N,A12*%
X98730000Y-136490000D03*
%TO.P,J1,9*%
%TO.N,A10*%
X101270000Y-136490000D03*
%TO.P,J1,10*%
%TO.N,A11*%
X103810000Y-136490000D03*
%TO.P,J1,11*%
%TO.N,A9*%
X106350000Y-136490000D03*
%TO.P,J1,12*%
%TO.N,A8*%
X108890000Y-136490000D03*
%TO.P,J1,13*%
%TO.N,VCC*%
X111430000Y-136490000D03*
%TO.P,J1,14*%
%TO.N,GND*%
X113970000Y-136490000D03*
%TO.P,J1,15*%
%TO.N,A13*%
X119050000Y-136490000D03*
%TO.P,J1,16*%
%TO.N,A14*%
X121590000Y-136490000D03*
%TD*%
D10*
%TO.P,RRESET1,1*%
%TO.N,VCC*%
X84730000Y-95750000D03*
%TO.P,RRESET1,2*%
%TO.N,RESET_DELAYED*%
X87270000Y-95750000D03*
%TD*%
D13*
%TO.P,gnd_via,1*%
%TO.N,GND*%
X131000000Y-115000000D03*
%TD*%
D10*
%TO.P,RAUDIOC,1*%
%TO.N,ANALOG_C*%
X118730000Y-95750000D03*
%TO.P,RAUDIOC,2*%
%TO.N,SUM_NODE*%
X121270000Y-95750000D03*
%TD*%
D11*
%TO.P,U2,1*%
%TO.N,N/C*%
X95430000Y-98440000D03*
D12*
%TO.P,U2,2*%
%TO.N,A15*%
X92890000Y-98440000D03*
%TO.P,U2,3*%
%TO.N,A14*%
X90350000Y-98440000D03*
%TO.P,U2,4*%
%TO.N,A0*%
X87810000Y-98440000D03*
%TO.P,U2,5*%
%TO.N,HALT*%
X85270000Y-98440000D03*
%TO.P,U2,6*%
%TO.N,RW*%
X82730000Y-98440000D03*
%TO.P,U2,7*%
%TO.N,PHI2*%
X80190000Y-98440000D03*
%TO.P,U2,8*%
%TO.N,N/C*%
X77650000Y-98440000D03*
%TO.P,U2,9*%
X75110000Y-98440000D03*
%TO.P,U2,10*%
%TO.N,GND*%
X72570000Y-98440000D03*
%TO.P,U2,11*%
%TO.N,N/C*%
X72570000Y-106060000D03*
%TO.P,U2,12*%
X75110000Y-106060000D03*
%TO.P,U2,13*%
X77650000Y-106060000D03*
%TO.P,U2,14*%
X80190000Y-106060000D03*
%TO.P,U2,15*%
%TO.N,YM_LE*%
X82730000Y-106060000D03*
%TO.P,U2,16*%
%TO.N,PHI2OUT*%
X85270000Y-106060000D03*
%TO.P,U2,17*%
%TO.N,BC1*%
X87810000Y-106060000D03*
%TO.P,U2,18*%
%TO.N,BDIR*%
X90350000Y-106060000D03*
%TO.P,U2,19*%
%TO.N,ROM_CE*%
X92890000Y-106060000D03*
%TO.P,U2,20*%
%TO.N,VCC*%
X95430000Y-106060000D03*
%TD*%
D11*
%TO.P,U3,1*%
%TO.N,GND*%
X125430000Y-98440000D03*
D12*
%TO.P,U3,2*%
%TO.N,DA0*%
X122890000Y-98440000D03*
%TO.P,U3,3*%
%TO.N,D0*%
X120350000Y-98440000D03*
%TO.P,U3,4*%
%TO.N,D1*%
X117810000Y-98440000D03*
%TO.P,U3,5*%
%TO.N,DA1*%
X115270000Y-98440000D03*
%TO.P,U3,6*%
%TO.N,DA2*%
X112730000Y-98440000D03*
%TO.P,U3,7*%
%TO.N,D2*%
X110190000Y-98440000D03*
%TO.P,U3,8*%
%TO.N,D3*%
X107650000Y-98440000D03*
%TO.P,U3,9*%
%TO.N,DA3*%
X105110000Y-98440000D03*
%TO.P,U3,10*%
%TO.N,GND*%
X102570000Y-98440000D03*
%TO.P,U3,11*%
%TO.N,YM_LE*%
X102570000Y-106060000D03*
%TO.P,U3,12*%
%TO.N,DA4*%
X105110000Y-106060000D03*
%TO.P,U3,13*%
%TO.N,D4*%
X107650000Y-106060000D03*
%TO.P,U3,14*%
%TO.N,D5*%
X110190000Y-106060000D03*
%TO.P,U3,15*%
%TO.N,DA5*%
X112730000Y-106060000D03*
%TO.P,U3,16*%
%TO.N,DA6*%
X115270000Y-106060000D03*
%TO.P,U3,17*%
%TO.N,D6*%
X117810000Y-106060000D03*
%TO.P,U3,18*%
%TO.N,D7*%
X120350000Y-106060000D03*
%TO.P,U3,19*%
%TO.N,DA7*%
X122890000Y-106060000D03*
%TO.P,U3,20*%
%TO.N,VCC*%
X125430000Y-106060000D03*
%TD*%
D15*
%TO.N,SUM_NODE*%
X119420900Y-126373300D03*
%TO.N,A1*%
X98593500Y-132178300D03*
%TO.N,A0*%
X95866000Y-132178300D03*
X92878200Y-100414300D03*
%TO.N,D0*%
X93144900Y-131771700D03*
%TO.N,D1*%
X90407800Y-132178300D03*
%TO.N,D6*%
X89644300Y-102246300D03*
%TO.N,A10*%
X102779200Y-129188100D03*
%TO.N,A14*%
X118760200Y-129505200D03*
X113710600Y-96634900D03*
%TO.N,A15*%
X98541100Y-99044500D03*
X113738100Y-123541900D03*
%TO.N,YM_LE*%
X101459300Y-104707600D03*
%TD*%
%TO.N,ANALOG_B*%
D16*
X119050000Y-76630000D02*
X119050000Y-75430000D01*
X119050000Y-75430000D02*
X120730000Y-73750000D01*
%TO.N,SUM_NODE*%
X125257900Y-92355000D02*
X125257900Y-82704700D01*
X123000000Y-64730000D02*
X121968300Y-65761700D01*
X121466900Y-95946900D02*
X121666000Y-95946900D01*
X121466900Y-124327300D02*
X121466900Y-95946900D01*
X121466900Y-95946900D02*
X121270000Y-95750000D01*
X125257900Y-82704700D02*
X123001600Y-80448400D01*
X123001600Y-80448400D02*
X123001600Y-74018400D01*
X121666000Y-95946900D02*
X125257900Y-92355000D01*
X121968300Y-65761700D02*
X121968300Y-72448300D01*
X119420900Y-126373300D02*
X121466900Y-124327300D01*
X121968300Y-72448300D02*
X123270000Y-73750000D01*
X123001600Y-74018400D02*
X123270000Y-73750000D01*
%TO.N,VCC*%
X110950400Y-124750600D02*
X116510000Y-124750600D01*
X115240000Y-75934800D02*
X115240000Y-82980000D01*
X94301500Y-104931500D02*
X95430000Y-106060000D01*
X86030000Y-91870000D02*
X86030000Y-94450000D01*
X116510000Y-124750600D02*
X116510000Y-110630000D01*
X111810000Y-72504800D02*
X115240000Y-75934800D01*
X110267700Y-131526000D02*
X110267700Y-125433300D01*
X94301500Y-92521500D02*
X94301500Y-104931500D01*
X116510000Y-125870000D02*
X116510000Y-124750600D01*
X93650000Y-91870000D02*
X94301500Y-92521500D01*
X86030000Y-94450000D02*
X84730000Y-95750000D01*
X115240000Y-82980000D02*
X124130000Y-91870000D01*
X111430000Y-136490000D02*
X111430000Y-132688300D01*
X111430000Y-132688300D02*
X110267700Y-131526000D01*
X111810000Y-69810000D02*
X111810000Y-72504800D01*
X110267700Y-125433300D02*
X110950400Y-124750600D01*
%TO.N,A12*%
X102177500Y-128939000D02*
X102177500Y-130142500D01*
X102540000Y-128576500D02*
X102177500Y-128939000D01*
X102177500Y-130142500D02*
X98730000Y-133590000D01*
X113970000Y-110630000D02*
X114387000Y-111047000D01*
X98730000Y-133590000D02*
X98730000Y-136490000D01*
X114387000Y-123767300D02*
X113929600Y-124224700D01*
X114387000Y-111047000D02*
X114387000Y-123767300D01*
X113929600Y-124224700D02*
X103888400Y-124224700D01*
X103888400Y-124224700D02*
X102540000Y-125573100D01*
X102540000Y-125573100D02*
X102540000Y-128576500D01*
%TO.N,A1*%
X97601600Y-112041600D02*
X97601600Y-131186400D01*
X97601600Y-131186400D02*
X98593500Y-132178300D01*
X96190000Y-110630000D02*
X97601600Y-112041600D01*
%TO.N,A0*%
X92878200Y-100414300D02*
X91784900Y-101507600D01*
X91784900Y-108764900D02*
X93650000Y-110630000D01*
X93650000Y-124012500D02*
X93650000Y-110630000D01*
X95061600Y-125424100D02*
X93650000Y-124012500D01*
X95866000Y-132178300D02*
X95061600Y-131373900D01*
X95061600Y-131373900D02*
X95061600Y-125424100D01*
X91784900Y-101507600D02*
X91784900Y-108764900D01*
%TO.N,D0*%
X91110000Y-110630000D02*
X92238500Y-111758500D01*
X92238500Y-111758500D02*
X92238500Y-130865300D01*
X92238500Y-130865300D02*
X93144900Y-131771700D01*
%TO.N,D1*%
X90407800Y-132178300D02*
X89840000Y-131610500D01*
X89840000Y-111900000D02*
X88570000Y-110630000D01*
X89840000Y-131610500D02*
X89840000Y-111900000D01*
%TO.N,D3*%
X85629800Y-132288100D02*
X85629800Y-128009800D01*
X86030000Y-136490000D02*
X86030000Y-132688300D01*
X85629800Y-128009800D02*
X83490000Y-125870000D01*
X86030000Y-132688300D02*
X85629800Y-132288100D01*
%TO.N,D4*%
X88570000Y-136490000D02*
X88570000Y-132688300D01*
X88570000Y-132688300D02*
X86031500Y-130149800D01*
X86031500Y-125871500D02*
X86030000Y-125870000D01*
X86031500Y-130149800D02*
X86031500Y-125871500D01*
%TO.N,D5*%
X91110000Y-134088900D02*
X88570000Y-131548900D01*
X91110000Y-136490000D02*
X91110000Y-134088900D01*
X88570000Y-131548900D02*
X88570000Y-125870000D01*
%TO.N,D6*%
X89698500Y-111076000D02*
X91110000Y-112487500D01*
X91110000Y-112487500D02*
X91110000Y-125870000D01*
X89698500Y-107188500D02*
X89698500Y-111076000D01*
X89644300Y-105207700D02*
X89231000Y-105621000D01*
X89231000Y-105621000D02*
X89231000Y-106721000D01*
X93650000Y-136490000D02*
X93650000Y-132688300D01*
X89231000Y-106721000D02*
X89698500Y-107188500D01*
X93210700Y-132688300D02*
X93650000Y-132688300D01*
X91110000Y-130587600D02*
X93210700Y-132688300D01*
X91110000Y-125870000D02*
X91110000Y-130587600D01*
X89644300Y-102246300D02*
X89644300Y-105207700D01*
%TO.N,D7*%
X96190000Y-133715900D02*
X93650000Y-131175900D01*
X96190000Y-136490000D02*
X96190000Y-133715900D01*
X93650000Y-131175900D02*
X93650000Y-125870000D01*
%TO.N,ROM_CE*%
X94920000Y-124600000D02*
X96190000Y-125870000D01*
X94920000Y-108090000D02*
X94920000Y-124600000D01*
X92890000Y-106060000D02*
X94920000Y-108090000D01*
%TO.N,A10*%
X101270000Y-132688300D02*
X102779200Y-131179100D01*
X101270000Y-136490000D02*
X101270000Y-132688300D01*
X102779200Y-131179100D02*
X102779200Y-129188100D01*
%TO.N,A11*%
X103810000Y-136490000D02*
X103810000Y-125870000D01*
%TO.N,A9*%
X106350000Y-136490000D02*
X106350000Y-125870000D01*
%TO.N,A8*%
X108890000Y-136490000D02*
X108890000Y-125870000D01*
%TO.N,A13*%
X119050000Y-131172200D02*
X115512700Y-127634900D01*
X119050000Y-136490000D02*
X119050000Y-131172200D01*
X113194900Y-127634900D02*
X111430000Y-125870000D01*
X115512700Y-127634900D02*
X113194900Y-127634900D01*
%TO.N,A14*%
X121590000Y-132335000D02*
X118760200Y-129505200D01*
X116540000Y-107911500D02*
X116540000Y-101268000D01*
X118760200Y-129505200D02*
X118760200Y-110131700D01*
X114168300Y-98896300D02*
X114168300Y-97092600D01*
X121590000Y-136490000D02*
X121590000Y-132335000D01*
X114168300Y-97092600D02*
X113710600Y-96634900D01*
X118760200Y-110131700D02*
X116540000Y-107911500D01*
X116540000Y-101268000D02*
X114168300Y-98896300D01*
%TO.N,ANALOG_A*%
X116510000Y-76630000D02*
X114730000Y-74850000D01*
X114730000Y-74850000D02*
X114730000Y-73750000D01*
%TO.N,RESET_DELAYED*%
X80950000Y-93530000D02*
X78730000Y-95750000D01*
X80950000Y-91870000D02*
X80950000Y-93530000D01*
%TO.N,PHI2OUT*%
X84000000Y-104790000D02*
X85270000Y-106060000D01*
X83705000Y-96799000D02*
X84000000Y-97094000D01*
X78410000Y-91870000D02*
X79548800Y-90731200D01*
X84000000Y-97094000D02*
X84000000Y-104790000D01*
X79548800Y-90731200D02*
X81388200Y-90731200D01*
X81388200Y-90731200D02*
X82270200Y-91613200D01*
X83705000Y-94405000D02*
X83705000Y-96799000D01*
X82270200Y-92970200D02*
X83705000Y-94405000D01*
X82270200Y-91613200D02*
X82270200Y-92970200D01*
%TO.N,BDIR*%
X91502300Y-92262300D02*
X91502300Y-99422600D01*
X91110000Y-91870000D02*
X91502300Y-92262300D01*
X90350000Y-100574900D02*
X90350000Y-106060000D01*
X91502300Y-99422600D02*
X90350000Y-100574900D01*
%TO.N,BC1*%
X96190000Y-91870000D02*
X95041700Y-90721700D01*
X89840000Y-91550900D02*
X89840000Y-97170000D01*
X88938500Y-104931500D02*
X87810000Y-106060000D01*
X95041700Y-90721700D02*
X90669200Y-90721700D01*
X90669200Y-90721700D02*
X89840000Y-91550900D01*
X89840000Y-97170000D02*
X88938500Y-98071500D01*
X88938500Y-98071500D02*
X88938500Y-104931500D01*
%TO.N,DA6*%
X101270000Y-91870000D02*
X102833700Y-90306300D01*
X110160000Y-91519700D02*
X110160000Y-95104500D01*
X102833700Y-90306300D02*
X108946600Y-90306300D01*
X108946600Y-90306300D02*
X110160000Y-91519700D01*
X111460000Y-102250000D02*
X115270000Y-106060000D01*
X111460000Y-96404500D02*
X111460000Y-102250000D01*
X110160000Y-95104500D02*
X111460000Y-96404500D01*
%TO.N,DA5*%
X104948800Y-90731200D02*
X106788200Y-90731200D01*
X108920000Y-96404500D02*
X108920000Y-102250000D01*
X107620000Y-95104500D02*
X108920000Y-96404500D01*
X108920000Y-102250000D02*
X112730000Y-106060000D01*
X106788200Y-90731200D02*
X107620000Y-91563000D01*
X107620000Y-91563000D02*
X107620000Y-95104500D01*
X103810000Y-91870000D02*
X104948800Y-90731200D01*
%TO.N,DA4*%
X106350000Y-104820000D02*
X106350000Y-91870000D01*
X105110000Y-106060000D02*
X106350000Y-104820000D01*
%TO.N,DA2*%
X112730000Y-98440000D02*
X112730000Y-93170000D01*
X112730000Y-93170000D02*
X111430000Y-91870000D01*
%TO.N,DA1*%
X115270000Y-98440000D02*
X115270000Y-93170000D01*
X115270000Y-93170000D02*
X113970000Y-91870000D01*
%TO.N,ANALOG_C*%
X119050000Y-95430000D02*
X118730000Y-95750000D01*
X119050000Y-91870000D02*
X119050000Y-95430000D01*
%TO.N,RW*%
X81445400Y-106362700D02*
X81445400Y-99724600D01*
X78410000Y-136490000D02*
X78410000Y-109398100D01*
X78410000Y-109398100D02*
X81445400Y-106362700D01*
X81445400Y-99724600D02*
X82730000Y-98440000D01*
%TO.N,HALT*%
X85270000Y-98440000D02*
X86421800Y-99591800D01*
X86421800Y-107495300D02*
X84889200Y-109027900D01*
X86421800Y-99591800D02*
X86421800Y-107495300D01*
X84889200Y-109027900D02*
X84889200Y-122912800D01*
X80950000Y-126852000D02*
X80950000Y-136490000D01*
X84889200Y-122912800D02*
X80950000Y-126852000D01*
%TO.N,A15*%
X105080000Y-110100000D02*
X105080000Y-114883800D01*
X103840000Y-104343400D02*
X103840000Y-108860000D01*
X103840000Y-108860000D02*
X105080000Y-110100000D01*
X98541100Y-99044500D02*
X103840000Y-104343400D01*
X105080000Y-114883800D02*
X113738100Y-123541900D01*
%TO.N,YM_LE*%
X101459300Y-104949300D02*
X101459300Y-104707600D01*
X102570000Y-106060000D02*
X101459300Y-104949300D01*
%TD*%
%TA.AperFunction,Conductor*%
%TO.N,GND*%
G36*
X131778326Y-60221674D02*
G01*
X131800000Y-60274000D01*
X131800000Y-115636506D01*
X131778326Y-115688832D01*
X131438832Y-116028326D01*
X131386506Y-116050000D01*
X131300000Y-116050000D01*
X123800000Y-116050000D01*
X123786994Y-116051281D01*
X123760980Y-116053843D01*
X123738218Y-116060748D01*
X123723463Y-116065224D01*
X123723461Y-116065224D01*
X123723461Y-116065225D01*
X123688887Y-116083705D01*
X123688883Y-116083708D01*
X123658579Y-116108579D01*
X123633708Y-116138883D01*
X123633705Y-116138887D01*
X123615225Y-116173461D01*
X123603843Y-116210980D01*
X123600000Y-116250001D01*
X123600000Y-139726000D01*
X123578326Y-139778326D01*
X123526000Y-139800000D01*
X122864500Y-139800000D01*
X122812174Y-139778326D01*
X122790500Y-139726000D01*
X122790500Y-132970246D01*
X122790356Y-132968783D01*
X122790000Y-132961536D01*
X122790000Y-132790000D01*
X122618464Y-132790000D01*
X122611217Y-132789644D01*
X122609754Y-132789500D01*
X122609748Y-132789500D01*
X121964500Y-132789500D01*
X121912174Y-132767826D01*
X121890500Y-132715500D01*
X121890500Y-132295436D01*
X121880019Y-132256323D01*
X121877933Y-132248538D01*
X121877933Y-132248536D01*
X121870023Y-132219016D01*
X121870022Y-132219012D01*
X121830460Y-132150489D01*
X119282374Y-129602403D01*
X119260700Y-129550077D01*
X119260700Y-129439306D01*
X119260699Y-129439305D01*
X119226593Y-129312018D01*
X119226592Y-129312014D01*
X119160700Y-129197886D01*
X119082374Y-129119560D01*
X119060700Y-129067234D01*
X119060700Y-126871438D01*
X119082374Y-126819112D01*
X119134700Y-126797438D01*
X119171699Y-126807351D01*
X119227714Y-126839692D01*
X119355005Y-126873799D01*
X119355006Y-126873800D01*
X119355008Y-126873800D01*
X119486794Y-126873800D01*
X119486794Y-126873799D01*
X119614086Y-126839692D01*
X119728214Y-126773800D01*
X119821400Y-126680614D01*
X119887292Y-126566486D01*
X119921399Y-126439194D01*
X119921400Y-126439194D01*
X119921400Y-126328422D01*
X119943074Y-126276096D01*
X120762061Y-125457109D01*
X121707360Y-124511811D01*
X121711451Y-124504723D01*
X121711454Y-124504721D01*
X121711453Y-124504721D01*
X121746921Y-124443289D01*
X121767399Y-124366864D01*
X121767400Y-124366864D01*
X121767400Y-106296035D01*
X121789074Y-106243709D01*
X121841400Y-106222035D01*
X121893726Y-106243709D01*
X121913978Y-106281598D01*
X121927947Y-106351829D01*
X121927950Y-106351839D01*
X122003367Y-106533913D01*
X122085400Y-106656683D01*
X122112861Y-106697782D01*
X122252218Y-106837139D01*
X122416086Y-106946632D01*
X122598165Y-107022051D01*
X122791459Y-107060500D01*
X122791461Y-107060500D01*
X122988539Y-107060500D01*
X122988541Y-107060500D01*
X123181835Y-107022051D01*
X123363914Y-106946632D01*
X123527782Y-106837139D01*
X123667139Y-106697782D01*
X123776632Y-106533914D01*
X123852051Y-106351835D01*
X123890500Y-106158541D01*
X123890500Y-105961460D01*
X124429500Y-105961460D01*
X124429500Y-106158539D01*
X124467947Y-106351829D01*
X124467950Y-106351839D01*
X124543367Y-106533913D01*
X124625400Y-106656683D01*
X124652861Y-106697782D01*
X124792218Y-106837139D01*
X124956086Y-106946632D01*
X125138165Y-107022051D01*
X125331459Y-107060500D01*
X125331461Y-107060500D01*
X125528539Y-107060500D01*
X125528541Y-107060500D01*
X125721835Y-107022051D01*
X125903914Y-106946632D01*
X126067782Y-106837139D01*
X126207139Y-106697782D01*
X126316632Y-106533914D01*
X126392051Y-106351835D01*
X126430500Y-106158541D01*
X126430500Y-105961459D01*
X126392051Y-105768165D01*
X126316632Y-105586086D01*
X126207139Y-105422218D01*
X126067782Y-105282861D01*
X126067732Y-105282827D01*
X125903913Y-105173367D01*
X125721839Y-105097950D01*
X125721829Y-105097947D01*
X125592388Y-105072200D01*
X125528541Y-105059500D01*
X125331459Y-105059500D01*
X125276662Y-105070399D01*
X125138170Y-105097947D01*
X125138160Y-105097950D01*
X124956086Y-105173367D01*
X124792218Y-105282860D01*
X124792217Y-105282862D01*
X124652862Y-105422217D01*
X124652860Y-105422218D01*
X124543367Y-105586086D01*
X124467950Y-105768160D01*
X124467947Y-105768170D01*
X124429500Y-105961460D01*
X123890500Y-105961460D01*
X123890500Y-105961459D01*
X123852051Y-105768165D01*
X123776632Y-105586086D01*
X123667139Y-105422218D01*
X123527782Y-105282861D01*
X123527732Y-105282827D01*
X123363913Y-105173367D01*
X123181839Y-105097950D01*
X123181829Y-105097947D01*
X123052388Y-105072200D01*
X122988541Y-105059500D01*
X122791459Y-105059500D01*
X122736662Y-105070399D01*
X122598170Y-105097947D01*
X122598160Y-105097950D01*
X122416086Y-105173367D01*
X122252218Y-105282860D01*
X122252217Y-105282862D01*
X122112862Y-105422217D01*
X122112860Y-105422218D01*
X122003367Y-105586086D01*
X121927950Y-105768160D01*
X121927947Y-105768170D01*
X121913978Y-105838401D01*
X121882512Y-105885493D01*
X121826963Y-105896542D01*
X121779871Y-105865076D01*
X121767400Y-105823964D01*
X121767400Y-98676035D01*
X121789074Y-98623709D01*
X121841400Y-98602035D01*
X121893726Y-98623709D01*
X121913978Y-98661598D01*
X121927947Y-98731829D01*
X121927950Y-98731839D01*
X122003367Y-98913913D01*
X122104656Y-99065502D01*
X122112861Y-99077782D01*
X122252218Y-99217139D01*
X122416086Y-99326632D01*
X122598165Y-99402051D01*
X122791459Y-99440500D01*
X122791461Y-99440500D01*
X122988539Y-99440500D01*
X122988541Y-99440500D01*
X123181835Y-99402051D01*
X123363914Y-99326632D01*
X123527782Y-99217139D01*
X123667139Y-99077782D01*
X123776632Y-98913914D01*
X123852051Y-98731835D01*
X123890500Y-98538541D01*
X123890500Y-98341459D01*
X123852051Y-98148165D01*
X123776632Y-97966086D01*
X123667139Y-97802218D01*
X123527782Y-97662861D01*
X123527732Y-97662827D01*
X123363913Y-97553367D01*
X123181839Y-97477950D01*
X123181829Y-97477947D01*
X123021429Y-97446042D01*
X122988541Y-97439500D01*
X122791459Y-97439500D01*
X122758571Y-97446042D01*
X122598170Y-97477947D01*
X122598160Y-97477950D01*
X122416086Y-97553367D01*
X122252218Y-97662860D01*
X122252217Y-97662862D01*
X122112862Y-97802217D01*
X122112860Y-97802218D01*
X122003367Y-97966086D01*
X121927950Y-98148160D01*
X121927947Y-98148170D01*
X121913978Y-98218401D01*
X121882512Y-98265493D01*
X121826963Y-98276542D01*
X121779871Y-98245076D01*
X121767400Y-98203964D01*
X121767400Y-96540223D01*
X121789074Y-96487897D01*
X121800282Y-96478698D01*
X121844035Y-96449464D01*
X121969464Y-96324035D01*
X122068013Y-96176547D01*
X122135894Y-96012666D01*
X122158999Y-95896507D01*
X122179248Y-95858621D01*
X125498360Y-92539511D01*
X125537922Y-92470988D01*
X125558400Y-92394562D01*
X125558400Y-92315438D01*
X125558400Y-82665138D01*
X125558400Y-82665136D01*
X125558399Y-82665135D01*
X125537922Y-82588714D01*
X125537920Y-82588709D01*
X125498359Y-82520188D01*
X123323774Y-80345603D01*
X123302100Y-80293277D01*
X123302100Y-74722486D01*
X123323774Y-74670160D01*
X123361662Y-74649909D01*
X123532666Y-74615894D01*
X123696547Y-74548013D01*
X123844035Y-74449464D01*
X123969464Y-74324035D01*
X124068013Y-74176547D01*
X124135894Y-74012666D01*
X124170500Y-73838691D01*
X124170500Y-73661309D01*
X124135894Y-73487334D01*
X124068013Y-73323453D01*
X123969464Y-73175965D01*
X123844035Y-73050536D01*
X123696547Y-72951987D01*
X123696546Y-72951986D01*
X123696544Y-72951985D01*
X123532670Y-72884107D01*
X123532660Y-72884104D01*
X123416156Y-72860930D01*
X123358691Y-72849500D01*
X123181309Y-72849500D01*
X123131989Y-72859310D01*
X123007339Y-72884104D01*
X123007337Y-72884105D01*
X123007335Y-72884105D01*
X123007334Y-72884106D01*
X123007332Y-72884107D01*
X122926966Y-72917394D01*
X122870329Y-72917392D01*
X122846323Y-72901352D01*
X122290474Y-72345503D01*
X122268800Y-72293177D01*
X122268800Y-67990950D01*
X122290474Y-67938624D01*
X122342800Y-67916950D01*
X122395124Y-67938623D01*
X122425965Y-67969464D01*
X122573453Y-68068013D01*
X122737334Y-68135894D01*
X122911309Y-68170500D01*
X122911311Y-68170500D01*
X123088689Y-68170500D01*
X123088691Y-68170500D01*
X123262666Y-68135894D01*
X123426547Y-68068013D01*
X123574035Y-67969464D01*
X123699464Y-67844035D01*
X123798013Y-67696547D01*
X123865894Y-67532666D01*
X123900500Y-67358691D01*
X123900500Y-67181310D01*
X127099500Y-67181310D01*
X127099500Y-67358689D01*
X127134104Y-67532660D01*
X127134107Y-67532670D01*
X127201985Y-67696544D01*
X127201986Y-67696546D01*
X127201987Y-67696547D01*
X127300536Y-67844035D01*
X127425965Y-67969464D01*
X127573453Y-68068013D01*
X127737334Y-68135894D01*
X127911309Y-68170500D01*
X127911311Y-68170500D01*
X128088689Y-68170500D01*
X128088691Y-68170500D01*
X128262666Y-68135894D01*
X128426547Y-68068013D01*
X128574035Y-67969464D01*
X128699464Y-67844035D01*
X128798013Y-67696547D01*
X128865894Y-67532666D01*
X128900500Y-67358691D01*
X128900500Y-67181309D01*
X128865894Y-67007334D01*
X128798013Y-66843453D01*
X128699464Y-66695965D01*
X128574035Y-66570536D01*
X128541879Y-66549050D01*
X128426544Y-66471985D01*
X128262670Y-66404107D01*
X128262660Y-66404104D01*
X128146156Y-66380930D01*
X128088691Y-66369500D01*
X127911309Y-66369500D01*
X127861989Y-66379310D01*
X127737339Y-66404104D01*
X127737329Y-66404107D01*
X127573455Y-66471985D01*
X127425968Y-66570533D01*
X127300533Y-66695968D01*
X127201985Y-66843455D01*
X127134107Y-67007329D01*
X127134104Y-67007339D01*
X127099500Y-67181310D01*
X123900500Y-67181310D01*
X123900500Y-67181309D01*
X123865894Y-67007334D01*
X123798013Y-66843453D01*
X123699464Y-66695965D01*
X123574035Y-66570536D01*
X123541879Y-66549050D01*
X123426544Y-66471985D01*
X123262670Y-66404107D01*
X123262660Y-66404104D01*
X123146156Y-66380930D01*
X123088691Y-66369500D01*
X122911309Y-66369500D01*
X122861989Y-66379310D01*
X122737339Y-66404104D01*
X122737329Y-66404107D01*
X122573455Y-66471985D01*
X122425968Y-66570533D01*
X122425967Y-66570534D01*
X122425965Y-66570535D01*
X122425965Y-66570536D01*
X122395124Y-66601376D01*
X122342800Y-66623050D01*
X122290474Y-66601376D01*
X122268800Y-66549050D01*
X122268800Y-65916822D01*
X122290473Y-65864497D01*
X122576324Y-65578645D01*
X122628649Y-65556972D01*
X122656964Y-65562604D01*
X122737334Y-65595894D01*
X122911309Y-65630500D01*
X122911311Y-65630500D01*
X123088689Y-65630500D01*
X123088691Y-65630500D01*
X123262666Y-65595894D01*
X123426547Y-65528013D01*
X123574035Y-65429464D01*
X123699464Y-65304035D01*
X123798013Y-65156547D01*
X123865894Y-64992666D01*
X123900500Y-64818691D01*
X123900500Y-64641309D01*
X123865894Y-64467334D01*
X123798013Y-64303453D01*
X123699464Y-64155965D01*
X123574035Y-64030536D01*
X123426547Y-63931987D01*
X123426546Y-63931986D01*
X123426544Y-63931985D01*
X123262670Y-63864107D01*
X123262660Y-63864104D01*
X123146156Y-63840930D01*
X123088691Y-63829500D01*
X122911309Y-63829500D01*
X122861989Y-63839310D01*
X122737339Y-63864104D01*
X122737329Y-63864107D01*
X122573455Y-63931985D01*
X122425968Y-64030533D01*
X122300533Y-64155968D01*
X122201985Y-64303455D01*
X122134107Y-64467329D01*
X122134104Y-64467339D01*
X122099500Y-64641310D01*
X122099500Y-64818689D01*
X122134104Y-64992660D01*
X122134105Y-64992662D01*
X122134106Y-64992666D01*
X122134108Y-64992670D01*
X122167394Y-65073032D01*
X122167393Y-65129669D01*
X122151352Y-65153675D01*
X121783789Y-65521240D01*
X121727840Y-65577188D01*
X121688279Y-65645709D01*
X121688277Y-65645714D01*
X121667800Y-65722135D01*
X121667800Y-72487864D01*
X121688277Y-72564285D01*
X121688279Y-72564290D01*
X121720899Y-72620788D01*
X121720900Y-72620790D01*
X121727837Y-72632807D01*
X121727840Y-72632811D01*
X122421352Y-73326323D01*
X122443026Y-73378649D01*
X122437394Y-73406966D01*
X122404105Y-73487337D01*
X122404104Y-73487339D01*
X122369500Y-73661310D01*
X122369500Y-73838689D01*
X122404104Y-74012660D01*
X122404107Y-74012670D01*
X122471985Y-74176544D01*
X122471986Y-74176546D01*
X122471987Y-74176547D01*
X122570536Y-74324035D01*
X122679426Y-74432925D01*
X122701100Y-74485250D01*
X122701100Y-76336149D01*
X122679426Y-76388475D01*
X122627100Y-76410149D01*
X122574774Y-76388475D01*
X122554522Y-76350587D01*
X122554221Y-76349074D01*
X122552051Y-76338165D01*
X122476632Y-76156086D01*
X122367139Y-75992218D01*
X122227782Y-75852861D01*
X122063914Y-75743368D01*
X122063915Y-75743368D01*
X122063913Y-75743367D01*
X121881839Y-75667950D01*
X121881829Y-75667947D01*
X121752388Y-75642200D01*
X121688541Y-75629500D01*
X121491459Y-75629500D01*
X121436662Y-75640399D01*
X121298170Y-75667947D01*
X121298160Y-75667950D01*
X121116086Y-75743367D01*
X120952218Y-75852860D01*
X120952217Y-75852862D01*
X120812862Y-75992217D01*
X120812860Y-75992218D01*
X120703367Y-76156086D01*
X120627950Y-76338160D01*
X120627947Y-76338170D01*
X120589500Y-76531460D01*
X120589500Y-76728539D01*
X120627947Y-76921829D01*
X120627950Y-76921839D01*
X120703367Y-77103913D01*
X120783499Y-77223838D01*
X120812861Y-77267782D01*
X120952218Y-77407139D01*
X121116086Y-77516632D01*
X121298165Y-77592051D01*
X121491459Y-77630500D01*
X121491461Y-77630500D01*
X121688539Y-77630500D01*
X121688541Y-77630500D01*
X121881835Y-77592051D01*
X122063914Y-77516632D01*
X122227782Y-77407139D01*
X122367139Y-77267782D01*
X122476632Y-77103914D01*
X122552051Y-76921835D01*
X122554522Y-76909413D01*
X122585988Y-76862321D01*
X122641537Y-76851272D01*
X122688629Y-76882738D01*
X122701100Y-76923850D01*
X122701100Y-80487964D01*
X122721577Y-80564385D01*
X122721579Y-80564390D01*
X122761140Y-80632911D01*
X124935726Y-82807497D01*
X124957400Y-82859823D01*
X124957400Y-91103827D01*
X124935726Y-91156153D01*
X124883400Y-91177827D01*
X124831074Y-91156153D01*
X124767781Y-91092860D01*
X124603913Y-90983367D01*
X124421839Y-90907950D01*
X124421829Y-90907947D01*
X124292388Y-90882200D01*
X124228541Y-90869500D01*
X124031459Y-90869500D01*
X123976662Y-90880399D01*
X123838170Y-90907947D01*
X123838160Y-90907950D01*
X123710431Y-90960857D01*
X123653794Y-90960857D01*
X123629787Y-90944816D01*
X115562174Y-82877203D01*
X115540500Y-82824877D01*
X115540500Y-77223838D01*
X115562174Y-77171512D01*
X115614500Y-77149838D01*
X115666826Y-77171512D01*
X115676026Y-77182722D01*
X115732861Y-77267782D01*
X115872218Y-77407139D01*
X116036086Y-77516632D01*
X116218165Y-77592051D01*
X116411459Y-77630500D01*
X116411461Y-77630500D01*
X116608539Y-77630500D01*
X116608541Y-77630500D01*
X116801835Y-77592051D01*
X116983914Y-77516632D01*
X117147782Y-77407139D01*
X117287139Y-77267782D01*
X117396632Y-77103914D01*
X117472051Y-76921835D01*
X117510500Y-76728541D01*
X117510500Y-76531460D01*
X118049500Y-76531460D01*
X118049500Y-76728539D01*
X118087947Y-76921829D01*
X118087950Y-76921839D01*
X118163367Y-77103913D01*
X118243499Y-77223838D01*
X118272861Y-77267782D01*
X118412218Y-77407139D01*
X118576086Y-77516632D01*
X118758165Y-77592051D01*
X118951459Y-77630500D01*
X118951461Y-77630500D01*
X119148539Y-77630500D01*
X119148541Y-77630500D01*
X119341835Y-77592051D01*
X119523914Y-77516632D01*
X119687782Y-77407139D01*
X119827139Y-77267782D01*
X119936632Y-77103914D01*
X120012051Y-76921835D01*
X120050500Y-76728541D01*
X120050500Y-76531459D01*
X120012051Y-76338165D01*
X119936632Y-76156086D01*
X119827139Y-75992218D01*
X119687782Y-75852861D01*
X119523914Y-75743368D01*
X119523911Y-75743366D01*
X119523910Y-75743366D01*
X119396181Y-75690459D01*
X119385773Y-75680050D01*
X119372174Y-75674418D01*
X119366540Y-75660817D01*
X119356133Y-75650410D01*
X119350500Y-75622092D01*
X119350500Y-75585122D01*
X119372173Y-75532797D01*
X120306324Y-74598645D01*
X120358649Y-74576972D01*
X120386964Y-74582604D01*
X120467334Y-74615894D01*
X120641309Y-74650500D01*
X120641311Y-74650500D01*
X120818689Y-74650500D01*
X120818691Y-74650500D01*
X120992666Y-74615894D01*
X121156547Y-74548013D01*
X121304035Y-74449464D01*
X121429464Y-74324035D01*
X121528013Y-74176547D01*
X121595894Y-74012666D01*
X121630500Y-73838691D01*
X121630500Y-73661309D01*
X121595894Y-73487334D01*
X121528013Y-73323453D01*
X121429464Y-73175965D01*
X121304035Y-73050536D01*
X121156547Y-72951987D01*
X121156546Y-72951986D01*
X121156544Y-72951985D01*
X120992670Y-72884107D01*
X120992660Y-72884104D01*
X120876156Y-72860930D01*
X120818691Y-72849500D01*
X120641309Y-72849500D01*
X120591989Y-72859310D01*
X120467339Y-72884104D01*
X120467329Y-72884107D01*
X120303455Y-72951985D01*
X120155968Y-73050533D01*
X120030533Y-73175968D01*
X119931985Y-73323455D01*
X119864107Y-73487329D01*
X119864104Y-73487339D01*
X119829500Y-73661310D01*
X119829500Y-73838689D01*
X119864104Y-74012660D01*
X119864105Y-74012662D01*
X119864106Y-74012666D01*
X119864108Y-74012670D01*
X119897394Y-74093032D01*
X119897393Y-74149669D01*
X119881352Y-74173675D01*
X118865489Y-75189540D01*
X118809540Y-75245488D01*
X118769979Y-75314009D01*
X118769977Y-75314014D01*
X118749500Y-75390435D01*
X118749500Y-75622092D01*
X118727826Y-75674418D01*
X118703819Y-75690459D01*
X118576089Y-75743366D01*
X118412218Y-75852860D01*
X118412217Y-75852862D01*
X118272862Y-75992217D01*
X118272860Y-75992218D01*
X118163367Y-76156086D01*
X118087950Y-76338160D01*
X118087947Y-76338170D01*
X118049500Y-76531460D01*
X117510500Y-76531460D01*
X117510500Y-76531459D01*
X117472051Y-76338165D01*
X117396632Y-76156086D01*
X117287139Y-75992218D01*
X117147782Y-75852861D01*
X116983914Y-75743368D01*
X116983915Y-75743368D01*
X116983913Y-75743367D01*
X116801839Y-75667950D01*
X116801829Y-75667947D01*
X116672388Y-75642200D01*
X116608541Y-75629500D01*
X116411459Y-75629500D01*
X116356662Y-75640399D01*
X116218170Y-75667947D01*
X116218160Y-75667950D01*
X116090431Y-75720857D01*
X116033794Y-75720857D01*
X116009787Y-75704816D01*
X115052174Y-74747203D01*
X115030500Y-74694877D01*
X115030500Y-74649667D01*
X115052174Y-74597341D01*
X115076179Y-74581301D01*
X115156547Y-74548013D01*
X115304035Y-74449464D01*
X115429464Y-74324035D01*
X115528013Y-74176547D01*
X115595894Y-74012666D01*
X115630500Y-73838691D01*
X115630500Y-73661310D01*
X116369500Y-73661310D01*
X116369500Y-73838689D01*
X116404104Y-74012660D01*
X116404107Y-74012670D01*
X116471985Y-74176544D01*
X116471986Y-74176546D01*
X116471987Y-74176547D01*
X116570536Y-74324035D01*
X116695965Y-74449464D01*
X116843453Y-74548013D01*
X116843454Y-74548013D01*
X116843455Y-74548014D01*
X116965693Y-74598646D01*
X117007334Y-74615894D01*
X117181309Y-74650500D01*
X117181311Y-74650500D01*
X117358689Y-74650500D01*
X117358691Y-74650500D01*
X117532666Y-74615894D01*
X117696547Y-74548013D01*
X117844035Y-74449464D01*
X117969464Y-74324035D01*
X118068013Y-74176547D01*
X118135894Y-74012666D01*
X118170500Y-73838691D01*
X118170500Y-73661309D01*
X118135894Y-73487334D01*
X118068013Y-73323453D01*
X117969464Y-73175965D01*
X117844035Y-73050536D01*
X117696547Y-72951987D01*
X117696546Y-72951986D01*
X117696544Y-72951985D01*
X117532670Y-72884107D01*
X117532660Y-72884104D01*
X117416156Y-72860930D01*
X117358691Y-72849500D01*
X117181309Y-72849500D01*
X117131989Y-72859310D01*
X117007339Y-72884104D01*
X117007329Y-72884107D01*
X116843455Y-72951985D01*
X116695968Y-73050533D01*
X116570533Y-73175968D01*
X116471985Y-73323455D01*
X116404107Y-73487329D01*
X116404104Y-73487339D01*
X116369500Y-73661310D01*
X115630500Y-73661310D01*
X115630500Y-73661309D01*
X115595894Y-73487334D01*
X115528013Y-73323453D01*
X115429464Y-73175965D01*
X115304035Y-73050536D01*
X115156547Y-72951987D01*
X115156546Y-72951986D01*
X115156544Y-72951985D01*
X114992670Y-72884107D01*
X114992660Y-72884104D01*
X114876156Y-72860930D01*
X114818691Y-72849500D01*
X114641309Y-72849500D01*
X114591989Y-72859310D01*
X114467339Y-72884104D01*
X114467329Y-72884107D01*
X114303455Y-72951985D01*
X114155968Y-73050533D01*
X114030533Y-73175968D01*
X113931985Y-73323455D01*
X113864107Y-73487329D01*
X113864104Y-73487339D01*
X113829500Y-73661310D01*
X113829500Y-73838690D01*
X113846625Y-73924788D01*
X113835575Y-73980337D01*
X113788483Y-74011802D01*
X113732934Y-74000752D01*
X113721721Y-73991550D01*
X112132174Y-72402003D01*
X112110500Y-72349677D01*
X112110500Y-70817906D01*
X112132174Y-70765580D01*
X112156180Y-70749539D01*
X112283914Y-70696632D01*
X112447782Y-70587139D01*
X112587139Y-70447782D01*
X112696632Y-70283914D01*
X112772051Y-70101835D01*
X112810500Y-69908541D01*
X112810500Y-69711459D01*
X112772051Y-69518165D01*
X112696632Y-69336086D01*
X112587139Y-69172218D01*
X112447782Y-69032861D01*
X112283914Y-68923368D01*
X112283915Y-68923368D01*
X112283913Y-68923367D01*
X112101839Y-68847950D01*
X112101829Y-68847947D01*
X111972388Y-68822200D01*
X111908541Y-68809500D01*
X111711459Y-68809500D01*
X111656662Y-68820399D01*
X111518170Y-68847947D01*
X111518160Y-68847950D01*
X111336086Y-68923367D01*
X111172218Y-69032860D01*
X111172217Y-69032862D01*
X111032862Y-69172217D01*
X111032860Y-69172218D01*
X110923367Y-69336086D01*
X110847950Y-69518160D01*
X110847947Y-69518170D01*
X110809500Y-69711460D01*
X110809500Y-69908539D01*
X110847947Y-70101829D01*
X110847950Y-70101839D01*
X110923367Y-70283913D01*
X110923368Y-70283914D01*
X111032861Y-70447782D01*
X111172218Y-70587139D01*
X111336086Y-70696632D01*
X111463818Y-70749539D01*
X111503867Y-70789587D01*
X111509500Y-70817906D01*
X111509500Y-72544364D01*
X111529977Y-72620785D01*
X111529980Y-72620793D01*
X111536919Y-72632810D01*
X111536920Y-72632811D01*
X111569540Y-72689311D01*
X114487592Y-75607363D01*
X114509266Y-75659689D01*
X114487592Y-75712015D01*
X114435266Y-75733689D01*
X114406948Y-75728056D01*
X114261839Y-75667950D01*
X114261829Y-75667947D01*
X114132388Y-75642200D01*
X114068541Y-75629500D01*
X113871459Y-75629500D01*
X113816662Y-75640399D01*
X113678170Y-75667947D01*
X113678160Y-75667950D01*
X113496086Y-75743367D01*
X113332218Y-75852860D01*
X113332217Y-75852862D01*
X113192862Y-75992217D01*
X113192860Y-75992218D01*
X113083367Y-76156086D01*
X113007950Y-76338160D01*
X113007947Y-76338170D01*
X112969500Y-76531460D01*
X112969500Y-76728539D01*
X113007947Y-76921829D01*
X113007950Y-76921839D01*
X113083367Y-77103913D01*
X113163499Y-77223838D01*
X113192861Y-77267782D01*
X113332218Y-77407139D01*
X113496086Y-77516632D01*
X113678165Y-77592051D01*
X113871459Y-77630500D01*
X113871461Y-77630500D01*
X114068539Y-77630500D01*
X114068541Y-77630500D01*
X114261835Y-77592051D01*
X114443914Y-77516632D01*
X114607782Y-77407139D01*
X114747139Y-77267782D01*
X114803971Y-77182725D01*
X114851063Y-77151260D01*
X114906612Y-77162309D01*
X114938078Y-77209401D01*
X114939500Y-77223838D01*
X114939500Y-83019564D01*
X114959977Y-83095985D01*
X114959979Y-83095990D01*
X114999540Y-83164511D01*
X123204816Y-91369787D01*
X123226490Y-91422113D01*
X123220857Y-91450431D01*
X123167950Y-91578160D01*
X123167947Y-91578170D01*
X123129500Y-91771460D01*
X123129500Y-91968539D01*
X123167947Y-92161829D01*
X123167950Y-92161839D01*
X123243367Y-92343913D01*
X123352860Y-92507781D01*
X123492218Y-92647139D01*
X123656086Y-92756632D01*
X123822542Y-92825580D01*
X123838165Y-92832051D01*
X124031459Y-92870500D01*
X124031461Y-92870500D01*
X124138776Y-92870500D01*
X124191102Y-92892174D01*
X124212776Y-92944500D01*
X124191102Y-92996826D01*
X122043039Y-95144889D01*
X121990713Y-95166563D01*
X121938388Y-95144889D01*
X121844035Y-95050536D01*
X121696547Y-94951987D01*
X121696546Y-94951986D01*
X121696544Y-94951985D01*
X121532670Y-94884107D01*
X121532660Y-94884104D01*
X121416156Y-94860930D01*
X121358691Y-94849500D01*
X121181309Y-94849500D01*
X121131989Y-94859310D01*
X121007339Y-94884104D01*
X121007329Y-94884107D01*
X120843455Y-94951985D01*
X120695968Y-95050533D01*
X120570533Y-95175968D01*
X120471985Y-95323455D01*
X120404107Y-95487329D01*
X120404104Y-95487339D01*
X120369500Y-95661310D01*
X120369500Y-95838689D01*
X120404104Y-96012660D01*
X120404107Y-96012670D01*
X120471985Y-96176544D01*
X120471986Y-96176546D01*
X120471987Y-96176547D01*
X120570536Y-96324035D01*
X120695965Y-96449464D01*
X120843453Y-96548013D01*
X120843454Y-96548013D01*
X120843455Y-96548014D01*
X120894135Y-96569006D01*
X121007334Y-96615894D01*
X121106836Y-96635686D01*
X121153929Y-96667152D01*
X121166400Y-96708264D01*
X121166400Y-97662827D01*
X121144726Y-97715153D01*
X121092400Y-97736827D01*
X121040074Y-97715153D01*
X120987781Y-97662860D01*
X120823913Y-97553367D01*
X120641839Y-97477950D01*
X120641829Y-97477947D01*
X120481429Y-97446042D01*
X120448541Y-97439500D01*
X120251459Y-97439500D01*
X120218571Y-97446042D01*
X120058170Y-97477947D01*
X120058160Y-97477950D01*
X119876086Y-97553367D01*
X119712218Y-97662860D01*
X119712217Y-97662862D01*
X119572862Y-97802217D01*
X119572860Y-97802218D01*
X119463367Y-97966086D01*
X119387950Y-98148160D01*
X119387947Y-98148170D01*
X119362413Y-98276542D01*
X119349500Y-98341459D01*
X119349500Y-98538541D01*
X119357371Y-98578110D01*
X119387947Y-98731829D01*
X119387950Y-98731839D01*
X119463367Y-98913913D01*
X119564656Y-99065502D01*
X119572861Y-99077782D01*
X119712218Y-99217139D01*
X119876086Y-99326632D01*
X120058165Y-99402051D01*
X120251459Y-99440500D01*
X120251461Y-99440500D01*
X120448539Y-99440500D01*
X120448541Y-99440500D01*
X120641835Y-99402051D01*
X120823914Y-99326632D01*
X120987782Y-99217139D01*
X121040074Y-99164847D01*
X121092400Y-99143173D01*
X121144726Y-99164847D01*
X121166400Y-99217173D01*
X121166400Y-105282827D01*
X121144726Y-105335153D01*
X121092400Y-105356827D01*
X121040074Y-105335153D01*
X120987781Y-105282860D01*
X120823913Y-105173367D01*
X120641839Y-105097950D01*
X120641829Y-105097947D01*
X120512388Y-105072200D01*
X120448541Y-105059500D01*
X120251459Y-105059500D01*
X120196662Y-105070399D01*
X120058170Y-105097947D01*
X120058160Y-105097950D01*
X119876086Y-105173367D01*
X119712218Y-105282860D01*
X119712217Y-105282862D01*
X119572862Y-105422217D01*
X119572860Y-105422218D01*
X119463367Y-105586086D01*
X119387950Y-105768160D01*
X119387947Y-105768170D01*
X119349500Y-105961460D01*
X119349500Y-106158539D01*
X119387947Y-106351829D01*
X119387950Y-106351839D01*
X119463367Y-106533913D01*
X119545400Y-106656683D01*
X119572861Y-106697782D01*
X119712218Y-106837139D01*
X119876086Y-106946632D01*
X120058165Y-107022051D01*
X120251459Y-107060500D01*
X120251461Y-107060500D01*
X120448539Y-107060500D01*
X120448541Y-107060500D01*
X120641835Y-107022051D01*
X120823914Y-106946632D01*
X120987782Y-106837139D01*
X121040074Y-106784847D01*
X121092400Y-106763173D01*
X121144726Y-106784847D01*
X121166400Y-106837173D01*
X121166400Y-124172176D01*
X121144726Y-124224502D01*
X119518102Y-125851126D01*
X119465776Y-125872800D01*
X119355006Y-125872800D01*
X119227718Y-125906906D01*
X119227709Y-125906910D01*
X119171700Y-125939247D01*
X119115547Y-125946639D01*
X119070614Y-125912161D01*
X119060700Y-125875161D01*
X119060700Y-110092136D01*
X119060699Y-110092135D01*
X119057831Y-110081433D01*
X119040221Y-110015711D01*
X119000660Y-109947189D01*
X118944711Y-109891240D01*
X116862174Y-107808703D01*
X116840500Y-107756377D01*
X116840500Y-106653838D01*
X116862174Y-106601512D01*
X116914500Y-106579838D01*
X116966826Y-106601512D01*
X116976026Y-106612722D01*
X117032861Y-106697782D01*
X117172218Y-106837139D01*
X117336086Y-106946632D01*
X117518165Y-107022051D01*
X117711459Y-107060500D01*
X117711461Y-107060500D01*
X117908539Y-107060500D01*
X117908541Y-107060500D01*
X118101835Y-107022051D01*
X118283914Y-106946632D01*
X118447782Y-106837139D01*
X118587139Y-106697782D01*
X118696632Y-106533914D01*
X118772051Y-106351835D01*
X118810500Y-106158541D01*
X118810500Y-105961459D01*
X118772051Y-105768165D01*
X118696632Y-105586086D01*
X118587139Y-105422218D01*
X118447782Y-105282861D01*
X118447732Y-105282827D01*
X118283913Y-105173367D01*
X118101839Y-105097950D01*
X118101829Y-105097947D01*
X117972388Y-105072200D01*
X117908541Y-105059500D01*
X117711459Y-105059500D01*
X117656662Y-105070399D01*
X117518170Y-105097947D01*
X117518160Y-105097950D01*
X117336086Y-105173367D01*
X117172218Y-105282860D01*
X117172217Y-105282862D01*
X117032862Y-105422217D01*
X117032860Y-105422218D01*
X116976029Y-105507273D01*
X116928937Y-105538739D01*
X116873388Y-105527690D01*
X116841922Y-105480598D01*
X116840500Y-105466161D01*
X116840500Y-101228436D01*
X116840499Y-101228435D01*
X116820022Y-101152014D01*
X116820020Y-101152009D01*
X116780459Y-101083488D01*
X115263797Y-99566826D01*
X115242123Y-99514500D01*
X115263797Y-99462174D01*
X115316123Y-99440500D01*
X115368539Y-99440500D01*
X115368541Y-99440500D01*
X115561835Y-99402051D01*
X115743914Y-99326632D01*
X115907782Y-99217139D01*
X116047139Y-99077782D01*
X116156632Y-98913914D01*
X116232051Y-98731835D01*
X116270500Y-98538541D01*
X116270500Y-98341459D01*
X116809500Y-98341459D01*
X116809500Y-98538541D01*
X116817371Y-98578110D01*
X116847947Y-98731829D01*
X116847950Y-98731839D01*
X116923367Y-98913913D01*
X117024656Y-99065502D01*
X117032861Y-99077782D01*
X117172218Y-99217139D01*
X117336086Y-99326632D01*
X117518165Y-99402051D01*
X117711459Y-99440500D01*
X117711461Y-99440500D01*
X117908539Y-99440500D01*
X117908541Y-99440500D01*
X118101835Y-99402051D01*
X118283914Y-99326632D01*
X118447782Y-99217139D01*
X118587139Y-99077782D01*
X118696632Y-98913914D01*
X118772051Y-98731835D01*
X118810500Y-98538541D01*
X118810500Y-98341459D01*
X118772051Y-98148165D01*
X118696632Y-97966086D01*
X118587139Y-97802218D01*
X118447782Y-97662861D01*
X118447732Y-97662827D01*
X118283913Y-97553367D01*
X118101839Y-97477950D01*
X118101829Y-97477947D01*
X117941429Y-97446042D01*
X117908541Y-97439500D01*
X117711459Y-97439500D01*
X117678571Y-97446042D01*
X117518170Y-97477947D01*
X117518160Y-97477950D01*
X117336086Y-97553367D01*
X117172218Y-97662860D01*
X117172217Y-97662862D01*
X117032862Y-97802217D01*
X117032860Y-97802218D01*
X116923367Y-97966086D01*
X116847950Y-98148160D01*
X116847947Y-98148170D01*
X116822413Y-98276542D01*
X116809500Y-98341459D01*
X116270500Y-98341459D01*
X116232051Y-98148165D01*
X116156632Y-97966086D01*
X116047139Y-97802218D01*
X115907782Y-97662861D01*
X115907731Y-97662827D01*
X115844004Y-97620246D01*
X115743914Y-97553368D01*
X115743911Y-97553366D01*
X115743910Y-97553366D01*
X115616181Y-97500459D01*
X115576133Y-97460410D01*
X115570500Y-97432092D01*
X115570500Y-95661310D01*
X117829500Y-95661310D01*
X117829500Y-95838689D01*
X117864104Y-96012660D01*
X117864107Y-96012670D01*
X117931985Y-96176544D01*
X117931986Y-96176546D01*
X117931987Y-96176547D01*
X118030536Y-96324035D01*
X118155965Y-96449464D01*
X118303453Y-96548013D01*
X118303454Y-96548013D01*
X118303455Y-96548014D01*
X118354135Y-96569006D01*
X118467334Y-96615894D01*
X118641309Y-96650500D01*
X118641311Y-96650500D01*
X118818689Y-96650500D01*
X118818691Y-96650500D01*
X118992666Y-96615894D01*
X119156547Y-96548013D01*
X119304035Y-96449464D01*
X119429464Y-96324035D01*
X119528013Y-96176547D01*
X119595894Y-96012666D01*
X119630500Y-95838691D01*
X119630500Y-95661309D01*
X119595894Y-95487334D01*
X119528013Y-95323453D01*
X119429464Y-95175965D01*
X119420062Y-95166563D01*
X119372174Y-95118674D01*
X119350500Y-95066349D01*
X119350500Y-92877906D01*
X119372174Y-92825580D01*
X119396180Y-92809539D01*
X119523914Y-92756632D01*
X119687782Y-92647139D01*
X119827139Y-92507782D01*
X119936632Y-92343914D01*
X120012051Y-92161835D01*
X120050500Y-91968541D01*
X120050500Y-91771460D01*
X120589500Y-91771460D01*
X120589500Y-91968539D01*
X120627947Y-92161829D01*
X120627950Y-92161839D01*
X120703367Y-92343913D01*
X120812860Y-92507781D01*
X120952218Y-92647139D01*
X121116086Y-92756632D01*
X121282542Y-92825580D01*
X121298165Y-92832051D01*
X121491459Y-92870500D01*
X121491461Y-92870500D01*
X121688539Y-92870500D01*
X121688541Y-92870500D01*
X121881835Y-92832051D01*
X122063914Y-92756632D01*
X122227782Y-92647139D01*
X122367139Y-92507782D01*
X122476632Y-92343914D01*
X122552051Y-92161835D01*
X122590500Y-91968541D01*
X122590500Y-91771459D01*
X122552051Y-91578165D01*
X122490136Y-91428689D01*
X122476632Y-91396086D01*
X122367139Y-91232218D01*
X122227781Y-91092860D01*
X122063913Y-90983367D01*
X121881839Y-90907950D01*
X121881829Y-90907947D01*
X121752388Y-90882200D01*
X121688541Y-90869500D01*
X121491459Y-90869500D01*
X121436662Y-90880399D01*
X121298170Y-90907947D01*
X121298160Y-90907950D01*
X121116086Y-90983367D01*
X120952218Y-91092860D01*
X120952217Y-91092862D01*
X120812862Y-91232217D01*
X120812860Y-91232218D01*
X120703367Y-91396086D01*
X120627950Y-91578160D01*
X120627947Y-91578170D01*
X120589500Y-91771460D01*
X120050500Y-91771460D01*
X120050500Y-91771459D01*
X120012051Y-91578165D01*
X119950136Y-91428689D01*
X119936632Y-91396086D01*
X119827139Y-91232218D01*
X119687781Y-91092860D01*
X119523913Y-90983367D01*
X119341839Y-90907950D01*
X119341829Y-90907947D01*
X119212388Y-90882200D01*
X119148541Y-90869500D01*
X118951459Y-90869500D01*
X118896662Y-90880399D01*
X118758170Y-90907947D01*
X118758160Y-90907950D01*
X118576086Y-90983367D01*
X118412218Y-91092860D01*
X118412217Y-91092862D01*
X118272862Y-91232217D01*
X118272860Y-91232218D01*
X118163367Y-91396086D01*
X118087950Y-91578160D01*
X118087947Y-91578170D01*
X118049500Y-91771460D01*
X118049500Y-91968539D01*
X118087947Y-92161829D01*
X118087950Y-92161839D01*
X118163367Y-92343913D01*
X118255593Y-92481938D01*
X118272861Y-92507782D01*
X118412218Y-92647139D01*
X118576086Y-92756632D01*
X118703818Y-92809539D01*
X118743867Y-92849587D01*
X118749500Y-92877906D01*
X118749500Y-94775500D01*
X118727826Y-94827826D01*
X118675500Y-94849500D01*
X118641309Y-94849500D01*
X118591989Y-94859310D01*
X118467339Y-94884104D01*
X118467329Y-94884107D01*
X118303455Y-94951985D01*
X118155968Y-95050533D01*
X118030533Y-95175968D01*
X117931985Y-95323455D01*
X117864107Y-95487329D01*
X117864104Y-95487339D01*
X117829500Y-95661310D01*
X115570500Y-95661310D01*
X115570500Y-93130440D01*
X115570500Y-93130438D01*
X115550022Y-93054012D01*
X115524474Y-93009762D01*
X115510462Y-92985492D01*
X115510461Y-92985491D01*
X115510460Y-92985489D01*
X114895183Y-92370212D01*
X114873509Y-92317886D01*
X114879142Y-92289567D01*
X114932051Y-92161835D01*
X114970500Y-91968541D01*
X114970500Y-91771460D01*
X115509500Y-91771460D01*
X115509500Y-91968539D01*
X115547947Y-92161829D01*
X115547950Y-92161839D01*
X115623367Y-92343913D01*
X115732860Y-92507781D01*
X115872218Y-92647139D01*
X116036086Y-92756632D01*
X116202542Y-92825580D01*
X116218165Y-92832051D01*
X116411459Y-92870500D01*
X116411461Y-92870500D01*
X116608539Y-92870500D01*
X116608541Y-92870500D01*
X116801835Y-92832051D01*
X116983914Y-92756632D01*
X117147782Y-92647139D01*
X117287139Y-92507782D01*
X117396632Y-92343914D01*
X117472051Y-92161835D01*
X117510500Y-91968541D01*
X117510500Y-91771459D01*
X117472051Y-91578165D01*
X117410136Y-91428689D01*
X117396632Y-91396086D01*
X117287139Y-91232218D01*
X117147781Y-91092860D01*
X116983913Y-90983367D01*
X116801839Y-90907950D01*
X116801829Y-90907947D01*
X116672388Y-90882200D01*
X116608541Y-90869500D01*
X116411459Y-90869500D01*
X116356662Y-90880399D01*
X116218170Y-90907947D01*
X116218160Y-90907950D01*
X116036086Y-90983367D01*
X115872218Y-91092860D01*
X115872217Y-91092862D01*
X115732862Y-91232217D01*
X115732860Y-91232218D01*
X115623367Y-91396086D01*
X115547950Y-91578160D01*
X115547947Y-91578170D01*
X115509500Y-91771460D01*
X114970500Y-91771460D01*
X114970500Y-91771459D01*
X114932051Y-91578165D01*
X114870136Y-91428689D01*
X114856632Y-91396086D01*
X114747139Y-91232218D01*
X114607781Y-91092860D01*
X114443913Y-90983367D01*
X114261839Y-90907950D01*
X114261829Y-90907947D01*
X114132388Y-90882200D01*
X114068541Y-90869500D01*
X113871459Y-90869500D01*
X113816662Y-90880399D01*
X113678170Y-90907947D01*
X113678160Y-90907950D01*
X113496086Y-90983367D01*
X113332218Y-91092860D01*
X113332217Y-91092862D01*
X113192862Y-91232217D01*
X113192860Y-91232218D01*
X113083367Y-91396086D01*
X113007950Y-91578160D01*
X113007947Y-91578170D01*
X112969500Y-91771460D01*
X112969500Y-91968539D01*
X113007947Y-92161829D01*
X113007950Y-92161839D01*
X113083367Y-92343913D01*
X113192860Y-92507781D01*
X113332218Y-92647139D01*
X113496086Y-92756632D01*
X113662542Y-92825580D01*
X113678165Y-92832051D01*
X113871459Y-92870500D01*
X113871461Y-92870500D01*
X114068539Y-92870500D01*
X114068541Y-92870500D01*
X114261835Y-92832051D01*
X114389568Y-92779142D01*
X114446204Y-92779142D01*
X114470212Y-92795183D01*
X114947826Y-93272797D01*
X114969500Y-93325123D01*
X114969500Y-97432092D01*
X114947826Y-97484418D01*
X114923819Y-97500459D01*
X114796089Y-97553366D01*
X114632218Y-97662860D01*
X114632217Y-97662862D01*
X114595126Y-97699953D01*
X114542800Y-97721627D01*
X114490474Y-97699953D01*
X114468800Y-97647627D01*
X114468800Y-97053039D01*
X114456761Y-97008107D01*
X114456761Y-97008106D01*
X114448323Y-96976615D01*
X114448321Y-96976610D01*
X114408762Y-96908092D01*
X114408761Y-96908091D01*
X114408760Y-96908089D01*
X114232774Y-96732103D01*
X114211100Y-96679777D01*
X114211100Y-96569006D01*
X114211099Y-96569005D01*
X114189366Y-96487897D01*
X114176992Y-96441714D01*
X114111100Y-96327586D01*
X114017914Y-96234400D01*
X113992959Y-96219992D01*
X113903790Y-96168510D01*
X113903781Y-96168506D01*
X113776494Y-96134400D01*
X113776492Y-96134400D01*
X113644708Y-96134400D01*
X113644706Y-96134400D01*
X113517418Y-96168506D01*
X113517409Y-96168510D01*
X113403285Y-96234400D01*
X113310100Y-96327585D01*
X113244210Y-96441709D01*
X113244206Y-96441718D01*
X113210100Y-96569005D01*
X113210100Y-96700794D01*
X113244206Y-96828081D01*
X113244210Y-96828090D01*
X113291206Y-96909489D01*
X113310100Y-96942214D01*
X113403286Y-97035400D01*
X113517414Y-97101292D01*
X113644705Y-97135399D01*
X113644706Y-97135400D01*
X113755477Y-97135400D01*
X113807803Y-97157074D01*
X113846126Y-97195397D01*
X113867800Y-97247723D01*
X113867800Y-98280379D01*
X113846126Y-98332705D01*
X113793800Y-98354379D01*
X113741474Y-98332705D01*
X113721222Y-98294816D01*
X113692052Y-98148170D01*
X113692051Y-98148169D01*
X113692051Y-98148165D01*
X113616632Y-97966086D01*
X113507139Y-97802218D01*
X113367782Y-97662861D01*
X113367731Y-97662827D01*
X113304004Y-97620246D01*
X113203914Y-97553368D01*
X113203911Y-97553366D01*
X113203910Y-97553366D01*
X113076181Y-97500459D01*
X113036133Y-97460410D01*
X113030500Y-97432092D01*
X113030500Y-93130440D01*
X113030500Y-93130438D01*
X113010022Y-93054012D01*
X112984474Y-93009762D01*
X112970462Y-92985492D01*
X112970461Y-92985491D01*
X112970460Y-92985489D01*
X112355183Y-92370212D01*
X112333509Y-92317886D01*
X112339142Y-92289567D01*
X112392051Y-92161835D01*
X112430500Y-91968541D01*
X112430500Y-91771459D01*
X112392051Y-91578165D01*
X112330136Y-91428689D01*
X112316632Y-91396086D01*
X112207139Y-91232218D01*
X112067781Y-91092860D01*
X111903913Y-90983367D01*
X111721839Y-90907950D01*
X111721829Y-90907947D01*
X111592388Y-90882200D01*
X111528541Y-90869500D01*
X111331459Y-90869500D01*
X111276662Y-90880399D01*
X111138170Y-90907947D01*
X111138160Y-90907950D01*
X110956086Y-90983367D01*
X110792218Y-91092860D01*
X110792217Y-91092862D01*
X110652862Y-91232217D01*
X110652858Y-91232220D01*
X110551677Y-91383648D01*
X110504585Y-91415113D01*
X110449036Y-91404063D01*
X110426063Y-91379534D01*
X110400463Y-91335194D01*
X110400463Y-91335193D01*
X110400461Y-91335191D01*
X110400460Y-91335189D01*
X109131111Y-90065840D01*
X109131108Y-90065838D01*
X109062590Y-90026279D01*
X109062585Y-90026277D01*
X108986164Y-90005800D01*
X108986162Y-90005800D01*
X102873262Y-90005800D01*
X102794138Y-90005800D01*
X102717712Y-90026278D01*
X102717711Y-90026278D01*
X102717709Y-90026279D01*
X102717707Y-90026280D01*
X102649190Y-90065838D01*
X101770211Y-90944816D01*
X101717885Y-90966490D01*
X101689567Y-90960857D01*
X101561839Y-90907950D01*
X101561829Y-90907947D01*
X101432388Y-90882200D01*
X101368541Y-90869500D01*
X101171459Y-90869500D01*
X101116662Y-90880399D01*
X100978170Y-90907947D01*
X100978160Y-90907950D01*
X100796086Y-90983367D01*
X100632218Y-91092860D01*
X100632217Y-91092862D01*
X100492862Y-91232217D01*
X100492860Y-91232218D01*
X100383367Y-91396086D01*
X100307950Y-91578160D01*
X100307947Y-91578170D01*
X100269500Y-91771460D01*
X100269500Y-91968539D01*
X100307947Y-92161829D01*
X100307950Y-92161839D01*
X100383367Y-92343913D01*
X100492860Y-92507781D01*
X100632218Y-92647139D01*
X100796086Y-92756632D01*
X100962542Y-92825580D01*
X100978165Y-92832051D01*
X101171459Y-92870500D01*
X101171461Y-92870500D01*
X101368539Y-92870500D01*
X101368541Y-92870500D01*
X101561835Y-92832051D01*
X101743914Y-92756632D01*
X101907782Y-92647139D01*
X102047139Y-92507782D01*
X102156632Y-92343914D01*
X102232051Y-92161835D01*
X102270500Y-91968541D01*
X102270500Y-91771459D01*
X102232051Y-91578165D01*
X102230175Y-91573635D01*
X102179142Y-91450430D01*
X102179142Y-91393793D01*
X102195180Y-91369789D01*
X102936497Y-90628474D01*
X102988823Y-90606800D01*
X104469577Y-90606800D01*
X104521903Y-90628474D01*
X104543577Y-90680800D01*
X104521903Y-90733126D01*
X104310211Y-90944816D01*
X104257885Y-90966490D01*
X104229567Y-90960857D01*
X104101839Y-90907950D01*
X104101829Y-90907947D01*
X103972388Y-90882200D01*
X103908541Y-90869500D01*
X103711459Y-90869500D01*
X103656662Y-90880399D01*
X103518170Y-90907947D01*
X103518160Y-90907950D01*
X103336086Y-90983367D01*
X103172218Y-91092860D01*
X103172217Y-91092862D01*
X103032862Y-91232217D01*
X103032860Y-91232218D01*
X102923367Y-91396086D01*
X102847950Y-91578160D01*
X102847947Y-91578170D01*
X102809500Y-91771460D01*
X102809500Y-91968539D01*
X102847947Y-92161829D01*
X102847950Y-92161839D01*
X102923367Y-92343913D01*
X103032860Y-92507781D01*
X103172218Y-92647139D01*
X103336086Y-92756632D01*
X103502542Y-92825580D01*
X103518165Y-92832051D01*
X103711459Y-92870500D01*
X103711461Y-92870500D01*
X103908539Y-92870500D01*
X103908541Y-92870500D01*
X104101835Y-92832051D01*
X104283914Y-92756632D01*
X104447782Y-92647139D01*
X104587139Y-92507782D01*
X104696632Y-92343914D01*
X104772051Y-92161835D01*
X104810500Y-91968541D01*
X104810500Y-91771459D01*
X104772051Y-91578165D01*
X104719142Y-91450431D01*
X104719142Y-91393794D01*
X104735183Y-91369787D01*
X105051597Y-91053374D01*
X105103923Y-91031700D01*
X105594727Y-91031700D01*
X105647053Y-91053374D01*
X105668727Y-91105700D01*
X105647053Y-91158026D01*
X105572862Y-91232217D01*
X105572860Y-91232218D01*
X105463367Y-91396086D01*
X105387950Y-91578160D01*
X105387947Y-91578170D01*
X105349500Y-91771460D01*
X105349500Y-91968539D01*
X105387947Y-92161829D01*
X105387950Y-92161839D01*
X105463367Y-92343913D01*
X105555593Y-92481938D01*
X105572861Y-92507782D01*
X105712218Y-92647139D01*
X105876086Y-92756632D01*
X106003818Y-92809539D01*
X106043867Y-92849587D01*
X106049500Y-92877906D01*
X106049500Y-97801263D01*
X106027826Y-97853589D01*
X105975500Y-97875263D01*
X105923174Y-97853589D01*
X105913971Y-97842375D01*
X105887139Y-97802218D01*
X105747781Y-97662860D01*
X105583913Y-97553367D01*
X105401839Y-97477950D01*
X105401829Y-97477947D01*
X105241429Y-97446042D01*
X105208541Y-97439500D01*
X105011459Y-97439500D01*
X104978571Y-97446042D01*
X104818170Y-97477947D01*
X104818160Y-97477950D01*
X104636086Y-97553367D01*
X104472218Y-97662860D01*
X104472217Y-97662862D01*
X104332862Y-97802217D01*
X104332860Y-97802218D01*
X104223367Y-97966086D01*
X104147950Y-98148160D01*
X104147947Y-98148170D01*
X104122413Y-98276542D01*
X104109500Y-98341459D01*
X104109500Y-98538541D01*
X104117371Y-98578110D01*
X104147947Y-98731829D01*
X104147950Y-98731839D01*
X104223367Y-98913913D01*
X104324656Y-99065502D01*
X104332861Y-99077782D01*
X104472218Y-99217139D01*
X104636086Y-99326632D01*
X104818165Y-99402051D01*
X105011459Y-99440500D01*
X105011461Y-99440500D01*
X105208539Y-99440500D01*
X105208541Y-99440500D01*
X105401835Y-99402051D01*
X105583914Y-99326632D01*
X105747782Y-99217139D01*
X105887139Y-99077782D01*
X105913972Y-99037623D01*
X105961063Y-99006158D01*
X106016612Y-99017207D01*
X106048078Y-99064299D01*
X106049500Y-99078736D01*
X106049500Y-104664876D01*
X106027826Y-104717202D01*
X105610211Y-105134816D01*
X105557885Y-105156490D01*
X105529567Y-105150857D01*
X105401839Y-105097950D01*
X105401829Y-105097947D01*
X105272388Y-105072200D01*
X105208541Y-105059500D01*
X105011459Y-105059500D01*
X104956662Y-105070399D01*
X104818170Y-105097947D01*
X104818160Y-105097950D01*
X104636086Y-105173367D01*
X104472218Y-105282860D01*
X104472217Y-105282862D01*
X104332862Y-105422217D01*
X104332860Y-105422218D01*
X104276029Y-105507273D01*
X104228937Y-105538739D01*
X104173388Y-105527690D01*
X104141922Y-105480598D01*
X104140500Y-105466161D01*
X104140500Y-104303836D01*
X104140499Y-104303835D01*
X104120022Y-104227414D01*
X104120020Y-104227409D01*
X104080459Y-104158888D01*
X99063274Y-99141703D01*
X99041600Y-99089377D01*
X99041600Y-98978606D01*
X99041599Y-98978605D01*
X99036951Y-98961260D01*
X99007492Y-98851314D01*
X98941600Y-98737186D01*
X98848414Y-98644000D01*
X98771546Y-98599620D01*
X98734290Y-98578110D01*
X98734281Y-98578106D01*
X98606994Y-98544000D01*
X98606992Y-98544000D01*
X98475208Y-98544000D01*
X98475206Y-98544000D01*
X98347918Y-98578106D01*
X98347909Y-98578110D01*
X98233785Y-98644000D01*
X98140600Y-98737185D01*
X98074710Y-98851309D01*
X98074706Y-98851318D01*
X98040600Y-98978605D01*
X98040600Y-99110394D01*
X98074706Y-99237681D01*
X98074710Y-99237690D01*
X98091908Y-99267477D01*
X98140600Y-99351814D01*
X98233786Y-99445000D01*
X98347914Y-99510892D01*
X98475205Y-99544999D01*
X98475206Y-99545000D01*
X98585977Y-99545000D01*
X98638303Y-99566674D01*
X103517826Y-104446197D01*
X103539500Y-104498523D01*
X103539500Y-105466161D01*
X103517826Y-105518487D01*
X103465500Y-105540161D01*
X103413174Y-105518487D01*
X103403971Y-105507273D01*
X103347139Y-105422218D01*
X103207781Y-105282860D01*
X103043913Y-105173367D01*
X102861839Y-105097950D01*
X102861829Y-105097947D01*
X102732388Y-105072200D01*
X102668541Y-105059500D01*
X102471459Y-105059500D01*
X102416662Y-105070399D01*
X102278170Y-105097947D01*
X102278160Y-105097950D01*
X102150431Y-105150857D01*
X102093794Y-105150857D01*
X102069787Y-105134816D01*
X101932924Y-104997953D01*
X101911250Y-104945627D01*
X101921167Y-104908623D01*
X101922690Y-104905985D01*
X101925692Y-104900786D01*
X101959800Y-104773492D01*
X101959800Y-104641708D01*
X101959800Y-104641706D01*
X101959799Y-104641705D01*
X101957969Y-104634877D01*
X101925692Y-104514414D01*
X101859800Y-104400286D01*
X101766614Y-104307100D01*
X101760959Y-104303835D01*
X101652490Y-104241210D01*
X101652481Y-104241206D01*
X101525194Y-104207100D01*
X101525192Y-104207100D01*
X101393408Y-104207100D01*
X101393406Y-104207100D01*
X101266118Y-104241206D01*
X101266109Y-104241210D01*
X101151985Y-104307100D01*
X101058800Y-104400285D01*
X100992910Y-104514409D01*
X100992906Y-104514418D01*
X100958800Y-104641705D01*
X100958800Y-104773494D01*
X100992906Y-104900781D01*
X100992910Y-104900790D01*
X101052793Y-105004510D01*
X101058800Y-105014914D01*
X101151986Y-105108100D01*
X101240894Y-105159431D01*
X101256219Y-105171190D01*
X101644816Y-105559787D01*
X101666490Y-105612113D01*
X101660857Y-105640431D01*
X101607950Y-105768160D01*
X101607947Y-105768170D01*
X101569500Y-105961460D01*
X101569500Y-106158539D01*
X101607947Y-106351829D01*
X101607950Y-106351839D01*
X101683367Y-106533913D01*
X101765400Y-106656683D01*
X101792861Y-106697782D01*
X101932218Y-106837139D01*
X102096086Y-106946632D01*
X102278165Y-107022051D01*
X102471459Y-107060500D01*
X102471461Y-107060500D01*
X102668539Y-107060500D01*
X102668541Y-107060500D01*
X102861835Y-107022051D01*
X103043914Y-106946632D01*
X103207782Y-106837139D01*
X103347139Y-106697782D01*
X103403971Y-106612725D01*
X103451063Y-106581260D01*
X103506612Y-106592309D01*
X103538078Y-106639401D01*
X103539500Y-106653838D01*
X103539500Y-108899564D01*
X103559977Y-108975985D01*
X103559979Y-108975990D01*
X103599540Y-109044511D01*
X104080562Y-109525533D01*
X104102236Y-109577859D01*
X104080562Y-109630185D01*
X104028236Y-109651859D01*
X104013800Y-109650437D01*
X103936400Y-109635041D01*
X103908541Y-109629500D01*
X103711459Y-109629500D01*
X103656662Y-109640399D01*
X103518170Y-109667947D01*
X103518160Y-109667950D01*
X103336086Y-109743367D01*
X103172218Y-109852860D01*
X103172217Y-109852862D01*
X103032862Y-109992217D01*
X103032860Y-109992218D01*
X102923367Y-110156086D01*
X102847950Y-110338160D01*
X102847947Y-110338170D01*
X102809500Y-110531460D01*
X102809500Y-110728539D01*
X102847947Y-110921829D01*
X102847950Y-110921839D01*
X102923367Y-111103913D01*
X103032860Y-111267781D01*
X103172218Y-111407139D01*
X103336086Y-111516632D01*
X103502542Y-111585580D01*
X103518165Y-111592051D01*
X103711459Y-111630500D01*
X103711461Y-111630500D01*
X103908539Y-111630500D01*
X103908541Y-111630500D01*
X104101835Y-111592051D01*
X104283914Y-111516632D01*
X104447782Y-111407139D01*
X104587139Y-111267782D01*
X104643971Y-111182725D01*
X104691063Y-111151260D01*
X104746612Y-111162309D01*
X104778078Y-111209401D01*
X104779500Y-111223838D01*
X104779500Y-114923364D01*
X104799977Y-114999785D01*
X104799979Y-114999790D01*
X104839540Y-115068311D01*
X113215926Y-123444697D01*
X113237600Y-123497023D01*
X113237600Y-123607794D01*
X113271706Y-123735081D01*
X113271710Y-123735090D01*
X113316807Y-123813200D01*
X113324200Y-123869353D01*
X113289721Y-123914286D01*
X113252721Y-123924200D01*
X103927962Y-123924200D01*
X103848838Y-123924200D01*
X103772412Y-123944678D01*
X103772411Y-123944678D01*
X103772409Y-123944679D01*
X103772407Y-123944680D01*
X103703892Y-123984237D01*
X102355489Y-125332640D01*
X102299540Y-125388588D01*
X102259979Y-125457109D01*
X102259977Y-125457114D01*
X102239500Y-125533535D01*
X102239500Y-128421377D01*
X102217826Y-128473703D01*
X101937040Y-128754488D01*
X101897479Y-128823009D01*
X101897477Y-128823014D01*
X101877000Y-128899435D01*
X101877000Y-129987377D01*
X101855326Y-130039703D01*
X99127203Y-132767826D01*
X99074877Y-132789500D01*
X98808340Y-132789500D01*
X98756014Y-132767826D01*
X98734340Y-132715500D01*
X98756014Y-132663174D01*
X98782710Y-132647760D01*
X98782208Y-132646546D01*
X98786676Y-132644694D01*
X98786686Y-132644692D01*
X98900814Y-132578800D01*
X98994000Y-132485614D01*
X99059892Y-132371486D01*
X99093999Y-132244194D01*
X99094000Y-132244194D01*
X99094000Y-132112406D01*
X99093999Y-132112405D01*
X99059893Y-131985118D01*
X99059892Y-131985114D01*
X98994000Y-131870986D01*
X98900814Y-131777800D01*
X98823932Y-131733412D01*
X98786690Y-131711910D01*
X98786681Y-131711906D01*
X98659394Y-131677800D01*
X98659392Y-131677800D01*
X98548623Y-131677800D01*
X98496297Y-131656126D01*
X97923774Y-131083603D01*
X97902100Y-131031277D01*
X97902100Y-126635673D01*
X97923774Y-126583347D01*
X97976100Y-126561673D01*
X98028426Y-126583347D01*
X98092218Y-126647139D01*
X98256086Y-126756632D01*
X98430999Y-126829083D01*
X98438165Y-126832051D01*
X98631459Y-126870500D01*
X98631461Y-126870500D01*
X98828539Y-126870500D01*
X98828541Y-126870500D01*
X99021835Y-126832051D01*
X99203914Y-126756632D01*
X99367782Y-126647139D01*
X99507139Y-126507782D01*
X99616632Y-126343914D01*
X99692051Y-126161835D01*
X99730500Y-125968541D01*
X99730500Y-125771459D01*
X99692051Y-125578165D01*
X99616632Y-125396086D01*
X99507139Y-125232218D01*
X99367782Y-125092861D01*
X99305283Y-125051100D01*
X99203913Y-124983367D01*
X99021839Y-124907950D01*
X99021829Y-124907947D01*
X98892388Y-124882200D01*
X98828541Y-124869500D01*
X98631459Y-124869500D01*
X98576662Y-124880399D01*
X98438170Y-124907947D01*
X98438160Y-124907950D01*
X98256086Y-124983367D01*
X98092218Y-125092860D01*
X98092217Y-125092862D01*
X98028426Y-125156653D01*
X97976100Y-125178327D01*
X97923774Y-125156653D01*
X97902100Y-125104327D01*
X97902100Y-112002036D01*
X97902099Y-112002035D01*
X97881622Y-111925614D01*
X97881620Y-111925609D01*
X97842059Y-111857088D01*
X97115183Y-111130212D01*
X97093509Y-111077886D01*
X97099142Y-111049567D01*
X97152051Y-110921835D01*
X97190500Y-110728541D01*
X97190500Y-110531460D01*
X97729500Y-110531460D01*
X97729500Y-110728539D01*
X97767947Y-110921829D01*
X97767950Y-110921839D01*
X97843367Y-111103913D01*
X97952860Y-111267781D01*
X98092218Y-111407139D01*
X98256086Y-111516632D01*
X98422542Y-111585580D01*
X98438165Y-111592051D01*
X98631459Y-111630500D01*
X98631461Y-111630500D01*
X98828539Y-111630500D01*
X98828541Y-111630500D01*
X99021835Y-111592051D01*
X99203914Y-111516632D01*
X99367782Y-111407139D01*
X99507139Y-111267782D01*
X99616632Y-111103914D01*
X99692051Y-110921835D01*
X99730500Y-110728541D01*
X99730500Y-110531460D01*
X100269500Y-110531460D01*
X100269500Y-110728539D01*
X100307947Y-110921829D01*
X100307950Y-110921839D01*
X100383367Y-111103913D01*
X100492860Y-111267781D01*
X100632218Y-111407139D01*
X100796086Y-111516632D01*
X100962542Y-111585580D01*
X100978165Y-111592051D01*
X101171459Y-111630500D01*
X101171461Y-111630500D01*
X101368539Y-111630500D01*
X101368541Y-111630500D01*
X101561835Y-111592051D01*
X101743914Y-111516632D01*
X101907782Y-111407139D01*
X102047139Y-111267782D01*
X102156632Y-111103914D01*
X102232051Y-110921835D01*
X102270500Y-110728541D01*
X102270500Y-110531459D01*
X102232051Y-110338165D01*
X102156632Y-110156086D01*
X102047139Y-109992218D01*
X101907782Y-109852861D01*
X101844014Y-109810252D01*
X101743913Y-109743367D01*
X101561839Y-109667950D01*
X101561829Y-109667947D01*
X101427023Y-109641133D01*
X101368541Y-109629500D01*
X101171459Y-109629500D01*
X101116662Y-109640399D01*
X100978170Y-109667947D01*
X100978160Y-109667950D01*
X100796086Y-109743367D01*
X100632218Y-109852860D01*
X100632217Y-109852862D01*
X100492862Y-109992217D01*
X100492860Y-109992218D01*
X100383367Y-110156086D01*
X100307950Y-110338160D01*
X100307947Y-110338170D01*
X100269500Y-110531460D01*
X99730500Y-110531460D01*
X99730500Y-110531459D01*
X99692051Y-110338165D01*
X99616632Y-110156086D01*
X99507139Y-109992218D01*
X99367782Y-109852861D01*
X99304014Y-109810252D01*
X99203913Y-109743367D01*
X99021839Y-109667950D01*
X99021829Y-109667947D01*
X98887023Y-109641133D01*
X98828541Y-109629500D01*
X98631459Y-109629500D01*
X98576662Y-109640399D01*
X98438170Y-109667947D01*
X98438160Y-109667950D01*
X98256086Y-109743367D01*
X98092218Y-109852860D01*
X98092217Y-109852862D01*
X97952862Y-109992217D01*
X97952860Y-109992218D01*
X97843367Y-110156086D01*
X97767950Y-110338160D01*
X97767947Y-110338170D01*
X97729500Y-110531460D01*
X97190500Y-110531460D01*
X97190500Y-110531459D01*
X97152051Y-110338165D01*
X97076632Y-110156086D01*
X96967139Y-109992218D01*
X96827782Y-109852861D01*
X96764014Y-109810252D01*
X96663913Y-109743367D01*
X96481839Y-109667950D01*
X96481829Y-109667947D01*
X96347023Y-109641133D01*
X96288541Y-109629500D01*
X96091459Y-109629500D01*
X96036662Y-109640399D01*
X95898170Y-109667947D01*
X95898160Y-109667950D01*
X95716086Y-109743367D01*
X95552218Y-109852860D01*
X95552217Y-109852862D01*
X95412862Y-109992217D01*
X95412860Y-109992218D01*
X95356029Y-110077273D01*
X95308937Y-110108739D01*
X95253388Y-110097690D01*
X95221922Y-110050598D01*
X95220500Y-110036161D01*
X95220500Y-108050437D01*
X95214351Y-108027488D01*
X95214351Y-108027487D01*
X95200023Y-107974016D01*
X95200022Y-107974012D01*
X95160460Y-107905489D01*
X93815183Y-106560212D01*
X93793509Y-106507886D01*
X93799142Y-106479567D01*
X93799674Y-106478283D01*
X93852051Y-106351835D01*
X93890500Y-106158541D01*
X93890500Y-105961459D01*
X93852051Y-105768165D01*
X93776632Y-105586086D01*
X93667139Y-105422218D01*
X93527782Y-105282861D01*
X93527732Y-105282827D01*
X93363913Y-105173367D01*
X93181839Y-105097950D01*
X93181829Y-105097947D01*
X93052388Y-105072200D01*
X92988541Y-105059500D01*
X92791459Y-105059500D01*
X92736662Y-105070399D01*
X92598170Y-105097947D01*
X92598160Y-105097950D01*
X92416086Y-105173367D01*
X92252218Y-105282860D01*
X92252217Y-105282862D01*
X92211726Y-105323353D01*
X92159400Y-105345027D01*
X92107074Y-105323353D01*
X92085400Y-105271027D01*
X92085400Y-101662722D01*
X92107073Y-101610397D01*
X92780996Y-100936473D01*
X92833322Y-100914800D01*
X92944094Y-100914800D01*
X92944094Y-100914799D01*
X93071386Y-100880692D01*
X93185514Y-100814800D01*
X93278700Y-100721614D01*
X93344592Y-100607486D01*
X93378699Y-100480194D01*
X93378700Y-100480194D01*
X93378700Y-100348406D01*
X93378699Y-100348405D01*
X93344593Y-100221118D01*
X93344592Y-100221114D01*
X93278700Y-100106986D01*
X93185514Y-100013800D01*
X93071390Y-99947910D01*
X93071381Y-99947906D01*
X92944094Y-99913800D01*
X92944092Y-99913800D01*
X92812308Y-99913800D01*
X92812306Y-99913800D01*
X92685018Y-99947906D01*
X92685009Y-99947910D01*
X92570885Y-100013800D01*
X92477700Y-100106985D01*
X92411810Y-100221109D01*
X92411806Y-100221118D01*
X92377700Y-100348405D01*
X92377700Y-100459176D01*
X92356026Y-100511502D01*
X91600389Y-101267140D01*
X91544440Y-101323088D01*
X91504879Y-101391609D01*
X91504877Y-101391614D01*
X91484400Y-101468035D01*
X91484400Y-105883286D01*
X91462726Y-105935612D01*
X91410400Y-105957286D01*
X91358074Y-105935612D01*
X91337822Y-105897723D01*
X91312052Y-105768170D01*
X91312051Y-105768169D01*
X91312051Y-105768165D01*
X91236632Y-105586086D01*
X91127139Y-105422218D01*
X90987782Y-105282861D01*
X90987731Y-105282827D01*
X90933650Y-105246691D01*
X90823914Y-105173368D01*
X90823911Y-105173366D01*
X90823910Y-105173366D01*
X90696181Y-105120459D01*
X90656133Y-105080410D01*
X90650500Y-105052092D01*
X90650500Y-100730023D01*
X90672174Y-100677697D01*
X91128762Y-100221109D01*
X91742760Y-99607111D01*
X91782321Y-99538589D01*
X91802799Y-99462164D01*
X91802800Y-99462164D01*
X91802800Y-98801721D01*
X91824474Y-98749395D01*
X91876800Y-98727721D01*
X91929126Y-98749395D01*
X91945167Y-98773403D01*
X92003367Y-98913913D01*
X92104656Y-99065502D01*
X92112861Y-99077782D01*
X92252218Y-99217139D01*
X92416086Y-99326632D01*
X92598165Y-99402051D01*
X92791459Y-99440500D01*
X92791461Y-99440500D01*
X92988539Y-99440500D01*
X92988541Y-99440500D01*
X93181835Y-99402051D01*
X93363914Y-99326632D01*
X93527782Y-99217139D01*
X93667139Y-99077782D01*
X93776632Y-98913914D01*
X93852051Y-98731835D01*
X93854422Y-98719916D01*
X93885887Y-98672824D01*
X93941436Y-98661774D01*
X93988528Y-98693239D01*
X94001000Y-98734352D01*
X94001000Y-104971064D01*
X94021477Y-105047485D01*
X94021479Y-105047490D01*
X94047011Y-105091712D01*
X94061040Y-105116011D01*
X94504816Y-105559787D01*
X94526490Y-105612113D01*
X94520857Y-105640431D01*
X94467950Y-105768160D01*
X94467947Y-105768170D01*
X94429500Y-105961460D01*
X94429500Y-106158539D01*
X94467947Y-106351829D01*
X94467950Y-106351839D01*
X94543367Y-106533913D01*
X94625400Y-106656683D01*
X94652861Y-106697782D01*
X94792218Y-106837139D01*
X94956086Y-106946632D01*
X95138165Y-107022051D01*
X95331459Y-107060500D01*
X95331461Y-107060500D01*
X95528539Y-107060500D01*
X95528541Y-107060500D01*
X95721835Y-107022051D01*
X95903914Y-106946632D01*
X96067782Y-106837139D01*
X96207139Y-106697782D01*
X96316632Y-106533914D01*
X96392051Y-106351835D01*
X96430500Y-106158541D01*
X96430500Y-105961459D01*
X96392051Y-105768165D01*
X96316632Y-105586086D01*
X96207139Y-105422218D01*
X96067782Y-105282861D01*
X96067732Y-105282827D01*
X95903913Y-105173367D01*
X95721839Y-105097950D01*
X95721829Y-105097947D01*
X95592388Y-105072200D01*
X95528541Y-105059500D01*
X95331459Y-105059500D01*
X95276662Y-105070399D01*
X95138170Y-105097947D01*
X95138160Y-105097950D01*
X95010431Y-105150857D01*
X94953794Y-105150857D01*
X94929787Y-105134816D01*
X94623674Y-104828703D01*
X94602000Y-104776377D01*
X94602000Y-99514500D01*
X94623674Y-99462174D01*
X94676000Y-99440500D01*
X96249754Y-99440500D01*
X96251217Y-99440356D01*
X96258464Y-99440000D01*
X96430000Y-99440000D01*
X96430000Y-99268459D01*
X96430357Y-99261203D01*
X96430500Y-99259751D01*
X96430500Y-97620246D01*
X96430356Y-97618783D01*
X96430000Y-97611536D01*
X96430000Y-97440000D01*
X96258464Y-97440000D01*
X96251217Y-97439644D01*
X96249754Y-97439500D01*
X96249748Y-97439500D01*
X94676000Y-97439500D01*
X94623674Y-97417826D01*
X94602000Y-97365500D01*
X94602000Y-92481936D01*
X94601999Y-92481935D01*
X94595273Y-92456835D01*
X94581521Y-92405511D01*
X94558772Y-92366109D01*
X94551380Y-92309959D01*
X94554488Y-92300800D01*
X94612051Y-92161835D01*
X94650500Y-91968541D01*
X94650500Y-91771459D01*
X94612051Y-91578165D01*
X94550136Y-91428689D01*
X94536632Y-91396086D01*
X94427139Y-91232218D01*
X94343447Y-91148526D01*
X94321773Y-91096200D01*
X94343447Y-91043874D01*
X94395773Y-91022200D01*
X94886577Y-91022200D01*
X94938903Y-91043874D01*
X95264816Y-91369787D01*
X95286490Y-91422113D01*
X95280857Y-91450431D01*
X95227950Y-91578160D01*
X95227947Y-91578170D01*
X95189500Y-91771460D01*
X95189500Y-91968539D01*
X95227947Y-92161829D01*
X95227950Y-92161839D01*
X95303367Y-92343913D01*
X95412860Y-92507781D01*
X95552218Y-92647139D01*
X95716086Y-92756632D01*
X95882542Y-92825580D01*
X95898165Y-92832051D01*
X96091459Y-92870500D01*
X96091461Y-92870500D01*
X96288539Y-92870500D01*
X96288541Y-92870500D01*
X96481835Y-92832051D01*
X96663914Y-92756632D01*
X96827782Y-92647139D01*
X96967139Y-92507782D01*
X97076632Y-92343914D01*
X97152051Y-92161835D01*
X97190500Y-91968541D01*
X97190500Y-91771460D01*
X97729500Y-91771460D01*
X97729500Y-91968539D01*
X97767947Y-92161829D01*
X97767950Y-92161839D01*
X97843367Y-92343913D01*
X97952860Y-92507781D01*
X98092218Y-92647139D01*
X98256086Y-92756632D01*
X98422542Y-92825580D01*
X98438165Y-92832051D01*
X98631459Y-92870500D01*
X98631461Y-92870500D01*
X98828539Y-92870500D01*
X98828541Y-92870500D01*
X99021835Y-92832051D01*
X99203914Y-92756632D01*
X99367782Y-92647139D01*
X99507139Y-92507782D01*
X99616632Y-92343914D01*
X99692051Y-92161835D01*
X99730500Y-91968541D01*
X99730500Y-91771459D01*
X99692051Y-91578165D01*
X99630136Y-91428689D01*
X99616632Y-91396086D01*
X99507139Y-91232218D01*
X99367781Y-91092860D01*
X99203913Y-90983367D01*
X99021839Y-90907950D01*
X99021829Y-90907947D01*
X98892388Y-90882200D01*
X98828541Y-90869500D01*
X98631459Y-90869500D01*
X98576662Y-90880399D01*
X98438170Y-90907947D01*
X98438160Y-90907950D01*
X98256086Y-90983367D01*
X98092218Y-91092860D01*
X98092217Y-91092862D01*
X97952862Y-91232217D01*
X97952860Y-91232218D01*
X97843367Y-91396086D01*
X97767950Y-91578160D01*
X97767947Y-91578170D01*
X97729500Y-91771460D01*
X97190500Y-91771460D01*
X97190500Y-91771459D01*
X97152051Y-91578165D01*
X97090136Y-91428689D01*
X97076632Y-91396086D01*
X96967139Y-91232218D01*
X96827781Y-91092860D01*
X96663913Y-90983367D01*
X96481839Y-90907950D01*
X96481829Y-90907947D01*
X96352388Y-90882200D01*
X96288541Y-90869500D01*
X96091459Y-90869500D01*
X96036662Y-90880399D01*
X95898170Y-90907947D01*
X95898160Y-90907950D01*
X95770431Y-90960857D01*
X95713794Y-90960857D01*
X95689787Y-90944816D01*
X95226211Y-90481240D01*
X95157690Y-90441679D01*
X95157685Y-90441677D01*
X95081264Y-90421200D01*
X95081262Y-90421200D01*
X90629638Y-90421200D01*
X90629636Y-90421200D01*
X90553214Y-90441677D01*
X90553209Y-90441679D01*
X90484688Y-90481240D01*
X89599540Y-91366388D01*
X89583598Y-91394000D01*
X89538664Y-91428477D01*
X89482511Y-91421083D01*
X89457984Y-91398110D01*
X89455100Y-91393794D01*
X89347139Y-91232218D01*
X89207782Y-91092861D01*
X89148686Y-91053374D01*
X89043913Y-90983367D01*
X88861839Y-90907950D01*
X88861829Y-90907947D01*
X88732388Y-90882200D01*
X88668541Y-90869500D01*
X88471459Y-90869500D01*
X88416662Y-90880399D01*
X88278170Y-90907947D01*
X88278160Y-90907950D01*
X88096086Y-90983367D01*
X87932218Y-91092860D01*
X87932217Y-91092862D01*
X87792862Y-91232217D01*
X87792860Y-91232218D01*
X87683367Y-91396086D01*
X87607950Y-91578160D01*
X87607947Y-91578170D01*
X87569500Y-91771460D01*
X87569500Y-91968539D01*
X87607947Y-92161829D01*
X87607950Y-92161839D01*
X87683367Y-92343913D01*
X87792860Y-92507781D01*
X87932218Y-92647139D01*
X88096086Y-92756632D01*
X88262542Y-92825580D01*
X88278165Y-92832051D01*
X88471459Y-92870500D01*
X88471461Y-92870500D01*
X88668539Y-92870500D01*
X88668541Y-92870500D01*
X88861835Y-92832051D01*
X89043914Y-92756632D01*
X89207782Y-92647139D01*
X89347139Y-92507782D01*
X89403971Y-92422725D01*
X89451063Y-92391260D01*
X89506612Y-92402309D01*
X89538078Y-92449401D01*
X89539500Y-92463838D01*
X89539500Y-97014877D01*
X89517826Y-97067203D01*
X88753988Y-97831041D01*
X88729272Y-97855756D01*
X88676946Y-97877429D01*
X88624620Y-97855754D01*
X88615418Y-97844541D01*
X88587139Y-97802218D01*
X88447781Y-97662860D01*
X88283913Y-97553367D01*
X88101839Y-97477950D01*
X88101829Y-97477947D01*
X87941429Y-97446042D01*
X87908541Y-97439500D01*
X87711459Y-97439500D01*
X87678571Y-97446042D01*
X87518170Y-97477947D01*
X87518160Y-97477950D01*
X87336086Y-97553367D01*
X87172218Y-97662860D01*
X87172217Y-97662862D01*
X87032862Y-97802217D01*
X87032860Y-97802218D01*
X86923367Y-97966086D01*
X86847950Y-98148160D01*
X86847947Y-98148170D01*
X86822413Y-98276542D01*
X86809500Y-98341459D01*
X86809500Y-98538541D01*
X86817371Y-98578110D01*
X86847947Y-98731829D01*
X86847950Y-98731839D01*
X86923367Y-98913913D01*
X87024656Y-99065502D01*
X87032861Y-99077782D01*
X87172218Y-99217139D01*
X87336086Y-99326632D01*
X87518165Y-99402051D01*
X87711459Y-99440500D01*
X87711461Y-99440500D01*
X87908539Y-99440500D01*
X87908541Y-99440500D01*
X88101835Y-99402051D01*
X88283914Y-99326632D01*
X88447782Y-99217139D01*
X88511674Y-99153247D01*
X88564000Y-99131573D01*
X88616326Y-99153247D01*
X88638000Y-99205573D01*
X88638000Y-104776376D01*
X88616326Y-104828702D01*
X88310211Y-105134816D01*
X88257885Y-105156490D01*
X88229567Y-105150857D01*
X88101839Y-105097950D01*
X88101829Y-105097947D01*
X87972388Y-105072200D01*
X87908541Y-105059500D01*
X87711459Y-105059500D01*
X87656662Y-105070399D01*
X87518170Y-105097947D01*
X87518160Y-105097950D01*
X87336086Y-105173367D01*
X87172218Y-105282860D01*
X87172217Y-105282862D01*
X87032862Y-105422217D01*
X87032860Y-105422218D01*
X86923367Y-105586086D01*
X86864667Y-105727803D01*
X86824619Y-105767852D01*
X86767982Y-105767852D01*
X86727933Y-105727804D01*
X86722300Y-105699485D01*
X86722300Y-99552236D01*
X86722299Y-99552235D01*
X86720360Y-99545000D01*
X86701821Y-99475811D01*
X86662260Y-99407289D01*
X86606311Y-99351340D01*
X86195183Y-98940212D01*
X86173509Y-98887886D01*
X86179142Y-98859567D01*
X86182559Y-98851318D01*
X86232051Y-98731835D01*
X86270500Y-98538541D01*
X86270500Y-98341459D01*
X86232051Y-98148165D01*
X86156632Y-97966086D01*
X86047139Y-97802218D01*
X85907782Y-97662861D01*
X85907732Y-97662827D01*
X85743913Y-97553367D01*
X85561839Y-97477950D01*
X85561829Y-97477947D01*
X85401429Y-97446042D01*
X85368541Y-97439500D01*
X85171459Y-97439500D01*
X85138571Y-97446042D01*
X84978170Y-97477947D01*
X84978160Y-97477950D01*
X84796086Y-97553367D01*
X84632218Y-97662860D01*
X84632217Y-97662862D01*
X84492862Y-97802217D01*
X84492860Y-97802218D01*
X84436029Y-97887273D01*
X84388937Y-97918739D01*
X84333388Y-97907690D01*
X84301922Y-97860598D01*
X84300500Y-97846161D01*
X84300500Y-97054436D01*
X84300499Y-97054435D01*
X84280022Y-96978014D01*
X84280020Y-96978009D01*
X84240459Y-96909488D01*
X84027174Y-96696203D01*
X84005500Y-96643877D01*
X84005500Y-96477650D01*
X84027174Y-96425324D01*
X84079500Y-96403650D01*
X84131824Y-96425323D01*
X84155965Y-96449464D01*
X84303453Y-96548013D01*
X84303454Y-96548013D01*
X84303455Y-96548014D01*
X84354135Y-96569006D01*
X84467334Y-96615894D01*
X84641309Y-96650500D01*
X84641311Y-96650500D01*
X84818689Y-96650500D01*
X84818691Y-96650500D01*
X84992666Y-96615894D01*
X85156547Y-96548013D01*
X85304035Y-96449464D01*
X85429464Y-96324035D01*
X85528013Y-96176547D01*
X85595894Y-96012666D01*
X85630500Y-95838691D01*
X85630500Y-95661310D01*
X86369500Y-95661310D01*
X86369500Y-95838689D01*
X86404104Y-96012660D01*
X86404107Y-96012670D01*
X86471985Y-96176544D01*
X86471986Y-96176546D01*
X86471987Y-96176547D01*
X86570536Y-96324035D01*
X86695965Y-96449464D01*
X86843453Y-96548013D01*
X86843454Y-96548013D01*
X86843455Y-96548014D01*
X86894135Y-96569006D01*
X87007334Y-96615894D01*
X87181309Y-96650500D01*
X87181311Y-96650500D01*
X87358689Y-96650500D01*
X87358691Y-96650500D01*
X87532666Y-96615894D01*
X87696547Y-96548013D01*
X87844035Y-96449464D01*
X87969464Y-96324035D01*
X88068013Y-96176547D01*
X88135894Y-96012666D01*
X88170500Y-95838691D01*
X88170500Y-95661309D01*
X88135894Y-95487334D01*
X88068013Y-95323453D01*
X87969464Y-95175965D01*
X87844035Y-95050536D01*
X87696547Y-94951987D01*
X87696546Y-94951986D01*
X87696544Y-94951985D01*
X87532670Y-94884107D01*
X87532660Y-94884104D01*
X87416156Y-94860930D01*
X87358691Y-94849500D01*
X87181309Y-94849500D01*
X87131989Y-94859310D01*
X87007339Y-94884104D01*
X87007329Y-94884107D01*
X86843455Y-94951985D01*
X86695968Y-95050533D01*
X86570533Y-95175968D01*
X86471985Y-95323455D01*
X86404107Y-95487329D01*
X86404104Y-95487339D01*
X86369500Y-95661310D01*
X85630500Y-95661310D01*
X85630500Y-95661309D01*
X85595894Y-95487334D01*
X85562605Y-95406966D01*
X85562605Y-95350330D01*
X85578643Y-95326326D01*
X86270460Y-94634511D01*
X86310022Y-94565988D01*
X86330500Y-94489562D01*
X86330500Y-94410438D01*
X86330500Y-92877906D01*
X86352174Y-92825580D01*
X86376180Y-92809539D01*
X86503914Y-92756632D01*
X86667782Y-92647139D01*
X86807139Y-92507782D01*
X86916632Y-92343914D01*
X86992051Y-92161835D01*
X87030500Y-91968541D01*
X87030500Y-91771459D01*
X86992051Y-91578165D01*
X86930136Y-91428689D01*
X86916632Y-91396086D01*
X86807139Y-91232218D01*
X86667781Y-91092860D01*
X86503913Y-90983367D01*
X86321839Y-90907950D01*
X86321829Y-90907947D01*
X86192388Y-90882200D01*
X86128541Y-90869500D01*
X85931459Y-90869500D01*
X85876662Y-90880399D01*
X85738170Y-90907947D01*
X85738160Y-90907950D01*
X85556086Y-90983367D01*
X85392218Y-91092860D01*
X85392217Y-91092862D01*
X85252862Y-91232217D01*
X85252860Y-91232218D01*
X85143367Y-91396086D01*
X85067950Y-91578160D01*
X85067947Y-91578170D01*
X85029500Y-91771460D01*
X85029500Y-91968539D01*
X85067947Y-92161829D01*
X85067950Y-92161839D01*
X85143367Y-92343913D01*
X85235593Y-92481938D01*
X85252861Y-92507782D01*
X85392218Y-92647139D01*
X85556086Y-92756632D01*
X85683818Y-92809539D01*
X85723867Y-92849587D01*
X85729500Y-92877906D01*
X85729500Y-94294876D01*
X85707826Y-94347202D01*
X85153675Y-94901352D01*
X85101349Y-94923026D01*
X85073032Y-94917394D01*
X84992666Y-94884106D01*
X84992662Y-94884105D01*
X84992660Y-94884104D01*
X84876156Y-94860930D01*
X84818691Y-94849500D01*
X84641309Y-94849500D01*
X84591989Y-94859310D01*
X84467339Y-94884104D01*
X84467329Y-94884107D01*
X84303455Y-94951985D01*
X84155968Y-95050533D01*
X84155967Y-95050534D01*
X84155965Y-95050535D01*
X84155965Y-95050536D01*
X84131824Y-95074676D01*
X84079500Y-95096350D01*
X84027174Y-95074676D01*
X84005500Y-95022350D01*
X84005500Y-94365440D01*
X84005500Y-94365438D01*
X83985022Y-94289012D01*
X83945460Y-94220489D01*
X82592374Y-92867403D01*
X82570700Y-92815077D01*
X82570700Y-91573636D01*
X82570699Y-91573635D01*
X82550222Y-91497214D01*
X82550220Y-91497209D01*
X82523213Y-91450432D01*
X82510660Y-91428689D01*
X82454711Y-91372740D01*
X81572711Y-90490740D01*
X81556256Y-90481240D01*
X81504190Y-90451179D01*
X81504185Y-90451177D01*
X81427764Y-90430700D01*
X81427762Y-90430700D01*
X79509238Y-90430700D01*
X79509236Y-90430700D01*
X79432814Y-90451177D01*
X79432809Y-90451179D01*
X79380744Y-90481240D01*
X79364288Y-90490740D01*
X78910211Y-90944816D01*
X78857885Y-90966490D01*
X78829567Y-90960857D01*
X78701839Y-90907950D01*
X78701829Y-90907947D01*
X78572388Y-90882200D01*
X78508541Y-90869500D01*
X78311459Y-90869500D01*
X78256662Y-90880399D01*
X78118170Y-90907947D01*
X78118160Y-90907950D01*
X77936086Y-90983367D01*
X77772218Y-91092860D01*
X77772217Y-91092862D01*
X77632862Y-91232217D01*
X77632860Y-91232218D01*
X77523367Y-91396086D01*
X77447950Y-91578160D01*
X77447947Y-91578170D01*
X77409500Y-91771460D01*
X77409500Y-91968539D01*
X77447947Y-92161829D01*
X77447950Y-92161839D01*
X77523367Y-92343913D01*
X77632860Y-92507781D01*
X77772218Y-92647139D01*
X77936086Y-92756632D01*
X78102542Y-92825580D01*
X78118165Y-92832051D01*
X78311459Y-92870500D01*
X78311461Y-92870500D01*
X78508539Y-92870500D01*
X78508541Y-92870500D01*
X78701835Y-92832051D01*
X78883914Y-92756632D01*
X79047782Y-92647139D01*
X79187139Y-92507782D01*
X79296632Y-92343914D01*
X79372051Y-92161835D01*
X79410500Y-91968541D01*
X79410500Y-91771459D01*
X79372051Y-91578165D01*
X79319142Y-91450431D01*
X79319142Y-91393794D01*
X79335183Y-91369787D01*
X79651597Y-91053374D01*
X79703923Y-91031700D01*
X80194727Y-91031700D01*
X80247053Y-91053374D01*
X80268727Y-91105700D01*
X80247053Y-91158026D01*
X80172862Y-91232217D01*
X80172860Y-91232218D01*
X80063367Y-91396086D01*
X79987950Y-91578160D01*
X79987947Y-91578170D01*
X79949500Y-91771460D01*
X79949500Y-91968539D01*
X79987947Y-92161829D01*
X79987950Y-92161839D01*
X80063367Y-92343913D01*
X80155593Y-92481938D01*
X80172861Y-92507782D01*
X80312218Y-92647139D01*
X80476086Y-92756632D01*
X80603818Y-92809539D01*
X80643867Y-92849587D01*
X80649500Y-92877906D01*
X80649500Y-93374876D01*
X80627826Y-93427202D01*
X79153675Y-94901352D01*
X79101349Y-94923026D01*
X79073032Y-94917394D01*
X78992666Y-94884106D01*
X78992662Y-94884105D01*
X78992660Y-94884104D01*
X78876156Y-94860930D01*
X78818691Y-94849500D01*
X78641309Y-94849500D01*
X78591989Y-94859310D01*
X78467339Y-94884104D01*
X78467329Y-94884107D01*
X78303455Y-94951985D01*
X78155968Y-95050533D01*
X78030533Y-95175968D01*
X77931985Y-95323455D01*
X77864107Y-95487329D01*
X77864104Y-95487339D01*
X77829500Y-95661310D01*
X77829500Y-95838689D01*
X77864104Y-96012660D01*
X77864107Y-96012670D01*
X77931985Y-96176544D01*
X77931986Y-96176546D01*
X77931987Y-96176547D01*
X78030536Y-96324035D01*
X78155965Y-96449464D01*
X78303453Y-96548013D01*
X78303454Y-96548013D01*
X78303455Y-96548014D01*
X78354135Y-96569006D01*
X78467334Y-96615894D01*
X78641309Y-96650500D01*
X78641311Y-96650500D01*
X78818689Y-96650500D01*
X78818691Y-96650500D01*
X78992666Y-96615894D01*
X79156547Y-96548013D01*
X79304035Y-96449464D01*
X79429464Y-96324035D01*
X79528013Y-96176547D01*
X79595894Y-96012666D01*
X79630500Y-95838691D01*
X79630500Y-95661309D01*
X79595894Y-95487334D01*
X79562605Y-95406966D01*
X79562605Y-95350330D01*
X79578643Y-95326326D01*
X81190460Y-93714511D01*
X81230021Y-93645989D01*
X81250499Y-93569564D01*
X81250500Y-93569564D01*
X81250500Y-92877906D01*
X81272174Y-92825580D01*
X81296180Y-92809539D01*
X81423914Y-92756632D01*
X81587782Y-92647139D01*
X81727139Y-92507782D01*
X81834171Y-92347596D01*
X81881263Y-92316131D01*
X81936812Y-92327180D01*
X81968278Y-92374272D01*
X81969700Y-92388709D01*
X81969700Y-93009764D01*
X81990177Y-93086185D01*
X81990179Y-93086190D01*
X82015726Y-93130438D01*
X82029740Y-93154711D01*
X83382826Y-94507797D01*
X83404500Y-94560123D01*
X83404500Y-96838564D01*
X83424977Y-96914985D01*
X83424979Y-96914990D01*
X83448295Y-96955374D01*
X83448296Y-96955376D01*
X83448299Y-96955380D01*
X83464540Y-96983511D01*
X83464541Y-96983512D01*
X83677826Y-97196797D01*
X83699500Y-97249123D01*
X83699500Y-97846161D01*
X83677826Y-97898487D01*
X83625500Y-97920161D01*
X83573174Y-97898487D01*
X83563971Y-97887273D01*
X83507139Y-97802218D01*
X83367781Y-97662860D01*
X83203913Y-97553367D01*
X83021839Y-97477950D01*
X83021829Y-97477947D01*
X82861429Y-97446042D01*
X82828541Y-97439500D01*
X82631459Y-97439500D01*
X82598571Y-97446042D01*
X82438170Y-97477947D01*
X82438160Y-97477950D01*
X82256086Y-97553367D01*
X82092218Y-97662860D01*
X82092217Y-97662862D01*
X81952862Y-97802217D01*
X81952860Y-97802218D01*
X81843367Y-97966086D01*
X81767950Y-98148160D01*
X81767947Y-98148170D01*
X81742413Y-98276542D01*
X81729500Y-98341459D01*
X81729500Y-98538541D01*
X81737371Y-98578110D01*
X81767947Y-98731829D01*
X81767950Y-98731839D01*
X81820857Y-98859567D01*
X81820857Y-98916204D01*
X81804816Y-98940211D01*
X81260889Y-99484140D01*
X81204940Y-99540088D01*
X81165379Y-99608609D01*
X81165377Y-99608614D01*
X81144900Y-99685035D01*
X81144900Y-105444311D01*
X81123226Y-105496637D01*
X81070900Y-105518311D01*
X81018574Y-105496637D01*
X81009371Y-105485423D01*
X80967139Y-105422218D01*
X80827781Y-105282860D01*
X80663913Y-105173367D01*
X80481839Y-105097950D01*
X80481829Y-105097947D01*
X80352388Y-105072200D01*
X80288541Y-105059500D01*
X80091459Y-105059500D01*
X80036662Y-105070399D01*
X79898170Y-105097947D01*
X79898160Y-105097950D01*
X79716086Y-105173367D01*
X79552218Y-105282860D01*
X79552217Y-105282862D01*
X79412862Y-105422217D01*
X79412860Y-105422218D01*
X79303367Y-105586086D01*
X79227950Y-105768160D01*
X79227947Y-105768170D01*
X79189500Y-105961460D01*
X79189500Y-106158539D01*
X79227947Y-106351829D01*
X79227950Y-106351839D01*
X79303367Y-106533913D01*
X79385400Y-106656683D01*
X79412861Y-106697782D01*
X79552218Y-106837139D01*
X79716086Y-106946632D01*
X79898165Y-107022051D01*
X80091459Y-107060500D01*
X80091461Y-107060500D01*
X80143976Y-107060500D01*
X80196302Y-107082174D01*
X80217976Y-107134500D01*
X80196302Y-107186826D01*
X78225489Y-109157640D01*
X78169540Y-109213588D01*
X78129979Y-109282109D01*
X78129977Y-109282114D01*
X78109500Y-109358535D01*
X78109500Y-132715500D01*
X78087826Y-132767826D01*
X78035500Y-132789500D01*
X77390246Y-132789500D01*
X77388783Y-132789644D01*
X77381536Y-132790000D01*
X77210000Y-132790000D01*
X77210000Y-132961536D01*
X77209644Y-132968783D01*
X77209500Y-132970246D01*
X77209500Y-139726000D01*
X77187826Y-139778326D01*
X77135500Y-139800000D01*
X76474000Y-139800000D01*
X76421674Y-139778326D01*
X76400000Y-139726000D01*
X76400000Y-116250001D01*
X76400000Y-116250000D01*
X76396157Y-116210982D01*
X76384776Y-116173463D01*
X76366294Y-116138886D01*
X76341421Y-116108579D01*
X76311114Y-116083706D01*
X76276537Y-116065224D01*
X76250400Y-116057295D01*
X76239019Y-116053843D01*
X76219509Y-116051921D01*
X76200000Y-116050000D01*
X76199999Y-116050000D01*
X68613494Y-116050000D01*
X68561168Y-116028326D01*
X68221674Y-115688832D01*
X68200000Y-115636506D01*
X68200000Y-105961460D01*
X71569500Y-105961460D01*
X71569500Y-106158539D01*
X71607947Y-106351829D01*
X71607950Y-106351839D01*
X71683367Y-106533913D01*
X71765400Y-106656683D01*
X71792861Y-106697782D01*
X71932218Y-106837139D01*
X72096086Y-106946632D01*
X72278165Y-107022051D01*
X72471459Y-107060500D01*
X72471461Y-107060500D01*
X72668539Y-107060500D01*
X72668541Y-107060500D01*
X72861835Y-107022051D01*
X73043914Y-106946632D01*
X73207782Y-106837139D01*
X73347139Y-106697782D01*
X73456632Y-106533914D01*
X73532051Y-106351835D01*
X73570500Y-106158541D01*
X73570500Y-105961460D01*
X74109500Y-105961460D01*
X74109500Y-106158539D01*
X74147947Y-106351829D01*
X74147950Y-106351839D01*
X74223367Y-106533913D01*
X74305400Y-106656683D01*
X74332861Y-106697782D01*
X74472218Y-106837139D01*
X74636086Y-106946632D01*
X74818165Y-107022051D01*
X75011459Y-107060500D01*
X75011461Y-107060500D01*
X75208539Y-107060500D01*
X75208541Y-107060500D01*
X75401835Y-107022051D01*
X75583914Y-106946632D01*
X75747782Y-106837139D01*
X75887139Y-106697782D01*
X75996632Y-106533914D01*
X76072051Y-106351835D01*
X76110500Y-106158541D01*
X76110500Y-105961460D01*
X76649500Y-105961460D01*
X76649500Y-106158539D01*
X76687947Y-106351829D01*
X76687950Y-106351839D01*
X76763367Y-106533913D01*
X76845400Y-106656683D01*
X76872861Y-106697782D01*
X77012218Y-106837139D01*
X77176086Y-106946632D01*
X77358165Y-107022051D01*
X77551459Y-107060500D01*
X77551461Y-107060500D01*
X77748539Y-107060500D01*
X77748541Y-107060500D01*
X77941835Y-107022051D01*
X78123914Y-106946632D01*
X78287782Y-106837139D01*
X78427139Y-106697782D01*
X78536632Y-106533914D01*
X78612051Y-106351835D01*
X78650500Y-106158541D01*
X78650500Y-105961459D01*
X78612051Y-105768165D01*
X78536632Y-105586086D01*
X78427139Y-105422218D01*
X78287782Y-105282861D01*
X78287732Y-105282827D01*
X78123913Y-105173367D01*
X77941839Y-105097950D01*
X77941829Y-105097947D01*
X77812388Y-105072200D01*
X77748541Y-105059500D01*
X77551459Y-105059500D01*
X77496662Y-105070399D01*
X77358170Y-105097947D01*
X77358160Y-105097950D01*
X77176086Y-105173367D01*
X77012218Y-105282860D01*
X77012217Y-105282862D01*
X76872862Y-105422217D01*
X76872860Y-105422218D01*
X76763367Y-105586086D01*
X76687950Y-105768160D01*
X76687947Y-105768170D01*
X76649500Y-105961460D01*
X76110500Y-105961460D01*
X76110500Y-105961459D01*
X76072051Y-105768165D01*
X75996632Y-105586086D01*
X75887139Y-105422218D01*
X75747782Y-105282861D01*
X75747732Y-105282827D01*
X75583913Y-105173367D01*
X75401839Y-105097950D01*
X75401829Y-105097947D01*
X75272388Y-105072200D01*
X75208541Y-105059500D01*
X75011459Y-105059500D01*
X74956662Y-105070399D01*
X74818170Y-105097947D01*
X74818160Y-105097950D01*
X74636086Y-105173367D01*
X74472218Y-105282860D01*
X74472217Y-105282862D01*
X74332862Y-105422217D01*
X74332860Y-105422218D01*
X74223367Y-105586086D01*
X74147950Y-105768160D01*
X74147947Y-105768170D01*
X74109500Y-105961460D01*
X73570500Y-105961460D01*
X73570500Y-105961459D01*
X73532051Y-105768165D01*
X73456632Y-105586086D01*
X73347139Y-105422218D01*
X73207782Y-105282861D01*
X73207732Y-105282827D01*
X73043913Y-105173367D01*
X72861839Y-105097950D01*
X72861829Y-105097947D01*
X72732388Y-105072200D01*
X72668541Y-105059500D01*
X72471459Y-105059500D01*
X72416662Y-105070399D01*
X72278170Y-105097947D01*
X72278160Y-105097950D01*
X72096086Y-105173367D01*
X71932218Y-105282860D01*
X71932217Y-105282862D01*
X71792862Y-105422217D01*
X71792860Y-105422218D01*
X71683367Y-105586086D01*
X71607950Y-105768160D01*
X71607947Y-105768170D01*
X71569500Y-105961460D01*
X68200000Y-105961460D01*
X68200000Y-98341459D01*
X74109500Y-98341459D01*
X74109500Y-98538541D01*
X74117371Y-98578110D01*
X74147947Y-98731829D01*
X74147950Y-98731839D01*
X74223367Y-98913913D01*
X74324656Y-99065502D01*
X74332861Y-99077782D01*
X74472218Y-99217139D01*
X74636086Y-99326632D01*
X74818165Y-99402051D01*
X75011459Y-99440500D01*
X75011461Y-99440500D01*
X75208539Y-99440500D01*
X75208541Y-99440500D01*
X75401835Y-99402051D01*
X75583914Y-99326632D01*
X75747782Y-99217139D01*
X75887139Y-99077782D01*
X75996632Y-98913914D01*
X76072051Y-98731835D01*
X76110500Y-98538541D01*
X76110500Y-98341459D01*
X76649500Y-98341459D01*
X76649500Y-98538541D01*
X76657371Y-98578110D01*
X76687947Y-98731829D01*
X76687950Y-98731839D01*
X76763367Y-98913913D01*
X76864656Y-99065502D01*
X76872861Y-99077782D01*
X77012218Y-99217139D01*
X77176086Y-99326632D01*
X77358165Y-99402051D01*
X77551459Y-99440500D01*
X77551461Y-99440500D01*
X77748539Y-99440500D01*
X77748541Y-99440500D01*
X77941835Y-99402051D01*
X78123914Y-99326632D01*
X78287782Y-99217139D01*
X78427139Y-99077782D01*
X78536632Y-98913914D01*
X78612051Y-98731835D01*
X78650500Y-98538541D01*
X78650500Y-98341459D01*
X79189500Y-98341459D01*
X79189500Y-98538541D01*
X79197371Y-98578110D01*
X79227947Y-98731829D01*
X79227950Y-98731839D01*
X79303367Y-98913913D01*
X79404656Y-99065502D01*
X79412861Y-99077782D01*
X79552218Y-99217139D01*
X79716086Y-99326632D01*
X79898165Y-99402051D01*
X80091459Y-99440500D01*
X80091461Y-99440500D01*
X80288539Y-99440500D01*
X80288541Y-99440500D01*
X80481835Y-99402051D01*
X80663914Y-99326632D01*
X80827782Y-99217139D01*
X80967139Y-99077782D01*
X81076632Y-98913914D01*
X81152051Y-98731835D01*
X81190500Y-98538541D01*
X81190500Y-98341459D01*
X81152051Y-98148165D01*
X81076632Y-97966086D01*
X80967139Y-97802218D01*
X80827782Y-97662861D01*
X80827732Y-97662827D01*
X80663913Y-97553367D01*
X80481839Y-97477950D01*
X80481829Y-97477947D01*
X80321429Y-97446042D01*
X80288541Y-97439500D01*
X80091459Y-97439500D01*
X80058571Y-97446042D01*
X79898170Y-97477947D01*
X79898160Y-97477950D01*
X79716086Y-97553367D01*
X79552218Y-97662860D01*
X79552217Y-97662862D01*
X79412862Y-97802217D01*
X79412860Y-97802218D01*
X79303367Y-97966086D01*
X79227950Y-98148160D01*
X79227947Y-98148170D01*
X79202413Y-98276542D01*
X79189500Y-98341459D01*
X78650500Y-98341459D01*
X78612051Y-98148165D01*
X78536632Y-97966086D01*
X78427139Y-97802218D01*
X78287782Y-97662861D01*
X78287732Y-97662827D01*
X78123913Y-97553367D01*
X77941839Y-97477950D01*
X77941829Y-97477947D01*
X77781429Y-97446042D01*
X77748541Y-97439500D01*
X77551459Y-97439500D01*
X77518571Y-97446042D01*
X77358170Y-97477947D01*
X77358160Y-97477950D01*
X77176086Y-97553367D01*
X77012218Y-97662860D01*
X77012217Y-97662862D01*
X76872862Y-97802217D01*
X76872860Y-97802218D01*
X76763367Y-97966086D01*
X76687950Y-98148160D01*
X76687947Y-98148170D01*
X76662413Y-98276542D01*
X76649500Y-98341459D01*
X76110500Y-98341459D01*
X76072051Y-98148165D01*
X75996632Y-97966086D01*
X75887139Y-97802218D01*
X75747782Y-97662861D01*
X75747732Y-97662827D01*
X75583913Y-97553367D01*
X75401839Y-97477950D01*
X75401829Y-97477947D01*
X75241429Y-97446042D01*
X75208541Y-97439500D01*
X75011459Y-97439500D01*
X74978571Y-97446042D01*
X74818170Y-97477947D01*
X74818160Y-97477950D01*
X74636086Y-97553367D01*
X74472218Y-97662860D01*
X74472217Y-97662862D01*
X74332862Y-97802217D01*
X74332860Y-97802218D01*
X74223367Y-97966086D01*
X74147950Y-98148160D01*
X74147947Y-98148170D01*
X74122413Y-98276542D01*
X74109500Y-98341459D01*
X68200000Y-98341459D01*
X68200000Y-91771460D01*
X74869500Y-91771460D01*
X74869500Y-91968539D01*
X74907947Y-92161829D01*
X74907950Y-92161839D01*
X74983367Y-92343913D01*
X75092860Y-92507781D01*
X75232218Y-92647139D01*
X75396086Y-92756632D01*
X75562542Y-92825580D01*
X75578165Y-92832051D01*
X75771459Y-92870500D01*
X75771461Y-92870500D01*
X75968539Y-92870500D01*
X75968541Y-92870500D01*
X76161835Y-92832051D01*
X76343914Y-92756632D01*
X76507782Y-92647139D01*
X76647139Y-92507782D01*
X76756632Y-92343914D01*
X76832051Y-92161835D01*
X76870500Y-91968541D01*
X76870500Y-91771459D01*
X76832051Y-91578165D01*
X76770136Y-91428689D01*
X76756632Y-91396086D01*
X76647139Y-91232218D01*
X76507781Y-91092860D01*
X76343913Y-90983367D01*
X76161839Y-90907950D01*
X76161829Y-90907947D01*
X76032388Y-90882200D01*
X75968541Y-90869500D01*
X75771459Y-90869500D01*
X75716662Y-90880399D01*
X75578170Y-90907947D01*
X75578160Y-90907950D01*
X75396086Y-90983367D01*
X75232218Y-91092860D01*
X75232217Y-91092862D01*
X75092862Y-91232217D01*
X75092860Y-91232218D01*
X74983367Y-91396086D01*
X74907950Y-91578160D01*
X74907947Y-91578170D01*
X74869500Y-91771460D01*
X68200000Y-91771460D01*
X68200000Y-76531460D01*
X74869500Y-76531460D01*
X74869500Y-76728539D01*
X74907947Y-76921829D01*
X74907950Y-76921839D01*
X74983367Y-77103913D01*
X75063499Y-77223838D01*
X75092861Y-77267782D01*
X75232218Y-77407139D01*
X75396086Y-77516632D01*
X75578165Y-77592051D01*
X75771459Y-77630500D01*
X75771461Y-77630500D01*
X75968539Y-77630500D01*
X75968541Y-77630500D01*
X76161835Y-77592051D01*
X76343914Y-77516632D01*
X76507782Y-77407139D01*
X76647139Y-77267782D01*
X76756632Y-77103914D01*
X76832051Y-76921835D01*
X76870500Y-76728541D01*
X76870500Y-76531460D01*
X77409500Y-76531460D01*
X77409500Y-76728539D01*
X77447947Y-76921829D01*
X77447950Y-76921839D01*
X77523367Y-77103913D01*
X77603499Y-77223838D01*
X77632861Y-77267782D01*
X77772218Y-77407139D01*
X77936086Y-77516632D01*
X78118165Y-77592051D01*
X78311459Y-77630500D01*
X78311461Y-77630500D01*
X78508539Y-77630500D01*
X78508541Y-77630500D01*
X78701835Y-77592051D01*
X78883914Y-77516632D01*
X79047782Y-77407139D01*
X79187139Y-77267782D01*
X79296632Y-77103914D01*
X79372051Y-76921835D01*
X79410500Y-76728541D01*
X79410500Y-76531460D01*
X79949500Y-76531460D01*
X79949500Y-76728539D01*
X79987947Y-76921829D01*
X79987950Y-76921839D01*
X80063367Y-77103913D01*
X80143499Y-77223838D01*
X80172861Y-77267782D01*
X80312218Y-77407139D01*
X80476086Y-77516632D01*
X80658165Y-77592051D01*
X80851459Y-77630500D01*
X80851461Y-77630500D01*
X81048539Y-77630500D01*
X81048541Y-77630500D01*
X81241835Y-77592051D01*
X81423914Y-77516632D01*
X81587782Y-77407139D01*
X81727139Y-77267782D01*
X81836632Y-77103914D01*
X81912051Y-76921835D01*
X81950500Y-76728541D01*
X81950500Y-76531460D01*
X82489500Y-76531460D01*
X82489500Y-76728539D01*
X82527947Y-76921829D01*
X82527950Y-76921839D01*
X82603367Y-77103913D01*
X82683499Y-77223838D01*
X82712861Y-77267782D01*
X82852218Y-77407139D01*
X83016086Y-77516632D01*
X83198165Y-77592051D01*
X83391459Y-77630500D01*
X83391461Y-77630500D01*
X83588539Y-77630500D01*
X83588541Y-77630500D01*
X83781835Y-77592051D01*
X83963914Y-77516632D01*
X84127782Y-77407139D01*
X84267139Y-77267782D01*
X84376632Y-77103914D01*
X84452051Y-76921835D01*
X84490500Y-76728541D01*
X84490500Y-76531460D01*
X85029500Y-76531460D01*
X85029500Y-76728539D01*
X85067947Y-76921829D01*
X85067950Y-76921839D01*
X85143367Y-77103913D01*
X85223499Y-77223838D01*
X85252861Y-77267782D01*
X85392218Y-77407139D01*
X85556086Y-77516632D01*
X85738165Y-77592051D01*
X85931459Y-77630500D01*
X85931461Y-77630500D01*
X86128539Y-77630500D01*
X86128541Y-77630500D01*
X86321835Y-77592051D01*
X86503914Y-77516632D01*
X86667782Y-77407139D01*
X86807139Y-77267782D01*
X86916632Y-77103914D01*
X86992051Y-76921835D01*
X87030500Y-76728541D01*
X87030500Y-76531460D01*
X87569500Y-76531460D01*
X87569500Y-76728539D01*
X87607947Y-76921829D01*
X87607950Y-76921839D01*
X87683367Y-77103913D01*
X87763499Y-77223838D01*
X87792861Y-77267782D01*
X87932218Y-77407139D01*
X88096086Y-77516632D01*
X88278165Y-77592051D01*
X88471459Y-77630500D01*
X88471461Y-77630500D01*
X88668539Y-77630500D01*
X88668541Y-77630500D01*
X88861835Y-77592051D01*
X89043914Y-77516632D01*
X89207782Y-77407139D01*
X89347139Y-77267782D01*
X89456632Y-77103914D01*
X89532051Y-76921835D01*
X89570500Y-76728541D01*
X89570500Y-76531460D01*
X90109500Y-76531460D01*
X90109500Y-76728539D01*
X90147947Y-76921829D01*
X90147950Y-76921839D01*
X90223367Y-77103913D01*
X90303499Y-77223838D01*
X90332861Y-77267782D01*
X90472218Y-77407139D01*
X90636086Y-77516632D01*
X90818165Y-77592051D01*
X91011459Y-77630500D01*
X91011461Y-77630500D01*
X91208539Y-77630500D01*
X91208541Y-77630500D01*
X91401835Y-77592051D01*
X91583914Y-77516632D01*
X91747782Y-77407139D01*
X91887139Y-77267782D01*
X91996632Y-77103914D01*
X92072051Y-76921835D01*
X92110500Y-76728541D01*
X92110500Y-76531460D01*
X92649500Y-76531460D01*
X92649500Y-76728539D01*
X92687947Y-76921829D01*
X92687950Y-76921839D01*
X92763367Y-77103913D01*
X92843499Y-77223838D01*
X92872861Y-77267782D01*
X93012218Y-77407139D01*
X93176086Y-77516632D01*
X93358165Y-77592051D01*
X93551459Y-77630500D01*
X93551461Y-77630500D01*
X93748539Y-77630500D01*
X93748541Y-77630500D01*
X93941835Y-77592051D01*
X94123914Y-77516632D01*
X94287782Y-77407139D01*
X94427139Y-77267782D01*
X94536632Y-77103914D01*
X94612051Y-76921835D01*
X94650500Y-76728541D01*
X94650500Y-76531460D01*
X95189500Y-76531460D01*
X95189500Y-76728539D01*
X95227947Y-76921829D01*
X95227950Y-76921839D01*
X95303367Y-77103913D01*
X95383499Y-77223838D01*
X95412861Y-77267782D01*
X95552218Y-77407139D01*
X95716086Y-77516632D01*
X95898165Y-77592051D01*
X96091459Y-77630500D01*
X96091461Y-77630500D01*
X96288539Y-77630500D01*
X96288541Y-77630500D01*
X96481835Y-77592051D01*
X96663914Y-77516632D01*
X96827782Y-77407139D01*
X96967139Y-77267782D01*
X97076632Y-77103914D01*
X97152051Y-76921835D01*
X97190500Y-76728541D01*
X97190500Y-76531460D01*
X97729500Y-76531460D01*
X97729500Y-76728539D01*
X97767947Y-76921829D01*
X97767950Y-76921839D01*
X97843367Y-77103913D01*
X97923499Y-77223838D01*
X97952861Y-77267782D01*
X98092218Y-77407139D01*
X98256086Y-77516632D01*
X98438165Y-77592051D01*
X98631459Y-77630500D01*
X98631461Y-77630500D01*
X98828539Y-77630500D01*
X98828541Y-77630500D01*
X99021835Y-77592051D01*
X99203914Y-77516632D01*
X99367782Y-77407139D01*
X99507139Y-77267782D01*
X99616632Y-77103914D01*
X99692051Y-76921835D01*
X99730500Y-76728541D01*
X99730500Y-76531460D01*
X100269500Y-76531460D01*
X100269500Y-76728539D01*
X100307947Y-76921829D01*
X100307950Y-76921839D01*
X100383367Y-77103913D01*
X100463499Y-77223838D01*
X100492861Y-77267782D01*
X100632218Y-77407139D01*
X100796086Y-77516632D01*
X100978165Y-77592051D01*
X101171459Y-77630500D01*
X101171461Y-77630500D01*
X101368539Y-77630500D01*
X101368541Y-77630500D01*
X101561835Y-77592051D01*
X101743914Y-77516632D01*
X101907782Y-77407139D01*
X102047139Y-77267782D01*
X102156632Y-77103914D01*
X102232051Y-76921835D01*
X102270500Y-76728541D01*
X102270500Y-76531460D01*
X102809500Y-76531460D01*
X102809500Y-76728539D01*
X102847947Y-76921829D01*
X102847950Y-76921839D01*
X102923367Y-77103913D01*
X103003499Y-77223838D01*
X103032861Y-77267782D01*
X103172218Y-77407139D01*
X103336086Y-77516632D01*
X103518165Y-77592051D01*
X103711459Y-77630500D01*
X103711461Y-77630500D01*
X103908539Y-77630500D01*
X103908541Y-77630500D01*
X104101835Y-77592051D01*
X104283914Y-77516632D01*
X104447782Y-77407139D01*
X104587139Y-77267782D01*
X104696632Y-77103914D01*
X104772051Y-76921835D01*
X104810500Y-76728541D01*
X104810500Y-76531460D01*
X105349500Y-76531460D01*
X105349500Y-76728539D01*
X105387947Y-76921829D01*
X105387950Y-76921839D01*
X105463367Y-77103913D01*
X105543499Y-77223838D01*
X105572861Y-77267782D01*
X105712218Y-77407139D01*
X105876086Y-77516632D01*
X106058165Y-77592051D01*
X106251459Y-77630500D01*
X106251461Y-77630500D01*
X106448539Y-77630500D01*
X106448541Y-77630500D01*
X106641835Y-77592051D01*
X106823914Y-77516632D01*
X106987782Y-77407139D01*
X107127139Y-77267782D01*
X107236632Y-77103914D01*
X107312051Y-76921835D01*
X107350500Y-76728541D01*
X107350500Y-76531460D01*
X107889500Y-76531460D01*
X107889500Y-76728539D01*
X107927947Y-76921829D01*
X107927950Y-76921839D01*
X108003367Y-77103913D01*
X108083499Y-77223838D01*
X108112861Y-77267782D01*
X108252218Y-77407139D01*
X108416086Y-77516632D01*
X108598165Y-77592051D01*
X108791459Y-77630500D01*
X108791461Y-77630500D01*
X108988539Y-77630500D01*
X108988541Y-77630500D01*
X109181835Y-77592051D01*
X109363914Y-77516632D01*
X109527782Y-77407139D01*
X109667139Y-77267782D01*
X109776632Y-77103914D01*
X109852051Y-76921835D01*
X109890500Y-76728541D01*
X109890500Y-76531460D01*
X110429500Y-76531460D01*
X110429500Y-76728539D01*
X110467947Y-76921829D01*
X110467950Y-76921839D01*
X110543367Y-77103913D01*
X110623499Y-77223838D01*
X110652861Y-77267782D01*
X110792218Y-77407139D01*
X110956086Y-77516632D01*
X111138165Y-77592051D01*
X111331459Y-77630500D01*
X111331461Y-77630500D01*
X111528539Y-77630500D01*
X111528541Y-77630500D01*
X111721835Y-77592051D01*
X111903914Y-77516632D01*
X112067782Y-77407139D01*
X112207139Y-77267782D01*
X112316632Y-77103914D01*
X112392051Y-76921835D01*
X112430500Y-76728541D01*
X112430500Y-76531459D01*
X112392051Y-76338165D01*
X112316632Y-76156086D01*
X112207139Y-75992218D01*
X112067782Y-75852861D01*
X111903914Y-75743368D01*
X111903915Y-75743368D01*
X111903913Y-75743367D01*
X111721839Y-75667950D01*
X111721829Y-75667947D01*
X111592388Y-75642200D01*
X111528541Y-75629500D01*
X111331459Y-75629500D01*
X111276662Y-75640399D01*
X111138170Y-75667947D01*
X111138160Y-75667950D01*
X110956086Y-75743367D01*
X110792218Y-75852860D01*
X110792217Y-75852862D01*
X110652862Y-75992217D01*
X110652860Y-75992218D01*
X110543367Y-76156086D01*
X110467950Y-76338160D01*
X110467947Y-76338170D01*
X110429500Y-76531460D01*
X109890500Y-76531460D01*
X109890500Y-76531459D01*
X109852051Y-76338165D01*
X109776632Y-76156086D01*
X109667139Y-75992218D01*
X109527782Y-75852861D01*
X109363914Y-75743368D01*
X109363915Y-75743368D01*
X109363913Y-75743367D01*
X109181839Y-75667950D01*
X109181829Y-75667947D01*
X109052388Y-75642200D01*
X108988541Y-75629500D01*
X108791459Y-75629500D01*
X108736662Y-75640399D01*
X108598170Y-75667947D01*
X108598160Y-75667950D01*
X108416086Y-75743367D01*
X108252218Y-75852860D01*
X108252217Y-75852862D01*
X108112862Y-75992217D01*
X108112860Y-75992218D01*
X108003367Y-76156086D01*
X107927950Y-76338160D01*
X107927947Y-76338170D01*
X107889500Y-76531460D01*
X107350500Y-76531460D01*
X107350500Y-76531459D01*
X107312051Y-76338165D01*
X107236632Y-76156086D01*
X107127139Y-75992218D01*
X106987782Y-75852861D01*
X106823914Y-75743368D01*
X106823915Y-75743368D01*
X106823913Y-75743367D01*
X106641839Y-75667950D01*
X106641829Y-75667947D01*
X106512388Y-75642200D01*
X106448541Y-75629500D01*
X106251459Y-75629500D01*
X106196662Y-75640399D01*
X106058170Y-75667947D01*
X106058160Y-75667950D01*
X105876086Y-75743367D01*
X105712218Y-75852860D01*
X105712217Y-75852862D01*
X105572862Y-75992217D01*
X105572860Y-75992218D01*
X105463367Y-76156086D01*
X105387950Y-76338160D01*
X105387947Y-76338170D01*
X105349500Y-76531460D01*
X104810500Y-76531460D01*
X104810500Y-76531459D01*
X104772051Y-76338165D01*
X104696632Y-76156086D01*
X104587139Y-75992218D01*
X104447782Y-75852861D01*
X104283914Y-75743368D01*
X104283915Y-75743368D01*
X104283913Y-75743367D01*
X104101839Y-75667950D01*
X104101829Y-75667947D01*
X103972388Y-75642200D01*
X103908541Y-75629500D01*
X103711459Y-75629500D01*
X103656662Y-75640399D01*
X103518170Y-75667947D01*
X103518160Y-75667950D01*
X103336086Y-75743367D01*
X103172218Y-75852860D01*
X103172217Y-75852862D01*
X103032862Y-75992217D01*
X103032860Y-75992218D01*
X102923367Y-76156086D01*
X102847950Y-76338160D01*
X102847947Y-76338170D01*
X102809500Y-76531460D01*
X102270500Y-76531460D01*
X102270500Y-76531459D01*
X102232051Y-76338165D01*
X102156632Y-76156086D01*
X102047139Y-75992218D01*
X101907782Y-75852861D01*
X101743914Y-75743368D01*
X101743915Y-75743368D01*
X101743913Y-75743367D01*
X101561839Y-75667950D01*
X101561829Y-75667947D01*
X101432388Y-75642200D01*
X101368541Y-75629500D01*
X101171459Y-75629500D01*
X101116662Y-75640399D01*
X100978170Y-75667947D01*
X100978160Y-75667950D01*
X100796086Y-75743367D01*
X100632218Y-75852860D01*
X100632217Y-75852862D01*
X100492862Y-75992217D01*
X100492860Y-75992218D01*
X100383367Y-76156086D01*
X100307950Y-76338160D01*
X100307947Y-76338170D01*
X100269500Y-76531460D01*
X99730500Y-76531460D01*
X99730500Y-76531459D01*
X99692051Y-76338165D01*
X99616632Y-76156086D01*
X99507139Y-75992218D01*
X99367782Y-75852861D01*
X99203914Y-75743368D01*
X99203915Y-75743368D01*
X99203913Y-75743367D01*
X99021839Y-75667950D01*
X99021829Y-75667947D01*
X98892388Y-75642200D01*
X98828541Y-75629500D01*
X98631459Y-75629500D01*
X98576662Y-75640399D01*
X98438170Y-75667947D01*
X98438160Y-75667950D01*
X98256086Y-75743367D01*
X98092218Y-75852860D01*
X98092217Y-75852862D01*
X97952862Y-75992217D01*
X97952860Y-75992218D01*
X97843367Y-76156086D01*
X97767950Y-76338160D01*
X97767947Y-76338170D01*
X97729500Y-76531460D01*
X97190500Y-76531460D01*
X97190500Y-76531459D01*
X97152051Y-76338165D01*
X97076632Y-76156086D01*
X96967139Y-75992218D01*
X96827782Y-75852861D01*
X96663914Y-75743368D01*
X96663915Y-75743368D01*
X96663913Y-75743367D01*
X96481839Y-75667950D01*
X96481829Y-75667947D01*
X96352388Y-75642200D01*
X96288541Y-75629500D01*
X96091459Y-75629500D01*
X96036662Y-75640399D01*
X95898170Y-75667947D01*
X95898160Y-75667950D01*
X95716086Y-75743367D01*
X95552218Y-75852860D01*
X95552217Y-75852862D01*
X95412862Y-75992217D01*
X95412860Y-75992218D01*
X95303367Y-76156086D01*
X95227950Y-76338160D01*
X95227947Y-76338170D01*
X95189500Y-76531460D01*
X94650500Y-76531460D01*
X94650500Y-76531459D01*
X94612051Y-76338165D01*
X94536632Y-76156086D01*
X94427139Y-75992218D01*
X94287782Y-75852861D01*
X94123914Y-75743368D01*
X94123915Y-75743368D01*
X94123913Y-75743367D01*
X93941839Y-75667950D01*
X93941829Y-75667947D01*
X93812388Y-75642200D01*
X93748541Y-75629500D01*
X93551459Y-75629500D01*
X93496662Y-75640399D01*
X93358170Y-75667947D01*
X93358160Y-75667950D01*
X93176086Y-75743367D01*
X93012218Y-75852860D01*
X93012217Y-75852862D01*
X92872862Y-75992217D01*
X92872860Y-75992218D01*
X92763367Y-76156086D01*
X92687950Y-76338160D01*
X92687947Y-76338170D01*
X92649500Y-76531460D01*
X92110500Y-76531460D01*
X92110500Y-76531459D01*
X92072051Y-76338165D01*
X91996632Y-76156086D01*
X91887139Y-75992218D01*
X91747782Y-75852861D01*
X91583914Y-75743368D01*
X91583915Y-75743368D01*
X91583913Y-75743367D01*
X91401839Y-75667950D01*
X91401829Y-75667947D01*
X91272388Y-75642200D01*
X91208541Y-75629500D01*
X91011459Y-75629500D01*
X90956662Y-75640399D01*
X90818170Y-75667947D01*
X90818160Y-75667950D01*
X90636086Y-75743367D01*
X90472218Y-75852860D01*
X90472217Y-75852862D01*
X90332862Y-75992217D01*
X90332860Y-75992218D01*
X90223367Y-76156086D01*
X90147950Y-76338160D01*
X90147947Y-76338170D01*
X90109500Y-76531460D01*
X89570500Y-76531460D01*
X89570500Y-76531459D01*
X89532051Y-76338165D01*
X89456632Y-76156086D01*
X89347139Y-75992218D01*
X89207782Y-75852861D01*
X89043914Y-75743368D01*
X89043915Y-75743368D01*
X89043913Y-75743367D01*
X88861839Y-75667950D01*
X88861829Y-75667947D01*
X88732388Y-75642200D01*
X88668541Y-75629500D01*
X88471459Y-75629500D01*
X88416662Y-75640399D01*
X88278170Y-75667947D01*
X88278160Y-75667950D01*
X88096086Y-75743367D01*
X87932218Y-75852860D01*
X87932217Y-75852862D01*
X87792862Y-75992217D01*
X87792860Y-75992218D01*
X87683367Y-76156086D01*
X87607950Y-76338160D01*
X87607947Y-76338170D01*
X87569500Y-76531460D01*
X87030500Y-76531460D01*
X87030500Y-76531459D01*
X86992051Y-76338165D01*
X86916632Y-76156086D01*
X86807139Y-75992218D01*
X86667782Y-75852861D01*
X86503914Y-75743368D01*
X86503915Y-75743368D01*
X86503913Y-75743367D01*
X86321839Y-75667950D01*
X86321829Y-75667947D01*
X86192388Y-75642200D01*
X86128541Y-75629500D01*
X85931459Y-75629500D01*
X85876662Y-75640399D01*
X85738170Y-75667947D01*
X85738160Y-75667950D01*
X85556086Y-75743367D01*
X85392218Y-75852860D01*
X85392217Y-75852862D01*
X85252862Y-75992217D01*
X85252860Y-75992218D01*
X85143367Y-76156086D01*
X85067950Y-76338160D01*
X85067947Y-76338170D01*
X85029500Y-76531460D01*
X84490500Y-76531460D01*
X84490500Y-76531459D01*
X84452051Y-76338165D01*
X84376632Y-76156086D01*
X84267139Y-75992218D01*
X84127782Y-75852861D01*
X83963914Y-75743368D01*
X83963915Y-75743368D01*
X83963913Y-75743367D01*
X83781839Y-75667950D01*
X83781829Y-75667947D01*
X83652388Y-75642200D01*
X83588541Y-75629500D01*
X83391459Y-75629500D01*
X83336662Y-75640399D01*
X83198170Y-75667947D01*
X83198160Y-75667950D01*
X83016086Y-75743367D01*
X82852218Y-75852860D01*
X82852217Y-75852862D01*
X82712862Y-75992217D01*
X82712860Y-75992218D01*
X82603367Y-76156086D01*
X82527950Y-76338160D01*
X82527947Y-76338170D01*
X82489500Y-76531460D01*
X81950500Y-76531460D01*
X81950500Y-76531459D01*
X81912051Y-76338165D01*
X81836632Y-76156086D01*
X81727139Y-75992218D01*
X81587782Y-75852861D01*
X81423914Y-75743368D01*
X81423915Y-75743368D01*
X81423913Y-75743367D01*
X81241839Y-75667950D01*
X81241829Y-75667947D01*
X81112388Y-75642200D01*
X81048541Y-75629500D01*
X80851459Y-75629500D01*
X80796662Y-75640399D01*
X80658170Y-75667947D01*
X80658160Y-75667950D01*
X80476086Y-75743367D01*
X80312218Y-75852860D01*
X80312217Y-75852862D01*
X80172862Y-75992217D01*
X80172860Y-75992218D01*
X80063367Y-76156086D01*
X79987950Y-76338160D01*
X79987947Y-76338170D01*
X79949500Y-76531460D01*
X79410500Y-76531460D01*
X79410500Y-76531459D01*
X79372051Y-76338165D01*
X79296632Y-76156086D01*
X79187139Y-75992218D01*
X79047782Y-75852861D01*
X78883914Y-75743368D01*
X78883915Y-75743368D01*
X78883913Y-75743367D01*
X78701839Y-75667950D01*
X78701829Y-75667947D01*
X78572388Y-75642200D01*
X78508541Y-75629500D01*
X78311459Y-75629500D01*
X78256662Y-75640399D01*
X78118170Y-75667947D01*
X78118160Y-75667950D01*
X77936086Y-75743367D01*
X77772218Y-75852860D01*
X77772217Y-75852862D01*
X77632862Y-75992217D01*
X77632860Y-75992218D01*
X77523367Y-76156086D01*
X77447950Y-76338160D01*
X77447947Y-76338170D01*
X77409500Y-76531460D01*
X76870500Y-76531460D01*
X76870500Y-76531459D01*
X76832051Y-76338165D01*
X76756632Y-76156086D01*
X76647139Y-75992218D01*
X76507782Y-75852861D01*
X76343914Y-75743368D01*
X76343915Y-75743368D01*
X76343913Y-75743367D01*
X76161839Y-75667950D01*
X76161829Y-75667947D01*
X76032388Y-75642200D01*
X75968541Y-75629500D01*
X75771459Y-75629500D01*
X75716662Y-75640399D01*
X75578170Y-75667947D01*
X75578160Y-75667950D01*
X75396086Y-75743367D01*
X75232218Y-75852860D01*
X75232217Y-75852862D01*
X75092862Y-75992217D01*
X75092860Y-75992218D01*
X74983367Y-76156086D01*
X74907950Y-76338160D01*
X74907947Y-76338170D01*
X74869500Y-76531460D01*
X68200000Y-76531460D01*
X68200000Y-69711460D01*
X105729500Y-69711460D01*
X105729500Y-69908539D01*
X105767947Y-70101829D01*
X105767950Y-70101839D01*
X105843367Y-70283913D01*
X105952860Y-70447781D01*
X106092218Y-70587139D01*
X106256086Y-70696632D01*
X106422542Y-70765580D01*
X106438165Y-70772051D01*
X106631459Y-70810500D01*
X106631461Y-70810500D01*
X106828539Y-70810500D01*
X106828541Y-70810500D01*
X107021835Y-70772051D01*
X107203914Y-70696632D01*
X107367782Y-70587139D01*
X107507139Y-70447782D01*
X107616632Y-70283914D01*
X107692051Y-70101835D01*
X107730500Y-69908541D01*
X107730500Y-69711460D01*
X108269500Y-69711460D01*
X108269500Y-69908539D01*
X108307947Y-70101829D01*
X108307950Y-70101839D01*
X108383367Y-70283913D01*
X108492860Y-70447781D01*
X108632218Y-70587139D01*
X108796086Y-70696632D01*
X108962542Y-70765580D01*
X108978165Y-70772051D01*
X109171459Y-70810500D01*
X109171461Y-70810500D01*
X109368539Y-70810500D01*
X109368541Y-70810500D01*
X109561835Y-70772051D01*
X109743914Y-70696632D01*
X109907782Y-70587139D01*
X110047139Y-70447782D01*
X110156632Y-70283914D01*
X110232051Y-70101835D01*
X110270500Y-69908541D01*
X110270500Y-69711459D01*
X110232051Y-69518165D01*
X110156632Y-69336086D01*
X110047139Y-69172218D01*
X109907782Y-69032861D01*
X109743914Y-68923368D01*
X109743915Y-68923368D01*
X109743913Y-68923367D01*
X109561839Y-68847950D01*
X109561829Y-68847947D01*
X109432388Y-68822200D01*
X109368541Y-68809500D01*
X109171459Y-68809500D01*
X109116662Y-68820399D01*
X108978170Y-68847947D01*
X108978160Y-68847950D01*
X108796086Y-68923367D01*
X108632218Y-69032860D01*
X108632217Y-69032862D01*
X108492862Y-69172217D01*
X108492860Y-69172218D01*
X108383367Y-69336086D01*
X108307950Y-69518160D01*
X108307947Y-69518170D01*
X108269500Y-69711460D01*
X107730500Y-69711460D01*
X107730500Y-69711459D01*
X107692051Y-69518165D01*
X107616632Y-69336086D01*
X107507139Y-69172218D01*
X107367782Y-69032861D01*
X107203914Y-68923368D01*
X107203915Y-68923368D01*
X107203913Y-68923367D01*
X107021839Y-68847950D01*
X107021829Y-68847947D01*
X106892388Y-68822200D01*
X106828541Y-68809500D01*
X106631459Y-68809500D01*
X106576662Y-68820399D01*
X106438170Y-68847947D01*
X106438160Y-68847950D01*
X106256086Y-68923367D01*
X106092218Y-69032860D01*
X106092217Y-69032862D01*
X105952862Y-69172217D01*
X105952860Y-69172218D01*
X105843367Y-69336086D01*
X105767950Y-69518160D01*
X105767947Y-69518170D01*
X105729500Y-69711460D01*
X68200000Y-69711460D01*
X68200000Y-67181310D01*
X97099500Y-67181310D01*
X97099500Y-67358689D01*
X97134104Y-67532660D01*
X97134107Y-67532670D01*
X97201985Y-67696544D01*
X97201986Y-67696546D01*
X97201987Y-67696547D01*
X97300536Y-67844035D01*
X97425965Y-67969464D01*
X97573453Y-68068013D01*
X97737334Y-68135894D01*
X97911309Y-68170500D01*
X97911311Y-68170500D01*
X98088689Y-68170500D01*
X98088691Y-68170500D01*
X98262666Y-68135894D01*
X98426547Y-68068013D01*
X98574035Y-67969464D01*
X98699464Y-67844035D01*
X98798013Y-67696547D01*
X98865894Y-67532666D01*
X98900500Y-67358691D01*
X98900500Y-67181310D01*
X117099500Y-67181310D01*
X117099500Y-67358689D01*
X117134104Y-67532660D01*
X117134107Y-67532670D01*
X117201985Y-67696544D01*
X117201986Y-67696546D01*
X117201987Y-67696547D01*
X117300536Y-67844035D01*
X117425965Y-67969464D01*
X117573453Y-68068013D01*
X117737334Y-68135894D01*
X117911309Y-68170500D01*
X117911311Y-68170500D01*
X118088689Y-68170500D01*
X118088691Y-68170500D01*
X118262666Y-68135894D01*
X118426547Y-68068013D01*
X118574035Y-67969464D01*
X118699464Y-67844035D01*
X118798013Y-67696547D01*
X118865894Y-67532666D01*
X118900500Y-67358691D01*
X118900500Y-67181309D01*
X118865894Y-67007334D01*
X118798013Y-66843453D01*
X118699464Y-66695965D01*
X118574035Y-66570536D01*
X118541879Y-66549050D01*
X118426544Y-66471985D01*
X118262670Y-66404107D01*
X118262660Y-66404104D01*
X118146156Y-66380930D01*
X118088691Y-66369500D01*
X117911309Y-66369500D01*
X117861989Y-66379310D01*
X117737339Y-66404104D01*
X117737329Y-66404107D01*
X117573455Y-66471985D01*
X117425968Y-66570533D01*
X117300533Y-66695968D01*
X117201985Y-66843455D01*
X117134107Y-67007329D01*
X117134104Y-67007339D01*
X117099500Y-67181310D01*
X98900500Y-67181310D01*
X98900500Y-67181309D01*
X98865894Y-67007334D01*
X98798013Y-66843453D01*
X98699464Y-66695965D01*
X98574035Y-66570536D01*
X98541879Y-66549050D01*
X98426544Y-66471985D01*
X98262670Y-66404107D01*
X98262660Y-66404104D01*
X98146156Y-66380930D01*
X98088691Y-66369500D01*
X97911309Y-66369500D01*
X97861989Y-66379310D01*
X97737339Y-66404104D01*
X97737329Y-66404107D01*
X97573455Y-66471985D01*
X97425968Y-66570533D01*
X97300533Y-66695968D01*
X97201985Y-66843455D01*
X97134107Y-67007329D01*
X97134104Y-67007339D01*
X97099500Y-67181310D01*
X68200000Y-67181310D01*
X68200000Y-64641310D01*
X97099500Y-64641310D01*
X97099500Y-64818689D01*
X97134104Y-64992660D01*
X97134107Y-64992670D01*
X97201985Y-65156544D01*
X97201986Y-65156546D01*
X97201987Y-65156547D01*
X97300536Y-65304035D01*
X97425965Y-65429464D01*
X97573453Y-65528013D01*
X97573454Y-65528013D01*
X97573455Y-65528014D01*
X97695693Y-65578646D01*
X97737334Y-65595894D01*
X97911309Y-65630500D01*
X97911311Y-65630500D01*
X98088689Y-65630500D01*
X98088691Y-65630500D01*
X98262666Y-65595894D01*
X98426547Y-65528013D01*
X98574035Y-65429464D01*
X98699464Y-65304035D01*
X98798013Y-65156547D01*
X98865894Y-64992666D01*
X98900500Y-64818691D01*
X98900500Y-64641310D01*
X117099500Y-64641310D01*
X117099500Y-64818689D01*
X117134104Y-64992660D01*
X117134107Y-64992670D01*
X117201985Y-65156544D01*
X117201986Y-65156546D01*
X117201987Y-65156547D01*
X117300536Y-65304035D01*
X117425965Y-65429464D01*
X117573453Y-65528013D01*
X117573454Y-65528013D01*
X117573455Y-65528014D01*
X117695693Y-65578646D01*
X117737334Y-65595894D01*
X117911309Y-65630500D01*
X117911311Y-65630500D01*
X118088689Y-65630500D01*
X118088691Y-65630500D01*
X118262666Y-65595894D01*
X118426547Y-65528013D01*
X118574035Y-65429464D01*
X118699464Y-65304035D01*
X118798013Y-65156547D01*
X118865894Y-64992666D01*
X118900500Y-64818691D01*
X118900500Y-64641309D01*
X118865894Y-64467334D01*
X118798013Y-64303453D01*
X118699464Y-64155965D01*
X118574035Y-64030536D01*
X118426547Y-63931987D01*
X118426546Y-63931986D01*
X118426544Y-63931985D01*
X118262670Y-63864107D01*
X118262660Y-63864104D01*
X118146156Y-63840930D01*
X118088691Y-63829500D01*
X117911309Y-63829500D01*
X117861989Y-63839310D01*
X117737339Y-63864104D01*
X117737329Y-63864107D01*
X117573455Y-63931985D01*
X117425968Y-64030533D01*
X117300533Y-64155968D01*
X117201985Y-64303455D01*
X117134107Y-64467329D01*
X117134104Y-64467339D01*
X117099500Y-64641310D01*
X98900500Y-64641310D01*
X98900500Y-64641309D01*
X98865894Y-64467334D01*
X98798013Y-64303453D01*
X98699464Y-64155965D01*
X98574035Y-64030536D01*
X98426547Y-63931987D01*
X98426546Y-63931986D01*
X98426544Y-63931985D01*
X98262670Y-63864107D01*
X98262660Y-63864104D01*
X98146156Y-63840930D01*
X98088691Y-63829500D01*
X97911309Y-63829500D01*
X97861989Y-63839310D01*
X97737339Y-63864104D01*
X97737329Y-63864107D01*
X97573455Y-63931985D01*
X97425968Y-64030533D01*
X97300533Y-64155968D01*
X97201985Y-64303455D01*
X97134107Y-64467329D01*
X97134104Y-64467339D01*
X97099500Y-64641310D01*
X68200000Y-64641310D01*
X68200000Y-62091460D01*
X108269500Y-62091460D01*
X108269500Y-62288539D01*
X108307947Y-62481829D01*
X108307950Y-62481839D01*
X108383367Y-62663913D01*
X108383368Y-62663914D01*
X108492861Y-62827782D01*
X108632218Y-62967139D01*
X108796086Y-63076632D01*
X108978165Y-63152051D01*
X109171459Y-63190500D01*
X109171461Y-63190500D01*
X109368539Y-63190500D01*
X109368541Y-63190500D01*
X109561835Y-63152051D01*
X109743914Y-63076632D01*
X109907782Y-62967139D01*
X110047139Y-62827782D01*
X110156632Y-62663914D01*
X110232051Y-62481835D01*
X110270500Y-62288541D01*
X110270500Y-62091459D01*
X110232051Y-61898165D01*
X110156632Y-61716086D01*
X110047139Y-61552218D01*
X109907782Y-61412861D01*
X109844014Y-61370252D01*
X109844005Y-61370246D01*
X110809500Y-61370246D01*
X110809500Y-63009751D01*
X110809643Y-63011203D01*
X110810000Y-63018459D01*
X110810000Y-63190000D01*
X110981536Y-63190000D01*
X110988783Y-63190356D01*
X110990246Y-63190500D01*
X110990252Y-63190500D01*
X112629754Y-63190500D01*
X112631217Y-63190356D01*
X112638464Y-63190000D01*
X112810000Y-63190000D01*
X112810000Y-63018459D01*
X112810357Y-63011203D01*
X112810500Y-63009751D01*
X112810500Y-61370246D01*
X112810356Y-61368783D01*
X112810000Y-61361536D01*
X112810000Y-61190000D01*
X112638464Y-61190000D01*
X112631217Y-61189644D01*
X112629754Y-61189500D01*
X112629748Y-61189500D01*
X110990252Y-61189500D01*
X110990246Y-61189500D01*
X110988783Y-61189644D01*
X110981536Y-61190000D01*
X110810000Y-61190000D01*
X110810000Y-61361536D01*
X110809644Y-61368783D01*
X110809500Y-61370246D01*
X109844005Y-61370246D01*
X109743913Y-61303367D01*
X109561839Y-61227950D01*
X109561829Y-61227947D01*
X109427023Y-61201133D01*
X109368541Y-61189500D01*
X109171459Y-61189500D01*
X109116662Y-61200399D01*
X108978170Y-61227947D01*
X108978160Y-61227950D01*
X108796086Y-61303367D01*
X108632218Y-61412860D01*
X108632217Y-61412862D01*
X108492862Y-61552217D01*
X108492860Y-61552218D01*
X108383367Y-61716086D01*
X108307950Y-61898160D01*
X108307947Y-61898170D01*
X108269500Y-62091460D01*
X68200000Y-62091460D01*
X68200000Y-60274000D01*
X68221674Y-60221674D01*
X68274000Y-60200000D01*
X131726000Y-60200000D01*
X131778326Y-60221674D01*
G37*
%TD.AperFunction*%
%TA.AperFunction,Conductor*%
G36*
X110694526Y-126549447D02*
G01*
X110792218Y-126647139D01*
X110956086Y-126756632D01*
X111130999Y-126829083D01*
X111138165Y-126832051D01*
X111331459Y-126870500D01*
X111331461Y-126870500D01*
X111528539Y-126870500D01*
X111528541Y-126870500D01*
X111721835Y-126832051D01*
X111849568Y-126779142D01*
X111906204Y-126779142D01*
X111930212Y-126795183D01*
X113010389Y-127875360D01*
X113078912Y-127914922D01*
X113155338Y-127935400D01*
X115357577Y-127935400D01*
X115409903Y-127957074D01*
X117426503Y-129973674D01*
X117448177Y-130026000D01*
X117426503Y-130078326D01*
X117374177Y-130100000D01*
X115310001Y-130100000D01*
X115310000Y-130100000D01*
X115296994Y-130101281D01*
X115270980Y-130103843D01*
X115248218Y-130110748D01*
X115233463Y-130115224D01*
X115233461Y-130115224D01*
X115233461Y-130115225D01*
X115198887Y-130133705D01*
X115198883Y-130133708D01*
X115168579Y-130158579D01*
X115143708Y-130188883D01*
X115143705Y-130188887D01*
X115125225Y-130223461D01*
X115113843Y-130260980D01*
X115110000Y-130300001D01*
X115110000Y-139726000D01*
X115088326Y-139778326D01*
X115036000Y-139800000D01*
X112704500Y-139800000D01*
X112652174Y-139778326D01*
X112630500Y-139726000D01*
X112630500Y-132970246D01*
X112630356Y-132968783D01*
X112630000Y-132961536D01*
X112630000Y-132790000D01*
X112458464Y-132790000D01*
X112451217Y-132789644D01*
X112449754Y-132789500D01*
X112449748Y-132789500D01*
X111804500Y-132789500D01*
X111752174Y-132767826D01*
X111730500Y-132715500D01*
X111730500Y-132648736D01*
X111730499Y-132648735D01*
X111729912Y-132646546D01*
X111711760Y-132578800D01*
X111710022Y-132572314D01*
X111710020Y-132572309D01*
X111670459Y-132503788D01*
X110589874Y-131423203D01*
X110568200Y-131370877D01*
X110568200Y-126601773D01*
X110589874Y-126549447D01*
X110642200Y-126527773D01*
X110694526Y-126549447D01*
G37*
%TD.AperFunction*%
%TA.AperFunction,Conductor*%
G36*
X83666612Y-98972309D02*
G01*
X83698078Y-99019401D01*
X83699500Y-99033838D01*
X83699500Y-104829564D01*
X83719977Y-104905985D01*
X83719979Y-104905990D01*
X83747417Y-104953513D01*
X83759540Y-104974511D01*
X84344816Y-105559787D01*
X84366490Y-105612113D01*
X84360857Y-105640431D01*
X84307950Y-105768160D01*
X84307947Y-105768170D01*
X84269500Y-105961460D01*
X84269500Y-106158539D01*
X84307947Y-106351829D01*
X84307950Y-106351839D01*
X84383367Y-106533913D01*
X84465400Y-106656683D01*
X84492861Y-106697782D01*
X84632218Y-106837139D01*
X84796086Y-106946632D01*
X84978165Y-107022051D01*
X85171459Y-107060500D01*
X85171461Y-107060500D01*
X85368539Y-107060500D01*
X85368541Y-107060500D01*
X85561835Y-107022051D01*
X85743914Y-106946632D01*
X85907782Y-106837139D01*
X85994974Y-106749947D01*
X86047300Y-106728273D01*
X86099626Y-106749947D01*
X86121300Y-106802273D01*
X86121300Y-107340177D01*
X86099626Y-107392503D01*
X84648740Y-108843388D01*
X84609179Y-108911909D01*
X84609177Y-108911914D01*
X84588700Y-108988335D01*
X84588700Y-122757677D01*
X84567026Y-122810003D01*
X80709540Y-126667488D01*
X80669979Y-126736009D01*
X80669977Y-126736014D01*
X80649500Y-126812435D01*
X80649500Y-132715500D01*
X80627826Y-132767826D01*
X80575500Y-132789500D01*
X79930246Y-132789500D01*
X79928783Y-132789644D01*
X79921536Y-132790000D01*
X79750000Y-132790000D01*
X79732326Y-132807674D01*
X79680000Y-132829348D01*
X79627674Y-132807674D01*
X79610000Y-132790000D01*
X79438464Y-132790000D01*
X79431217Y-132789644D01*
X79429754Y-132789500D01*
X79429748Y-132789500D01*
X78784500Y-132789500D01*
X78732174Y-132767826D01*
X78710500Y-132715500D01*
X78710500Y-109553223D01*
X78732174Y-109500897D01*
X80205586Y-108027485D01*
X81685860Y-106547211D01*
X81705749Y-106512762D01*
X81750682Y-106478283D01*
X81806834Y-106485675D01*
X81838202Y-106521442D01*
X81843368Y-106533914D01*
X81925399Y-106656683D01*
X81952861Y-106697782D01*
X82092218Y-106837139D01*
X82256086Y-106946632D01*
X82438165Y-107022051D01*
X82631459Y-107060500D01*
X82631461Y-107060500D01*
X82828539Y-107060500D01*
X82828541Y-107060500D01*
X83021835Y-107022051D01*
X83203914Y-106946632D01*
X83367782Y-106837139D01*
X83507139Y-106697782D01*
X83616632Y-106533914D01*
X83692051Y-106351835D01*
X83730500Y-106158541D01*
X83730500Y-105961459D01*
X83692051Y-105768165D01*
X83616632Y-105586086D01*
X83507139Y-105422218D01*
X83367782Y-105282861D01*
X83367732Y-105282827D01*
X83203913Y-105173367D01*
X83021839Y-105097950D01*
X83021829Y-105097947D01*
X82892388Y-105072200D01*
X82828541Y-105059500D01*
X82631459Y-105059500D01*
X82576662Y-105070399D01*
X82438170Y-105097947D01*
X82438160Y-105097950D01*
X82256086Y-105173367D01*
X82092218Y-105282860D01*
X82092217Y-105282862D01*
X81952862Y-105422217D01*
X81952860Y-105422218D01*
X81881429Y-105529123D01*
X81834336Y-105560589D01*
X81778788Y-105549540D01*
X81747322Y-105502447D01*
X81745900Y-105488011D01*
X81745900Y-99879722D01*
X81767573Y-99827397D01*
X82229787Y-99365182D01*
X82282113Y-99343509D01*
X82310431Y-99349141D01*
X82438165Y-99402051D01*
X82631459Y-99440500D01*
X82631461Y-99440500D01*
X82828539Y-99440500D01*
X82828541Y-99440500D01*
X83021835Y-99402051D01*
X83203914Y-99326632D01*
X83367782Y-99217139D01*
X83507139Y-99077782D01*
X83563971Y-98992725D01*
X83611063Y-98961260D01*
X83666612Y-98972309D01*
G37*
%TD.AperFunction*%
%TD*%
M02*
