%TF.GenerationSoftware,KiCad,Pcbnew,10.0.3*%
%TF.CreationDate,2026-06-14T23:07:01-04:00*%
%TF.ProjectId,index,696e6465-782e-46b6-9963-61645f706362,rev?*%
%TF.SameCoordinates,Original*%
%TF.FileFunction,Copper,L2,Bot*%
%TF.FilePolarity,Positive*%
%FSLAX46Y46*%
G04 Gerber Fmt 4.6, Leading zero omitted, Abs format (unit mm)*
G04 Created by KiCad (PCBNEW 10.0.3) date 2026-06-14 23:07:01*
%MOMM*%
%LPD*%
G01*
G04 APERTURE LIST*
%TA.AperFunction,ComponentPad*%
%ADD10C,1.400000*%
%TD*%
%TA.AperFunction,ComponentPad*%
%ADD11C,0.600000*%
%TD*%
%TA.AperFunction,ComponentPad*%
%ADD12R,1.600000X1.600000*%
%TD*%
%TA.AperFunction,ComponentPad*%
%ADD13C,1.600000*%
%TD*%
%TA.AperFunction,SMDPad,CuDef*%
%ADD14R,2.000000X7.000000*%
%TD*%
%TA.AperFunction,ViaPad*%
%ADD15C,0.600000*%
%TD*%
%TA.AperFunction,Conductor*%
%ADD16C,0.200000*%
%TD*%
G04 APERTURE END LIST*
D10*
%TO.P,RFB,1*%
%TO.N,SUM_NODE*%
X90000000Y-67270000D03*
%TO.P,RFB,2*%
%TO.N,OPAMP_OUT*%
X90000000Y-64730000D03*
%TD*%
%TO.P,RAUDIOB,1*%
%TO.N,ANALOG_B*%
X120730000Y-73750000D03*
%TO.P,RAUDIOB,2*%
%TO.N,SUM_NODE*%
X123270000Y-73750000D03*
%TD*%
%TO.P,RPULL,1*%
%TO.N,OPAMP_OUT*%
X120000000Y-67270000D03*
%TO.P,RPULL,2*%
%TO.N,GND*%
X120000000Y-64730000D03*
%TD*%
D11*
%TO.P,gnd_via2,1*%
%TO.N,GND*%
X130000000Y-84250000D03*
%TD*%
D12*
%TO.P,U1,1*%
%TO.N,VCC*%
X116510000Y-110630000D03*
D13*
%TO.P,U1,2*%
%TO.N,A12*%
X113970000Y-110630000D03*
%TO.P,U1,3*%
%TO.N,A7*%
X111430000Y-110630000D03*
%TO.P,U1,4*%
%TO.N,A6*%
X108890000Y-110630000D03*
%TO.P,U1,5*%
%TO.N,A5*%
X106350000Y-110630000D03*
%TO.P,U1,6*%
%TO.N,A4*%
X103810000Y-110630000D03*
%TO.P,U1,7*%
%TO.N,A3*%
X101270000Y-110630000D03*
%TO.P,U1,8*%
%TO.N,A2*%
X98730000Y-110630000D03*
%TO.P,U1,9*%
%TO.N,A1*%
X96190000Y-110630000D03*
%TO.P,U1,10*%
%TO.N,A0*%
X93650000Y-110630000D03*
%TO.P,U1,11*%
%TO.N,D0*%
X91110000Y-110630000D03*
%TO.P,U1,12*%
%TO.N,D1*%
X88570000Y-110630000D03*
%TO.P,U1,13*%
%TO.N,D2*%
X86030000Y-110630000D03*
%TO.P,U1,14*%
%TO.N,GND*%
X83490000Y-110630000D03*
%TO.P,U1,15*%
%TO.N,D3*%
X83490000Y-125870000D03*
%TO.P,U1,16*%
%TO.N,D4*%
X86030000Y-125870000D03*
%TO.P,U1,17*%
%TO.N,D5*%
X88570000Y-125870000D03*
%TO.P,U1,18*%
%TO.N,D6*%
X91110000Y-125870000D03*
%TO.P,U1,19*%
%TO.N,D7*%
X93650000Y-125870000D03*
%TO.P,U1,20*%
%TO.N,ROM_CE*%
X96190000Y-125870000D03*
%TO.P,U1,21*%
%TO.N,A10*%
X98730000Y-125870000D03*
%TO.P,U1,22*%
%TO.N,GND*%
X101270000Y-125870000D03*
%TO.P,U1,23*%
%TO.N,A11*%
X103810000Y-125870000D03*
%TO.P,U1,24*%
%TO.N,A9*%
X106350000Y-125870000D03*
%TO.P,U1,25*%
%TO.N,A8*%
X108890000Y-125870000D03*
%TO.P,U1,26*%
%TO.N,A13*%
X111430000Y-125870000D03*
%TO.P,U1,27*%
%TO.N,A14*%
X113970000Y-125870000D03*
%TO.P,U1,28*%
%TO.N,VCC*%
X116510000Y-125870000D03*
%TD*%
D10*
%TO.P,C5,1*%
%TO.N,CAP_PLUS*%
X115000000Y-67270000D03*
%TO.P,C5,2*%
%TO.N,SUM_NODE*%
X115000000Y-64730000D03*
%TD*%
%TO.P,RAUDIOA,1*%
%TO.N,ANALOG_A*%
X114730000Y-73750000D03*
%TO.P,RAUDIOA,2*%
%TO.N,SUM_NODE*%
X117270000Y-73750000D03*
%TD*%
%TO.P,C1,1*%
%TO.N,VCC*%
X120000000Y-116980000D03*
%TO.P,C1,2*%
%TO.N,GND*%
X120000000Y-119520000D03*
%TD*%
%TO.P,CRESET1,1*%
%TO.N,RESET_DELAYED*%
X78730000Y-95750000D03*
%TO.P,CRESET1,2*%
%TO.N,GND*%
X81270000Y-95750000D03*
%TD*%
%TO.P,C2,1*%
%TO.N,VCC*%
X99000000Y-100980000D03*
%TO.P,C2,2*%
%TO.N,GND*%
X99000000Y-103520000D03*
%TD*%
%TO.P,C3,1*%
%TO.N,VCC*%
X129000000Y-100980000D03*
%TO.P,C3,2*%
%TO.N,GND*%
X129000000Y-103520000D03*
%TD*%
D12*
%TO.P,U4,1*%
%TO.N,GND*%
X124130000Y-76630000D03*
D13*
%TO.P,U4,2*%
%TO.N,N/C*%
X121590000Y-76630000D03*
%TO.P,U4,3*%
%TO.N,ANALOG_B*%
X119050000Y-76630000D03*
%TO.P,U4,4*%
%TO.N,ANALOG_A*%
X116510000Y-76630000D03*
%TO.P,U4,5*%
%TO.N,N/C*%
X113970000Y-76630000D03*
%TO.P,U4,6*%
X111430000Y-76630000D03*
%TO.P,U4,7*%
X108890000Y-76630000D03*
%TO.P,U4,8*%
X106350000Y-76630000D03*
%TO.P,U4,9*%
X103810000Y-76630000D03*
%TO.P,U4,10*%
X101270000Y-76630000D03*
%TO.P,U4,11*%
X98730000Y-76630000D03*
%TO.P,U4,12*%
X96190000Y-76630000D03*
%TO.P,U4,13*%
X93650000Y-76630000D03*
%TO.P,U4,14*%
X91110000Y-76630000D03*
%TO.P,U4,15*%
X88570000Y-76630000D03*
%TO.P,U4,16*%
X86030000Y-76630000D03*
%TO.P,U4,17*%
X83490000Y-76630000D03*
%TO.P,U4,18*%
X80950000Y-76630000D03*
%TO.P,U4,19*%
X78410000Y-76630000D03*
%TO.P,U4,20*%
X75870000Y-76630000D03*
%TO.P,U4,21*%
X75870000Y-91870000D03*
%TO.P,U4,22*%
%TO.N,PHI2OUT*%
X78410000Y-91870000D03*
%TO.P,U4,23*%
%TO.N,RESET_DELAYED*%
X80950000Y-91870000D03*
%TO.P,U4,24*%
%TO.N,GND*%
X83490000Y-91870000D03*
%TO.P,U4,25*%
%TO.N,VCC*%
X86030000Y-91870000D03*
%TO.P,U4,26*%
%TO.N,N/C*%
X88570000Y-91870000D03*
%TO.P,U4,27*%
%TO.N,BDIR*%
X91110000Y-91870000D03*
%TO.P,U4,28*%
%TO.N,VCC*%
X93650000Y-91870000D03*
%TO.P,U4,29*%
%TO.N,BC1*%
X96190000Y-91870000D03*
%TO.P,U4,30*%
%TO.N,DA7*%
X98730000Y-91870000D03*
%TO.P,U4,31*%
%TO.N,DA6*%
X101270000Y-91870000D03*
%TO.P,U4,32*%
%TO.N,DA5*%
X103810000Y-91870000D03*
%TO.P,U4,33*%
%TO.N,DA4*%
X106350000Y-91870000D03*
%TO.P,U4,34*%
%TO.N,DA3*%
X108890000Y-91870000D03*
%TO.P,U4,35*%
%TO.N,DA2*%
X111430000Y-91870000D03*
%TO.P,U4,36*%
%TO.N,DA1*%
X113970000Y-91870000D03*
%TO.P,U4,37*%
%TO.N,DA0*%
X116510000Y-91870000D03*
%TO.P,U4,38*%
%TO.N,ANALOG_C*%
X119050000Y-91870000D03*
%TO.P,U4,39*%
%TO.N,N/C*%
X121590000Y-91870000D03*
%TO.P,U4,40*%
%TO.N,VCC*%
X124130000Y-91870000D03*
%TD*%
D10*
%TO.P,RSERIES,1*%
%TO.N,OPAMP_OUT*%
X110000000Y-67270000D03*
%TO.P,RSERIES,2*%
%TO.N,CAP_PLUS*%
X110000000Y-64730000D03*
%TD*%
D14*
%TO.P,J1,17*%
%TO.N,A15*%
X121590000Y-136490000D03*
%TO.P,J1,18*%
%TO.N,SUM_NODE*%
X119050000Y-136490000D03*
%TO.P,J1,19*%
%TO.N,A7*%
X113970000Y-136490000D03*
%TO.P,J1,20*%
%TO.N,A6*%
X111430000Y-136490000D03*
%TO.P,J1,21*%
%TO.N,A5*%
X108890000Y-136490000D03*
%TO.P,J1,22*%
%TO.N,A4*%
X106350000Y-136490000D03*
%TO.P,J1,23*%
%TO.N,A3*%
X103810000Y-136490000D03*
%TO.P,J1,24*%
%TO.N,A2*%
X101270000Y-136490000D03*
%TO.P,J1,25*%
%TO.N,A1*%
X98730000Y-136490000D03*
%TO.P,J1,26*%
%TO.N,A0*%
X96190000Y-136490000D03*
%TO.P,J1,27*%
%TO.N,D0*%
X93650000Y-136490000D03*
%TO.P,J1,28*%
%TO.N,D1*%
X91110000Y-136490000D03*
%TO.P,J1,29*%
%TO.N,D2*%
X88570000Y-136490000D03*
%TO.P,J1,30*%
%TO.N,GND*%
X86030000Y-136490000D03*
%TO.P,J1,31*%
%TO.N,N/C*%
X80950000Y-136490000D03*
%TO.P,J1,32*%
%TO.N,PHI2*%
X78410000Y-136490000D03*
%TD*%
D10*
%TO.P,CBYPASS,1*%
%TO.N,VCC*%
X85000000Y-67270000D03*
%TO.P,CBYPASS,2*%
%TO.N,GND*%
X85000000Y-64730000D03*
%TD*%
%TO.P,C4,1*%
%TO.N,VCC*%
X128000000Y-82980000D03*
%TO.P,C4,2*%
%TO.N,GND*%
X128000000Y-85520000D03*
%TD*%
%TO.P,RRESET1,1*%
%TO.N,VCC*%
X84730000Y-95750000D03*
%TO.P,RRESET1,2*%
%TO.N,RESET_DELAYED*%
X87270000Y-95750000D03*
%TD*%
D11*
%TO.P,gnd_via,1*%
%TO.N,GND*%
X131000000Y-115000000D03*
%TD*%
D10*
%TO.P,RAUDIOC,1*%
%TO.N,ANALOG_C*%
X118730000Y-95750000D03*
%TO.P,RAUDIOC,2*%
%TO.N,SUM_NODE*%
X121270000Y-95750000D03*
%TD*%
D12*
%TO.P,U2,1*%
%TO.N,N/C*%
X95430000Y-98440000D03*
D13*
%TO.P,U2,2*%
%TO.N,A15*%
X92890000Y-98440000D03*
%TO.P,U2,3*%
%TO.N,A14*%
X90350000Y-98440000D03*
%TO.P,U2,4*%
%TO.N,A0*%
X87810000Y-98440000D03*
%TO.P,U2,5*%
%TO.N,HALT*%
X85270000Y-98440000D03*
%TO.P,U2,6*%
%TO.N,RW*%
X82730000Y-98440000D03*
%TO.P,U2,7*%
%TO.N,PHI2*%
X80190000Y-98440000D03*
%TO.P,U2,8*%
%TO.N,N/C*%
X77650000Y-98440000D03*
%TO.P,U2,9*%
X75110000Y-98440000D03*
%TO.P,U2,10*%
%TO.N,GND*%
X72570000Y-98440000D03*
%TO.P,U2,11*%
%TO.N,N/C*%
X72570000Y-106060000D03*
%TO.P,U2,12*%
X75110000Y-106060000D03*
%TO.P,U2,13*%
X77650000Y-106060000D03*
%TO.P,U2,14*%
X80190000Y-106060000D03*
%TO.P,U2,15*%
%TO.N,YM_LE*%
X82730000Y-106060000D03*
%TO.P,U2,16*%
%TO.N,PHI2OUT*%
X85270000Y-106060000D03*
%TO.P,U2,17*%
%TO.N,BC1*%
X87810000Y-106060000D03*
%TO.P,U2,18*%
%TO.N,BDIR*%
X90350000Y-106060000D03*
%TO.P,U2,19*%
%TO.N,ROM_CE*%
X92890000Y-106060000D03*
%TO.P,U2,20*%
%TO.N,VCC*%
X95430000Y-106060000D03*
%TD*%
D12*
%TO.P,U5,1*%
%TO.N,OPAMP_OUT*%
X103810000Y-62190000D03*
D13*
%TO.P,U5,2*%
%TO.N,SUM_NODE*%
X101270000Y-62190000D03*
%TO.P,U5,3*%
%TO.N,GND*%
X98730000Y-62190000D03*
%TO.P,U5,4*%
X96190000Y-62190000D03*
%TO.P,U5,5*%
X96190000Y-69810000D03*
%TO.P,U5,6*%
%TO.N,U5_UNUSED_FB*%
X98730000Y-69810000D03*
%TO.P,U5,7*%
X101270000Y-69810000D03*
%TO.P,U5,8*%
%TO.N,VCC*%
X103810000Y-69810000D03*
%TD*%
D12*
%TO.P,U3,1*%
%TO.N,GND*%
X125430000Y-98440000D03*
D13*
%TO.P,U3,2*%
%TO.N,DA0*%
X122890000Y-98440000D03*
%TO.P,U3,3*%
%TO.N,D0*%
X120350000Y-98440000D03*
%TO.P,U3,4*%
%TO.N,D1*%
X117810000Y-98440000D03*
%TO.P,U3,5*%
%TO.N,DA1*%
X115270000Y-98440000D03*
%TO.P,U3,6*%
%TO.N,DA2*%
X112730000Y-98440000D03*
%TO.P,U3,7*%
%TO.N,D2*%
X110190000Y-98440000D03*
%TO.P,U3,8*%
%TO.N,D3*%
X107650000Y-98440000D03*
%TO.P,U3,9*%
%TO.N,DA3*%
X105110000Y-98440000D03*
%TO.P,U3,10*%
%TO.N,GND*%
X102570000Y-98440000D03*
%TO.P,U3,11*%
%TO.N,YM_LE*%
X102570000Y-106060000D03*
%TO.P,U3,12*%
%TO.N,DA4*%
X105110000Y-106060000D03*
%TO.P,U3,13*%
%TO.N,D4*%
X107650000Y-106060000D03*
%TO.P,U3,14*%
%TO.N,D5*%
X110190000Y-106060000D03*
%TO.P,U3,15*%
%TO.N,DA5*%
X112730000Y-106060000D03*
%TO.P,U3,16*%
%TO.N,DA6*%
X115270000Y-106060000D03*
%TO.P,U3,17*%
%TO.N,D6*%
X117810000Y-106060000D03*
%TO.P,U3,18*%
%TO.N,D7*%
X120350000Y-106060000D03*
%TO.P,U3,19*%
%TO.N,DA7*%
X122890000Y-106060000D03*
%TO.P,U3,20*%
%TO.N,VCC*%
X125430000Y-106060000D03*
%TD*%
D15*
%TO.N,SUM_NODE*%
X121116500Y-131947600D03*
%TO.N,A12*%
X96121800Y-129831300D03*
%TO.N,A7*%
X113326100Y-123557600D03*
%TO.N,A6*%
X110610000Y-132178300D03*
%TO.N,A5*%
X108052400Y-132178300D03*
%TO.N,A4*%
X105323300Y-132178300D03*
%TO.N,A3*%
X102338900Y-131793100D03*
%TO.N,A2*%
X101459300Y-132178300D03*
%TO.N,A1*%
X98700700Y-131906700D03*
%TO.N,A0*%
X92878200Y-100414300D03*
X95866000Y-132178300D03*
%TO.N,D0*%
X93136900Y-132178300D03*
%TO.N,D1*%
X89644200Y-101952100D03*
X90407800Y-132178300D03*
%TO.N,D3*%
X107817800Y-100319600D03*
%TO.N,A13*%
X118335000Y-132077400D03*
%TO.N,A14*%
X116353800Y-127214300D03*
X106777600Y-99478400D03*
%TO.N,A15*%
X107379100Y-119172900D03*
%TO.N,YM_LE*%
X97143800Y-103602900D03*
%TD*%
%TO.N,SUM_NODE*%
D16*
X115000000Y-64730000D02*
X111358300Y-61088300D01*
X89578400Y-63680500D02*
X99779500Y-63680500D01*
X88958500Y-66228500D02*
X88958500Y-64300400D01*
X122260900Y-74759100D02*
X123270000Y-73750000D01*
X99779500Y-63680500D02*
X101270000Y-62190000D01*
X117270000Y-73750000D02*
X118279100Y-74759100D01*
X118279100Y-74759100D02*
X122260900Y-74759100D01*
X111358300Y-61088300D02*
X102371700Y-61088300D01*
X120375800Y-132688300D02*
X121116500Y-131947600D01*
X119050000Y-132688300D02*
X120375800Y-132688300D01*
X88958500Y-64300400D02*
X89578400Y-63680500D01*
X90000000Y-67270000D02*
X88958500Y-66228500D01*
X119050000Y-136490000D02*
X119050000Y-132688300D01*
X102371700Y-61088300D02*
X101270000Y-62190000D01*
%TO.N,OPAMP_OUT*%
X110000000Y-67270000D02*
X111036200Y-68306200D01*
X111036200Y-68306200D02*
X118963800Y-68306200D01*
X103810000Y-62190000D02*
X104911700Y-62190000D01*
X118963800Y-68306200D02*
X120000000Y-67270000D01*
X104911700Y-64730000D02*
X90000000Y-64730000D01*
X104911700Y-64730000D02*
X107451700Y-67270000D01*
X104911700Y-62190000D02*
X104911700Y-64730000D01*
X107451700Y-67270000D02*
X110000000Y-67270000D01*
%TO.N,VCC*%
X93650000Y-91870000D02*
X92544900Y-92975100D01*
X120860000Y-110630000D02*
X116510000Y-110630000D01*
X92544900Y-92975100D02*
X87135100Y-92975100D01*
X93650000Y-91870000D02*
X95216600Y-90303400D01*
X125430000Y-106060000D02*
X120860000Y-110630000D01*
X103810000Y-69810000D02*
X102694300Y-68694300D01*
X95216600Y-90303400D02*
X122563400Y-90303400D01*
X122563400Y-90303400D02*
X124130000Y-91870000D01*
X87135100Y-92975100D02*
X86030000Y-91870000D01*
X86424300Y-68694300D02*
X85000000Y-67270000D01*
X102694300Y-68694300D02*
X86424300Y-68694300D01*
%TO.N,A12*%
X96011700Y-129831300D02*
X96121800Y-129831300D01*
X99054400Y-118839400D02*
X92510300Y-125383500D01*
X92510300Y-126329900D02*
X96011700Y-129831300D01*
X113970000Y-110630000D02*
X105760600Y-118839400D01*
X105760600Y-118839400D02*
X99054400Y-118839400D01*
X92510300Y-125383500D02*
X92510300Y-126329900D01*
%TO.N,A7*%
X113970000Y-136490000D02*
X113970000Y-130210000D01*
X110310000Y-126550000D02*
X110310000Y-125411900D01*
X113970000Y-130210000D02*
X110310000Y-126550000D01*
X110310000Y-125411900D02*
X112164300Y-123557600D01*
X112164300Y-123557600D02*
X113326100Y-123557600D01*
%TO.N,A6*%
X111120000Y-132688300D02*
X110610000Y-132178300D01*
X111430000Y-132688300D02*
X111120000Y-132688300D01*
X111430000Y-136490000D02*
X111430000Y-132688300D01*
%TO.N,A5*%
X108890000Y-136490000D02*
X108890000Y-132688300D01*
X108890000Y-132688300D02*
X108562400Y-132688300D01*
X108562400Y-132688300D02*
X108052400Y-132178300D01*
%TO.N,A4*%
X105833300Y-132688300D02*
X105323300Y-132178300D01*
X106350000Y-132688300D02*
X105833300Y-132688300D01*
X106350000Y-136490000D02*
X106350000Y-132688300D01*
%TO.N,A3*%
X103810000Y-132688300D02*
X103234100Y-132688300D01*
X103810000Y-136490000D02*
X103810000Y-132688300D01*
X103234100Y-132688300D02*
X102338900Y-131793100D01*
%TO.N,A2*%
X101270000Y-132688300D02*
X101459300Y-132499000D01*
X101459300Y-132499000D02*
X101459300Y-132178300D01*
X101270000Y-136490000D02*
X101270000Y-132688300D01*
%TO.N,A1*%
X98730000Y-131936000D02*
X98730000Y-136490000D01*
X98700700Y-131906700D02*
X98730000Y-131936000D01*
%TO.N,A0*%
X89784300Y-100414300D02*
X92878200Y-100414300D01*
X96190000Y-136490000D02*
X96190000Y-132688300D01*
X96190000Y-132688300D02*
X95866000Y-132364300D01*
X87810000Y-98440000D02*
X89784300Y-100414300D01*
X95866000Y-132364300D02*
X95866000Y-132178300D01*
%TO.N,D0*%
X103910600Y-105664500D02*
X108679500Y-100895600D01*
X117894500Y-100895500D02*
X120350000Y-98440000D01*
X93650000Y-132688300D02*
X93646900Y-132688300D01*
X108679500Y-100895600D02*
X117894500Y-100895600D01*
X92219800Y-111739800D02*
X96685100Y-111739800D01*
X93646900Y-132688300D02*
X93136900Y-132178300D01*
X97318500Y-111106400D02*
X97318500Y-110403800D01*
X99960500Y-107761800D02*
X102451600Y-107761800D01*
X103910600Y-106302800D02*
X103910600Y-105664500D01*
X102451600Y-107761800D02*
X103910600Y-106302800D01*
X91110000Y-110630000D02*
X92219800Y-111739800D01*
X97318500Y-110403800D02*
X99960500Y-107761800D01*
X117894500Y-100895600D02*
X117894500Y-100895500D01*
X96685100Y-111739800D02*
X97318500Y-111106400D01*
X93650000Y-136490000D02*
X93650000Y-132688300D01*
%TO.N,D1*%
X109061600Y-98600000D02*
X107943700Y-99717900D01*
X109701400Y-97304100D02*
X109061600Y-97943900D01*
X117810000Y-98440000D02*
X116674100Y-97304100D01*
X91110000Y-136490000D02*
X91110000Y-132688300D01*
X105304900Y-101981700D02*
X89673800Y-101981700D01*
X91110000Y-132688300D02*
X90917800Y-132688300D01*
X109061600Y-97943900D02*
X109061600Y-98600000D01*
X90917800Y-132688300D02*
X90407800Y-132178300D01*
X107943700Y-99717900D02*
X107568700Y-99717900D01*
X107568700Y-99717900D02*
X105304900Y-101981700D01*
X116674100Y-97304100D02*
X109701400Y-97304100D01*
X89673800Y-101981700D02*
X89644200Y-101952100D01*
%TO.N,D2*%
X89839900Y-104907600D02*
X89080000Y-105667500D01*
X104091400Y-104907600D02*
X89839900Y-104907600D01*
X84879300Y-111780700D02*
X84879300Y-128853600D01*
X89080000Y-107580000D02*
X86030000Y-110630000D01*
X86030000Y-110630000D02*
X84879300Y-111780700D01*
X110190000Y-98440000D02*
X110190000Y-98809000D01*
X89080000Y-105667500D02*
X89080000Y-107580000D01*
X88570000Y-132544300D02*
X88570000Y-136490000D01*
X110190000Y-98809000D02*
X104091400Y-104907600D01*
X84879300Y-128853600D02*
X88570000Y-132544300D01*
%TO.N,D3*%
X84678100Y-102553900D02*
X89893500Y-102553900D01*
X90031500Y-102415900D02*
X105721500Y-102415900D01*
X89893500Y-102553900D02*
X90031500Y-102415900D01*
X83490000Y-125870000D02*
X81574900Y-123954900D01*
X81574900Y-123954900D02*
X81574900Y-105657100D01*
X81574900Y-105657100D02*
X84678100Y-102553900D01*
X105721500Y-102415900D02*
X107817800Y-100319600D01*
%TO.N,D4*%
X106807200Y-106060000D02*
X102371700Y-110495500D01*
X107650000Y-106060000D02*
X106807200Y-106060000D01*
X102371700Y-110495500D02*
X102371700Y-111131200D01*
X93813100Y-119689800D02*
X92210200Y-119689800D01*
X102371700Y-111131200D02*
X93813100Y-119689800D01*
X92210200Y-119689800D02*
X86030000Y-125870000D01*
%TO.N,D5*%
X110190000Y-106060000D02*
X109347200Y-106060000D01*
X109347200Y-106060000D02*
X104911700Y-110495500D01*
X104911700Y-111131200D02*
X96353100Y-119689800D01*
X94750200Y-119689800D02*
X88570000Y-125870000D01*
X96353100Y-119689800D02*
X94750200Y-119689800D01*
X104911700Y-110495500D02*
X104911700Y-111131200D01*
%TO.N,D6*%
X105229800Y-118437700D02*
X98542300Y-118437700D01*
X98542300Y-118437700D02*
X91110000Y-125870000D01*
X116967200Y-106060000D02*
X112700000Y-110327200D01*
X117810000Y-106060000D02*
X116967200Y-106060000D01*
X112700000Y-110967500D02*
X105229800Y-118437700D01*
X112700000Y-110327200D02*
X112700000Y-110967500D01*
%TO.N,D7*%
X120350000Y-106060000D02*
X117895200Y-108514800D01*
X107651000Y-118571200D02*
X107130000Y-118571200D01*
X106256500Y-119444700D02*
X100075300Y-119444700D01*
X107130000Y-118571200D02*
X106256500Y-119444700D01*
X100075300Y-119444700D02*
X93650000Y-125870000D01*
X115381600Y-109696900D02*
X115381600Y-110840600D01*
X116563700Y-108514800D02*
X115381600Y-109696900D01*
X115381600Y-110840600D02*
X107651000Y-118571200D01*
X117895200Y-108514800D02*
X116563700Y-108514800D01*
%TO.N,A13*%
X111430000Y-125870000D02*
X115382900Y-129822900D01*
X115382900Y-129822900D02*
X117762100Y-129822900D01*
X118335000Y-130395800D02*
X118335000Y-132077400D01*
X117762100Y-129822900D02*
X118335000Y-130395800D01*
%TO.N,A14*%
X106686600Y-99569400D02*
X106777600Y-99478400D01*
X91479400Y-99569400D02*
X106686600Y-99569400D01*
X115314300Y-127214300D02*
X116353800Y-127214300D01*
X113970000Y-125870000D02*
X115314300Y-127214300D01*
X90350000Y-98440000D02*
X91479400Y-99569400D01*
%TO.N,CAP_PLUS*%
X112540000Y-67270000D02*
X115000000Y-67270000D01*
X110000000Y-64730000D02*
X112540000Y-67270000D01*
%TO.N,RESET_DELAYED*%
X87270000Y-95750000D02*
X86244800Y-96775200D01*
X79755200Y-96775200D02*
X78730000Y-95750000D01*
X86244800Y-96775200D02*
X79755200Y-96775200D01*
%TO.N,DA7*%
X99874000Y-90726000D02*
X116949300Y-90726000D01*
X123994400Y-104955600D02*
X122890000Y-106060000D01*
X120307900Y-94714900D02*
X121659500Y-94714900D01*
X117948300Y-92355300D02*
X120307900Y-94714900D01*
X121659500Y-94714900D02*
X123994400Y-97049800D01*
X117948300Y-91725000D02*
X117948300Y-92355300D01*
X116949300Y-90726000D02*
X117948300Y-91725000D01*
X123994400Y-97049800D02*
X123994400Y-104955600D01*
X98730000Y-91870000D02*
X99874000Y-90726000D01*
%TO.N,DA3*%
X105110000Y-98440000D02*
X105110000Y-95650000D01*
X105110000Y-95650000D02*
X108890000Y-91870000D01*
%TO.N,DA0*%
X122509900Y-98440000D02*
X120000000Y-95930100D01*
X120000000Y-95930100D02*
X120000000Y-95360000D01*
X122890000Y-98440000D02*
X122509900Y-98440000D01*
X120000000Y-95360000D02*
X116510000Y-91870000D01*
%TO.N,A15*%
X121590000Y-136490000D02*
X121590000Y-132688300D01*
X107379100Y-119172900D02*
X111385800Y-119172900D01*
X121771600Y-129558700D02*
X121771600Y-132506700D01*
X121771600Y-132506700D02*
X121590000Y-132688300D01*
X111385800Y-119172900D02*
X121771600Y-129558700D01*
%TO.N,PHI2*%
X78410000Y-136490000D02*
X78410000Y-132688300D01*
X80190000Y-98440000D02*
X78920000Y-99710000D01*
X78920000Y-132178300D02*
X78410000Y-132688300D01*
X78920000Y-99710000D02*
X78920000Y-132178300D01*
%TO.N,YM_LE*%
X85187100Y-103602900D02*
X82730000Y-106060000D01*
X97143800Y-103602900D02*
X85187100Y-103602900D01*
%TO.N,U5_UNUSED_FB*%
X101270000Y-69810000D02*
X98730000Y-69810000D01*
%TD*%
%TA.AperFunction,Conductor*%
%TO.N,GND*%
G36*
X131778326Y-60221674D02*
G01*
X131800000Y-60274000D01*
X131800000Y-115636506D01*
X131778326Y-115688832D01*
X131438832Y-116028326D01*
X131386506Y-116050000D01*
X131300000Y-116050000D01*
X123800000Y-116050000D01*
X123786994Y-116051281D01*
X123760980Y-116053843D01*
X123738218Y-116060748D01*
X123723463Y-116065224D01*
X123723461Y-116065224D01*
X123723461Y-116065225D01*
X123688887Y-116083705D01*
X123688883Y-116083708D01*
X123658579Y-116108579D01*
X123633708Y-116138883D01*
X123633705Y-116138887D01*
X123615225Y-116173461D01*
X123603843Y-116210980D01*
X123600000Y-116250001D01*
X123600000Y-139726000D01*
X123578326Y-139778326D01*
X123526000Y-139800000D01*
X122864500Y-139800000D01*
X122812174Y-139778326D01*
X122790500Y-139726000D01*
X122790500Y-132970246D01*
X122790356Y-132968783D01*
X122790000Y-132961536D01*
X122790000Y-132790000D01*
X122618464Y-132790000D01*
X122611217Y-132789644D01*
X122609754Y-132789500D01*
X122609748Y-132789500D01*
X122083484Y-132789500D01*
X122031158Y-132767826D01*
X122009484Y-132715500D01*
X122019395Y-132678505D01*
X122029913Y-132660288D01*
X122051621Y-132622689D01*
X122072099Y-132546264D01*
X122072100Y-132546264D01*
X122072100Y-129519136D01*
X122072099Y-129519135D01*
X122051622Y-129442714D01*
X122051620Y-129442709D01*
X122012059Y-129374188D01*
X111570311Y-118932440D01*
X111560866Y-118926987D01*
X111501790Y-118892879D01*
X111501785Y-118892877D01*
X111425364Y-118872400D01*
X111425362Y-118872400D01*
X107953423Y-118872400D01*
X107901097Y-118850726D01*
X107879423Y-118798400D01*
X107901097Y-118746074D01*
X109755861Y-116891310D01*
X119099500Y-116891310D01*
X119099500Y-117068689D01*
X119134104Y-117242660D01*
X119134107Y-117242670D01*
X119201985Y-117406544D01*
X119201986Y-117406546D01*
X119201987Y-117406547D01*
X119300536Y-117554035D01*
X119425965Y-117679464D01*
X119573453Y-117778013D01*
X119737334Y-117845894D01*
X119911309Y-117880500D01*
X119911311Y-117880500D01*
X120088689Y-117880500D01*
X120088691Y-117880500D01*
X120262666Y-117845894D01*
X120426547Y-117778013D01*
X120574035Y-117679464D01*
X120699464Y-117554035D01*
X120798013Y-117406547D01*
X120865894Y-117242666D01*
X120900500Y-117068691D01*
X120900500Y-116891309D01*
X120865894Y-116717334D01*
X120798013Y-116553453D01*
X120699464Y-116405965D01*
X120574035Y-116280536D01*
X120529083Y-116250500D01*
X120426544Y-116181985D01*
X120262670Y-116114107D01*
X120262660Y-116114104D01*
X120146156Y-116090930D01*
X120088691Y-116079500D01*
X119911309Y-116079500D01*
X119861989Y-116089310D01*
X119737339Y-116114104D01*
X119737329Y-116114107D01*
X119573455Y-116181985D01*
X119425968Y-116280533D01*
X119300533Y-116405968D01*
X119201985Y-116553455D01*
X119134107Y-116717329D01*
X119134104Y-116717339D01*
X119099500Y-116891310D01*
X109755861Y-116891310D01*
X115383174Y-111263997D01*
X115409125Y-111253247D01*
X115435240Y-111242323D01*
X115435370Y-111242376D01*
X115435500Y-111242323D01*
X115461430Y-111253063D01*
X115487642Y-111263813D01*
X115487696Y-111263943D01*
X115487826Y-111263997D01*
X115509500Y-111316063D01*
X115509500Y-111449748D01*
X115509978Y-111452154D01*
X115510000Y-111458199D01*
X115509988Y-111458226D01*
X115510000Y-111458459D01*
X115510000Y-111630000D01*
X115681536Y-111630000D01*
X115688783Y-111630356D01*
X115690246Y-111630500D01*
X115690252Y-111630500D01*
X117329754Y-111630500D01*
X117331217Y-111630356D01*
X117338464Y-111630000D01*
X117510000Y-111630000D01*
X117510000Y-111458459D01*
X117510357Y-111451203D01*
X117510500Y-111449751D01*
X117510500Y-111004500D01*
X117532174Y-110952174D01*
X117584500Y-110930500D01*
X120899564Y-110930500D01*
X120899564Y-110930499D01*
X120975989Y-110910021D01*
X121044511Y-110870460D01*
X121100460Y-110814511D01*
X124929787Y-106985182D01*
X124982112Y-106963509D01*
X125010430Y-106969142D01*
X125106850Y-107009080D01*
X125138165Y-107022051D01*
X125331459Y-107060500D01*
X125331461Y-107060500D01*
X125528539Y-107060500D01*
X125528541Y-107060500D01*
X125721835Y-107022051D01*
X125903914Y-106946632D01*
X126067782Y-106837139D01*
X126207139Y-106697782D01*
X126316632Y-106533914D01*
X126392051Y-106351835D01*
X126430500Y-106158541D01*
X126430500Y-105961459D01*
X126392051Y-105768165D01*
X126316632Y-105586086D01*
X126207139Y-105422218D01*
X126067782Y-105282861D01*
X126066644Y-105282100D01*
X125903913Y-105173367D01*
X125721839Y-105097950D01*
X125721829Y-105097947D01*
X125570966Y-105067939D01*
X125528541Y-105059500D01*
X125331459Y-105059500D01*
X125289034Y-105067939D01*
X125138170Y-105097947D01*
X125138160Y-105097950D01*
X124956086Y-105173367D01*
X124792218Y-105282860D01*
X124792217Y-105282862D01*
X124652862Y-105422217D01*
X124652860Y-105422218D01*
X124543367Y-105586086D01*
X124467950Y-105768160D01*
X124467947Y-105768170D01*
X124429500Y-105961460D01*
X124429500Y-106158539D01*
X124467947Y-106351829D01*
X124467950Y-106351839D01*
X124520857Y-106479567D01*
X124520857Y-106536204D01*
X124504816Y-106560211D01*
X120757203Y-110307826D01*
X120704877Y-110329500D01*
X117584500Y-110329500D01*
X117532174Y-110307826D01*
X117510500Y-110255500D01*
X117510500Y-109810246D01*
X117510356Y-109808783D01*
X117510000Y-109801536D01*
X117510000Y-109630000D01*
X117338464Y-109630000D01*
X117331217Y-109629644D01*
X117329754Y-109629500D01*
X117329748Y-109629500D01*
X116052623Y-109629500D01*
X116000297Y-109607826D01*
X115978623Y-109555500D01*
X116000297Y-109503174D01*
X116666497Y-108836974D01*
X116718823Y-108815300D01*
X117934764Y-108815300D01*
X117934764Y-108815299D01*
X118011189Y-108794821D01*
X118079711Y-108755260D01*
X118135660Y-108699311D01*
X119849787Y-106985182D01*
X119902112Y-106963509D01*
X119930430Y-106969142D01*
X120026850Y-107009080D01*
X120058165Y-107022051D01*
X120251459Y-107060500D01*
X120251461Y-107060500D01*
X120448539Y-107060500D01*
X120448541Y-107060500D01*
X120641835Y-107022051D01*
X120823914Y-106946632D01*
X120987782Y-106837139D01*
X121127139Y-106697782D01*
X121236632Y-106533914D01*
X121312051Y-106351835D01*
X121350500Y-106158541D01*
X121350500Y-105961459D01*
X121312051Y-105768165D01*
X121236632Y-105586086D01*
X121127139Y-105422218D01*
X120987782Y-105282861D01*
X120986644Y-105282100D01*
X120823913Y-105173367D01*
X120641839Y-105097950D01*
X120641829Y-105097947D01*
X120490966Y-105067939D01*
X120448541Y-105059500D01*
X120251459Y-105059500D01*
X120209034Y-105067939D01*
X120058170Y-105097947D01*
X120058160Y-105097950D01*
X119876086Y-105173367D01*
X119712218Y-105282860D01*
X119712217Y-105282862D01*
X119572862Y-105422217D01*
X119572860Y-105422218D01*
X119463367Y-105586086D01*
X119387950Y-105768160D01*
X119387947Y-105768170D01*
X119349500Y-105961460D01*
X119349500Y-106158539D01*
X119387947Y-106351829D01*
X119387950Y-106351839D01*
X119440857Y-106479567D01*
X119440857Y-106536204D01*
X119424816Y-106560211D01*
X117792403Y-108192626D01*
X117740077Y-108214300D01*
X116524136Y-108214300D01*
X116447714Y-108234777D01*
X116447709Y-108234779D01*
X116379188Y-108274340D01*
X115141140Y-109512388D01*
X115101579Y-109580909D01*
X115101577Y-109580914D01*
X115081100Y-109657335D01*
X115081100Y-110336149D01*
X115059426Y-110388475D01*
X115007100Y-110410149D01*
X114954774Y-110388475D01*
X114934522Y-110350587D01*
X114934221Y-110349074D01*
X114932051Y-110338165D01*
X114856632Y-110156086D01*
X114747139Y-109992218D01*
X114607782Y-109852861D01*
X114544014Y-109810252D01*
X114443913Y-109743367D01*
X114261839Y-109667950D01*
X114261829Y-109667947D01*
X114132388Y-109642200D01*
X114068541Y-109629500D01*
X114001322Y-109629500D01*
X113948996Y-109607826D01*
X113927322Y-109555500D01*
X113948996Y-109503174D01*
X115389871Y-108062299D01*
X116857562Y-106594607D01*
X116909887Y-106572934D01*
X116962213Y-106594608D01*
X116971412Y-106605817D01*
X117032861Y-106697782D01*
X117172218Y-106837139D01*
X117336086Y-106946632D01*
X117518165Y-107022051D01*
X117711459Y-107060500D01*
X117711461Y-107060500D01*
X117908539Y-107060500D01*
X117908541Y-107060500D01*
X118101835Y-107022051D01*
X118283914Y-106946632D01*
X118447782Y-106837139D01*
X118587139Y-106697782D01*
X118696632Y-106533914D01*
X118772051Y-106351835D01*
X118810500Y-106158541D01*
X118810500Y-105961459D01*
X118772051Y-105768165D01*
X118696632Y-105586086D01*
X118587139Y-105422218D01*
X118447782Y-105282861D01*
X118446644Y-105282100D01*
X118283913Y-105173367D01*
X118101839Y-105097950D01*
X118101829Y-105097947D01*
X117950966Y-105067939D01*
X117908541Y-105059500D01*
X117711459Y-105059500D01*
X117669034Y-105067939D01*
X117518170Y-105097947D01*
X117518160Y-105097950D01*
X117336086Y-105173367D01*
X117172218Y-105282860D01*
X117172217Y-105282862D01*
X117032862Y-105422217D01*
X117032860Y-105422218D01*
X116923368Y-105586085D01*
X116850105Y-105762959D01*
X116818740Y-105798725D01*
X116782690Y-105819539D01*
X116396826Y-106205402D01*
X116344500Y-106227076D01*
X116292174Y-106205402D01*
X116270500Y-106153076D01*
X116270500Y-105961460D01*
X116232052Y-105768170D01*
X116232051Y-105768169D01*
X116232051Y-105768165D01*
X116156632Y-105586086D01*
X116047139Y-105422218D01*
X115907782Y-105282861D01*
X115906644Y-105282100D01*
X115743913Y-105173367D01*
X115561839Y-105097950D01*
X115561829Y-105097947D01*
X115410966Y-105067939D01*
X115368541Y-105059500D01*
X115171459Y-105059500D01*
X115129034Y-105067939D01*
X114978170Y-105097947D01*
X114978160Y-105097950D01*
X114796086Y-105173367D01*
X114632218Y-105282860D01*
X114632217Y-105282862D01*
X114492862Y-105422217D01*
X114492860Y-105422218D01*
X114383367Y-105586086D01*
X114307950Y-105768160D01*
X114307947Y-105768170D01*
X114269500Y-105961460D01*
X114269500Y-106158539D01*
X114307947Y-106351829D01*
X114307950Y-106351839D01*
X114383367Y-106533913D01*
X114463499Y-106653838D01*
X114492861Y-106697782D01*
X114632218Y-106837139D01*
X114796086Y-106946632D01*
X114978165Y-107022051D01*
X115171459Y-107060500D01*
X115171461Y-107060500D01*
X115363076Y-107060500D01*
X115415402Y-107082174D01*
X115437076Y-107134500D01*
X115415402Y-107186826D01*
X112517317Y-110084911D01*
X112517310Y-110084918D01*
X112515489Y-110086740D01*
X112459540Y-110142689D01*
X112444570Y-110168617D01*
X112439895Y-110173997D01*
X112420437Y-110183700D01*
X112403191Y-110196934D01*
X112395844Y-110195966D01*
X112389212Y-110199274D01*
X112368592Y-110192377D01*
X112347039Y-110189539D01*
X112341617Y-110183355D01*
X112335499Y-110181309D01*
X112329794Y-110169870D01*
X112319824Y-110158499D01*
X112318345Y-110159290D01*
X112316634Y-110156089D01*
X112207139Y-109992218D01*
X112067781Y-109852860D01*
X111903913Y-109743367D01*
X111721839Y-109667950D01*
X111721829Y-109667947D01*
X111592388Y-109642200D01*
X111528541Y-109629500D01*
X111331459Y-109629500D01*
X111276662Y-109640399D01*
X111138170Y-109667947D01*
X111138160Y-109667950D01*
X110956086Y-109743367D01*
X110792218Y-109852860D01*
X110792217Y-109852862D01*
X110652862Y-109992217D01*
X110652860Y-109992218D01*
X110543367Y-110156086D01*
X110467950Y-110338160D01*
X110467947Y-110338170D01*
X110429500Y-110531460D01*
X110429500Y-110728539D01*
X110467947Y-110921829D01*
X110467950Y-110921839D01*
X110543367Y-111103913D01*
X110639099Y-111247185D01*
X110652861Y-111267782D01*
X110792218Y-111407139D01*
X110956086Y-111516632D01*
X111138165Y-111592051D01*
X111331459Y-111630500D01*
X111331461Y-111630500D01*
X111433376Y-111630500D01*
X111485702Y-111652174D01*
X111507376Y-111704500D01*
X111485702Y-111756826D01*
X105127003Y-118115526D01*
X105074677Y-118137200D01*
X98509323Y-118137200D01*
X98456997Y-118115526D01*
X98435323Y-118063200D01*
X98456997Y-118010874D01*
X100831365Y-115636506D01*
X105152160Y-111315711D01*
X105172489Y-111280500D01*
X105191721Y-111247189D01*
X105212199Y-111170764D01*
X105212200Y-111170764D01*
X105212200Y-110789620D01*
X105233874Y-110737294D01*
X105286200Y-110715620D01*
X105338526Y-110737294D01*
X105358778Y-110775183D01*
X105387947Y-110921829D01*
X105387950Y-110921839D01*
X105463367Y-111103913D01*
X105559099Y-111247185D01*
X105572861Y-111267782D01*
X105712218Y-111407139D01*
X105876086Y-111516632D01*
X106058165Y-111592051D01*
X106251459Y-111630500D01*
X106251461Y-111630500D01*
X106448539Y-111630500D01*
X106448541Y-111630500D01*
X106641835Y-111592051D01*
X106823914Y-111516632D01*
X106987782Y-111407139D01*
X107127139Y-111267782D01*
X107236632Y-111103914D01*
X107312051Y-110921835D01*
X107350500Y-110728541D01*
X107350500Y-110531460D01*
X107889500Y-110531460D01*
X107889500Y-110728539D01*
X107927947Y-110921829D01*
X107927950Y-110921839D01*
X108003367Y-111103913D01*
X108099099Y-111247185D01*
X108112861Y-111267782D01*
X108252218Y-111407139D01*
X108416086Y-111516632D01*
X108598165Y-111592051D01*
X108791459Y-111630500D01*
X108791461Y-111630500D01*
X108988539Y-111630500D01*
X108988541Y-111630500D01*
X109181835Y-111592051D01*
X109363914Y-111516632D01*
X109527782Y-111407139D01*
X109667139Y-111267782D01*
X109776632Y-111103914D01*
X109852051Y-110921835D01*
X109890500Y-110728541D01*
X109890500Y-110531459D01*
X109852051Y-110338165D01*
X109776632Y-110156086D01*
X109667139Y-109992218D01*
X109527782Y-109852861D01*
X109464014Y-109810252D01*
X109363913Y-109743367D01*
X109181839Y-109667950D01*
X109181829Y-109667947D01*
X109052388Y-109642200D01*
X108988541Y-109629500D01*
X108791459Y-109629500D01*
X108736662Y-109640399D01*
X108598170Y-109667947D01*
X108598160Y-109667950D01*
X108416086Y-109743367D01*
X108252218Y-109852860D01*
X108252217Y-109852862D01*
X108112862Y-109992217D01*
X108112860Y-109992218D01*
X108003367Y-110156086D01*
X107927950Y-110338160D01*
X107927947Y-110338170D01*
X107889500Y-110531460D01*
X107350500Y-110531460D01*
X107350500Y-110531459D01*
X107312051Y-110338165D01*
X107236632Y-110156086D01*
X107127139Y-109992218D01*
X106987782Y-109852861D01*
X106924014Y-109810252D01*
X106823913Y-109743367D01*
X106641839Y-109667950D01*
X106641829Y-109667947D01*
X106512388Y-109642200D01*
X106448541Y-109629500D01*
X106381322Y-109629500D01*
X106328996Y-109607826D01*
X106307322Y-109555500D01*
X106328996Y-109503174D01*
X107769871Y-108062299D01*
X109237562Y-106594607D01*
X109289887Y-106572934D01*
X109342213Y-106594608D01*
X109351412Y-106605817D01*
X109412861Y-106697782D01*
X109552218Y-106837139D01*
X109716086Y-106946632D01*
X109898165Y-107022051D01*
X110091459Y-107060500D01*
X110091461Y-107060500D01*
X110288539Y-107060500D01*
X110288541Y-107060500D01*
X110481835Y-107022051D01*
X110663914Y-106946632D01*
X110827782Y-106837139D01*
X110967139Y-106697782D01*
X111076632Y-106533914D01*
X111152051Y-106351835D01*
X111190500Y-106158541D01*
X111190500Y-105961460D01*
X111729500Y-105961460D01*
X111729500Y-106158539D01*
X111767947Y-106351829D01*
X111767950Y-106351839D01*
X111843367Y-106533913D01*
X111923499Y-106653838D01*
X111952861Y-106697782D01*
X112092218Y-106837139D01*
X112256086Y-106946632D01*
X112438165Y-107022051D01*
X112631459Y-107060500D01*
X112631461Y-107060500D01*
X112828539Y-107060500D01*
X112828541Y-107060500D01*
X113021835Y-107022051D01*
X113203914Y-106946632D01*
X113367782Y-106837139D01*
X113507139Y-106697782D01*
X113616632Y-106533914D01*
X113692051Y-106351835D01*
X113730500Y-106158541D01*
X113730500Y-105961459D01*
X113692051Y-105768165D01*
X113616632Y-105586086D01*
X113507139Y-105422218D01*
X113367782Y-105282861D01*
X113366644Y-105282100D01*
X113203913Y-105173367D01*
X113021839Y-105097950D01*
X113021829Y-105097947D01*
X112870966Y-105067939D01*
X112828541Y-105059500D01*
X112631459Y-105059500D01*
X112589034Y-105067939D01*
X112438170Y-105097947D01*
X112438160Y-105097950D01*
X112256086Y-105173367D01*
X112092218Y-105282860D01*
X112092217Y-105282862D01*
X111952862Y-105422217D01*
X111952860Y-105422218D01*
X111843367Y-105586086D01*
X111767950Y-105768160D01*
X111767947Y-105768170D01*
X111729500Y-105961460D01*
X111190500Y-105961460D01*
X111190500Y-105961459D01*
X111152051Y-105768165D01*
X111076632Y-105586086D01*
X110967139Y-105422218D01*
X110827782Y-105282861D01*
X110826644Y-105282100D01*
X110663913Y-105173367D01*
X110481839Y-105097950D01*
X110481829Y-105097947D01*
X110330966Y-105067939D01*
X110288541Y-105059500D01*
X110091459Y-105059500D01*
X110049034Y-105067939D01*
X109898170Y-105097947D01*
X109898160Y-105097950D01*
X109716086Y-105173367D01*
X109552218Y-105282860D01*
X109552217Y-105282862D01*
X109412862Y-105422217D01*
X109412860Y-105422218D01*
X109303368Y-105586085D01*
X109230105Y-105762959D01*
X109198740Y-105798725D01*
X109162690Y-105819539D01*
X108776826Y-106205402D01*
X108724500Y-106227076D01*
X108672174Y-106205402D01*
X108650500Y-106153076D01*
X108650500Y-105961460D01*
X108612052Y-105768170D01*
X108612051Y-105768169D01*
X108612051Y-105768165D01*
X108536632Y-105586086D01*
X108427139Y-105422218D01*
X108287782Y-105282861D01*
X108286644Y-105282100D01*
X108123913Y-105173367D01*
X107941839Y-105097950D01*
X107941829Y-105097947D01*
X107790966Y-105067939D01*
X107748541Y-105059500D01*
X107551459Y-105059500D01*
X107509034Y-105067939D01*
X107358170Y-105097947D01*
X107358160Y-105097950D01*
X107176086Y-105173367D01*
X107012218Y-105282860D01*
X107012217Y-105282862D01*
X106872862Y-105422217D01*
X106872860Y-105422218D01*
X106763368Y-105586085D01*
X106690105Y-105762959D01*
X106658740Y-105798725D01*
X106622690Y-105819539D01*
X106236826Y-106205402D01*
X106184500Y-106227076D01*
X106132174Y-106205402D01*
X106110500Y-106153076D01*
X106110500Y-105961460D01*
X106072052Y-105768170D01*
X106072051Y-105768169D01*
X106072051Y-105768165D01*
X105996632Y-105586086D01*
X105887139Y-105422218D01*
X105747782Y-105282861D01*
X105746644Y-105282100D01*
X105583913Y-105173367D01*
X105401839Y-105097950D01*
X105401829Y-105097947D01*
X105250966Y-105067939D01*
X105208541Y-105059500D01*
X105119222Y-105059500D01*
X105066896Y-105037826D01*
X105045222Y-104985500D01*
X105066896Y-104933174D01*
X106863561Y-103136510D01*
X108782297Y-101217774D01*
X108834623Y-101196100D01*
X117934064Y-101196100D01*
X117934064Y-101196099D01*
X118010489Y-101175621D01*
X118079011Y-101136060D01*
X118134960Y-101080111D01*
X118134961Y-101080108D01*
X118138040Y-101077030D01*
X118138745Y-101076224D01*
X119849787Y-99365182D01*
X119902112Y-99343509D01*
X119930430Y-99349142D01*
X120058160Y-99402049D01*
X120058165Y-99402051D01*
X120251459Y-99440500D01*
X120251461Y-99440500D01*
X120448539Y-99440500D01*
X120448541Y-99440500D01*
X120641835Y-99402051D01*
X120823914Y-99326632D01*
X120987782Y-99217139D01*
X121127139Y-99077782D01*
X121236632Y-98913914D01*
X121312051Y-98731835D01*
X121350500Y-98538541D01*
X121350500Y-98341459D01*
X121312051Y-98148165D01*
X121236632Y-97966086D01*
X121127139Y-97802218D01*
X120987782Y-97662861D01*
X120980545Y-97658025D01*
X120823913Y-97553367D01*
X120641839Y-97477950D01*
X120641829Y-97477947D01*
X120507023Y-97451133D01*
X120448541Y-97439500D01*
X120251459Y-97439500D01*
X120196662Y-97450399D01*
X120058170Y-97477947D01*
X120058160Y-97477950D01*
X119876086Y-97553367D01*
X119712218Y-97662860D01*
X119712217Y-97662862D01*
X119572862Y-97802217D01*
X119572860Y-97802218D01*
X119463367Y-97966086D01*
X119387950Y-98148160D01*
X119387947Y-98148170D01*
X119349500Y-98341460D01*
X119349500Y-98538539D01*
X119387947Y-98731829D01*
X119387950Y-98731839D01*
X119440857Y-98859567D01*
X119440857Y-98916204D01*
X119424816Y-98940211D01*
X117791603Y-100573426D01*
X117739277Y-100595100D01*
X109007523Y-100595100D01*
X108955197Y-100573426D01*
X108933523Y-100521100D01*
X108955197Y-100468774D01*
X109202862Y-100221109D01*
X109973419Y-99450550D01*
X110025744Y-99428877D01*
X110040171Y-99430297D01*
X110091459Y-99440500D01*
X110091462Y-99440500D01*
X110288539Y-99440500D01*
X110288541Y-99440500D01*
X110481835Y-99402051D01*
X110663914Y-99326632D01*
X110827782Y-99217139D01*
X110967139Y-99077782D01*
X111076632Y-98913914D01*
X111152051Y-98731835D01*
X111190500Y-98538541D01*
X111190500Y-98341459D01*
X111152051Y-98148165D01*
X111076632Y-97966086D01*
X110967139Y-97802218D01*
X110895847Y-97730926D01*
X110874173Y-97678600D01*
X110895847Y-97626274D01*
X110948173Y-97604600D01*
X111971827Y-97604600D01*
X112024153Y-97626274D01*
X112045827Y-97678600D01*
X112024153Y-97730926D01*
X111952862Y-97802217D01*
X111952860Y-97802218D01*
X111843367Y-97966086D01*
X111767950Y-98148160D01*
X111767947Y-98148170D01*
X111729500Y-98341460D01*
X111729500Y-98538539D01*
X111767947Y-98731829D01*
X111767950Y-98731839D01*
X111843367Y-98913913D01*
X111926100Y-99037731D01*
X111952861Y-99077782D01*
X112092218Y-99217139D01*
X112256086Y-99326632D01*
X112438165Y-99402051D01*
X112631459Y-99440500D01*
X112631461Y-99440500D01*
X112828539Y-99440500D01*
X112828541Y-99440500D01*
X113021835Y-99402051D01*
X113203914Y-99326632D01*
X113367782Y-99217139D01*
X113507139Y-99077782D01*
X113616632Y-98913914D01*
X113692051Y-98731835D01*
X113730500Y-98538541D01*
X113730500Y-98341459D01*
X113692051Y-98148165D01*
X113616632Y-97966086D01*
X113507139Y-97802218D01*
X113435847Y-97730926D01*
X113414173Y-97678600D01*
X113435847Y-97626274D01*
X113488173Y-97604600D01*
X114511827Y-97604600D01*
X114564153Y-97626274D01*
X114585827Y-97678600D01*
X114564153Y-97730926D01*
X114492862Y-97802217D01*
X114492860Y-97802218D01*
X114383367Y-97966086D01*
X114307950Y-98148160D01*
X114307947Y-98148170D01*
X114269500Y-98341460D01*
X114269500Y-98538539D01*
X114307947Y-98731829D01*
X114307950Y-98731839D01*
X114383367Y-98913913D01*
X114466100Y-99037731D01*
X114492861Y-99077782D01*
X114632218Y-99217139D01*
X114796086Y-99326632D01*
X114978165Y-99402051D01*
X115171459Y-99440500D01*
X115171461Y-99440500D01*
X115368539Y-99440500D01*
X115368541Y-99440500D01*
X115561835Y-99402051D01*
X115743914Y-99326632D01*
X115907782Y-99217139D01*
X116047139Y-99077782D01*
X116156632Y-98913914D01*
X116232051Y-98731835D01*
X116270500Y-98538541D01*
X116270500Y-98341459D01*
X116232051Y-98148165D01*
X116156632Y-97966086D01*
X116047139Y-97802218D01*
X115975847Y-97730926D01*
X115954173Y-97678600D01*
X115975847Y-97626274D01*
X116028173Y-97604600D01*
X116518977Y-97604600D01*
X116571303Y-97626274D01*
X116884816Y-97939787D01*
X116906490Y-97992113D01*
X116900857Y-98020431D01*
X116847950Y-98148160D01*
X116847947Y-98148170D01*
X116809500Y-98341460D01*
X116809500Y-98538539D01*
X116847947Y-98731829D01*
X116847950Y-98731839D01*
X116923367Y-98913913D01*
X117006100Y-99037731D01*
X117032861Y-99077782D01*
X117172218Y-99217139D01*
X117336086Y-99326632D01*
X117518165Y-99402051D01*
X117711459Y-99440500D01*
X117711461Y-99440500D01*
X117908539Y-99440500D01*
X117908541Y-99440500D01*
X118101835Y-99402051D01*
X118283914Y-99326632D01*
X118447782Y-99217139D01*
X118587139Y-99077782D01*
X118696632Y-98913914D01*
X118772051Y-98731835D01*
X118810500Y-98538541D01*
X118810500Y-98341459D01*
X118772051Y-98148165D01*
X118696632Y-97966086D01*
X118587139Y-97802218D01*
X118447782Y-97662861D01*
X118440545Y-97658025D01*
X118283913Y-97553367D01*
X118101839Y-97477950D01*
X118101829Y-97477947D01*
X117967023Y-97451133D01*
X117908541Y-97439500D01*
X117711459Y-97439500D01*
X117656662Y-97450399D01*
X117518170Y-97477947D01*
X117518160Y-97477950D01*
X117390431Y-97530857D01*
X117333794Y-97530857D01*
X117309787Y-97514816D01*
X116858611Y-97063640D01*
X116790090Y-97024079D01*
X116790085Y-97024077D01*
X116713664Y-97003600D01*
X116713662Y-97003600D01*
X109661838Y-97003600D01*
X109661836Y-97003600D01*
X109585414Y-97024077D01*
X109585409Y-97024079D01*
X109516888Y-97063640D01*
X108821140Y-97759388D01*
X108781579Y-97827909D01*
X108781577Y-97827914D01*
X108761100Y-97904335D01*
X108761100Y-98146149D01*
X108739426Y-98198475D01*
X108687100Y-98220149D01*
X108634774Y-98198475D01*
X108614522Y-98160587D01*
X108614221Y-98159074D01*
X108612051Y-98148165D01*
X108536632Y-97966086D01*
X108427139Y-97802218D01*
X108287782Y-97662861D01*
X108280545Y-97658025D01*
X108123913Y-97553367D01*
X107941839Y-97477950D01*
X107941829Y-97477947D01*
X107807023Y-97451133D01*
X107748541Y-97439500D01*
X107551459Y-97439500D01*
X107496662Y-97450399D01*
X107358170Y-97477947D01*
X107358160Y-97477950D01*
X107176086Y-97553367D01*
X107012218Y-97662860D01*
X107012217Y-97662862D01*
X106872862Y-97802217D01*
X106872860Y-97802218D01*
X106763367Y-97966086D01*
X106687950Y-98148160D01*
X106687947Y-98148170D01*
X106649500Y-98341460D01*
X106649500Y-98538539D01*
X106687947Y-98731829D01*
X106687950Y-98731839D01*
X106749772Y-98881090D01*
X106749772Y-98937727D01*
X106709723Y-98977775D01*
X106700558Y-98980886D01*
X106584418Y-99012006D01*
X106584409Y-99012010D01*
X106470285Y-99077900D01*
X106377100Y-99171085D01*
X106341989Y-99231900D01*
X106297055Y-99266379D01*
X106277903Y-99268900D01*
X105874673Y-99268900D01*
X105822347Y-99247226D01*
X105800673Y-99194900D01*
X105822347Y-99142574D01*
X105887138Y-99077783D01*
X105887139Y-99077782D01*
X105996632Y-98913914D01*
X106072051Y-98731835D01*
X106110500Y-98538541D01*
X106110500Y-98341459D01*
X106072051Y-98148165D01*
X105996632Y-97966086D01*
X105887139Y-97802218D01*
X105747782Y-97662861D01*
X105740544Y-97658025D01*
X105684004Y-97620246D01*
X105583914Y-97553368D01*
X105583911Y-97553366D01*
X105583910Y-97553366D01*
X105456181Y-97500459D01*
X105416133Y-97460410D01*
X105410500Y-97432092D01*
X105410500Y-95805122D01*
X105432173Y-95752797D01*
X108389787Y-92795182D01*
X108442112Y-92773509D01*
X108470430Y-92779142D01*
X108598160Y-92832049D01*
X108598165Y-92832051D01*
X108791459Y-92870500D01*
X108791461Y-92870500D01*
X108988539Y-92870500D01*
X108988541Y-92870500D01*
X109181835Y-92832051D01*
X109363914Y-92756632D01*
X109527782Y-92647139D01*
X109667139Y-92507782D01*
X109776632Y-92343914D01*
X109852051Y-92161835D01*
X109890500Y-91968541D01*
X109890500Y-91771459D01*
X109852051Y-91578165D01*
X109776632Y-91396086D01*
X109667139Y-91232218D01*
X109587745Y-91152824D01*
X109566072Y-91100500D01*
X109587746Y-91048174D01*
X109640072Y-91026500D01*
X110679928Y-91026500D01*
X110732254Y-91048174D01*
X110753928Y-91100500D01*
X110732254Y-91152824D01*
X110692557Y-91192521D01*
X110652861Y-91232217D01*
X110652860Y-91232218D01*
X110543367Y-91396086D01*
X110467950Y-91578160D01*
X110467947Y-91578170D01*
X110429500Y-91771460D01*
X110429500Y-91968539D01*
X110467947Y-92161829D01*
X110467950Y-92161839D01*
X110543367Y-92343913D01*
X110632226Y-92476899D01*
X110652861Y-92507782D01*
X110792218Y-92647139D01*
X110956086Y-92756632D01*
X111138165Y-92832051D01*
X111331459Y-92870500D01*
X111331461Y-92870500D01*
X111528539Y-92870500D01*
X111528541Y-92870500D01*
X111721835Y-92832051D01*
X111903914Y-92756632D01*
X112067782Y-92647139D01*
X112207139Y-92507782D01*
X112316632Y-92343914D01*
X112392051Y-92161835D01*
X112430500Y-91968541D01*
X112430500Y-91771459D01*
X112392051Y-91578165D01*
X112316632Y-91396086D01*
X112207139Y-91232218D01*
X112127745Y-91152824D01*
X112106072Y-91100500D01*
X112127746Y-91048174D01*
X112180072Y-91026500D01*
X113219928Y-91026500D01*
X113272254Y-91048174D01*
X113293928Y-91100500D01*
X113272254Y-91152824D01*
X113232557Y-91192521D01*
X113192861Y-91232217D01*
X113192860Y-91232218D01*
X113083367Y-91396086D01*
X113007950Y-91578160D01*
X113007947Y-91578170D01*
X112969500Y-91771460D01*
X112969500Y-91968539D01*
X113007947Y-92161829D01*
X113007950Y-92161839D01*
X113083367Y-92343913D01*
X113172226Y-92476899D01*
X113192861Y-92507782D01*
X113332218Y-92647139D01*
X113496086Y-92756632D01*
X113678165Y-92832051D01*
X113871459Y-92870500D01*
X113871461Y-92870500D01*
X114068539Y-92870500D01*
X114068541Y-92870500D01*
X114261835Y-92832051D01*
X114443914Y-92756632D01*
X114607782Y-92647139D01*
X114747139Y-92507782D01*
X114856632Y-92343914D01*
X114932051Y-92161835D01*
X114970500Y-91968541D01*
X114970500Y-91771459D01*
X114932051Y-91578165D01*
X114856632Y-91396086D01*
X114747139Y-91232218D01*
X114667745Y-91152824D01*
X114646072Y-91100500D01*
X114667746Y-91048174D01*
X114720072Y-91026500D01*
X115759928Y-91026500D01*
X115812254Y-91048174D01*
X115833928Y-91100500D01*
X115812254Y-91152824D01*
X115772557Y-91192521D01*
X115732861Y-91232217D01*
X115732860Y-91232218D01*
X115623367Y-91396086D01*
X115547950Y-91578160D01*
X115547947Y-91578170D01*
X115509500Y-91771460D01*
X115509500Y-91968539D01*
X115547947Y-92161829D01*
X115547950Y-92161839D01*
X115623367Y-92343913D01*
X115712226Y-92476899D01*
X115732861Y-92507782D01*
X115872218Y-92647139D01*
X116036086Y-92756632D01*
X116218165Y-92832051D01*
X116411459Y-92870500D01*
X116411461Y-92870500D01*
X116608539Y-92870500D01*
X116608541Y-92870500D01*
X116801835Y-92832051D01*
X116929568Y-92779142D01*
X116986204Y-92779142D01*
X117010212Y-92795183D01*
X118953076Y-94738047D01*
X118974750Y-94790373D01*
X118953076Y-94842699D01*
X118900750Y-94864373D01*
X118886313Y-94862951D01*
X118818691Y-94849500D01*
X118641309Y-94849500D01*
X118591989Y-94859310D01*
X118467339Y-94884104D01*
X118467329Y-94884107D01*
X118303455Y-94951985D01*
X118155968Y-95050533D01*
X118030533Y-95175968D01*
X117931985Y-95323455D01*
X117864107Y-95487329D01*
X117864104Y-95487339D01*
X117839619Y-95610438D01*
X117829500Y-95661309D01*
X117829500Y-95838691D01*
X117840930Y-95896156D01*
X117864104Y-96012660D01*
X117864107Y-96012670D01*
X117931985Y-96176544D01*
X117931986Y-96176546D01*
X117931987Y-96176547D01*
X118030536Y-96324035D01*
X118155965Y-96449464D01*
X118303453Y-96548013D01*
X118303454Y-96548013D01*
X118303455Y-96548014D01*
X118373367Y-96576972D01*
X118467334Y-96615894D01*
X118641309Y-96650500D01*
X118641311Y-96650500D01*
X118818689Y-96650500D01*
X118818691Y-96650500D01*
X118992666Y-96615894D01*
X119156547Y-96548013D01*
X119304035Y-96449464D01*
X119429464Y-96324035D01*
X119528013Y-96176547D01*
X119582648Y-96044644D01*
X119622695Y-96004597D01*
X119679332Y-96004597D01*
X119716964Y-96042229D01*
X119717554Y-96041889D01*
X119718823Y-96044087D01*
X119719381Y-96044645D01*
X119719382Y-96044648D01*
X119719978Y-96046088D01*
X119759540Y-96114611D01*
X121877605Y-98232676D01*
X121899279Y-98285002D01*
X121897858Y-98299436D01*
X121889500Y-98341459D01*
X121889500Y-98341460D01*
X121889500Y-98341462D01*
X121889500Y-98538539D01*
X121927947Y-98731829D01*
X121927950Y-98731839D01*
X122003367Y-98913913D01*
X122086100Y-99037731D01*
X122112861Y-99077782D01*
X122252218Y-99217139D01*
X122416086Y-99326632D01*
X122598165Y-99402051D01*
X122791459Y-99440500D01*
X122791461Y-99440500D01*
X122988539Y-99440500D01*
X122988541Y-99440500D01*
X123181835Y-99402051D01*
X123363914Y-99326632D01*
X123527782Y-99217139D01*
X123567574Y-99177347D01*
X123619900Y-99155673D01*
X123672226Y-99177347D01*
X123693900Y-99229673D01*
X123693900Y-104800476D01*
X123672226Y-104852802D01*
X123390211Y-105134816D01*
X123337885Y-105156490D01*
X123309567Y-105150857D01*
X123181839Y-105097950D01*
X123181829Y-105097947D01*
X123030966Y-105067939D01*
X122988541Y-105059500D01*
X122791459Y-105059500D01*
X122749034Y-105067939D01*
X122598170Y-105097947D01*
X122598160Y-105097950D01*
X122416086Y-105173367D01*
X122252218Y-105282860D01*
X122252217Y-105282862D01*
X122112862Y-105422217D01*
X122112860Y-105422218D01*
X122003367Y-105586086D01*
X121927950Y-105768160D01*
X121927947Y-105768170D01*
X121889500Y-105961460D01*
X121889500Y-106158539D01*
X121927947Y-106351829D01*
X121927950Y-106351839D01*
X122003367Y-106533913D01*
X122083499Y-106653838D01*
X122112861Y-106697782D01*
X122252218Y-106837139D01*
X122416086Y-106946632D01*
X122598165Y-107022051D01*
X122791459Y-107060500D01*
X122791461Y-107060500D01*
X122988539Y-107060500D01*
X122988541Y-107060500D01*
X123181835Y-107022051D01*
X123363914Y-106946632D01*
X123527782Y-106837139D01*
X123667139Y-106697782D01*
X123776632Y-106533914D01*
X123852051Y-106351835D01*
X123890500Y-106158541D01*
X123890500Y-105961459D01*
X123852051Y-105768165D01*
X123799142Y-105640431D01*
X123799142Y-105583794D01*
X123815183Y-105559787D01*
X123958330Y-105416640D01*
X124234860Y-105140111D01*
X124259202Y-105097949D01*
X124274421Y-105071589D01*
X124294899Y-104995164D01*
X124294900Y-104995164D01*
X124294900Y-100891309D01*
X128099500Y-100891309D01*
X128099500Y-101068691D01*
X128101772Y-101080111D01*
X128134104Y-101242660D01*
X128134107Y-101242670D01*
X128201985Y-101406544D01*
X128201986Y-101406546D01*
X128201987Y-101406547D01*
X128300536Y-101554035D01*
X128425965Y-101679464D01*
X128573453Y-101778013D01*
X128737334Y-101845894D01*
X128911309Y-101880500D01*
X128911311Y-101880500D01*
X129088689Y-101880500D01*
X129088691Y-101880500D01*
X129262666Y-101845894D01*
X129426547Y-101778013D01*
X129574035Y-101679464D01*
X129699464Y-101554035D01*
X129798013Y-101406547D01*
X129865894Y-101242666D01*
X129900500Y-101068691D01*
X129900500Y-100891309D01*
X129865894Y-100717334D01*
X129798013Y-100553453D01*
X129699464Y-100405965D01*
X129574035Y-100280536D01*
X129533884Y-100253708D01*
X129426544Y-100181985D01*
X129262670Y-100114107D01*
X129262660Y-100114104D01*
X129146156Y-100090930D01*
X129088691Y-100079500D01*
X128911309Y-100079500D01*
X128861989Y-100089310D01*
X128737339Y-100114104D01*
X128737329Y-100114107D01*
X128573455Y-100181985D01*
X128425968Y-100280533D01*
X128300533Y-100405968D01*
X128201985Y-100553455D01*
X128134107Y-100717329D01*
X128134104Y-100717339D01*
X128113664Y-100820100D01*
X128099500Y-100891309D01*
X124294900Y-100891309D01*
X124294900Y-97010236D01*
X124294899Y-97010235D01*
X124274422Y-96933814D01*
X124274420Y-96933809D01*
X124234859Y-96865288D01*
X121844011Y-94474440D01*
X121775490Y-94434879D01*
X121775485Y-94434877D01*
X121699064Y-94414400D01*
X121699062Y-94414400D01*
X120463023Y-94414400D01*
X120410697Y-94392726D01*
X119014797Y-92996826D01*
X118993123Y-92944500D01*
X119014797Y-92892174D01*
X119067123Y-92870500D01*
X119148539Y-92870500D01*
X119148541Y-92870500D01*
X119341835Y-92832051D01*
X119523914Y-92756632D01*
X119687782Y-92647139D01*
X119827139Y-92507782D01*
X119936632Y-92343914D01*
X120012051Y-92161835D01*
X120050500Y-91968541D01*
X120050500Y-91771460D01*
X120589500Y-91771460D01*
X120589500Y-91968539D01*
X120627947Y-92161829D01*
X120627950Y-92161839D01*
X120703367Y-92343913D01*
X120792226Y-92476899D01*
X120812861Y-92507782D01*
X120952218Y-92647139D01*
X121116086Y-92756632D01*
X121298165Y-92832051D01*
X121491459Y-92870500D01*
X121491461Y-92870500D01*
X121688539Y-92870500D01*
X121688541Y-92870500D01*
X121881835Y-92832051D01*
X122063914Y-92756632D01*
X122227782Y-92647139D01*
X122367139Y-92507782D01*
X122476632Y-92343914D01*
X122552051Y-92161835D01*
X122590500Y-91968541D01*
X122590500Y-91771459D01*
X122552051Y-91578165D01*
X122476632Y-91396086D01*
X122367139Y-91232218D01*
X122227782Y-91092861D01*
X122160904Y-91048174D01*
X122063913Y-90983367D01*
X121881839Y-90907950D01*
X121881829Y-90907947D01*
X121752388Y-90882200D01*
X121688541Y-90869500D01*
X121491459Y-90869500D01*
X121436662Y-90880399D01*
X121298170Y-90907947D01*
X121298160Y-90907950D01*
X121116086Y-90983367D01*
X120952218Y-91092860D01*
X120952217Y-91092862D01*
X120812862Y-91232217D01*
X120812860Y-91232218D01*
X120703367Y-91396086D01*
X120627950Y-91578160D01*
X120627947Y-91578170D01*
X120589500Y-91771460D01*
X120050500Y-91771460D01*
X120050500Y-91771459D01*
X120012051Y-91578165D01*
X119936632Y-91396086D01*
X119827139Y-91232218D01*
X119687782Y-91092861D01*
X119620904Y-91048174D01*
X119523913Y-90983367D01*
X119341839Y-90907950D01*
X119341829Y-90907947D01*
X119212388Y-90882200D01*
X119148541Y-90869500D01*
X118951459Y-90869500D01*
X118896662Y-90880399D01*
X118758170Y-90907947D01*
X118758160Y-90907950D01*
X118576086Y-90983367D01*
X118412218Y-91092860D01*
X118412217Y-91092862D01*
X118272862Y-91232217D01*
X118272860Y-91232218D01*
X118165794Y-91392454D01*
X118118701Y-91423920D01*
X118063153Y-91412871D01*
X118051939Y-91403668D01*
X117378497Y-90730226D01*
X117356823Y-90677900D01*
X117378497Y-90625574D01*
X117430823Y-90603900D01*
X122408277Y-90603900D01*
X122460603Y-90625574D01*
X123204816Y-91369787D01*
X123226490Y-91422113D01*
X123220857Y-91450431D01*
X123167950Y-91578160D01*
X123167947Y-91578170D01*
X123129500Y-91771460D01*
X123129500Y-91968539D01*
X123167947Y-92161829D01*
X123167950Y-92161839D01*
X123243367Y-92343913D01*
X123332226Y-92476899D01*
X123352861Y-92507782D01*
X123492218Y-92647139D01*
X123656086Y-92756632D01*
X123838165Y-92832051D01*
X124031459Y-92870500D01*
X124031461Y-92870500D01*
X124228539Y-92870500D01*
X124228541Y-92870500D01*
X124421835Y-92832051D01*
X124603914Y-92756632D01*
X124767782Y-92647139D01*
X124907139Y-92507782D01*
X125016632Y-92343914D01*
X125092051Y-92161835D01*
X125130500Y-91968541D01*
X125130500Y-91771459D01*
X125092051Y-91578165D01*
X125016632Y-91396086D01*
X124907139Y-91232218D01*
X124767782Y-91092861D01*
X124700904Y-91048174D01*
X124603913Y-90983367D01*
X124421839Y-90907950D01*
X124421829Y-90907947D01*
X124292388Y-90882200D01*
X124228541Y-90869500D01*
X124031459Y-90869500D01*
X123976662Y-90880399D01*
X123838170Y-90907947D01*
X123838160Y-90907950D01*
X123710431Y-90960857D01*
X123653794Y-90960857D01*
X123629787Y-90944816D01*
X122747911Y-90062940D01*
X122679390Y-90023379D01*
X122679385Y-90023377D01*
X122602964Y-90002900D01*
X122602962Y-90002900D01*
X95177038Y-90002900D01*
X95177036Y-90002900D01*
X95100614Y-90023377D01*
X95100609Y-90023379D01*
X95032088Y-90062940D01*
X94150211Y-90944816D01*
X94097885Y-90966490D01*
X94069567Y-90960857D01*
X93941839Y-90907950D01*
X93941829Y-90907947D01*
X93812388Y-90882200D01*
X93748541Y-90869500D01*
X93551459Y-90869500D01*
X93496662Y-90880399D01*
X93358170Y-90907947D01*
X93358160Y-90907950D01*
X93176086Y-90983367D01*
X93012218Y-91092860D01*
X93012217Y-91092862D01*
X92872862Y-91232217D01*
X92872860Y-91232218D01*
X92763367Y-91396086D01*
X92687950Y-91578160D01*
X92687947Y-91578170D01*
X92649500Y-91771460D01*
X92649500Y-91968539D01*
X92687947Y-92161829D01*
X92687950Y-92161839D01*
X92740857Y-92289567D01*
X92740857Y-92346204D01*
X92724816Y-92370211D01*
X92442103Y-92652926D01*
X92389777Y-92674600D01*
X91898973Y-92674600D01*
X91846647Y-92652926D01*
X91824973Y-92600600D01*
X91846647Y-92548274D01*
X91887138Y-92507783D01*
X91887139Y-92507782D01*
X91996632Y-92343914D01*
X92072051Y-92161835D01*
X92110500Y-91968541D01*
X92110500Y-91771459D01*
X92072051Y-91578165D01*
X91996632Y-91396086D01*
X91887139Y-91232218D01*
X91747782Y-91092861D01*
X91680904Y-91048174D01*
X91583913Y-90983367D01*
X91401839Y-90907950D01*
X91401829Y-90907947D01*
X91272388Y-90882200D01*
X91208541Y-90869500D01*
X91011459Y-90869500D01*
X90956662Y-90880399D01*
X90818170Y-90907947D01*
X90818160Y-90907950D01*
X90636086Y-90983367D01*
X90472218Y-91092860D01*
X90472217Y-91092862D01*
X90332862Y-91232217D01*
X90332860Y-91232218D01*
X90223367Y-91396086D01*
X90147950Y-91578160D01*
X90147947Y-91578170D01*
X90109500Y-91771460D01*
X90109500Y-91968539D01*
X90147947Y-92161829D01*
X90147950Y-92161839D01*
X90223367Y-92343913D01*
X90332860Y-92507781D01*
X90373353Y-92548274D01*
X90395027Y-92600600D01*
X90373353Y-92652926D01*
X90321027Y-92674600D01*
X89358973Y-92674600D01*
X89306647Y-92652926D01*
X89284973Y-92600600D01*
X89306647Y-92548274D01*
X89347138Y-92507783D01*
X89347139Y-92507782D01*
X89456632Y-92343914D01*
X89532051Y-92161835D01*
X89570500Y-91968541D01*
X89570500Y-91771459D01*
X89532051Y-91578165D01*
X89456632Y-91396086D01*
X89347139Y-91232218D01*
X89207782Y-91092861D01*
X89140904Y-91048174D01*
X89043913Y-90983367D01*
X88861839Y-90907950D01*
X88861829Y-90907947D01*
X88732388Y-90882200D01*
X88668541Y-90869500D01*
X88471459Y-90869500D01*
X88416662Y-90880399D01*
X88278170Y-90907947D01*
X88278160Y-90907950D01*
X88096086Y-90983367D01*
X87932218Y-91092860D01*
X87932217Y-91092862D01*
X87792862Y-91232217D01*
X87792860Y-91232218D01*
X87683367Y-91396086D01*
X87607950Y-91578160D01*
X87607947Y-91578170D01*
X87569500Y-91771460D01*
X87569500Y-91968539D01*
X87607947Y-92161829D01*
X87607950Y-92161839D01*
X87683367Y-92343913D01*
X87792860Y-92507781D01*
X87833353Y-92548274D01*
X87855027Y-92600600D01*
X87833353Y-92652926D01*
X87781027Y-92674600D01*
X87290223Y-92674600D01*
X87237897Y-92652926D01*
X86955183Y-92370212D01*
X86933509Y-92317886D01*
X86939142Y-92289567D01*
X86992051Y-92161835D01*
X87030500Y-91968541D01*
X87030500Y-91771459D01*
X86992051Y-91578165D01*
X86916632Y-91396086D01*
X86807139Y-91232218D01*
X86667782Y-91092861D01*
X86600904Y-91048174D01*
X86503913Y-90983367D01*
X86321839Y-90907950D01*
X86321829Y-90907947D01*
X86192388Y-90882200D01*
X86128541Y-90869500D01*
X85931459Y-90869500D01*
X85876662Y-90880399D01*
X85738170Y-90907947D01*
X85738160Y-90907950D01*
X85556086Y-90983367D01*
X85392218Y-91092860D01*
X85392217Y-91092862D01*
X85252862Y-91232217D01*
X85252860Y-91232218D01*
X85143367Y-91396086D01*
X85067950Y-91578160D01*
X85067947Y-91578170D01*
X85029500Y-91771460D01*
X85029500Y-91968539D01*
X85067947Y-92161829D01*
X85067950Y-92161839D01*
X85143367Y-92343913D01*
X85232226Y-92476899D01*
X85252861Y-92507782D01*
X85392218Y-92647139D01*
X85556086Y-92756632D01*
X85738165Y-92832051D01*
X85931459Y-92870500D01*
X85931461Y-92870500D01*
X86128539Y-92870500D01*
X86128541Y-92870500D01*
X86321835Y-92832051D01*
X86449568Y-92779142D01*
X86506204Y-92779142D01*
X86530212Y-92795183D01*
X86894640Y-93159611D01*
X86950589Y-93215560D01*
X87019111Y-93255121D01*
X87019112Y-93255121D01*
X87019114Y-93255122D01*
X87057324Y-93265360D01*
X87095535Y-93275599D01*
X87095536Y-93275600D01*
X87095538Y-93275600D01*
X92584464Y-93275600D01*
X92584464Y-93275599D01*
X92660889Y-93255121D01*
X92729411Y-93215560D01*
X92785360Y-93159611D01*
X93149787Y-92795182D01*
X93202113Y-92773509D01*
X93230431Y-92779141D01*
X93358165Y-92832051D01*
X93551459Y-92870500D01*
X93551461Y-92870500D01*
X93748539Y-92870500D01*
X93748541Y-92870500D01*
X93941835Y-92832051D01*
X94123914Y-92756632D01*
X94287782Y-92647139D01*
X94427139Y-92507782D01*
X94536632Y-92343914D01*
X94612051Y-92161835D01*
X94650500Y-91968541D01*
X94650500Y-91771460D01*
X95189500Y-91771460D01*
X95189500Y-91968539D01*
X95227947Y-92161829D01*
X95227950Y-92161839D01*
X95303367Y-92343913D01*
X95392226Y-92476899D01*
X95412861Y-92507782D01*
X95552218Y-92647139D01*
X95716086Y-92756632D01*
X95898165Y-92832051D01*
X96091459Y-92870500D01*
X96091461Y-92870500D01*
X96288539Y-92870500D01*
X96288541Y-92870500D01*
X96481835Y-92832051D01*
X96663914Y-92756632D01*
X96827782Y-92647139D01*
X96967139Y-92507782D01*
X97076632Y-92343914D01*
X97152051Y-92161835D01*
X97190500Y-91968541D01*
X97190500Y-91771459D01*
X97152051Y-91578165D01*
X97076632Y-91396086D01*
X96967139Y-91232218D01*
X96827782Y-91092861D01*
X96760904Y-91048174D01*
X96663913Y-90983367D01*
X96481839Y-90907950D01*
X96481829Y-90907947D01*
X96352388Y-90882200D01*
X96288541Y-90869500D01*
X96091459Y-90869500D01*
X96036662Y-90880399D01*
X95898170Y-90907947D01*
X95898160Y-90907950D01*
X95716086Y-90983367D01*
X95552218Y-91092860D01*
X95552217Y-91092862D01*
X95412862Y-91232217D01*
X95412860Y-91232218D01*
X95303367Y-91396086D01*
X95227950Y-91578160D01*
X95227947Y-91578170D01*
X95189500Y-91771460D01*
X94650500Y-91771460D01*
X94650500Y-91771459D01*
X94612051Y-91578165D01*
X94571489Y-91480239D01*
X94559142Y-91450430D01*
X94559142Y-91393793D01*
X94575180Y-91369789D01*
X95319397Y-90625574D01*
X95371723Y-90603900D01*
X99392477Y-90603900D01*
X99444803Y-90625574D01*
X99466477Y-90677900D01*
X99444803Y-90730226D01*
X99230211Y-90944816D01*
X99177885Y-90966490D01*
X99149567Y-90960857D01*
X99021839Y-90907950D01*
X99021829Y-90907947D01*
X98892388Y-90882200D01*
X98828541Y-90869500D01*
X98631459Y-90869500D01*
X98576662Y-90880399D01*
X98438170Y-90907947D01*
X98438160Y-90907950D01*
X98256086Y-90983367D01*
X98092218Y-91092860D01*
X98092217Y-91092862D01*
X97952862Y-91232217D01*
X97952860Y-91232218D01*
X97843367Y-91396086D01*
X97767950Y-91578160D01*
X97767947Y-91578170D01*
X97729500Y-91771460D01*
X97729500Y-91968539D01*
X97767947Y-92161829D01*
X97767950Y-92161839D01*
X97843367Y-92343913D01*
X97932226Y-92476899D01*
X97952861Y-92507782D01*
X98092218Y-92647139D01*
X98256086Y-92756632D01*
X98438165Y-92832051D01*
X98631459Y-92870500D01*
X98631461Y-92870500D01*
X98828539Y-92870500D01*
X98828541Y-92870500D01*
X99021835Y-92832051D01*
X99203914Y-92756632D01*
X99367782Y-92647139D01*
X99507139Y-92507782D01*
X99616632Y-92343914D01*
X99692051Y-92161835D01*
X99730500Y-91968541D01*
X99730500Y-91771459D01*
X99692051Y-91578165D01*
X99639142Y-91450431D01*
X99639142Y-91393794D01*
X99655183Y-91369787D01*
X99976797Y-91048174D01*
X100029123Y-91026500D01*
X100519928Y-91026500D01*
X100572254Y-91048174D01*
X100593928Y-91100500D01*
X100572254Y-91152824D01*
X100532557Y-91192521D01*
X100492861Y-91232217D01*
X100492860Y-91232218D01*
X100383367Y-91396086D01*
X100307950Y-91578160D01*
X100307947Y-91578170D01*
X100269500Y-91771460D01*
X100269500Y-91968539D01*
X100307947Y-92161829D01*
X100307950Y-92161839D01*
X100383367Y-92343913D01*
X100472226Y-92476899D01*
X100492861Y-92507782D01*
X100632218Y-92647139D01*
X100796086Y-92756632D01*
X100978165Y-92832051D01*
X101171459Y-92870500D01*
X101171461Y-92870500D01*
X101368539Y-92870500D01*
X101368541Y-92870500D01*
X101561835Y-92832051D01*
X101743914Y-92756632D01*
X101907782Y-92647139D01*
X102047139Y-92507782D01*
X102156632Y-92343914D01*
X102232051Y-92161835D01*
X102270500Y-91968541D01*
X102270500Y-91771459D01*
X102232051Y-91578165D01*
X102156632Y-91396086D01*
X102047139Y-91232218D01*
X101967745Y-91152824D01*
X101946072Y-91100500D01*
X101967746Y-91048174D01*
X102020072Y-91026500D01*
X103059928Y-91026500D01*
X103112254Y-91048174D01*
X103133928Y-91100500D01*
X103112254Y-91152824D01*
X103072557Y-91192521D01*
X103032861Y-91232217D01*
X103032860Y-91232218D01*
X102923367Y-91396086D01*
X102847950Y-91578160D01*
X102847947Y-91578170D01*
X102809500Y-91771460D01*
X102809500Y-91968539D01*
X102847947Y-92161829D01*
X102847950Y-92161839D01*
X102923367Y-92343913D01*
X103012226Y-92476899D01*
X103032861Y-92507782D01*
X103172218Y-92647139D01*
X103336086Y-92756632D01*
X103518165Y-92832051D01*
X103711459Y-92870500D01*
X103711461Y-92870500D01*
X103908539Y-92870500D01*
X103908541Y-92870500D01*
X104101835Y-92832051D01*
X104283914Y-92756632D01*
X104447782Y-92647139D01*
X104587139Y-92507782D01*
X104696632Y-92343914D01*
X104772051Y-92161835D01*
X104810500Y-91968541D01*
X104810500Y-91771459D01*
X104772051Y-91578165D01*
X104696632Y-91396086D01*
X104587139Y-91232218D01*
X104507745Y-91152824D01*
X104486072Y-91100500D01*
X104507746Y-91048174D01*
X104560072Y-91026500D01*
X105599928Y-91026500D01*
X105652254Y-91048174D01*
X105673928Y-91100500D01*
X105652254Y-91152824D01*
X105612557Y-91192521D01*
X105572861Y-91232217D01*
X105572860Y-91232218D01*
X105463367Y-91396086D01*
X105387950Y-91578160D01*
X105387947Y-91578170D01*
X105349500Y-91771460D01*
X105349500Y-91968539D01*
X105387947Y-92161829D01*
X105387950Y-92161839D01*
X105463367Y-92343913D01*
X105552226Y-92476899D01*
X105572861Y-92507782D01*
X105712218Y-92647139D01*
X105876086Y-92756632D01*
X106058165Y-92832051D01*
X106251459Y-92870500D01*
X106251461Y-92870500D01*
X106448539Y-92870500D01*
X106448541Y-92870500D01*
X106641835Y-92832051D01*
X106823914Y-92756632D01*
X106987782Y-92647139D01*
X107127139Y-92507782D01*
X107236632Y-92343914D01*
X107312051Y-92161835D01*
X107350500Y-91968541D01*
X107350500Y-91771459D01*
X107312051Y-91578165D01*
X107236632Y-91396086D01*
X107127139Y-91232218D01*
X107047745Y-91152824D01*
X107026072Y-91100500D01*
X107047746Y-91048174D01*
X107100072Y-91026500D01*
X108139928Y-91026500D01*
X108192254Y-91048174D01*
X108213928Y-91100500D01*
X108192254Y-91152824D01*
X108152557Y-91192521D01*
X108112861Y-91232217D01*
X108112860Y-91232218D01*
X108003367Y-91396086D01*
X107927950Y-91578160D01*
X107927947Y-91578170D01*
X107889500Y-91771460D01*
X107889500Y-91968539D01*
X107927947Y-92161829D01*
X107927950Y-92161839D01*
X107980857Y-92289567D01*
X107980857Y-92346204D01*
X107964816Y-92370211D01*
X104925489Y-95409540D01*
X104869540Y-95465488D01*
X104829979Y-95534009D01*
X104829977Y-95534014D01*
X104809500Y-95610435D01*
X104809500Y-97432092D01*
X104787826Y-97484418D01*
X104763819Y-97500459D01*
X104636089Y-97553366D01*
X104472218Y-97662860D01*
X104472217Y-97662862D01*
X104332862Y-97802217D01*
X104332860Y-97802218D01*
X104223367Y-97966086D01*
X104147950Y-98148160D01*
X104147947Y-98148170D01*
X104109500Y-98341460D01*
X104109500Y-98538539D01*
X104147947Y-98731829D01*
X104147950Y-98731839D01*
X104223367Y-98913913D01*
X104332860Y-99077781D01*
X104397653Y-99142574D01*
X104419327Y-99194900D01*
X104397653Y-99247226D01*
X104345327Y-99268900D01*
X96504500Y-99268900D01*
X96452174Y-99247226D01*
X96430500Y-99194900D01*
X96430500Y-97620246D01*
X96430356Y-97618783D01*
X96430000Y-97611536D01*
X96430000Y-97440000D01*
X96258464Y-97440000D01*
X96251217Y-97439644D01*
X96249754Y-97439500D01*
X96249748Y-97439500D01*
X94610252Y-97439500D01*
X94610246Y-97439500D01*
X94608783Y-97439644D01*
X94601536Y-97440000D01*
X94430000Y-97440000D01*
X94430000Y-97611536D01*
X94429644Y-97618783D01*
X94429500Y-97620246D01*
X94429500Y-99194900D01*
X94407826Y-99247226D01*
X94355500Y-99268900D01*
X93654673Y-99268900D01*
X93602347Y-99247226D01*
X93580673Y-99194900D01*
X93602347Y-99142574D01*
X93667138Y-99077783D01*
X93667139Y-99077782D01*
X93776632Y-98913914D01*
X93852051Y-98731835D01*
X93890500Y-98538541D01*
X93890500Y-98341459D01*
X93852051Y-98148165D01*
X93776632Y-97966086D01*
X93667139Y-97802218D01*
X93527782Y-97662861D01*
X93520545Y-97658025D01*
X93363913Y-97553367D01*
X93181839Y-97477950D01*
X93181829Y-97477947D01*
X93047023Y-97451133D01*
X92988541Y-97439500D01*
X92791459Y-97439500D01*
X92736662Y-97450399D01*
X92598170Y-97477947D01*
X92598160Y-97477950D01*
X92416086Y-97553367D01*
X92252218Y-97662860D01*
X92252217Y-97662862D01*
X92112862Y-97802217D01*
X92112860Y-97802218D01*
X92003367Y-97966086D01*
X91927950Y-98148160D01*
X91927947Y-98148170D01*
X91889500Y-98341460D01*
X91889500Y-98538539D01*
X91927947Y-98731829D01*
X91927950Y-98731839D01*
X92003367Y-98913913D01*
X92112860Y-99077781D01*
X92177653Y-99142574D01*
X92199327Y-99194900D01*
X92177653Y-99247226D01*
X92125327Y-99268900D01*
X91634523Y-99268900D01*
X91582197Y-99247226D01*
X91275183Y-98940212D01*
X91253509Y-98887886D01*
X91259142Y-98859567D01*
X91312051Y-98731835D01*
X91350500Y-98538541D01*
X91350500Y-98341459D01*
X91312051Y-98148165D01*
X91236632Y-97966086D01*
X91127139Y-97802218D01*
X90987782Y-97662861D01*
X90980545Y-97658025D01*
X90823913Y-97553367D01*
X90641839Y-97477950D01*
X90641829Y-97477947D01*
X90507023Y-97451133D01*
X90448541Y-97439500D01*
X90251459Y-97439500D01*
X90196662Y-97450399D01*
X90058170Y-97477947D01*
X90058160Y-97477950D01*
X89876086Y-97553367D01*
X89712218Y-97662860D01*
X89712217Y-97662862D01*
X89572862Y-97802217D01*
X89572860Y-97802218D01*
X89463367Y-97966086D01*
X89387950Y-98148160D01*
X89387947Y-98148170D01*
X89349500Y-98341460D01*
X89349500Y-98538539D01*
X89387947Y-98731829D01*
X89387950Y-98731839D01*
X89463367Y-98913913D01*
X89546100Y-99037731D01*
X89572861Y-99077782D01*
X89712218Y-99217139D01*
X89876086Y-99326632D01*
X90058165Y-99402051D01*
X90251459Y-99440500D01*
X90251461Y-99440500D01*
X90448539Y-99440500D01*
X90448541Y-99440500D01*
X90641835Y-99402051D01*
X90769568Y-99349142D01*
X90826204Y-99349142D01*
X90850212Y-99365183D01*
X91238940Y-99753911D01*
X91294889Y-99809860D01*
X91363411Y-99849421D01*
X91363412Y-99849421D01*
X91363414Y-99849422D01*
X91401624Y-99859660D01*
X91439835Y-99869899D01*
X91439836Y-99869900D01*
X91439838Y-99869900D01*
X91518962Y-99869900D01*
X92543956Y-99869900D01*
X92596282Y-99891574D01*
X92617956Y-99943900D01*
X92596282Y-99996226D01*
X92594193Y-99998235D01*
X92588120Y-100003849D01*
X92570886Y-100013800D01*
X92491531Y-100093154D01*
X92490471Y-100094135D01*
X92465157Y-100103476D01*
X92440234Y-100113800D01*
X89939423Y-100113800D01*
X89887097Y-100092126D01*
X88735183Y-98940212D01*
X88713509Y-98887886D01*
X88719142Y-98859567D01*
X88772051Y-98731835D01*
X88810500Y-98538541D01*
X88810500Y-98341459D01*
X88772051Y-98148165D01*
X88696632Y-97966086D01*
X88587139Y-97802218D01*
X88447782Y-97662861D01*
X88440545Y-97658025D01*
X88283913Y-97553367D01*
X88101839Y-97477950D01*
X88101829Y-97477947D01*
X87967023Y-97451133D01*
X87908541Y-97439500D01*
X87711459Y-97439500D01*
X87656662Y-97450399D01*
X87518170Y-97477947D01*
X87518160Y-97477950D01*
X87336086Y-97553367D01*
X87172218Y-97662860D01*
X87172217Y-97662862D01*
X87032862Y-97802217D01*
X87032860Y-97802218D01*
X86923367Y-97966086D01*
X86847950Y-98148160D01*
X86847947Y-98148170D01*
X86809500Y-98341460D01*
X86809500Y-98538539D01*
X86847947Y-98731829D01*
X86847950Y-98731839D01*
X86923367Y-98913913D01*
X87006100Y-99037731D01*
X87032861Y-99077782D01*
X87172218Y-99217139D01*
X87336086Y-99326632D01*
X87518165Y-99402051D01*
X87711459Y-99440500D01*
X87711461Y-99440500D01*
X87908539Y-99440500D01*
X87908541Y-99440500D01*
X88101835Y-99402051D01*
X88229568Y-99349142D01*
X88286204Y-99349142D01*
X88310212Y-99365183D01*
X89543840Y-100598811D01*
X89599789Y-100654760D01*
X89668311Y-100694321D01*
X89668312Y-100694321D01*
X89668314Y-100694322D01*
X89706524Y-100704560D01*
X89744735Y-100714799D01*
X89744736Y-100714800D01*
X89744738Y-100714800D01*
X89823862Y-100714800D01*
X92440234Y-100714800D01*
X92492560Y-100736474D01*
X92570886Y-100814800D01*
X92685014Y-100880692D01*
X92812305Y-100914799D01*
X92812306Y-100914800D01*
X92812308Y-100914800D01*
X92944094Y-100914800D01*
X92944094Y-100914799D01*
X93071386Y-100880692D01*
X93185514Y-100814800D01*
X93278700Y-100721614D01*
X93344592Y-100607486D01*
X93378699Y-100480194D01*
X93378700Y-100480194D01*
X93378700Y-100348406D01*
X93378699Y-100348405D01*
X93344593Y-100221118D01*
X93344592Y-100221114D01*
X93278700Y-100106986D01*
X93185514Y-100013800D01*
X93185513Y-100013799D01*
X93175443Y-100007985D01*
X93140965Y-99963052D01*
X93148359Y-99906899D01*
X93193292Y-99872421D01*
X93212444Y-99869900D01*
X106434869Y-99869900D01*
X106471869Y-99879814D01*
X106584414Y-99944792D01*
X106584418Y-99944793D01*
X106711699Y-99978898D01*
X106711702Y-99978898D01*
X106711708Y-99978900D01*
X106711714Y-99978900D01*
X106714053Y-99979208D01*
X106715090Y-99979807D01*
X106716393Y-99980156D01*
X106716299Y-99980504D01*
X106763104Y-100007524D01*
X106777767Y-100062230D01*
X106756725Y-100104902D01*
X105202103Y-101659526D01*
X105149777Y-101681200D01*
X99750950Y-101681200D01*
X99698624Y-101659526D01*
X99676950Y-101607200D01*
X99697645Y-101557237D01*
X99697161Y-101556840D01*
X99698470Y-101555244D01*
X99698623Y-101554875D01*
X99699464Y-101554035D01*
X99798013Y-101406547D01*
X99865894Y-101242666D01*
X99900500Y-101068691D01*
X99900500Y-100891309D01*
X99865894Y-100717334D01*
X99798013Y-100553453D01*
X99699464Y-100405965D01*
X99574035Y-100280536D01*
X99533884Y-100253708D01*
X99426544Y-100181985D01*
X99262670Y-100114107D01*
X99262660Y-100114104D01*
X99146156Y-100090930D01*
X99088691Y-100079500D01*
X98911309Y-100079500D01*
X98861989Y-100089310D01*
X98737339Y-100114104D01*
X98737329Y-100114107D01*
X98573455Y-100181985D01*
X98425968Y-100280533D01*
X98300533Y-100405968D01*
X98201985Y-100553455D01*
X98134107Y-100717329D01*
X98134104Y-100717339D01*
X98113664Y-100820100D01*
X98099500Y-100891309D01*
X98099500Y-101068691D01*
X98101772Y-101080111D01*
X98134104Y-101242660D01*
X98134107Y-101242670D01*
X98201985Y-101406544D01*
X98201986Y-101406546D01*
X98201987Y-101406547D01*
X98300536Y-101554035D01*
X98301376Y-101554875D01*
X98301529Y-101555244D01*
X98302839Y-101556840D01*
X98302354Y-101557237D01*
X98323050Y-101607200D01*
X98301376Y-101659526D01*
X98249050Y-101681200D01*
X90108448Y-101681200D01*
X90056122Y-101659526D01*
X90047728Y-101648586D01*
X90047658Y-101648640D01*
X90044703Y-101644790D01*
X90044701Y-101644788D01*
X90044700Y-101644786D01*
X89951514Y-101551600D01*
X89837390Y-101485710D01*
X89837381Y-101485706D01*
X89710094Y-101451600D01*
X89710092Y-101451600D01*
X89578308Y-101451600D01*
X89578306Y-101451600D01*
X89451018Y-101485706D01*
X89451009Y-101485710D01*
X89336885Y-101551600D01*
X89243700Y-101644785D01*
X89177810Y-101758909D01*
X89177806Y-101758918D01*
X89143700Y-101886205D01*
X89143700Y-102017994D01*
X89177806Y-102145281D01*
X89179666Y-102149771D01*
X89177240Y-102150775D01*
X89183538Y-102198538D01*
X89149069Y-102243478D01*
X89112056Y-102253400D01*
X84717662Y-102253400D01*
X84638538Y-102253400D01*
X84562112Y-102273878D01*
X84562111Y-102273878D01*
X84562109Y-102273879D01*
X84562107Y-102273880D01*
X84493592Y-102313437D01*
X81390389Y-105416640D01*
X81334440Y-105472588D01*
X81294879Y-105541109D01*
X81294877Y-105541114D01*
X81274400Y-105617535D01*
X81274400Y-105691518D01*
X81252726Y-105743844D01*
X81200400Y-105765518D01*
X81148074Y-105743844D01*
X81132033Y-105719836D01*
X81076632Y-105586086D01*
X80967139Y-105422218D01*
X80827781Y-105282860D01*
X80663913Y-105173367D01*
X80481839Y-105097950D01*
X80481829Y-105097947D01*
X80330966Y-105067939D01*
X80288541Y-105059500D01*
X80091459Y-105059500D01*
X80049034Y-105067939D01*
X79898170Y-105097947D01*
X79898160Y-105097950D01*
X79716086Y-105173367D01*
X79552218Y-105282860D01*
X79552217Y-105282862D01*
X79412862Y-105422217D01*
X79412860Y-105422218D01*
X79356029Y-105507273D01*
X79308937Y-105538739D01*
X79253388Y-105527690D01*
X79221922Y-105480598D01*
X79220500Y-105466161D01*
X79220500Y-99865122D01*
X79242173Y-99812797D01*
X79689787Y-99365182D01*
X79742113Y-99343509D01*
X79770431Y-99349141D01*
X79898165Y-99402051D01*
X80091459Y-99440500D01*
X80091461Y-99440500D01*
X80288539Y-99440500D01*
X80288541Y-99440500D01*
X80481835Y-99402051D01*
X80663914Y-99326632D01*
X80827782Y-99217139D01*
X80967139Y-99077782D01*
X81076632Y-98913914D01*
X81152051Y-98731835D01*
X81190500Y-98538541D01*
X81190500Y-98341460D01*
X81729500Y-98341460D01*
X81729500Y-98538539D01*
X81767947Y-98731829D01*
X81767950Y-98731839D01*
X81843367Y-98913913D01*
X81926100Y-99037731D01*
X81952861Y-99077782D01*
X82092218Y-99217139D01*
X82256086Y-99326632D01*
X82438165Y-99402051D01*
X82631459Y-99440500D01*
X82631461Y-99440500D01*
X82828539Y-99440500D01*
X82828541Y-99440500D01*
X83021835Y-99402051D01*
X83203914Y-99326632D01*
X83367782Y-99217139D01*
X83507139Y-99077782D01*
X83616632Y-98913914D01*
X83692051Y-98731835D01*
X83730500Y-98538541D01*
X83730500Y-98341460D01*
X84269500Y-98341460D01*
X84269500Y-98538539D01*
X84307947Y-98731829D01*
X84307950Y-98731839D01*
X84383367Y-98913913D01*
X84466100Y-99037731D01*
X84492861Y-99077782D01*
X84632218Y-99217139D01*
X84796086Y-99326632D01*
X84978165Y-99402051D01*
X85171459Y-99440500D01*
X85171461Y-99440500D01*
X85368539Y-99440500D01*
X85368541Y-99440500D01*
X85561835Y-99402051D01*
X85743914Y-99326632D01*
X85907782Y-99217139D01*
X86047139Y-99077782D01*
X86156632Y-98913914D01*
X86232051Y-98731835D01*
X86270500Y-98538541D01*
X86270500Y-98341459D01*
X86232051Y-98148165D01*
X86156632Y-97966086D01*
X86047139Y-97802218D01*
X85907782Y-97662861D01*
X85900545Y-97658025D01*
X85743913Y-97553367D01*
X85561839Y-97477950D01*
X85561829Y-97477947D01*
X85427023Y-97451133D01*
X85368541Y-97439500D01*
X85171459Y-97439500D01*
X85116662Y-97450399D01*
X84978170Y-97477947D01*
X84978160Y-97477950D01*
X84796086Y-97553367D01*
X84632218Y-97662860D01*
X84632217Y-97662862D01*
X84492862Y-97802217D01*
X84492860Y-97802218D01*
X84383367Y-97966086D01*
X84307950Y-98148160D01*
X84307947Y-98148170D01*
X84269500Y-98341460D01*
X83730500Y-98341460D01*
X83730500Y-98341459D01*
X83692051Y-98148165D01*
X83616632Y-97966086D01*
X83507139Y-97802218D01*
X83367782Y-97662861D01*
X83360545Y-97658025D01*
X83203913Y-97553367D01*
X83021839Y-97477950D01*
X83021829Y-97477947D01*
X82887023Y-97451133D01*
X82828541Y-97439500D01*
X82631459Y-97439500D01*
X82576662Y-97450399D01*
X82438170Y-97477947D01*
X82438160Y-97477950D01*
X82256086Y-97553367D01*
X82092218Y-97662860D01*
X82092217Y-97662862D01*
X81952862Y-97802217D01*
X81952860Y-97802218D01*
X81843367Y-97966086D01*
X81767950Y-98148160D01*
X81767947Y-98148170D01*
X81729500Y-98341460D01*
X81190500Y-98341460D01*
X81190500Y-98341459D01*
X81152051Y-98148165D01*
X81076632Y-97966086D01*
X80967139Y-97802218D01*
X80827782Y-97662861D01*
X80820545Y-97658025D01*
X80663913Y-97553367D01*
X80481839Y-97477950D01*
X80481829Y-97477947D01*
X80347023Y-97451133D01*
X80288541Y-97439500D01*
X80091459Y-97439500D01*
X80036662Y-97450399D01*
X79898170Y-97477947D01*
X79898160Y-97477950D01*
X79716086Y-97553367D01*
X79552218Y-97662860D01*
X79552217Y-97662862D01*
X79412862Y-97802217D01*
X79412860Y-97802218D01*
X79303367Y-97966086D01*
X79227950Y-98148160D01*
X79227947Y-98148170D01*
X79189500Y-98341460D01*
X79189500Y-98538539D01*
X79227947Y-98731829D01*
X79227950Y-98731839D01*
X79280857Y-98859567D01*
X79280857Y-98916204D01*
X79264816Y-98940211D01*
X78735489Y-99469540D01*
X78679540Y-99525488D01*
X78639979Y-99594009D01*
X78639977Y-99594014D01*
X78619500Y-99670435D01*
X78619500Y-105466161D01*
X78597826Y-105518487D01*
X78545500Y-105540161D01*
X78493174Y-105518487D01*
X78483971Y-105507273D01*
X78427139Y-105422218D01*
X78287781Y-105282860D01*
X78123913Y-105173367D01*
X77941839Y-105097950D01*
X77941829Y-105097947D01*
X77790966Y-105067939D01*
X77748541Y-105059500D01*
X77551459Y-105059500D01*
X77509034Y-105067939D01*
X77358170Y-105097947D01*
X77358160Y-105097950D01*
X77176086Y-105173367D01*
X77012218Y-105282860D01*
X77012217Y-105282862D01*
X76872862Y-105422217D01*
X76872860Y-105422218D01*
X76763367Y-105586086D01*
X76687950Y-105768160D01*
X76687947Y-105768170D01*
X76649500Y-105961460D01*
X76649500Y-106158539D01*
X76687947Y-106351829D01*
X76687950Y-106351839D01*
X76763367Y-106533913D01*
X76843499Y-106653838D01*
X76872861Y-106697782D01*
X77012218Y-106837139D01*
X77176086Y-106946632D01*
X77358165Y-107022051D01*
X77551459Y-107060500D01*
X77551461Y-107060500D01*
X77748539Y-107060500D01*
X77748541Y-107060500D01*
X77941835Y-107022051D01*
X78123914Y-106946632D01*
X78287782Y-106837139D01*
X78427139Y-106697782D01*
X78483971Y-106612725D01*
X78531063Y-106581260D01*
X78586612Y-106592309D01*
X78618078Y-106639401D01*
X78619500Y-106653838D01*
X78619500Y-132023177D01*
X78597826Y-132075503D01*
X78169540Y-132503788D01*
X78129979Y-132572309D01*
X78129977Y-132572314D01*
X78109500Y-132648735D01*
X78109500Y-132715500D01*
X78087826Y-132767826D01*
X78035500Y-132789500D01*
X77390246Y-132789500D01*
X77388783Y-132789644D01*
X77381536Y-132790000D01*
X77210000Y-132790000D01*
X77210000Y-132961536D01*
X77209644Y-132968783D01*
X77209500Y-132970246D01*
X77209500Y-139726000D01*
X77187826Y-139778326D01*
X77135500Y-139800000D01*
X76474000Y-139800000D01*
X76421674Y-139778326D01*
X76400000Y-139726000D01*
X76400000Y-116250001D01*
X76398195Y-116231677D01*
X76396157Y-116210982D01*
X76384776Y-116173463D01*
X76366294Y-116138886D01*
X76341421Y-116108579D01*
X76311114Y-116083706D01*
X76276537Y-116065224D01*
X76250400Y-116057295D01*
X76239019Y-116053843D01*
X76219509Y-116051921D01*
X76200000Y-116050000D01*
X76199999Y-116050000D01*
X68613494Y-116050000D01*
X68561168Y-116028326D01*
X68221674Y-115688832D01*
X68200000Y-115636506D01*
X68200000Y-105961460D01*
X71569500Y-105961460D01*
X71569500Y-106158539D01*
X71607947Y-106351829D01*
X71607950Y-106351839D01*
X71683367Y-106533913D01*
X71763499Y-106653838D01*
X71792861Y-106697782D01*
X71932218Y-106837139D01*
X72096086Y-106946632D01*
X72278165Y-107022051D01*
X72471459Y-107060500D01*
X72471461Y-107060500D01*
X72668539Y-107060500D01*
X72668541Y-107060500D01*
X72861835Y-107022051D01*
X73043914Y-106946632D01*
X73207782Y-106837139D01*
X73347139Y-106697782D01*
X73456632Y-106533914D01*
X73532051Y-106351835D01*
X73570500Y-106158541D01*
X73570500Y-105961460D01*
X74109500Y-105961460D01*
X74109500Y-106158539D01*
X74147947Y-106351829D01*
X74147950Y-106351839D01*
X74223367Y-106533913D01*
X74303499Y-106653838D01*
X74332861Y-106697782D01*
X74472218Y-106837139D01*
X74636086Y-106946632D01*
X74818165Y-107022051D01*
X75011459Y-107060500D01*
X75011461Y-107060500D01*
X75208539Y-107060500D01*
X75208541Y-107060500D01*
X75401835Y-107022051D01*
X75583914Y-106946632D01*
X75747782Y-106837139D01*
X75887139Y-106697782D01*
X75996632Y-106533914D01*
X76072051Y-106351835D01*
X76110500Y-106158541D01*
X76110500Y-105961459D01*
X76072051Y-105768165D01*
X75996632Y-105586086D01*
X75887139Y-105422218D01*
X75747782Y-105282861D01*
X75746644Y-105282100D01*
X75583913Y-105173367D01*
X75401839Y-105097950D01*
X75401829Y-105097947D01*
X75250966Y-105067939D01*
X75208541Y-105059500D01*
X75011459Y-105059500D01*
X74969034Y-105067939D01*
X74818170Y-105097947D01*
X74818160Y-105097950D01*
X74636086Y-105173367D01*
X74472218Y-105282860D01*
X74472217Y-105282862D01*
X74332862Y-105422217D01*
X74332860Y-105422218D01*
X74223367Y-105586086D01*
X74147950Y-105768160D01*
X74147947Y-105768170D01*
X74109500Y-105961460D01*
X73570500Y-105961460D01*
X73570500Y-105961459D01*
X73532051Y-105768165D01*
X73456632Y-105586086D01*
X73347139Y-105422218D01*
X73207782Y-105282861D01*
X73206644Y-105282100D01*
X73043913Y-105173367D01*
X72861839Y-105097950D01*
X72861829Y-105097947D01*
X72710966Y-105067939D01*
X72668541Y-105059500D01*
X72471459Y-105059500D01*
X72429034Y-105067939D01*
X72278170Y-105097947D01*
X72278160Y-105097950D01*
X72096086Y-105173367D01*
X71932218Y-105282860D01*
X71932217Y-105282862D01*
X71792862Y-105422217D01*
X71792860Y-105422218D01*
X71683367Y-105586086D01*
X71607950Y-105768160D01*
X71607947Y-105768170D01*
X71569500Y-105961460D01*
X68200000Y-105961460D01*
X68200000Y-98341460D01*
X74109500Y-98341460D01*
X74109500Y-98538539D01*
X74147947Y-98731829D01*
X74147950Y-98731839D01*
X74223367Y-98913913D01*
X74306100Y-99037731D01*
X74332861Y-99077782D01*
X74472218Y-99217139D01*
X74636086Y-99326632D01*
X74818165Y-99402051D01*
X75011459Y-99440500D01*
X75011461Y-99440500D01*
X75208539Y-99440500D01*
X75208541Y-99440500D01*
X75401835Y-99402051D01*
X75583914Y-99326632D01*
X75747782Y-99217139D01*
X75887139Y-99077782D01*
X75996632Y-98913914D01*
X76072051Y-98731835D01*
X76110500Y-98538541D01*
X76110500Y-98341460D01*
X76649500Y-98341460D01*
X76649500Y-98538539D01*
X76687947Y-98731829D01*
X76687950Y-98731839D01*
X76763367Y-98913913D01*
X76846100Y-99037731D01*
X76872861Y-99077782D01*
X77012218Y-99217139D01*
X77176086Y-99326632D01*
X77358165Y-99402051D01*
X77551459Y-99440500D01*
X77551461Y-99440500D01*
X77748539Y-99440500D01*
X77748541Y-99440500D01*
X77941835Y-99402051D01*
X78123914Y-99326632D01*
X78287782Y-99217139D01*
X78427139Y-99077782D01*
X78536632Y-98913914D01*
X78612051Y-98731835D01*
X78650500Y-98538541D01*
X78650500Y-98341459D01*
X78612051Y-98148165D01*
X78536632Y-97966086D01*
X78427139Y-97802218D01*
X78287782Y-97662861D01*
X78280545Y-97658025D01*
X78123913Y-97553367D01*
X77941839Y-97477950D01*
X77941829Y-97477947D01*
X77807023Y-97451133D01*
X77748541Y-97439500D01*
X77551459Y-97439500D01*
X77496662Y-97450399D01*
X77358170Y-97477947D01*
X77358160Y-97477950D01*
X77176086Y-97553367D01*
X77012218Y-97662860D01*
X77012217Y-97662862D01*
X76872862Y-97802217D01*
X76872860Y-97802218D01*
X76763367Y-97966086D01*
X76687950Y-98148160D01*
X76687947Y-98148170D01*
X76649500Y-98341460D01*
X76110500Y-98341460D01*
X76110500Y-98341459D01*
X76072051Y-98148165D01*
X75996632Y-97966086D01*
X75887139Y-97802218D01*
X75747782Y-97662861D01*
X75740545Y-97658025D01*
X75583913Y-97553367D01*
X75401839Y-97477950D01*
X75401829Y-97477947D01*
X75267023Y-97451133D01*
X75208541Y-97439500D01*
X75011459Y-97439500D01*
X74956662Y-97450399D01*
X74818170Y-97477947D01*
X74818160Y-97477950D01*
X74636086Y-97553367D01*
X74472218Y-97662860D01*
X74472217Y-97662862D01*
X74332862Y-97802217D01*
X74332860Y-97802218D01*
X74223367Y-97966086D01*
X74147950Y-98148160D01*
X74147947Y-98148170D01*
X74109500Y-98341460D01*
X68200000Y-98341460D01*
X68200000Y-95661309D01*
X77829500Y-95661309D01*
X77829500Y-95838691D01*
X77840930Y-95896156D01*
X77864104Y-96012660D01*
X77864107Y-96012670D01*
X77931985Y-96176544D01*
X77931986Y-96176546D01*
X77931987Y-96176547D01*
X78030536Y-96324035D01*
X78155965Y-96449464D01*
X78303453Y-96548013D01*
X78303454Y-96548013D01*
X78303455Y-96548014D01*
X78373367Y-96576972D01*
X78467334Y-96615894D01*
X78641309Y-96650500D01*
X78641311Y-96650500D01*
X78818689Y-96650500D01*
X78818691Y-96650500D01*
X78992666Y-96615894D01*
X79073033Y-96582605D01*
X79129667Y-96582605D01*
X79153675Y-96598646D01*
X79570689Y-97015660D01*
X79570691Y-97015661D01*
X79570692Y-97015662D01*
X79585271Y-97024079D01*
X79639212Y-97055222D01*
X79715638Y-97075700D01*
X79715640Y-97075700D01*
X86284364Y-97075700D01*
X86284364Y-97075699D01*
X86360789Y-97055221D01*
X86429311Y-97015660D01*
X86485260Y-96959711D01*
X86846324Y-96598645D01*
X86898649Y-96576972D01*
X86926964Y-96582604D01*
X87007334Y-96615894D01*
X87181309Y-96650500D01*
X87181311Y-96650500D01*
X87358689Y-96650500D01*
X87358691Y-96650500D01*
X87532666Y-96615894D01*
X87696547Y-96548013D01*
X87844035Y-96449464D01*
X87969464Y-96324035D01*
X88068013Y-96176547D01*
X88135894Y-96012666D01*
X88170500Y-95838691D01*
X88170500Y-95661309D01*
X88135894Y-95487334D01*
X88068013Y-95323453D01*
X87969464Y-95175965D01*
X87844035Y-95050536D01*
X87790437Y-95014723D01*
X87696544Y-94951985D01*
X87532670Y-94884107D01*
X87532660Y-94884104D01*
X87416156Y-94860930D01*
X87358691Y-94849500D01*
X87181309Y-94849500D01*
X87131989Y-94859310D01*
X87007339Y-94884104D01*
X87007329Y-94884107D01*
X86843455Y-94951985D01*
X86695968Y-95050533D01*
X86570533Y-95175968D01*
X86471985Y-95323455D01*
X86404107Y-95487329D01*
X86404104Y-95487339D01*
X86379619Y-95610438D01*
X86369500Y-95661309D01*
X86369500Y-95838691D01*
X86380930Y-95896156D01*
X86404104Y-96012660D01*
X86404105Y-96012662D01*
X86404106Y-96012666D01*
X86417950Y-96046089D01*
X86437394Y-96093032D01*
X86437393Y-96149669D01*
X86421352Y-96173675D01*
X86142003Y-96453026D01*
X86089677Y-96474700D01*
X85457450Y-96474700D01*
X85405124Y-96453026D01*
X85383450Y-96400700D01*
X85405123Y-96348375D01*
X85429464Y-96324035D01*
X85528013Y-96176547D01*
X85595894Y-96012666D01*
X85630500Y-95838691D01*
X85630500Y-95661309D01*
X85595894Y-95487334D01*
X85528013Y-95323453D01*
X85429464Y-95175965D01*
X85304035Y-95050536D01*
X85250437Y-95014723D01*
X85156544Y-94951985D01*
X84992670Y-94884107D01*
X84992660Y-94884104D01*
X84876156Y-94860930D01*
X84818691Y-94849500D01*
X84641309Y-94849500D01*
X84591989Y-94859310D01*
X84467339Y-94884104D01*
X84467329Y-94884107D01*
X84303455Y-94951985D01*
X84155968Y-95050533D01*
X84030533Y-95175968D01*
X83931985Y-95323455D01*
X83864107Y-95487329D01*
X83864104Y-95487339D01*
X83839619Y-95610438D01*
X83829500Y-95661309D01*
X83829500Y-95838691D01*
X83840930Y-95896156D01*
X83864104Y-96012660D01*
X83864107Y-96012670D01*
X83931985Y-96176544D01*
X83931986Y-96176546D01*
X83931987Y-96176547D01*
X84030536Y-96324035D01*
X84054876Y-96348375D01*
X84076550Y-96400700D01*
X84054876Y-96453026D01*
X84002550Y-96474700D01*
X79910323Y-96474700D01*
X79857997Y-96453026D01*
X79578646Y-96173675D01*
X79556972Y-96121349D01*
X79562603Y-96093036D01*
X79595894Y-96012666D01*
X79630500Y-95838691D01*
X79630500Y-95661309D01*
X79595894Y-95487334D01*
X79528013Y-95323453D01*
X79429464Y-95175965D01*
X79304035Y-95050536D01*
X79250437Y-95014723D01*
X79156544Y-94951985D01*
X78992670Y-94884107D01*
X78992660Y-94884104D01*
X78876156Y-94860930D01*
X78818691Y-94849500D01*
X78641309Y-94849500D01*
X78591989Y-94859310D01*
X78467339Y-94884104D01*
X78467329Y-94884107D01*
X78303455Y-94951985D01*
X78155968Y-95050533D01*
X78030533Y-95175968D01*
X77931985Y-95323455D01*
X77864107Y-95487329D01*
X77864104Y-95487339D01*
X77839619Y-95610438D01*
X77829500Y-95661309D01*
X68200000Y-95661309D01*
X68200000Y-91771460D01*
X74869500Y-91771460D01*
X74869500Y-91968539D01*
X74907947Y-92161829D01*
X74907950Y-92161839D01*
X74983367Y-92343913D01*
X75072226Y-92476899D01*
X75092861Y-92507782D01*
X75232218Y-92647139D01*
X75396086Y-92756632D01*
X75578165Y-92832051D01*
X75771459Y-92870500D01*
X75771461Y-92870500D01*
X75968539Y-92870500D01*
X75968541Y-92870500D01*
X76161835Y-92832051D01*
X76343914Y-92756632D01*
X76507782Y-92647139D01*
X76647139Y-92507782D01*
X76756632Y-92343914D01*
X76832051Y-92161835D01*
X76870500Y-91968541D01*
X76870500Y-91771460D01*
X77409500Y-91771460D01*
X77409500Y-91968539D01*
X77447947Y-92161829D01*
X77447950Y-92161839D01*
X77523367Y-92343913D01*
X77612226Y-92476899D01*
X77632861Y-92507782D01*
X77772218Y-92647139D01*
X77936086Y-92756632D01*
X78118165Y-92832051D01*
X78311459Y-92870500D01*
X78311461Y-92870500D01*
X78508539Y-92870500D01*
X78508541Y-92870500D01*
X78701835Y-92832051D01*
X78883914Y-92756632D01*
X79047782Y-92647139D01*
X79187139Y-92507782D01*
X79296632Y-92343914D01*
X79372051Y-92161835D01*
X79410500Y-91968541D01*
X79410500Y-91771460D01*
X79949500Y-91771460D01*
X79949500Y-91968539D01*
X79987947Y-92161829D01*
X79987950Y-92161839D01*
X80063367Y-92343913D01*
X80152226Y-92476899D01*
X80172861Y-92507782D01*
X80312218Y-92647139D01*
X80476086Y-92756632D01*
X80658165Y-92832051D01*
X80851459Y-92870500D01*
X80851461Y-92870500D01*
X81048539Y-92870500D01*
X81048541Y-92870500D01*
X81241835Y-92832051D01*
X81423914Y-92756632D01*
X81587782Y-92647139D01*
X81727139Y-92507782D01*
X81836632Y-92343914D01*
X81912051Y-92161835D01*
X81950500Y-91968541D01*
X81950500Y-91771459D01*
X81912051Y-91578165D01*
X81836632Y-91396086D01*
X81727139Y-91232218D01*
X81587782Y-91092861D01*
X81520904Y-91048174D01*
X81423913Y-90983367D01*
X81241839Y-90907950D01*
X81241829Y-90907947D01*
X81112388Y-90882200D01*
X81048541Y-90869500D01*
X80851459Y-90869500D01*
X80796662Y-90880399D01*
X80658170Y-90907947D01*
X80658160Y-90907950D01*
X80476086Y-90983367D01*
X80312218Y-91092860D01*
X80312217Y-91092862D01*
X80172862Y-91232217D01*
X80172860Y-91232218D01*
X80063367Y-91396086D01*
X79987950Y-91578160D01*
X79987947Y-91578170D01*
X79949500Y-91771460D01*
X79410500Y-91771460D01*
X79410500Y-91771459D01*
X79372051Y-91578165D01*
X79296632Y-91396086D01*
X79187139Y-91232218D01*
X79047782Y-91092861D01*
X78980904Y-91048174D01*
X78883913Y-90983367D01*
X78701839Y-90907950D01*
X78701829Y-90907947D01*
X78572388Y-90882200D01*
X78508541Y-90869500D01*
X78311459Y-90869500D01*
X78256662Y-90880399D01*
X78118170Y-90907947D01*
X78118160Y-90907950D01*
X77936086Y-90983367D01*
X77772218Y-91092860D01*
X77772217Y-91092862D01*
X77632862Y-91232217D01*
X77632860Y-91232218D01*
X77523367Y-91396086D01*
X77447950Y-91578160D01*
X77447947Y-91578170D01*
X77409500Y-91771460D01*
X76870500Y-91771460D01*
X76870500Y-91771459D01*
X76832051Y-91578165D01*
X76756632Y-91396086D01*
X76647139Y-91232218D01*
X76507782Y-91092861D01*
X76440904Y-91048174D01*
X76343913Y-90983367D01*
X76161839Y-90907950D01*
X76161829Y-90907947D01*
X76032388Y-90882200D01*
X75968541Y-90869500D01*
X75771459Y-90869500D01*
X75716662Y-90880399D01*
X75578170Y-90907947D01*
X75578160Y-90907950D01*
X75396086Y-90983367D01*
X75232218Y-91092860D01*
X75232217Y-91092862D01*
X75092862Y-91232217D01*
X75092860Y-91232218D01*
X74983367Y-91396086D01*
X74907950Y-91578160D01*
X74907947Y-91578170D01*
X74869500Y-91771460D01*
X68200000Y-91771460D01*
X68200000Y-82891310D01*
X127099500Y-82891310D01*
X127099500Y-83068689D01*
X127134104Y-83242660D01*
X127134107Y-83242670D01*
X127201985Y-83406544D01*
X127201986Y-83406546D01*
X127201987Y-83406547D01*
X127300536Y-83554035D01*
X127425965Y-83679464D01*
X127573453Y-83778013D01*
X127737334Y-83845894D01*
X127911309Y-83880500D01*
X127911311Y-83880500D01*
X128088689Y-83880500D01*
X128088691Y-83880500D01*
X128262666Y-83845894D01*
X128426547Y-83778013D01*
X128574035Y-83679464D01*
X128699464Y-83554035D01*
X128798013Y-83406547D01*
X128865894Y-83242666D01*
X128900500Y-83068691D01*
X128900500Y-82891309D01*
X128865894Y-82717334D01*
X128798013Y-82553453D01*
X128699464Y-82405965D01*
X128574035Y-82280536D01*
X128426547Y-82181987D01*
X128426546Y-82181986D01*
X128426544Y-82181985D01*
X128262670Y-82114107D01*
X128262660Y-82114104D01*
X128146156Y-82090930D01*
X128088691Y-82079500D01*
X127911309Y-82079500D01*
X127861989Y-82089310D01*
X127737339Y-82114104D01*
X127737329Y-82114107D01*
X127573455Y-82181985D01*
X127425968Y-82280533D01*
X127300533Y-82405968D01*
X127201985Y-82553455D01*
X127134107Y-82717329D01*
X127134104Y-82717339D01*
X127099500Y-82891310D01*
X68200000Y-82891310D01*
X68200000Y-76531460D01*
X74869500Y-76531460D01*
X74869500Y-76728539D01*
X74907947Y-76921829D01*
X74907950Y-76921839D01*
X74983367Y-77103913D01*
X74983368Y-77103914D01*
X75092861Y-77267782D01*
X75232218Y-77407139D01*
X75396086Y-77516632D01*
X75578165Y-77592051D01*
X75771459Y-77630500D01*
X75771461Y-77630500D01*
X75968539Y-77630500D01*
X75968541Y-77630500D01*
X76161835Y-77592051D01*
X76343914Y-77516632D01*
X76507782Y-77407139D01*
X76647139Y-77267782D01*
X76756632Y-77103914D01*
X76832051Y-76921835D01*
X76870500Y-76728541D01*
X76870500Y-76531460D01*
X77409500Y-76531460D01*
X77409500Y-76728539D01*
X77447947Y-76921829D01*
X77447950Y-76921839D01*
X77523367Y-77103913D01*
X77523368Y-77103914D01*
X77632861Y-77267782D01*
X77772218Y-77407139D01*
X77936086Y-77516632D01*
X78118165Y-77592051D01*
X78311459Y-77630500D01*
X78311461Y-77630500D01*
X78508539Y-77630500D01*
X78508541Y-77630500D01*
X78701835Y-77592051D01*
X78883914Y-77516632D01*
X79047782Y-77407139D01*
X79187139Y-77267782D01*
X79296632Y-77103914D01*
X79372051Y-76921835D01*
X79410500Y-76728541D01*
X79410500Y-76531460D01*
X79949500Y-76531460D01*
X79949500Y-76728539D01*
X79987947Y-76921829D01*
X79987950Y-76921839D01*
X80063367Y-77103913D01*
X80063368Y-77103914D01*
X80172861Y-77267782D01*
X80312218Y-77407139D01*
X80476086Y-77516632D01*
X80658165Y-77592051D01*
X80851459Y-77630500D01*
X80851461Y-77630500D01*
X81048539Y-77630500D01*
X81048541Y-77630500D01*
X81241835Y-77592051D01*
X81423914Y-77516632D01*
X81587782Y-77407139D01*
X81727139Y-77267782D01*
X81836632Y-77103914D01*
X81912051Y-76921835D01*
X81950500Y-76728541D01*
X81950500Y-76531460D01*
X82489500Y-76531460D01*
X82489500Y-76728539D01*
X82527947Y-76921829D01*
X82527950Y-76921839D01*
X82603367Y-77103913D01*
X82603368Y-77103914D01*
X82712861Y-77267782D01*
X82852218Y-77407139D01*
X83016086Y-77516632D01*
X83198165Y-77592051D01*
X83391459Y-77630500D01*
X83391461Y-77630500D01*
X83588539Y-77630500D01*
X83588541Y-77630500D01*
X83781835Y-77592051D01*
X83963914Y-77516632D01*
X84127782Y-77407139D01*
X84267139Y-77267782D01*
X84376632Y-77103914D01*
X84452051Y-76921835D01*
X84490500Y-76728541D01*
X84490500Y-76531460D01*
X85029500Y-76531460D01*
X85029500Y-76728539D01*
X85067947Y-76921829D01*
X85067950Y-76921839D01*
X85143367Y-77103913D01*
X85143368Y-77103914D01*
X85252861Y-77267782D01*
X85392218Y-77407139D01*
X85556086Y-77516632D01*
X85738165Y-77592051D01*
X85931459Y-77630500D01*
X85931461Y-77630500D01*
X86128539Y-77630500D01*
X86128541Y-77630500D01*
X86321835Y-77592051D01*
X86503914Y-77516632D01*
X86667782Y-77407139D01*
X86807139Y-77267782D01*
X86916632Y-77103914D01*
X86992051Y-76921835D01*
X87030500Y-76728541D01*
X87030500Y-76531460D01*
X87569500Y-76531460D01*
X87569500Y-76728539D01*
X87607947Y-76921829D01*
X87607950Y-76921839D01*
X87683367Y-77103913D01*
X87683368Y-77103914D01*
X87792861Y-77267782D01*
X87932218Y-77407139D01*
X88096086Y-77516632D01*
X88278165Y-77592051D01*
X88471459Y-77630500D01*
X88471461Y-77630500D01*
X88668539Y-77630500D01*
X88668541Y-77630500D01*
X88861835Y-77592051D01*
X89043914Y-77516632D01*
X89207782Y-77407139D01*
X89347139Y-77267782D01*
X89456632Y-77103914D01*
X89532051Y-76921835D01*
X89570500Y-76728541D01*
X89570500Y-76531460D01*
X90109500Y-76531460D01*
X90109500Y-76728539D01*
X90147947Y-76921829D01*
X90147950Y-76921839D01*
X90223367Y-77103913D01*
X90223368Y-77103914D01*
X90332861Y-77267782D01*
X90472218Y-77407139D01*
X90636086Y-77516632D01*
X90818165Y-77592051D01*
X91011459Y-77630500D01*
X91011461Y-77630500D01*
X91208539Y-77630500D01*
X91208541Y-77630500D01*
X91401835Y-77592051D01*
X91583914Y-77516632D01*
X91747782Y-77407139D01*
X91887139Y-77267782D01*
X91996632Y-77103914D01*
X92072051Y-76921835D01*
X92110500Y-76728541D01*
X92110500Y-76531460D01*
X92649500Y-76531460D01*
X92649500Y-76728539D01*
X92687947Y-76921829D01*
X92687950Y-76921839D01*
X92763367Y-77103913D01*
X92763368Y-77103914D01*
X92872861Y-77267782D01*
X93012218Y-77407139D01*
X93176086Y-77516632D01*
X93358165Y-77592051D01*
X93551459Y-77630500D01*
X93551461Y-77630500D01*
X93748539Y-77630500D01*
X93748541Y-77630500D01*
X93941835Y-77592051D01*
X94123914Y-77516632D01*
X94287782Y-77407139D01*
X94427139Y-77267782D01*
X94536632Y-77103914D01*
X94612051Y-76921835D01*
X94650500Y-76728541D01*
X94650500Y-76531460D01*
X95189500Y-76531460D01*
X95189500Y-76728539D01*
X95227947Y-76921829D01*
X95227950Y-76921839D01*
X95303367Y-77103913D01*
X95303368Y-77103914D01*
X95412861Y-77267782D01*
X95552218Y-77407139D01*
X95716086Y-77516632D01*
X95898165Y-77592051D01*
X96091459Y-77630500D01*
X96091461Y-77630500D01*
X96288539Y-77630500D01*
X96288541Y-77630500D01*
X96481835Y-77592051D01*
X96663914Y-77516632D01*
X96827782Y-77407139D01*
X96967139Y-77267782D01*
X97076632Y-77103914D01*
X97152051Y-76921835D01*
X97190500Y-76728541D01*
X97190500Y-76531460D01*
X97729500Y-76531460D01*
X97729500Y-76728539D01*
X97767947Y-76921829D01*
X97767950Y-76921839D01*
X97843367Y-77103913D01*
X97843368Y-77103914D01*
X97952861Y-77267782D01*
X98092218Y-77407139D01*
X98256086Y-77516632D01*
X98438165Y-77592051D01*
X98631459Y-77630500D01*
X98631461Y-77630500D01*
X98828539Y-77630500D01*
X98828541Y-77630500D01*
X99021835Y-77592051D01*
X99203914Y-77516632D01*
X99367782Y-77407139D01*
X99507139Y-77267782D01*
X99616632Y-77103914D01*
X99692051Y-76921835D01*
X99730500Y-76728541D01*
X99730500Y-76531460D01*
X100269500Y-76531460D01*
X100269500Y-76728539D01*
X100307947Y-76921829D01*
X100307950Y-76921839D01*
X100383367Y-77103913D01*
X100383368Y-77103914D01*
X100492861Y-77267782D01*
X100632218Y-77407139D01*
X100796086Y-77516632D01*
X100978165Y-77592051D01*
X101171459Y-77630500D01*
X101171461Y-77630500D01*
X101368539Y-77630500D01*
X101368541Y-77630500D01*
X101561835Y-77592051D01*
X101743914Y-77516632D01*
X101907782Y-77407139D01*
X102047139Y-77267782D01*
X102156632Y-77103914D01*
X102232051Y-76921835D01*
X102270500Y-76728541D01*
X102270500Y-76531460D01*
X102809500Y-76531460D01*
X102809500Y-76728539D01*
X102847947Y-76921829D01*
X102847950Y-76921839D01*
X102923367Y-77103913D01*
X102923368Y-77103914D01*
X103032861Y-77267782D01*
X103172218Y-77407139D01*
X103336086Y-77516632D01*
X103518165Y-77592051D01*
X103711459Y-77630500D01*
X103711461Y-77630500D01*
X103908539Y-77630500D01*
X103908541Y-77630500D01*
X104101835Y-77592051D01*
X104283914Y-77516632D01*
X104447782Y-77407139D01*
X104587139Y-77267782D01*
X104696632Y-77103914D01*
X104772051Y-76921835D01*
X104810500Y-76728541D01*
X104810500Y-76531460D01*
X105349500Y-76531460D01*
X105349500Y-76728539D01*
X105387947Y-76921829D01*
X105387950Y-76921839D01*
X105463367Y-77103913D01*
X105463368Y-77103914D01*
X105572861Y-77267782D01*
X105712218Y-77407139D01*
X105876086Y-77516632D01*
X106058165Y-77592051D01*
X106251459Y-77630500D01*
X106251461Y-77630500D01*
X106448539Y-77630500D01*
X106448541Y-77630500D01*
X106641835Y-77592051D01*
X106823914Y-77516632D01*
X106987782Y-77407139D01*
X107127139Y-77267782D01*
X107236632Y-77103914D01*
X107312051Y-76921835D01*
X107350500Y-76728541D01*
X107350500Y-76531460D01*
X107889500Y-76531460D01*
X107889500Y-76728539D01*
X107927947Y-76921829D01*
X107927950Y-76921839D01*
X108003367Y-77103913D01*
X108003368Y-77103914D01*
X108112861Y-77267782D01*
X108252218Y-77407139D01*
X108416086Y-77516632D01*
X108598165Y-77592051D01*
X108791459Y-77630500D01*
X108791461Y-77630500D01*
X108988539Y-77630500D01*
X108988541Y-77630500D01*
X109181835Y-77592051D01*
X109363914Y-77516632D01*
X109527782Y-77407139D01*
X109667139Y-77267782D01*
X109776632Y-77103914D01*
X109852051Y-76921835D01*
X109890500Y-76728541D01*
X109890500Y-76531460D01*
X110429500Y-76531460D01*
X110429500Y-76728539D01*
X110467947Y-76921829D01*
X110467950Y-76921839D01*
X110543367Y-77103913D01*
X110543368Y-77103914D01*
X110652861Y-77267782D01*
X110792218Y-77407139D01*
X110956086Y-77516632D01*
X111138165Y-77592051D01*
X111331459Y-77630500D01*
X111331461Y-77630500D01*
X111528539Y-77630500D01*
X111528541Y-77630500D01*
X111721835Y-77592051D01*
X111903914Y-77516632D01*
X112067782Y-77407139D01*
X112207139Y-77267782D01*
X112316632Y-77103914D01*
X112392051Y-76921835D01*
X112430500Y-76728541D01*
X112430500Y-76531460D01*
X112969500Y-76531460D01*
X112969500Y-76728539D01*
X113007947Y-76921829D01*
X113007950Y-76921839D01*
X113083367Y-77103913D01*
X113083368Y-77103914D01*
X113192861Y-77267782D01*
X113332218Y-77407139D01*
X113496086Y-77516632D01*
X113678165Y-77592051D01*
X113871459Y-77630500D01*
X113871461Y-77630500D01*
X114068539Y-77630500D01*
X114068541Y-77630500D01*
X114261835Y-77592051D01*
X114443914Y-77516632D01*
X114607782Y-77407139D01*
X114747139Y-77267782D01*
X114856632Y-77103914D01*
X114932051Y-76921835D01*
X114970500Y-76728541D01*
X114970500Y-76531460D01*
X115509500Y-76531460D01*
X115509500Y-76728539D01*
X115547947Y-76921829D01*
X115547950Y-76921839D01*
X115623367Y-77103913D01*
X115623368Y-77103914D01*
X115732861Y-77267782D01*
X115872218Y-77407139D01*
X116036086Y-77516632D01*
X116218165Y-77592051D01*
X116411459Y-77630500D01*
X116411461Y-77630500D01*
X116608539Y-77630500D01*
X116608541Y-77630500D01*
X116801835Y-77592051D01*
X116983914Y-77516632D01*
X117147782Y-77407139D01*
X117287139Y-77267782D01*
X117396632Y-77103914D01*
X117472051Y-76921835D01*
X117510500Y-76728541D01*
X117510500Y-76531460D01*
X118049500Y-76531460D01*
X118049500Y-76728539D01*
X118087947Y-76921829D01*
X118087950Y-76921839D01*
X118163367Y-77103913D01*
X118163368Y-77103914D01*
X118272861Y-77267782D01*
X118412218Y-77407139D01*
X118576086Y-77516632D01*
X118758165Y-77592051D01*
X118951459Y-77630500D01*
X118951461Y-77630500D01*
X119148539Y-77630500D01*
X119148541Y-77630500D01*
X119341835Y-77592051D01*
X119523914Y-77516632D01*
X119687782Y-77407139D01*
X119827139Y-77267782D01*
X119936632Y-77103914D01*
X120012051Y-76921835D01*
X120050500Y-76728541D01*
X120050500Y-76531460D01*
X120589500Y-76531460D01*
X120589500Y-76728539D01*
X120627947Y-76921829D01*
X120627950Y-76921839D01*
X120703367Y-77103913D01*
X120703368Y-77103914D01*
X120812861Y-77267782D01*
X120952218Y-77407139D01*
X121116086Y-77516632D01*
X121298165Y-77592051D01*
X121491459Y-77630500D01*
X121491461Y-77630500D01*
X121688539Y-77630500D01*
X121688541Y-77630500D01*
X121881835Y-77592051D01*
X122063914Y-77516632D01*
X122227782Y-77407139D01*
X122367139Y-77267782D01*
X122476632Y-77103914D01*
X122552051Y-76921835D01*
X122590500Y-76728541D01*
X122590500Y-76531459D01*
X122552051Y-76338165D01*
X122476632Y-76156086D01*
X122367139Y-75992218D01*
X122227782Y-75852861D01*
X122063914Y-75743368D01*
X122063915Y-75743368D01*
X122063913Y-75743367D01*
X121881839Y-75667950D01*
X121881829Y-75667947D01*
X121752388Y-75642200D01*
X121688541Y-75629500D01*
X121491459Y-75629500D01*
X121436662Y-75640399D01*
X121298170Y-75667947D01*
X121298160Y-75667950D01*
X121116086Y-75743367D01*
X120952218Y-75852860D01*
X120952217Y-75852862D01*
X120812862Y-75992217D01*
X120812860Y-75992218D01*
X120703367Y-76156086D01*
X120627950Y-76338160D01*
X120627947Y-76338170D01*
X120589500Y-76531460D01*
X120050500Y-76531460D01*
X120050500Y-76531459D01*
X120012051Y-76338165D01*
X119936632Y-76156086D01*
X119827139Y-75992218D01*
X119687782Y-75852861D01*
X119523914Y-75743368D01*
X119523915Y-75743368D01*
X119523913Y-75743367D01*
X119341839Y-75667950D01*
X119341829Y-75667947D01*
X119212388Y-75642200D01*
X119148541Y-75629500D01*
X118951459Y-75629500D01*
X118896662Y-75640399D01*
X118758170Y-75667947D01*
X118758160Y-75667950D01*
X118576086Y-75743367D01*
X118412218Y-75852860D01*
X118412217Y-75852862D01*
X118272862Y-75992217D01*
X118272860Y-75992218D01*
X118163367Y-76156086D01*
X118087950Y-76338160D01*
X118087947Y-76338170D01*
X118049500Y-76531460D01*
X117510500Y-76531460D01*
X117510500Y-76531459D01*
X117472051Y-76338165D01*
X117396632Y-76156086D01*
X117287139Y-75992218D01*
X117147782Y-75852861D01*
X116983914Y-75743368D01*
X116983915Y-75743368D01*
X116983913Y-75743367D01*
X116801839Y-75667950D01*
X116801829Y-75667947D01*
X116672388Y-75642200D01*
X116608541Y-75629500D01*
X116411459Y-75629500D01*
X116356662Y-75640399D01*
X116218170Y-75667947D01*
X116218160Y-75667950D01*
X116036086Y-75743367D01*
X115872218Y-75852860D01*
X115872217Y-75852862D01*
X115732862Y-75992217D01*
X115732860Y-75992218D01*
X115623367Y-76156086D01*
X115547950Y-76338160D01*
X115547947Y-76338170D01*
X115509500Y-76531460D01*
X114970500Y-76531460D01*
X114970500Y-76531459D01*
X114932051Y-76338165D01*
X114856632Y-76156086D01*
X114747139Y-75992218D01*
X114607782Y-75852861D01*
X114443914Y-75743368D01*
X114443915Y-75743368D01*
X114443913Y-75743367D01*
X114261839Y-75667950D01*
X114261829Y-75667947D01*
X114132388Y-75642200D01*
X114068541Y-75629500D01*
X113871459Y-75629500D01*
X113816662Y-75640399D01*
X113678170Y-75667947D01*
X113678160Y-75667950D01*
X113496086Y-75743367D01*
X113332218Y-75852860D01*
X113332217Y-75852862D01*
X113192862Y-75992217D01*
X113192860Y-75992218D01*
X113083367Y-76156086D01*
X113007950Y-76338160D01*
X113007947Y-76338170D01*
X112969500Y-76531460D01*
X112430500Y-76531460D01*
X112430500Y-76531459D01*
X112392051Y-76338165D01*
X112316632Y-76156086D01*
X112207139Y-75992218D01*
X112067782Y-75852861D01*
X111903914Y-75743368D01*
X111903915Y-75743368D01*
X111903913Y-75743367D01*
X111721839Y-75667950D01*
X111721829Y-75667947D01*
X111592388Y-75642200D01*
X111528541Y-75629500D01*
X111331459Y-75629500D01*
X111276662Y-75640399D01*
X111138170Y-75667947D01*
X111138160Y-75667950D01*
X110956086Y-75743367D01*
X110792218Y-75852860D01*
X110792217Y-75852862D01*
X110652862Y-75992217D01*
X110652860Y-75992218D01*
X110543367Y-76156086D01*
X110467950Y-76338160D01*
X110467947Y-76338170D01*
X110429500Y-76531460D01*
X109890500Y-76531460D01*
X109890500Y-76531459D01*
X109852051Y-76338165D01*
X109776632Y-76156086D01*
X109667139Y-75992218D01*
X109527782Y-75852861D01*
X109363914Y-75743368D01*
X109363915Y-75743368D01*
X109363913Y-75743367D01*
X109181839Y-75667950D01*
X109181829Y-75667947D01*
X109052388Y-75642200D01*
X108988541Y-75629500D01*
X108791459Y-75629500D01*
X108736662Y-75640399D01*
X108598170Y-75667947D01*
X108598160Y-75667950D01*
X108416086Y-75743367D01*
X108252218Y-75852860D01*
X108252217Y-75852862D01*
X108112862Y-75992217D01*
X108112860Y-75992218D01*
X108003367Y-76156086D01*
X107927950Y-76338160D01*
X107927947Y-76338170D01*
X107889500Y-76531460D01*
X107350500Y-76531460D01*
X107350500Y-76531459D01*
X107312051Y-76338165D01*
X107236632Y-76156086D01*
X107127139Y-75992218D01*
X106987782Y-75852861D01*
X106823914Y-75743368D01*
X106823915Y-75743368D01*
X106823913Y-75743367D01*
X106641839Y-75667950D01*
X106641829Y-75667947D01*
X106512388Y-75642200D01*
X106448541Y-75629500D01*
X106251459Y-75629500D01*
X106196662Y-75640399D01*
X106058170Y-75667947D01*
X106058160Y-75667950D01*
X105876086Y-75743367D01*
X105712218Y-75852860D01*
X105712217Y-75852862D01*
X105572862Y-75992217D01*
X105572860Y-75992218D01*
X105463367Y-76156086D01*
X105387950Y-76338160D01*
X105387947Y-76338170D01*
X105349500Y-76531460D01*
X104810500Y-76531460D01*
X104810500Y-76531459D01*
X104772051Y-76338165D01*
X104696632Y-76156086D01*
X104587139Y-75992218D01*
X104447782Y-75852861D01*
X104283914Y-75743368D01*
X104283915Y-75743368D01*
X104283913Y-75743367D01*
X104101839Y-75667950D01*
X104101829Y-75667947D01*
X103972388Y-75642200D01*
X103908541Y-75629500D01*
X103711459Y-75629500D01*
X103656662Y-75640399D01*
X103518170Y-75667947D01*
X103518160Y-75667950D01*
X103336086Y-75743367D01*
X103172218Y-75852860D01*
X103172217Y-75852862D01*
X103032862Y-75992217D01*
X103032860Y-75992218D01*
X102923367Y-76156086D01*
X102847950Y-76338160D01*
X102847947Y-76338170D01*
X102809500Y-76531460D01*
X102270500Y-76531460D01*
X102270500Y-76531459D01*
X102232051Y-76338165D01*
X102156632Y-76156086D01*
X102047139Y-75992218D01*
X101907782Y-75852861D01*
X101743914Y-75743368D01*
X101743915Y-75743368D01*
X101743913Y-75743367D01*
X101561839Y-75667950D01*
X101561829Y-75667947D01*
X101432388Y-75642200D01*
X101368541Y-75629500D01*
X101171459Y-75629500D01*
X101116662Y-75640399D01*
X100978170Y-75667947D01*
X100978160Y-75667950D01*
X100796086Y-75743367D01*
X100632218Y-75852860D01*
X100632217Y-75852862D01*
X100492862Y-75992217D01*
X100492860Y-75992218D01*
X100383367Y-76156086D01*
X100307950Y-76338160D01*
X100307947Y-76338170D01*
X100269500Y-76531460D01*
X99730500Y-76531460D01*
X99730500Y-76531459D01*
X99692051Y-76338165D01*
X99616632Y-76156086D01*
X99507139Y-75992218D01*
X99367782Y-75852861D01*
X99203914Y-75743368D01*
X99203915Y-75743368D01*
X99203913Y-75743367D01*
X99021839Y-75667950D01*
X99021829Y-75667947D01*
X98892388Y-75642200D01*
X98828541Y-75629500D01*
X98631459Y-75629500D01*
X98576662Y-75640399D01*
X98438170Y-75667947D01*
X98438160Y-75667950D01*
X98256086Y-75743367D01*
X98092218Y-75852860D01*
X98092217Y-75852862D01*
X97952862Y-75992217D01*
X97952860Y-75992218D01*
X97843367Y-76156086D01*
X97767950Y-76338160D01*
X97767947Y-76338170D01*
X97729500Y-76531460D01*
X97190500Y-76531460D01*
X97190500Y-76531459D01*
X97152051Y-76338165D01*
X97076632Y-76156086D01*
X96967139Y-75992218D01*
X96827782Y-75852861D01*
X96663914Y-75743368D01*
X96663915Y-75743368D01*
X96663913Y-75743367D01*
X96481839Y-75667950D01*
X96481829Y-75667947D01*
X96352388Y-75642200D01*
X96288541Y-75629500D01*
X96091459Y-75629500D01*
X96036662Y-75640399D01*
X95898170Y-75667947D01*
X95898160Y-75667950D01*
X95716086Y-75743367D01*
X95552218Y-75852860D01*
X95552217Y-75852862D01*
X95412862Y-75992217D01*
X95412860Y-75992218D01*
X95303367Y-76156086D01*
X95227950Y-76338160D01*
X95227947Y-76338170D01*
X95189500Y-76531460D01*
X94650500Y-76531460D01*
X94650500Y-76531459D01*
X94612051Y-76338165D01*
X94536632Y-76156086D01*
X94427139Y-75992218D01*
X94287782Y-75852861D01*
X94123914Y-75743368D01*
X94123915Y-75743368D01*
X94123913Y-75743367D01*
X93941839Y-75667950D01*
X93941829Y-75667947D01*
X93812388Y-75642200D01*
X93748541Y-75629500D01*
X93551459Y-75629500D01*
X93496662Y-75640399D01*
X93358170Y-75667947D01*
X93358160Y-75667950D01*
X93176086Y-75743367D01*
X93012218Y-75852860D01*
X93012217Y-75852862D01*
X92872862Y-75992217D01*
X92872860Y-75992218D01*
X92763367Y-76156086D01*
X92687950Y-76338160D01*
X92687947Y-76338170D01*
X92649500Y-76531460D01*
X92110500Y-76531460D01*
X92110500Y-76531459D01*
X92072051Y-76338165D01*
X91996632Y-76156086D01*
X91887139Y-75992218D01*
X91747782Y-75852861D01*
X91583914Y-75743368D01*
X91583915Y-75743368D01*
X91583913Y-75743367D01*
X91401839Y-75667950D01*
X91401829Y-75667947D01*
X91272388Y-75642200D01*
X91208541Y-75629500D01*
X91011459Y-75629500D01*
X90956662Y-75640399D01*
X90818170Y-75667947D01*
X90818160Y-75667950D01*
X90636086Y-75743367D01*
X90472218Y-75852860D01*
X90472217Y-75852862D01*
X90332862Y-75992217D01*
X90332860Y-75992218D01*
X90223367Y-76156086D01*
X90147950Y-76338160D01*
X90147947Y-76338170D01*
X90109500Y-76531460D01*
X89570500Y-76531460D01*
X89570500Y-76531459D01*
X89532051Y-76338165D01*
X89456632Y-76156086D01*
X89347139Y-75992218D01*
X89207782Y-75852861D01*
X89043914Y-75743368D01*
X89043915Y-75743368D01*
X89043913Y-75743367D01*
X88861839Y-75667950D01*
X88861829Y-75667947D01*
X88732388Y-75642200D01*
X88668541Y-75629500D01*
X88471459Y-75629500D01*
X88416662Y-75640399D01*
X88278170Y-75667947D01*
X88278160Y-75667950D01*
X88096086Y-75743367D01*
X87932218Y-75852860D01*
X87932217Y-75852862D01*
X87792862Y-75992217D01*
X87792860Y-75992218D01*
X87683367Y-76156086D01*
X87607950Y-76338160D01*
X87607947Y-76338170D01*
X87569500Y-76531460D01*
X87030500Y-76531460D01*
X87030500Y-76531459D01*
X86992051Y-76338165D01*
X86916632Y-76156086D01*
X86807139Y-75992218D01*
X86667782Y-75852861D01*
X86503914Y-75743368D01*
X86503915Y-75743368D01*
X86503913Y-75743367D01*
X86321839Y-75667950D01*
X86321829Y-75667947D01*
X86192388Y-75642200D01*
X86128541Y-75629500D01*
X85931459Y-75629500D01*
X85876662Y-75640399D01*
X85738170Y-75667947D01*
X85738160Y-75667950D01*
X85556086Y-75743367D01*
X85392218Y-75852860D01*
X85392217Y-75852862D01*
X85252862Y-75992217D01*
X85252860Y-75992218D01*
X85143367Y-76156086D01*
X85067950Y-76338160D01*
X85067947Y-76338170D01*
X85029500Y-76531460D01*
X84490500Y-76531460D01*
X84490500Y-76531459D01*
X84452051Y-76338165D01*
X84376632Y-76156086D01*
X84267139Y-75992218D01*
X84127782Y-75852861D01*
X83963914Y-75743368D01*
X83963915Y-75743368D01*
X83963913Y-75743367D01*
X83781839Y-75667950D01*
X83781829Y-75667947D01*
X83652388Y-75642200D01*
X83588541Y-75629500D01*
X83391459Y-75629500D01*
X83336662Y-75640399D01*
X83198170Y-75667947D01*
X83198160Y-75667950D01*
X83016086Y-75743367D01*
X82852218Y-75852860D01*
X82852217Y-75852862D01*
X82712862Y-75992217D01*
X82712860Y-75992218D01*
X82603367Y-76156086D01*
X82527950Y-76338160D01*
X82527947Y-76338170D01*
X82489500Y-76531460D01*
X81950500Y-76531460D01*
X81950500Y-76531459D01*
X81912051Y-76338165D01*
X81836632Y-76156086D01*
X81727139Y-75992218D01*
X81587782Y-75852861D01*
X81423914Y-75743368D01*
X81423915Y-75743368D01*
X81423913Y-75743367D01*
X81241839Y-75667950D01*
X81241829Y-75667947D01*
X81112388Y-75642200D01*
X81048541Y-75629500D01*
X80851459Y-75629500D01*
X80796662Y-75640399D01*
X80658170Y-75667947D01*
X80658160Y-75667950D01*
X80476086Y-75743367D01*
X80312218Y-75852860D01*
X80312217Y-75852862D01*
X80172862Y-75992217D01*
X80172860Y-75992218D01*
X80063367Y-76156086D01*
X79987950Y-76338160D01*
X79987947Y-76338170D01*
X79949500Y-76531460D01*
X79410500Y-76531460D01*
X79410500Y-76531459D01*
X79372051Y-76338165D01*
X79296632Y-76156086D01*
X79187139Y-75992218D01*
X79047782Y-75852861D01*
X78883914Y-75743368D01*
X78883915Y-75743368D01*
X78883913Y-75743367D01*
X78701839Y-75667950D01*
X78701829Y-75667947D01*
X78572388Y-75642200D01*
X78508541Y-75629500D01*
X78311459Y-75629500D01*
X78256662Y-75640399D01*
X78118170Y-75667947D01*
X78118160Y-75667950D01*
X77936086Y-75743367D01*
X77772218Y-75852860D01*
X77772217Y-75852862D01*
X77632862Y-75992217D01*
X77632860Y-75992218D01*
X77523367Y-76156086D01*
X77447950Y-76338160D01*
X77447947Y-76338170D01*
X77409500Y-76531460D01*
X76870500Y-76531460D01*
X76870500Y-76531459D01*
X76832051Y-76338165D01*
X76756632Y-76156086D01*
X76647139Y-75992218D01*
X76507782Y-75852861D01*
X76343914Y-75743368D01*
X76343915Y-75743368D01*
X76343913Y-75743367D01*
X76161839Y-75667950D01*
X76161829Y-75667947D01*
X76032388Y-75642200D01*
X75968541Y-75629500D01*
X75771459Y-75629500D01*
X75716662Y-75640399D01*
X75578170Y-75667947D01*
X75578160Y-75667950D01*
X75396086Y-75743367D01*
X75232218Y-75852860D01*
X75232217Y-75852862D01*
X75092862Y-75992217D01*
X75092860Y-75992218D01*
X74983367Y-76156086D01*
X74907950Y-76338160D01*
X74907947Y-76338170D01*
X74869500Y-76531460D01*
X68200000Y-76531460D01*
X68200000Y-73661310D01*
X113829500Y-73661310D01*
X113829500Y-73838689D01*
X113864104Y-74012660D01*
X113864107Y-74012670D01*
X113931985Y-74176544D01*
X113931986Y-74176546D01*
X113931987Y-74176547D01*
X114030536Y-74324035D01*
X114155965Y-74449464D01*
X114303453Y-74548013D01*
X114303454Y-74548013D01*
X114303455Y-74548014D01*
X114373367Y-74576972D01*
X114467334Y-74615894D01*
X114641309Y-74650500D01*
X114641311Y-74650500D01*
X114818689Y-74650500D01*
X114818691Y-74650500D01*
X114992666Y-74615894D01*
X115156547Y-74548013D01*
X115304035Y-74449464D01*
X115429464Y-74324035D01*
X115528013Y-74176547D01*
X115595894Y-74012666D01*
X115630500Y-73838691D01*
X115630500Y-73661310D01*
X116369500Y-73661310D01*
X116369500Y-73838689D01*
X116404104Y-74012660D01*
X116404107Y-74012670D01*
X116471985Y-74176544D01*
X116471986Y-74176546D01*
X116471987Y-74176547D01*
X116570536Y-74324035D01*
X116695965Y-74449464D01*
X116843453Y-74548013D01*
X116843454Y-74548013D01*
X116843455Y-74548014D01*
X116913367Y-74576972D01*
X117007334Y-74615894D01*
X117181309Y-74650500D01*
X117181311Y-74650500D01*
X117358689Y-74650500D01*
X117358691Y-74650500D01*
X117532666Y-74615894D01*
X117613033Y-74582605D01*
X117669667Y-74582605D01*
X117693675Y-74598646D01*
X118038640Y-74943611D01*
X118094589Y-74999560D01*
X118163111Y-75039121D01*
X118163112Y-75039121D01*
X118163114Y-75039122D01*
X118201324Y-75049360D01*
X118239535Y-75059599D01*
X118239536Y-75059600D01*
X118239538Y-75059600D01*
X122300464Y-75059600D01*
X122300464Y-75059599D01*
X122376889Y-75039121D01*
X122445411Y-74999560D01*
X122501360Y-74943611D01*
X122846324Y-74598645D01*
X122898649Y-74576972D01*
X122926964Y-74582604D01*
X123007334Y-74615894D01*
X123181309Y-74650500D01*
X123181311Y-74650500D01*
X123358689Y-74650500D01*
X123358691Y-74650500D01*
X123532666Y-74615894D01*
X123696547Y-74548013D01*
X123844035Y-74449464D01*
X123969464Y-74324035D01*
X124068013Y-74176547D01*
X124135894Y-74012666D01*
X124170500Y-73838691D01*
X124170500Y-73661309D01*
X124135894Y-73487334D01*
X124068013Y-73323453D01*
X123969464Y-73175965D01*
X123844035Y-73050536D01*
X123696547Y-72951987D01*
X123696546Y-72951986D01*
X123696544Y-72951985D01*
X123532670Y-72884107D01*
X123532660Y-72884104D01*
X123416156Y-72860930D01*
X123358691Y-72849500D01*
X123181309Y-72849500D01*
X123131989Y-72859310D01*
X123007339Y-72884104D01*
X123007329Y-72884107D01*
X122843455Y-72951985D01*
X122695968Y-73050533D01*
X122570533Y-73175968D01*
X122471985Y-73323455D01*
X122404107Y-73487329D01*
X122404104Y-73487339D01*
X122369500Y-73661310D01*
X122369500Y-73838689D01*
X122404104Y-74012660D01*
X122404105Y-74012662D01*
X122404106Y-74012666D01*
X122404108Y-74012670D01*
X122437394Y-74093032D01*
X122437393Y-74149669D01*
X122421352Y-74173675D01*
X122158103Y-74436926D01*
X122105777Y-74458600D01*
X121473550Y-74458600D01*
X121421224Y-74436926D01*
X121399550Y-74384600D01*
X121421223Y-74332275D01*
X121429464Y-74324035D01*
X121528013Y-74176547D01*
X121595894Y-74012666D01*
X121630500Y-73838691D01*
X121630500Y-73661309D01*
X121595894Y-73487334D01*
X121528013Y-73323453D01*
X121429464Y-73175965D01*
X121304035Y-73050536D01*
X121156547Y-72951987D01*
X121156546Y-72951986D01*
X121156544Y-72951985D01*
X120992670Y-72884107D01*
X120992660Y-72884104D01*
X120876156Y-72860930D01*
X120818691Y-72849500D01*
X120641309Y-72849500D01*
X120591989Y-72859310D01*
X120467339Y-72884104D01*
X120467329Y-72884107D01*
X120303455Y-72951985D01*
X120155968Y-73050533D01*
X120030533Y-73175968D01*
X119931985Y-73323455D01*
X119864107Y-73487329D01*
X119864104Y-73487339D01*
X119829500Y-73661310D01*
X119829500Y-73838689D01*
X119864104Y-74012660D01*
X119864107Y-74012670D01*
X119931985Y-74176544D01*
X119931986Y-74176546D01*
X119931987Y-74176547D01*
X120030536Y-74324035D01*
X120038776Y-74332275D01*
X120060450Y-74384600D01*
X120038776Y-74436926D01*
X119986450Y-74458600D01*
X118434223Y-74458600D01*
X118381897Y-74436926D01*
X118118646Y-74173675D01*
X118096972Y-74121349D01*
X118102603Y-74093036D01*
X118135894Y-74012666D01*
X118170500Y-73838691D01*
X118170500Y-73661309D01*
X118135894Y-73487334D01*
X118068013Y-73323453D01*
X117969464Y-73175965D01*
X117844035Y-73050536D01*
X117696547Y-72951987D01*
X117696546Y-72951986D01*
X117696544Y-72951985D01*
X117532670Y-72884107D01*
X117532660Y-72884104D01*
X117416156Y-72860930D01*
X117358691Y-72849500D01*
X117181309Y-72849500D01*
X117131989Y-72859310D01*
X117007339Y-72884104D01*
X117007329Y-72884107D01*
X116843455Y-72951985D01*
X116695968Y-73050533D01*
X116570533Y-73175968D01*
X116471985Y-73323455D01*
X116404107Y-73487329D01*
X116404104Y-73487339D01*
X116369500Y-73661310D01*
X115630500Y-73661310D01*
X115630500Y-73661309D01*
X115595894Y-73487334D01*
X115528013Y-73323453D01*
X115429464Y-73175965D01*
X115304035Y-73050536D01*
X115156547Y-72951987D01*
X115156546Y-72951986D01*
X115156544Y-72951985D01*
X114992670Y-72884107D01*
X114992660Y-72884104D01*
X114876156Y-72860930D01*
X114818691Y-72849500D01*
X114641309Y-72849500D01*
X114591989Y-72859310D01*
X114467339Y-72884104D01*
X114467329Y-72884107D01*
X114303455Y-72951985D01*
X114155968Y-73050533D01*
X114030533Y-73175968D01*
X113931985Y-73323455D01*
X113864107Y-73487329D01*
X113864104Y-73487339D01*
X113829500Y-73661310D01*
X68200000Y-73661310D01*
X68200000Y-67181310D01*
X84099500Y-67181310D01*
X84099500Y-67358689D01*
X84134104Y-67532660D01*
X84134107Y-67532670D01*
X84201985Y-67696544D01*
X84201986Y-67696546D01*
X84201987Y-67696547D01*
X84300536Y-67844035D01*
X84425965Y-67969464D01*
X84573453Y-68068013D01*
X84573454Y-68068013D01*
X84573455Y-68068014D01*
X84643367Y-68096972D01*
X84737334Y-68135894D01*
X84911309Y-68170500D01*
X84911311Y-68170500D01*
X85088689Y-68170500D01*
X85088691Y-68170500D01*
X85262666Y-68135894D01*
X85343033Y-68102605D01*
X85399667Y-68102605D01*
X85423675Y-68118646D01*
X86183840Y-68878811D01*
X86239789Y-68934760D01*
X86308311Y-68974321D01*
X86308312Y-68974321D01*
X86308314Y-68974322D01*
X86346524Y-68984560D01*
X86384735Y-68994799D01*
X86384736Y-68994800D01*
X86384738Y-68994800D01*
X97951627Y-68994800D01*
X98003953Y-69016474D01*
X98025627Y-69068800D01*
X98003953Y-69121126D01*
X97952862Y-69172217D01*
X97952860Y-69172218D01*
X97843367Y-69336086D01*
X97767950Y-69518160D01*
X97767947Y-69518170D01*
X97729500Y-69711460D01*
X97729500Y-69908539D01*
X97767947Y-70101829D01*
X97767950Y-70101839D01*
X97843367Y-70283913D01*
X97843368Y-70283914D01*
X97952861Y-70447782D01*
X98092218Y-70587139D01*
X98256086Y-70696632D01*
X98438165Y-70772051D01*
X98631459Y-70810500D01*
X98631461Y-70810500D01*
X98828539Y-70810500D01*
X98828541Y-70810500D01*
X99021835Y-70772051D01*
X99203914Y-70696632D01*
X99367782Y-70587139D01*
X99507139Y-70447782D01*
X99616632Y-70283914D01*
X99669540Y-70156181D01*
X99709588Y-70116133D01*
X99737907Y-70110500D01*
X100262093Y-70110500D01*
X100314419Y-70132174D01*
X100330460Y-70156182D01*
X100383365Y-70283909D01*
X100383367Y-70283912D01*
X100383368Y-70283914D01*
X100492861Y-70447782D01*
X100632218Y-70587139D01*
X100796086Y-70696632D01*
X100978165Y-70772051D01*
X101171459Y-70810500D01*
X101171461Y-70810500D01*
X101368539Y-70810500D01*
X101368541Y-70810500D01*
X101561835Y-70772051D01*
X101743914Y-70696632D01*
X101907782Y-70587139D01*
X102047139Y-70447782D01*
X102156632Y-70283914D01*
X102232051Y-70101835D01*
X102270500Y-69908541D01*
X102270500Y-69711459D01*
X102232051Y-69518165D01*
X102156632Y-69336086D01*
X102047139Y-69172218D01*
X101996047Y-69121126D01*
X101974373Y-69068800D01*
X101996047Y-69016474D01*
X102048373Y-68994800D01*
X102539177Y-68994800D01*
X102591503Y-69016474D01*
X102884816Y-69309787D01*
X102906490Y-69362113D01*
X102900857Y-69390431D01*
X102847950Y-69518160D01*
X102847947Y-69518170D01*
X102809500Y-69711460D01*
X102809500Y-69908539D01*
X102847947Y-70101829D01*
X102847950Y-70101839D01*
X102923367Y-70283913D01*
X102923368Y-70283914D01*
X103032861Y-70447782D01*
X103172218Y-70587139D01*
X103336086Y-70696632D01*
X103518165Y-70772051D01*
X103711459Y-70810500D01*
X103711461Y-70810500D01*
X103908539Y-70810500D01*
X103908541Y-70810500D01*
X104101835Y-70772051D01*
X104283914Y-70696632D01*
X104447782Y-70587139D01*
X104587139Y-70447782D01*
X104696632Y-70283914D01*
X104772051Y-70101835D01*
X104810500Y-69908541D01*
X104810500Y-69711459D01*
X104772051Y-69518165D01*
X104696632Y-69336086D01*
X104587139Y-69172218D01*
X104447782Y-69032861D01*
X104423258Y-69016474D01*
X104283913Y-68923367D01*
X104101839Y-68847950D01*
X104101829Y-68847947D01*
X103972388Y-68822200D01*
X103908541Y-68809500D01*
X103711459Y-68809500D01*
X103656662Y-68820399D01*
X103518170Y-68847947D01*
X103518160Y-68847950D01*
X103390431Y-68900857D01*
X103333794Y-68900857D01*
X103309787Y-68884816D01*
X102878811Y-68453840D01*
X102810290Y-68414279D01*
X102810285Y-68414277D01*
X102733864Y-68393800D01*
X102733862Y-68393800D01*
X86579423Y-68393800D01*
X86527097Y-68372126D01*
X85848646Y-67693675D01*
X85826972Y-67641349D01*
X85832603Y-67613036D01*
X85865894Y-67532666D01*
X85900500Y-67358691D01*
X85900500Y-67181309D01*
X85865894Y-67007334D01*
X85798013Y-66843453D01*
X85699464Y-66695965D01*
X85574035Y-66570536D01*
X85426547Y-66471987D01*
X85426546Y-66471986D01*
X85426544Y-66471985D01*
X85262670Y-66404107D01*
X85262660Y-66404104D01*
X85146156Y-66380930D01*
X85088691Y-66369500D01*
X84911309Y-66369500D01*
X84861989Y-66379310D01*
X84737339Y-66404104D01*
X84737329Y-66404107D01*
X84573455Y-66471985D01*
X84425968Y-66570533D01*
X84300533Y-66695968D01*
X84201985Y-66843455D01*
X84134107Y-67007329D01*
X84134104Y-67007339D01*
X84099500Y-67181310D01*
X68200000Y-67181310D01*
X68200000Y-64260835D01*
X88658000Y-64260835D01*
X88658000Y-66268064D01*
X88678477Y-66344485D01*
X88678479Y-66344490D01*
X88692919Y-66369500D01*
X88718040Y-66413011D01*
X89151352Y-66846323D01*
X89173026Y-66898649D01*
X89167394Y-66926966D01*
X89134105Y-67007337D01*
X89134104Y-67007339D01*
X89099500Y-67181310D01*
X89099500Y-67358689D01*
X89134104Y-67532660D01*
X89134107Y-67532670D01*
X89201985Y-67696544D01*
X89201986Y-67696546D01*
X89201987Y-67696547D01*
X89300536Y-67844035D01*
X89425965Y-67969464D01*
X89573453Y-68068013D01*
X89573454Y-68068013D01*
X89573455Y-68068014D01*
X89643367Y-68096972D01*
X89737334Y-68135894D01*
X89911309Y-68170500D01*
X89911311Y-68170500D01*
X90088689Y-68170500D01*
X90088691Y-68170500D01*
X90262666Y-68135894D01*
X90426547Y-68068013D01*
X90574035Y-67969464D01*
X90699464Y-67844035D01*
X90798013Y-67696547D01*
X90865894Y-67532666D01*
X90900500Y-67358691D01*
X90900500Y-67181309D01*
X90865894Y-67007334D01*
X90798013Y-66843453D01*
X90699464Y-66695965D01*
X90574035Y-66570536D01*
X90426547Y-66471987D01*
X90426546Y-66471986D01*
X90426544Y-66471985D01*
X90262670Y-66404107D01*
X90262660Y-66404104D01*
X90146156Y-66380930D01*
X90088691Y-66369500D01*
X89911309Y-66369500D01*
X89861989Y-66379310D01*
X89737339Y-66404104D01*
X89737337Y-66404105D01*
X89737335Y-66404105D01*
X89737334Y-66404106D01*
X89737332Y-66404107D01*
X89656966Y-66437394D01*
X89600329Y-66437392D01*
X89576323Y-66421352D01*
X89280674Y-66125703D01*
X89259000Y-66073377D01*
X89259000Y-65441150D01*
X89280674Y-65388824D01*
X89333000Y-65367150D01*
X89385324Y-65388823D01*
X89425965Y-65429464D01*
X89573453Y-65528013D01*
X89573454Y-65528013D01*
X89573455Y-65528014D01*
X89656966Y-65562605D01*
X89737334Y-65595894D01*
X89911309Y-65630500D01*
X89911311Y-65630500D01*
X90088689Y-65630500D01*
X90088691Y-65630500D01*
X90262666Y-65595894D01*
X90426547Y-65528013D01*
X90574035Y-65429464D01*
X90699464Y-65304035D01*
X90798013Y-65156547D01*
X90831301Y-65076181D01*
X90871349Y-65036133D01*
X90899668Y-65030500D01*
X104756577Y-65030500D01*
X104808903Y-65052174D01*
X107211240Y-67454511D01*
X107267189Y-67510460D01*
X107335711Y-67550021D01*
X107335712Y-67550021D01*
X107335714Y-67550022D01*
X107373924Y-67560260D01*
X107412135Y-67570499D01*
X107412136Y-67570500D01*
X107412138Y-67570500D01*
X109100332Y-67570500D01*
X109152658Y-67592174D01*
X109168699Y-67616182D01*
X109201985Y-67696544D01*
X109201986Y-67696546D01*
X109201987Y-67696547D01*
X109300536Y-67844035D01*
X109425965Y-67969464D01*
X109573453Y-68068013D01*
X109573454Y-68068013D01*
X109573455Y-68068014D01*
X109643367Y-68096972D01*
X109737334Y-68135894D01*
X109911309Y-68170500D01*
X109911311Y-68170500D01*
X110088689Y-68170500D01*
X110088691Y-68170500D01*
X110262666Y-68135894D01*
X110343033Y-68102605D01*
X110399667Y-68102605D01*
X110423675Y-68118646D01*
X110795740Y-68490711D01*
X110851689Y-68546660D01*
X110920211Y-68586221D01*
X110920212Y-68586221D01*
X110920214Y-68586222D01*
X110958424Y-68596460D01*
X110996635Y-68606699D01*
X110996636Y-68606700D01*
X110996638Y-68606700D01*
X119003364Y-68606700D01*
X119003364Y-68606699D01*
X119079789Y-68586221D01*
X119148311Y-68546660D01*
X119204260Y-68490711D01*
X119576324Y-68118645D01*
X119628649Y-68096972D01*
X119656964Y-68102604D01*
X119737334Y-68135894D01*
X119911309Y-68170500D01*
X119911311Y-68170500D01*
X120088689Y-68170500D01*
X120088691Y-68170500D01*
X120262666Y-68135894D01*
X120426547Y-68068013D01*
X120574035Y-67969464D01*
X120699464Y-67844035D01*
X120798013Y-67696547D01*
X120865894Y-67532666D01*
X120900500Y-67358691D01*
X120900500Y-67181309D01*
X120865894Y-67007334D01*
X120798013Y-66843453D01*
X120699464Y-66695965D01*
X120574035Y-66570536D01*
X120426547Y-66471987D01*
X120426546Y-66471986D01*
X120426544Y-66471985D01*
X120262670Y-66404107D01*
X120262660Y-66404104D01*
X120146156Y-66380930D01*
X120088691Y-66369500D01*
X119911309Y-66369500D01*
X119861989Y-66379310D01*
X119737339Y-66404104D01*
X119737329Y-66404107D01*
X119573455Y-66471985D01*
X119425968Y-66570533D01*
X119300533Y-66695968D01*
X119201985Y-66843455D01*
X119134107Y-67007329D01*
X119134104Y-67007339D01*
X119099500Y-67181310D01*
X119099500Y-67358689D01*
X119134104Y-67532660D01*
X119134105Y-67532662D01*
X119134106Y-67532666D01*
X119167393Y-67613030D01*
X119167394Y-67613032D01*
X119167393Y-67669669D01*
X119151352Y-67693675D01*
X118861003Y-67984026D01*
X118808677Y-68005700D01*
X115716450Y-68005700D01*
X115664124Y-67984026D01*
X115642450Y-67931700D01*
X115664123Y-67879375D01*
X115699464Y-67844035D01*
X115798013Y-67696547D01*
X115865894Y-67532666D01*
X115900500Y-67358691D01*
X115900500Y-67181309D01*
X115865894Y-67007334D01*
X115798013Y-66843453D01*
X115699464Y-66695965D01*
X115574035Y-66570536D01*
X115426547Y-66471987D01*
X115426546Y-66471986D01*
X115426544Y-66471985D01*
X115262670Y-66404107D01*
X115262660Y-66404104D01*
X115146156Y-66380930D01*
X115088691Y-66369500D01*
X114911309Y-66369500D01*
X114861989Y-66379310D01*
X114737339Y-66404104D01*
X114737329Y-66404107D01*
X114573455Y-66471985D01*
X114425968Y-66570533D01*
X114300533Y-66695968D01*
X114201985Y-66843455D01*
X114168699Y-66923818D01*
X114128651Y-66963867D01*
X114100332Y-66969500D01*
X112695123Y-66969500D01*
X112642797Y-66947826D01*
X110848646Y-65153675D01*
X110826972Y-65101349D01*
X110832603Y-65073036D01*
X110865894Y-64992666D01*
X110900500Y-64818691D01*
X110900500Y-64641309D01*
X110865894Y-64467334D01*
X110798013Y-64303453D01*
X110699464Y-64155965D01*
X110574035Y-64030536D01*
X110426547Y-63931987D01*
X110426546Y-63931986D01*
X110426544Y-63931985D01*
X110262670Y-63864107D01*
X110262660Y-63864104D01*
X110146156Y-63840930D01*
X110088691Y-63829500D01*
X109911309Y-63829500D01*
X109861989Y-63839310D01*
X109737339Y-63864104D01*
X109737329Y-63864107D01*
X109573455Y-63931985D01*
X109425968Y-64030533D01*
X109300533Y-64155968D01*
X109201985Y-64303455D01*
X109134107Y-64467329D01*
X109134104Y-64467339D01*
X109099500Y-64641310D01*
X109099500Y-64818689D01*
X109134104Y-64992660D01*
X109134107Y-64992670D01*
X109201985Y-65156544D01*
X109201986Y-65156546D01*
X109201987Y-65156547D01*
X109300536Y-65304035D01*
X109425965Y-65429464D01*
X109573453Y-65528013D01*
X109573454Y-65528013D01*
X109573455Y-65528014D01*
X109656966Y-65562605D01*
X109737334Y-65595894D01*
X109911309Y-65630500D01*
X109911311Y-65630500D01*
X110088689Y-65630500D01*
X110088691Y-65630500D01*
X110262666Y-65595894D01*
X110343033Y-65562605D01*
X110399667Y-65562605D01*
X110423675Y-65578646D01*
X112299540Y-67454511D01*
X112355489Y-67510460D01*
X112424011Y-67550021D01*
X112424012Y-67550021D01*
X112424014Y-67550022D01*
X112462224Y-67560260D01*
X112500435Y-67570499D01*
X112500436Y-67570500D01*
X112500438Y-67570500D01*
X112579562Y-67570500D01*
X114100332Y-67570500D01*
X114152658Y-67592174D01*
X114168699Y-67616182D01*
X114201985Y-67696544D01*
X114201986Y-67696546D01*
X114201987Y-67696547D01*
X114300536Y-67844035D01*
X114335876Y-67879375D01*
X114357550Y-67931700D01*
X114335876Y-67984026D01*
X114283550Y-68005700D01*
X111191323Y-68005700D01*
X111138997Y-67984026D01*
X110848646Y-67693675D01*
X110826972Y-67641349D01*
X110832603Y-67613036D01*
X110865894Y-67532666D01*
X110900500Y-67358691D01*
X110900500Y-67181309D01*
X110865894Y-67007334D01*
X110798013Y-66843453D01*
X110699464Y-66695965D01*
X110574035Y-66570536D01*
X110426547Y-66471987D01*
X110426546Y-66471986D01*
X110426544Y-66471985D01*
X110262670Y-66404107D01*
X110262660Y-66404104D01*
X110146156Y-66380930D01*
X110088691Y-66369500D01*
X109911309Y-66369500D01*
X109861989Y-66379310D01*
X109737339Y-66404104D01*
X109737329Y-66404107D01*
X109573455Y-66471985D01*
X109425968Y-66570533D01*
X109300533Y-66695968D01*
X109201985Y-66843455D01*
X109168699Y-66923818D01*
X109128651Y-66963867D01*
X109100332Y-66969500D01*
X107606823Y-66969500D01*
X107554497Y-66947826D01*
X105233874Y-64627203D01*
X105212200Y-64574877D01*
X105212200Y-62150436D01*
X105212199Y-62150435D01*
X105191722Y-62074014D01*
X105191720Y-62074009D01*
X105152159Y-62005488D01*
X105096211Y-61949540D01*
X105027690Y-61909979D01*
X105027685Y-61909977D01*
X104951264Y-61889500D01*
X104951262Y-61889500D01*
X104884500Y-61889500D01*
X104832174Y-61867826D01*
X104810500Y-61815500D01*
X104810500Y-61462800D01*
X104832174Y-61410474D01*
X104884500Y-61388800D01*
X111203177Y-61388800D01*
X111255503Y-61410474D01*
X114151352Y-64306323D01*
X114173026Y-64358649D01*
X114167394Y-64386966D01*
X114134105Y-64467337D01*
X114134104Y-64467339D01*
X114099500Y-64641310D01*
X114099500Y-64818689D01*
X114134104Y-64992660D01*
X114134107Y-64992670D01*
X114201985Y-65156544D01*
X114201986Y-65156546D01*
X114201987Y-65156547D01*
X114300536Y-65304035D01*
X114425965Y-65429464D01*
X114573453Y-65528013D01*
X114573454Y-65528013D01*
X114573455Y-65528014D01*
X114656966Y-65562605D01*
X114737334Y-65595894D01*
X114911309Y-65630500D01*
X114911311Y-65630500D01*
X115088689Y-65630500D01*
X115088691Y-65630500D01*
X115262666Y-65595894D01*
X115426547Y-65528013D01*
X115574035Y-65429464D01*
X115699464Y-65304035D01*
X115798013Y-65156547D01*
X115865894Y-64992666D01*
X115900500Y-64818691D01*
X115900500Y-64641309D01*
X115865894Y-64467334D01*
X115798013Y-64303453D01*
X115699464Y-64155965D01*
X115574035Y-64030536D01*
X115426547Y-63931987D01*
X115426546Y-63931986D01*
X115426544Y-63931985D01*
X115262670Y-63864107D01*
X115262660Y-63864104D01*
X115146156Y-63840930D01*
X115088691Y-63829500D01*
X114911309Y-63829500D01*
X114861989Y-63839310D01*
X114737339Y-63864104D01*
X114737337Y-63864105D01*
X114737335Y-63864105D01*
X114737334Y-63864106D01*
X114705693Y-63877211D01*
X114656966Y-63897394D01*
X114600329Y-63897392D01*
X114576323Y-63881352D01*
X111542811Y-60847840D01*
X111474290Y-60808279D01*
X111474285Y-60808277D01*
X111397864Y-60787800D01*
X111397862Y-60787800D01*
X102332138Y-60787800D01*
X102332136Y-60787800D01*
X102255714Y-60808277D01*
X102255709Y-60808279D01*
X102187188Y-60847840D01*
X101770211Y-61264816D01*
X101717885Y-61286490D01*
X101689567Y-61280857D01*
X101561839Y-61227950D01*
X101561829Y-61227947D01*
X101432388Y-61202200D01*
X101368541Y-61189500D01*
X101171459Y-61189500D01*
X101116662Y-61200399D01*
X100978170Y-61227947D01*
X100978160Y-61227950D01*
X100796086Y-61303367D01*
X100632218Y-61412860D01*
X100632217Y-61412862D01*
X100492862Y-61552217D01*
X100492860Y-61552218D01*
X100383367Y-61716086D01*
X100307950Y-61898160D01*
X100307947Y-61898170D01*
X100269500Y-62091460D01*
X100269500Y-62288539D01*
X100307947Y-62481829D01*
X100307950Y-62481839D01*
X100360857Y-62609567D01*
X100360857Y-62666204D01*
X100344816Y-62690211D01*
X99676703Y-63358326D01*
X99624377Y-63380000D01*
X89538836Y-63380000D01*
X89462414Y-63400477D01*
X89462409Y-63400479D01*
X89393888Y-63440040D01*
X88718040Y-64115888D01*
X88678479Y-64184409D01*
X88678477Y-64184414D01*
X88658000Y-64260835D01*
X68200000Y-64260835D01*
X68200000Y-60274000D01*
X68221674Y-60221674D01*
X68274000Y-60200000D01*
X131726000Y-60200000D01*
X131778326Y-60221674D01*
G37*
%TD.AperFunction*%
%TA.AperFunction,Conductor*%
G36*
X81268767Y-106400162D02*
G01*
X81274400Y-106428481D01*
X81274400Y-123994464D01*
X81294877Y-124070885D01*
X81294879Y-124070890D01*
X81334440Y-124139411D01*
X82564816Y-125369787D01*
X82586490Y-125422113D01*
X82580857Y-125450431D01*
X82527950Y-125578160D01*
X82527947Y-125578170D01*
X82489500Y-125771460D01*
X82489500Y-125968539D01*
X82527947Y-126161829D01*
X82527950Y-126161839D01*
X82603367Y-126343913D01*
X82671503Y-126445885D01*
X82712861Y-126507782D01*
X82852218Y-126647139D01*
X83016086Y-126756632D01*
X83198165Y-126832051D01*
X83391459Y-126870500D01*
X83391461Y-126870500D01*
X83588539Y-126870500D01*
X83588541Y-126870500D01*
X83781835Y-126832051D01*
X83963914Y-126756632D01*
X84127782Y-126647139D01*
X84267139Y-126507782D01*
X84376632Y-126343914D01*
X84436433Y-126199539D01*
X84476481Y-126159491D01*
X84533118Y-126159491D01*
X84573167Y-126199539D01*
X84578800Y-126227858D01*
X84578800Y-128893164D01*
X84599277Y-128969585D01*
X84599279Y-128969590D01*
X84638840Y-129038111D01*
X88247826Y-132647097D01*
X88269500Y-132699423D01*
X88269500Y-132715500D01*
X88247826Y-132767826D01*
X88195500Y-132789500D01*
X87550246Y-132789500D01*
X87548783Y-132789644D01*
X87541536Y-132790000D01*
X87370000Y-132790000D01*
X87370000Y-132961536D01*
X87369644Y-132968783D01*
X87369500Y-132970246D01*
X87369500Y-139726000D01*
X87347826Y-139778326D01*
X87295500Y-139800000D01*
X84964000Y-139800000D01*
X84911674Y-139778326D01*
X84890000Y-139726000D01*
X84890000Y-130300001D01*
X84889772Y-130297689D01*
X84886157Y-130260982D01*
X84874776Y-130223463D01*
X84856294Y-130188886D01*
X84831421Y-130158579D01*
X84801114Y-130133706D01*
X84766537Y-130115224D01*
X84740400Y-130107295D01*
X84729019Y-130103843D01*
X84709509Y-130101921D01*
X84690000Y-130100000D01*
X84689999Y-130100000D01*
X82290001Y-130100000D01*
X82290000Y-130100000D01*
X82276994Y-130101281D01*
X82250980Y-130103843D01*
X82228218Y-130110748D01*
X82213463Y-130115224D01*
X82213461Y-130115224D01*
X82213461Y-130115225D01*
X82178887Y-130133705D01*
X82178883Y-130133708D01*
X82148579Y-130158579D01*
X82138845Y-130170440D01*
X82123706Y-130188886D01*
X82105224Y-130223463D01*
X82100748Y-130238218D01*
X82093843Y-130260980D01*
X82090000Y-130300001D01*
X82090000Y-132716000D01*
X82068326Y-132768326D01*
X82016000Y-132790000D01*
X81978464Y-132790000D01*
X81971217Y-132789644D01*
X81969754Y-132789500D01*
X81969748Y-132789500D01*
X79930252Y-132789500D01*
X79930246Y-132789500D01*
X79928783Y-132789644D01*
X79921536Y-132790000D01*
X79750000Y-132790000D01*
X79732326Y-132807674D01*
X79680000Y-132829348D01*
X79627674Y-132807674D01*
X79610000Y-132790000D01*
X79438464Y-132790000D01*
X79431217Y-132789644D01*
X79429754Y-132789500D01*
X79429748Y-132789500D01*
X78912423Y-132789500D01*
X78860097Y-132767826D01*
X78838423Y-132715500D01*
X78860097Y-132663174D01*
X78985618Y-132537653D01*
X79160460Y-132362811D01*
X79168953Y-132348100D01*
X79200021Y-132294289D01*
X79220500Y-132217862D01*
X79220500Y-106653838D01*
X79242174Y-106601512D01*
X79294500Y-106579838D01*
X79346826Y-106601512D01*
X79356026Y-106612722D01*
X79412861Y-106697782D01*
X79552218Y-106837139D01*
X79716086Y-106946632D01*
X79898165Y-107022051D01*
X80091459Y-107060500D01*
X80091461Y-107060500D01*
X80288539Y-107060500D01*
X80288541Y-107060500D01*
X80481835Y-107022051D01*
X80663914Y-106946632D01*
X80827782Y-106837139D01*
X80967139Y-106697782D01*
X81076632Y-106533914D01*
X81132033Y-106400162D01*
X81172081Y-106360114D01*
X81228718Y-106360114D01*
X81268767Y-106400162D01*
G37*
%TD.AperFunction*%
%TA.AperFunction,Conductor*%
G36*
X106859977Y-119322056D02*
G01*
X106879111Y-119324564D01*
X106885216Y-119332510D01*
X106894475Y-119336346D01*
X106909414Y-119362204D01*
X106910854Y-119361608D01*
X106912710Y-119366090D01*
X106937934Y-119409779D01*
X106978600Y-119480214D01*
X107071786Y-119573400D01*
X107185914Y-119639292D01*
X107313205Y-119673399D01*
X107313206Y-119673400D01*
X107313208Y-119673400D01*
X107444994Y-119673400D01*
X107444994Y-119673399D01*
X107572286Y-119639292D01*
X107686414Y-119573400D01*
X107764740Y-119495074D01*
X107817066Y-119473400D01*
X111230677Y-119473400D01*
X111283003Y-119495074D01*
X116531103Y-124743174D01*
X116552777Y-124795500D01*
X116531103Y-124847826D01*
X116478777Y-124869500D01*
X116411459Y-124869500D01*
X116356662Y-124880399D01*
X116218170Y-124907947D01*
X116218160Y-124907950D01*
X116036086Y-124983367D01*
X115872218Y-125092860D01*
X115872217Y-125092862D01*
X115732862Y-125232217D01*
X115732860Y-125232218D01*
X115623367Y-125396086D01*
X115547950Y-125578160D01*
X115547947Y-125578170D01*
X115509500Y-125771460D01*
X115509500Y-125968539D01*
X115547947Y-126161829D01*
X115547950Y-126161839D01*
X115623367Y-126343913D01*
X115691503Y-126445885D01*
X115732861Y-126507782D01*
X115872218Y-126647139D01*
X116001617Y-126733601D01*
X116005828Y-126739902D01*
X116012831Y-126742803D01*
X116021091Y-126762745D01*
X116033083Y-126780692D01*
X116031604Y-126788126D01*
X116034505Y-126795129D01*
X116026244Y-126815070D01*
X116022034Y-126836241D01*
X116012831Y-126847455D01*
X115968160Y-126892126D01*
X115915834Y-126913800D01*
X115469423Y-126913800D01*
X115417097Y-126892126D01*
X114895183Y-126370212D01*
X114873509Y-126317886D01*
X114879142Y-126289567D01*
X114904703Y-126227858D01*
X114932051Y-126161835D01*
X114970500Y-125968541D01*
X114970500Y-125771459D01*
X114932051Y-125578165D01*
X114856632Y-125396086D01*
X114747139Y-125232218D01*
X114607782Y-125092861D01*
X114443914Y-124983368D01*
X114443915Y-124983368D01*
X114443913Y-124983367D01*
X114261839Y-124907950D01*
X114261829Y-124907947D01*
X114129567Y-124881639D01*
X114068541Y-124869500D01*
X113871459Y-124869500D01*
X113816662Y-124880399D01*
X113678170Y-124907947D01*
X113678160Y-124907950D01*
X113496086Y-124983367D01*
X113332218Y-125092860D01*
X113332217Y-125092862D01*
X113192862Y-125232217D01*
X113192860Y-125232218D01*
X113083367Y-125396086D01*
X113007950Y-125578160D01*
X113007947Y-125578170D01*
X112969500Y-125771460D01*
X112969500Y-125968539D01*
X113007947Y-126161829D01*
X113007950Y-126161839D01*
X113083367Y-126343913D01*
X113151503Y-126445885D01*
X113192861Y-126507782D01*
X113332218Y-126647139D01*
X113496086Y-126756632D01*
X113678165Y-126832051D01*
X113871459Y-126870500D01*
X113871461Y-126870500D01*
X114068539Y-126870500D01*
X114068541Y-126870500D01*
X114261835Y-126832051D01*
X114389568Y-126779142D01*
X114446204Y-126779142D01*
X114470212Y-126795183D01*
X115073840Y-127398811D01*
X115129789Y-127454760D01*
X115198311Y-127494321D01*
X115198312Y-127494321D01*
X115198314Y-127494322D01*
X115236524Y-127504560D01*
X115274735Y-127514799D01*
X115274736Y-127514800D01*
X115274738Y-127514800D01*
X115353862Y-127514800D01*
X115915834Y-127514800D01*
X115968160Y-127536474D01*
X116046486Y-127614800D01*
X116160614Y-127680692D01*
X116287905Y-127714799D01*
X116287906Y-127714800D01*
X116287908Y-127714800D01*
X116419694Y-127714800D01*
X116419694Y-127714799D01*
X116546986Y-127680692D01*
X116661114Y-127614800D01*
X116754300Y-127521614D01*
X116820192Y-127407486D01*
X116854299Y-127280194D01*
X116854300Y-127280194D01*
X116854300Y-127148406D01*
X116854299Y-127148405D01*
X116820193Y-127021118D01*
X116820192Y-127021114D01*
X116770750Y-126935478D01*
X116763357Y-126879325D01*
X116797836Y-126834392D01*
X116806514Y-126830112D01*
X116983914Y-126756632D01*
X117147782Y-126647139D01*
X117287139Y-126507782D01*
X117396632Y-126343914D01*
X117472051Y-126161835D01*
X117510500Y-125968541D01*
X117510500Y-125901223D01*
X117532174Y-125848897D01*
X117584500Y-125827223D01*
X117636826Y-125848897D01*
X121449426Y-129661497D01*
X121471100Y-129713823D01*
X121471100Y-131446228D01*
X121449426Y-131498554D01*
X121397100Y-131520228D01*
X121360100Y-131510314D01*
X121309690Y-131481210D01*
X121309681Y-131481206D01*
X121182394Y-131447100D01*
X121182392Y-131447100D01*
X121050608Y-131447100D01*
X121050606Y-131447100D01*
X120923318Y-131481206D01*
X120923309Y-131481210D01*
X120809185Y-131547100D01*
X120716000Y-131640285D01*
X120650110Y-131754409D01*
X120650106Y-131754418D01*
X120616000Y-131881705D01*
X120616000Y-131992476D01*
X120594326Y-132044802D01*
X120273003Y-132366126D01*
X120220677Y-132387800D01*
X119010436Y-132387800D01*
X118934014Y-132408277D01*
X118934009Y-132408279D01*
X118867787Y-132446513D01*
X118865489Y-132447840D01*
X118809540Y-132503789D01*
X118788990Y-132539382D01*
X118788983Y-132539391D01*
X118769981Y-132572305D01*
X118769977Y-132572314D01*
X118749500Y-132648735D01*
X118749500Y-132715500D01*
X118727826Y-132767826D01*
X118675500Y-132789500D01*
X118030246Y-132789500D01*
X118028783Y-132789644D01*
X118021536Y-132790000D01*
X117984000Y-132790000D01*
X117931674Y-132768326D01*
X117910000Y-132716000D01*
X117910000Y-132537653D01*
X117931674Y-132485327D01*
X117984000Y-132463653D01*
X118022721Y-132476799D01*
X118023486Y-132475475D01*
X118027685Y-132477899D01*
X118027686Y-132477900D01*
X118141814Y-132543792D01*
X118269105Y-132577899D01*
X118269106Y-132577900D01*
X118269108Y-132577900D01*
X118400894Y-132577900D01*
X118400894Y-132577899D01*
X118528186Y-132543792D01*
X118642314Y-132477900D01*
X118735500Y-132384714D01*
X118801392Y-132270586D01*
X118835499Y-132143294D01*
X118835500Y-132143294D01*
X118835500Y-132011506D01*
X118835499Y-132011505D01*
X118825072Y-131972592D01*
X118801392Y-131884214D01*
X118735500Y-131770086D01*
X118657174Y-131691760D01*
X118635500Y-131639434D01*
X118635500Y-130356236D01*
X118635499Y-130356235D01*
X118615022Y-130279814D01*
X118615020Y-130279809D01*
X118587301Y-130231799D01*
X118575460Y-130211289D01*
X118519511Y-130155340D01*
X117946611Y-129582440D01*
X117892638Y-129551279D01*
X117892637Y-129551278D01*
X117878093Y-129542880D01*
X117878085Y-129542877D01*
X117801664Y-129522400D01*
X117801662Y-129522400D01*
X115538023Y-129522400D01*
X115485697Y-129500726D01*
X112355183Y-126370212D01*
X112333509Y-126317886D01*
X112339142Y-126289567D01*
X112364703Y-126227858D01*
X112392051Y-126161835D01*
X112430500Y-125968541D01*
X112430500Y-125771459D01*
X112392051Y-125578165D01*
X112316632Y-125396086D01*
X112207139Y-125232218D01*
X112067782Y-125092861D01*
X111903914Y-124983368D01*
X111903915Y-124983368D01*
X111903913Y-124983367D01*
X111721839Y-124907950D01*
X111721829Y-124907947D01*
X111589567Y-124881639D01*
X111528541Y-124869500D01*
X111456022Y-124869500D01*
X111403696Y-124847826D01*
X111382022Y-124795500D01*
X111403696Y-124743174D01*
X112267097Y-123879774D01*
X112319423Y-123858100D01*
X112888134Y-123858100D01*
X112940460Y-123879774D01*
X113018786Y-123958100D01*
X113132914Y-124023992D01*
X113260205Y-124058099D01*
X113260206Y-124058100D01*
X113260208Y-124058100D01*
X113391994Y-124058100D01*
X113391994Y-124058099D01*
X113519286Y-124023992D01*
X113633414Y-123958100D01*
X113726600Y-123864914D01*
X113792492Y-123750786D01*
X113826599Y-123623494D01*
X113826600Y-123623494D01*
X113826600Y-123491706D01*
X113826599Y-123491705D01*
X113792493Y-123364418D01*
X113792492Y-123364414D01*
X113726600Y-123250286D01*
X113633414Y-123157100D01*
X113519290Y-123091210D01*
X113519281Y-123091206D01*
X113391994Y-123057100D01*
X113391992Y-123057100D01*
X113260208Y-123057100D01*
X113260206Y-123057100D01*
X113132918Y-123091206D01*
X113132909Y-123091210D01*
X113018785Y-123157100D01*
X112940460Y-123235426D01*
X112888134Y-123257100D01*
X112124736Y-123257100D01*
X112048314Y-123277577D01*
X112048309Y-123277579D01*
X111989234Y-123311687D01*
X111979788Y-123317140D01*
X110069540Y-125227388D01*
X110029979Y-125295909D01*
X110029977Y-125295914D01*
X110009500Y-125372335D01*
X110009500Y-125618379D01*
X109987826Y-125670705D01*
X109935500Y-125692379D01*
X109883174Y-125670705D01*
X109862922Y-125632816D01*
X109852052Y-125578170D01*
X109852051Y-125578169D01*
X109852051Y-125578165D01*
X109776632Y-125396086D01*
X109667139Y-125232218D01*
X109527782Y-125092861D01*
X109363914Y-124983368D01*
X109363915Y-124983368D01*
X109363913Y-124983367D01*
X109181839Y-124907950D01*
X109181829Y-124907947D01*
X109049567Y-124881639D01*
X108988541Y-124869500D01*
X108791459Y-124869500D01*
X108736662Y-124880399D01*
X108598170Y-124907947D01*
X108598160Y-124907950D01*
X108416086Y-124983367D01*
X108252218Y-125092860D01*
X108252217Y-125092862D01*
X108112862Y-125232217D01*
X108112860Y-125232218D01*
X108003367Y-125396086D01*
X107927950Y-125578160D01*
X107927947Y-125578170D01*
X107889500Y-125771460D01*
X107889500Y-125968539D01*
X107927947Y-126161829D01*
X107927950Y-126161839D01*
X108003367Y-126343913D01*
X108071503Y-126445885D01*
X108112861Y-126507782D01*
X108252218Y-126647139D01*
X108416086Y-126756632D01*
X108598165Y-126832051D01*
X108791459Y-126870500D01*
X108791461Y-126870500D01*
X108988539Y-126870500D01*
X108988541Y-126870500D01*
X109181835Y-126832051D01*
X109363914Y-126756632D01*
X109527782Y-126647139D01*
X109667139Y-126507782D01*
X109776632Y-126343914D01*
X109852051Y-126161835D01*
X109862922Y-126107182D01*
X109894388Y-126060091D01*
X109949937Y-126049042D01*
X109997029Y-126080508D01*
X110009500Y-126121620D01*
X110009500Y-126589564D01*
X110029977Y-126665985D01*
X110029978Y-126665987D01*
X110029979Y-126665989D01*
X110057582Y-126713798D01*
X110057582Y-126713800D01*
X110069540Y-126734511D01*
X113647826Y-130312797D01*
X113669500Y-130365123D01*
X113669500Y-132715500D01*
X113647826Y-132767826D01*
X113595500Y-132789500D01*
X112950246Y-132789500D01*
X112948783Y-132789644D01*
X112941536Y-132790000D01*
X112770000Y-132790000D01*
X112752326Y-132807674D01*
X112700000Y-132829348D01*
X112647674Y-132807674D01*
X112630000Y-132790000D01*
X112458464Y-132790000D01*
X112451217Y-132789644D01*
X112449754Y-132789500D01*
X112449748Y-132789500D01*
X111804500Y-132789500D01*
X111752174Y-132767826D01*
X111730500Y-132715500D01*
X111730500Y-132648736D01*
X111730499Y-132648735D01*
X111729912Y-132646546D01*
X111711760Y-132578800D01*
X111710022Y-132572314D01*
X111710020Y-132572309D01*
X111671944Y-132506360D01*
X111670460Y-132503789D01*
X111614511Y-132447840D01*
X111598429Y-132438555D01*
X111545990Y-132408279D01*
X111545985Y-132408277D01*
X111469564Y-132387800D01*
X111469562Y-132387800D01*
X111275123Y-132387800D01*
X111222797Y-132366126D01*
X111132174Y-132275503D01*
X111110500Y-132223177D01*
X111110500Y-132112406D01*
X111110499Y-132112405D01*
X111076393Y-131985118D01*
X111076392Y-131985114D01*
X111010500Y-131870986D01*
X110917314Y-131777800D01*
X110876815Y-131754418D01*
X110803190Y-131711910D01*
X110803181Y-131711906D01*
X110675894Y-131677800D01*
X110675892Y-131677800D01*
X110544108Y-131677800D01*
X110544106Y-131677800D01*
X110416818Y-131711906D01*
X110416809Y-131711910D01*
X110302685Y-131777800D01*
X110209500Y-131870985D01*
X110143610Y-131985109D01*
X110143606Y-131985118D01*
X110109500Y-132112405D01*
X110109500Y-132244194D01*
X110143606Y-132371481D01*
X110143610Y-132371490D01*
X110178754Y-132432361D01*
X110209500Y-132485614D01*
X110302686Y-132578800D01*
X110416814Y-132644692D01*
X110416820Y-132644693D01*
X110421292Y-132646546D01*
X110420695Y-132647986D01*
X110461113Y-132679001D01*
X110468504Y-132735154D01*
X110434025Y-132780087D01*
X110397026Y-132790000D01*
X110230000Y-132790000D01*
X110212326Y-132807674D01*
X110160000Y-132829348D01*
X110107674Y-132807674D01*
X110090000Y-132790000D01*
X109918464Y-132790000D01*
X109911217Y-132789644D01*
X109909754Y-132789500D01*
X109909748Y-132789500D01*
X109264500Y-132789500D01*
X109212174Y-132767826D01*
X109190500Y-132715500D01*
X109190500Y-132648736D01*
X109190499Y-132648735D01*
X109189912Y-132646546D01*
X109171760Y-132578800D01*
X109170022Y-132572314D01*
X109170020Y-132572309D01*
X109131944Y-132506360D01*
X109130460Y-132503789D01*
X109074511Y-132447840D01*
X109058429Y-132438555D01*
X109005990Y-132408279D01*
X109005985Y-132408277D01*
X108929564Y-132387800D01*
X108929562Y-132387800D01*
X108717523Y-132387800D01*
X108665197Y-132366126D01*
X108574574Y-132275503D01*
X108552900Y-132223177D01*
X108552900Y-132112406D01*
X108552899Y-132112405D01*
X108518793Y-131985118D01*
X108518792Y-131985114D01*
X108452900Y-131870986D01*
X108359714Y-131777800D01*
X108319215Y-131754418D01*
X108245590Y-131711910D01*
X108245581Y-131711906D01*
X108118294Y-131677800D01*
X108118292Y-131677800D01*
X107986508Y-131677800D01*
X107986506Y-131677800D01*
X107859218Y-131711906D01*
X107859209Y-131711910D01*
X107745085Y-131777800D01*
X107651900Y-131870985D01*
X107586010Y-131985109D01*
X107586006Y-131985118D01*
X107551900Y-132112405D01*
X107551900Y-132244194D01*
X107586006Y-132371481D01*
X107586010Y-132371490D01*
X107621154Y-132432361D01*
X107651900Y-132485614D01*
X107745086Y-132578800D01*
X107859214Y-132644692D01*
X107859220Y-132644693D01*
X107863692Y-132646546D01*
X107863095Y-132647986D01*
X107903513Y-132679001D01*
X107910904Y-132735154D01*
X107876425Y-132780087D01*
X107839426Y-132790000D01*
X107690000Y-132790000D01*
X107672326Y-132807674D01*
X107620000Y-132829348D01*
X107567674Y-132807674D01*
X107550000Y-132790000D01*
X107378464Y-132790000D01*
X107371217Y-132789644D01*
X107369754Y-132789500D01*
X107369748Y-132789500D01*
X106724500Y-132789500D01*
X106672174Y-132767826D01*
X106650500Y-132715500D01*
X106650500Y-132648736D01*
X106650499Y-132648735D01*
X106649912Y-132646546D01*
X106631760Y-132578800D01*
X106630022Y-132572314D01*
X106630020Y-132572309D01*
X106591944Y-132506360D01*
X106590460Y-132503789D01*
X106534511Y-132447840D01*
X106518429Y-132438555D01*
X106465990Y-132408279D01*
X106465985Y-132408277D01*
X106389564Y-132387800D01*
X106389562Y-132387800D01*
X105988423Y-132387800D01*
X105936097Y-132366126D01*
X105845474Y-132275503D01*
X105823800Y-132223177D01*
X105823800Y-132112406D01*
X105823799Y-132112405D01*
X105789693Y-131985118D01*
X105789692Y-131985114D01*
X105723800Y-131870986D01*
X105630614Y-131777800D01*
X105590115Y-131754418D01*
X105516490Y-131711910D01*
X105516481Y-131711906D01*
X105389194Y-131677800D01*
X105389192Y-131677800D01*
X105257408Y-131677800D01*
X105257406Y-131677800D01*
X105130118Y-131711906D01*
X105130109Y-131711910D01*
X105015985Y-131777800D01*
X104922800Y-131870985D01*
X104856910Y-131985109D01*
X104856906Y-131985118D01*
X104822800Y-132112405D01*
X104822800Y-132244194D01*
X104856906Y-132371481D01*
X104856910Y-132371490D01*
X104892054Y-132432361D01*
X104922800Y-132485614D01*
X105015986Y-132578800D01*
X105130114Y-132644692D01*
X105136591Y-132646427D01*
X105151917Y-132658186D01*
X105169766Y-132665579D01*
X105173592Y-132674817D01*
X105181526Y-132680904D01*
X105184048Y-132700057D01*
X105191441Y-132717905D01*
X105187614Y-132727143D01*
X105188920Y-132737056D01*
X105169768Y-132770231D01*
X105132327Y-132807673D01*
X105080001Y-132829348D01*
X105027675Y-132807675D01*
X105010000Y-132790000D01*
X104838464Y-132790000D01*
X104831217Y-132789644D01*
X104829754Y-132789500D01*
X104829748Y-132789500D01*
X104184500Y-132789500D01*
X104132174Y-132767826D01*
X104110500Y-132715500D01*
X104110500Y-132648736D01*
X104110499Y-132648735D01*
X104109912Y-132646546D01*
X104091760Y-132578800D01*
X104090022Y-132572314D01*
X104090020Y-132572309D01*
X104051944Y-132506360D01*
X104050460Y-132503789D01*
X103994511Y-132447840D01*
X103978429Y-132438555D01*
X103925990Y-132408279D01*
X103925985Y-132408277D01*
X103849564Y-132387800D01*
X103849562Y-132387800D01*
X103389223Y-132387800D01*
X103336897Y-132366126D01*
X102861074Y-131890303D01*
X102839400Y-131837977D01*
X102839400Y-131727206D01*
X102839399Y-131727205D01*
X102816109Y-131640286D01*
X102805292Y-131599914D01*
X102739400Y-131485786D01*
X102646214Y-131392600D01*
X102532090Y-131326710D01*
X102532081Y-131326706D01*
X102404794Y-131292600D01*
X102404792Y-131292600D01*
X102273008Y-131292600D01*
X102273006Y-131292600D01*
X102145718Y-131326706D01*
X102145709Y-131326710D01*
X102031585Y-131392600D01*
X101938400Y-131485785D01*
X101872510Y-131599909D01*
X101872506Y-131599918D01*
X101842002Y-131713762D01*
X101807524Y-131758695D01*
X101751371Y-131766087D01*
X101733524Y-131758695D01*
X101652490Y-131711910D01*
X101652481Y-131711906D01*
X101525194Y-131677800D01*
X101525192Y-131677800D01*
X101393408Y-131677800D01*
X101393406Y-131677800D01*
X101266118Y-131711906D01*
X101266109Y-131711910D01*
X101151985Y-131777800D01*
X101058800Y-131870985D01*
X100992910Y-131985109D01*
X100992906Y-131985118D01*
X100958800Y-132112405D01*
X100958800Y-132244194D01*
X100992906Y-132371481D01*
X100992907Y-132371483D01*
X100992908Y-132371486D01*
X101000545Y-132384714D01*
X101028054Y-132432361D01*
X101035446Y-132488514D01*
X101028054Y-132506360D01*
X100989981Y-132572305D01*
X100989977Y-132572314D01*
X100969500Y-132648735D01*
X100969500Y-132715500D01*
X100947826Y-132767826D01*
X100895500Y-132789500D01*
X100250246Y-132789500D01*
X100248783Y-132789644D01*
X100241536Y-132790000D01*
X100070000Y-132790000D01*
X100052326Y-132807674D01*
X100000000Y-132829348D01*
X99947674Y-132807674D01*
X99930000Y-132790000D01*
X99758464Y-132790000D01*
X99751217Y-132789644D01*
X99749754Y-132789500D01*
X99749748Y-132789500D01*
X99104500Y-132789500D01*
X99052174Y-132767826D01*
X99030500Y-132715500D01*
X99030500Y-132315366D01*
X99052174Y-132263040D01*
X99071022Y-132244192D01*
X99101200Y-132214014D01*
X99167092Y-132099886D01*
X99201199Y-131972594D01*
X99201200Y-131972594D01*
X99201200Y-131840806D01*
X99201199Y-131840805D01*
X99167093Y-131713518D01*
X99167092Y-131713514D01*
X99101200Y-131599386D01*
X99008014Y-131506200D01*
X98964723Y-131481206D01*
X98893890Y-131440310D01*
X98893881Y-131440306D01*
X98766594Y-131406200D01*
X98766592Y-131406200D01*
X98634808Y-131406200D01*
X98634806Y-131406200D01*
X98507518Y-131440306D01*
X98507509Y-131440310D01*
X98393385Y-131506200D01*
X98300200Y-131599385D01*
X98234310Y-131713509D01*
X98234306Y-131713518D01*
X98200200Y-131840805D01*
X98200200Y-131972594D01*
X98234306Y-132099881D01*
X98234310Y-132099890D01*
X98300200Y-132214014D01*
X98393387Y-132307201D01*
X98397233Y-132310152D01*
X98396194Y-132311505D01*
X98426977Y-132351616D01*
X98429500Y-132370774D01*
X98429500Y-132715500D01*
X98407826Y-132767826D01*
X98355500Y-132789500D01*
X97710246Y-132789500D01*
X97708783Y-132789644D01*
X97701536Y-132790000D01*
X97530000Y-132790000D01*
X97512326Y-132807674D01*
X97460000Y-132829348D01*
X97407674Y-132807674D01*
X97390000Y-132790000D01*
X97218464Y-132790000D01*
X97211217Y-132789644D01*
X97209754Y-132789500D01*
X97209748Y-132789500D01*
X96564500Y-132789500D01*
X96512174Y-132767826D01*
X96490500Y-132715500D01*
X96490500Y-132648736D01*
X96490499Y-132648735D01*
X96489912Y-132646546D01*
X96471760Y-132578800D01*
X96470022Y-132572314D01*
X96470020Y-132572309D01*
X96431944Y-132506360D01*
X96430460Y-132503789D01*
X96374511Y-132447840D01*
X96355367Y-132428696D01*
X96333693Y-132376370D01*
X96336215Y-132357217D01*
X96337716Y-132351616D01*
X96366499Y-132244194D01*
X96366500Y-132244194D01*
X96366500Y-132112406D01*
X96366499Y-132112405D01*
X96332393Y-131985118D01*
X96332392Y-131985114D01*
X96266500Y-131870986D01*
X96173314Y-131777800D01*
X96132815Y-131754418D01*
X96059190Y-131711910D01*
X96059181Y-131711906D01*
X95931894Y-131677800D01*
X95931892Y-131677800D01*
X95800108Y-131677800D01*
X95800106Y-131677800D01*
X95672818Y-131711906D01*
X95672809Y-131711910D01*
X95558685Y-131777800D01*
X95465500Y-131870985D01*
X95399610Y-131985109D01*
X95399606Y-131985118D01*
X95365500Y-132112405D01*
X95365500Y-132244194D01*
X95399606Y-132371481D01*
X95399610Y-132371490D01*
X95434754Y-132432361D01*
X95465500Y-132485614D01*
X95558686Y-132578800D01*
X95672814Y-132644692D01*
X95672820Y-132644693D01*
X95677292Y-132646546D01*
X95676402Y-132648693D01*
X95715247Y-132678502D01*
X95722638Y-132734655D01*
X95688158Y-132779587D01*
X95651160Y-132789500D01*
X95170246Y-132789500D01*
X95168783Y-132789644D01*
X95161536Y-132790000D01*
X94990000Y-132790000D01*
X94972326Y-132807674D01*
X94920000Y-132829348D01*
X94867674Y-132807674D01*
X94850000Y-132790000D01*
X94678464Y-132790000D01*
X94671217Y-132789644D01*
X94669754Y-132789500D01*
X94669748Y-132789500D01*
X94024500Y-132789500D01*
X93972174Y-132767826D01*
X93950500Y-132715500D01*
X93950500Y-132648736D01*
X93950499Y-132648735D01*
X93949912Y-132646546D01*
X93931760Y-132578800D01*
X93930022Y-132572314D01*
X93930020Y-132572309D01*
X93891008Y-132504738D01*
X93890460Y-132503789D01*
X93890459Y-132503788D01*
X93890458Y-132503786D01*
X93834514Y-132447842D01*
X93830662Y-132444887D01*
X93830762Y-132444755D01*
X93820288Y-132436717D01*
X93659074Y-132275503D01*
X93637400Y-132223177D01*
X93637400Y-132112406D01*
X93637399Y-132112405D01*
X93603293Y-131985118D01*
X93603292Y-131985114D01*
X93537400Y-131870986D01*
X93444214Y-131777800D01*
X93403715Y-131754418D01*
X93330090Y-131711910D01*
X93330081Y-131711906D01*
X93202794Y-131677800D01*
X93202792Y-131677800D01*
X93071008Y-131677800D01*
X93071006Y-131677800D01*
X92943718Y-131711906D01*
X92943709Y-131711910D01*
X92829585Y-131777800D01*
X92736400Y-131870985D01*
X92670510Y-131985109D01*
X92670506Y-131985118D01*
X92636400Y-132112405D01*
X92636400Y-132244194D01*
X92670506Y-132371481D01*
X92670510Y-132371490D01*
X92705654Y-132432361D01*
X92736400Y-132485614D01*
X92829586Y-132578800D01*
X92943714Y-132644692D01*
X92943720Y-132644693D01*
X92948192Y-132646546D01*
X92947302Y-132648693D01*
X92986147Y-132678502D01*
X92993538Y-132734655D01*
X92959058Y-132779587D01*
X92922060Y-132789500D01*
X92630246Y-132789500D01*
X92628783Y-132789644D01*
X92621536Y-132790000D01*
X92450000Y-132790000D01*
X92432326Y-132807674D01*
X92380000Y-132829348D01*
X92327674Y-132807674D01*
X92310000Y-132790000D01*
X92138464Y-132790000D01*
X92131217Y-132789644D01*
X92129754Y-132789500D01*
X92129748Y-132789500D01*
X91484500Y-132789500D01*
X91432174Y-132767826D01*
X91410500Y-132715500D01*
X91410500Y-132648736D01*
X91410499Y-132648735D01*
X91409912Y-132646546D01*
X91391760Y-132578800D01*
X91390022Y-132572314D01*
X91390020Y-132572309D01*
X91351944Y-132506360D01*
X91350460Y-132503789D01*
X91294511Y-132447840D01*
X91278429Y-132438555D01*
X91225990Y-132408279D01*
X91225985Y-132408277D01*
X91149564Y-132387800D01*
X91149562Y-132387800D01*
X91072923Y-132387800D01*
X91020597Y-132366126D01*
X90929974Y-132275503D01*
X90908300Y-132223177D01*
X90908300Y-132112406D01*
X90908299Y-132112405D01*
X90874193Y-131985118D01*
X90874192Y-131985114D01*
X90808300Y-131870986D01*
X90715114Y-131777800D01*
X90674615Y-131754418D01*
X90600990Y-131711910D01*
X90600981Y-131711906D01*
X90473694Y-131677800D01*
X90473692Y-131677800D01*
X90341908Y-131677800D01*
X90341906Y-131677800D01*
X90214618Y-131711906D01*
X90214609Y-131711910D01*
X90100485Y-131777800D01*
X90007300Y-131870985D01*
X89941410Y-131985109D01*
X89941406Y-131985118D01*
X89907300Y-132112405D01*
X89907300Y-132244194D01*
X89941406Y-132371481D01*
X89941410Y-132371490D01*
X89976554Y-132432361D01*
X90007300Y-132485614D01*
X90100486Y-132578800D01*
X90214614Y-132644692D01*
X90214620Y-132644693D01*
X90219092Y-132646546D01*
X90218202Y-132648693D01*
X90227316Y-132655687D01*
X90245051Y-132662940D01*
X90248983Y-132672313D01*
X90257047Y-132678502D01*
X90259547Y-132697499D01*
X90266959Y-132715168D01*
X90263111Y-132724576D01*
X90264438Y-132734655D01*
X90252772Y-132749856D01*
X90245520Y-132767591D01*
X90236173Y-132771486D01*
X90229958Y-132779587D01*
X90193292Y-132789499D01*
X90193069Y-132789500D01*
X90090252Y-132789500D01*
X90087878Y-132789972D01*
X90081868Y-132789999D01*
X90081834Y-132789985D01*
X90081536Y-132790000D01*
X89910000Y-132790000D01*
X89892326Y-132807674D01*
X89840000Y-132829348D01*
X89787674Y-132807674D01*
X89770000Y-132790000D01*
X89598464Y-132790000D01*
X89591217Y-132789644D01*
X89589754Y-132789500D01*
X89589748Y-132789500D01*
X88944500Y-132789500D01*
X88892174Y-132767826D01*
X88870500Y-132715500D01*
X88870500Y-132504736D01*
X88870499Y-132504735D01*
X88850022Y-132428314D01*
X88850020Y-132428309D01*
X88824850Y-132384714D01*
X88810460Y-132359789D01*
X88754511Y-132303840D01*
X85201474Y-128750803D01*
X85179800Y-128698477D01*
X85179800Y-126613373D01*
X85201474Y-126561047D01*
X85253800Y-126539373D01*
X85306126Y-126561047D01*
X85392218Y-126647139D01*
X85556086Y-126756632D01*
X85738165Y-126832051D01*
X85931459Y-126870500D01*
X85931461Y-126870500D01*
X86128539Y-126870500D01*
X86128541Y-126870500D01*
X86321835Y-126832051D01*
X86503914Y-126756632D01*
X86667782Y-126647139D01*
X86807139Y-126507782D01*
X86916632Y-126343914D01*
X86992051Y-126161835D01*
X87030500Y-125968541D01*
X87030500Y-125771459D01*
X86992051Y-125578165D01*
X86939142Y-125450431D01*
X86939142Y-125450430D01*
X86939142Y-125393793D01*
X86955180Y-125369789D01*
X92312997Y-120011974D01*
X92365323Y-119990300D01*
X93846078Y-119990300D01*
X93898404Y-120011974D01*
X93920078Y-120064300D01*
X93898404Y-120116624D01*
X91354538Y-122660489D01*
X89070211Y-124944816D01*
X89017885Y-124966490D01*
X88989567Y-124960857D01*
X88861839Y-124907950D01*
X88861829Y-124907947D01*
X88729567Y-124881639D01*
X88668541Y-124869500D01*
X88471459Y-124869500D01*
X88416662Y-124880399D01*
X88278170Y-124907947D01*
X88278160Y-124907950D01*
X88096086Y-124983367D01*
X87932218Y-125092860D01*
X87932217Y-125092862D01*
X87792862Y-125232217D01*
X87792860Y-125232218D01*
X87683367Y-125396086D01*
X87607950Y-125578160D01*
X87607947Y-125578170D01*
X87569500Y-125771460D01*
X87569500Y-125968539D01*
X87607947Y-126161829D01*
X87607950Y-126161839D01*
X87683367Y-126343913D01*
X87751503Y-126445885D01*
X87792861Y-126507782D01*
X87932218Y-126647139D01*
X88096086Y-126756632D01*
X88278165Y-126832051D01*
X88471459Y-126870500D01*
X88471461Y-126870500D01*
X88668539Y-126870500D01*
X88668541Y-126870500D01*
X88861835Y-126832051D01*
X89043914Y-126756632D01*
X89207782Y-126647139D01*
X89347139Y-126507782D01*
X89456632Y-126343914D01*
X89532051Y-126161835D01*
X89570500Y-125968541D01*
X89570500Y-125771459D01*
X89532051Y-125578165D01*
X89479142Y-125450431D01*
X89479142Y-125450430D01*
X89479142Y-125393793D01*
X89495180Y-125369789D01*
X94852997Y-120011974D01*
X94905323Y-119990300D01*
X96386077Y-119990300D01*
X96438403Y-120011974D01*
X96460077Y-120064300D01*
X96438403Y-120116626D01*
X91610211Y-124944816D01*
X91557885Y-124966490D01*
X91529567Y-124960857D01*
X91401839Y-124907950D01*
X91401829Y-124907947D01*
X91269567Y-124881639D01*
X91208541Y-124869500D01*
X91011459Y-124869500D01*
X90956662Y-124880399D01*
X90818170Y-124907947D01*
X90818160Y-124907950D01*
X90636086Y-124983367D01*
X90472218Y-125092860D01*
X90472217Y-125092862D01*
X90332862Y-125232217D01*
X90332860Y-125232218D01*
X90223367Y-125396086D01*
X90147950Y-125578160D01*
X90147947Y-125578170D01*
X90109500Y-125771460D01*
X90109500Y-125968539D01*
X90147947Y-126161829D01*
X90147950Y-126161839D01*
X90223367Y-126343913D01*
X90291503Y-126445885D01*
X90332861Y-126507782D01*
X90472218Y-126647139D01*
X90636086Y-126756632D01*
X90818165Y-126832051D01*
X91011459Y-126870500D01*
X91011461Y-126870500D01*
X91208539Y-126870500D01*
X91208541Y-126870500D01*
X91401835Y-126832051D01*
X91583914Y-126756632D01*
X91747782Y-126647139D01*
X91887139Y-126507782D01*
X91996632Y-126343914D01*
X92067433Y-126172984D01*
X92107481Y-126132935D01*
X92164118Y-126132935D01*
X92204167Y-126172983D01*
X92209800Y-126201302D01*
X92209800Y-126369464D01*
X92230277Y-126445885D01*
X92230279Y-126445890D01*
X92266013Y-126507782D01*
X92266014Y-126507784D01*
X92269837Y-126514407D01*
X92269841Y-126514412D01*
X95599626Y-129844197D01*
X95619641Y-129892519D01*
X95620667Y-129892385D01*
X95621170Y-129896210D01*
X95621300Y-129896523D01*
X95621300Y-129897194D01*
X95655406Y-130024481D01*
X95655410Y-130024490D01*
X95721300Y-130138614D01*
X95814486Y-130231800D01*
X95928614Y-130297692D01*
X96055905Y-130331799D01*
X96055906Y-130331800D01*
X96055908Y-130331800D01*
X96187694Y-130331800D01*
X96187694Y-130331799D01*
X96314986Y-130297692D01*
X96429114Y-130231800D01*
X96522300Y-130138614D01*
X96588192Y-130024486D01*
X96622299Y-129897194D01*
X96622300Y-129897194D01*
X96622300Y-129765406D01*
X96622299Y-129765405D01*
X96588193Y-129638118D01*
X96588192Y-129638114D01*
X96522300Y-129523986D01*
X96429114Y-129430800D01*
X96314990Y-129364910D01*
X96314981Y-129364906D01*
X96187694Y-129330800D01*
X96187692Y-129330800D01*
X96055908Y-129330800D01*
X96002740Y-129345045D01*
X95946588Y-129337651D01*
X95931263Y-129325892D01*
X93602197Y-126996826D01*
X93580523Y-126944500D01*
X93602197Y-126892174D01*
X93654523Y-126870500D01*
X93748539Y-126870500D01*
X93748541Y-126870500D01*
X93941835Y-126832051D01*
X94123914Y-126756632D01*
X94287782Y-126647139D01*
X94427139Y-126507782D01*
X94536632Y-126343914D01*
X94612051Y-126161835D01*
X94650500Y-125968541D01*
X94650500Y-125771460D01*
X95189500Y-125771460D01*
X95189500Y-125968539D01*
X95227947Y-126161829D01*
X95227950Y-126161839D01*
X95303367Y-126343913D01*
X95371503Y-126445885D01*
X95412861Y-126507782D01*
X95552218Y-126647139D01*
X95716086Y-126756632D01*
X95898165Y-126832051D01*
X96091459Y-126870500D01*
X96091461Y-126870500D01*
X96288539Y-126870500D01*
X96288541Y-126870500D01*
X96481835Y-126832051D01*
X96663914Y-126756632D01*
X96827782Y-126647139D01*
X96967139Y-126507782D01*
X97076632Y-126343914D01*
X97152051Y-126161835D01*
X97190500Y-125968541D01*
X97190500Y-125771460D01*
X97729500Y-125771460D01*
X97729500Y-125968539D01*
X97767947Y-126161829D01*
X97767950Y-126161839D01*
X97843367Y-126343913D01*
X97911503Y-126445885D01*
X97952861Y-126507782D01*
X98092218Y-126647139D01*
X98256086Y-126756632D01*
X98438165Y-126832051D01*
X98631459Y-126870500D01*
X98631461Y-126870500D01*
X98828539Y-126870500D01*
X98828541Y-126870500D01*
X99021835Y-126832051D01*
X99203914Y-126756632D01*
X99367782Y-126647139D01*
X99507139Y-126507782D01*
X99616632Y-126343914D01*
X99692051Y-126161835D01*
X99730500Y-125968541D01*
X99730500Y-125771460D01*
X102809500Y-125771460D01*
X102809500Y-125968539D01*
X102847947Y-126161829D01*
X102847950Y-126161839D01*
X102923367Y-126343913D01*
X102991503Y-126445885D01*
X103032861Y-126507782D01*
X103172218Y-126647139D01*
X103336086Y-126756632D01*
X103518165Y-126832051D01*
X103711459Y-126870500D01*
X103711461Y-126870500D01*
X103908539Y-126870500D01*
X103908541Y-126870500D01*
X104101835Y-126832051D01*
X104283914Y-126756632D01*
X104447782Y-126647139D01*
X104587139Y-126507782D01*
X104696632Y-126343914D01*
X104772051Y-126161835D01*
X104810500Y-125968541D01*
X104810500Y-125771460D01*
X105349500Y-125771460D01*
X105349500Y-125968539D01*
X105387947Y-126161829D01*
X105387950Y-126161839D01*
X105463367Y-126343913D01*
X105531503Y-126445885D01*
X105572861Y-126507782D01*
X105712218Y-126647139D01*
X105876086Y-126756632D01*
X106058165Y-126832051D01*
X106251459Y-126870500D01*
X106251461Y-126870500D01*
X106448539Y-126870500D01*
X106448541Y-126870500D01*
X106641835Y-126832051D01*
X106823914Y-126756632D01*
X106987782Y-126647139D01*
X107127139Y-126507782D01*
X107236632Y-126343914D01*
X107312051Y-126161835D01*
X107350500Y-125968541D01*
X107350500Y-125771459D01*
X107312051Y-125578165D01*
X107236632Y-125396086D01*
X107127139Y-125232218D01*
X106987782Y-125092861D01*
X106823914Y-124983368D01*
X106823915Y-124983368D01*
X106823913Y-124983367D01*
X106641839Y-124907950D01*
X106641829Y-124907947D01*
X106509567Y-124881639D01*
X106448541Y-124869500D01*
X106251459Y-124869500D01*
X106196662Y-124880399D01*
X106058170Y-124907947D01*
X106058160Y-124907950D01*
X105876086Y-124983367D01*
X105712218Y-125092860D01*
X105712217Y-125092862D01*
X105572862Y-125232217D01*
X105572860Y-125232218D01*
X105463367Y-125396086D01*
X105387950Y-125578160D01*
X105387947Y-125578170D01*
X105349500Y-125771460D01*
X104810500Y-125771460D01*
X104810500Y-125771459D01*
X104772051Y-125578165D01*
X104696632Y-125396086D01*
X104587139Y-125232218D01*
X104447782Y-125092861D01*
X104283914Y-124983368D01*
X104283915Y-124983368D01*
X104283913Y-124983367D01*
X104101839Y-124907950D01*
X104101829Y-124907947D01*
X103969567Y-124881639D01*
X103908541Y-124869500D01*
X103711459Y-124869500D01*
X103656662Y-124880399D01*
X103518170Y-124907947D01*
X103518160Y-124907950D01*
X103336086Y-124983367D01*
X103172218Y-125092860D01*
X103172217Y-125092862D01*
X103032862Y-125232217D01*
X103032860Y-125232218D01*
X102923367Y-125396086D01*
X102847950Y-125578160D01*
X102847947Y-125578170D01*
X102809500Y-125771460D01*
X99730500Y-125771460D01*
X99730500Y-125771459D01*
X99692051Y-125578165D01*
X99616632Y-125396086D01*
X99507139Y-125232218D01*
X99367782Y-125092861D01*
X99203914Y-124983368D01*
X99203915Y-124983368D01*
X99203913Y-124983367D01*
X99021839Y-124907950D01*
X99021829Y-124907947D01*
X98889567Y-124881639D01*
X98828541Y-124869500D01*
X98631459Y-124869500D01*
X98576662Y-124880399D01*
X98438170Y-124907947D01*
X98438160Y-124907950D01*
X98256086Y-124983367D01*
X98092218Y-125092860D01*
X98092217Y-125092862D01*
X97952862Y-125232217D01*
X97952860Y-125232218D01*
X97843367Y-125396086D01*
X97767950Y-125578160D01*
X97767947Y-125578170D01*
X97729500Y-125771460D01*
X97190500Y-125771460D01*
X97190500Y-125771459D01*
X97152051Y-125578165D01*
X97076632Y-125396086D01*
X96967139Y-125232218D01*
X96827782Y-125092861D01*
X96663914Y-124983368D01*
X96663915Y-124983368D01*
X96663913Y-124983367D01*
X96481839Y-124907950D01*
X96481829Y-124907947D01*
X96349567Y-124881639D01*
X96288541Y-124869500D01*
X96091459Y-124869500D01*
X96036662Y-124880399D01*
X95898170Y-124907947D01*
X95898160Y-124907950D01*
X95716086Y-124983367D01*
X95552218Y-125092860D01*
X95552217Y-125092862D01*
X95412862Y-125232217D01*
X95412860Y-125232218D01*
X95303367Y-125396086D01*
X95227950Y-125578160D01*
X95227947Y-125578170D01*
X95189500Y-125771460D01*
X94650500Y-125771460D01*
X94650500Y-125771459D01*
X94612051Y-125578165D01*
X94559142Y-125450431D01*
X94559142Y-125450430D01*
X94559142Y-125393793D01*
X94575180Y-125369789D01*
X100178097Y-119766874D01*
X100230423Y-119745200D01*
X106296064Y-119745200D01*
X106296064Y-119745199D01*
X106372489Y-119724721D01*
X106441011Y-119685160D01*
X106496960Y-119629211D01*
X106789825Y-119336345D01*
X106807651Y-119328961D01*
X106822954Y-119317205D01*
X106832890Y-119318507D01*
X106842149Y-119314672D01*
X106859977Y-119322056D01*
G37*
%TD.AperFunction*%
%TA.AperFunction,Conductor*%
G36*
X105731303Y-102738074D02*
G01*
X105752977Y-102790400D01*
X105731303Y-102842726D01*
X103988603Y-104585426D01*
X103936277Y-104607100D01*
X89800336Y-104607100D01*
X89723914Y-104627577D01*
X89723909Y-104627579D01*
X89676243Y-104655100D01*
X89655388Y-104667140D01*
X88839539Y-105482989D01*
X88800864Y-105549975D01*
X88755931Y-105584453D01*
X88699778Y-105577059D01*
X88675250Y-105554086D01*
X88673529Y-105551511D01*
X88587139Y-105422218D01*
X88447782Y-105282861D01*
X88446644Y-105282100D01*
X88283913Y-105173367D01*
X88101839Y-105097950D01*
X88101829Y-105097947D01*
X87950966Y-105067939D01*
X87908541Y-105059500D01*
X87711459Y-105059500D01*
X87669034Y-105067939D01*
X87518170Y-105097947D01*
X87518160Y-105097950D01*
X87336086Y-105173367D01*
X87172218Y-105282860D01*
X87172217Y-105282862D01*
X87032862Y-105422217D01*
X87032860Y-105422218D01*
X86923367Y-105586086D01*
X86847950Y-105768160D01*
X86847947Y-105768170D01*
X86809500Y-105961460D01*
X86809500Y-106158539D01*
X86847947Y-106351829D01*
X86847950Y-106351839D01*
X86923367Y-106533913D01*
X87003499Y-106653838D01*
X87032861Y-106697782D01*
X87172218Y-106837139D01*
X87336086Y-106946632D01*
X87518165Y-107022051D01*
X87711459Y-107060500D01*
X87711461Y-107060500D01*
X87908539Y-107060500D01*
X87908541Y-107060500D01*
X88101835Y-107022051D01*
X88283914Y-106946632D01*
X88447782Y-106837139D01*
X88587139Y-106697782D01*
X88643971Y-106612725D01*
X88691063Y-106581260D01*
X88746612Y-106592309D01*
X88778078Y-106639401D01*
X88779500Y-106653838D01*
X88779500Y-107424876D01*
X88757826Y-107477202D01*
X86530211Y-109704816D01*
X86477885Y-109726490D01*
X86449567Y-109720857D01*
X86321839Y-109667950D01*
X86321829Y-109667947D01*
X86192388Y-109642200D01*
X86128541Y-109629500D01*
X85931459Y-109629500D01*
X85876662Y-109640399D01*
X85738170Y-109667947D01*
X85738160Y-109667950D01*
X85556086Y-109743367D01*
X85392218Y-109852860D01*
X85392217Y-109852862D01*
X85252862Y-109992217D01*
X85252860Y-109992218D01*
X85143367Y-110156086D01*
X85067950Y-110338160D01*
X85067947Y-110338170D01*
X85029500Y-110531460D01*
X85029500Y-110728539D01*
X85067947Y-110921829D01*
X85067950Y-110921839D01*
X85120857Y-111049567D01*
X85120857Y-111106204D01*
X85104816Y-111130211D01*
X84694789Y-111540240D01*
X84638840Y-111596188D01*
X84599279Y-111664709D01*
X84599277Y-111664714D01*
X84578800Y-111741135D01*
X84578800Y-125512141D01*
X84557126Y-125564467D01*
X84504800Y-125586141D01*
X84452474Y-125564467D01*
X84436433Y-125540459D01*
X84376632Y-125396086D01*
X84267139Y-125232218D01*
X84127781Y-125092860D01*
X83963913Y-124983367D01*
X83781839Y-124907950D01*
X83781829Y-124907947D01*
X83649567Y-124881639D01*
X83588541Y-124869500D01*
X83391459Y-124869500D01*
X83336662Y-124880399D01*
X83198170Y-124907947D01*
X83198160Y-124907950D01*
X83070431Y-124960857D01*
X83013794Y-124960857D01*
X82989787Y-124944816D01*
X81897074Y-123852103D01*
X81875400Y-123799777D01*
X81875400Y-106798973D01*
X81897074Y-106746647D01*
X81949400Y-106724973D01*
X82001726Y-106746647D01*
X82092218Y-106837139D01*
X82256086Y-106946632D01*
X82438165Y-107022051D01*
X82631459Y-107060500D01*
X82631461Y-107060500D01*
X82828539Y-107060500D01*
X82828541Y-107060500D01*
X83021835Y-107022051D01*
X83203914Y-106946632D01*
X83367782Y-106837139D01*
X83507139Y-106697782D01*
X83616632Y-106533914D01*
X83692051Y-106351835D01*
X83730500Y-106158541D01*
X83730500Y-105961460D01*
X84269500Y-105961460D01*
X84269500Y-106158539D01*
X84307947Y-106351829D01*
X84307950Y-106351839D01*
X84383367Y-106533913D01*
X84463499Y-106653838D01*
X84492861Y-106697782D01*
X84632218Y-106837139D01*
X84796086Y-106946632D01*
X84978165Y-107022051D01*
X85171459Y-107060500D01*
X85171461Y-107060500D01*
X85368539Y-107060500D01*
X85368541Y-107060500D01*
X85561835Y-107022051D01*
X85743914Y-106946632D01*
X85907782Y-106837139D01*
X86047139Y-106697782D01*
X86156632Y-106533914D01*
X86232051Y-106351835D01*
X86270500Y-106158541D01*
X86270500Y-105961459D01*
X86232051Y-105768165D01*
X86156632Y-105586086D01*
X86047139Y-105422218D01*
X85907782Y-105282861D01*
X85906644Y-105282100D01*
X85743913Y-105173367D01*
X85561839Y-105097950D01*
X85561829Y-105097947D01*
X85410966Y-105067939D01*
X85368541Y-105059500D01*
X85171459Y-105059500D01*
X85129034Y-105067939D01*
X84978170Y-105097947D01*
X84978160Y-105097950D01*
X84796086Y-105173367D01*
X84632218Y-105282860D01*
X84632217Y-105282862D01*
X84492862Y-105422217D01*
X84492860Y-105422218D01*
X84383367Y-105586086D01*
X84307950Y-105768160D01*
X84307947Y-105768170D01*
X84269500Y-105961460D01*
X83730500Y-105961460D01*
X83730500Y-105961459D01*
X83692051Y-105768165D01*
X83681977Y-105743844D01*
X83639142Y-105640430D01*
X83639142Y-105583793D01*
X83655180Y-105559789D01*
X85289897Y-103925074D01*
X85342223Y-103903400D01*
X96705834Y-103903400D01*
X96758160Y-103925074D01*
X96836486Y-104003400D01*
X96950614Y-104069292D01*
X97077905Y-104103399D01*
X97077906Y-104103400D01*
X97077908Y-104103400D01*
X97209694Y-104103400D01*
X97209694Y-104103399D01*
X97336986Y-104069292D01*
X97451114Y-104003400D01*
X97544300Y-103910214D01*
X97610192Y-103796086D01*
X97644299Y-103668794D01*
X97644300Y-103668794D01*
X97644300Y-103537006D01*
X97644299Y-103537005D01*
X97610193Y-103409718D01*
X97610192Y-103409714D01*
X97544300Y-103295586D01*
X97451114Y-103202400D01*
X97336990Y-103136510D01*
X97336981Y-103136506D01*
X97209694Y-103102400D01*
X97209692Y-103102400D01*
X97077908Y-103102400D01*
X97077906Y-103102400D01*
X96950618Y-103136506D01*
X96950609Y-103136510D01*
X96836485Y-103202400D01*
X96758160Y-103280726D01*
X96705834Y-103302400D01*
X85147536Y-103302400D01*
X85071114Y-103322877D01*
X85071109Y-103322879D01*
X85012034Y-103356987D01*
X85002588Y-103362440D01*
X83230211Y-105134816D01*
X83177885Y-105156490D01*
X83149567Y-105150857D01*
X83021839Y-105097950D01*
X83021829Y-105097947D01*
X82870966Y-105067939D01*
X82828541Y-105059500D01*
X82776122Y-105059500D01*
X82723796Y-105037826D01*
X82702122Y-104985500D01*
X82723796Y-104933174D01*
X83731897Y-103925074D01*
X84780897Y-102876074D01*
X84833223Y-102854400D01*
X89933064Y-102854400D01*
X89933064Y-102854399D01*
X90009489Y-102833921D01*
X90078011Y-102794360D01*
X90133960Y-102738411D01*
X90134297Y-102738074D01*
X90186623Y-102716400D01*
X105678977Y-102716400D01*
X105731303Y-102738074D01*
G37*
%TD.AperFunction*%
%TD*%
M02*
