%TF.GenerationSoftware,KiCad,Pcbnew,10.0.3*%
%TF.CreationDate,2026-06-23T23:37:30-04:00*%
%TF.ProjectId,index,696e6465-782e-46b6-9963-61645f706362,Rev1*%
%TF.SameCoordinates,Original*%
%TF.FileFunction,Legend,Top*%
%TF.FilePolarity,Positive*%
%FSLAX46Y46*%
G04 Gerber Fmt 4.6, Leading zero omitted, Abs format (unit mm)*
G04 Created by KiCad (PCBNEW 10.0.3) date 2026-06-23 23:37:30*
%MOMM*%
%LPD*%
G01*
G04 APERTURE LIST*
%ADD10C,0.100000*%
%ADD11C,0.066667*%
%ADD12C,0.050000*%
G04 APERTURE END LIST*
D10*
X74819044Y-63364895D02*
X74438092Y-63364895D01*
X74438092Y-63364895D02*
X74438092Y-62564895D01*
X75199996Y-63364895D02*
X75123806Y-63326800D01*
X75123806Y-63326800D02*
X75085711Y-63288704D01*
X75085711Y-63288704D02*
X75047615Y-63212514D01*
X75047615Y-63212514D02*
X75047615Y-62983942D01*
X75047615Y-62983942D02*
X75085711Y-62907752D01*
X75085711Y-62907752D02*
X75123806Y-62869657D01*
X75123806Y-62869657D02*
X75199996Y-62831561D01*
X75199996Y-62831561D02*
X75314282Y-62831561D01*
X75314282Y-62831561D02*
X75390473Y-62869657D01*
X75390473Y-62869657D02*
X75428568Y-62907752D01*
X75428568Y-62907752D02*
X75466663Y-62983942D01*
X75466663Y-62983942D02*
X75466663Y-63212514D01*
X75466663Y-63212514D02*
X75428568Y-63288704D01*
X75428568Y-63288704D02*
X75390473Y-63326800D01*
X75390473Y-63326800D02*
X75314282Y-63364895D01*
X75314282Y-63364895D02*
X75199996Y-63364895D01*
X75809521Y-63364895D02*
X75809521Y-62564895D01*
X75885711Y-63060133D02*
X76114283Y-63364895D01*
X76114283Y-62831561D02*
X75809521Y-63136323D01*
X76761902Y-63326800D02*
X76685711Y-63364895D01*
X76685711Y-63364895D02*
X76533330Y-63364895D01*
X76533330Y-63364895D02*
X76457140Y-63326800D01*
X76457140Y-63326800D02*
X76419044Y-63250609D01*
X76419044Y-63250609D02*
X76419044Y-62945847D01*
X76419044Y-62945847D02*
X76457140Y-62869657D01*
X76457140Y-62869657D02*
X76533330Y-62831561D01*
X76533330Y-62831561D02*
X76685711Y-62831561D01*
X76685711Y-62831561D02*
X76761902Y-62869657D01*
X76761902Y-62869657D02*
X76799997Y-62945847D01*
X76799997Y-62945847D02*
X76799997Y-63022038D01*
X76799997Y-63022038D02*
X76419044Y-63098228D01*
X77066663Y-62831561D02*
X77257139Y-63364895D01*
X77447616Y-62831561D02*
X77257139Y-63364895D01*
X77257139Y-63364895D02*
X77180949Y-63555371D01*
X77180949Y-63555371D02*
X77142854Y-63593466D01*
X77142854Y-63593466D02*
X77066663Y-63631561D01*
X78285711Y-62564895D02*
X78819045Y-62564895D01*
X78819045Y-62564895D02*
X78476187Y-63364895D01*
X79238092Y-62907752D02*
X79161902Y-62869657D01*
X79161902Y-62869657D02*
X79123807Y-62831561D01*
X79123807Y-62831561D02*
X79085711Y-62755371D01*
X79085711Y-62755371D02*
X79085711Y-62717276D01*
X79085711Y-62717276D02*
X79123807Y-62641085D01*
X79123807Y-62641085D02*
X79161902Y-62602990D01*
X79161902Y-62602990D02*
X79238092Y-62564895D01*
X79238092Y-62564895D02*
X79390473Y-62564895D01*
X79390473Y-62564895D02*
X79466664Y-62602990D01*
X79466664Y-62602990D02*
X79504759Y-62641085D01*
X79504759Y-62641085D02*
X79542854Y-62717276D01*
X79542854Y-62717276D02*
X79542854Y-62755371D01*
X79542854Y-62755371D02*
X79504759Y-62831561D01*
X79504759Y-62831561D02*
X79466664Y-62869657D01*
X79466664Y-62869657D02*
X79390473Y-62907752D01*
X79390473Y-62907752D02*
X79238092Y-62907752D01*
X79238092Y-62907752D02*
X79161902Y-62945847D01*
X79161902Y-62945847D02*
X79123807Y-62983942D01*
X79123807Y-62983942D02*
X79085711Y-63060133D01*
X79085711Y-63060133D02*
X79085711Y-63212514D01*
X79085711Y-63212514D02*
X79123807Y-63288704D01*
X79123807Y-63288704D02*
X79161902Y-63326800D01*
X79161902Y-63326800D02*
X79238092Y-63364895D01*
X79238092Y-63364895D02*
X79390473Y-63364895D01*
X79390473Y-63364895D02*
X79466664Y-63326800D01*
X79466664Y-63326800D02*
X79504759Y-63288704D01*
X79504759Y-63288704D02*
X79542854Y-63212514D01*
X79542854Y-63212514D02*
X79542854Y-63060133D01*
X79542854Y-63060133D02*
X79504759Y-62983942D01*
X79504759Y-62983942D02*
X79466664Y-62945847D01*
X79466664Y-62945847D02*
X79390473Y-62907752D01*
X80038093Y-62564895D02*
X80114283Y-62564895D01*
X80114283Y-62564895D02*
X80190474Y-62602990D01*
X80190474Y-62602990D02*
X80228569Y-62641085D01*
X80228569Y-62641085D02*
X80266664Y-62717276D01*
X80266664Y-62717276D02*
X80304759Y-62869657D01*
X80304759Y-62869657D02*
X80304759Y-63060133D01*
X80304759Y-63060133D02*
X80266664Y-63212514D01*
X80266664Y-63212514D02*
X80228569Y-63288704D01*
X80228569Y-63288704D02*
X80190474Y-63326800D01*
X80190474Y-63326800D02*
X80114283Y-63364895D01*
X80114283Y-63364895D02*
X80038093Y-63364895D01*
X80038093Y-63364895D02*
X79961902Y-63326800D01*
X79961902Y-63326800D02*
X79923807Y-63288704D01*
X79923807Y-63288704D02*
X79885712Y-63212514D01*
X79885712Y-63212514D02*
X79847616Y-63060133D01*
X79847616Y-63060133D02*
X79847616Y-62869657D01*
X79847616Y-62869657D02*
X79885712Y-62717276D01*
X79885712Y-62717276D02*
X79923807Y-62641085D01*
X79923807Y-62641085D02*
X79961902Y-62602990D01*
X79961902Y-62602990D02*
X80038093Y-62564895D01*
X80799998Y-62564895D02*
X80876188Y-62564895D01*
X80876188Y-62564895D02*
X80952379Y-62602990D01*
X80952379Y-62602990D02*
X80990474Y-62641085D01*
X80990474Y-62641085D02*
X81028569Y-62717276D01*
X81028569Y-62717276D02*
X81066664Y-62869657D01*
X81066664Y-62869657D02*
X81066664Y-63060133D01*
X81066664Y-63060133D02*
X81028569Y-63212514D01*
X81028569Y-63212514D02*
X80990474Y-63288704D01*
X80990474Y-63288704D02*
X80952379Y-63326800D01*
X80952379Y-63326800D02*
X80876188Y-63364895D01*
X80876188Y-63364895D02*
X80799998Y-63364895D01*
X80799998Y-63364895D02*
X80723807Y-63326800D01*
X80723807Y-63326800D02*
X80685712Y-63288704D01*
X80685712Y-63288704D02*
X80647617Y-63212514D01*
X80647617Y-63212514D02*
X80609521Y-63060133D01*
X80609521Y-63060133D02*
X80609521Y-62869657D01*
X80609521Y-62869657D02*
X80647617Y-62717276D01*
X80647617Y-62717276D02*
X80685712Y-62641085D01*
X80685712Y-62641085D02*
X80723807Y-62602990D01*
X80723807Y-62602990D02*
X80799998Y-62564895D01*
X82171427Y-62983942D02*
X82171427Y-63364895D01*
X81904760Y-62564895D02*
X82171427Y-62983942D01*
X82171427Y-62983942D02*
X82438093Y-62564895D01*
X82704760Y-63364895D02*
X82704760Y-62564895D01*
X82704760Y-62564895D02*
X82971426Y-63136323D01*
X82971426Y-63136323D02*
X83238093Y-62564895D01*
X83238093Y-62564895D02*
X83238093Y-63364895D01*
X84152379Y-62831561D02*
X84342855Y-63364895D01*
X84342855Y-63364895D02*
X84533332Y-62831561D01*
X84990475Y-62564895D02*
X85066665Y-62564895D01*
X85066665Y-62564895D02*
X85142856Y-62602990D01*
X85142856Y-62602990D02*
X85180951Y-62641085D01*
X85180951Y-62641085D02*
X85219046Y-62717276D01*
X85219046Y-62717276D02*
X85257141Y-62869657D01*
X85257141Y-62869657D02*
X85257141Y-63060133D01*
X85257141Y-63060133D02*
X85219046Y-63212514D01*
X85219046Y-63212514D02*
X85180951Y-63288704D01*
X85180951Y-63288704D02*
X85142856Y-63326800D01*
X85142856Y-63326800D02*
X85066665Y-63364895D01*
X85066665Y-63364895D02*
X84990475Y-63364895D01*
X84990475Y-63364895D02*
X84914284Y-63326800D01*
X84914284Y-63326800D02*
X84876189Y-63288704D01*
X84876189Y-63288704D02*
X84838094Y-63212514D01*
X84838094Y-63212514D02*
X84799998Y-63060133D01*
X84799998Y-63060133D02*
X84799998Y-62869657D01*
X84799998Y-62869657D02*
X84838094Y-62717276D01*
X84838094Y-62717276D02*
X84876189Y-62641085D01*
X84876189Y-62641085D02*
X84914284Y-62602990D01*
X84914284Y-62602990D02*
X84990475Y-62564895D01*
X85599999Y-63288704D02*
X85638094Y-63326800D01*
X85638094Y-63326800D02*
X85599999Y-63364895D01*
X85599999Y-63364895D02*
X85561903Y-63326800D01*
X85561903Y-63326800D02*
X85599999Y-63288704D01*
X85599999Y-63288704D02*
X85599999Y-63364895D01*
X86399998Y-63364895D02*
X85942855Y-63364895D01*
X86171427Y-63364895D02*
X86171427Y-62564895D01*
X86171427Y-62564895D02*
X86095236Y-62679180D01*
X86095236Y-62679180D02*
X86019046Y-62755371D01*
X86019046Y-62755371D02*
X85942855Y-62793466D01*
X88304761Y-62831561D02*
X88304761Y-63479180D01*
X88304761Y-63479180D02*
X88266666Y-63555371D01*
X88266666Y-63555371D02*
X88228570Y-63593466D01*
X88228570Y-63593466D02*
X88152380Y-63631561D01*
X88152380Y-63631561D02*
X88038094Y-63631561D01*
X88038094Y-63631561D02*
X87961904Y-63593466D01*
X88304761Y-63326800D02*
X88228570Y-63364895D01*
X88228570Y-63364895D02*
X88076189Y-63364895D01*
X88076189Y-63364895D02*
X87999999Y-63326800D01*
X87999999Y-63326800D02*
X87961904Y-63288704D01*
X87961904Y-63288704D02*
X87923808Y-63212514D01*
X87923808Y-63212514D02*
X87923808Y-62983942D01*
X87923808Y-62983942D02*
X87961904Y-62907752D01*
X87961904Y-62907752D02*
X87999999Y-62869657D01*
X87999999Y-62869657D02*
X88076189Y-62831561D01*
X88076189Y-62831561D02*
X88228570Y-62831561D01*
X88228570Y-62831561D02*
X88304761Y-62869657D01*
X88685714Y-63364895D02*
X88685714Y-62831561D01*
X88685714Y-62564895D02*
X88647618Y-62602990D01*
X88647618Y-62602990D02*
X88685714Y-62641085D01*
X88685714Y-62641085D02*
X88723809Y-62602990D01*
X88723809Y-62602990D02*
X88685714Y-62564895D01*
X88685714Y-62564895D02*
X88685714Y-62641085D01*
X88952380Y-62831561D02*
X89257142Y-62831561D01*
X89066666Y-62564895D02*
X89066666Y-63250609D01*
X89066666Y-63250609D02*
X89104761Y-63326800D01*
X89104761Y-63326800D02*
X89180951Y-63364895D01*
X89180951Y-63364895D02*
X89257142Y-63364895D01*
X89523809Y-63364895D02*
X89523809Y-62564895D01*
X89866666Y-63364895D02*
X89866666Y-62945847D01*
X89866666Y-62945847D02*
X89828571Y-62869657D01*
X89828571Y-62869657D02*
X89752380Y-62831561D01*
X89752380Y-62831561D02*
X89638094Y-62831561D01*
X89638094Y-62831561D02*
X89561904Y-62869657D01*
X89561904Y-62869657D02*
X89523809Y-62907752D01*
X90590476Y-62831561D02*
X90590476Y-63364895D01*
X90247619Y-62831561D02*
X90247619Y-63250609D01*
X90247619Y-63250609D02*
X90285714Y-63326800D01*
X90285714Y-63326800D02*
X90361904Y-63364895D01*
X90361904Y-63364895D02*
X90476190Y-63364895D01*
X90476190Y-63364895D02*
X90552381Y-63326800D01*
X90552381Y-63326800D02*
X90590476Y-63288704D01*
X90971429Y-63364895D02*
X90971429Y-62564895D01*
X90971429Y-62869657D02*
X91047619Y-62831561D01*
X91047619Y-62831561D02*
X91200000Y-62831561D01*
X91200000Y-62831561D02*
X91276191Y-62869657D01*
X91276191Y-62869657D02*
X91314286Y-62907752D01*
X91314286Y-62907752D02*
X91352381Y-62983942D01*
X91352381Y-62983942D02*
X91352381Y-63212514D01*
X91352381Y-63212514D02*
X91314286Y-63288704D01*
X91314286Y-63288704D02*
X91276191Y-63326800D01*
X91276191Y-63326800D02*
X91200000Y-63364895D01*
X91200000Y-63364895D02*
X91047619Y-63364895D01*
X91047619Y-63364895D02*
X90971429Y-63326800D01*
X91695239Y-63288704D02*
X91733334Y-63326800D01*
X91733334Y-63326800D02*
X91695239Y-63364895D01*
X91695239Y-63364895D02*
X91657143Y-63326800D01*
X91657143Y-63326800D02*
X91695239Y-63288704D01*
X91695239Y-63288704D02*
X91695239Y-63364895D01*
X92419048Y-63326800D02*
X92342857Y-63364895D01*
X92342857Y-63364895D02*
X92190476Y-63364895D01*
X92190476Y-63364895D02*
X92114286Y-63326800D01*
X92114286Y-63326800D02*
X92076191Y-63288704D01*
X92076191Y-63288704D02*
X92038095Y-63212514D01*
X92038095Y-63212514D02*
X92038095Y-62983942D01*
X92038095Y-62983942D02*
X92076191Y-62907752D01*
X92076191Y-62907752D02*
X92114286Y-62869657D01*
X92114286Y-62869657D02*
X92190476Y-62831561D01*
X92190476Y-62831561D02*
X92342857Y-62831561D01*
X92342857Y-62831561D02*
X92419048Y-62869657D01*
X92876190Y-63364895D02*
X92800000Y-63326800D01*
X92800000Y-63326800D02*
X92761905Y-63288704D01*
X92761905Y-63288704D02*
X92723809Y-63212514D01*
X92723809Y-63212514D02*
X92723809Y-62983942D01*
X92723809Y-62983942D02*
X92761905Y-62907752D01*
X92761905Y-62907752D02*
X92800000Y-62869657D01*
X92800000Y-62869657D02*
X92876190Y-62831561D01*
X92876190Y-62831561D02*
X92990476Y-62831561D01*
X92990476Y-62831561D02*
X93066667Y-62869657D01*
X93066667Y-62869657D02*
X93104762Y-62907752D01*
X93104762Y-62907752D02*
X93142857Y-62983942D01*
X93142857Y-62983942D02*
X93142857Y-63212514D01*
X93142857Y-63212514D02*
X93104762Y-63288704D01*
X93104762Y-63288704D02*
X93066667Y-63326800D01*
X93066667Y-63326800D02*
X92990476Y-63364895D01*
X92990476Y-63364895D02*
X92876190Y-63364895D01*
X93485715Y-63364895D02*
X93485715Y-62831561D01*
X93485715Y-62907752D02*
X93523810Y-62869657D01*
X93523810Y-62869657D02*
X93600000Y-62831561D01*
X93600000Y-62831561D02*
X93714286Y-62831561D01*
X93714286Y-62831561D02*
X93790477Y-62869657D01*
X93790477Y-62869657D02*
X93828572Y-62945847D01*
X93828572Y-62945847D02*
X93828572Y-63364895D01*
X93828572Y-62945847D02*
X93866667Y-62869657D01*
X93866667Y-62869657D02*
X93942858Y-62831561D01*
X93942858Y-62831561D02*
X94057143Y-62831561D01*
X94057143Y-62831561D02*
X94133334Y-62869657D01*
X94133334Y-62869657D02*
X94171429Y-62945847D01*
X94171429Y-62945847D02*
X94171429Y-63364895D01*
X95123810Y-62526800D02*
X94438096Y-63555371D01*
X95390477Y-62831561D02*
X95390477Y-63517276D01*
X95390477Y-63517276D02*
X95352381Y-63593466D01*
X95352381Y-63593466D02*
X95276191Y-63631561D01*
X95276191Y-63631561D02*
X95238096Y-63631561D01*
X95390477Y-62564895D02*
X95352381Y-62602990D01*
X95352381Y-62602990D02*
X95390477Y-62641085D01*
X95390477Y-62641085D02*
X95428572Y-62602990D01*
X95428572Y-62602990D02*
X95390477Y-62564895D01*
X95390477Y-62564895D02*
X95390477Y-62641085D01*
X95771429Y-63364895D02*
X95771429Y-62564895D01*
X95771429Y-62869657D02*
X95847619Y-62831561D01*
X95847619Y-62831561D02*
X96000000Y-62831561D01*
X96000000Y-62831561D02*
X96076191Y-62869657D01*
X96076191Y-62869657D02*
X96114286Y-62907752D01*
X96114286Y-62907752D02*
X96152381Y-62983942D01*
X96152381Y-62983942D02*
X96152381Y-63212514D01*
X96152381Y-63212514D02*
X96114286Y-63288704D01*
X96114286Y-63288704D02*
X96076191Y-63326800D01*
X96076191Y-63326800D02*
X96000000Y-63364895D01*
X96000000Y-63364895D02*
X95847619Y-63364895D01*
X95847619Y-63364895D02*
X95771429Y-63326800D01*
X96457143Y-63326800D02*
X96533334Y-63364895D01*
X96533334Y-63364895D02*
X96685715Y-63364895D01*
X96685715Y-63364895D02*
X96761905Y-63326800D01*
X96761905Y-63326800D02*
X96800001Y-63250609D01*
X96800001Y-63250609D02*
X96800001Y-63212514D01*
X96800001Y-63212514D02*
X96761905Y-63136323D01*
X96761905Y-63136323D02*
X96685715Y-63098228D01*
X96685715Y-63098228D02*
X96571429Y-63098228D01*
X96571429Y-63098228D02*
X96495239Y-63060133D01*
X96495239Y-63060133D02*
X96457143Y-62983942D01*
X96457143Y-62983942D02*
X96457143Y-62945847D01*
X96457143Y-62945847D02*
X96495239Y-62869657D01*
X96495239Y-62869657D02*
X96571429Y-62831561D01*
X96571429Y-62831561D02*
X96685715Y-62831561D01*
X96685715Y-62831561D02*
X96761905Y-62869657D01*
X97257143Y-63364895D02*
X97180953Y-63326800D01*
X97180953Y-63326800D02*
X97142858Y-63288704D01*
X97142858Y-63288704D02*
X97104762Y-63212514D01*
X97104762Y-63212514D02*
X97104762Y-62983942D01*
X97104762Y-62983942D02*
X97142858Y-62907752D01*
X97142858Y-62907752D02*
X97180953Y-62869657D01*
X97180953Y-62869657D02*
X97257143Y-62831561D01*
X97257143Y-62831561D02*
X97371429Y-62831561D01*
X97371429Y-62831561D02*
X97447620Y-62869657D01*
X97447620Y-62869657D02*
X97485715Y-62907752D01*
X97485715Y-62907752D02*
X97523810Y-62983942D01*
X97523810Y-62983942D02*
X97523810Y-63212514D01*
X97523810Y-63212514D02*
X97485715Y-63288704D01*
X97485715Y-63288704D02*
X97447620Y-63326800D01*
X97447620Y-63326800D02*
X97371429Y-63364895D01*
X97371429Y-63364895D02*
X97257143Y-63364895D01*
X97866668Y-63364895D02*
X97866668Y-62564895D01*
X98209525Y-63364895D02*
X98209525Y-62945847D01*
X98209525Y-62945847D02*
X98171430Y-62869657D01*
X98171430Y-62869657D02*
X98095239Y-62831561D01*
X98095239Y-62831561D02*
X97980953Y-62831561D01*
X97980953Y-62831561D02*
X97904763Y-62869657D01*
X97904763Y-62869657D02*
X97866668Y-62907752D01*
X98590478Y-62831561D02*
X98590478Y-63364895D01*
X98590478Y-62907752D02*
X98628573Y-62869657D01*
X98628573Y-62869657D02*
X98704763Y-62831561D01*
X98704763Y-62831561D02*
X98819049Y-62831561D01*
X98819049Y-62831561D02*
X98895240Y-62869657D01*
X98895240Y-62869657D02*
X98933335Y-62945847D01*
X98933335Y-62945847D02*
X98933335Y-63364895D01*
X99885716Y-62526800D02*
X99200002Y-63555371D01*
X100266668Y-63364895D02*
X100190478Y-63326800D01*
X100190478Y-63326800D02*
X100152383Y-63250609D01*
X100152383Y-63250609D02*
X100152383Y-62564895D01*
X100685716Y-63364895D02*
X100609526Y-63326800D01*
X100609526Y-63326800D02*
X100571431Y-63288704D01*
X100571431Y-63288704D02*
X100533335Y-63212514D01*
X100533335Y-63212514D02*
X100533335Y-62983942D01*
X100533335Y-62983942D02*
X100571431Y-62907752D01*
X100571431Y-62907752D02*
X100609526Y-62869657D01*
X100609526Y-62869657D02*
X100685716Y-62831561D01*
X100685716Y-62831561D02*
X100800002Y-62831561D01*
X100800002Y-62831561D02*
X100876193Y-62869657D01*
X100876193Y-62869657D02*
X100914288Y-62907752D01*
X100914288Y-62907752D02*
X100952383Y-62983942D01*
X100952383Y-62983942D02*
X100952383Y-63212514D01*
X100952383Y-63212514D02*
X100914288Y-63288704D01*
X100914288Y-63288704D02*
X100876193Y-63326800D01*
X100876193Y-63326800D02*
X100800002Y-63364895D01*
X100800002Y-63364895D02*
X100685716Y-63364895D01*
X101295241Y-63364895D02*
X101295241Y-62564895D01*
X101371431Y-63060133D02*
X101600003Y-63364895D01*
X101600003Y-62831561D02*
X101295241Y-63136323D01*
X102247622Y-63326800D02*
X102171431Y-63364895D01*
X102171431Y-63364895D02*
X102019050Y-63364895D01*
X102019050Y-63364895D02*
X101942860Y-63326800D01*
X101942860Y-63326800D02*
X101904764Y-63250609D01*
X101904764Y-63250609D02*
X101904764Y-62945847D01*
X101904764Y-62945847D02*
X101942860Y-62869657D01*
X101942860Y-62869657D02*
X102019050Y-62831561D01*
X102019050Y-62831561D02*
X102171431Y-62831561D01*
X102171431Y-62831561D02*
X102247622Y-62869657D01*
X102247622Y-62869657D02*
X102285717Y-62945847D01*
X102285717Y-62945847D02*
X102285717Y-63022038D01*
X102285717Y-63022038D02*
X101904764Y-63098228D01*
X102552383Y-62831561D02*
X102742859Y-63364895D01*
X102933336Y-62831561D02*
X102742859Y-63364895D01*
X102742859Y-63364895D02*
X102666669Y-63555371D01*
X102666669Y-63555371D02*
X102628574Y-63593466D01*
X102628574Y-63593466D02*
X102552383Y-63631561D01*
X103238098Y-63060133D02*
X103847622Y-63060133D01*
X104152383Y-62564895D02*
X104685717Y-62564895D01*
X104685717Y-62564895D02*
X104342859Y-63364895D01*
X105104764Y-62907752D02*
X105028574Y-62869657D01*
X105028574Y-62869657D02*
X104990479Y-62831561D01*
X104990479Y-62831561D02*
X104952383Y-62755371D01*
X104952383Y-62755371D02*
X104952383Y-62717276D01*
X104952383Y-62717276D02*
X104990479Y-62641085D01*
X104990479Y-62641085D02*
X105028574Y-62602990D01*
X105028574Y-62602990D02*
X105104764Y-62564895D01*
X105104764Y-62564895D02*
X105257145Y-62564895D01*
X105257145Y-62564895D02*
X105333336Y-62602990D01*
X105333336Y-62602990D02*
X105371431Y-62641085D01*
X105371431Y-62641085D02*
X105409526Y-62717276D01*
X105409526Y-62717276D02*
X105409526Y-62755371D01*
X105409526Y-62755371D02*
X105371431Y-62831561D01*
X105371431Y-62831561D02*
X105333336Y-62869657D01*
X105333336Y-62869657D02*
X105257145Y-62907752D01*
X105257145Y-62907752D02*
X105104764Y-62907752D01*
X105104764Y-62907752D02*
X105028574Y-62945847D01*
X105028574Y-62945847D02*
X104990479Y-62983942D01*
X104990479Y-62983942D02*
X104952383Y-63060133D01*
X104952383Y-63060133D02*
X104952383Y-63212514D01*
X104952383Y-63212514D02*
X104990479Y-63288704D01*
X104990479Y-63288704D02*
X105028574Y-63326800D01*
X105028574Y-63326800D02*
X105104764Y-63364895D01*
X105104764Y-63364895D02*
X105257145Y-63364895D01*
X105257145Y-63364895D02*
X105333336Y-63326800D01*
X105333336Y-63326800D02*
X105371431Y-63288704D01*
X105371431Y-63288704D02*
X105409526Y-63212514D01*
X105409526Y-63212514D02*
X105409526Y-63060133D01*
X105409526Y-63060133D02*
X105371431Y-62983942D01*
X105371431Y-62983942D02*
X105333336Y-62945847D01*
X105333336Y-62945847D02*
X105257145Y-62907752D01*
X105904765Y-62564895D02*
X105980955Y-62564895D01*
X105980955Y-62564895D02*
X106057146Y-62602990D01*
X106057146Y-62602990D02*
X106095241Y-62641085D01*
X106095241Y-62641085D02*
X106133336Y-62717276D01*
X106133336Y-62717276D02*
X106171431Y-62869657D01*
X106171431Y-62869657D02*
X106171431Y-63060133D01*
X106171431Y-63060133D02*
X106133336Y-63212514D01*
X106133336Y-63212514D02*
X106095241Y-63288704D01*
X106095241Y-63288704D02*
X106057146Y-63326800D01*
X106057146Y-63326800D02*
X105980955Y-63364895D01*
X105980955Y-63364895D02*
X105904765Y-63364895D01*
X105904765Y-63364895D02*
X105828574Y-63326800D01*
X105828574Y-63326800D02*
X105790479Y-63288704D01*
X105790479Y-63288704D02*
X105752384Y-63212514D01*
X105752384Y-63212514D02*
X105714288Y-63060133D01*
X105714288Y-63060133D02*
X105714288Y-62869657D01*
X105714288Y-62869657D02*
X105752384Y-62717276D01*
X105752384Y-62717276D02*
X105790479Y-62641085D01*
X105790479Y-62641085D02*
X105828574Y-62602990D01*
X105828574Y-62602990D02*
X105904765Y-62564895D01*
X106666670Y-62564895D02*
X106742860Y-62564895D01*
X106742860Y-62564895D02*
X106819051Y-62602990D01*
X106819051Y-62602990D02*
X106857146Y-62641085D01*
X106857146Y-62641085D02*
X106895241Y-62717276D01*
X106895241Y-62717276D02*
X106933336Y-62869657D01*
X106933336Y-62869657D02*
X106933336Y-63060133D01*
X106933336Y-63060133D02*
X106895241Y-63212514D01*
X106895241Y-63212514D02*
X106857146Y-63288704D01*
X106857146Y-63288704D02*
X106819051Y-63326800D01*
X106819051Y-63326800D02*
X106742860Y-63364895D01*
X106742860Y-63364895D02*
X106666670Y-63364895D01*
X106666670Y-63364895D02*
X106590479Y-63326800D01*
X106590479Y-63326800D02*
X106552384Y-63288704D01*
X106552384Y-63288704D02*
X106514289Y-63212514D01*
X106514289Y-63212514D02*
X106476193Y-63060133D01*
X106476193Y-63060133D02*
X106476193Y-62869657D01*
X106476193Y-62869657D02*
X106514289Y-62717276D01*
X106514289Y-62717276D02*
X106552384Y-62641085D01*
X106552384Y-62641085D02*
X106590479Y-62602990D01*
X106590479Y-62602990D02*
X106666670Y-62564895D01*
X107276194Y-63060133D02*
X107885718Y-63060133D01*
X108190479Y-62831561D02*
X108380955Y-63364895D01*
X108571432Y-62831561D02*
X108380955Y-63364895D01*
X108380955Y-63364895D02*
X108304765Y-63555371D01*
X108304765Y-63555371D02*
X108266670Y-63593466D01*
X108266670Y-63593466D02*
X108190479Y-63631561D01*
X108876194Y-63364895D02*
X108876194Y-62831561D01*
X108876194Y-62907752D02*
X108914289Y-62869657D01*
X108914289Y-62869657D02*
X108990479Y-62831561D01*
X108990479Y-62831561D02*
X109104765Y-62831561D01*
X109104765Y-62831561D02*
X109180956Y-62869657D01*
X109180956Y-62869657D02*
X109219051Y-62945847D01*
X109219051Y-62945847D02*
X109219051Y-63364895D01*
X109219051Y-62945847D02*
X109257146Y-62869657D01*
X109257146Y-62869657D02*
X109333337Y-62831561D01*
X109333337Y-62831561D02*
X109447622Y-62831561D01*
X109447622Y-62831561D02*
X109523813Y-62869657D01*
X109523813Y-62869657D02*
X109561908Y-62945847D01*
X109561908Y-62945847D02*
X109561908Y-63364895D01*
X83788704Y-102507142D02*
X83826800Y-102545238D01*
X83826800Y-102545238D02*
X83864895Y-102659523D01*
X83864895Y-102659523D02*
X83864895Y-102735714D01*
X83864895Y-102735714D02*
X83826800Y-102850000D01*
X83826800Y-102850000D02*
X83750609Y-102926190D01*
X83750609Y-102926190D02*
X83674419Y-102964285D01*
X83674419Y-102964285D02*
X83522038Y-103002381D01*
X83522038Y-103002381D02*
X83407752Y-103002381D01*
X83407752Y-103002381D02*
X83255371Y-102964285D01*
X83255371Y-102964285D02*
X83179180Y-102926190D01*
X83179180Y-102926190D02*
X83102990Y-102850000D01*
X83102990Y-102850000D02*
X83064895Y-102735714D01*
X83064895Y-102735714D02*
X83064895Y-102659523D01*
X83064895Y-102659523D02*
X83102990Y-102545238D01*
X83102990Y-102545238D02*
X83141085Y-102507142D01*
X83941085Y-102354762D02*
X83941085Y-101745238D01*
X83636323Y-101592857D02*
X83636323Y-101211904D01*
X83864895Y-101669047D02*
X83064895Y-101402380D01*
X83064895Y-101402380D02*
X83864895Y-101135714D01*
X83864895Y-100869047D02*
X83064895Y-100869047D01*
X83064895Y-100869047D02*
X83636323Y-100602381D01*
X83636323Y-100602381D02*
X83064895Y-100335714D01*
X83064895Y-100335714D02*
X83864895Y-100335714D01*
X83864895Y-99954761D02*
X83064895Y-99954761D01*
X83064895Y-99954761D02*
X83064895Y-99649999D01*
X83064895Y-99649999D02*
X83102990Y-99573809D01*
X83102990Y-99573809D02*
X83141085Y-99535714D01*
X83141085Y-99535714D02*
X83217276Y-99497618D01*
X83217276Y-99497618D02*
X83331561Y-99497618D01*
X83331561Y-99497618D02*
X83407752Y-99535714D01*
X83407752Y-99535714D02*
X83445847Y-99573809D01*
X83445847Y-99573809D02*
X83483942Y-99649999D01*
X83483942Y-99649999D02*
X83483942Y-99954761D01*
D11*
X118209930Y-115515078D02*
X118590882Y-115515078D01*
X118590882Y-115515078D02*
X118667073Y-115540474D01*
X118667073Y-115540474D02*
X118717867Y-115591268D01*
X118717867Y-115591268D02*
X118743263Y-115667458D01*
X118743263Y-115667458D02*
X118743263Y-115718252D01*
X118743263Y-115261109D02*
X118209930Y-115261109D01*
X118209930Y-115261109D02*
X118209930Y-115057935D01*
X118209930Y-115057935D02*
X118235327Y-115007141D01*
X118235327Y-115007141D02*
X118260724Y-114981745D01*
X118260724Y-114981745D02*
X118311518Y-114956348D01*
X118311518Y-114956348D02*
X118387708Y-114956348D01*
X118387708Y-114956348D02*
X118438502Y-114981745D01*
X118438502Y-114981745D02*
X118463898Y-115007141D01*
X118463898Y-115007141D02*
X118489295Y-115057935D01*
X118489295Y-115057935D02*
X118489295Y-115261109D01*
X118743263Y-114448412D02*
X118743263Y-114753173D01*
X118743263Y-114600792D02*
X118209930Y-114600792D01*
X118209930Y-114600792D02*
X118286121Y-114651586D01*
X118286121Y-114651586D02*
X118336914Y-114702380D01*
X118336914Y-114702380D02*
X118362311Y-114753173D01*
X118946438Y-113661111D02*
X118921041Y-113686507D01*
X118921041Y-113686507D02*
X118844851Y-113737301D01*
X118844851Y-113737301D02*
X118794057Y-113762698D01*
X118794057Y-113762698D02*
X118717867Y-113788095D01*
X118717867Y-113788095D02*
X118590882Y-113813491D01*
X118590882Y-113813491D02*
X118489295Y-113813491D01*
X118489295Y-113813491D02*
X118362311Y-113788095D01*
X118362311Y-113788095D02*
X118286121Y-113762698D01*
X118286121Y-113762698D02*
X118235327Y-113737301D01*
X118235327Y-113737301D02*
X118159137Y-113686507D01*
X118159137Y-113686507D02*
X118133740Y-113661111D01*
X118209930Y-113534127D02*
X118743263Y-113356349D01*
X118743263Y-113356349D02*
X118209930Y-113178572D01*
X118743263Y-113000793D02*
X118209930Y-113000793D01*
X118209930Y-113000793D02*
X118209930Y-112797619D01*
X118209930Y-112797619D02*
X118235327Y-112746825D01*
X118235327Y-112746825D02*
X118260724Y-112721429D01*
X118260724Y-112721429D02*
X118311518Y-112696032D01*
X118311518Y-112696032D02*
X118387708Y-112696032D01*
X118387708Y-112696032D02*
X118438502Y-112721429D01*
X118438502Y-112721429D02*
X118463898Y-112746825D01*
X118463898Y-112746825D02*
X118489295Y-112797619D01*
X118489295Y-112797619D02*
X118489295Y-113000793D01*
X118743263Y-112467460D02*
X118209930Y-112467460D01*
X118209930Y-112467460D02*
X118209930Y-112264286D01*
X118209930Y-112264286D02*
X118235327Y-112213492D01*
X118235327Y-112213492D02*
X118260724Y-112188096D01*
X118260724Y-112188096D02*
X118311518Y-112162699D01*
X118311518Y-112162699D02*
X118387708Y-112162699D01*
X118387708Y-112162699D02*
X118438502Y-112188096D01*
X118438502Y-112188096D02*
X118463898Y-112213492D01*
X118463898Y-112213492D02*
X118489295Y-112264286D01*
X118489295Y-112264286D02*
X118489295Y-112467460D01*
X118946438Y-111984921D02*
X118921041Y-111959524D01*
X118921041Y-111959524D02*
X118844851Y-111908731D01*
X118844851Y-111908731D02*
X118794057Y-111883334D01*
X118794057Y-111883334D02*
X118717867Y-111857937D01*
X118717867Y-111857937D02*
X118590882Y-111832540D01*
X118590882Y-111832540D02*
X118489295Y-111832540D01*
X118489295Y-111832540D02*
X118362311Y-111857937D01*
X118362311Y-111857937D02*
X118286121Y-111883334D01*
X118286121Y-111883334D02*
X118235327Y-111908731D01*
X118235327Y-111908731D02*
X118159137Y-111959524D01*
X118159137Y-111959524D02*
X118133740Y-111984921D01*
D12*
X121568161Y-113026189D02*
X121568161Y-112835713D01*
X121682447Y-113064284D02*
X121282447Y-112930951D01*
X121282447Y-112930951D02*
X121682447Y-112797618D01*
X121682447Y-112454761D02*
X121682447Y-112683332D01*
X121682447Y-112569046D02*
X121282447Y-112569046D01*
X121282447Y-112569046D02*
X121339590Y-112607142D01*
X121339590Y-112607142D02*
X121377685Y-112645237D01*
X121377685Y-112645237D02*
X121396733Y-112683332D01*
X121282447Y-112092856D02*
X121282447Y-112283332D01*
X121282447Y-112283332D02*
X121472923Y-112302380D01*
X121472923Y-112302380D02*
X121453876Y-112283332D01*
X121453876Y-112283332D02*
X121434828Y-112245237D01*
X121434828Y-112245237D02*
X121434828Y-112149999D01*
X121434828Y-112149999D02*
X121453876Y-112111904D01*
X121453876Y-112111904D02*
X121472923Y-112092856D01*
X121472923Y-112092856D02*
X121511019Y-112073809D01*
X121511019Y-112073809D02*
X121606257Y-112073809D01*
X121606257Y-112073809D02*
X121644352Y-112092856D01*
X121644352Y-112092856D02*
X121663400Y-112111904D01*
X121663400Y-112111904D02*
X121682447Y-112149999D01*
X121682447Y-112149999D02*
X121682447Y-112245237D01*
X121682447Y-112245237D02*
X121663400Y-112283332D01*
X121663400Y-112283332D02*
X121644352Y-112302380D01*
X121282447Y-115483332D02*
X121682447Y-115349999D01*
X121682447Y-115349999D02*
X121282447Y-115216666D01*
X121644352Y-114854761D02*
X121663400Y-114873809D01*
X121663400Y-114873809D02*
X121682447Y-114930951D01*
X121682447Y-114930951D02*
X121682447Y-114969047D01*
X121682447Y-114969047D02*
X121663400Y-115026190D01*
X121663400Y-115026190D02*
X121625304Y-115064285D01*
X121625304Y-115064285D02*
X121587209Y-115083332D01*
X121587209Y-115083332D02*
X121511019Y-115102380D01*
X121511019Y-115102380D02*
X121453876Y-115102380D01*
X121453876Y-115102380D02*
X121377685Y-115083332D01*
X121377685Y-115083332D02*
X121339590Y-115064285D01*
X121339590Y-115064285D02*
X121301495Y-115026190D01*
X121301495Y-115026190D02*
X121282447Y-114969047D01*
X121282447Y-114969047D02*
X121282447Y-114930951D01*
X121282447Y-114930951D02*
X121301495Y-114873809D01*
X121301495Y-114873809D02*
X121320542Y-114854761D01*
X121644352Y-114454761D02*
X121663400Y-114473809D01*
X121663400Y-114473809D02*
X121682447Y-114530951D01*
X121682447Y-114530951D02*
X121682447Y-114569047D01*
X121682447Y-114569047D02*
X121663400Y-114626190D01*
X121663400Y-114626190D02*
X121625304Y-114664285D01*
X121625304Y-114664285D02*
X121587209Y-114683332D01*
X121587209Y-114683332D02*
X121511019Y-114702380D01*
X121511019Y-114702380D02*
X121453876Y-114702380D01*
X121453876Y-114702380D02*
X121377685Y-114683332D01*
X121377685Y-114683332D02*
X121339590Y-114664285D01*
X121339590Y-114664285D02*
X121301495Y-114626190D01*
X121301495Y-114626190D02*
X121282447Y-114569047D01*
X121282447Y-114569047D02*
X121282447Y-114530951D01*
X121282447Y-114530951D02*
X121301495Y-114473809D01*
X121301495Y-114473809D02*
X121320542Y-114454761D01*
D10*
X110133333Y-86288704D02*
X110095237Y-86326800D01*
X110095237Y-86326800D02*
X109980952Y-86364895D01*
X109980952Y-86364895D02*
X109904761Y-86364895D01*
X109904761Y-86364895D02*
X109790475Y-86326800D01*
X109790475Y-86326800D02*
X109714285Y-86250609D01*
X109714285Y-86250609D02*
X109676190Y-86174419D01*
X109676190Y-86174419D02*
X109638094Y-86022038D01*
X109638094Y-86022038D02*
X109638094Y-85907752D01*
X109638094Y-85907752D02*
X109676190Y-85755371D01*
X109676190Y-85755371D02*
X109714285Y-85679180D01*
X109714285Y-85679180D02*
X109790475Y-85602990D01*
X109790475Y-85602990D02*
X109904761Y-85564895D01*
X109904761Y-85564895D02*
X109980952Y-85564895D01*
X109980952Y-85564895D02*
X110095237Y-85602990D01*
X110095237Y-85602990D02*
X110133333Y-85641085D01*
X110285714Y-86441085D02*
X110895237Y-86441085D01*
X111542857Y-86364895D02*
X111276190Y-85983942D01*
X111085714Y-86364895D02*
X111085714Y-85564895D01*
X111085714Y-85564895D02*
X111390476Y-85564895D01*
X111390476Y-85564895D02*
X111466666Y-85602990D01*
X111466666Y-85602990D02*
X111504761Y-85641085D01*
X111504761Y-85641085D02*
X111542857Y-85717276D01*
X111542857Y-85717276D02*
X111542857Y-85831561D01*
X111542857Y-85831561D02*
X111504761Y-85907752D01*
X111504761Y-85907752D02*
X111466666Y-85945847D01*
X111466666Y-85945847D02*
X111390476Y-85983942D01*
X111390476Y-85983942D02*
X111085714Y-85983942D01*
X111885714Y-85945847D02*
X112152380Y-85945847D01*
X112266666Y-86364895D02*
X111885714Y-86364895D01*
X111885714Y-86364895D02*
X111885714Y-85564895D01*
X111885714Y-85564895D02*
X112266666Y-85564895D01*
X112571428Y-86326800D02*
X112685714Y-86364895D01*
X112685714Y-86364895D02*
X112876190Y-86364895D01*
X112876190Y-86364895D02*
X112952381Y-86326800D01*
X112952381Y-86326800D02*
X112990476Y-86288704D01*
X112990476Y-86288704D02*
X113028571Y-86212514D01*
X113028571Y-86212514D02*
X113028571Y-86136323D01*
X113028571Y-86136323D02*
X112990476Y-86060133D01*
X112990476Y-86060133D02*
X112952381Y-86022038D01*
X112952381Y-86022038D02*
X112876190Y-85983942D01*
X112876190Y-85983942D02*
X112723809Y-85945847D01*
X112723809Y-85945847D02*
X112647619Y-85907752D01*
X112647619Y-85907752D02*
X112609524Y-85869657D01*
X112609524Y-85869657D02*
X112571428Y-85793466D01*
X112571428Y-85793466D02*
X112571428Y-85717276D01*
X112571428Y-85717276D02*
X112609524Y-85641085D01*
X112609524Y-85641085D02*
X112647619Y-85602990D01*
X112647619Y-85602990D02*
X112723809Y-85564895D01*
X112723809Y-85564895D02*
X112914286Y-85564895D01*
X112914286Y-85564895D02*
X113028571Y-85602990D01*
X113371429Y-85945847D02*
X113638095Y-85945847D01*
X113752381Y-86364895D02*
X113371429Y-86364895D01*
X113371429Y-86364895D02*
X113371429Y-85564895D01*
X113371429Y-85564895D02*
X113752381Y-85564895D01*
X113980953Y-85564895D02*
X114438096Y-85564895D01*
X114209524Y-86364895D02*
X114209524Y-85564895D01*
X125194895Y-77333332D02*
X125842514Y-77333332D01*
X125842514Y-77333332D02*
X125918704Y-77295237D01*
X125918704Y-77295237D02*
X125956800Y-77257142D01*
X125956800Y-77257142D02*
X125994895Y-77180951D01*
X125994895Y-77180951D02*
X125994895Y-77028570D01*
X125994895Y-77028570D02*
X125956800Y-76952380D01*
X125956800Y-76952380D02*
X125918704Y-76914285D01*
X125918704Y-76914285D02*
X125842514Y-76876189D01*
X125842514Y-76876189D02*
X125194895Y-76876189D01*
X126071085Y-76685714D02*
X126071085Y-76076190D01*
X125613942Y-75733332D02*
X125994895Y-75733332D01*
X125194895Y-75999999D02*
X125613942Y-75733332D01*
X125613942Y-75733332D02*
X125194895Y-75466666D01*
X125994895Y-75199999D02*
X125194895Y-75199999D01*
X125194895Y-75199999D02*
X125766323Y-74933333D01*
X125766323Y-74933333D02*
X125194895Y-74666666D01*
X125194895Y-74666666D02*
X125994895Y-74666666D01*
X84666667Y-86364895D02*
X84400000Y-85983942D01*
X84209524Y-86364895D02*
X84209524Y-85564895D01*
X84209524Y-85564895D02*
X84514286Y-85564895D01*
X84514286Y-85564895D02*
X84590476Y-85602990D01*
X84590476Y-85602990D02*
X84628571Y-85641085D01*
X84628571Y-85641085D02*
X84666667Y-85717276D01*
X84666667Y-85717276D02*
X84666667Y-85831561D01*
X84666667Y-85831561D02*
X84628571Y-85907752D01*
X84628571Y-85907752D02*
X84590476Y-85945847D01*
X84590476Y-85945847D02*
X84514286Y-85983942D01*
X84514286Y-85983942D02*
X84209524Y-85983942D01*
X84819048Y-86441085D02*
X85428571Y-86441085D01*
X85771429Y-85983942D02*
X85771429Y-86364895D01*
X85504762Y-85564895D02*
X85771429Y-85983942D01*
X85771429Y-85983942D02*
X86038095Y-85564895D01*
X86304762Y-86364895D02*
X86304762Y-85564895D01*
X86304762Y-85564895D02*
X86571428Y-86136323D01*
X86571428Y-86136323D02*
X86838095Y-85564895D01*
X86838095Y-85564895D02*
X86838095Y-86364895D01*
X87028572Y-86441085D02*
X87638095Y-86441085D01*
X87790476Y-86136323D02*
X88171429Y-86136323D01*
X87714286Y-86364895D02*
X87980953Y-85564895D01*
X87980953Y-85564895D02*
X88247619Y-86364895D01*
X88514286Y-85564895D02*
X88514286Y-86212514D01*
X88514286Y-86212514D02*
X88552381Y-86288704D01*
X88552381Y-86288704D02*
X88590476Y-86326800D01*
X88590476Y-86326800D02*
X88666667Y-86364895D01*
X88666667Y-86364895D02*
X88819048Y-86364895D01*
X88819048Y-86364895D02*
X88895238Y-86326800D01*
X88895238Y-86326800D02*
X88933333Y-86288704D01*
X88933333Y-86288704D02*
X88971429Y-86212514D01*
X88971429Y-86212514D02*
X88971429Y-85564895D01*
X89352381Y-86364895D02*
X89352381Y-85564895D01*
X89352381Y-85564895D02*
X89542857Y-85564895D01*
X89542857Y-85564895D02*
X89657143Y-85602990D01*
X89657143Y-85602990D02*
X89733333Y-85679180D01*
X89733333Y-85679180D02*
X89771428Y-85755371D01*
X89771428Y-85755371D02*
X89809524Y-85907752D01*
X89809524Y-85907752D02*
X89809524Y-86022038D01*
X89809524Y-86022038D02*
X89771428Y-86174419D01*
X89771428Y-86174419D02*
X89733333Y-86250609D01*
X89733333Y-86250609D02*
X89657143Y-86326800D01*
X89657143Y-86326800D02*
X89542857Y-86364895D01*
X89542857Y-86364895D02*
X89352381Y-86364895D01*
X90152381Y-86364895D02*
X90152381Y-85564895D01*
X90685714Y-85564895D02*
X90838095Y-85564895D01*
X90838095Y-85564895D02*
X90914285Y-85602990D01*
X90914285Y-85602990D02*
X90990476Y-85679180D01*
X90990476Y-85679180D02*
X91028571Y-85831561D01*
X91028571Y-85831561D02*
X91028571Y-86098228D01*
X91028571Y-86098228D02*
X90990476Y-86250609D01*
X90990476Y-86250609D02*
X90914285Y-86326800D01*
X90914285Y-86326800D02*
X90838095Y-86364895D01*
X90838095Y-86364895D02*
X90685714Y-86364895D01*
X90685714Y-86364895D02*
X90609523Y-86326800D01*
X90609523Y-86326800D02*
X90533333Y-86250609D01*
X90533333Y-86250609D02*
X90495237Y-86098228D01*
X90495237Y-86098228D02*
X90495237Y-85831561D01*
X90495237Y-85831561D02*
X90533333Y-85679180D01*
X90533333Y-85679180D02*
X90609523Y-85602990D01*
X90609523Y-85602990D02*
X90685714Y-85564895D01*
X91828571Y-86288704D02*
X91790475Y-86326800D01*
X91790475Y-86326800D02*
X91676190Y-86364895D01*
X91676190Y-86364895D02*
X91599999Y-86364895D01*
X91599999Y-86364895D02*
X91485713Y-86326800D01*
X91485713Y-86326800D02*
X91409523Y-86250609D01*
X91409523Y-86250609D02*
X91371428Y-86174419D01*
X91371428Y-86174419D02*
X91333332Y-86022038D01*
X91333332Y-86022038D02*
X91333332Y-85907752D01*
X91333332Y-85907752D02*
X91371428Y-85755371D01*
X91371428Y-85755371D02*
X91409523Y-85679180D01*
X91409523Y-85679180D02*
X91485713Y-85602990D01*
X91485713Y-85602990D02*
X91599999Y-85564895D01*
X91599999Y-85564895D02*
X91676190Y-85564895D01*
X91676190Y-85564895D02*
X91790475Y-85602990D01*
X91790475Y-85602990D02*
X91828571Y-85641085D01*
X108864895Y-102773808D02*
X108483942Y-103040475D01*
X108864895Y-103230951D02*
X108064895Y-103230951D01*
X108064895Y-103230951D02*
X108064895Y-102926189D01*
X108064895Y-102926189D02*
X108102990Y-102849999D01*
X108102990Y-102849999D02*
X108141085Y-102811904D01*
X108141085Y-102811904D02*
X108217276Y-102773808D01*
X108217276Y-102773808D02*
X108331561Y-102773808D01*
X108331561Y-102773808D02*
X108407752Y-102811904D01*
X108407752Y-102811904D02*
X108445847Y-102849999D01*
X108445847Y-102849999D02*
X108483942Y-102926189D01*
X108483942Y-102926189D02*
X108483942Y-103230951D01*
X108941085Y-102621428D02*
X108941085Y-102011904D01*
X108864895Y-101821427D02*
X108064895Y-101821427D01*
X108064895Y-101821427D02*
X108064895Y-101516665D01*
X108064895Y-101516665D02*
X108102990Y-101440475D01*
X108102990Y-101440475D02*
X108141085Y-101402380D01*
X108141085Y-101402380D02*
X108217276Y-101364284D01*
X108217276Y-101364284D02*
X108331561Y-101364284D01*
X108331561Y-101364284D02*
X108407752Y-101402380D01*
X108407752Y-101402380D02*
X108445847Y-101440475D01*
X108445847Y-101440475D02*
X108483942Y-101516665D01*
X108483942Y-101516665D02*
X108483942Y-101821427D01*
X108064895Y-101021427D02*
X108712514Y-101021427D01*
X108712514Y-101021427D02*
X108788704Y-100983332D01*
X108788704Y-100983332D02*
X108826800Y-100945237D01*
X108826800Y-100945237D02*
X108864895Y-100869046D01*
X108864895Y-100869046D02*
X108864895Y-100716665D01*
X108864895Y-100716665D02*
X108826800Y-100640475D01*
X108826800Y-100640475D02*
X108788704Y-100602380D01*
X108788704Y-100602380D02*
X108712514Y-100564284D01*
X108712514Y-100564284D02*
X108064895Y-100564284D01*
X108864895Y-99802380D02*
X108864895Y-100183332D01*
X108864895Y-100183332D02*
X108064895Y-100183332D01*
X108864895Y-99154761D02*
X108864895Y-99535713D01*
X108864895Y-99535713D02*
X108064895Y-99535713D01*
X117574895Y-120059523D02*
X118222514Y-120059523D01*
X118222514Y-120059523D02*
X118298704Y-120021428D01*
X118298704Y-120021428D02*
X118336800Y-119983333D01*
X118336800Y-119983333D02*
X118374895Y-119907142D01*
X118374895Y-119907142D02*
X118374895Y-119754761D01*
X118374895Y-119754761D02*
X118336800Y-119678571D01*
X118336800Y-119678571D02*
X118298704Y-119640476D01*
X118298704Y-119640476D02*
X118222514Y-119602380D01*
X118222514Y-119602380D02*
X117574895Y-119602380D01*
X118451085Y-119411905D02*
X118451085Y-118802381D01*
X118374895Y-118154761D02*
X117993942Y-118421428D01*
X118374895Y-118611904D02*
X117574895Y-118611904D01*
X117574895Y-118611904D02*
X117574895Y-118307142D01*
X117574895Y-118307142D02*
X117612990Y-118230952D01*
X117612990Y-118230952D02*
X117651085Y-118192857D01*
X117651085Y-118192857D02*
X117727276Y-118154761D01*
X117727276Y-118154761D02*
X117841561Y-118154761D01*
X117841561Y-118154761D02*
X117917752Y-118192857D01*
X117917752Y-118192857D02*
X117955847Y-118230952D01*
X117955847Y-118230952D02*
X117993942Y-118307142D01*
X117993942Y-118307142D02*
X117993942Y-118611904D01*
X117574895Y-117659523D02*
X117574895Y-117507142D01*
X117574895Y-117507142D02*
X117612990Y-117430952D01*
X117612990Y-117430952D02*
X117689180Y-117354761D01*
X117689180Y-117354761D02*
X117841561Y-117316666D01*
X117841561Y-117316666D02*
X118108228Y-117316666D01*
X118108228Y-117316666D02*
X118260609Y-117354761D01*
X118260609Y-117354761D02*
X118336800Y-117430952D01*
X118336800Y-117430952D02*
X118374895Y-117507142D01*
X118374895Y-117507142D02*
X118374895Y-117659523D01*
X118374895Y-117659523D02*
X118336800Y-117735714D01*
X118336800Y-117735714D02*
X118260609Y-117811904D01*
X118260609Y-117811904D02*
X118108228Y-117850000D01*
X118108228Y-117850000D02*
X117841561Y-117850000D01*
X117841561Y-117850000D02*
X117689180Y-117811904D01*
X117689180Y-117811904D02*
X117612990Y-117735714D01*
X117612990Y-117735714D02*
X117574895Y-117659523D01*
X118374895Y-116973809D02*
X117574895Y-116973809D01*
X117574895Y-116973809D02*
X118146323Y-116707143D01*
X118146323Y-116707143D02*
X117574895Y-116440476D01*
X117574895Y-116440476D02*
X118374895Y-116440476D01*
X104874895Y-102983332D02*
X105522514Y-102983332D01*
X105522514Y-102983332D02*
X105598704Y-102945237D01*
X105598704Y-102945237D02*
X105636800Y-102907142D01*
X105636800Y-102907142D02*
X105674895Y-102830951D01*
X105674895Y-102830951D02*
X105674895Y-102678570D01*
X105674895Y-102678570D02*
X105636800Y-102602380D01*
X105636800Y-102602380D02*
X105598704Y-102564285D01*
X105598704Y-102564285D02*
X105522514Y-102526189D01*
X105522514Y-102526189D02*
X104874895Y-102526189D01*
X105751085Y-102335714D02*
X105751085Y-101726190D01*
X105446323Y-101573809D02*
X105446323Y-101192856D01*
X105674895Y-101649999D02*
X104874895Y-101383332D01*
X104874895Y-101383332D02*
X105674895Y-101116666D01*
X105674895Y-100849999D02*
X104874895Y-100849999D01*
X104874895Y-100849999D02*
X105446323Y-100583333D01*
X105446323Y-100583333D02*
X104874895Y-100316666D01*
X104874895Y-100316666D02*
X105674895Y-100316666D01*
X105674895Y-99935713D02*
X104874895Y-99935713D01*
X104874895Y-99935713D02*
X104874895Y-99630951D01*
X104874895Y-99630951D02*
X104912990Y-99554761D01*
X104912990Y-99554761D02*
X104951085Y-99516666D01*
X104951085Y-99516666D02*
X105027276Y-99478570D01*
X105027276Y-99478570D02*
X105141561Y-99478570D01*
X105141561Y-99478570D02*
X105217752Y-99516666D01*
X105217752Y-99516666D02*
X105255847Y-99554761D01*
X105255847Y-99554761D02*
X105293942Y-99630951D01*
X105293942Y-99630951D02*
X105293942Y-99935713D01*
X121788704Y-119583332D02*
X121826800Y-119621428D01*
X121826800Y-119621428D02*
X121864895Y-119735713D01*
X121864895Y-119735713D02*
X121864895Y-119811904D01*
X121864895Y-119811904D02*
X121826800Y-119926190D01*
X121826800Y-119926190D02*
X121750609Y-120002380D01*
X121750609Y-120002380D02*
X121674419Y-120040475D01*
X121674419Y-120040475D02*
X121522038Y-120078571D01*
X121522038Y-120078571D02*
X121407752Y-120078571D01*
X121407752Y-120078571D02*
X121255371Y-120040475D01*
X121255371Y-120040475D02*
X121179180Y-120002380D01*
X121179180Y-120002380D02*
X121102990Y-119926190D01*
X121102990Y-119926190D02*
X121064895Y-119811904D01*
X121064895Y-119811904D02*
X121064895Y-119735713D01*
X121064895Y-119735713D02*
X121102990Y-119621428D01*
X121102990Y-119621428D02*
X121141085Y-119583332D01*
X121941085Y-119430952D02*
X121941085Y-118821428D01*
X121864895Y-118173808D02*
X121483942Y-118440475D01*
X121864895Y-118630951D02*
X121064895Y-118630951D01*
X121064895Y-118630951D02*
X121064895Y-118326189D01*
X121064895Y-118326189D02*
X121102990Y-118249999D01*
X121102990Y-118249999D02*
X121141085Y-118211904D01*
X121141085Y-118211904D02*
X121217276Y-118173808D01*
X121217276Y-118173808D02*
X121331561Y-118173808D01*
X121331561Y-118173808D02*
X121407752Y-118211904D01*
X121407752Y-118211904D02*
X121445847Y-118249999D01*
X121445847Y-118249999D02*
X121483942Y-118326189D01*
X121483942Y-118326189D02*
X121483942Y-118630951D01*
X121064895Y-117678570D02*
X121064895Y-117526189D01*
X121064895Y-117526189D02*
X121102990Y-117449999D01*
X121102990Y-117449999D02*
X121179180Y-117373808D01*
X121179180Y-117373808D02*
X121331561Y-117335713D01*
X121331561Y-117335713D02*
X121598228Y-117335713D01*
X121598228Y-117335713D02*
X121750609Y-117373808D01*
X121750609Y-117373808D02*
X121826800Y-117449999D01*
X121826800Y-117449999D02*
X121864895Y-117526189D01*
X121864895Y-117526189D02*
X121864895Y-117678570D01*
X121864895Y-117678570D02*
X121826800Y-117754761D01*
X121826800Y-117754761D02*
X121750609Y-117830951D01*
X121750609Y-117830951D02*
X121598228Y-117869047D01*
X121598228Y-117869047D02*
X121331561Y-117869047D01*
X121331561Y-117869047D02*
X121179180Y-117830951D01*
X121179180Y-117830951D02*
X121102990Y-117754761D01*
X121102990Y-117754761D02*
X121064895Y-117678570D01*
X121864895Y-116992856D02*
X121064895Y-116992856D01*
X121064895Y-116992856D02*
X121636323Y-116726190D01*
X121636323Y-116726190D02*
X121064895Y-116459523D01*
X121064895Y-116459523D02*
X121864895Y-116459523D01*
X77228571Y-141854895D02*
X76771428Y-141854895D01*
X77000000Y-141854895D02*
X77000000Y-141054895D01*
X77000000Y-141054895D02*
X76923809Y-141169180D01*
X76923809Y-141169180D02*
X76847619Y-141245371D01*
X76847619Y-141245371D02*
X76771428Y-141283466D01*
X122847618Y-141854895D02*
X122390475Y-141854895D01*
X122619047Y-141854895D02*
X122619047Y-141054895D01*
X122619047Y-141054895D02*
X122542856Y-141169180D01*
X122542856Y-141169180D02*
X122466666Y-141245371D01*
X122466666Y-141245371D02*
X122390475Y-141283466D01*
X123533333Y-141054895D02*
X123380952Y-141054895D01*
X123380952Y-141054895D02*
X123304761Y-141092990D01*
X123304761Y-141092990D02*
X123266666Y-141131085D01*
X123266666Y-141131085D02*
X123190476Y-141245371D01*
X123190476Y-141245371D02*
X123152380Y-141397752D01*
X123152380Y-141397752D02*
X123152380Y-141702514D01*
X123152380Y-141702514D02*
X123190476Y-141778704D01*
X123190476Y-141778704D02*
X123228571Y-141816800D01*
X123228571Y-141816800D02*
X123304761Y-141854895D01*
X123304761Y-141854895D02*
X123457142Y-141854895D01*
X123457142Y-141854895D02*
X123533333Y-141816800D01*
X123533333Y-141816800D02*
X123571428Y-141778704D01*
X123571428Y-141778704D02*
X123609523Y-141702514D01*
X123609523Y-141702514D02*
X123609523Y-141512038D01*
X123609523Y-141512038D02*
X123571428Y-141435847D01*
X123571428Y-141435847D02*
X123533333Y-141397752D01*
X123533333Y-141397752D02*
X123457142Y-141359657D01*
X123457142Y-141359657D02*
X123304761Y-141359657D01*
X123304761Y-141359657D02*
X123228571Y-141397752D01*
X123228571Y-141397752D02*
X123190476Y-141435847D01*
X123190476Y-141435847D02*
X123152380Y-141512038D01*
X129788704Y-76857142D02*
X129826800Y-76895238D01*
X129826800Y-76895238D02*
X129864895Y-77009523D01*
X129864895Y-77009523D02*
X129864895Y-77085714D01*
X129864895Y-77085714D02*
X129826800Y-77200000D01*
X129826800Y-77200000D02*
X129750609Y-77276190D01*
X129750609Y-77276190D02*
X129674419Y-77314285D01*
X129674419Y-77314285D02*
X129522038Y-77352381D01*
X129522038Y-77352381D02*
X129407752Y-77352381D01*
X129407752Y-77352381D02*
X129255371Y-77314285D01*
X129255371Y-77314285D02*
X129179180Y-77276190D01*
X129179180Y-77276190D02*
X129102990Y-77200000D01*
X129102990Y-77200000D02*
X129064895Y-77085714D01*
X129064895Y-77085714D02*
X129064895Y-77009523D01*
X129064895Y-77009523D02*
X129102990Y-76895238D01*
X129102990Y-76895238D02*
X129141085Y-76857142D01*
X129941085Y-76704762D02*
X129941085Y-76095238D01*
X129483942Y-75752380D02*
X129864895Y-75752380D01*
X129064895Y-76019047D02*
X129483942Y-75752380D01*
X129483942Y-75752380D02*
X129064895Y-75485714D01*
X129864895Y-75219047D02*
X129064895Y-75219047D01*
X129064895Y-75219047D02*
X129636323Y-74952381D01*
X129636323Y-74952381D02*
X129064895Y-74685714D01*
X129064895Y-74685714D02*
X129864895Y-74685714D01*
X88864895Y-102049999D02*
X88483942Y-102316666D01*
X88864895Y-102507142D02*
X88064895Y-102507142D01*
X88064895Y-102507142D02*
X88064895Y-102202380D01*
X88064895Y-102202380D02*
X88102990Y-102126190D01*
X88102990Y-102126190D02*
X88141085Y-102088095D01*
X88141085Y-102088095D02*
X88217276Y-102049999D01*
X88217276Y-102049999D02*
X88331561Y-102049999D01*
X88331561Y-102049999D02*
X88407752Y-102088095D01*
X88407752Y-102088095D02*
X88445847Y-102126190D01*
X88445847Y-102126190D02*
X88483942Y-102202380D01*
X88483942Y-102202380D02*
X88483942Y-102507142D01*
X88941085Y-101897619D02*
X88941085Y-101288095D01*
X88445847Y-100830952D02*
X88445847Y-101097618D01*
X88864895Y-101097618D02*
X88064895Y-101097618D01*
X88064895Y-101097618D02*
X88064895Y-100716666D01*
X88445847Y-100145238D02*
X88483942Y-100030952D01*
X88483942Y-100030952D02*
X88522038Y-99992857D01*
X88522038Y-99992857D02*
X88598228Y-99954761D01*
X88598228Y-99954761D02*
X88712514Y-99954761D01*
X88712514Y-99954761D02*
X88788704Y-99992857D01*
X88788704Y-99992857D02*
X88826800Y-100030952D01*
X88826800Y-100030952D02*
X88864895Y-100107142D01*
X88864895Y-100107142D02*
X88864895Y-100411904D01*
X88864895Y-100411904D02*
X88064895Y-100411904D01*
X88064895Y-100411904D02*
X88064895Y-100145238D01*
X88064895Y-100145238D02*
X88102990Y-100069047D01*
X88102990Y-100069047D02*
X88141085Y-100030952D01*
X88141085Y-100030952D02*
X88217276Y-99992857D01*
X88217276Y-99992857D02*
X88293466Y-99992857D01*
X88293466Y-99992857D02*
X88369657Y-100030952D01*
X88369657Y-100030952D02*
X88407752Y-100069047D01*
X88407752Y-100069047D02*
X88445847Y-100145238D01*
X88445847Y-100145238D02*
X88445847Y-100411904D01*
X118788704Y-104526189D02*
X118826800Y-104564285D01*
X118826800Y-104564285D02*
X118864895Y-104678570D01*
X118864895Y-104678570D02*
X118864895Y-104754761D01*
X118864895Y-104754761D02*
X118826800Y-104869047D01*
X118826800Y-104869047D02*
X118750609Y-104945237D01*
X118750609Y-104945237D02*
X118674419Y-104983332D01*
X118674419Y-104983332D02*
X118522038Y-105021428D01*
X118522038Y-105021428D02*
X118407752Y-105021428D01*
X118407752Y-105021428D02*
X118255371Y-104983332D01*
X118255371Y-104983332D02*
X118179180Y-104945237D01*
X118179180Y-104945237D02*
X118102990Y-104869047D01*
X118102990Y-104869047D02*
X118064895Y-104754761D01*
X118064895Y-104754761D02*
X118064895Y-104678570D01*
X118064895Y-104678570D02*
X118102990Y-104564285D01*
X118102990Y-104564285D02*
X118141085Y-104526189D01*
X118941085Y-104373809D02*
X118941085Y-103764285D01*
X118636323Y-103611904D02*
X118636323Y-103230951D01*
X118864895Y-103688094D02*
X118064895Y-103421427D01*
X118064895Y-103421427D02*
X118864895Y-103154761D01*
X118064895Y-102888094D02*
X118712514Y-102888094D01*
X118712514Y-102888094D02*
X118788704Y-102849999D01*
X118788704Y-102849999D02*
X118826800Y-102811904D01*
X118826800Y-102811904D02*
X118864895Y-102735713D01*
X118864895Y-102735713D02*
X118864895Y-102583332D01*
X118864895Y-102583332D02*
X118826800Y-102507142D01*
X118826800Y-102507142D02*
X118788704Y-102469047D01*
X118788704Y-102469047D02*
X118712514Y-102430951D01*
X118712514Y-102430951D02*
X118064895Y-102430951D01*
X118864895Y-102049999D02*
X118064895Y-102049999D01*
X118064895Y-102049999D02*
X118064895Y-101859523D01*
X118064895Y-101859523D02*
X118102990Y-101745237D01*
X118102990Y-101745237D02*
X118179180Y-101669047D01*
X118179180Y-101669047D02*
X118255371Y-101630952D01*
X118255371Y-101630952D02*
X118407752Y-101592856D01*
X118407752Y-101592856D02*
X118522038Y-101592856D01*
X118522038Y-101592856D02*
X118674419Y-101630952D01*
X118674419Y-101630952D02*
X118750609Y-101669047D01*
X118750609Y-101669047D02*
X118826800Y-101745237D01*
X118826800Y-101745237D02*
X118864895Y-101859523D01*
X118864895Y-101859523D02*
X118864895Y-102049999D01*
X118864895Y-101249999D02*
X118064895Y-101249999D01*
X118064895Y-100716666D02*
X118064895Y-100564285D01*
X118064895Y-100564285D02*
X118102990Y-100488095D01*
X118102990Y-100488095D02*
X118179180Y-100411904D01*
X118179180Y-100411904D02*
X118331561Y-100373809D01*
X118331561Y-100373809D02*
X118598228Y-100373809D01*
X118598228Y-100373809D02*
X118750609Y-100411904D01*
X118750609Y-100411904D02*
X118826800Y-100488095D01*
X118826800Y-100488095D02*
X118864895Y-100564285D01*
X118864895Y-100564285D02*
X118864895Y-100716666D01*
X118864895Y-100716666D02*
X118826800Y-100792857D01*
X118826800Y-100792857D02*
X118750609Y-100869047D01*
X118750609Y-100869047D02*
X118598228Y-100907143D01*
X118598228Y-100907143D02*
X118331561Y-100907143D01*
X118331561Y-100907143D02*
X118179180Y-100869047D01*
X118179180Y-100869047D02*
X118102990Y-100792857D01*
X118102990Y-100792857D02*
X118064895Y-100716666D01*
X118941085Y-100221429D02*
X118941085Y-99611905D01*
X118064895Y-99269047D02*
X118064895Y-99116666D01*
X118064895Y-99116666D02*
X118102990Y-99040476D01*
X118102990Y-99040476D02*
X118179180Y-98964285D01*
X118179180Y-98964285D02*
X118331561Y-98926190D01*
X118331561Y-98926190D02*
X118598228Y-98926190D01*
X118598228Y-98926190D02*
X118750609Y-98964285D01*
X118750609Y-98964285D02*
X118826800Y-99040476D01*
X118826800Y-99040476D02*
X118864895Y-99116666D01*
X118864895Y-99116666D02*
X118864895Y-99269047D01*
X118864895Y-99269047D02*
X118826800Y-99345238D01*
X118826800Y-99345238D02*
X118750609Y-99421428D01*
X118750609Y-99421428D02*
X118598228Y-99459524D01*
X118598228Y-99459524D02*
X118331561Y-99459524D01*
X118331561Y-99459524D02*
X118179180Y-99421428D01*
X118179180Y-99421428D02*
X118102990Y-99345238D01*
X118102990Y-99345238D02*
X118064895Y-99269047D01*
X118064895Y-98583333D02*
X118712514Y-98583333D01*
X118712514Y-98583333D02*
X118788704Y-98545238D01*
X118788704Y-98545238D02*
X118826800Y-98507143D01*
X118826800Y-98507143D02*
X118864895Y-98430952D01*
X118864895Y-98430952D02*
X118864895Y-98278571D01*
X118864895Y-98278571D02*
X118826800Y-98202381D01*
X118826800Y-98202381D02*
X118788704Y-98164286D01*
X118788704Y-98164286D02*
X118712514Y-98126190D01*
X118712514Y-98126190D02*
X118064895Y-98126190D01*
X118064895Y-97859524D02*
X118064895Y-97402381D01*
X118864895Y-97630953D02*
X118064895Y-97630953D01*
X104133333Y-86364895D02*
X103866666Y-85983942D01*
X103676190Y-86364895D02*
X103676190Y-85564895D01*
X103676190Y-85564895D02*
X103980952Y-85564895D01*
X103980952Y-85564895D02*
X104057142Y-85602990D01*
X104057142Y-85602990D02*
X104095237Y-85641085D01*
X104095237Y-85641085D02*
X104133333Y-85717276D01*
X104133333Y-85717276D02*
X104133333Y-85831561D01*
X104133333Y-85831561D02*
X104095237Y-85907752D01*
X104095237Y-85907752D02*
X104057142Y-85945847D01*
X104057142Y-85945847D02*
X103980952Y-85983942D01*
X103980952Y-85983942D02*
X103676190Y-85983942D01*
X104285714Y-86441085D02*
X104895237Y-86441085D01*
X105542857Y-86364895D02*
X105276190Y-85983942D01*
X105085714Y-86364895D02*
X105085714Y-85564895D01*
X105085714Y-85564895D02*
X105390476Y-85564895D01*
X105390476Y-85564895D02*
X105466666Y-85602990D01*
X105466666Y-85602990D02*
X105504761Y-85641085D01*
X105504761Y-85641085D02*
X105542857Y-85717276D01*
X105542857Y-85717276D02*
X105542857Y-85831561D01*
X105542857Y-85831561D02*
X105504761Y-85907752D01*
X105504761Y-85907752D02*
X105466666Y-85945847D01*
X105466666Y-85945847D02*
X105390476Y-85983942D01*
X105390476Y-85983942D02*
X105085714Y-85983942D01*
X105885714Y-85945847D02*
X106152380Y-85945847D01*
X106266666Y-86364895D02*
X105885714Y-86364895D01*
X105885714Y-86364895D02*
X105885714Y-85564895D01*
X105885714Y-85564895D02*
X106266666Y-85564895D01*
X106571428Y-86326800D02*
X106685714Y-86364895D01*
X106685714Y-86364895D02*
X106876190Y-86364895D01*
X106876190Y-86364895D02*
X106952381Y-86326800D01*
X106952381Y-86326800D02*
X106990476Y-86288704D01*
X106990476Y-86288704D02*
X107028571Y-86212514D01*
X107028571Y-86212514D02*
X107028571Y-86136323D01*
X107028571Y-86136323D02*
X106990476Y-86060133D01*
X106990476Y-86060133D02*
X106952381Y-86022038D01*
X106952381Y-86022038D02*
X106876190Y-85983942D01*
X106876190Y-85983942D02*
X106723809Y-85945847D01*
X106723809Y-85945847D02*
X106647619Y-85907752D01*
X106647619Y-85907752D02*
X106609524Y-85869657D01*
X106609524Y-85869657D02*
X106571428Y-85793466D01*
X106571428Y-85793466D02*
X106571428Y-85717276D01*
X106571428Y-85717276D02*
X106609524Y-85641085D01*
X106609524Y-85641085D02*
X106647619Y-85602990D01*
X106647619Y-85602990D02*
X106723809Y-85564895D01*
X106723809Y-85564895D02*
X106914286Y-85564895D01*
X106914286Y-85564895D02*
X107028571Y-85602990D01*
X107371429Y-85945847D02*
X107638095Y-85945847D01*
X107752381Y-86364895D02*
X107371429Y-86364895D01*
X107371429Y-86364895D02*
X107371429Y-85564895D01*
X107371429Y-85564895D02*
X107752381Y-85564895D01*
X107980953Y-85564895D02*
X108438096Y-85564895D01*
X108209524Y-86364895D02*
X108209524Y-85564895D01*
D11*
X118209930Y-124489681D02*
X118590882Y-124489681D01*
X118590882Y-124489681D02*
X118667073Y-124515077D01*
X118667073Y-124515077D02*
X118717867Y-124565871D01*
X118717867Y-124565871D02*
X118743263Y-124642061D01*
X118743263Y-124642061D02*
X118743263Y-124692855D01*
X118743263Y-124235712D02*
X118209930Y-124235712D01*
X118209930Y-124235712D02*
X118209930Y-124032538D01*
X118209930Y-124032538D02*
X118235327Y-123981744D01*
X118235327Y-123981744D02*
X118260724Y-123956348D01*
X118260724Y-123956348D02*
X118311518Y-123930951D01*
X118311518Y-123930951D02*
X118387708Y-123930951D01*
X118387708Y-123930951D02*
X118438502Y-123956348D01*
X118438502Y-123956348D02*
X118463898Y-123981744D01*
X118463898Y-123981744D02*
X118489295Y-124032538D01*
X118489295Y-124032538D02*
X118489295Y-124235712D01*
X118260724Y-123727776D02*
X118235327Y-123702379D01*
X118235327Y-123702379D02*
X118209930Y-123651586D01*
X118209930Y-123651586D02*
X118209930Y-123524602D01*
X118209930Y-123524602D02*
X118235327Y-123473808D01*
X118235327Y-123473808D02*
X118260724Y-123448411D01*
X118260724Y-123448411D02*
X118311518Y-123423015D01*
X118311518Y-123423015D02*
X118362311Y-123423015D01*
X118362311Y-123423015D02*
X118438502Y-123448411D01*
X118438502Y-123448411D02*
X118743263Y-123753173D01*
X118743263Y-123753173D02*
X118743263Y-123423015D01*
X118946438Y-122635714D02*
X118921041Y-122661110D01*
X118921041Y-122661110D02*
X118844851Y-122711904D01*
X118844851Y-122711904D02*
X118794057Y-122737301D01*
X118794057Y-122737301D02*
X118717867Y-122762698D01*
X118717867Y-122762698D02*
X118590882Y-122788094D01*
X118590882Y-122788094D02*
X118489295Y-122788094D01*
X118489295Y-122788094D02*
X118362311Y-122762698D01*
X118362311Y-122762698D02*
X118286121Y-122737301D01*
X118286121Y-122737301D02*
X118235327Y-122711904D01*
X118235327Y-122711904D02*
X118159137Y-122661110D01*
X118159137Y-122661110D02*
X118133740Y-122635714D01*
X118590882Y-122457936D02*
X118590882Y-122203968D01*
X118743263Y-122508730D02*
X118209930Y-122330952D01*
X118209930Y-122330952D02*
X118743263Y-122153175D01*
X118743263Y-121696032D02*
X118743263Y-122000793D01*
X118743263Y-121848412D02*
X118209930Y-121848412D01*
X118209930Y-121848412D02*
X118286121Y-121899206D01*
X118286121Y-121899206D02*
X118336914Y-121950000D01*
X118336914Y-121950000D02*
X118362311Y-122000793D01*
X118387708Y-121238889D02*
X118743263Y-121238889D01*
X118184534Y-121365873D02*
X118565486Y-121492857D01*
X118565486Y-121492857D02*
X118565486Y-121162699D01*
X118946438Y-121010318D02*
X118921041Y-120984921D01*
X118921041Y-120984921D02*
X118844851Y-120934128D01*
X118844851Y-120934128D02*
X118794057Y-120908731D01*
X118794057Y-120908731D02*
X118717867Y-120883334D01*
X118717867Y-120883334D02*
X118590882Y-120857937D01*
X118590882Y-120857937D02*
X118489295Y-120857937D01*
X118489295Y-120857937D02*
X118362311Y-120883334D01*
X118362311Y-120883334D02*
X118286121Y-120908731D01*
X118286121Y-120908731D02*
X118235327Y-120934128D01*
X118235327Y-120934128D02*
X118159137Y-120984921D01*
X118159137Y-120984921D02*
X118133740Y-121010318D01*
D12*
X121568161Y-122026189D02*
X121568161Y-121835713D01*
X121682447Y-122064284D02*
X121282447Y-121930951D01*
X121282447Y-121930951D02*
X121682447Y-121797618D01*
X121682447Y-121454761D02*
X121682447Y-121683332D01*
X121682447Y-121569046D02*
X121282447Y-121569046D01*
X121282447Y-121569046D02*
X121339590Y-121607142D01*
X121339590Y-121607142D02*
X121377685Y-121645237D01*
X121377685Y-121645237D02*
X121396733Y-121683332D01*
X121415780Y-121111904D02*
X121682447Y-121111904D01*
X121263400Y-121207142D02*
X121549114Y-121302380D01*
X121549114Y-121302380D02*
X121549114Y-121054761D01*
X121282447Y-124483332D02*
X121682447Y-124349999D01*
X121682447Y-124349999D02*
X121282447Y-124216666D01*
X121644352Y-123854761D02*
X121663400Y-123873809D01*
X121663400Y-123873809D02*
X121682447Y-123930951D01*
X121682447Y-123930951D02*
X121682447Y-123969047D01*
X121682447Y-123969047D02*
X121663400Y-124026190D01*
X121663400Y-124026190D02*
X121625304Y-124064285D01*
X121625304Y-124064285D02*
X121587209Y-124083332D01*
X121587209Y-124083332D02*
X121511019Y-124102380D01*
X121511019Y-124102380D02*
X121453876Y-124102380D01*
X121453876Y-124102380D02*
X121377685Y-124083332D01*
X121377685Y-124083332D02*
X121339590Y-124064285D01*
X121339590Y-124064285D02*
X121301495Y-124026190D01*
X121301495Y-124026190D02*
X121282447Y-123969047D01*
X121282447Y-123969047D02*
X121282447Y-123930951D01*
X121282447Y-123930951D02*
X121301495Y-123873809D01*
X121301495Y-123873809D02*
X121320542Y-123854761D01*
X121644352Y-123454761D02*
X121663400Y-123473809D01*
X121663400Y-123473809D02*
X121682447Y-123530951D01*
X121682447Y-123530951D02*
X121682447Y-123569047D01*
X121682447Y-123569047D02*
X121663400Y-123626190D01*
X121663400Y-123626190D02*
X121625304Y-123664285D01*
X121625304Y-123664285D02*
X121587209Y-123683332D01*
X121587209Y-123683332D02*
X121511019Y-123702380D01*
X121511019Y-123702380D02*
X121453876Y-123702380D01*
X121453876Y-123702380D02*
X121377685Y-123683332D01*
X121377685Y-123683332D02*
X121339590Y-123664285D01*
X121339590Y-123664285D02*
X121301495Y-123626190D01*
X121301495Y-123626190D02*
X121282447Y-123569047D01*
X121282447Y-123569047D02*
X121282447Y-123530951D01*
X121282447Y-123530951D02*
X121301495Y-123473809D01*
X121301495Y-123473809D02*
X121320542Y-123454761D01*
D10*
X112364895Y-103383333D02*
X111983942Y-103650000D01*
X112364895Y-103840476D02*
X111564895Y-103840476D01*
X111564895Y-103840476D02*
X111564895Y-103535714D01*
X111564895Y-103535714D02*
X111602990Y-103459524D01*
X111602990Y-103459524D02*
X111641085Y-103421429D01*
X111641085Y-103421429D02*
X111717276Y-103383333D01*
X111717276Y-103383333D02*
X111831561Y-103383333D01*
X111831561Y-103383333D02*
X111907752Y-103421429D01*
X111907752Y-103421429D02*
X111945847Y-103459524D01*
X111945847Y-103459524D02*
X111983942Y-103535714D01*
X111983942Y-103535714D02*
X111983942Y-103840476D01*
X112441085Y-103230953D02*
X112441085Y-102621429D01*
X112326800Y-102469048D02*
X112364895Y-102354762D01*
X112364895Y-102354762D02*
X112364895Y-102164286D01*
X112364895Y-102164286D02*
X112326800Y-102088095D01*
X112326800Y-102088095D02*
X112288704Y-102050000D01*
X112288704Y-102050000D02*
X112212514Y-102011905D01*
X112212514Y-102011905D02*
X112136323Y-102011905D01*
X112136323Y-102011905D02*
X112060133Y-102050000D01*
X112060133Y-102050000D02*
X112022038Y-102088095D01*
X112022038Y-102088095D02*
X111983942Y-102164286D01*
X111983942Y-102164286D02*
X111945847Y-102316667D01*
X111945847Y-102316667D02*
X111907752Y-102392857D01*
X111907752Y-102392857D02*
X111869657Y-102430952D01*
X111869657Y-102430952D02*
X111793466Y-102469048D01*
X111793466Y-102469048D02*
X111717276Y-102469048D01*
X111717276Y-102469048D02*
X111641085Y-102430952D01*
X111641085Y-102430952D02*
X111602990Y-102392857D01*
X111602990Y-102392857D02*
X111564895Y-102316667D01*
X111564895Y-102316667D02*
X111564895Y-102126190D01*
X111564895Y-102126190D02*
X111602990Y-102011905D01*
X111945847Y-101669047D02*
X111945847Y-101402381D01*
X112364895Y-101288095D02*
X112364895Y-101669047D01*
X112364895Y-101669047D02*
X111564895Y-101669047D01*
X111564895Y-101669047D02*
X111564895Y-101288095D01*
X112364895Y-100488094D02*
X111983942Y-100754761D01*
X112364895Y-100945237D02*
X111564895Y-100945237D01*
X111564895Y-100945237D02*
X111564895Y-100640475D01*
X111564895Y-100640475D02*
X111602990Y-100564285D01*
X111602990Y-100564285D02*
X111641085Y-100526190D01*
X111641085Y-100526190D02*
X111717276Y-100488094D01*
X111717276Y-100488094D02*
X111831561Y-100488094D01*
X111831561Y-100488094D02*
X111907752Y-100526190D01*
X111907752Y-100526190D02*
X111945847Y-100564285D01*
X111945847Y-100564285D02*
X111983942Y-100640475D01*
X111983942Y-100640475D02*
X111983942Y-100945237D01*
X112364895Y-100145237D02*
X111564895Y-100145237D01*
X111945847Y-99764285D02*
X111945847Y-99497619D01*
X112364895Y-99383333D02*
X112364895Y-99764285D01*
X112364895Y-99764285D02*
X111564895Y-99764285D01*
X111564895Y-99764285D02*
X111564895Y-99383333D01*
X112326800Y-99078571D02*
X112364895Y-98964285D01*
X112364895Y-98964285D02*
X112364895Y-98773809D01*
X112364895Y-98773809D02*
X112326800Y-98697618D01*
X112326800Y-98697618D02*
X112288704Y-98659523D01*
X112288704Y-98659523D02*
X112212514Y-98621428D01*
X112212514Y-98621428D02*
X112136323Y-98621428D01*
X112136323Y-98621428D02*
X112060133Y-98659523D01*
X112060133Y-98659523D02*
X112022038Y-98697618D01*
X112022038Y-98697618D02*
X111983942Y-98773809D01*
X111983942Y-98773809D02*
X111945847Y-98926190D01*
X111945847Y-98926190D02*
X111907752Y-99002380D01*
X111907752Y-99002380D02*
X111869657Y-99040475D01*
X111869657Y-99040475D02*
X111793466Y-99078571D01*
X111793466Y-99078571D02*
X111717276Y-99078571D01*
X111717276Y-99078571D02*
X111641085Y-99040475D01*
X111641085Y-99040475D02*
X111602990Y-99002380D01*
X111602990Y-99002380D02*
X111564895Y-98926190D01*
X111564895Y-98926190D02*
X111564895Y-98735713D01*
X111564895Y-98735713D02*
X111602990Y-98621428D01*
X78666667Y-86364895D02*
X78400000Y-85983942D01*
X78209524Y-86364895D02*
X78209524Y-85564895D01*
X78209524Y-85564895D02*
X78514286Y-85564895D01*
X78514286Y-85564895D02*
X78590476Y-85602990D01*
X78590476Y-85602990D02*
X78628571Y-85641085D01*
X78628571Y-85641085D02*
X78666667Y-85717276D01*
X78666667Y-85717276D02*
X78666667Y-85831561D01*
X78666667Y-85831561D02*
X78628571Y-85907752D01*
X78628571Y-85907752D02*
X78590476Y-85945847D01*
X78590476Y-85945847D02*
X78514286Y-85983942D01*
X78514286Y-85983942D02*
X78209524Y-85983942D01*
X78819048Y-86441085D02*
X79428571Y-86441085D01*
X79771429Y-85983942D02*
X79771429Y-86364895D01*
X79504762Y-85564895D02*
X79771429Y-85983942D01*
X79771429Y-85983942D02*
X80038095Y-85564895D01*
X80304762Y-86364895D02*
X80304762Y-85564895D01*
X80304762Y-85564895D02*
X80571428Y-86136323D01*
X80571428Y-86136323D02*
X80838095Y-85564895D01*
X80838095Y-85564895D02*
X80838095Y-86364895D01*
X81028572Y-86441085D02*
X81638095Y-86441085D01*
X81790476Y-86136323D02*
X82171429Y-86136323D01*
X81714286Y-86364895D02*
X81980953Y-85564895D01*
X81980953Y-85564895D02*
X82247619Y-86364895D01*
X82514286Y-85564895D02*
X82514286Y-86212514D01*
X82514286Y-86212514D02*
X82552381Y-86288704D01*
X82552381Y-86288704D02*
X82590476Y-86326800D01*
X82590476Y-86326800D02*
X82666667Y-86364895D01*
X82666667Y-86364895D02*
X82819048Y-86364895D01*
X82819048Y-86364895D02*
X82895238Y-86326800D01*
X82895238Y-86326800D02*
X82933333Y-86288704D01*
X82933333Y-86288704D02*
X82971429Y-86212514D01*
X82971429Y-86212514D02*
X82971429Y-85564895D01*
X83352381Y-86364895D02*
X83352381Y-85564895D01*
X83352381Y-85564895D02*
X83542857Y-85564895D01*
X83542857Y-85564895D02*
X83657143Y-85602990D01*
X83657143Y-85602990D02*
X83733333Y-85679180D01*
X83733333Y-85679180D02*
X83771428Y-85755371D01*
X83771428Y-85755371D02*
X83809524Y-85907752D01*
X83809524Y-85907752D02*
X83809524Y-86022038D01*
X83809524Y-86022038D02*
X83771428Y-86174419D01*
X83771428Y-86174419D02*
X83733333Y-86250609D01*
X83733333Y-86250609D02*
X83657143Y-86326800D01*
X83657143Y-86326800D02*
X83542857Y-86364895D01*
X83542857Y-86364895D02*
X83352381Y-86364895D01*
X84152381Y-86364895D02*
X84152381Y-85564895D01*
X84685714Y-85564895D02*
X84838095Y-85564895D01*
X84838095Y-85564895D02*
X84914285Y-85602990D01*
X84914285Y-85602990D02*
X84990476Y-85679180D01*
X84990476Y-85679180D02*
X85028571Y-85831561D01*
X85028571Y-85831561D02*
X85028571Y-86098228D01*
X85028571Y-86098228D02*
X84990476Y-86250609D01*
X84990476Y-86250609D02*
X84914285Y-86326800D01*
X84914285Y-86326800D02*
X84838095Y-86364895D01*
X84838095Y-86364895D02*
X84685714Y-86364895D01*
X84685714Y-86364895D02*
X84609523Y-86326800D01*
X84609523Y-86326800D02*
X84533333Y-86250609D01*
X84533333Y-86250609D02*
X84495237Y-86098228D01*
X84495237Y-86098228D02*
X84495237Y-85831561D01*
X84495237Y-85831561D02*
X84533333Y-85679180D01*
X84533333Y-85679180D02*
X84609523Y-85602990D01*
X84609523Y-85602990D02*
X84685714Y-85564895D01*
X85638094Y-85945847D02*
X85752380Y-85983942D01*
X85752380Y-85983942D02*
X85790475Y-86022038D01*
X85790475Y-86022038D02*
X85828571Y-86098228D01*
X85828571Y-86098228D02*
X85828571Y-86212514D01*
X85828571Y-86212514D02*
X85790475Y-86288704D01*
X85790475Y-86288704D02*
X85752380Y-86326800D01*
X85752380Y-86326800D02*
X85676190Y-86364895D01*
X85676190Y-86364895D02*
X85371428Y-86364895D01*
X85371428Y-86364895D02*
X85371428Y-85564895D01*
X85371428Y-85564895D02*
X85638094Y-85564895D01*
X85638094Y-85564895D02*
X85714285Y-85602990D01*
X85714285Y-85602990D02*
X85752380Y-85641085D01*
X85752380Y-85641085D02*
X85790475Y-85717276D01*
X85790475Y-85717276D02*
X85790475Y-85793466D01*
X85790475Y-85793466D02*
X85752380Y-85869657D01*
X85752380Y-85869657D02*
X85714285Y-85907752D01*
X85714285Y-85907752D02*
X85638094Y-85945847D01*
X85638094Y-85945847D02*
X85371428Y-85945847D01*
X90723810Y-86364895D02*
X90457143Y-85983942D01*
X90266667Y-86364895D02*
X90266667Y-85564895D01*
X90266667Y-85564895D02*
X90571429Y-85564895D01*
X90571429Y-85564895D02*
X90647619Y-85602990D01*
X90647619Y-85602990D02*
X90685714Y-85641085D01*
X90685714Y-85641085D02*
X90723810Y-85717276D01*
X90723810Y-85717276D02*
X90723810Y-85831561D01*
X90723810Y-85831561D02*
X90685714Y-85907752D01*
X90685714Y-85907752D02*
X90647619Y-85945847D01*
X90647619Y-85945847D02*
X90571429Y-85983942D01*
X90571429Y-85983942D02*
X90266667Y-85983942D01*
X90876191Y-86441085D02*
X91485714Y-86441085D01*
X91828572Y-85983942D02*
X91828572Y-86364895D01*
X91561905Y-85564895D02*
X91828572Y-85983942D01*
X91828572Y-85983942D02*
X92095238Y-85564895D01*
X92361905Y-86364895D02*
X92361905Y-85564895D01*
X92361905Y-85564895D02*
X92628571Y-86136323D01*
X92628571Y-86136323D02*
X92895238Y-85564895D01*
X92895238Y-85564895D02*
X92895238Y-86364895D01*
X93085715Y-86441085D02*
X93695238Y-86441085D01*
X93847619Y-86136323D02*
X94228572Y-86136323D01*
X93771429Y-86364895D02*
X94038096Y-85564895D01*
X94038096Y-85564895D02*
X94304762Y-86364895D01*
X94571429Y-85564895D02*
X94571429Y-86212514D01*
X94571429Y-86212514D02*
X94609524Y-86288704D01*
X94609524Y-86288704D02*
X94647619Y-86326800D01*
X94647619Y-86326800D02*
X94723810Y-86364895D01*
X94723810Y-86364895D02*
X94876191Y-86364895D01*
X94876191Y-86364895D02*
X94952381Y-86326800D01*
X94952381Y-86326800D02*
X94990476Y-86288704D01*
X94990476Y-86288704D02*
X95028572Y-86212514D01*
X95028572Y-86212514D02*
X95028572Y-85564895D01*
X95409524Y-86364895D02*
X95409524Y-85564895D01*
X95409524Y-85564895D02*
X95600000Y-85564895D01*
X95600000Y-85564895D02*
X95714286Y-85602990D01*
X95714286Y-85602990D02*
X95790476Y-85679180D01*
X95790476Y-85679180D02*
X95828571Y-85755371D01*
X95828571Y-85755371D02*
X95866667Y-85907752D01*
X95866667Y-85907752D02*
X95866667Y-86022038D01*
X95866667Y-86022038D02*
X95828571Y-86174419D01*
X95828571Y-86174419D02*
X95790476Y-86250609D01*
X95790476Y-86250609D02*
X95714286Y-86326800D01*
X95714286Y-86326800D02*
X95600000Y-86364895D01*
X95600000Y-86364895D02*
X95409524Y-86364895D01*
X96209524Y-86364895D02*
X96209524Y-85564895D01*
X96742857Y-85564895D02*
X96895238Y-85564895D01*
X96895238Y-85564895D02*
X96971428Y-85602990D01*
X96971428Y-85602990D02*
X97047619Y-85679180D01*
X97047619Y-85679180D02*
X97085714Y-85831561D01*
X97085714Y-85831561D02*
X97085714Y-86098228D01*
X97085714Y-86098228D02*
X97047619Y-86250609D01*
X97047619Y-86250609D02*
X96971428Y-86326800D01*
X96971428Y-86326800D02*
X96895238Y-86364895D01*
X96895238Y-86364895D02*
X96742857Y-86364895D01*
X96742857Y-86364895D02*
X96666666Y-86326800D01*
X96666666Y-86326800D02*
X96590476Y-86250609D01*
X96590476Y-86250609D02*
X96552380Y-86098228D01*
X96552380Y-86098228D02*
X96552380Y-85831561D01*
X96552380Y-85831561D02*
X96590476Y-85679180D01*
X96590476Y-85679180D02*
X96666666Y-85602990D01*
X96666666Y-85602990D02*
X96742857Y-85564895D01*
X97390475Y-86136323D02*
X97771428Y-86136323D01*
X97314285Y-86364895D02*
X97580952Y-85564895D01*
X97580952Y-85564895D02*
X97847618Y-86364895D01*
%TO.C,C_AMP*%
X85000000Y-100770000D02*
X85000000Y-101730000D01*
%TO.C,C_RESET*%
X112480000Y-87500000D02*
X111520000Y-87500000D01*
%TO.C,U_YM*%
X74870000Y-69680000D02*
X125130000Y-69680000D01*
X74870000Y-82320000D02*
X74870000Y-69680000D01*
X123023333Y-76000000D02*
X123183694Y-76806186D01*
X123183694Y-75193814D02*
X123023333Y-76000000D01*
X123183694Y-76806186D02*
X123640362Y-77489638D01*
X123640362Y-74510362D02*
X123183694Y-75193814D01*
X123640362Y-77489638D02*
X124323814Y-77946306D01*
X124323814Y-74053694D02*
X123640362Y-74510362D01*
X124323814Y-77946306D02*
X125130000Y-78106667D01*
X125130000Y-69680000D02*
X125130000Y-73893333D01*
X125130000Y-73893333D02*
X124323814Y-74053694D01*
X125130000Y-78106667D02*
X125130000Y-82320000D01*
X125130000Y-82320000D02*
X74870000Y-82320000D01*
%TO.C,R_YM_AUDIOC*%
X88480000Y-87500000D02*
X87520000Y-87500000D01*
%TO.C,R_PULL*%
X110000000Y-100770000D02*
X110000000Y-101730000D01*
%TO.C,U_ROM*%
X82490000Y-111930000D02*
X117510000Y-111930000D01*
X82490000Y-124570000D02*
X82490000Y-111930000D01*
X115403333Y-118250000D02*
X115563694Y-119056186D01*
X115563694Y-117443814D02*
X115403333Y-118250000D01*
X115563694Y-119056186D02*
X116020362Y-119739638D01*
X116020362Y-116760362D02*
X115563694Y-117443814D01*
X116020362Y-119739638D02*
X116703814Y-120196306D01*
X116703814Y-116303694D02*
X116020362Y-116760362D01*
X116703814Y-120196306D02*
X117510000Y-120356667D01*
X117510000Y-111930000D02*
X117510000Y-116143333D01*
X117510000Y-116143333D02*
X116703814Y-116303694D01*
X117510000Y-120356667D02*
X117510000Y-124570000D01*
X117510000Y-124570000D02*
X82490000Y-124570000D01*
%TO.C,U_AMP*%
X95190000Y-98740000D02*
X104810000Y-98740000D01*
X95190000Y-103760000D02*
X95190000Y-98740000D01*
X103973333Y-101250000D02*
X104037021Y-101570178D01*
X104037021Y-100929822D02*
X103973333Y-101250000D01*
X104037021Y-101570178D02*
X104218387Y-101841613D01*
X104218387Y-100658387D02*
X104037021Y-100929822D01*
X104218387Y-101841613D02*
X104489822Y-102022979D01*
X104489822Y-100477021D02*
X104218387Y-100658387D01*
X104489822Y-102022979D02*
X104810000Y-102086667D01*
X104810000Y-98740000D02*
X104810000Y-100413333D01*
X104810000Y-100413333D02*
X104489822Y-100477021D01*
X104810000Y-102086667D02*
X104810000Y-103760000D01*
X104810000Y-103760000D02*
X95190000Y-103760000D01*
%TO.C,C_ROM*%
X120000000Y-118730000D02*
X120000000Y-117770000D01*
%TO.C,C_YM*%
X128000000Y-76480000D02*
X128000000Y-75520000D01*
%TO.C,R_FB*%
X90000000Y-100770000D02*
X90000000Y-101730000D01*
%TO.C,C_AUDIO_OUT*%
X117000000Y-100770000D02*
X117000000Y-101730000D01*
%TO.C,R_RESET*%
X106480000Y-87500000D02*
X105520000Y-87500000D01*
%TO.C,R_SERIES*%
X113500000Y-100770000D02*
X113500000Y-101730000D01*
%TO.C,R_YM_AUDIOB*%
X82480000Y-87500000D02*
X81520000Y-87500000D01*
%TO.C,R_YM_AUDIOA*%
X94480000Y-87500000D02*
X93520000Y-87500000D01*
%TD*%
M02*
