%TF.GenerationSoftware,KiCad,Pcbnew,10.0.3*%
%TF.CreationDate,2026-06-18T22:55:39-04:00*%
%TF.ProjectId,index,696e6465-782e-46b6-9963-61645f706362,Rev1*%
%TF.SameCoordinates,Original*%
%TF.FileFunction,Copper,L1,Top*%
%TF.FilePolarity,Positive*%
%FSLAX46Y46*%
G04 Gerber Fmt 4.6, Leading zero omitted, Abs format (unit mm)*
G04 Created by KiCad (PCBNEW 10.0.3) date 2026-06-18 22:55:39*
%MOMM*%
%LPD*%
G01*
G04 APERTURE LIST*
%TA.AperFunction,SMDPad,CuDef*%
%ADD10R,1.600000X0.800000*%
%TD*%
%TA.AperFunction,ComponentPad*%
%ADD11R,1.600000X1.600000*%
%TD*%
%TA.AperFunction,ComponentPad*%
%ADD12C,1.600000*%
%TD*%
%TA.AperFunction,ComponentPad*%
%ADD13C,1.400000*%
%TD*%
%TA.AperFunction,ComponentPad*%
%ADD14C,0.600000*%
%TD*%
%TA.AperFunction,SMDPad,CuDef*%
%ADD15R,2.000000X7.000000*%
%TD*%
%TA.AperFunction,ViaPad*%
%ADD16C,0.600000*%
%TD*%
%TA.AperFunction,Conductor*%
%ADD17C,0.200000*%
%TD*%
G04 APERTURE END LIST*
D10*
%TO.P,JP1,1*%
%TO.N,VCC*%
X120000000Y-114950000D03*
%TO.P,JP1,2*%
%TO.N,ROM_VPP*%
X120000000Y-113750000D03*
%TO.P,JP1,3*%
%TO.N,A15*%
X120000000Y-112550000D03*
%TD*%
D11*
%TO.P,U5,1*%
%TO.N,OPAMP_OUT*%
X111810000Y-62190000D03*
D12*
%TO.P,U5,2*%
%TO.N,SUM_NODE*%
X109270000Y-62190000D03*
%TO.P,U5,3*%
%TO.N,GND*%
X106730000Y-62190000D03*
%TO.P,U5,4*%
X104190000Y-62190000D03*
%TO.P,U5,5*%
X104190000Y-69810000D03*
%TO.P,U5,6*%
%TO.N,U5_UNUSED_FB*%
X106730000Y-69810000D03*
%TO.P,U5,7*%
X109270000Y-69810000D03*
%TO.P,U5,8*%
%TO.N,VCC*%
X111810000Y-69810000D03*
%TD*%
D13*
%TO.P,RAUDIOB,1*%
%TO.N,ANALOG_B*%
X120730000Y-73750000D03*
%TO.P,RAUDIOB,2*%
%TO.N,SUM_NODE*%
X123270000Y-73750000D03*
%TD*%
D11*
%TO.P,U3,1*%
%TO.N,GND*%
X125430000Y-98440000D03*
D12*
%TO.P,U3,2*%
%TO.N,DA0*%
X122890000Y-98440000D03*
%TO.P,U3,3*%
%TO.N,D0*%
X120350000Y-98440000D03*
%TO.P,U3,4*%
%TO.N,D1*%
X117810000Y-98440000D03*
%TO.P,U3,5*%
%TO.N,DA1*%
X115270000Y-98440000D03*
%TO.P,U3,6*%
%TO.N,DA2*%
X112730000Y-98440000D03*
%TO.P,U3,7*%
%TO.N,D2*%
X110190000Y-98440000D03*
%TO.P,U3,8*%
%TO.N,D3*%
X107650000Y-98440000D03*
%TO.P,U3,9*%
%TO.N,DA3*%
X105110000Y-98440000D03*
%TO.P,U3,10*%
%TO.N,GND*%
X102570000Y-98440000D03*
%TO.P,U3,11*%
%TO.N,YM_LE*%
X102570000Y-106060000D03*
%TO.P,U3,12*%
%TO.N,DA4*%
X105110000Y-106060000D03*
%TO.P,U3,13*%
%TO.N,D4*%
X107650000Y-106060000D03*
%TO.P,U3,14*%
%TO.N,D5*%
X110190000Y-106060000D03*
%TO.P,U3,15*%
%TO.N,DA5*%
X112730000Y-106060000D03*
%TO.P,U3,16*%
%TO.N,DA6*%
X115270000Y-106060000D03*
%TO.P,U3,17*%
%TO.N,D6*%
X117810000Y-106060000D03*
%TO.P,U3,18*%
%TO.N,D7*%
X120350000Y-106060000D03*
%TO.P,U3,19*%
%TO.N,DA7*%
X122890000Y-106060000D03*
%TO.P,U3,20*%
%TO.N,VCC*%
X125430000Y-106060000D03*
%TD*%
D13*
%TO.P,CRESET1,1*%
%TO.N,RESET_DELAYED*%
X78730000Y-95750000D03*
%TO.P,CRESET1,2*%
%TO.N,GND*%
X81270000Y-95750000D03*
%TD*%
D11*
%TO.P,U1,1*%
%TO.N,ROM_VPP*%
X116510000Y-110630000D03*
D12*
%TO.P,U1,2*%
%TO.N,A12*%
X113970000Y-110630000D03*
%TO.P,U1,3*%
%TO.N,A7*%
X111430000Y-110630000D03*
%TO.P,U1,4*%
%TO.N,A6*%
X108890000Y-110630000D03*
%TO.P,U1,5*%
%TO.N,A5*%
X106350000Y-110630000D03*
%TO.P,U1,6*%
%TO.N,A4*%
X103810000Y-110630000D03*
%TO.P,U1,7*%
%TO.N,A3*%
X101270000Y-110630000D03*
%TO.P,U1,8*%
%TO.N,A2*%
X98730000Y-110630000D03*
%TO.P,U1,9*%
%TO.N,A1*%
X96190000Y-110630000D03*
%TO.P,U1,10*%
%TO.N,A0*%
X93650000Y-110630000D03*
%TO.P,U1,11*%
%TO.N,D0*%
X91110000Y-110630000D03*
%TO.P,U1,12*%
%TO.N,D1*%
X88570000Y-110630000D03*
%TO.P,U1,13*%
%TO.N,D2*%
X86030000Y-110630000D03*
%TO.P,U1,14*%
%TO.N,GND*%
X83490000Y-110630000D03*
%TO.P,U1,15*%
%TO.N,D3*%
X83490000Y-125870000D03*
%TO.P,U1,16*%
%TO.N,D4*%
X86030000Y-125870000D03*
%TO.P,U1,17*%
%TO.N,D5*%
X88570000Y-125870000D03*
%TO.P,U1,18*%
%TO.N,D6*%
X91110000Y-125870000D03*
%TO.P,U1,19*%
%TO.N,D7*%
X93650000Y-125870000D03*
%TO.P,U1,20*%
%TO.N,ROM_CE*%
X96190000Y-125870000D03*
%TO.P,U1,21*%
%TO.N,A10*%
X98730000Y-125870000D03*
%TO.P,U1,22*%
%TO.N,GND*%
X101270000Y-125870000D03*
%TO.P,U1,23*%
%TO.N,A11*%
X103810000Y-125870000D03*
%TO.P,U1,24*%
%TO.N,A9*%
X106350000Y-125870000D03*
%TO.P,U1,25*%
%TO.N,A8*%
X108890000Y-125870000D03*
%TO.P,U1,26*%
%TO.N,A13*%
X111430000Y-125870000D03*
%TO.P,U1,27*%
%TO.N,ROM_ADDR14*%
X113970000Y-125870000D03*
%TO.P,U1,28*%
%TO.N,VCC*%
X116510000Y-125870000D03*
%TD*%
D13*
%TO.P,RSERIES,1*%
%TO.N,OPAMP_OUT*%
X118000000Y-67270000D03*
%TO.P,RSERIES,2*%
%TO.N,CAP_PLUS*%
X118000000Y-64730000D03*
%TD*%
D14*
%TO.P,U6,1*%
%TO.N,GND*%
X129000000Y-113000000D03*
%TD*%
D11*
%TO.P,U2,1*%
%TO.N,N/C*%
X95430000Y-98440000D03*
D12*
%TO.P,U2,2*%
%TO.N,A15*%
X92890000Y-98440000D03*
%TO.P,U2,3*%
%TO.N,A14*%
X90350000Y-98440000D03*
%TO.P,U2,4*%
%TO.N,A0*%
X87810000Y-98440000D03*
%TO.P,U2,5*%
%TO.N,HALT*%
X85270000Y-98440000D03*
%TO.P,U2,6*%
%TO.N,RW*%
X82730000Y-98440000D03*
%TO.P,U2,7*%
%TO.N,PHI2*%
X80190000Y-98440000D03*
%TO.P,U2,8*%
%TO.N,N/C*%
X77650000Y-98440000D03*
%TO.P,U2,9*%
X75110000Y-98440000D03*
%TO.P,U2,10*%
%TO.N,GND*%
X72570000Y-98440000D03*
%TO.P,U2,11*%
%TO.N,N/C*%
X72570000Y-106060000D03*
%TO.P,U2,12*%
X75110000Y-106060000D03*
%TO.P,U2,13*%
X77650000Y-106060000D03*
%TO.P,U2,14*%
X80190000Y-106060000D03*
%TO.P,U2,15*%
%TO.N,YM_LE*%
X82730000Y-106060000D03*
%TO.P,U2,16*%
%TO.N,PHI2OUT*%
X85270000Y-106060000D03*
%TO.P,U2,17*%
%TO.N,BC1*%
X87810000Y-106060000D03*
%TO.P,U2,18*%
%TO.N,BDIR*%
X90350000Y-106060000D03*
%TO.P,U2,19*%
%TO.N,ROM_CE*%
X92890000Y-106060000D03*
%TO.P,U2,20*%
%TO.N,VCC*%
X95430000Y-106060000D03*
%TD*%
D13*
%TO.P,C3,1*%
%TO.N,VCC*%
X129000000Y-100980000D03*
%TO.P,C3,2*%
%TO.N,GND*%
X129000000Y-103520000D03*
%TD*%
D14*
%TO.P,U7,1*%
%TO.N,GND*%
X126000000Y-84250000D03*
%TD*%
D13*
%TO.P,RAUDIOA,1*%
%TO.N,ANALOG_A*%
X114730000Y-73750000D03*
%TO.P,RAUDIOA,2*%
%TO.N,SUM_NODE*%
X117270000Y-73750000D03*
%TD*%
D11*
%TO.P,U4,1*%
%TO.N,GND*%
X124130000Y-76630000D03*
D12*
%TO.P,U4,2*%
%TO.N,N/C*%
X121590000Y-76630000D03*
%TO.P,U4,3*%
%TO.N,ANALOG_B*%
X119050000Y-76630000D03*
%TO.P,U4,4*%
%TO.N,ANALOG_A*%
X116510000Y-76630000D03*
%TO.P,U4,5*%
%TO.N,N/C*%
X113970000Y-76630000D03*
%TO.P,U4,6*%
X111430000Y-76630000D03*
%TO.P,U4,7*%
X108890000Y-76630000D03*
%TO.P,U4,8*%
X106350000Y-76630000D03*
%TO.P,U4,9*%
X103810000Y-76630000D03*
%TO.P,U4,10*%
X101270000Y-76630000D03*
%TO.P,U4,11*%
X98730000Y-76630000D03*
%TO.P,U4,12*%
X96190000Y-76630000D03*
%TO.P,U4,13*%
X93650000Y-76630000D03*
%TO.P,U4,14*%
X91110000Y-76630000D03*
%TO.P,U4,15*%
X88570000Y-76630000D03*
%TO.P,U4,16*%
X86030000Y-76630000D03*
%TO.P,U4,17*%
X83490000Y-76630000D03*
%TO.P,U4,18*%
X80950000Y-76630000D03*
%TO.P,U4,19*%
X78410000Y-76630000D03*
%TO.P,U4,20*%
X75870000Y-76630000D03*
%TO.P,U4,21*%
X75870000Y-91870000D03*
%TO.P,U4,22*%
%TO.N,PHI2OUT*%
X78410000Y-91870000D03*
%TO.P,U4,23*%
%TO.N,RESET_DELAYED*%
X80950000Y-91870000D03*
%TO.P,U4,24*%
%TO.N,GND*%
X83490000Y-91870000D03*
%TO.P,U4,25*%
%TO.N,VCC*%
X86030000Y-91870000D03*
%TO.P,U4,26*%
%TO.N,N/C*%
X88570000Y-91870000D03*
%TO.P,U4,27*%
%TO.N,BDIR*%
X91110000Y-91870000D03*
%TO.P,U4,28*%
%TO.N,VCC*%
X93650000Y-91870000D03*
%TO.P,U4,29*%
%TO.N,BC1*%
X96190000Y-91870000D03*
%TO.P,U4,30*%
%TO.N,DA7*%
X98730000Y-91870000D03*
%TO.P,U4,31*%
%TO.N,DA6*%
X101270000Y-91870000D03*
%TO.P,U4,32*%
%TO.N,DA5*%
X103810000Y-91870000D03*
%TO.P,U4,33*%
%TO.N,DA4*%
X106350000Y-91870000D03*
%TO.P,U4,34*%
%TO.N,DA3*%
X108890000Y-91870000D03*
%TO.P,U4,35*%
%TO.N,DA2*%
X111430000Y-91870000D03*
%TO.P,U4,36*%
%TO.N,DA1*%
X113970000Y-91870000D03*
%TO.P,U4,37*%
%TO.N,DA0*%
X116510000Y-91870000D03*
%TO.P,U4,38*%
%TO.N,ANALOG_C*%
X119050000Y-91870000D03*
%TO.P,U4,39*%
%TO.N,N/C*%
X121590000Y-91870000D03*
%TO.P,U4,40*%
%TO.N,VCC*%
X124130000Y-91870000D03*
%TD*%
D13*
%TO.P,C1,1*%
%TO.N,VCC*%
X120000000Y-116980000D03*
%TO.P,C1,2*%
%TO.N,GND*%
X120000000Y-119520000D03*
%TD*%
%TO.P,RRESET1,1*%
%TO.N,VCC*%
X84730000Y-95750000D03*
%TO.P,RRESET1,2*%
%TO.N,RESET_DELAYED*%
X87270000Y-95750000D03*
%TD*%
%TO.P,C5,1*%
%TO.N,CAP_PLUS*%
X123000000Y-67270000D03*
%TO.P,C5,2*%
%TO.N,OPAMP_OUT_AC*%
X123000000Y-64730000D03*
%TD*%
%TO.P,RPULL,1*%
%TO.N,OPAMP_OUT*%
X128000000Y-67270000D03*
%TO.P,RPULL,2*%
%TO.N,GND*%
X128000000Y-64730000D03*
%TD*%
%TO.P,C2,1*%
%TO.N,VCC*%
X99000000Y-100980000D03*
%TO.P,C2,2*%
%TO.N,GND*%
X99000000Y-103520000D03*
%TD*%
%TO.P,RAUDIOC,1*%
%TO.N,ANALOG_C*%
X118730000Y-95750000D03*
%TO.P,RAUDIOC,2*%
%TO.N,SUM_NODE*%
X121270000Y-95750000D03*
%TD*%
%TO.P,RFB,1*%
%TO.N,SUM_NODE*%
X98000000Y-67270000D03*
%TO.P,RFB,2*%
%TO.N,OPAMP_OUT*%
X98000000Y-64730000D03*
%TD*%
%TO.P,C6,1*%
%TO.N,VCC*%
X93000000Y-67270000D03*
%TO.P,C6,2*%
%TO.N,GND*%
X93000000Y-64730000D03*
%TD*%
D15*
%TO.P,J1,1*%
%TO.N,RW*%
X78410000Y-136490000D03*
%TO.P,J1,2*%
%TO.N,HALT*%
X80950000Y-136490000D03*
%TO.P,J1,3*%
%TO.N,D3*%
X86030000Y-136490000D03*
%TO.P,J1,4*%
%TO.N,D4*%
X88570000Y-136490000D03*
%TO.P,J1,5*%
%TO.N,D5*%
X91110000Y-136490000D03*
%TO.P,J1,6*%
%TO.N,D6*%
X93650000Y-136490000D03*
%TO.P,J1,7*%
%TO.N,D7*%
X96190000Y-136490000D03*
%TO.P,J1,8*%
%TO.N,A12*%
X98730000Y-136490000D03*
%TO.P,J1,9*%
%TO.N,A10*%
X101270000Y-136490000D03*
%TO.P,J1,10*%
%TO.N,A11*%
X103810000Y-136490000D03*
%TO.P,J1,11*%
%TO.N,A9*%
X106350000Y-136490000D03*
%TO.P,J1,12*%
%TO.N,A8*%
X108890000Y-136490000D03*
%TO.P,J1,13*%
%TO.N,VCC*%
X111430000Y-136490000D03*
%TO.P,J1,14*%
%TO.N,GND*%
X113970000Y-136490000D03*
%TO.P,J1,15*%
%TO.N,A13*%
X119050000Y-136490000D03*
%TO.P,J1,16*%
%TO.N,A14*%
X121590000Y-136490000D03*
%TD*%
D10*
%TO.P,JP2,1*%
%TO.N,VCC*%
X120000000Y-123950000D03*
%TO.P,JP2,2*%
%TO.N,ROM_ADDR14*%
X120000000Y-122750000D03*
%TO.P,JP2,3*%
%TO.N,A14*%
X120000000Y-121550000D03*
%TD*%
D13*
%TO.P,C4,1*%
%TO.N,VCC*%
X128000000Y-82980000D03*
%TO.P,C4,2*%
%TO.N,GND*%
X128000000Y-85520000D03*
%TD*%
D16*
%TO.N,A15*%
X115783300Y-107784800D03*
X121361500Y-112890700D03*
%TO.N,D0*%
X93956900Y-132178300D03*
%TO.N,D1*%
X89840000Y-132178300D03*
%TO.N,D3*%
X105523300Y-104447700D03*
%TO.N,YM_LE*%
X86053000Y-108264000D03*
%TO.N,DA5*%
X103531100Y-103572100D03*
%TO.N,A12*%
X113954900Y-112848200D03*
X99347700Y-130782700D03*
%TO.N,A7*%
X113642900Y-131521600D03*
%TO.N,A6*%
X110781500Y-132178300D03*
%TO.N,A5*%
X108052400Y-132178300D03*
%TO.N,A4*%
X104377500Y-121111500D03*
%TO.N,A3*%
X103314200Y-131977400D03*
%TO.N,A2*%
X100585100Y-132178300D03*
%TO.N,A1*%
X98595100Y-132178300D03*
%TO.N,A0*%
X94566700Y-124166300D03*
%TO.N,ROM_CE*%
X96587000Y-112080300D03*
%TO.N,A13*%
X119072200Y-132178300D03*
%TO.N,A14*%
X113798700Y-107110900D03*
%TO.N,BC1*%
X89786500Y-96225700D03*
%TO.N,OPAMP_OUT_AC*%
X120971600Y-120616200D03*
%TD*%
%TO.N,VCC*%
D17*
X111430000Y-132688300D02*
X113330000Y-132688300D01*
X84730000Y-95750000D02*
X84730000Y-93170000D01*
X125430000Y-104550000D02*
X129000000Y-100980000D01*
X120000000Y-116980000D02*
X120000000Y-114950000D01*
X114945600Y-127434400D02*
X116510000Y-125870000D01*
X95430000Y-106060000D02*
X95430000Y-104550000D01*
X95430000Y-104550000D02*
X99000000Y-100980000D01*
X84730000Y-93170000D02*
X86030000Y-91870000D01*
X113330000Y-132688300D02*
X114945600Y-131072700D01*
X120000000Y-123950000D02*
X118430000Y-123950000D01*
X118430000Y-123950000D02*
X116510000Y-125870000D01*
X114945600Y-131072700D02*
X114945600Y-127434400D01*
X111430000Y-136490000D02*
X111430000Y-132688300D01*
X92535000Y-90755000D02*
X92535000Y-67735000D01*
X93650000Y-91870000D02*
X99000000Y-97220000D01*
X125430000Y-106060000D02*
X125430000Y-104550000D01*
X99000000Y-97220000D02*
X99000000Y-100980000D01*
X92535000Y-67735000D02*
X93000000Y-67270000D01*
X93650000Y-91870000D02*
X92535000Y-90755000D01*
%TO.N,ROM_VPP*%
X118898300Y-113750000D02*
X116880000Y-111731700D01*
X116510000Y-110630000D02*
X116510000Y-111731700D01*
X120000000Y-113750000D02*
X118898300Y-113750000D01*
X116880000Y-111731700D02*
X116510000Y-111731700D01*
%TO.N,A15*%
X121361500Y-112890700D02*
X121101700Y-112630900D01*
X120000000Y-112550000D02*
X121101700Y-112550000D01*
X115783300Y-107784800D02*
X119846800Y-111848300D01*
X120000000Y-112550000D02*
X120000000Y-111848300D01*
X121101700Y-112630900D02*
X121101700Y-112550000D01*
X119846800Y-111848300D02*
X120000000Y-111848300D01*
%TO.N,SUM_NODE*%
X109270000Y-62190000D02*
X117270000Y-70190000D01*
X123001600Y-74018400D02*
X123270000Y-73750000D01*
X121270000Y-95750000D02*
X123001600Y-94018400D01*
X117270000Y-70190000D02*
X117270000Y-73750000D01*
X123001600Y-94018400D02*
X123001600Y-74018400D01*
%TO.N,ANALOG_B*%
X120730000Y-73750000D02*
X119050000Y-75430000D01*
X119050000Y-75430000D02*
X119050000Y-76630000D01*
%TO.N,D0*%
X120350000Y-98440000D02*
X118848100Y-99941900D01*
X109072000Y-108745200D02*
X92994800Y-108745200D01*
X111460000Y-106357200D02*
X109072000Y-108745200D01*
X92548300Y-126733400D02*
X93956900Y-128142000D01*
X93956900Y-128142000D02*
X93956900Y-132178300D01*
X118848100Y-99941900D02*
X117250700Y-99941900D01*
X111460000Y-105732600D02*
X111460000Y-106357200D01*
X92548300Y-112068300D02*
X92548300Y-126733400D01*
X91110000Y-110630000D02*
X92548300Y-112068300D01*
X92994800Y-108745200D02*
X91110000Y-110630000D01*
X117250700Y-99941900D02*
X111460000Y-105732600D01*
%TO.N,D1*%
X106933700Y-108343500D02*
X90856500Y-108343500D01*
X88570000Y-110630000D02*
X87451900Y-111748100D01*
X90856500Y-108343500D02*
X88570000Y-110630000D01*
X108920000Y-106357200D02*
X106933700Y-108343500D01*
X116708300Y-99541700D02*
X115110900Y-99541700D01*
X89840000Y-128746900D02*
X89840000Y-132178300D01*
X115110900Y-99541700D02*
X108920000Y-105732600D01*
X108920000Y-105732600D02*
X108920000Y-106357200D01*
X87451900Y-126358800D02*
X89840000Y-128746900D01*
X87451900Y-111748100D02*
X87451900Y-126358800D01*
X117810000Y-98440000D02*
X116708300Y-99541700D01*
%TO.N,DA1*%
X113970000Y-91870000D02*
X113970000Y-97140000D01*
X113970000Y-97140000D02*
X115270000Y-98440000D01*
%TO.N,DA2*%
X111430000Y-91870000D02*
X111430000Y-97140000D01*
X111430000Y-97140000D02*
X112730000Y-98440000D01*
%TO.N,D3*%
X107650000Y-98440000D02*
X107650000Y-102321000D01*
X107650000Y-102321000D02*
X105523300Y-104447700D01*
X86030000Y-128410000D02*
X86030000Y-136490000D01*
X83490000Y-125870000D02*
X86030000Y-128410000D01*
%TO.N,DA3*%
X108890000Y-94660000D02*
X105110000Y-98440000D01*
X108890000Y-91870000D02*
X108890000Y-94660000D01*
%TO.N,YM_LE*%
X100731800Y-107898200D02*
X86418800Y-107898200D01*
X102570000Y-106060000D02*
X100731800Y-107898200D01*
X86418800Y-107898200D02*
X86053000Y-108264000D01*
%TO.N,DA4*%
X106350000Y-91870000D02*
X103998700Y-94221300D01*
X104921600Y-104111700D02*
X104921600Y-105871600D01*
X104921600Y-105871600D02*
X105110000Y-106060000D01*
X103998700Y-94221300D02*
X103998700Y-103188800D01*
X103998700Y-103188800D02*
X104921600Y-104111700D01*
%TO.N,D4*%
X88570000Y-128410000D02*
X88570000Y-136490000D01*
X86030000Y-125870000D02*
X88570000Y-128410000D01*
%TO.N,D5*%
X88570000Y-125870000D02*
X91110000Y-128410000D01*
X91110000Y-128410000D02*
X91110000Y-136490000D01*
%TO.N,DA5*%
X103810000Y-91870000D02*
X101459600Y-94220400D01*
X101459600Y-101500600D02*
X103531100Y-103572100D01*
X101459600Y-94220400D02*
X101459600Y-101500600D01*
%TO.N,D6*%
X93355200Y-128115200D02*
X93355200Y-136195200D01*
X91110000Y-125870000D02*
X93355200Y-128115200D01*
X93355200Y-136195200D02*
X93650000Y-136490000D01*
%TO.N,D7*%
X96190000Y-128410000D02*
X96190000Y-136490000D01*
X93650000Y-125870000D02*
X96190000Y-128410000D01*
%TO.N,RESET_DELAYED*%
X78730000Y-95750000D02*
X78730000Y-94090000D01*
X78730000Y-94090000D02*
X80950000Y-91870000D01*
%TO.N,A12*%
X113954900Y-110645100D02*
X113954900Y-112848200D01*
X99347700Y-135872300D02*
X98730000Y-136490000D01*
X99347700Y-130782700D02*
X99347700Y-135872300D01*
X113970000Y-110630000D02*
X113954900Y-110645100D01*
%TO.N,A7*%
X112794500Y-111994500D02*
X112794500Y-130673200D01*
X111430000Y-110630000D02*
X112794500Y-111994500D01*
X112794500Y-130673200D02*
X113642900Y-131521600D01*
%TO.N,A6*%
X110245000Y-111985000D02*
X108890000Y-110630000D01*
X110245000Y-131641800D02*
X110245000Y-111985000D01*
X110781500Y-132178300D02*
X110245000Y-131641800D01*
%TO.N,A5*%
X107620000Y-131745900D02*
X107620000Y-111900000D01*
X107620000Y-111900000D02*
X106350000Y-110630000D01*
X108052400Y-132178300D02*
X107620000Y-131745900D01*
%TO.N,A4*%
X103810000Y-110630000D02*
X104377500Y-111197500D01*
X104377500Y-111197500D02*
X104377500Y-121111500D01*
%TO.N,A3*%
X101270000Y-110630000D02*
X100151900Y-111748100D01*
X103314200Y-129879300D02*
X103314200Y-131977400D01*
X100151900Y-126717000D02*
X103314200Y-129879300D01*
X100151900Y-111748100D02*
X100151900Y-126717000D01*
%TO.N,A2*%
X100585100Y-129640200D02*
X100585100Y-132178300D01*
X97618700Y-111741300D02*
X97618700Y-126673800D01*
X97618700Y-126673800D02*
X100585100Y-129640200D01*
X98730000Y-110630000D02*
X97618700Y-111741300D01*
%TO.N,A1*%
X95071900Y-124514400D02*
X95071900Y-126717000D01*
X96190000Y-110630000D02*
X95985300Y-110834700D01*
X95985300Y-110834700D02*
X95985300Y-123601000D01*
X95071900Y-126717000D02*
X98595100Y-130240200D01*
X98595100Y-130240200D02*
X98595100Y-132178300D01*
X95985300Y-123601000D02*
X95071900Y-124514400D01*
%TO.N,A0*%
X94566700Y-124166300D02*
X93650000Y-123249600D01*
X93650000Y-123249600D02*
X93650000Y-110630000D01*
%TO.N,ROM_CE*%
X96587000Y-125473000D02*
X96190000Y-125870000D01*
X96587000Y-112080300D02*
X96587000Y-125473000D01*
%TO.N,A10*%
X98730000Y-125870000D02*
X101270000Y-128410000D01*
X101270000Y-128410000D02*
X101270000Y-136490000D01*
%TO.N,A11*%
X103810000Y-136490000D02*
X103810000Y-132688300D01*
X103810000Y-132688300D02*
X103915900Y-132582400D01*
X103915900Y-132582400D02*
X103915900Y-125975900D01*
X103915900Y-125975900D02*
X103810000Y-125870000D01*
%TO.N,A9*%
X106350000Y-136490000D02*
X106350000Y-125870000D01*
%TO.N,A8*%
X108890000Y-125870000D02*
X108890000Y-132688300D01*
X108890000Y-136490000D02*
X108890000Y-132688300D01*
%TO.N,A13*%
X119050000Y-136490000D02*
X119050000Y-132200500D01*
X119050000Y-132200500D02*
X119072200Y-132178300D01*
%TO.N,ROM_ADDR14*%
X120000000Y-122750000D02*
X117090000Y-122750000D01*
X117090000Y-122750000D02*
X113970000Y-125870000D01*
%TO.N,A14*%
X115097100Y-108409300D02*
X113798700Y-107110900D01*
X115097100Y-116120800D02*
X115097100Y-108409300D01*
X120000000Y-120848300D02*
X119824600Y-120848300D01*
X120000000Y-121550000D02*
X120000000Y-120848300D01*
X121101700Y-121550000D02*
X121101700Y-132200000D01*
X121590000Y-136490000D02*
X121590000Y-132688300D01*
X121101700Y-132200000D02*
X121590000Y-132688300D01*
X120000000Y-121550000D02*
X121101700Y-121550000D01*
X119824600Y-120848300D02*
X115097100Y-116120800D01*
%TO.N,HALT*%
X86395200Y-107071000D02*
X84889200Y-108577000D01*
X84889200Y-122912800D02*
X80950000Y-126852000D01*
X86395200Y-99565200D02*
X86395200Y-107071000D01*
X85270000Y-98440000D02*
X86395200Y-99565200D01*
X80950000Y-126852000D02*
X80950000Y-136490000D01*
X84889200Y-108577000D02*
X84889200Y-122912800D01*
%TO.N,RW*%
X78770000Y-132328300D02*
X78770000Y-102400000D01*
X78410000Y-132688300D02*
X78770000Y-132328300D01*
X78770000Y-102400000D02*
X82730000Y-98440000D01*
X78410000Y-136490000D02*
X78410000Y-132688300D01*
%TO.N,PHI2OUT*%
X83705000Y-96799000D02*
X84000000Y-97094000D01*
X82270200Y-91613500D02*
X82270200Y-92970200D01*
X84000000Y-104790000D02*
X85270000Y-106060000D01*
X78410000Y-91870000D02*
X79515600Y-90764400D01*
X79515600Y-90764400D02*
X81421100Y-90764400D01*
X81421100Y-90764400D02*
X82270200Y-91613500D01*
X83705000Y-94405000D02*
X83705000Y-96799000D01*
X82270200Y-92970200D02*
X83705000Y-94405000D01*
X84000000Y-97094000D02*
X84000000Y-104790000D01*
%TO.N,BC1*%
X89080000Y-96932200D02*
X89080000Y-104790000D01*
X89786500Y-96225700D02*
X89080000Y-96932200D01*
X89080000Y-104790000D02*
X87810000Y-106060000D01*
%TO.N,BDIR*%
X91110000Y-91870000D02*
X91465200Y-92225200D01*
X91465200Y-92225200D02*
X91465200Y-104944800D01*
X91465200Y-104944800D02*
X90350000Y-106060000D01*
%TO.N,ANALOG_A*%
X114730000Y-73750000D02*
X116510000Y-75530000D01*
X116510000Y-75530000D02*
X116510000Y-76630000D01*
%TO.N,ANALOG_C*%
X119050000Y-95430000D02*
X119050000Y-91870000D01*
X118730000Y-95750000D02*
X119050000Y-95430000D01*
%TO.N,OPAMP_OUT_AC*%
X125263900Y-66993900D02*
X123000000Y-64730000D01*
X122022900Y-112323000D02*
X124301600Y-110044300D01*
X124301600Y-96636100D02*
X125263900Y-95673800D01*
X120971600Y-120616200D02*
X122022900Y-119564900D01*
X122022900Y-119564900D02*
X122022900Y-112323000D01*
X125263900Y-95673800D02*
X125263900Y-66993900D01*
X124301600Y-110044300D02*
X124301600Y-96636100D01*
%TD*%
%TA.AperFunction,Conductor*%
%TO.N,GND*%
G36*
X131778326Y-60221674D02*
G01*
X131800000Y-60274000D01*
X131800000Y-115976000D01*
X131778326Y-116028326D01*
X131726000Y-116050000D01*
X123800000Y-116050000D01*
X123786994Y-116051281D01*
X123760980Y-116053843D01*
X123738218Y-116060748D01*
X123723463Y-116065224D01*
X123723461Y-116065224D01*
X123723461Y-116065225D01*
X123688887Y-116083705D01*
X123688883Y-116083708D01*
X123658579Y-116108579D01*
X123633708Y-116138883D01*
X123633705Y-116138887D01*
X123615225Y-116173461D01*
X123603843Y-116210980D01*
X123600000Y-116250001D01*
X123600000Y-139726000D01*
X123578326Y-139778326D01*
X123526000Y-139800000D01*
X122864500Y-139800000D01*
X122812174Y-139778326D01*
X122790500Y-139726000D01*
X122790500Y-132970246D01*
X122790356Y-132968783D01*
X122790000Y-132961536D01*
X122790000Y-132790000D01*
X122618464Y-132790000D01*
X122611217Y-132789644D01*
X122609754Y-132789500D01*
X122609748Y-132789500D01*
X121964500Y-132789500D01*
X121912174Y-132767826D01*
X121890500Y-132715500D01*
X121890500Y-132648736D01*
X121890499Y-132648735D01*
X121889912Y-132646546D01*
X121873483Y-132585230D01*
X121870022Y-132572314D01*
X121870020Y-132572309D01*
X121842814Y-132525187D01*
X121830460Y-132503789D01*
X121774511Y-132447840D01*
X121423874Y-132097203D01*
X121402200Y-132044877D01*
X121402200Y-121510436D01*
X121402199Y-121510435D01*
X121381722Y-121434014D01*
X121381720Y-121434009D01*
X121342159Y-121365488D01*
X121286211Y-121309540D01*
X121217690Y-121269979D01*
X121217685Y-121269977D01*
X121141264Y-121249500D01*
X121141262Y-121249500D01*
X121103962Y-121249500D01*
X121051636Y-121227826D01*
X121029962Y-121175500D01*
X121051636Y-121123174D01*
X121084809Y-121104022D01*
X121129544Y-121092034D01*
X121164786Y-121082592D01*
X121278914Y-121016700D01*
X121372100Y-120923514D01*
X121437992Y-120809386D01*
X121472099Y-120682094D01*
X121472100Y-120682094D01*
X121472100Y-120571322D01*
X121493774Y-120518996D01*
X121862964Y-120149806D01*
X122263360Y-119749411D01*
X122302922Y-119680888D01*
X122323400Y-119604462D01*
X122323400Y-119525338D01*
X122323400Y-112478123D01*
X122345074Y-112425797D01*
X123439924Y-111330947D01*
X124542060Y-110228811D01*
X124549843Y-110215331D01*
X124581621Y-110160289D01*
X124602099Y-110083864D01*
X124602100Y-110083864D01*
X124602100Y-106825673D01*
X124623774Y-106773347D01*
X124676100Y-106751673D01*
X124728426Y-106773347D01*
X124792218Y-106837139D01*
X124956086Y-106946632D01*
X125138165Y-107022051D01*
X125331459Y-107060500D01*
X125331461Y-107060500D01*
X125528539Y-107060500D01*
X125528541Y-107060500D01*
X125721835Y-107022051D01*
X125903914Y-106946632D01*
X126067782Y-106837139D01*
X126207139Y-106697782D01*
X126316632Y-106533914D01*
X126392051Y-106351835D01*
X126430500Y-106158541D01*
X126430500Y-105961459D01*
X126392051Y-105768165D01*
X126316632Y-105586086D01*
X126207139Y-105422218D01*
X126067782Y-105282861D01*
X126067779Y-105282859D01*
X125951787Y-105205356D01*
X125903914Y-105173368D01*
X125903911Y-105173366D01*
X125903910Y-105173366D01*
X125776181Y-105120459D01*
X125736133Y-105080410D01*
X125730500Y-105052092D01*
X125730500Y-104705122D01*
X125752173Y-104652797D01*
X128576324Y-101828645D01*
X128628649Y-101806972D01*
X128656964Y-101812604D01*
X128737334Y-101845894D01*
X128911309Y-101880500D01*
X128911311Y-101880500D01*
X129088689Y-101880500D01*
X129088691Y-101880500D01*
X129262666Y-101845894D01*
X129426547Y-101778013D01*
X129574035Y-101679464D01*
X129699464Y-101554035D01*
X129798013Y-101406547D01*
X129865894Y-101242666D01*
X129900500Y-101068691D01*
X129900500Y-100891309D01*
X129865894Y-100717334D01*
X129798013Y-100553453D01*
X129699464Y-100405965D01*
X129574035Y-100280536D01*
X129516959Y-100242399D01*
X129426544Y-100181985D01*
X129262670Y-100114107D01*
X129262660Y-100114104D01*
X129146156Y-100090930D01*
X129088691Y-100079500D01*
X128911309Y-100079500D01*
X128861989Y-100089310D01*
X128737339Y-100114104D01*
X128737329Y-100114107D01*
X128573455Y-100181985D01*
X128425968Y-100280533D01*
X128300533Y-100405968D01*
X128201985Y-100553455D01*
X128134107Y-100717329D01*
X128134104Y-100717339D01*
X128099500Y-100891310D01*
X128099500Y-101068689D01*
X128134104Y-101242660D01*
X128134105Y-101242662D01*
X128134106Y-101242666D01*
X128134108Y-101242670D01*
X128167394Y-101323032D01*
X128167393Y-101379669D01*
X128151352Y-101403675D01*
X125245489Y-104309540D01*
X125189540Y-104365488D01*
X125149979Y-104434009D01*
X125149977Y-104434014D01*
X125129500Y-104510435D01*
X125129500Y-105052092D01*
X125107826Y-105104418D01*
X125083819Y-105120459D01*
X124956089Y-105173366D01*
X124792218Y-105282860D01*
X124792217Y-105282862D01*
X124728426Y-105346653D01*
X124676100Y-105368327D01*
X124623774Y-105346653D01*
X124602100Y-105294327D01*
X124602100Y-96791222D01*
X124623773Y-96738897D01*
X125504360Y-95858311D01*
X125543922Y-95789788D01*
X125564400Y-95713362D01*
X125564400Y-95634238D01*
X125564400Y-82891310D01*
X127099500Y-82891310D01*
X127099500Y-83068689D01*
X127134104Y-83242660D01*
X127134107Y-83242670D01*
X127201985Y-83406544D01*
X127201986Y-83406546D01*
X127201987Y-83406547D01*
X127300536Y-83554035D01*
X127425965Y-83679464D01*
X127573453Y-83778013D01*
X127737334Y-83845894D01*
X127911309Y-83880500D01*
X127911311Y-83880500D01*
X128088689Y-83880500D01*
X128088691Y-83880500D01*
X128262666Y-83845894D01*
X128426547Y-83778013D01*
X128574035Y-83679464D01*
X128699464Y-83554035D01*
X128798013Y-83406547D01*
X128865894Y-83242666D01*
X128900500Y-83068691D01*
X128900500Y-82891309D01*
X128865894Y-82717334D01*
X128798013Y-82553453D01*
X128699464Y-82405965D01*
X128574035Y-82280536D01*
X128426547Y-82181987D01*
X128426546Y-82181986D01*
X128426544Y-82181985D01*
X128262670Y-82114107D01*
X128262660Y-82114104D01*
X128146156Y-82090930D01*
X128088691Y-82079500D01*
X127911309Y-82079500D01*
X127861989Y-82089310D01*
X127737339Y-82114104D01*
X127737329Y-82114107D01*
X127573455Y-82181985D01*
X127425968Y-82280533D01*
X127300533Y-82405968D01*
X127201985Y-82553455D01*
X127134107Y-82717329D01*
X127134104Y-82717339D01*
X127099500Y-82891310D01*
X125564400Y-82891310D01*
X125564400Y-67181310D01*
X127099500Y-67181310D01*
X127099500Y-67358689D01*
X127134104Y-67532660D01*
X127134107Y-67532670D01*
X127201985Y-67696544D01*
X127201986Y-67696546D01*
X127201987Y-67696547D01*
X127300536Y-67844035D01*
X127425965Y-67969464D01*
X127573453Y-68068013D01*
X127737334Y-68135894D01*
X127911309Y-68170500D01*
X127911311Y-68170500D01*
X128088689Y-68170500D01*
X128088691Y-68170500D01*
X128262666Y-68135894D01*
X128426547Y-68068013D01*
X128574035Y-67969464D01*
X128699464Y-67844035D01*
X128798013Y-67696547D01*
X128865894Y-67532666D01*
X128900500Y-67358691D01*
X128900500Y-67181309D01*
X128865894Y-67007334D01*
X128798013Y-66843453D01*
X128699464Y-66695965D01*
X128574035Y-66570536D01*
X128426547Y-66471987D01*
X128426546Y-66471986D01*
X128426544Y-66471985D01*
X128262670Y-66404107D01*
X128262660Y-66404104D01*
X128146156Y-66380930D01*
X128088691Y-66369500D01*
X127911309Y-66369500D01*
X127861989Y-66379310D01*
X127737339Y-66404104D01*
X127737329Y-66404107D01*
X127573455Y-66471985D01*
X127425968Y-66570533D01*
X127300533Y-66695968D01*
X127201985Y-66843455D01*
X127134107Y-67007329D01*
X127134104Y-67007339D01*
X127099500Y-67181310D01*
X125564400Y-67181310D01*
X125564400Y-66954338D01*
X125564400Y-66954336D01*
X125564399Y-66954335D01*
X125543922Y-66877914D01*
X125543920Y-66877909D01*
X125504359Y-66809388D01*
X123848646Y-65153675D01*
X123826972Y-65101349D01*
X123832603Y-65073036D01*
X123865894Y-64992666D01*
X123900500Y-64818691D01*
X123900500Y-64641309D01*
X123865894Y-64467334D01*
X123798013Y-64303453D01*
X123699464Y-64155965D01*
X123574035Y-64030536D01*
X123426547Y-63931987D01*
X123426546Y-63931986D01*
X123426544Y-63931985D01*
X123262670Y-63864107D01*
X123262660Y-63864104D01*
X123146156Y-63840930D01*
X123088691Y-63829500D01*
X122911309Y-63829500D01*
X122861989Y-63839310D01*
X122737339Y-63864104D01*
X122737329Y-63864107D01*
X122573455Y-63931985D01*
X122425968Y-64030533D01*
X122300533Y-64155968D01*
X122201985Y-64303455D01*
X122134107Y-64467329D01*
X122134104Y-64467339D01*
X122099500Y-64641310D01*
X122099500Y-64818689D01*
X122134104Y-64992660D01*
X122134107Y-64992670D01*
X122201985Y-65156544D01*
X122201986Y-65156546D01*
X122201987Y-65156547D01*
X122300536Y-65304035D01*
X122425965Y-65429464D01*
X122573453Y-65528013D01*
X122573454Y-65528013D01*
X122573455Y-65528014D01*
X122656966Y-65562605D01*
X122737334Y-65595894D01*
X122911309Y-65630500D01*
X122911311Y-65630500D01*
X123088689Y-65630500D01*
X123088691Y-65630500D01*
X123262666Y-65595894D01*
X123343033Y-65562605D01*
X123399667Y-65562605D01*
X123423675Y-65578646D01*
X124941726Y-67096697D01*
X124963400Y-67149023D01*
X124963400Y-91109827D01*
X124941726Y-91162153D01*
X124889400Y-91183827D01*
X124837074Y-91162153D01*
X124767781Y-91092860D01*
X124603913Y-90983367D01*
X124421839Y-90907950D01*
X124421829Y-90907947D01*
X124292388Y-90882200D01*
X124228541Y-90869500D01*
X124031459Y-90869500D01*
X123976662Y-90880399D01*
X123838170Y-90907947D01*
X123838160Y-90907950D01*
X123656086Y-90983367D01*
X123492218Y-91092860D01*
X123492217Y-91092862D01*
X123428426Y-91156653D01*
X123376100Y-91178327D01*
X123323774Y-91156653D01*
X123302100Y-91104327D01*
X123302100Y-74722486D01*
X123323774Y-74670160D01*
X123361662Y-74649909D01*
X123532666Y-74615894D01*
X123696547Y-74548013D01*
X123844035Y-74449464D01*
X123969464Y-74324035D01*
X124068013Y-74176547D01*
X124135894Y-74012666D01*
X124170500Y-73838691D01*
X124170500Y-73661309D01*
X124135894Y-73487334D01*
X124068013Y-73323453D01*
X123969464Y-73175965D01*
X123844035Y-73050536D01*
X123696547Y-72951987D01*
X123696546Y-72951986D01*
X123696544Y-72951985D01*
X123532670Y-72884107D01*
X123532660Y-72884104D01*
X123416156Y-72860930D01*
X123358691Y-72849500D01*
X123181309Y-72849500D01*
X123131989Y-72859310D01*
X123007339Y-72884104D01*
X123007329Y-72884107D01*
X122843455Y-72951985D01*
X122695968Y-73050533D01*
X122570533Y-73175968D01*
X122471985Y-73323455D01*
X122404107Y-73487329D01*
X122404104Y-73487339D01*
X122369500Y-73661310D01*
X122369500Y-73838689D01*
X122404104Y-74012660D01*
X122404107Y-74012670D01*
X122471985Y-74176544D01*
X122471986Y-74176546D01*
X122471987Y-74176547D01*
X122570536Y-74324035D01*
X122679426Y-74432925D01*
X122701100Y-74485250D01*
X122701100Y-76336149D01*
X122679426Y-76388475D01*
X122627100Y-76410149D01*
X122574774Y-76388475D01*
X122554522Y-76350587D01*
X122554221Y-76349074D01*
X122552051Y-76338165D01*
X122476632Y-76156086D01*
X122367139Y-75992218D01*
X122227782Y-75852861D01*
X122063914Y-75743368D01*
X122063915Y-75743368D01*
X122063913Y-75743367D01*
X121881839Y-75667950D01*
X121881829Y-75667947D01*
X121752388Y-75642200D01*
X121688541Y-75629500D01*
X121491459Y-75629500D01*
X121436662Y-75640399D01*
X121298170Y-75667947D01*
X121298160Y-75667950D01*
X121116086Y-75743367D01*
X120952218Y-75852860D01*
X120952217Y-75852862D01*
X120812862Y-75992217D01*
X120812860Y-75992218D01*
X120703367Y-76156086D01*
X120627950Y-76338160D01*
X120627947Y-76338170D01*
X120589500Y-76531460D01*
X120589500Y-76728539D01*
X120627947Y-76921829D01*
X120627950Y-76921839D01*
X120703367Y-77103913D01*
X120775500Y-77211867D01*
X120812861Y-77267782D01*
X120952218Y-77407139D01*
X121116086Y-77516632D01*
X121298165Y-77592051D01*
X121491459Y-77630500D01*
X121491461Y-77630500D01*
X121688539Y-77630500D01*
X121688541Y-77630500D01*
X121881835Y-77592051D01*
X122063914Y-77516632D01*
X122227782Y-77407139D01*
X122367139Y-77267782D01*
X122476632Y-77103914D01*
X122552051Y-76921835D01*
X122554522Y-76909413D01*
X122585988Y-76862321D01*
X122641537Y-76851272D01*
X122688629Y-76882738D01*
X122701100Y-76923850D01*
X122701100Y-91576149D01*
X122679426Y-91628475D01*
X122627100Y-91650149D01*
X122574774Y-91628475D01*
X122554522Y-91590587D01*
X122554221Y-91589074D01*
X122552051Y-91578165D01*
X122476632Y-91396086D01*
X122367139Y-91232218D01*
X122227782Y-91092861D01*
X122185936Y-91064900D01*
X122063913Y-90983367D01*
X121881839Y-90907950D01*
X121881829Y-90907947D01*
X121752388Y-90882200D01*
X121688541Y-90869500D01*
X121491459Y-90869500D01*
X121436662Y-90880399D01*
X121298170Y-90907947D01*
X121298160Y-90907950D01*
X121116086Y-90983367D01*
X120952218Y-91092860D01*
X120952217Y-91092862D01*
X120812862Y-91232217D01*
X120812860Y-91232218D01*
X120703367Y-91396086D01*
X120627950Y-91578160D01*
X120627947Y-91578170D01*
X120589500Y-91771460D01*
X120589500Y-91968539D01*
X120627947Y-92161829D01*
X120627950Y-92161839D01*
X120703367Y-92343913D01*
X120812860Y-92507781D01*
X120952218Y-92647139D01*
X121116086Y-92756632D01*
X121282542Y-92825580D01*
X121298165Y-92832051D01*
X121491459Y-92870500D01*
X121491461Y-92870500D01*
X121688539Y-92870500D01*
X121688541Y-92870500D01*
X121881835Y-92832051D01*
X122063914Y-92756632D01*
X122227782Y-92647139D01*
X122367139Y-92507782D01*
X122476632Y-92343914D01*
X122552051Y-92161835D01*
X122554522Y-92149413D01*
X122585988Y-92102321D01*
X122641537Y-92091272D01*
X122688629Y-92122738D01*
X122701100Y-92163850D01*
X122701100Y-93863276D01*
X122679426Y-93915602D01*
X121693675Y-94901352D01*
X121641349Y-94923026D01*
X121613032Y-94917394D01*
X121532666Y-94884106D01*
X121532662Y-94884105D01*
X121532660Y-94884104D01*
X121416156Y-94860930D01*
X121358691Y-94849500D01*
X121181309Y-94849500D01*
X121131989Y-94859310D01*
X121007339Y-94884104D01*
X121007329Y-94884107D01*
X120843455Y-94951985D01*
X120695968Y-95050533D01*
X120570533Y-95175968D01*
X120471985Y-95323455D01*
X120404107Y-95487329D01*
X120404104Y-95487339D01*
X120369500Y-95661310D01*
X120369500Y-95838689D01*
X120404104Y-96012660D01*
X120404107Y-96012670D01*
X120471985Y-96176544D01*
X120534815Y-96270576D01*
X120570536Y-96324035D01*
X120695965Y-96449464D01*
X120843453Y-96548013D01*
X120843454Y-96548013D01*
X120843455Y-96548014D01*
X120960604Y-96596538D01*
X121007334Y-96615894D01*
X121181309Y-96650500D01*
X121181311Y-96650500D01*
X121358689Y-96650500D01*
X121358691Y-96650500D01*
X121532666Y-96615894D01*
X121696547Y-96548013D01*
X121844035Y-96449464D01*
X121969464Y-96324035D01*
X122068013Y-96176547D01*
X122135894Y-96012666D01*
X122170500Y-95838691D01*
X122170500Y-95661309D01*
X122135894Y-95487334D01*
X122102605Y-95406966D01*
X122102605Y-95350330D01*
X122118643Y-95326326D01*
X123242060Y-94202911D01*
X123264213Y-94164540D01*
X123281621Y-94134389D01*
X123302099Y-94057964D01*
X123302100Y-94057964D01*
X123302100Y-92635673D01*
X123323774Y-92583347D01*
X123376100Y-92561673D01*
X123428426Y-92583347D01*
X123492218Y-92647139D01*
X123656086Y-92756632D01*
X123822542Y-92825580D01*
X123838165Y-92832051D01*
X124031459Y-92870500D01*
X124031461Y-92870500D01*
X124228539Y-92870500D01*
X124228541Y-92870500D01*
X124421835Y-92832051D01*
X124603914Y-92756632D01*
X124767782Y-92647139D01*
X124837074Y-92577847D01*
X124889400Y-92556173D01*
X124941726Y-92577847D01*
X124963400Y-92630173D01*
X124963400Y-95518677D01*
X124941726Y-95571003D01*
X124061140Y-96451588D01*
X124021579Y-96520109D01*
X124021577Y-96520114D01*
X124001100Y-96596535D01*
X124001100Y-98146149D01*
X123979426Y-98198475D01*
X123927100Y-98220149D01*
X123874774Y-98198475D01*
X123854522Y-98160587D01*
X123854221Y-98159074D01*
X123852051Y-98148165D01*
X123776632Y-97966086D01*
X123667139Y-97802218D01*
X123527782Y-97662861D01*
X123519351Y-97657227D01*
X123363913Y-97553367D01*
X123181839Y-97477950D01*
X123181829Y-97477947D01*
X123047023Y-97451133D01*
X122988541Y-97439500D01*
X122791459Y-97439500D01*
X122736662Y-97450399D01*
X122598170Y-97477947D01*
X122598160Y-97477950D01*
X122416086Y-97553367D01*
X122252218Y-97662860D01*
X122252217Y-97662862D01*
X122112862Y-97802217D01*
X122112860Y-97802218D01*
X122003367Y-97966086D01*
X121927950Y-98148160D01*
X121927947Y-98148170D01*
X121889500Y-98341460D01*
X121889500Y-98538539D01*
X121927947Y-98731829D01*
X121927950Y-98731839D01*
X122003367Y-98913913D01*
X122112860Y-99077781D01*
X122252218Y-99217139D01*
X122416086Y-99326632D01*
X122582542Y-99395580D01*
X122598165Y-99402051D01*
X122791459Y-99440500D01*
X122791461Y-99440500D01*
X122988539Y-99440500D01*
X122988541Y-99440500D01*
X123181835Y-99402051D01*
X123363914Y-99326632D01*
X123527782Y-99217139D01*
X123667139Y-99077782D01*
X123776632Y-98913914D01*
X123852051Y-98731835D01*
X123854522Y-98719413D01*
X123885988Y-98672321D01*
X123941537Y-98661272D01*
X123988629Y-98692738D01*
X124001100Y-98733850D01*
X124001100Y-105766149D01*
X123979426Y-105818475D01*
X123927100Y-105840149D01*
X123874774Y-105818475D01*
X123854522Y-105780587D01*
X123854221Y-105779074D01*
X123852051Y-105768165D01*
X123776632Y-105586086D01*
X123667139Y-105422218D01*
X123527782Y-105282861D01*
X123527780Y-105282859D01*
X123363913Y-105173367D01*
X123181839Y-105097950D01*
X123181829Y-105097947D01*
X123052388Y-105072200D01*
X122988541Y-105059500D01*
X122791459Y-105059500D01*
X122736662Y-105070399D01*
X122598170Y-105097947D01*
X122598160Y-105097950D01*
X122416086Y-105173367D01*
X122252218Y-105282860D01*
X122252217Y-105282862D01*
X122112862Y-105422217D01*
X122112860Y-105422218D01*
X122003367Y-105586086D01*
X121927950Y-105768160D01*
X121927947Y-105768170D01*
X121889500Y-105961460D01*
X121889500Y-106158539D01*
X121927947Y-106351829D01*
X121927950Y-106351839D01*
X122003367Y-106533913D01*
X122077266Y-106644510D01*
X122112861Y-106697782D01*
X122252218Y-106837139D01*
X122416086Y-106946632D01*
X122598165Y-107022051D01*
X122791459Y-107060500D01*
X122791461Y-107060500D01*
X122988539Y-107060500D01*
X122988541Y-107060500D01*
X123181835Y-107022051D01*
X123363914Y-106946632D01*
X123527782Y-106837139D01*
X123667139Y-106697782D01*
X123776632Y-106533914D01*
X123852051Y-106351835D01*
X123854522Y-106339413D01*
X123885988Y-106292321D01*
X123941537Y-106281272D01*
X123988629Y-106312738D01*
X124001100Y-106353850D01*
X124001100Y-109889177D01*
X123979426Y-109941503D01*
X121782440Y-112138488D01*
X121742879Y-112207009D01*
X121742877Y-112207014D01*
X121722400Y-112283435D01*
X121722400Y-112392965D01*
X121700726Y-112445291D01*
X121648400Y-112466965D01*
X121611401Y-112457051D01*
X121554694Y-112424311D01*
X121554681Y-112424306D01*
X121427394Y-112390200D01*
X121427392Y-112390200D01*
X121397522Y-112390200D01*
X121345196Y-112368526D01*
X121345196Y-112368525D01*
X121286213Y-112309541D01*
X121217690Y-112269979D01*
X121217685Y-112269977D01*
X121141264Y-112249500D01*
X121141262Y-112249500D01*
X121074500Y-112249500D01*
X121048605Y-112238774D01*
X121022661Y-112228308D01*
X121022518Y-112227968D01*
X121022174Y-112227826D01*
X121000503Y-112176186D01*
X121000500Y-112175862D01*
X121000500Y-112130252D01*
X121000056Y-112128023D01*
X121000003Y-112122222D01*
X121000030Y-112122154D01*
X121000000Y-112121536D01*
X121000000Y-111950000D01*
X120828464Y-111950000D01*
X120821217Y-111949644D01*
X120819754Y-111949500D01*
X120819748Y-111949500D01*
X120374500Y-111949500D01*
X120322174Y-111927826D01*
X120300500Y-111875500D01*
X120300500Y-111808736D01*
X120300499Y-111808735D01*
X120298289Y-111800489D01*
X120280021Y-111732311D01*
X120240460Y-111663789D01*
X120184511Y-111607840D01*
X120176705Y-111603333D01*
X120115990Y-111568279D01*
X120115985Y-111568277D01*
X120039564Y-111547800D01*
X120039562Y-111547800D01*
X120001923Y-111547800D01*
X119949597Y-111526126D01*
X116305474Y-107882003D01*
X116283800Y-107829677D01*
X116283800Y-107718906D01*
X116283799Y-107718905D01*
X116249693Y-107591618D01*
X116249692Y-107591614D01*
X116183800Y-107477486D01*
X116090614Y-107384300D01*
X115976490Y-107318410D01*
X115976481Y-107318406D01*
X115849194Y-107284300D01*
X115849192Y-107284300D01*
X115717408Y-107284300D01*
X115717406Y-107284300D01*
X115590118Y-107318406D01*
X115590109Y-107318410D01*
X115475985Y-107384300D01*
X115382800Y-107477485D01*
X115316910Y-107591609D01*
X115316906Y-107591618D01*
X115282800Y-107718905D01*
X115282800Y-107850694D01*
X115316906Y-107977981D01*
X115316910Y-107977990D01*
X115344792Y-108026283D01*
X115352184Y-108082436D01*
X115317706Y-108127369D01*
X115261553Y-108134761D01*
X115228380Y-108115609D01*
X114320874Y-107208103D01*
X114299200Y-107155777D01*
X114299200Y-107045006D01*
X114299199Y-107045005D01*
X114277362Y-106963509D01*
X114265092Y-106917714D01*
X114199200Y-106803586D01*
X114106014Y-106710400D01*
X114084157Y-106697781D01*
X113991890Y-106644510D01*
X113991881Y-106644506D01*
X113864594Y-106610400D01*
X113864592Y-106610400D01*
X113732808Y-106610400D01*
X113711434Y-106616127D01*
X113655281Y-106608734D01*
X113620803Y-106563800D01*
X113623914Y-106516331D01*
X113692051Y-106351835D01*
X113730500Y-106158541D01*
X113730500Y-105961460D01*
X114269500Y-105961460D01*
X114269500Y-106158539D01*
X114307947Y-106351829D01*
X114307950Y-106351839D01*
X114383367Y-106533913D01*
X114457266Y-106644510D01*
X114492861Y-106697782D01*
X114632218Y-106837139D01*
X114796086Y-106946632D01*
X114978165Y-107022051D01*
X115171459Y-107060500D01*
X115171461Y-107060500D01*
X115368539Y-107060500D01*
X115368541Y-107060500D01*
X115561835Y-107022051D01*
X115743914Y-106946632D01*
X115907782Y-106837139D01*
X116047139Y-106697782D01*
X116156632Y-106533914D01*
X116232051Y-106351835D01*
X116270500Y-106158541D01*
X116270500Y-105961460D01*
X116809500Y-105961460D01*
X116809500Y-106158539D01*
X116847947Y-106351829D01*
X116847950Y-106351839D01*
X116923367Y-106533913D01*
X116997266Y-106644510D01*
X117032861Y-106697782D01*
X117172218Y-106837139D01*
X117336086Y-106946632D01*
X117518165Y-107022051D01*
X117711459Y-107060500D01*
X117711461Y-107060500D01*
X117908539Y-107060500D01*
X117908541Y-107060500D01*
X118101835Y-107022051D01*
X118283914Y-106946632D01*
X118447782Y-106837139D01*
X118587139Y-106697782D01*
X118696632Y-106533914D01*
X118772051Y-106351835D01*
X118810500Y-106158541D01*
X118810500Y-105961460D01*
X119349500Y-105961460D01*
X119349500Y-106158539D01*
X119387947Y-106351829D01*
X119387950Y-106351839D01*
X119463367Y-106533913D01*
X119537266Y-106644510D01*
X119572861Y-106697782D01*
X119712218Y-106837139D01*
X119876086Y-106946632D01*
X120058165Y-107022051D01*
X120251459Y-107060500D01*
X120251461Y-107060500D01*
X120448539Y-107060500D01*
X120448541Y-107060500D01*
X120641835Y-107022051D01*
X120823914Y-106946632D01*
X120987782Y-106837139D01*
X121127139Y-106697782D01*
X121236632Y-106533914D01*
X121312051Y-106351835D01*
X121350500Y-106158541D01*
X121350500Y-105961459D01*
X121312051Y-105768165D01*
X121236632Y-105586086D01*
X121127139Y-105422218D01*
X120987782Y-105282861D01*
X120987780Y-105282859D01*
X120823913Y-105173367D01*
X120641839Y-105097950D01*
X120641829Y-105097947D01*
X120512388Y-105072200D01*
X120448541Y-105059500D01*
X120251459Y-105059500D01*
X120196662Y-105070399D01*
X120058170Y-105097947D01*
X120058160Y-105097950D01*
X119876086Y-105173367D01*
X119712218Y-105282860D01*
X119712217Y-105282862D01*
X119572862Y-105422217D01*
X119572860Y-105422218D01*
X119463367Y-105586086D01*
X119387950Y-105768160D01*
X119387947Y-105768170D01*
X119349500Y-105961460D01*
X118810500Y-105961460D01*
X118810500Y-105961459D01*
X118772051Y-105768165D01*
X118696632Y-105586086D01*
X118587139Y-105422218D01*
X118447782Y-105282861D01*
X118447780Y-105282859D01*
X118283913Y-105173367D01*
X118101839Y-105097950D01*
X118101829Y-105097947D01*
X117972388Y-105072200D01*
X117908541Y-105059500D01*
X117711459Y-105059500D01*
X117656662Y-105070399D01*
X117518170Y-105097947D01*
X117518160Y-105097950D01*
X117336086Y-105173367D01*
X117172218Y-105282860D01*
X117172217Y-105282862D01*
X117032862Y-105422217D01*
X117032860Y-105422218D01*
X116923367Y-105586086D01*
X116847950Y-105768160D01*
X116847947Y-105768170D01*
X116809500Y-105961460D01*
X116270500Y-105961460D01*
X116270500Y-105961459D01*
X116232051Y-105768165D01*
X116156632Y-105586086D01*
X116047139Y-105422218D01*
X115907782Y-105282861D01*
X115907780Y-105282859D01*
X115743913Y-105173367D01*
X115561839Y-105097950D01*
X115561829Y-105097947D01*
X115432388Y-105072200D01*
X115368541Y-105059500D01*
X115171459Y-105059500D01*
X115116662Y-105070399D01*
X114978170Y-105097947D01*
X114978160Y-105097950D01*
X114796086Y-105173367D01*
X114632218Y-105282860D01*
X114632217Y-105282862D01*
X114492862Y-105422217D01*
X114492860Y-105422218D01*
X114383367Y-105586086D01*
X114307950Y-105768160D01*
X114307947Y-105768170D01*
X114269500Y-105961460D01*
X113730500Y-105961460D01*
X113730500Y-105961459D01*
X113692051Y-105768165D01*
X113616632Y-105586086D01*
X113507139Y-105422218D01*
X113367782Y-105282861D01*
X113367780Y-105282859D01*
X113203913Y-105173367D01*
X113021839Y-105097950D01*
X113021829Y-105097947D01*
X112892388Y-105072200D01*
X112828541Y-105059500D01*
X112736722Y-105059500D01*
X112684396Y-105037826D01*
X112662722Y-104985500D01*
X112684396Y-104933174D01*
X117353497Y-100264074D01*
X117405823Y-100242400D01*
X118887664Y-100242400D01*
X118887664Y-100242399D01*
X118964089Y-100221921D01*
X119032611Y-100182360D01*
X119088560Y-100126411D01*
X119849787Y-99365182D01*
X119902112Y-99343509D01*
X119930430Y-99349142D01*
X120049498Y-99398461D01*
X120058165Y-99402051D01*
X120251459Y-99440500D01*
X120251461Y-99440500D01*
X120448539Y-99440500D01*
X120448541Y-99440500D01*
X120641835Y-99402051D01*
X120823914Y-99326632D01*
X120987782Y-99217139D01*
X121127139Y-99077782D01*
X121236632Y-98913914D01*
X121312051Y-98731835D01*
X121350500Y-98538541D01*
X121350500Y-98341459D01*
X121312051Y-98148165D01*
X121236632Y-97966086D01*
X121127139Y-97802218D01*
X120987782Y-97662861D01*
X120979351Y-97657227D01*
X120823913Y-97553367D01*
X120641839Y-97477950D01*
X120641829Y-97477947D01*
X120507023Y-97451133D01*
X120448541Y-97439500D01*
X120251459Y-97439500D01*
X120196662Y-97450399D01*
X120058170Y-97477947D01*
X120058160Y-97477950D01*
X119876086Y-97553367D01*
X119712218Y-97662860D01*
X119712217Y-97662862D01*
X119572862Y-97802217D01*
X119572860Y-97802218D01*
X119463367Y-97966086D01*
X119387950Y-98148160D01*
X119387947Y-98148170D01*
X119349500Y-98341460D01*
X119349500Y-98538539D01*
X119387947Y-98731829D01*
X119387950Y-98731839D01*
X119440857Y-98859567D01*
X119440857Y-98916204D01*
X119424816Y-98940211D01*
X118745303Y-99619726D01*
X118692977Y-99641400D01*
X117212222Y-99641400D01*
X117159896Y-99619726D01*
X117138222Y-99567400D01*
X117159896Y-99515074D01*
X117309787Y-99365183D01*
X117362113Y-99343509D01*
X117390431Y-99349141D01*
X117518165Y-99402051D01*
X117711459Y-99440500D01*
X117711461Y-99440500D01*
X117908539Y-99440500D01*
X117908541Y-99440500D01*
X118101835Y-99402051D01*
X118283914Y-99326632D01*
X118447782Y-99217139D01*
X118587139Y-99077782D01*
X118696632Y-98913914D01*
X118772051Y-98731835D01*
X118810500Y-98538541D01*
X118810500Y-98341459D01*
X118772051Y-98148165D01*
X118696632Y-97966086D01*
X118587139Y-97802218D01*
X118447782Y-97662861D01*
X118439351Y-97657227D01*
X118283913Y-97553367D01*
X118101839Y-97477950D01*
X118101829Y-97477947D01*
X117967023Y-97451133D01*
X117908541Y-97439500D01*
X117711459Y-97439500D01*
X117656662Y-97450399D01*
X117518170Y-97477947D01*
X117518160Y-97477950D01*
X117336086Y-97553367D01*
X117172218Y-97662860D01*
X117172217Y-97662862D01*
X117032862Y-97802217D01*
X117032860Y-97802218D01*
X116923367Y-97966086D01*
X116847950Y-98148160D01*
X116847947Y-98148170D01*
X116809500Y-98341460D01*
X116809500Y-98538539D01*
X116847947Y-98731829D01*
X116847950Y-98731839D01*
X116900857Y-98859567D01*
X116900857Y-98916204D01*
X116884816Y-98940211D01*
X116605503Y-99219526D01*
X116553177Y-99241200D01*
X116062373Y-99241200D01*
X116010047Y-99219526D01*
X115988373Y-99167200D01*
X116010047Y-99114874D01*
X116047138Y-99077783D01*
X116047139Y-99077782D01*
X116156632Y-98913914D01*
X116232051Y-98731835D01*
X116270500Y-98538541D01*
X116270500Y-98341459D01*
X116232051Y-98148165D01*
X116156632Y-97966086D01*
X116047139Y-97802218D01*
X115907782Y-97662861D01*
X115899351Y-97657227D01*
X115743913Y-97553367D01*
X115561839Y-97477950D01*
X115561829Y-97477947D01*
X115427023Y-97451133D01*
X115368541Y-97439500D01*
X115171459Y-97439500D01*
X115116662Y-97450399D01*
X114978170Y-97477947D01*
X114978160Y-97477950D01*
X114850431Y-97530857D01*
X114793794Y-97530857D01*
X114769787Y-97514816D01*
X114292174Y-97037203D01*
X114270500Y-96984877D01*
X114270500Y-95661310D01*
X117829500Y-95661310D01*
X117829500Y-95838689D01*
X117864104Y-96012660D01*
X117864107Y-96012670D01*
X117931985Y-96176544D01*
X117994815Y-96270576D01*
X118030536Y-96324035D01*
X118155965Y-96449464D01*
X118303453Y-96548013D01*
X118303454Y-96548013D01*
X118303455Y-96548014D01*
X118420604Y-96596538D01*
X118467334Y-96615894D01*
X118641309Y-96650500D01*
X118641311Y-96650500D01*
X118818689Y-96650500D01*
X118818691Y-96650500D01*
X118992666Y-96615894D01*
X119156547Y-96548013D01*
X119304035Y-96449464D01*
X119429464Y-96324035D01*
X119528013Y-96176547D01*
X119595894Y-96012666D01*
X119630500Y-95838691D01*
X119630500Y-95661309D01*
X119595894Y-95487334D01*
X119528013Y-95323453D01*
X119429464Y-95175965D01*
X119429460Y-95175961D01*
X119372174Y-95118674D01*
X119350500Y-95066349D01*
X119350500Y-92877906D01*
X119372174Y-92825580D01*
X119396180Y-92809539D01*
X119523914Y-92756632D01*
X119687782Y-92647139D01*
X119827139Y-92507782D01*
X119936632Y-92343914D01*
X120012051Y-92161835D01*
X120050500Y-91968541D01*
X120050500Y-91771459D01*
X120012051Y-91578165D01*
X119936632Y-91396086D01*
X119827139Y-91232218D01*
X119687782Y-91092861D01*
X119645936Y-91064900D01*
X119523913Y-90983367D01*
X119341839Y-90907950D01*
X119341829Y-90907947D01*
X119212388Y-90882200D01*
X119148541Y-90869500D01*
X118951459Y-90869500D01*
X118896662Y-90880399D01*
X118758170Y-90907947D01*
X118758160Y-90907950D01*
X118576086Y-90983367D01*
X118412218Y-91092860D01*
X118412217Y-91092862D01*
X118272862Y-91232217D01*
X118272860Y-91232218D01*
X118163367Y-91396086D01*
X118087950Y-91578160D01*
X118087947Y-91578170D01*
X118049500Y-91771460D01*
X118049500Y-91968539D01*
X118087947Y-92161829D01*
X118087950Y-92161839D01*
X118163367Y-92343913D01*
X118222100Y-92431812D01*
X118272861Y-92507782D01*
X118412218Y-92647139D01*
X118576086Y-92756632D01*
X118703818Y-92809539D01*
X118743867Y-92849587D01*
X118749500Y-92877906D01*
X118749500Y-94775500D01*
X118727826Y-94827826D01*
X118675500Y-94849500D01*
X118641309Y-94849500D01*
X118591989Y-94859310D01*
X118467339Y-94884104D01*
X118467329Y-94884107D01*
X118303455Y-94951985D01*
X118155968Y-95050533D01*
X118030533Y-95175968D01*
X117931985Y-95323455D01*
X117864107Y-95487329D01*
X117864104Y-95487339D01*
X117829500Y-95661310D01*
X114270500Y-95661310D01*
X114270500Y-92877906D01*
X114292174Y-92825580D01*
X114316180Y-92809539D01*
X114443914Y-92756632D01*
X114607782Y-92647139D01*
X114747139Y-92507782D01*
X114856632Y-92343914D01*
X114932051Y-92161835D01*
X114970500Y-91968541D01*
X114970500Y-91771460D01*
X115509500Y-91771460D01*
X115509500Y-91968539D01*
X115547947Y-92161829D01*
X115547950Y-92161839D01*
X115623367Y-92343913D01*
X115732860Y-92507781D01*
X115872218Y-92647139D01*
X116036086Y-92756632D01*
X116202542Y-92825580D01*
X116218165Y-92832051D01*
X116411459Y-92870500D01*
X116411461Y-92870500D01*
X116608539Y-92870500D01*
X116608541Y-92870500D01*
X116801835Y-92832051D01*
X116983914Y-92756632D01*
X117147782Y-92647139D01*
X117287139Y-92507782D01*
X117396632Y-92343914D01*
X117472051Y-92161835D01*
X117510500Y-91968541D01*
X117510500Y-91771459D01*
X117472051Y-91578165D01*
X117396632Y-91396086D01*
X117287139Y-91232218D01*
X117147782Y-91092861D01*
X117105936Y-91064900D01*
X116983913Y-90983367D01*
X116801839Y-90907950D01*
X116801829Y-90907947D01*
X116672388Y-90882200D01*
X116608541Y-90869500D01*
X116411459Y-90869500D01*
X116356662Y-90880399D01*
X116218170Y-90907947D01*
X116218160Y-90907950D01*
X116036086Y-90983367D01*
X115872218Y-91092860D01*
X115872217Y-91092862D01*
X115732862Y-91232217D01*
X115732860Y-91232218D01*
X115623367Y-91396086D01*
X115547950Y-91578160D01*
X115547947Y-91578170D01*
X115509500Y-91771460D01*
X114970500Y-91771460D01*
X114970500Y-91771459D01*
X114932051Y-91578165D01*
X114856632Y-91396086D01*
X114747139Y-91232218D01*
X114607782Y-91092861D01*
X114565936Y-91064900D01*
X114443913Y-90983367D01*
X114261839Y-90907950D01*
X114261829Y-90907947D01*
X114132388Y-90882200D01*
X114068541Y-90869500D01*
X113871459Y-90869500D01*
X113816662Y-90880399D01*
X113678170Y-90907947D01*
X113678160Y-90907950D01*
X113496086Y-90983367D01*
X113332218Y-91092860D01*
X113332217Y-91092862D01*
X113192862Y-91232217D01*
X113192860Y-91232218D01*
X113083367Y-91396086D01*
X113007950Y-91578160D01*
X113007947Y-91578170D01*
X112969500Y-91771460D01*
X112969500Y-91968539D01*
X113007947Y-92161829D01*
X113007950Y-92161839D01*
X113083367Y-92343913D01*
X113142100Y-92431812D01*
X113192861Y-92507782D01*
X113332218Y-92647139D01*
X113496086Y-92756632D01*
X113623818Y-92809539D01*
X113663867Y-92849587D01*
X113669500Y-92877906D01*
X113669500Y-97179564D01*
X113689977Y-97255985D01*
X113689979Y-97255989D01*
X113692043Y-97259564D01*
X113729540Y-97324511D01*
X114344816Y-97939787D01*
X114366490Y-97992113D01*
X114360857Y-98020431D01*
X114307950Y-98148160D01*
X114307947Y-98148170D01*
X114269500Y-98341460D01*
X114269500Y-98538539D01*
X114307947Y-98731829D01*
X114307950Y-98731839D01*
X114383367Y-98913913D01*
X114463499Y-99033838D01*
X114492861Y-99077782D01*
X114632218Y-99217139D01*
X114698164Y-99261203D01*
X114784001Y-99318557D01*
X114815467Y-99365649D01*
X114804418Y-99421198D01*
X114795215Y-99432412D01*
X108737847Y-105489781D01*
X108737841Y-105489787D01*
X108735489Y-105492140D01*
X108679540Y-105548089D01*
X108657843Y-105585667D01*
X108653763Y-105590559D01*
X108633893Y-105600972D01*
X108616095Y-105614630D01*
X108609493Y-105613760D01*
X108603598Y-105616851D01*
X108582185Y-105610165D01*
X108559943Y-105607237D01*
X108553510Y-105601212D01*
X108549535Y-105599971D01*
X108546979Y-105595095D01*
X108535414Y-105584263D01*
X108427139Y-105422218D01*
X108287781Y-105282860D01*
X108123913Y-105173367D01*
X107941839Y-105097950D01*
X107941829Y-105097947D01*
X107812388Y-105072200D01*
X107748541Y-105059500D01*
X107551459Y-105059500D01*
X107496662Y-105070399D01*
X107358170Y-105097947D01*
X107358160Y-105097950D01*
X107176086Y-105173367D01*
X107012218Y-105282860D01*
X107012217Y-105282862D01*
X106872862Y-105422217D01*
X106872860Y-105422218D01*
X106763367Y-105586086D01*
X106687950Y-105768160D01*
X106687947Y-105768170D01*
X106649500Y-105961460D01*
X106649500Y-106158539D01*
X106687947Y-106351829D01*
X106687950Y-106351839D01*
X106763367Y-106533913D01*
X106837266Y-106644510D01*
X106872861Y-106697782D01*
X107012218Y-106837139D01*
X107176086Y-106946632D01*
X107358165Y-107022051D01*
X107551459Y-107060500D01*
X107551461Y-107060500D01*
X107613076Y-107060500D01*
X107665402Y-107082174D01*
X107687076Y-107134500D01*
X107665402Y-107186826D01*
X106830903Y-108021326D01*
X106778577Y-108043000D01*
X101190623Y-108043000D01*
X101138297Y-108021326D01*
X101116623Y-107969000D01*
X101138297Y-107916674D01*
X101336066Y-107718905D01*
X102069787Y-106985182D01*
X102122112Y-106963509D01*
X102150430Y-106969142D01*
X102278160Y-107022049D01*
X102278165Y-107022051D01*
X102471459Y-107060500D01*
X102471461Y-107060500D01*
X102668539Y-107060500D01*
X102668541Y-107060500D01*
X102861835Y-107022051D01*
X103043914Y-106946632D01*
X103207782Y-106837139D01*
X103347139Y-106697782D01*
X103456632Y-106533914D01*
X103532051Y-106351835D01*
X103570500Y-106158541D01*
X103570500Y-105961459D01*
X103532051Y-105768165D01*
X103456632Y-105586086D01*
X103347139Y-105422218D01*
X103207782Y-105282861D01*
X103207780Y-105282859D01*
X103043913Y-105173367D01*
X102861839Y-105097950D01*
X102861829Y-105097947D01*
X102732388Y-105072200D01*
X102668541Y-105059500D01*
X102471459Y-105059500D01*
X102416662Y-105070399D01*
X102278170Y-105097947D01*
X102278160Y-105097950D01*
X102096086Y-105173367D01*
X101932218Y-105282860D01*
X101932217Y-105282862D01*
X101792862Y-105422217D01*
X101792860Y-105422218D01*
X101683367Y-105586086D01*
X101607950Y-105768160D01*
X101607947Y-105768170D01*
X101569500Y-105961460D01*
X101569500Y-106158539D01*
X101607947Y-106351829D01*
X101607950Y-106351839D01*
X101660857Y-106479567D01*
X101660857Y-106536204D01*
X101644816Y-106560211D01*
X100629003Y-107576026D01*
X100576677Y-107597700D01*
X86472122Y-107597700D01*
X86419796Y-107576026D01*
X86398122Y-107523700D01*
X86419795Y-107471374D01*
X86635660Y-107255511D01*
X86675222Y-107186988D01*
X86695700Y-107110562D01*
X86695700Y-107031438D01*
X86695700Y-106337762D01*
X86717374Y-106285436D01*
X86769700Y-106263762D01*
X86822026Y-106285436D01*
X86842278Y-106323326D01*
X86847947Y-106351828D01*
X86847950Y-106351839D01*
X86923367Y-106533913D01*
X86997266Y-106644510D01*
X87032861Y-106697782D01*
X87172218Y-106837139D01*
X87336086Y-106946632D01*
X87518165Y-107022051D01*
X87711459Y-107060500D01*
X87711461Y-107060500D01*
X87908539Y-107060500D01*
X87908541Y-107060500D01*
X88101835Y-107022051D01*
X88283914Y-106946632D01*
X88447782Y-106837139D01*
X88587139Y-106697782D01*
X88696632Y-106533914D01*
X88772051Y-106351835D01*
X88810500Y-106158541D01*
X88810500Y-105961459D01*
X88772051Y-105768165D01*
X88719142Y-105640431D01*
X88719142Y-105583794D01*
X88735183Y-105559787D01*
X89009043Y-105285927D01*
X89320460Y-104974511D01*
X89360021Y-104905989D01*
X89380499Y-104829564D01*
X89380500Y-104829564D01*
X89380500Y-99033838D01*
X89402174Y-98981512D01*
X89454500Y-98959838D01*
X89506826Y-98981512D01*
X89516026Y-98992722D01*
X89539200Y-99027404D01*
X89572860Y-99077781D01*
X89712218Y-99217139D01*
X89876086Y-99326632D01*
X90042542Y-99395580D01*
X90058165Y-99402051D01*
X90251459Y-99440500D01*
X90251461Y-99440500D01*
X90448539Y-99440500D01*
X90448541Y-99440500D01*
X90641835Y-99402051D01*
X90823914Y-99326632D01*
X90987782Y-99217139D01*
X91038374Y-99166547D01*
X91090700Y-99144873D01*
X91143026Y-99166547D01*
X91164700Y-99218873D01*
X91164700Y-104789676D01*
X91143026Y-104842002D01*
X90850211Y-105134816D01*
X90797885Y-105156490D01*
X90769567Y-105150857D01*
X90641839Y-105097950D01*
X90641829Y-105097947D01*
X90512388Y-105072200D01*
X90448541Y-105059500D01*
X90251459Y-105059500D01*
X90196662Y-105070399D01*
X90058170Y-105097947D01*
X90058160Y-105097950D01*
X89876086Y-105173367D01*
X89712218Y-105282860D01*
X89712217Y-105282862D01*
X89572862Y-105422217D01*
X89572860Y-105422218D01*
X89463367Y-105586086D01*
X89387950Y-105768160D01*
X89387947Y-105768170D01*
X89349500Y-105961460D01*
X89349500Y-106158539D01*
X89387947Y-106351829D01*
X89387950Y-106351839D01*
X89463367Y-106533913D01*
X89537266Y-106644510D01*
X89572861Y-106697782D01*
X89712218Y-106837139D01*
X89876086Y-106946632D01*
X90058165Y-107022051D01*
X90251459Y-107060500D01*
X90251461Y-107060500D01*
X90448539Y-107060500D01*
X90448541Y-107060500D01*
X90641835Y-107022051D01*
X90823914Y-106946632D01*
X90987782Y-106837139D01*
X91127139Y-106697782D01*
X91236632Y-106533914D01*
X91312051Y-106351835D01*
X91350500Y-106158541D01*
X91350500Y-105961460D01*
X91889500Y-105961460D01*
X91889500Y-106158539D01*
X91927947Y-106351829D01*
X91927950Y-106351839D01*
X92003367Y-106533913D01*
X92077266Y-106644510D01*
X92112861Y-106697782D01*
X92252218Y-106837139D01*
X92416086Y-106946632D01*
X92598165Y-107022051D01*
X92791459Y-107060500D01*
X92791461Y-107060500D01*
X92988539Y-107060500D01*
X92988541Y-107060500D01*
X93181835Y-107022051D01*
X93363914Y-106946632D01*
X93527782Y-106837139D01*
X93667139Y-106697782D01*
X93776632Y-106533914D01*
X93852051Y-106351835D01*
X93890500Y-106158541D01*
X93890500Y-105961459D01*
X93852051Y-105768165D01*
X93776632Y-105586086D01*
X93667139Y-105422218D01*
X93527782Y-105282861D01*
X93527780Y-105282859D01*
X93363913Y-105173367D01*
X93181839Y-105097950D01*
X93181829Y-105097947D01*
X93052388Y-105072200D01*
X92988541Y-105059500D01*
X92791459Y-105059500D01*
X92736662Y-105070399D01*
X92598170Y-105097947D01*
X92598160Y-105097950D01*
X92416086Y-105173367D01*
X92252218Y-105282860D01*
X92252217Y-105282862D01*
X92112862Y-105422217D01*
X92112860Y-105422218D01*
X92003367Y-105586086D01*
X91927950Y-105768160D01*
X91927947Y-105768170D01*
X91889500Y-105961460D01*
X91350500Y-105961460D01*
X91350500Y-105961459D01*
X91312051Y-105768165D01*
X91259142Y-105640431D01*
X91259142Y-105583794D01*
X91275183Y-105559787D01*
X91469843Y-105365127D01*
X91705660Y-105129311D01*
X91728067Y-105090500D01*
X91745221Y-105060789D01*
X91765699Y-104984364D01*
X91765700Y-104984364D01*
X91765700Y-98667489D01*
X91787374Y-98615163D01*
X91839700Y-98593489D01*
X91892026Y-98615163D01*
X91912278Y-98653052D01*
X91927947Y-98731829D01*
X91927950Y-98731839D01*
X92003367Y-98913913D01*
X92112860Y-99077781D01*
X92252218Y-99217139D01*
X92416086Y-99326632D01*
X92582542Y-99395580D01*
X92598165Y-99402051D01*
X92791459Y-99440500D01*
X92791461Y-99440500D01*
X92988539Y-99440500D01*
X92988541Y-99440500D01*
X93181835Y-99402051D01*
X93363914Y-99326632D01*
X93527782Y-99217139D01*
X93667139Y-99077782D01*
X93776632Y-98913914D01*
X93852051Y-98731835D01*
X93890500Y-98538541D01*
X93890500Y-98341459D01*
X93852051Y-98148165D01*
X93776632Y-97966086D01*
X93667139Y-97802218D01*
X93527782Y-97662861D01*
X93519351Y-97657227D01*
X93464005Y-97620246D01*
X94429500Y-97620246D01*
X94429500Y-99259751D01*
X94429643Y-99261203D01*
X94430000Y-99268459D01*
X94430000Y-99440000D01*
X94601536Y-99440000D01*
X94608783Y-99440356D01*
X94610246Y-99440500D01*
X94610252Y-99440500D01*
X96249754Y-99440500D01*
X96251217Y-99440356D01*
X96258464Y-99440000D01*
X96430000Y-99440000D01*
X96430000Y-99268459D01*
X96430357Y-99261203D01*
X96430500Y-99259751D01*
X96430500Y-97620246D01*
X96430356Y-97618783D01*
X96430000Y-97611536D01*
X96430000Y-97440000D01*
X96258464Y-97440000D01*
X96251217Y-97439644D01*
X96249754Y-97439500D01*
X96249748Y-97439500D01*
X94610252Y-97439500D01*
X94610246Y-97439500D01*
X94608783Y-97439644D01*
X94601536Y-97440000D01*
X94430000Y-97440000D01*
X94430000Y-97611536D01*
X94429644Y-97618783D01*
X94429500Y-97620246D01*
X93464005Y-97620246D01*
X93363913Y-97553367D01*
X93181839Y-97477950D01*
X93181829Y-97477947D01*
X93047023Y-97451133D01*
X92988541Y-97439500D01*
X92791459Y-97439500D01*
X92736662Y-97450399D01*
X92598170Y-97477947D01*
X92598160Y-97477950D01*
X92416086Y-97553367D01*
X92252218Y-97662860D01*
X92252217Y-97662862D01*
X92112862Y-97802217D01*
X92112860Y-97802218D01*
X92003367Y-97966086D01*
X91927950Y-98148160D01*
X91927947Y-98148170D01*
X91912278Y-98226947D01*
X91880812Y-98274039D01*
X91825263Y-98285088D01*
X91778171Y-98253622D01*
X91765700Y-98212510D01*
X91765700Y-92659873D01*
X91787374Y-92607547D01*
X91887138Y-92507783D01*
X91887139Y-92507782D01*
X91996632Y-92343914D01*
X92072051Y-92161835D01*
X92110500Y-91968541D01*
X92110500Y-91771459D01*
X92072051Y-91578165D01*
X91996632Y-91396086D01*
X91887139Y-91232218D01*
X91747782Y-91092861D01*
X91705936Y-91064900D01*
X91583913Y-90983367D01*
X91401839Y-90907950D01*
X91401829Y-90907947D01*
X91272388Y-90882200D01*
X91208541Y-90869500D01*
X91011459Y-90869500D01*
X90956662Y-90880399D01*
X90818170Y-90907947D01*
X90818160Y-90907950D01*
X90636086Y-90983367D01*
X90472218Y-91092860D01*
X90472217Y-91092862D01*
X90332862Y-91232217D01*
X90332860Y-91232218D01*
X90223367Y-91396086D01*
X90147950Y-91578160D01*
X90147947Y-91578170D01*
X90109500Y-91771460D01*
X90109500Y-91968539D01*
X90147947Y-92161829D01*
X90147950Y-92161839D01*
X90223367Y-92343913D01*
X90332860Y-92507781D01*
X90472218Y-92647139D01*
X90636086Y-92756632D01*
X90802542Y-92825580D01*
X90818165Y-92832051D01*
X91011459Y-92870500D01*
X91090700Y-92870500D01*
X91143026Y-92892174D01*
X91164700Y-92944500D01*
X91164700Y-97661127D01*
X91143026Y-97713453D01*
X91090700Y-97735127D01*
X91038374Y-97713453D01*
X90987781Y-97662860D01*
X90823913Y-97553367D01*
X90641839Y-97477950D01*
X90641829Y-97477947D01*
X90507023Y-97451133D01*
X90448541Y-97439500D01*
X90251459Y-97439500D01*
X90196662Y-97450399D01*
X90058170Y-97477947D01*
X90058160Y-97477950D01*
X89876086Y-97553367D01*
X89712218Y-97662860D01*
X89712217Y-97662862D01*
X89572862Y-97802217D01*
X89572860Y-97802218D01*
X89516029Y-97887273D01*
X89468937Y-97918739D01*
X89413388Y-97907690D01*
X89381922Y-97860598D01*
X89380500Y-97846161D01*
X89380500Y-97087322D01*
X89402173Y-97034997D01*
X89689296Y-96747873D01*
X89741622Y-96726200D01*
X89852394Y-96726200D01*
X89852394Y-96726199D01*
X89979686Y-96692092D01*
X90093814Y-96626200D01*
X90187000Y-96533014D01*
X90252892Y-96418886D01*
X90286999Y-96291594D01*
X90287000Y-96291594D01*
X90287000Y-96159806D01*
X90286999Y-96159805D01*
X90252893Y-96032518D01*
X90252892Y-96032514D01*
X90187000Y-95918386D01*
X90093814Y-95825200D01*
X90032486Y-95789792D01*
X89979690Y-95759310D01*
X89979681Y-95759306D01*
X89852394Y-95725200D01*
X89852392Y-95725200D01*
X89720608Y-95725200D01*
X89720606Y-95725200D01*
X89593318Y-95759306D01*
X89593309Y-95759310D01*
X89479185Y-95825200D01*
X89386000Y-95918385D01*
X89320110Y-96032509D01*
X89320106Y-96032518D01*
X89286000Y-96159805D01*
X89286000Y-96270576D01*
X89264326Y-96322902D01*
X88895489Y-96691740D01*
X88839540Y-96747688D01*
X88799979Y-96816209D01*
X88799977Y-96816214D01*
X88779500Y-96892635D01*
X88779500Y-97846161D01*
X88757826Y-97898487D01*
X88705500Y-97920161D01*
X88653174Y-97898487D01*
X88643971Y-97887273D01*
X88587139Y-97802218D01*
X88447781Y-97662860D01*
X88283913Y-97553367D01*
X88101839Y-97477950D01*
X88101829Y-97477947D01*
X87967023Y-97451133D01*
X87908541Y-97439500D01*
X87711459Y-97439500D01*
X87656662Y-97450399D01*
X87518170Y-97477947D01*
X87518160Y-97477950D01*
X87336086Y-97553367D01*
X87172218Y-97662860D01*
X87172217Y-97662862D01*
X87032862Y-97802217D01*
X87032860Y-97802218D01*
X86923367Y-97966086D01*
X86847950Y-98148160D01*
X86847947Y-98148170D01*
X86809500Y-98341460D01*
X86809500Y-98538539D01*
X86847947Y-98731829D01*
X86847950Y-98731839D01*
X86923367Y-98913913D01*
X87032860Y-99077781D01*
X87172218Y-99217139D01*
X87336086Y-99326632D01*
X87502542Y-99395580D01*
X87518165Y-99402051D01*
X87711459Y-99440500D01*
X87711461Y-99440500D01*
X87908539Y-99440500D01*
X87908541Y-99440500D01*
X88101835Y-99402051D01*
X88283914Y-99326632D01*
X88447782Y-99217139D01*
X88587139Y-99077782D01*
X88643971Y-98992725D01*
X88691063Y-98961260D01*
X88746612Y-98972309D01*
X88778078Y-99019401D01*
X88779500Y-99033838D01*
X88779500Y-104634876D01*
X88757826Y-104687202D01*
X88310211Y-105134816D01*
X88257885Y-105156490D01*
X88229567Y-105150857D01*
X88101839Y-105097950D01*
X88101829Y-105097947D01*
X87972388Y-105072200D01*
X87908541Y-105059500D01*
X87711459Y-105059500D01*
X87656662Y-105070399D01*
X87518170Y-105097947D01*
X87518160Y-105097950D01*
X87336086Y-105173367D01*
X87172218Y-105282860D01*
X87172217Y-105282862D01*
X87032862Y-105422217D01*
X87032860Y-105422218D01*
X86923367Y-105586086D01*
X86847950Y-105768160D01*
X86847947Y-105768170D01*
X86842278Y-105796674D01*
X86810812Y-105843766D01*
X86755263Y-105854815D01*
X86708171Y-105823349D01*
X86695700Y-105782237D01*
X86695700Y-99525636D01*
X86695699Y-99525635D01*
X86675222Y-99449214D01*
X86675220Y-99449209D01*
X86647993Y-99402051D01*
X86635660Y-99380689D01*
X86579711Y-99324740D01*
X86195183Y-98940212D01*
X86173509Y-98887886D01*
X86179142Y-98859567D01*
X86232051Y-98731835D01*
X86270500Y-98538541D01*
X86270500Y-98341459D01*
X86232051Y-98148165D01*
X86156632Y-97966086D01*
X86047139Y-97802218D01*
X85907782Y-97662861D01*
X85899351Y-97657227D01*
X85743913Y-97553367D01*
X85561839Y-97477950D01*
X85561829Y-97477947D01*
X85427023Y-97451133D01*
X85368541Y-97439500D01*
X85171459Y-97439500D01*
X85116662Y-97450399D01*
X84978170Y-97477947D01*
X84978160Y-97477950D01*
X84796086Y-97553367D01*
X84632218Y-97662860D01*
X84632217Y-97662862D01*
X84492862Y-97802217D01*
X84492860Y-97802218D01*
X84436029Y-97887273D01*
X84388937Y-97918739D01*
X84333388Y-97907690D01*
X84301922Y-97860598D01*
X84300500Y-97846161D01*
X84300500Y-97054436D01*
X84300499Y-97054435D01*
X84295422Y-97035489D01*
X84280021Y-96978011D01*
X84240460Y-96909489D01*
X84184511Y-96853540D01*
X84027174Y-96696203D01*
X84005500Y-96643877D01*
X84005500Y-96477650D01*
X84027174Y-96425324D01*
X84079500Y-96403650D01*
X84131824Y-96425323D01*
X84155965Y-96449464D01*
X84303453Y-96548013D01*
X84303454Y-96548013D01*
X84303455Y-96548014D01*
X84420604Y-96596538D01*
X84467334Y-96615894D01*
X84641309Y-96650500D01*
X84641311Y-96650500D01*
X84818689Y-96650500D01*
X84818691Y-96650500D01*
X84992666Y-96615894D01*
X85156547Y-96548013D01*
X85304035Y-96449464D01*
X85429464Y-96324035D01*
X85528013Y-96176547D01*
X85595894Y-96012666D01*
X85630500Y-95838691D01*
X85630500Y-95661310D01*
X86369500Y-95661310D01*
X86369500Y-95838689D01*
X86404104Y-96012660D01*
X86404107Y-96012670D01*
X86471985Y-96176544D01*
X86534815Y-96270576D01*
X86570536Y-96324035D01*
X86695965Y-96449464D01*
X86843453Y-96548013D01*
X86843454Y-96548013D01*
X86843455Y-96548014D01*
X86960604Y-96596538D01*
X87007334Y-96615894D01*
X87181309Y-96650500D01*
X87181311Y-96650500D01*
X87358689Y-96650500D01*
X87358691Y-96650500D01*
X87532666Y-96615894D01*
X87696547Y-96548013D01*
X87844035Y-96449464D01*
X87969464Y-96324035D01*
X88068013Y-96176547D01*
X88135894Y-96012666D01*
X88170500Y-95838691D01*
X88170500Y-95661309D01*
X88135894Y-95487334D01*
X88068013Y-95323453D01*
X87969464Y-95175965D01*
X87844035Y-95050536D01*
X87696547Y-94951987D01*
X87696546Y-94951986D01*
X87696544Y-94951985D01*
X87532670Y-94884107D01*
X87532660Y-94884104D01*
X87416156Y-94860930D01*
X87358691Y-94849500D01*
X87181309Y-94849500D01*
X87131989Y-94859310D01*
X87007339Y-94884104D01*
X87007329Y-94884107D01*
X86843455Y-94951985D01*
X86695968Y-95050533D01*
X86570533Y-95175968D01*
X86471985Y-95323455D01*
X86404107Y-95487329D01*
X86404104Y-95487339D01*
X86369500Y-95661310D01*
X85630500Y-95661310D01*
X85630500Y-95661309D01*
X85595894Y-95487334D01*
X85528013Y-95323453D01*
X85429464Y-95175965D01*
X85304035Y-95050536D01*
X85156547Y-94951987D01*
X85156548Y-94951987D01*
X85156546Y-94951986D01*
X85076181Y-94918698D01*
X85036133Y-94878649D01*
X85030500Y-94850331D01*
X85030500Y-93325122D01*
X85052173Y-93272797D01*
X85529787Y-92795182D01*
X85582113Y-92773509D01*
X85610431Y-92779141D01*
X85738165Y-92832051D01*
X85931459Y-92870500D01*
X85931461Y-92870500D01*
X86128539Y-92870500D01*
X86128541Y-92870500D01*
X86321835Y-92832051D01*
X86503914Y-92756632D01*
X86667782Y-92647139D01*
X86807139Y-92507782D01*
X86916632Y-92343914D01*
X86992051Y-92161835D01*
X87030500Y-91968541D01*
X87030500Y-91771460D01*
X87569500Y-91771460D01*
X87569500Y-91968539D01*
X87607947Y-92161829D01*
X87607950Y-92161839D01*
X87683367Y-92343913D01*
X87792860Y-92507781D01*
X87932218Y-92647139D01*
X88096086Y-92756632D01*
X88262542Y-92825580D01*
X88278165Y-92832051D01*
X88471459Y-92870500D01*
X88471461Y-92870500D01*
X88668539Y-92870500D01*
X88668541Y-92870500D01*
X88861835Y-92832051D01*
X89043914Y-92756632D01*
X89207782Y-92647139D01*
X89347139Y-92507782D01*
X89456632Y-92343914D01*
X89532051Y-92161835D01*
X89570500Y-91968541D01*
X89570500Y-91771459D01*
X89532051Y-91578165D01*
X89456632Y-91396086D01*
X89347139Y-91232218D01*
X89207782Y-91092861D01*
X89165936Y-91064900D01*
X89043913Y-90983367D01*
X88861839Y-90907950D01*
X88861829Y-90907947D01*
X88732388Y-90882200D01*
X88668541Y-90869500D01*
X88471459Y-90869500D01*
X88416662Y-90880399D01*
X88278170Y-90907947D01*
X88278160Y-90907950D01*
X88096086Y-90983367D01*
X87932218Y-91092860D01*
X87932217Y-91092862D01*
X87792862Y-91232217D01*
X87792860Y-91232218D01*
X87683367Y-91396086D01*
X87607950Y-91578160D01*
X87607947Y-91578170D01*
X87569500Y-91771460D01*
X87030500Y-91771460D01*
X87030500Y-91771459D01*
X86992051Y-91578165D01*
X86916632Y-91396086D01*
X86807139Y-91232218D01*
X86667782Y-91092861D01*
X86625936Y-91064900D01*
X86503913Y-90983367D01*
X86321839Y-90907950D01*
X86321829Y-90907947D01*
X86192388Y-90882200D01*
X86128541Y-90869500D01*
X85931459Y-90869500D01*
X85876662Y-90880399D01*
X85738170Y-90907947D01*
X85738160Y-90907950D01*
X85556086Y-90983367D01*
X85392218Y-91092860D01*
X85392217Y-91092862D01*
X85252862Y-91232217D01*
X85252860Y-91232218D01*
X85143367Y-91396086D01*
X85067950Y-91578160D01*
X85067947Y-91578170D01*
X85029500Y-91771460D01*
X85029500Y-91968539D01*
X85067947Y-92161829D01*
X85067950Y-92161839D01*
X85120857Y-92289567D01*
X85120857Y-92346204D01*
X85104816Y-92370211D01*
X84545489Y-92929540D01*
X84489540Y-92985488D01*
X84449979Y-93054009D01*
X84449977Y-93054014D01*
X84429500Y-93130435D01*
X84429500Y-94850331D01*
X84407826Y-94902657D01*
X84383819Y-94918698D01*
X84303453Y-94951986D01*
X84155968Y-95050533D01*
X84155967Y-95050534D01*
X84155965Y-95050535D01*
X84155965Y-95050536D01*
X84131824Y-95074676D01*
X84079500Y-95096350D01*
X84027174Y-95074676D01*
X84005500Y-95022350D01*
X84005500Y-94365438D01*
X84000230Y-94345771D01*
X83997716Y-94336388D01*
X83994422Y-94324096D01*
X83985023Y-94289016D01*
X83985022Y-94289012D01*
X83945460Y-94220489D01*
X82592374Y-92867403D01*
X82570700Y-92815077D01*
X82570700Y-91573938D01*
X82567467Y-91561874D01*
X82567466Y-91561871D01*
X82550222Y-91497512D01*
X82510660Y-91428989D01*
X81605611Y-90523940D01*
X81605608Y-90523938D01*
X81537090Y-90484379D01*
X81537085Y-90484377D01*
X81460664Y-90463900D01*
X81460662Y-90463900D01*
X79555162Y-90463900D01*
X79476038Y-90463900D01*
X79399612Y-90484378D01*
X79399611Y-90484378D01*
X79399609Y-90484379D01*
X79399607Y-90484380D01*
X79331090Y-90523938D01*
X78910211Y-90944816D01*
X78857885Y-90966490D01*
X78829567Y-90960857D01*
X78701839Y-90907950D01*
X78701829Y-90907947D01*
X78572388Y-90882200D01*
X78508541Y-90869500D01*
X78311459Y-90869500D01*
X78256662Y-90880399D01*
X78118170Y-90907947D01*
X78118160Y-90907950D01*
X77936086Y-90983367D01*
X77772218Y-91092860D01*
X77772217Y-91092862D01*
X77632862Y-91232217D01*
X77632860Y-91232218D01*
X77523367Y-91396086D01*
X77447950Y-91578160D01*
X77447947Y-91578170D01*
X77409500Y-91771460D01*
X77409500Y-91968539D01*
X77447947Y-92161829D01*
X77447950Y-92161839D01*
X77523367Y-92343913D01*
X77632860Y-92507781D01*
X77772218Y-92647139D01*
X77936086Y-92756632D01*
X78102542Y-92825580D01*
X78118165Y-92832051D01*
X78311459Y-92870500D01*
X78311461Y-92870500D01*
X78508539Y-92870500D01*
X78508541Y-92870500D01*
X78701835Y-92832051D01*
X78883914Y-92756632D01*
X79047782Y-92647139D01*
X79187139Y-92507782D01*
X79296632Y-92343914D01*
X79372051Y-92161835D01*
X79410500Y-91968541D01*
X79410500Y-91771459D01*
X79372051Y-91578165D01*
X79319142Y-91450431D01*
X79319142Y-91393794D01*
X79335183Y-91369787D01*
X79472753Y-91232218D01*
X79618397Y-91086574D01*
X79670723Y-91064900D01*
X80161527Y-91064900D01*
X80213853Y-91086574D01*
X80235527Y-91138900D01*
X80213853Y-91191226D01*
X80172862Y-91232217D01*
X80172860Y-91232218D01*
X80063367Y-91396086D01*
X79987950Y-91578160D01*
X79987947Y-91578170D01*
X79949500Y-91771460D01*
X79949500Y-91968539D01*
X79987947Y-92161829D01*
X79987950Y-92161839D01*
X80040857Y-92289567D01*
X80040857Y-92346204D01*
X80024816Y-92370211D01*
X78545489Y-93849540D01*
X78489540Y-93905488D01*
X78449979Y-93974009D01*
X78449977Y-93974014D01*
X78429500Y-94050435D01*
X78429500Y-94850331D01*
X78407826Y-94902657D01*
X78383819Y-94918698D01*
X78303453Y-94951986D01*
X78155968Y-95050533D01*
X78030533Y-95175968D01*
X77931985Y-95323455D01*
X77864107Y-95487329D01*
X77864104Y-95487339D01*
X77829500Y-95661310D01*
X77829500Y-95838689D01*
X77864104Y-96012660D01*
X77864107Y-96012670D01*
X77931985Y-96176544D01*
X77994815Y-96270576D01*
X78030536Y-96324035D01*
X78155965Y-96449464D01*
X78303453Y-96548013D01*
X78303454Y-96548013D01*
X78303455Y-96548014D01*
X78420604Y-96596538D01*
X78467334Y-96615894D01*
X78641309Y-96650500D01*
X78641311Y-96650500D01*
X78818689Y-96650500D01*
X78818691Y-96650500D01*
X78992666Y-96615894D01*
X79156547Y-96548013D01*
X79304035Y-96449464D01*
X79429464Y-96324035D01*
X79528013Y-96176547D01*
X79595894Y-96012666D01*
X79630500Y-95838691D01*
X79630500Y-95661309D01*
X79595894Y-95487334D01*
X79528013Y-95323453D01*
X79429464Y-95175965D01*
X79304035Y-95050536D01*
X79156547Y-94951987D01*
X79156548Y-94951987D01*
X79156546Y-94951986D01*
X79076181Y-94918698D01*
X79036133Y-94878649D01*
X79030500Y-94850331D01*
X79030500Y-94245122D01*
X79052173Y-94192797D01*
X80449787Y-92795182D01*
X80502112Y-92773509D01*
X80530430Y-92779142D01*
X80649498Y-92828461D01*
X80658165Y-92832051D01*
X80851459Y-92870500D01*
X80851461Y-92870500D01*
X81048539Y-92870500D01*
X81048541Y-92870500D01*
X81241835Y-92832051D01*
X81423914Y-92756632D01*
X81587782Y-92647139D01*
X81727139Y-92507782D01*
X81834171Y-92347596D01*
X81881263Y-92316131D01*
X81936812Y-92327180D01*
X81968278Y-92374272D01*
X81969700Y-92388709D01*
X81969700Y-93009764D01*
X81990177Y-93086185D01*
X81990179Y-93086190D01*
X82015726Y-93130438D01*
X82029740Y-93154711D01*
X83382826Y-94507797D01*
X83404500Y-94560123D01*
X83404500Y-96838564D01*
X83424978Y-96914988D01*
X83437455Y-96936600D01*
X83437456Y-96936600D01*
X83464540Y-96983511D01*
X83677826Y-97196797D01*
X83699500Y-97249123D01*
X83699500Y-97846161D01*
X83677826Y-97898487D01*
X83625500Y-97920161D01*
X83573174Y-97898487D01*
X83563971Y-97887273D01*
X83507139Y-97802218D01*
X83367781Y-97662860D01*
X83203913Y-97553367D01*
X83021839Y-97477950D01*
X83021829Y-97477947D01*
X82887023Y-97451133D01*
X82828541Y-97439500D01*
X82631459Y-97439500D01*
X82576662Y-97450399D01*
X82438170Y-97477947D01*
X82438160Y-97477950D01*
X82256086Y-97553367D01*
X82092218Y-97662860D01*
X82092217Y-97662862D01*
X81952862Y-97802217D01*
X81952860Y-97802218D01*
X81843367Y-97966086D01*
X81767950Y-98148160D01*
X81767947Y-98148170D01*
X81729500Y-98341460D01*
X81729500Y-98538539D01*
X81767947Y-98731829D01*
X81767950Y-98731839D01*
X81820857Y-98859567D01*
X81820857Y-98916204D01*
X81804816Y-98940211D01*
X78585489Y-102159540D01*
X78529540Y-102215488D01*
X78489979Y-102284009D01*
X78489977Y-102284014D01*
X78469500Y-102360435D01*
X78469500Y-105285927D01*
X78447826Y-105338253D01*
X78395500Y-105359927D01*
X78343174Y-105338253D01*
X78287781Y-105282860D01*
X78123913Y-105173367D01*
X77941839Y-105097950D01*
X77941829Y-105097947D01*
X77812388Y-105072200D01*
X77748541Y-105059500D01*
X77551459Y-105059500D01*
X77496662Y-105070399D01*
X77358170Y-105097947D01*
X77358160Y-105097950D01*
X77176086Y-105173367D01*
X77012218Y-105282860D01*
X77012217Y-105282862D01*
X76872862Y-105422217D01*
X76872860Y-105422218D01*
X76763367Y-105586086D01*
X76687950Y-105768160D01*
X76687947Y-105768170D01*
X76649500Y-105961460D01*
X76649500Y-106158539D01*
X76687947Y-106351829D01*
X76687950Y-106351839D01*
X76763367Y-106533913D01*
X76837266Y-106644510D01*
X76872861Y-106697782D01*
X77012218Y-106837139D01*
X77176086Y-106946632D01*
X77358165Y-107022051D01*
X77551459Y-107060500D01*
X77551461Y-107060500D01*
X77748539Y-107060500D01*
X77748541Y-107060500D01*
X77941835Y-107022051D01*
X78123914Y-106946632D01*
X78287782Y-106837139D01*
X78343174Y-106781747D01*
X78395500Y-106760073D01*
X78447826Y-106781747D01*
X78469500Y-106834073D01*
X78469500Y-132173177D01*
X78447826Y-132225503D01*
X78169540Y-132503788D01*
X78129979Y-132572309D01*
X78129977Y-132572314D01*
X78109500Y-132648735D01*
X78109500Y-132715500D01*
X78087826Y-132767826D01*
X78035500Y-132789500D01*
X77390246Y-132789500D01*
X77388783Y-132789644D01*
X77381536Y-132790000D01*
X77210000Y-132790000D01*
X77210000Y-132961536D01*
X77209644Y-132968783D01*
X77209500Y-132970246D01*
X77209500Y-139726000D01*
X77187826Y-139778326D01*
X77135500Y-139800000D01*
X76474000Y-139800000D01*
X76421674Y-139778326D01*
X76400000Y-139726000D01*
X76400000Y-116250001D01*
X76398195Y-116231677D01*
X76396157Y-116210982D01*
X76384776Y-116173463D01*
X76366294Y-116138886D01*
X76341421Y-116108579D01*
X76311114Y-116083706D01*
X76276537Y-116065224D01*
X76250400Y-116057295D01*
X76239019Y-116053843D01*
X76219509Y-116051921D01*
X76200000Y-116050000D01*
X76199999Y-116050000D01*
X68274000Y-116050000D01*
X68221674Y-116028326D01*
X68200000Y-115976000D01*
X68200000Y-105961460D01*
X71569500Y-105961460D01*
X71569500Y-106158539D01*
X71607947Y-106351829D01*
X71607950Y-106351839D01*
X71683367Y-106533913D01*
X71757266Y-106644510D01*
X71792861Y-106697782D01*
X71932218Y-106837139D01*
X72096086Y-106946632D01*
X72278165Y-107022051D01*
X72471459Y-107060500D01*
X72471461Y-107060500D01*
X72668539Y-107060500D01*
X72668541Y-107060500D01*
X72861835Y-107022051D01*
X73043914Y-106946632D01*
X73207782Y-106837139D01*
X73347139Y-106697782D01*
X73456632Y-106533914D01*
X73532051Y-106351835D01*
X73570500Y-106158541D01*
X73570500Y-105961460D01*
X74109500Y-105961460D01*
X74109500Y-106158539D01*
X74147947Y-106351829D01*
X74147950Y-106351839D01*
X74223367Y-106533913D01*
X74297266Y-106644510D01*
X74332861Y-106697782D01*
X74472218Y-106837139D01*
X74636086Y-106946632D01*
X74818165Y-107022051D01*
X75011459Y-107060500D01*
X75011461Y-107060500D01*
X75208539Y-107060500D01*
X75208541Y-107060500D01*
X75401835Y-107022051D01*
X75583914Y-106946632D01*
X75747782Y-106837139D01*
X75887139Y-106697782D01*
X75996632Y-106533914D01*
X76072051Y-106351835D01*
X76110500Y-106158541D01*
X76110500Y-105961459D01*
X76072051Y-105768165D01*
X75996632Y-105586086D01*
X75887139Y-105422218D01*
X75747782Y-105282861D01*
X75747780Y-105282859D01*
X75583913Y-105173367D01*
X75401839Y-105097950D01*
X75401829Y-105097947D01*
X75272388Y-105072200D01*
X75208541Y-105059500D01*
X75011459Y-105059500D01*
X74956662Y-105070399D01*
X74818170Y-105097947D01*
X74818160Y-105097950D01*
X74636086Y-105173367D01*
X74472218Y-105282860D01*
X74472217Y-105282862D01*
X74332862Y-105422217D01*
X74332860Y-105422218D01*
X74223367Y-105586086D01*
X74147950Y-105768160D01*
X74147947Y-105768170D01*
X74109500Y-105961460D01*
X73570500Y-105961460D01*
X73570500Y-105961459D01*
X73532051Y-105768165D01*
X73456632Y-105586086D01*
X73347139Y-105422218D01*
X73207782Y-105282861D01*
X73207780Y-105282859D01*
X73043913Y-105173367D01*
X72861839Y-105097950D01*
X72861829Y-105097947D01*
X72732388Y-105072200D01*
X72668541Y-105059500D01*
X72471459Y-105059500D01*
X72416662Y-105070399D01*
X72278170Y-105097947D01*
X72278160Y-105097950D01*
X72096086Y-105173367D01*
X71932218Y-105282860D01*
X71932217Y-105282862D01*
X71792862Y-105422217D01*
X71792860Y-105422218D01*
X71683367Y-105586086D01*
X71607950Y-105768160D01*
X71607947Y-105768170D01*
X71569500Y-105961460D01*
X68200000Y-105961460D01*
X68200000Y-98341460D01*
X74109500Y-98341460D01*
X74109500Y-98538539D01*
X74147947Y-98731829D01*
X74147950Y-98731839D01*
X74223367Y-98913913D01*
X74332860Y-99077781D01*
X74472218Y-99217139D01*
X74636086Y-99326632D01*
X74802542Y-99395580D01*
X74818165Y-99402051D01*
X75011459Y-99440500D01*
X75011461Y-99440500D01*
X75208539Y-99440500D01*
X75208541Y-99440500D01*
X75401835Y-99402051D01*
X75583914Y-99326632D01*
X75747782Y-99217139D01*
X75887139Y-99077782D01*
X75996632Y-98913914D01*
X76072051Y-98731835D01*
X76110500Y-98538541D01*
X76110500Y-98341460D01*
X76649500Y-98341460D01*
X76649500Y-98538539D01*
X76687947Y-98731829D01*
X76687950Y-98731839D01*
X76763367Y-98913913D01*
X76872860Y-99077781D01*
X77012218Y-99217139D01*
X77176086Y-99326632D01*
X77342542Y-99395580D01*
X77358165Y-99402051D01*
X77551459Y-99440500D01*
X77551461Y-99440500D01*
X77748539Y-99440500D01*
X77748541Y-99440500D01*
X77941835Y-99402051D01*
X78123914Y-99326632D01*
X78287782Y-99217139D01*
X78427139Y-99077782D01*
X78536632Y-98913914D01*
X78612051Y-98731835D01*
X78650500Y-98538541D01*
X78650500Y-98341460D01*
X79189500Y-98341460D01*
X79189500Y-98538539D01*
X79227947Y-98731829D01*
X79227950Y-98731839D01*
X79303367Y-98913913D01*
X79412860Y-99077781D01*
X79552218Y-99217139D01*
X79716086Y-99326632D01*
X79882542Y-99395580D01*
X79898165Y-99402051D01*
X80091459Y-99440500D01*
X80091461Y-99440500D01*
X80288539Y-99440500D01*
X80288541Y-99440500D01*
X80481835Y-99402051D01*
X80663914Y-99326632D01*
X80827782Y-99217139D01*
X80967139Y-99077782D01*
X81076632Y-98913914D01*
X81152051Y-98731835D01*
X81190500Y-98538541D01*
X81190500Y-98341459D01*
X81152051Y-98148165D01*
X81076632Y-97966086D01*
X80967139Y-97802218D01*
X80827782Y-97662861D01*
X80819351Y-97657227D01*
X80663913Y-97553367D01*
X80481839Y-97477950D01*
X80481829Y-97477947D01*
X80347023Y-97451133D01*
X80288541Y-97439500D01*
X80091459Y-97439500D01*
X80036662Y-97450399D01*
X79898170Y-97477947D01*
X79898160Y-97477950D01*
X79716086Y-97553367D01*
X79552218Y-97662860D01*
X79552217Y-97662862D01*
X79412862Y-97802217D01*
X79412860Y-97802218D01*
X79303367Y-97966086D01*
X79227950Y-98148160D01*
X79227947Y-98148170D01*
X79189500Y-98341460D01*
X78650500Y-98341460D01*
X78650500Y-98341459D01*
X78612051Y-98148165D01*
X78536632Y-97966086D01*
X78427139Y-97802218D01*
X78287782Y-97662861D01*
X78279351Y-97657227D01*
X78123913Y-97553367D01*
X77941839Y-97477950D01*
X77941829Y-97477947D01*
X77807023Y-97451133D01*
X77748541Y-97439500D01*
X77551459Y-97439500D01*
X77496662Y-97450399D01*
X77358170Y-97477947D01*
X77358160Y-97477950D01*
X77176086Y-97553367D01*
X77012218Y-97662860D01*
X77012217Y-97662862D01*
X76872862Y-97802217D01*
X76872860Y-97802218D01*
X76763367Y-97966086D01*
X76687950Y-98148160D01*
X76687947Y-98148170D01*
X76649500Y-98341460D01*
X76110500Y-98341460D01*
X76110500Y-98341459D01*
X76072051Y-98148165D01*
X75996632Y-97966086D01*
X75887139Y-97802218D01*
X75747782Y-97662861D01*
X75739351Y-97657227D01*
X75583913Y-97553367D01*
X75401839Y-97477950D01*
X75401829Y-97477947D01*
X75267023Y-97451133D01*
X75208541Y-97439500D01*
X75011459Y-97439500D01*
X74956662Y-97450399D01*
X74818170Y-97477947D01*
X74818160Y-97477950D01*
X74636086Y-97553367D01*
X74472218Y-97662860D01*
X74472217Y-97662862D01*
X74332862Y-97802217D01*
X74332860Y-97802218D01*
X74223367Y-97966086D01*
X74147950Y-98148160D01*
X74147947Y-98148170D01*
X74109500Y-98341460D01*
X68200000Y-98341460D01*
X68200000Y-91771460D01*
X74869500Y-91771460D01*
X74869500Y-91968539D01*
X74907947Y-92161829D01*
X74907950Y-92161839D01*
X74983367Y-92343913D01*
X75092860Y-92507781D01*
X75232218Y-92647139D01*
X75396086Y-92756632D01*
X75562542Y-92825580D01*
X75578165Y-92832051D01*
X75771459Y-92870500D01*
X75771461Y-92870500D01*
X75968539Y-92870500D01*
X75968541Y-92870500D01*
X76161835Y-92832051D01*
X76343914Y-92756632D01*
X76507782Y-92647139D01*
X76647139Y-92507782D01*
X76756632Y-92343914D01*
X76832051Y-92161835D01*
X76870500Y-91968541D01*
X76870500Y-91771459D01*
X76832051Y-91578165D01*
X76756632Y-91396086D01*
X76647139Y-91232218D01*
X76507782Y-91092861D01*
X76465936Y-91064900D01*
X76343913Y-90983367D01*
X76161839Y-90907950D01*
X76161829Y-90907947D01*
X76032388Y-90882200D01*
X75968541Y-90869500D01*
X75771459Y-90869500D01*
X75716662Y-90880399D01*
X75578170Y-90907947D01*
X75578160Y-90907950D01*
X75396086Y-90983367D01*
X75232218Y-91092860D01*
X75232217Y-91092862D01*
X75092862Y-91232217D01*
X75092860Y-91232218D01*
X74983367Y-91396086D01*
X74907950Y-91578160D01*
X74907947Y-91578170D01*
X74869500Y-91771460D01*
X68200000Y-91771460D01*
X68200000Y-76531460D01*
X74869500Y-76531460D01*
X74869500Y-76728539D01*
X74907947Y-76921829D01*
X74907950Y-76921839D01*
X74983367Y-77103913D01*
X75055500Y-77211867D01*
X75092861Y-77267782D01*
X75232218Y-77407139D01*
X75396086Y-77516632D01*
X75578165Y-77592051D01*
X75771459Y-77630500D01*
X75771461Y-77630500D01*
X75968539Y-77630500D01*
X75968541Y-77630500D01*
X76161835Y-77592051D01*
X76343914Y-77516632D01*
X76507782Y-77407139D01*
X76647139Y-77267782D01*
X76756632Y-77103914D01*
X76832051Y-76921835D01*
X76870500Y-76728541D01*
X76870500Y-76531460D01*
X77409500Y-76531460D01*
X77409500Y-76728539D01*
X77447947Y-76921829D01*
X77447950Y-76921839D01*
X77523367Y-77103913D01*
X77595500Y-77211867D01*
X77632861Y-77267782D01*
X77772218Y-77407139D01*
X77936086Y-77516632D01*
X78118165Y-77592051D01*
X78311459Y-77630500D01*
X78311461Y-77630500D01*
X78508539Y-77630500D01*
X78508541Y-77630500D01*
X78701835Y-77592051D01*
X78883914Y-77516632D01*
X79047782Y-77407139D01*
X79187139Y-77267782D01*
X79296632Y-77103914D01*
X79372051Y-76921835D01*
X79410500Y-76728541D01*
X79410500Y-76531460D01*
X79949500Y-76531460D01*
X79949500Y-76728539D01*
X79987947Y-76921829D01*
X79987950Y-76921839D01*
X80063367Y-77103913D01*
X80135500Y-77211867D01*
X80172861Y-77267782D01*
X80312218Y-77407139D01*
X80476086Y-77516632D01*
X80658165Y-77592051D01*
X80851459Y-77630500D01*
X80851461Y-77630500D01*
X81048539Y-77630500D01*
X81048541Y-77630500D01*
X81241835Y-77592051D01*
X81423914Y-77516632D01*
X81587782Y-77407139D01*
X81727139Y-77267782D01*
X81836632Y-77103914D01*
X81912051Y-76921835D01*
X81950500Y-76728541D01*
X81950500Y-76531460D01*
X82489500Y-76531460D01*
X82489500Y-76728539D01*
X82527947Y-76921829D01*
X82527950Y-76921839D01*
X82603367Y-77103913D01*
X82675500Y-77211867D01*
X82712861Y-77267782D01*
X82852218Y-77407139D01*
X83016086Y-77516632D01*
X83198165Y-77592051D01*
X83391459Y-77630500D01*
X83391461Y-77630500D01*
X83588539Y-77630500D01*
X83588541Y-77630500D01*
X83781835Y-77592051D01*
X83963914Y-77516632D01*
X84127782Y-77407139D01*
X84267139Y-77267782D01*
X84376632Y-77103914D01*
X84452051Y-76921835D01*
X84490500Y-76728541D01*
X84490500Y-76531460D01*
X85029500Y-76531460D01*
X85029500Y-76728539D01*
X85067947Y-76921829D01*
X85067950Y-76921839D01*
X85143367Y-77103913D01*
X85215500Y-77211867D01*
X85252861Y-77267782D01*
X85392218Y-77407139D01*
X85556086Y-77516632D01*
X85738165Y-77592051D01*
X85931459Y-77630500D01*
X85931461Y-77630500D01*
X86128539Y-77630500D01*
X86128541Y-77630500D01*
X86321835Y-77592051D01*
X86503914Y-77516632D01*
X86667782Y-77407139D01*
X86807139Y-77267782D01*
X86916632Y-77103914D01*
X86992051Y-76921835D01*
X87030500Y-76728541D01*
X87030500Y-76531460D01*
X87569500Y-76531460D01*
X87569500Y-76728539D01*
X87607947Y-76921829D01*
X87607950Y-76921839D01*
X87683367Y-77103913D01*
X87755500Y-77211867D01*
X87792861Y-77267782D01*
X87932218Y-77407139D01*
X88096086Y-77516632D01*
X88278165Y-77592051D01*
X88471459Y-77630500D01*
X88471461Y-77630500D01*
X88668539Y-77630500D01*
X88668541Y-77630500D01*
X88861835Y-77592051D01*
X89043914Y-77516632D01*
X89207782Y-77407139D01*
X89347139Y-77267782D01*
X89456632Y-77103914D01*
X89532051Y-76921835D01*
X89570500Y-76728541D01*
X89570500Y-76531460D01*
X90109500Y-76531460D01*
X90109500Y-76728539D01*
X90147947Y-76921829D01*
X90147950Y-76921839D01*
X90223367Y-77103913D01*
X90295500Y-77211867D01*
X90332861Y-77267782D01*
X90472218Y-77407139D01*
X90636086Y-77516632D01*
X90818165Y-77592051D01*
X91011459Y-77630500D01*
X91011461Y-77630500D01*
X91208539Y-77630500D01*
X91208541Y-77630500D01*
X91401835Y-77592051D01*
X91583914Y-77516632D01*
X91747782Y-77407139D01*
X91887139Y-77267782D01*
X91996632Y-77103914D01*
X92072051Y-76921835D01*
X92087922Y-76842045D01*
X92119388Y-76794954D01*
X92174937Y-76783905D01*
X92222029Y-76815371D01*
X92234500Y-76856483D01*
X92234500Y-90794564D01*
X92254977Y-90870985D01*
X92254979Y-90870990D01*
X92276318Y-90907949D01*
X92294539Y-90939510D01*
X92724816Y-91369787D01*
X92746490Y-91422113D01*
X92740857Y-91450431D01*
X92687950Y-91578160D01*
X92687947Y-91578170D01*
X92649500Y-91771460D01*
X92649500Y-91968539D01*
X92687947Y-92161829D01*
X92687950Y-92161839D01*
X92763367Y-92343913D01*
X92872860Y-92507781D01*
X93012218Y-92647139D01*
X93176086Y-92756632D01*
X93342542Y-92825580D01*
X93358165Y-92832051D01*
X93551459Y-92870500D01*
X93551461Y-92870500D01*
X93748539Y-92870500D01*
X93748541Y-92870500D01*
X93941835Y-92832051D01*
X94069568Y-92779142D01*
X94126204Y-92779142D01*
X94150212Y-92795183D01*
X98677826Y-97322797D01*
X98699500Y-97375123D01*
X98699500Y-100080331D01*
X98677826Y-100132657D01*
X98653819Y-100148698D01*
X98573453Y-100181986D01*
X98425968Y-100280533D01*
X98300533Y-100405968D01*
X98201985Y-100553455D01*
X98134107Y-100717329D01*
X98134104Y-100717339D01*
X98099500Y-100891310D01*
X98099500Y-101068689D01*
X98134104Y-101242660D01*
X98134105Y-101242662D01*
X98134106Y-101242666D01*
X98134108Y-101242670D01*
X98167394Y-101323032D01*
X98167393Y-101379669D01*
X98151352Y-101403675D01*
X95245489Y-104309540D01*
X95189540Y-104365488D01*
X95149979Y-104434009D01*
X95149977Y-104434014D01*
X95129500Y-104510435D01*
X95129500Y-105052092D01*
X95107826Y-105104418D01*
X95083819Y-105120459D01*
X94956089Y-105173366D01*
X94792218Y-105282860D01*
X94792217Y-105282862D01*
X94652862Y-105422217D01*
X94652860Y-105422218D01*
X94543367Y-105586086D01*
X94467950Y-105768160D01*
X94467947Y-105768170D01*
X94429500Y-105961460D01*
X94429500Y-106158539D01*
X94467947Y-106351829D01*
X94467950Y-106351839D01*
X94543367Y-106533913D01*
X94617266Y-106644510D01*
X94652861Y-106697782D01*
X94792218Y-106837139D01*
X94956086Y-106946632D01*
X95138165Y-107022051D01*
X95331459Y-107060500D01*
X95331461Y-107060500D01*
X95528539Y-107060500D01*
X95528541Y-107060500D01*
X95721835Y-107022051D01*
X95903914Y-106946632D01*
X96067782Y-106837139D01*
X96207139Y-106697782D01*
X96316632Y-106533914D01*
X96392051Y-106351835D01*
X96430500Y-106158541D01*
X96430500Y-105961459D01*
X96392051Y-105768165D01*
X96316632Y-105586086D01*
X96207139Y-105422218D01*
X96067782Y-105282861D01*
X96067779Y-105282859D01*
X95951787Y-105205356D01*
X95903914Y-105173368D01*
X95903911Y-105173366D01*
X95903910Y-105173366D01*
X95776181Y-105120459D01*
X95736133Y-105080410D01*
X95730500Y-105052092D01*
X95730500Y-104705122D01*
X95752173Y-104652797D01*
X98576324Y-101828645D01*
X98628649Y-101806972D01*
X98656964Y-101812604D01*
X98737334Y-101845894D01*
X98911309Y-101880500D01*
X98911311Y-101880500D01*
X99088689Y-101880500D01*
X99088691Y-101880500D01*
X99262666Y-101845894D01*
X99426547Y-101778013D01*
X99574035Y-101679464D01*
X99699464Y-101554035D01*
X99798013Y-101406547D01*
X99865894Y-101242666D01*
X99900500Y-101068691D01*
X99900500Y-100891309D01*
X99865894Y-100717334D01*
X99798013Y-100553453D01*
X99699464Y-100405965D01*
X99574035Y-100280536D01*
X99574031Y-100280533D01*
X99426546Y-100181986D01*
X99346181Y-100148698D01*
X99306133Y-100108649D01*
X99300500Y-100080331D01*
X99300500Y-97180437D01*
X99300499Y-97180435D01*
X99298416Y-97172658D01*
X99298416Y-97172657D01*
X99280023Y-97104016D01*
X99280022Y-97104012D01*
X99240460Y-97035489D01*
X96385806Y-94180835D01*
X101159100Y-94180835D01*
X101159100Y-101540164D01*
X101179577Y-101616585D01*
X101179579Y-101616590D01*
X101215880Y-101679464D01*
X101215879Y-101679464D01*
X101215883Y-101679469D01*
X101219137Y-101685107D01*
X101219141Y-101685112D01*
X103008926Y-103474897D01*
X103030600Y-103527223D01*
X103030600Y-103637994D01*
X103064706Y-103765281D01*
X103064707Y-103765284D01*
X103064708Y-103765286D01*
X103130600Y-103879414D01*
X103223786Y-103972600D01*
X103337914Y-104038492D01*
X103465205Y-104072599D01*
X103465206Y-104072600D01*
X103465208Y-104072600D01*
X103596994Y-104072600D01*
X103596994Y-104072599D01*
X103724286Y-104038492D01*
X103838414Y-103972600D01*
X103931600Y-103879414D01*
X103997492Y-103765286D01*
X103997493Y-103765279D01*
X103999347Y-103760806D01*
X104001820Y-103761830D01*
X104031066Y-103723711D01*
X104087218Y-103716314D01*
X104120397Y-103735468D01*
X104599426Y-104214497D01*
X104621100Y-104266823D01*
X104621100Y-105143827D01*
X104599426Y-105196153D01*
X104588212Y-105205356D01*
X104472221Y-105282858D01*
X104472220Y-105282859D01*
X104332861Y-105422217D01*
X104332860Y-105422218D01*
X104223367Y-105586086D01*
X104147950Y-105768160D01*
X104147947Y-105768170D01*
X104109500Y-105961460D01*
X104109500Y-106158539D01*
X104147947Y-106351829D01*
X104147950Y-106351839D01*
X104223367Y-106533913D01*
X104297266Y-106644510D01*
X104332861Y-106697782D01*
X104472218Y-106837139D01*
X104636086Y-106946632D01*
X104818165Y-107022051D01*
X105011459Y-107060500D01*
X105011461Y-107060500D01*
X105208539Y-107060500D01*
X105208541Y-107060500D01*
X105401835Y-107022051D01*
X105583914Y-106946632D01*
X105747782Y-106837139D01*
X105887139Y-106697782D01*
X105996632Y-106533914D01*
X106072051Y-106351835D01*
X106110500Y-106158541D01*
X106110500Y-105961459D01*
X106072051Y-105768165D01*
X105996632Y-105586086D01*
X105887139Y-105422218D01*
X105747782Y-105282861D01*
X105747780Y-105282859D01*
X105583913Y-105173367D01*
X105401839Y-105097950D01*
X105401829Y-105097947D01*
X105281663Y-105074044D01*
X105234571Y-105042578D01*
X105222100Y-105001466D01*
X105222100Y-104979902D01*
X105243774Y-104927576D01*
X105296100Y-104905902D01*
X105325041Y-104913657D01*
X105325631Y-104912235D01*
X105330110Y-104914090D01*
X105330111Y-104914090D01*
X105330114Y-104914092D01*
X105457408Y-104948200D01*
X105457409Y-104948200D01*
X105589194Y-104948200D01*
X105589194Y-104948199D01*
X105716486Y-104914092D01*
X105830614Y-104848200D01*
X105923800Y-104755014D01*
X105989692Y-104640886D01*
X106023799Y-104513594D01*
X106023800Y-104513594D01*
X106023800Y-104402822D01*
X106045474Y-104350496D01*
X106921073Y-103474897D01*
X107890460Y-102505511D01*
X107928535Y-102439562D01*
X107930021Y-102436989D01*
X107950500Y-102360562D01*
X107950500Y-99447906D01*
X107972174Y-99395580D01*
X107996180Y-99379539D01*
X108123914Y-99326632D01*
X108287782Y-99217139D01*
X108427139Y-99077782D01*
X108536632Y-98913914D01*
X108612051Y-98731835D01*
X108650500Y-98538541D01*
X108650500Y-98341460D01*
X109189500Y-98341460D01*
X109189500Y-98538539D01*
X109227947Y-98731829D01*
X109227950Y-98731839D01*
X109303367Y-98913913D01*
X109412860Y-99077781D01*
X109552218Y-99217139D01*
X109716086Y-99326632D01*
X109882542Y-99395580D01*
X109898165Y-99402051D01*
X110091459Y-99440500D01*
X110091461Y-99440500D01*
X110288539Y-99440500D01*
X110288541Y-99440500D01*
X110481835Y-99402051D01*
X110663914Y-99326632D01*
X110827782Y-99217139D01*
X110967139Y-99077782D01*
X111076632Y-98913914D01*
X111152051Y-98731835D01*
X111190500Y-98538541D01*
X111190500Y-98341459D01*
X111152051Y-98148165D01*
X111076632Y-97966086D01*
X110967139Y-97802218D01*
X110827782Y-97662861D01*
X110819351Y-97657227D01*
X110663913Y-97553367D01*
X110481839Y-97477950D01*
X110481829Y-97477947D01*
X110347023Y-97451133D01*
X110288541Y-97439500D01*
X110091459Y-97439500D01*
X110036662Y-97450399D01*
X109898170Y-97477947D01*
X109898160Y-97477950D01*
X109716086Y-97553367D01*
X109552218Y-97662860D01*
X109552217Y-97662862D01*
X109412862Y-97802217D01*
X109412860Y-97802218D01*
X109303367Y-97966086D01*
X109227950Y-98148160D01*
X109227947Y-98148170D01*
X109189500Y-98341460D01*
X108650500Y-98341460D01*
X108650500Y-98341459D01*
X108612051Y-98148165D01*
X108536632Y-97966086D01*
X108427139Y-97802218D01*
X108287782Y-97662861D01*
X108279351Y-97657227D01*
X108123913Y-97553367D01*
X107941839Y-97477950D01*
X107941829Y-97477947D01*
X107807023Y-97451133D01*
X107748541Y-97439500D01*
X107551459Y-97439500D01*
X107496662Y-97450399D01*
X107358170Y-97477947D01*
X107358160Y-97477950D01*
X107176086Y-97553367D01*
X107012218Y-97662860D01*
X107012217Y-97662862D01*
X106872862Y-97802217D01*
X106872860Y-97802218D01*
X106763367Y-97966086D01*
X106687950Y-98148160D01*
X106687947Y-98148170D01*
X106649500Y-98341460D01*
X106649500Y-98538539D01*
X106687947Y-98731829D01*
X106687950Y-98731839D01*
X106763367Y-98913913D01*
X106843499Y-99033838D01*
X106872861Y-99077782D01*
X107012218Y-99217139D01*
X107176086Y-99326632D01*
X107303818Y-99379539D01*
X107343867Y-99419587D01*
X107349500Y-99447906D01*
X107349500Y-102165876D01*
X107327826Y-102218202D01*
X105620502Y-103925526D01*
X105568176Y-103947200D01*
X105457406Y-103947200D01*
X105330118Y-103981306D01*
X105330111Y-103981309D01*
X105291592Y-104003548D01*
X105235439Y-104010939D01*
X105190507Y-103976460D01*
X105162063Y-103927194D01*
X105162063Y-103927193D01*
X105162061Y-103927191D01*
X105162060Y-103927189D01*
X104320874Y-103086003D01*
X104299200Y-103033677D01*
X104299200Y-99222773D01*
X104320874Y-99170447D01*
X104373200Y-99148773D01*
X104425526Y-99170447D01*
X104472218Y-99217139D01*
X104636086Y-99326632D01*
X104802542Y-99395580D01*
X104818165Y-99402051D01*
X105011459Y-99440500D01*
X105011461Y-99440500D01*
X105208539Y-99440500D01*
X105208541Y-99440500D01*
X105401835Y-99402051D01*
X105583914Y-99326632D01*
X105747782Y-99217139D01*
X105887139Y-99077782D01*
X105996632Y-98913914D01*
X106072051Y-98731835D01*
X106110500Y-98538541D01*
X106110500Y-98341459D01*
X106072051Y-98148165D01*
X106019142Y-98020431D01*
X106019142Y-98020430D01*
X106019142Y-97963793D01*
X106035180Y-97939789D01*
X109130460Y-94844511D01*
X109170021Y-94775989D01*
X109190499Y-94699564D01*
X109190500Y-94699564D01*
X109190500Y-92877906D01*
X109212174Y-92825580D01*
X109236180Y-92809539D01*
X109363914Y-92756632D01*
X109527782Y-92647139D01*
X109667139Y-92507782D01*
X109776632Y-92343914D01*
X109852051Y-92161835D01*
X109890500Y-91968541D01*
X109890500Y-91771460D01*
X110429500Y-91771460D01*
X110429500Y-91968539D01*
X110467947Y-92161829D01*
X110467950Y-92161839D01*
X110543367Y-92343913D01*
X110602100Y-92431812D01*
X110652861Y-92507782D01*
X110792218Y-92647139D01*
X110956086Y-92756632D01*
X111083818Y-92809539D01*
X111123867Y-92849587D01*
X111129500Y-92877906D01*
X111129500Y-97179564D01*
X111149977Y-97255985D01*
X111149979Y-97255989D01*
X111152043Y-97259564D01*
X111189540Y-97324511D01*
X111804816Y-97939787D01*
X111826490Y-97992113D01*
X111820857Y-98020431D01*
X111767950Y-98148160D01*
X111767947Y-98148170D01*
X111729500Y-98341460D01*
X111729500Y-98538539D01*
X111767947Y-98731829D01*
X111767950Y-98731839D01*
X111843367Y-98913913D01*
X111952860Y-99077781D01*
X112092218Y-99217139D01*
X112256086Y-99326632D01*
X112422542Y-99395580D01*
X112438165Y-99402051D01*
X112631459Y-99440500D01*
X112631461Y-99440500D01*
X112828539Y-99440500D01*
X112828541Y-99440500D01*
X113021835Y-99402051D01*
X113203914Y-99326632D01*
X113367782Y-99217139D01*
X113507139Y-99077782D01*
X113616632Y-98913914D01*
X113692051Y-98731835D01*
X113730500Y-98538541D01*
X113730500Y-98341459D01*
X113692051Y-98148165D01*
X113616632Y-97966086D01*
X113507139Y-97802218D01*
X113367782Y-97662861D01*
X113359351Y-97657227D01*
X113203913Y-97553367D01*
X113021839Y-97477950D01*
X113021829Y-97477947D01*
X112887023Y-97451133D01*
X112828541Y-97439500D01*
X112631459Y-97439500D01*
X112576662Y-97450399D01*
X112438170Y-97477947D01*
X112438160Y-97477950D01*
X112310431Y-97530857D01*
X112253794Y-97530857D01*
X112229787Y-97514816D01*
X111752174Y-97037203D01*
X111730500Y-96984877D01*
X111730500Y-92877906D01*
X111752174Y-92825580D01*
X111776180Y-92809539D01*
X111903914Y-92756632D01*
X112067782Y-92647139D01*
X112207139Y-92507782D01*
X112316632Y-92343914D01*
X112392051Y-92161835D01*
X112430500Y-91968541D01*
X112430500Y-91771459D01*
X112392051Y-91578165D01*
X112316632Y-91396086D01*
X112207139Y-91232218D01*
X112067782Y-91092861D01*
X112025936Y-91064900D01*
X111903913Y-90983367D01*
X111721839Y-90907950D01*
X111721829Y-90907947D01*
X111592388Y-90882200D01*
X111528541Y-90869500D01*
X111331459Y-90869500D01*
X111276662Y-90880399D01*
X111138170Y-90907947D01*
X111138160Y-90907950D01*
X110956086Y-90983367D01*
X110792218Y-91092860D01*
X110792217Y-91092862D01*
X110652862Y-91232217D01*
X110652860Y-91232218D01*
X110543367Y-91396086D01*
X110467950Y-91578160D01*
X110467947Y-91578170D01*
X110429500Y-91771460D01*
X109890500Y-91771460D01*
X109890500Y-91771459D01*
X109852051Y-91578165D01*
X109776632Y-91396086D01*
X109667139Y-91232218D01*
X109527782Y-91092861D01*
X109485936Y-91064900D01*
X109363913Y-90983367D01*
X109181839Y-90907950D01*
X109181829Y-90907947D01*
X109052388Y-90882200D01*
X108988541Y-90869500D01*
X108791459Y-90869500D01*
X108736662Y-90880399D01*
X108598170Y-90907947D01*
X108598160Y-90907950D01*
X108416086Y-90983367D01*
X108252218Y-91092860D01*
X108252217Y-91092862D01*
X108112862Y-91232217D01*
X108112860Y-91232218D01*
X108003367Y-91396086D01*
X107927950Y-91578160D01*
X107927947Y-91578170D01*
X107889500Y-91771460D01*
X107889500Y-91968539D01*
X107927947Y-92161829D01*
X107927950Y-92161839D01*
X108003367Y-92343913D01*
X108062100Y-92431812D01*
X108112861Y-92507782D01*
X108252218Y-92647139D01*
X108416086Y-92756632D01*
X108543818Y-92809539D01*
X108583867Y-92849587D01*
X108589500Y-92877906D01*
X108589500Y-94504876D01*
X108567826Y-94557202D01*
X105610211Y-97514816D01*
X105557885Y-97536490D01*
X105529567Y-97530857D01*
X105401839Y-97477950D01*
X105401829Y-97477947D01*
X105267023Y-97451133D01*
X105208541Y-97439500D01*
X105011459Y-97439500D01*
X104956662Y-97450399D01*
X104818170Y-97477947D01*
X104818160Y-97477950D01*
X104636086Y-97553367D01*
X104472218Y-97662860D01*
X104472217Y-97662862D01*
X104425526Y-97709553D01*
X104373200Y-97731227D01*
X104320874Y-97709553D01*
X104299200Y-97657227D01*
X104299200Y-94376422D01*
X104320873Y-94324097D01*
X105849787Y-92795182D01*
X105902112Y-92773509D01*
X105930430Y-92779142D01*
X106049498Y-92828461D01*
X106058165Y-92832051D01*
X106251459Y-92870500D01*
X106251461Y-92870500D01*
X106448539Y-92870500D01*
X106448541Y-92870500D01*
X106641835Y-92832051D01*
X106823914Y-92756632D01*
X106987782Y-92647139D01*
X107127139Y-92507782D01*
X107236632Y-92343914D01*
X107312051Y-92161835D01*
X107350500Y-91968541D01*
X107350500Y-91771459D01*
X107312051Y-91578165D01*
X107236632Y-91396086D01*
X107127139Y-91232218D01*
X106987782Y-91092861D01*
X106945936Y-91064900D01*
X106823913Y-90983367D01*
X106641839Y-90907950D01*
X106641829Y-90907947D01*
X106512388Y-90882200D01*
X106448541Y-90869500D01*
X106251459Y-90869500D01*
X106196662Y-90880399D01*
X106058170Y-90907947D01*
X106058160Y-90907950D01*
X105876086Y-90983367D01*
X105712218Y-91092860D01*
X105712217Y-91092862D01*
X105572862Y-91232217D01*
X105572860Y-91232218D01*
X105463367Y-91396086D01*
X105387950Y-91578160D01*
X105387947Y-91578170D01*
X105349500Y-91771460D01*
X105349500Y-91968539D01*
X105387947Y-92161829D01*
X105387950Y-92161839D01*
X105440857Y-92289567D01*
X105440857Y-92346204D01*
X105424816Y-92370211D01*
X103814189Y-93980840D01*
X103758240Y-94036788D01*
X103718679Y-94105309D01*
X103718677Y-94105314D01*
X103698200Y-94181735D01*
X103698200Y-103002279D01*
X103676526Y-103054605D01*
X103624200Y-103076279D01*
X103621692Y-103076236D01*
X103613222Y-103075948D01*
X103596992Y-103071600D01*
X103484983Y-103071600D01*
X103483715Y-103071557D01*
X103459003Y-103060325D01*
X103433897Y-103049926D01*
X101781774Y-101397803D01*
X101760100Y-101345477D01*
X101760100Y-94375522D01*
X101781773Y-94323197D01*
X103309787Y-92795182D01*
X103362112Y-92773509D01*
X103390430Y-92779142D01*
X103509498Y-92828461D01*
X103518165Y-92832051D01*
X103711459Y-92870500D01*
X103711461Y-92870500D01*
X103908539Y-92870500D01*
X103908541Y-92870500D01*
X104101835Y-92832051D01*
X104283914Y-92756632D01*
X104447782Y-92647139D01*
X104587139Y-92507782D01*
X104696632Y-92343914D01*
X104772051Y-92161835D01*
X104810500Y-91968541D01*
X104810500Y-91771459D01*
X104772051Y-91578165D01*
X104696632Y-91396086D01*
X104587139Y-91232218D01*
X104447782Y-91092861D01*
X104405936Y-91064900D01*
X104283913Y-90983367D01*
X104101839Y-90907950D01*
X104101829Y-90907947D01*
X103972388Y-90882200D01*
X103908541Y-90869500D01*
X103711459Y-90869500D01*
X103656662Y-90880399D01*
X103518170Y-90907947D01*
X103518160Y-90907950D01*
X103336086Y-90983367D01*
X103172218Y-91092860D01*
X103172217Y-91092862D01*
X103032862Y-91232217D01*
X103032860Y-91232218D01*
X102923367Y-91396086D01*
X102847950Y-91578160D01*
X102847947Y-91578170D01*
X102809500Y-91771460D01*
X102809500Y-91968539D01*
X102847947Y-92161829D01*
X102847950Y-92161839D01*
X102900857Y-92289567D01*
X102900857Y-92346204D01*
X102884816Y-92370211D01*
X101275089Y-93979940D01*
X101219140Y-94035888D01*
X101179579Y-94104409D01*
X101179577Y-94104414D01*
X101159100Y-94180835D01*
X96385806Y-94180835D01*
X94575183Y-92370212D01*
X94553509Y-92317886D01*
X94559142Y-92289567D01*
X94612051Y-92161835D01*
X94650500Y-91968541D01*
X94650500Y-91771460D01*
X95189500Y-91771460D01*
X95189500Y-91968539D01*
X95227947Y-92161829D01*
X95227950Y-92161839D01*
X95303367Y-92343913D01*
X95412860Y-92507781D01*
X95552218Y-92647139D01*
X95716086Y-92756632D01*
X95882542Y-92825580D01*
X95898165Y-92832051D01*
X96091459Y-92870500D01*
X96091461Y-92870500D01*
X96288539Y-92870500D01*
X96288541Y-92870500D01*
X96481835Y-92832051D01*
X96663914Y-92756632D01*
X96827782Y-92647139D01*
X96967139Y-92507782D01*
X97076632Y-92343914D01*
X97152051Y-92161835D01*
X97190500Y-91968541D01*
X97190500Y-91771460D01*
X97729500Y-91771460D01*
X97729500Y-91968539D01*
X97767947Y-92161829D01*
X97767950Y-92161839D01*
X97843367Y-92343913D01*
X97952860Y-92507781D01*
X98092218Y-92647139D01*
X98256086Y-92756632D01*
X98422542Y-92825580D01*
X98438165Y-92832051D01*
X98631459Y-92870500D01*
X98631461Y-92870500D01*
X98828539Y-92870500D01*
X98828541Y-92870500D01*
X99021835Y-92832051D01*
X99203914Y-92756632D01*
X99367782Y-92647139D01*
X99507139Y-92507782D01*
X99616632Y-92343914D01*
X99692051Y-92161835D01*
X99730500Y-91968541D01*
X99730500Y-91771460D01*
X100269500Y-91771460D01*
X100269500Y-91968539D01*
X100307947Y-92161829D01*
X100307950Y-92161839D01*
X100383367Y-92343913D01*
X100492860Y-92507781D01*
X100632218Y-92647139D01*
X100796086Y-92756632D01*
X100962542Y-92825580D01*
X100978165Y-92832051D01*
X101171459Y-92870500D01*
X101171461Y-92870500D01*
X101368539Y-92870500D01*
X101368541Y-92870500D01*
X101561835Y-92832051D01*
X101743914Y-92756632D01*
X101907782Y-92647139D01*
X102047139Y-92507782D01*
X102156632Y-92343914D01*
X102232051Y-92161835D01*
X102270500Y-91968541D01*
X102270500Y-91771459D01*
X102232051Y-91578165D01*
X102156632Y-91396086D01*
X102047139Y-91232218D01*
X101907782Y-91092861D01*
X101865936Y-91064900D01*
X101743913Y-90983367D01*
X101561839Y-90907950D01*
X101561829Y-90907947D01*
X101432388Y-90882200D01*
X101368541Y-90869500D01*
X101171459Y-90869500D01*
X101116662Y-90880399D01*
X100978170Y-90907947D01*
X100978160Y-90907950D01*
X100796086Y-90983367D01*
X100632218Y-91092860D01*
X100632217Y-91092862D01*
X100492862Y-91232217D01*
X100492860Y-91232218D01*
X100383367Y-91396086D01*
X100307950Y-91578160D01*
X100307947Y-91578170D01*
X100269500Y-91771460D01*
X99730500Y-91771460D01*
X99730500Y-91771459D01*
X99692051Y-91578165D01*
X99616632Y-91396086D01*
X99507139Y-91232218D01*
X99367782Y-91092861D01*
X99325936Y-91064900D01*
X99203913Y-90983367D01*
X99021839Y-90907950D01*
X99021829Y-90907947D01*
X98892388Y-90882200D01*
X98828541Y-90869500D01*
X98631459Y-90869500D01*
X98576662Y-90880399D01*
X98438170Y-90907947D01*
X98438160Y-90907950D01*
X98256086Y-90983367D01*
X98092218Y-91092860D01*
X98092217Y-91092862D01*
X97952862Y-91232217D01*
X97952860Y-91232218D01*
X97843367Y-91396086D01*
X97767950Y-91578160D01*
X97767947Y-91578170D01*
X97729500Y-91771460D01*
X97190500Y-91771460D01*
X97190500Y-91771459D01*
X97152051Y-91578165D01*
X97076632Y-91396086D01*
X96967139Y-91232218D01*
X96827782Y-91092861D01*
X96785936Y-91064900D01*
X96663913Y-90983367D01*
X96481839Y-90907950D01*
X96481829Y-90907947D01*
X96352388Y-90882200D01*
X96288541Y-90869500D01*
X96091459Y-90869500D01*
X96036662Y-90880399D01*
X95898170Y-90907947D01*
X95898160Y-90907950D01*
X95716086Y-90983367D01*
X95552218Y-91092860D01*
X95552217Y-91092862D01*
X95412862Y-91232217D01*
X95412860Y-91232218D01*
X95303367Y-91396086D01*
X95227950Y-91578160D01*
X95227947Y-91578170D01*
X95189500Y-91771460D01*
X94650500Y-91771460D01*
X94650500Y-91771459D01*
X94612051Y-91578165D01*
X94536632Y-91396086D01*
X94427139Y-91232218D01*
X94287782Y-91092861D01*
X94245936Y-91064900D01*
X94123913Y-90983367D01*
X93941839Y-90907950D01*
X93941829Y-90907947D01*
X93812388Y-90882200D01*
X93748541Y-90869500D01*
X93551459Y-90869500D01*
X93496662Y-90880399D01*
X93358170Y-90907947D01*
X93358160Y-90907950D01*
X93230431Y-90960857D01*
X93173794Y-90960857D01*
X93149787Y-90944816D01*
X92857174Y-90652203D01*
X92835500Y-90599877D01*
X92835500Y-77409073D01*
X92857174Y-77356747D01*
X92909500Y-77335073D01*
X92961826Y-77356747D01*
X93012218Y-77407139D01*
X93176086Y-77516632D01*
X93358165Y-77592051D01*
X93551459Y-77630500D01*
X93551461Y-77630500D01*
X93748539Y-77630500D01*
X93748541Y-77630500D01*
X93941835Y-77592051D01*
X94123914Y-77516632D01*
X94287782Y-77407139D01*
X94427139Y-77267782D01*
X94536632Y-77103914D01*
X94612051Y-76921835D01*
X94650500Y-76728541D01*
X94650500Y-76531460D01*
X95189500Y-76531460D01*
X95189500Y-76728539D01*
X95227947Y-76921829D01*
X95227950Y-76921839D01*
X95303367Y-77103913D01*
X95375500Y-77211867D01*
X95412861Y-77267782D01*
X95552218Y-77407139D01*
X95716086Y-77516632D01*
X95898165Y-77592051D01*
X96091459Y-77630500D01*
X96091461Y-77630500D01*
X96288539Y-77630500D01*
X96288541Y-77630500D01*
X96481835Y-77592051D01*
X96663914Y-77516632D01*
X96827782Y-77407139D01*
X96967139Y-77267782D01*
X97076632Y-77103914D01*
X97152051Y-76921835D01*
X97190500Y-76728541D01*
X97190500Y-76531460D01*
X97729500Y-76531460D01*
X97729500Y-76728539D01*
X97767947Y-76921829D01*
X97767950Y-76921839D01*
X97843367Y-77103913D01*
X97915500Y-77211867D01*
X97952861Y-77267782D01*
X98092218Y-77407139D01*
X98256086Y-77516632D01*
X98438165Y-77592051D01*
X98631459Y-77630500D01*
X98631461Y-77630500D01*
X98828539Y-77630500D01*
X98828541Y-77630500D01*
X99021835Y-77592051D01*
X99203914Y-77516632D01*
X99367782Y-77407139D01*
X99507139Y-77267782D01*
X99616632Y-77103914D01*
X99692051Y-76921835D01*
X99730500Y-76728541D01*
X99730500Y-76531460D01*
X100269500Y-76531460D01*
X100269500Y-76728539D01*
X100307947Y-76921829D01*
X100307950Y-76921839D01*
X100383367Y-77103913D01*
X100455500Y-77211867D01*
X100492861Y-77267782D01*
X100632218Y-77407139D01*
X100796086Y-77516632D01*
X100978165Y-77592051D01*
X101171459Y-77630500D01*
X101171461Y-77630500D01*
X101368539Y-77630500D01*
X101368541Y-77630500D01*
X101561835Y-77592051D01*
X101743914Y-77516632D01*
X101907782Y-77407139D01*
X102047139Y-77267782D01*
X102156632Y-77103914D01*
X102232051Y-76921835D01*
X102270500Y-76728541D01*
X102270500Y-76531460D01*
X102809500Y-76531460D01*
X102809500Y-76728539D01*
X102847947Y-76921829D01*
X102847950Y-76921839D01*
X102923367Y-77103913D01*
X102995500Y-77211867D01*
X103032861Y-77267782D01*
X103172218Y-77407139D01*
X103336086Y-77516632D01*
X103518165Y-77592051D01*
X103711459Y-77630500D01*
X103711461Y-77630500D01*
X103908539Y-77630500D01*
X103908541Y-77630500D01*
X104101835Y-77592051D01*
X104283914Y-77516632D01*
X104447782Y-77407139D01*
X104587139Y-77267782D01*
X104696632Y-77103914D01*
X104772051Y-76921835D01*
X104810500Y-76728541D01*
X104810500Y-76531460D01*
X105349500Y-76531460D01*
X105349500Y-76728539D01*
X105387947Y-76921829D01*
X105387950Y-76921839D01*
X105463367Y-77103913D01*
X105535500Y-77211867D01*
X105572861Y-77267782D01*
X105712218Y-77407139D01*
X105876086Y-77516632D01*
X106058165Y-77592051D01*
X106251459Y-77630500D01*
X106251461Y-77630500D01*
X106448539Y-77630500D01*
X106448541Y-77630500D01*
X106641835Y-77592051D01*
X106823914Y-77516632D01*
X106987782Y-77407139D01*
X107127139Y-77267782D01*
X107236632Y-77103914D01*
X107312051Y-76921835D01*
X107350500Y-76728541D01*
X107350500Y-76531460D01*
X107889500Y-76531460D01*
X107889500Y-76728539D01*
X107927947Y-76921829D01*
X107927950Y-76921839D01*
X108003367Y-77103913D01*
X108075500Y-77211867D01*
X108112861Y-77267782D01*
X108252218Y-77407139D01*
X108416086Y-77516632D01*
X108598165Y-77592051D01*
X108791459Y-77630500D01*
X108791461Y-77630500D01*
X108988539Y-77630500D01*
X108988541Y-77630500D01*
X109181835Y-77592051D01*
X109363914Y-77516632D01*
X109527782Y-77407139D01*
X109667139Y-77267782D01*
X109776632Y-77103914D01*
X109852051Y-76921835D01*
X109890500Y-76728541D01*
X109890500Y-76531460D01*
X110429500Y-76531460D01*
X110429500Y-76728539D01*
X110467947Y-76921829D01*
X110467950Y-76921839D01*
X110543367Y-77103913D01*
X110615500Y-77211867D01*
X110652861Y-77267782D01*
X110792218Y-77407139D01*
X110956086Y-77516632D01*
X111138165Y-77592051D01*
X111331459Y-77630500D01*
X111331461Y-77630500D01*
X111528539Y-77630500D01*
X111528541Y-77630500D01*
X111721835Y-77592051D01*
X111903914Y-77516632D01*
X112067782Y-77407139D01*
X112207139Y-77267782D01*
X112316632Y-77103914D01*
X112392051Y-76921835D01*
X112430500Y-76728541D01*
X112430500Y-76531460D01*
X112969500Y-76531460D01*
X112969500Y-76728539D01*
X113007947Y-76921829D01*
X113007950Y-76921839D01*
X113083367Y-77103913D01*
X113155500Y-77211867D01*
X113192861Y-77267782D01*
X113332218Y-77407139D01*
X113496086Y-77516632D01*
X113678165Y-77592051D01*
X113871459Y-77630500D01*
X113871461Y-77630500D01*
X114068539Y-77630500D01*
X114068541Y-77630500D01*
X114261835Y-77592051D01*
X114443914Y-77516632D01*
X114607782Y-77407139D01*
X114747139Y-77267782D01*
X114856632Y-77103914D01*
X114932051Y-76921835D01*
X114970500Y-76728541D01*
X114970500Y-76531459D01*
X114932051Y-76338165D01*
X114856632Y-76156086D01*
X114747139Y-75992218D01*
X114607782Y-75852861D01*
X114443914Y-75743368D01*
X114443915Y-75743368D01*
X114443913Y-75743367D01*
X114261839Y-75667950D01*
X114261829Y-75667947D01*
X114132388Y-75642200D01*
X114068541Y-75629500D01*
X113871459Y-75629500D01*
X113816662Y-75640399D01*
X113678170Y-75667947D01*
X113678160Y-75667950D01*
X113496086Y-75743367D01*
X113332218Y-75852860D01*
X113332217Y-75852862D01*
X113192862Y-75992217D01*
X113192860Y-75992218D01*
X113083367Y-76156086D01*
X113007950Y-76338160D01*
X113007947Y-76338170D01*
X112969500Y-76531460D01*
X112430500Y-76531460D01*
X112430500Y-76531459D01*
X112392051Y-76338165D01*
X112316632Y-76156086D01*
X112207139Y-75992218D01*
X112067782Y-75852861D01*
X111903914Y-75743368D01*
X111903915Y-75743368D01*
X111903913Y-75743367D01*
X111721839Y-75667950D01*
X111721829Y-75667947D01*
X111592388Y-75642200D01*
X111528541Y-75629500D01*
X111331459Y-75629500D01*
X111276662Y-75640399D01*
X111138170Y-75667947D01*
X111138160Y-75667950D01*
X110956086Y-75743367D01*
X110792218Y-75852860D01*
X110792217Y-75852862D01*
X110652862Y-75992217D01*
X110652860Y-75992218D01*
X110543367Y-76156086D01*
X110467950Y-76338160D01*
X110467947Y-76338170D01*
X110429500Y-76531460D01*
X109890500Y-76531460D01*
X109890500Y-76531459D01*
X109852051Y-76338165D01*
X109776632Y-76156086D01*
X109667139Y-75992218D01*
X109527782Y-75852861D01*
X109363914Y-75743368D01*
X109363915Y-75743368D01*
X109363913Y-75743367D01*
X109181839Y-75667950D01*
X109181829Y-75667947D01*
X109052388Y-75642200D01*
X108988541Y-75629500D01*
X108791459Y-75629500D01*
X108736662Y-75640399D01*
X108598170Y-75667947D01*
X108598160Y-75667950D01*
X108416086Y-75743367D01*
X108252218Y-75852860D01*
X108252217Y-75852862D01*
X108112862Y-75992217D01*
X108112860Y-75992218D01*
X108003367Y-76156086D01*
X107927950Y-76338160D01*
X107927947Y-76338170D01*
X107889500Y-76531460D01*
X107350500Y-76531460D01*
X107350500Y-76531459D01*
X107312051Y-76338165D01*
X107236632Y-76156086D01*
X107127139Y-75992218D01*
X106987782Y-75852861D01*
X106823914Y-75743368D01*
X106823915Y-75743368D01*
X106823913Y-75743367D01*
X106641839Y-75667950D01*
X106641829Y-75667947D01*
X106512388Y-75642200D01*
X106448541Y-75629500D01*
X106251459Y-75629500D01*
X106196662Y-75640399D01*
X106058170Y-75667947D01*
X106058160Y-75667950D01*
X105876086Y-75743367D01*
X105712218Y-75852860D01*
X105712217Y-75852862D01*
X105572862Y-75992217D01*
X105572860Y-75992218D01*
X105463367Y-76156086D01*
X105387950Y-76338160D01*
X105387947Y-76338170D01*
X105349500Y-76531460D01*
X104810500Y-76531460D01*
X104810500Y-76531459D01*
X104772051Y-76338165D01*
X104696632Y-76156086D01*
X104587139Y-75992218D01*
X104447782Y-75852861D01*
X104283914Y-75743368D01*
X104283915Y-75743368D01*
X104283913Y-75743367D01*
X104101839Y-75667950D01*
X104101829Y-75667947D01*
X103972388Y-75642200D01*
X103908541Y-75629500D01*
X103711459Y-75629500D01*
X103656662Y-75640399D01*
X103518170Y-75667947D01*
X103518160Y-75667950D01*
X103336086Y-75743367D01*
X103172218Y-75852860D01*
X103172217Y-75852862D01*
X103032862Y-75992217D01*
X103032860Y-75992218D01*
X102923367Y-76156086D01*
X102847950Y-76338160D01*
X102847947Y-76338170D01*
X102809500Y-76531460D01*
X102270500Y-76531460D01*
X102270500Y-76531459D01*
X102232051Y-76338165D01*
X102156632Y-76156086D01*
X102047139Y-75992218D01*
X101907782Y-75852861D01*
X101743914Y-75743368D01*
X101743915Y-75743368D01*
X101743913Y-75743367D01*
X101561839Y-75667950D01*
X101561829Y-75667947D01*
X101432388Y-75642200D01*
X101368541Y-75629500D01*
X101171459Y-75629500D01*
X101116662Y-75640399D01*
X100978170Y-75667947D01*
X100978160Y-75667950D01*
X100796086Y-75743367D01*
X100632218Y-75852860D01*
X100632217Y-75852862D01*
X100492862Y-75992217D01*
X100492860Y-75992218D01*
X100383367Y-76156086D01*
X100307950Y-76338160D01*
X100307947Y-76338170D01*
X100269500Y-76531460D01*
X99730500Y-76531460D01*
X99730500Y-76531459D01*
X99692051Y-76338165D01*
X99616632Y-76156086D01*
X99507139Y-75992218D01*
X99367782Y-75852861D01*
X99203914Y-75743368D01*
X99203915Y-75743368D01*
X99203913Y-75743367D01*
X99021839Y-75667950D01*
X99021829Y-75667947D01*
X98892388Y-75642200D01*
X98828541Y-75629500D01*
X98631459Y-75629500D01*
X98576662Y-75640399D01*
X98438170Y-75667947D01*
X98438160Y-75667950D01*
X98256086Y-75743367D01*
X98092218Y-75852860D01*
X98092217Y-75852862D01*
X97952862Y-75992217D01*
X97952860Y-75992218D01*
X97843367Y-76156086D01*
X97767950Y-76338160D01*
X97767947Y-76338170D01*
X97729500Y-76531460D01*
X97190500Y-76531460D01*
X97190500Y-76531459D01*
X97152051Y-76338165D01*
X97076632Y-76156086D01*
X96967139Y-75992218D01*
X96827782Y-75852861D01*
X96663914Y-75743368D01*
X96663915Y-75743368D01*
X96663913Y-75743367D01*
X96481839Y-75667950D01*
X96481829Y-75667947D01*
X96352388Y-75642200D01*
X96288541Y-75629500D01*
X96091459Y-75629500D01*
X96036662Y-75640399D01*
X95898170Y-75667947D01*
X95898160Y-75667950D01*
X95716086Y-75743367D01*
X95552218Y-75852860D01*
X95552217Y-75852862D01*
X95412862Y-75992217D01*
X95412860Y-75992218D01*
X95303367Y-76156086D01*
X95227950Y-76338160D01*
X95227947Y-76338170D01*
X95189500Y-76531460D01*
X94650500Y-76531460D01*
X94650500Y-76531459D01*
X94612051Y-76338165D01*
X94536632Y-76156086D01*
X94427139Y-75992218D01*
X94287782Y-75852861D01*
X94123914Y-75743368D01*
X94123915Y-75743368D01*
X94123913Y-75743367D01*
X93941839Y-75667950D01*
X93941829Y-75667947D01*
X93812388Y-75642200D01*
X93748541Y-75629500D01*
X93551459Y-75629500D01*
X93496662Y-75640399D01*
X93358170Y-75667947D01*
X93358160Y-75667950D01*
X93176086Y-75743367D01*
X93012218Y-75852860D01*
X93012217Y-75852862D01*
X92961826Y-75903253D01*
X92909500Y-75924927D01*
X92857174Y-75903253D01*
X92835500Y-75850927D01*
X92835500Y-73661310D01*
X113829500Y-73661310D01*
X113829500Y-73838689D01*
X113864104Y-74012660D01*
X113864107Y-74012670D01*
X113931985Y-74176544D01*
X113931986Y-74176546D01*
X113931987Y-74176547D01*
X114030536Y-74324035D01*
X114155965Y-74449464D01*
X114303453Y-74548013D01*
X114303454Y-74548013D01*
X114303455Y-74548014D01*
X114373367Y-74576972D01*
X114467334Y-74615894D01*
X114641309Y-74650500D01*
X114641311Y-74650500D01*
X114818689Y-74650500D01*
X114818691Y-74650500D01*
X114992666Y-74615894D01*
X115073033Y-74582605D01*
X115129667Y-74582605D01*
X115153675Y-74598646D01*
X116143256Y-75588227D01*
X116164930Y-75640553D01*
X116143256Y-75692879D01*
X116119249Y-75708920D01*
X116036089Y-75743366D01*
X115872218Y-75852860D01*
X115872217Y-75852862D01*
X115732862Y-75992217D01*
X115732860Y-75992218D01*
X115623367Y-76156086D01*
X115547950Y-76338160D01*
X115547947Y-76338170D01*
X115509500Y-76531460D01*
X115509500Y-76728539D01*
X115547947Y-76921829D01*
X115547950Y-76921839D01*
X115623367Y-77103913D01*
X115695500Y-77211867D01*
X115732861Y-77267782D01*
X115872218Y-77407139D01*
X116036086Y-77516632D01*
X116218165Y-77592051D01*
X116411459Y-77630500D01*
X116411461Y-77630500D01*
X116608539Y-77630500D01*
X116608541Y-77630500D01*
X116801835Y-77592051D01*
X116983914Y-77516632D01*
X117147782Y-77407139D01*
X117287139Y-77267782D01*
X117396632Y-77103914D01*
X117472051Y-76921835D01*
X117510500Y-76728541D01*
X117510500Y-76531460D01*
X118049500Y-76531460D01*
X118049500Y-76728539D01*
X118087947Y-76921829D01*
X118087950Y-76921839D01*
X118163367Y-77103913D01*
X118235500Y-77211867D01*
X118272861Y-77267782D01*
X118412218Y-77407139D01*
X118576086Y-77516632D01*
X118758165Y-77592051D01*
X118951459Y-77630500D01*
X118951461Y-77630500D01*
X119148539Y-77630500D01*
X119148541Y-77630500D01*
X119341835Y-77592051D01*
X119523914Y-77516632D01*
X119687782Y-77407139D01*
X119827139Y-77267782D01*
X119936632Y-77103914D01*
X120012051Y-76921835D01*
X120050500Y-76728541D01*
X120050500Y-76531459D01*
X120012051Y-76338165D01*
X119936632Y-76156086D01*
X119827139Y-75992218D01*
X119687782Y-75852861D01*
X119523914Y-75743368D01*
X119523911Y-75743366D01*
X119523910Y-75743366D01*
X119396181Y-75690459D01*
X119385773Y-75680050D01*
X119372174Y-75674418D01*
X119366540Y-75660817D01*
X119356133Y-75650410D01*
X119350500Y-75622092D01*
X119350500Y-75585122D01*
X119372173Y-75532797D01*
X120306324Y-74598645D01*
X120358649Y-74576972D01*
X120386964Y-74582604D01*
X120467334Y-74615894D01*
X120641309Y-74650500D01*
X120641311Y-74650500D01*
X120818689Y-74650500D01*
X120818691Y-74650500D01*
X120992666Y-74615894D01*
X121156547Y-74548013D01*
X121304035Y-74449464D01*
X121429464Y-74324035D01*
X121528013Y-74176547D01*
X121595894Y-74012666D01*
X121630500Y-73838691D01*
X121630500Y-73661309D01*
X121595894Y-73487334D01*
X121528013Y-73323453D01*
X121429464Y-73175965D01*
X121304035Y-73050536D01*
X121156547Y-72951987D01*
X121156546Y-72951986D01*
X121156544Y-72951985D01*
X120992670Y-72884107D01*
X120992660Y-72884104D01*
X120876156Y-72860930D01*
X120818691Y-72849500D01*
X120641309Y-72849500D01*
X120591989Y-72859310D01*
X120467339Y-72884104D01*
X120467329Y-72884107D01*
X120303455Y-72951985D01*
X120155968Y-73050533D01*
X120030533Y-73175968D01*
X119931985Y-73323455D01*
X119864107Y-73487329D01*
X119864104Y-73487339D01*
X119829500Y-73661310D01*
X119829500Y-73838689D01*
X119864104Y-74012660D01*
X119864105Y-74012662D01*
X119864106Y-74012666D01*
X119864108Y-74012670D01*
X119897394Y-74093032D01*
X119897393Y-74149669D01*
X119881352Y-74173675D01*
X118865489Y-75189540D01*
X118809540Y-75245488D01*
X118769979Y-75314009D01*
X118769977Y-75314014D01*
X118749500Y-75390435D01*
X118749500Y-75622092D01*
X118727826Y-75674418D01*
X118703819Y-75690459D01*
X118576089Y-75743366D01*
X118412218Y-75852860D01*
X118412217Y-75852862D01*
X118272862Y-75992217D01*
X118272860Y-75992218D01*
X118163367Y-76156086D01*
X118087950Y-76338160D01*
X118087947Y-76338170D01*
X118049500Y-76531460D01*
X117510500Y-76531460D01*
X117510500Y-76531459D01*
X117472051Y-76338165D01*
X117396632Y-76156086D01*
X117287139Y-75992218D01*
X117147782Y-75852861D01*
X116983914Y-75743368D01*
X116983911Y-75743366D01*
X116983910Y-75743366D01*
X116856181Y-75690459D01*
X116816133Y-75650410D01*
X116810500Y-75622092D01*
X116810500Y-75490436D01*
X116810499Y-75490435D01*
X116790022Y-75414014D01*
X116790020Y-75414009D01*
X116750459Y-75345488D01*
X115578646Y-74173675D01*
X115556972Y-74121349D01*
X115562603Y-74093036D01*
X115595894Y-74012666D01*
X115630500Y-73838691D01*
X115630500Y-73661309D01*
X115595894Y-73487334D01*
X115528013Y-73323453D01*
X115429464Y-73175965D01*
X115304035Y-73050536D01*
X115156547Y-72951987D01*
X115156546Y-72951986D01*
X115156544Y-72951985D01*
X114992670Y-72884107D01*
X114992660Y-72884104D01*
X114876156Y-72860930D01*
X114818691Y-72849500D01*
X114641309Y-72849500D01*
X114591989Y-72859310D01*
X114467339Y-72884104D01*
X114467329Y-72884107D01*
X114303455Y-72951985D01*
X114155968Y-73050533D01*
X114030533Y-73175968D01*
X113931985Y-73323455D01*
X113864107Y-73487329D01*
X113864104Y-73487339D01*
X113829500Y-73661310D01*
X92835500Y-73661310D01*
X92835500Y-69711460D01*
X105729500Y-69711460D01*
X105729500Y-69908539D01*
X105767947Y-70101829D01*
X105767950Y-70101839D01*
X105843367Y-70283913D01*
X105884267Y-70345123D01*
X105952861Y-70447782D01*
X106092218Y-70587139D01*
X106256086Y-70696632D01*
X106438165Y-70772051D01*
X106631459Y-70810500D01*
X106631461Y-70810500D01*
X106828539Y-70810500D01*
X106828541Y-70810500D01*
X107021835Y-70772051D01*
X107203914Y-70696632D01*
X107367782Y-70587139D01*
X107507139Y-70447782D01*
X107616632Y-70283914D01*
X107692051Y-70101835D01*
X107730500Y-69908541D01*
X107730500Y-69711460D01*
X108269500Y-69711460D01*
X108269500Y-69908539D01*
X108307947Y-70101829D01*
X108307950Y-70101839D01*
X108383367Y-70283913D01*
X108424267Y-70345123D01*
X108492861Y-70447782D01*
X108632218Y-70587139D01*
X108796086Y-70696632D01*
X108978165Y-70772051D01*
X109171459Y-70810500D01*
X109171461Y-70810500D01*
X109368539Y-70810500D01*
X109368541Y-70810500D01*
X109561835Y-70772051D01*
X109743914Y-70696632D01*
X109907782Y-70587139D01*
X110047139Y-70447782D01*
X110156632Y-70283914D01*
X110232051Y-70101835D01*
X110270500Y-69908541D01*
X110270500Y-69711460D01*
X110809500Y-69711460D01*
X110809500Y-69908539D01*
X110847947Y-70101829D01*
X110847950Y-70101839D01*
X110923367Y-70283913D01*
X110964267Y-70345123D01*
X111032861Y-70447782D01*
X111172218Y-70587139D01*
X111336086Y-70696632D01*
X111518165Y-70772051D01*
X111711459Y-70810500D01*
X111711461Y-70810500D01*
X111908539Y-70810500D01*
X111908541Y-70810500D01*
X112101835Y-70772051D01*
X112283914Y-70696632D01*
X112447782Y-70587139D01*
X112587139Y-70447782D01*
X112696632Y-70283914D01*
X112772051Y-70101835D01*
X112810500Y-69908541D01*
X112810500Y-69711459D01*
X112772051Y-69518165D01*
X112696632Y-69336086D01*
X112587139Y-69172218D01*
X112447782Y-69032861D01*
X112283914Y-68923368D01*
X112283915Y-68923368D01*
X112283913Y-68923367D01*
X112101839Y-68847950D01*
X112101829Y-68847947D01*
X111972388Y-68822200D01*
X111908541Y-68809500D01*
X111711459Y-68809500D01*
X111656662Y-68820399D01*
X111518170Y-68847947D01*
X111518160Y-68847950D01*
X111336086Y-68923367D01*
X111172218Y-69032860D01*
X111172217Y-69032862D01*
X111032862Y-69172217D01*
X111032860Y-69172218D01*
X110923367Y-69336086D01*
X110847950Y-69518160D01*
X110847947Y-69518170D01*
X110809500Y-69711460D01*
X110270500Y-69711460D01*
X110270500Y-69711459D01*
X110232051Y-69518165D01*
X110156632Y-69336086D01*
X110047139Y-69172218D01*
X109907782Y-69032861D01*
X109743914Y-68923368D01*
X109743915Y-68923368D01*
X109743913Y-68923367D01*
X109561839Y-68847950D01*
X109561829Y-68847947D01*
X109432388Y-68822200D01*
X109368541Y-68809500D01*
X109171459Y-68809500D01*
X109116662Y-68820399D01*
X108978170Y-68847947D01*
X108978160Y-68847950D01*
X108796086Y-68923367D01*
X108632218Y-69032860D01*
X108632217Y-69032862D01*
X108492862Y-69172217D01*
X108492860Y-69172218D01*
X108383367Y-69336086D01*
X108307950Y-69518160D01*
X108307947Y-69518170D01*
X108269500Y-69711460D01*
X107730500Y-69711460D01*
X107730500Y-69711459D01*
X107692051Y-69518165D01*
X107616632Y-69336086D01*
X107507139Y-69172218D01*
X107367782Y-69032861D01*
X107203914Y-68923368D01*
X107203915Y-68923368D01*
X107203913Y-68923367D01*
X107021839Y-68847950D01*
X107021829Y-68847947D01*
X106892388Y-68822200D01*
X106828541Y-68809500D01*
X106631459Y-68809500D01*
X106576662Y-68820399D01*
X106438170Y-68847947D01*
X106438160Y-68847950D01*
X106256086Y-68923367D01*
X106092218Y-69032860D01*
X106092217Y-69032862D01*
X105952862Y-69172217D01*
X105952860Y-69172218D01*
X105843367Y-69336086D01*
X105767950Y-69518160D01*
X105767947Y-69518170D01*
X105729500Y-69711460D01*
X92835500Y-69711460D01*
X92835500Y-68244500D01*
X92857174Y-68192174D01*
X92909500Y-68170500D01*
X93088689Y-68170500D01*
X93088691Y-68170500D01*
X93262666Y-68135894D01*
X93426547Y-68068013D01*
X93574035Y-67969464D01*
X93699464Y-67844035D01*
X93798013Y-67696547D01*
X93865894Y-67532666D01*
X93900500Y-67358691D01*
X93900500Y-67181310D01*
X97099500Y-67181310D01*
X97099500Y-67358689D01*
X97134104Y-67532660D01*
X97134107Y-67532670D01*
X97201985Y-67696544D01*
X97201986Y-67696546D01*
X97201987Y-67696547D01*
X97300536Y-67844035D01*
X97425965Y-67969464D01*
X97573453Y-68068013D01*
X97737334Y-68135894D01*
X97911309Y-68170500D01*
X97911311Y-68170500D01*
X98088689Y-68170500D01*
X98088691Y-68170500D01*
X98262666Y-68135894D01*
X98426547Y-68068013D01*
X98574035Y-67969464D01*
X98699464Y-67844035D01*
X98798013Y-67696547D01*
X98865894Y-67532666D01*
X98900500Y-67358691D01*
X98900500Y-67181309D01*
X98865894Y-67007334D01*
X98798013Y-66843453D01*
X98699464Y-66695965D01*
X98574035Y-66570536D01*
X98426547Y-66471987D01*
X98426546Y-66471986D01*
X98426544Y-66471985D01*
X98262670Y-66404107D01*
X98262660Y-66404104D01*
X98146156Y-66380930D01*
X98088691Y-66369500D01*
X97911309Y-66369500D01*
X97861989Y-66379310D01*
X97737339Y-66404104D01*
X97737329Y-66404107D01*
X97573455Y-66471985D01*
X97425968Y-66570533D01*
X97300533Y-66695968D01*
X97201985Y-66843455D01*
X97134107Y-67007329D01*
X97134104Y-67007339D01*
X97099500Y-67181310D01*
X93900500Y-67181310D01*
X93900500Y-67181309D01*
X93865894Y-67007334D01*
X93798013Y-66843453D01*
X93699464Y-66695965D01*
X93574035Y-66570536D01*
X93426547Y-66471987D01*
X93426546Y-66471986D01*
X93426544Y-66471985D01*
X93262670Y-66404107D01*
X93262660Y-66404104D01*
X93146156Y-66380930D01*
X93088691Y-66369500D01*
X92911309Y-66369500D01*
X92861989Y-66379310D01*
X92737339Y-66404104D01*
X92737329Y-66404107D01*
X92573455Y-66471985D01*
X92425968Y-66570533D01*
X92300533Y-66695968D01*
X92201985Y-66843455D01*
X92134107Y-67007329D01*
X92134104Y-67007339D01*
X92099500Y-67181310D01*
X92099500Y-67358689D01*
X92134104Y-67532660D01*
X92134107Y-67532670D01*
X92201985Y-67696543D01*
X92201987Y-67696547D01*
X92222028Y-67726541D01*
X92234500Y-67767652D01*
X92234500Y-76403516D01*
X92212826Y-76455842D01*
X92160500Y-76477516D01*
X92108174Y-76455842D01*
X92087922Y-76417953D01*
X92072052Y-76338170D01*
X92072051Y-76338169D01*
X92072051Y-76338165D01*
X91996632Y-76156086D01*
X91887139Y-75992218D01*
X91747782Y-75852861D01*
X91583914Y-75743368D01*
X91583915Y-75743368D01*
X91583913Y-75743367D01*
X91401839Y-75667950D01*
X91401829Y-75667947D01*
X91272388Y-75642200D01*
X91208541Y-75629500D01*
X91011459Y-75629500D01*
X90956662Y-75640399D01*
X90818170Y-75667947D01*
X90818160Y-75667950D01*
X90636086Y-75743367D01*
X90472218Y-75852860D01*
X90472217Y-75852862D01*
X90332862Y-75992217D01*
X90332860Y-75992218D01*
X90223367Y-76156086D01*
X90147950Y-76338160D01*
X90147947Y-76338170D01*
X90109500Y-76531460D01*
X89570500Y-76531460D01*
X89570500Y-76531459D01*
X89532051Y-76338165D01*
X89456632Y-76156086D01*
X89347139Y-75992218D01*
X89207782Y-75852861D01*
X89043914Y-75743368D01*
X89043915Y-75743368D01*
X89043913Y-75743367D01*
X88861839Y-75667950D01*
X88861829Y-75667947D01*
X88732388Y-75642200D01*
X88668541Y-75629500D01*
X88471459Y-75629500D01*
X88416662Y-75640399D01*
X88278170Y-75667947D01*
X88278160Y-75667950D01*
X88096086Y-75743367D01*
X87932218Y-75852860D01*
X87932217Y-75852862D01*
X87792862Y-75992217D01*
X87792860Y-75992218D01*
X87683367Y-76156086D01*
X87607950Y-76338160D01*
X87607947Y-76338170D01*
X87569500Y-76531460D01*
X87030500Y-76531460D01*
X87030500Y-76531459D01*
X86992051Y-76338165D01*
X86916632Y-76156086D01*
X86807139Y-75992218D01*
X86667782Y-75852861D01*
X86503914Y-75743368D01*
X86503915Y-75743368D01*
X86503913Y-75743367D01*
X86321839Y-75667950D01*
X86321829Y-75667947D01*
X86192388Y-75642200D01*
X86128541Y-75629500D01*
X85931459Y-75629500D01*
X85876662Y-75640399D01*
X85738170Y-75667947D01*
X85738160Y-75667950D01*
X85556086Y-75743367D01*
X85392218Y-75852860D01*
X85392217Y-75852862D01*
X85252862Y-75992217D01*
X85252860Y-75992218D01*
X85143367Y-76156086D01*
X85067950Y-76338160D01*
X85067947Y-76338170D01*
X85029500Y-76531460D01*
X84490500Y-76531460D01*
X84490500Y-76531459D01*
X84452051Y-76338165D01*
X84376632Y-76156086D01*
X84267139Y-75992218D01*
X84127782Y-75852861D01*
X83963914Y-75743368D01*
X83963915Y-75743368D01*
X83963913Y-75743367D01*
X83781839Y-75667950D01*
X83781829Y-75667947D01*
X83652388Y-75642200D01*
X83588541Y-75629500D01*
X83391459Y-75629500D01*
X83336662Y-75640399D01*
X83198170Y-75667947D01*
X83198160Y-75667950D01*
X83016086Y-75743367D01*
X82852218Y-75852860D01*
X82852217Y-75852862D01*
X82712862Y-75992217D01*
X82712860Y-75992218D01*
X82603367Y-76156086D01*
X82527950Y-76338160D01*
X82527947Y-76338170D01*
X82489500Y-76531460D01*
X81950500Y-76531460D01*
X81950500Y-76531459D01*
X81912051Y-76338165D01*
X81836632Y-76156086D01*
X81727139Y-75992218D01*
X81587782Y-75852861D01*
X81423914Y-75743368D01*
X81423915Y-75743368D01*
X81423913Y-75743367D01*
X81241839Y-75667950D01*
X81241829Y-75667947D01*
X81112388Y-75642200D01*
X81048541Y-75629500D01*
X80851459Y-75629500D01*
X80796662Y-75640399D01*
X80658170Y-75667947D01*
X80658160Y-75667950D01*
X80476086Y-75743367D01*
X80312218Y-75852860D01*
X80312217Y-75852862D01*
X80172862Y-75992217D01*
X80172860Y-75992218D01*
X80063367Y-76156086D01*
X79987950Y-76338160D01*
X79987947Y-76338170D01*
X79949500Y-76531460D01*
X79410500Y-76531460D01*
X79410500Y-76531459D01*
X79372051Y-76338165D01*
X79296632Y-76156086D01*
X79187139Y-75992218D01*
X79047782Y-75852861D01*
X78883914Y-75743368D01*
X78883915Y-75743368D01*
X78883913Y-75743367D01*
X78701839Y-75667950D01*
X78701829Y-75667947D01*
X78572388Y-75642200D01*
X78508541Y-75629500D01*
X78311459Y-75629500D01*
X78256662Y-75640399D01*
X78118170Y-75667947D01*
X78118160Y-75667950D01*
X77936086Y-75743367D01*
X77772218Y-75852860D01*
X77772217Y-75852862D01*
X77632862Y-75992217D01*
X77632860Y-75992218D01*
X77523367Y-76156086D01*
X77447950Y-76338160D01*
X77447947Y-76338170D01*
X77409500Y-76531460D01*
X76870500Y-76531460D01*
X76870500Y-76531459D01*
X76832051Y-76338165D01*
X76756632Y-76156086D01*
X76647139Y-75992218D01*
X76507782Y-75852861D01*
X76343914Y-75743368D01*
X76343915Y-75743368D01*
X76343913Y-75743367D01*
X76161839Y-75667950D01*
X76161829Y-75667947D01*
X76032388Y-75642200D01*
X75968541Y-75629500D01*
X75771459Y-75629500D01*
X75716662Y-75640399D01*
X75578170Y-75667947D01*
X75578160Y-75667950D01*
X75396086Y-75743367D01*
X75232218Y-75852860D01*
X75232217Y-75852862D01*
X75092862Y-75992217D01*
X75092860Y-75992218D01*
X74983367Y-76156086D01*
X74907950Y-76338160D01*
X74907947Y-76338170D01*
X74869500Y-76531460D01*
X68200000Y-76531460D01*
X68200000Y-64641310D01*
X97099500Y-64641310D01*
X97099500Y-64818689D01*
X97134104Y-64992660D01*
X97134107Y-64992670D01*
X97201985Y-65156544D01*
X97201986Y-65156546D01*
X97201987Y-65156547D01*
X97300536Y-65304035D01*
X97425965Y-65429464D01*
X97573453Y-65528013D01*
X97573454Y-65528013D01*
X97573455Y-65528014D01*
X97656966Y-65562605D01*
X97737334Y-65595894D01*
X97911309Y-65630500D01*
X97911311Y-65630500D01*
X98088689Y-65630500D01*
X98088691Y-65630500D01*
X98262666Y-65595894D01*
X98426547Y-65528013D01*
X98574035Y-65429464D01*
X98699464Y-65304035D01*
X98798013Y-65156547D01*
X98865894Y-64992666D01*
X98900500Y-64818691D01*
X98900500Y-64641309D01*
X98865894Y-64467334D01*
X98798013Y-64303453D01*
X98699464Y-64155965D01*
X98574035Y-64030536D01*
X98426547Y-63931987D01*
X98426546Y-63931986D01*
X98426544Y-63931985D01*
X98262670Y-63864107D01*
X98262660Y-63864104D01*
X98146156Y-63840930D01*
X98088691Y-63829500D01*
X97911309Y-63829500D01*
X97861989Y-63839310D01*
X97737339Y-63864104D01*
X97737329Y-63864107D01*
X97573455Y-63931985D01*
X97425968Y-64030533D01*
X97300533Y-64155968D01*
X97201985Y-64303455D01*
X97134107Y-64467329D01*
X97134104Y-64467339D01*
X97099500Y-64641310D01*
X68200000Y-64641310D01*
X68200000Y-62091460D01*
X108269500Y-62091460D01*
X108269500Y-62288539D01*
X108307947Y-62481829D01*
X108307950Y-62481839D01*
X108383367Y-62663913D01*
X108400940Y-62690212D01*
X108492861Y-62827782D01*
X108632218Y-62967139D01*
X108796086Y-63076632D01*
X108978165Y-63152051D01*
X109171459Y-63190500D01*
X109171461Y-63190500D01*
X109368539Y-63190500D01*
X109368541Y-63190500D01*
X109561835Y-63152051D01*
X109689568Y-63099142D01*
X109746204Y-63099142D01*
X109770212Y-63115183D01*
X116947826Y-70292797D01*
X116969500Y-70345123D01*
X116969500Y-72850331D01*
X116947826Y-72902657D01*
X116923819Y-72918698D01*
X116843453Y-72951986D01*
X116695968Y-73050533D01*
X116570533Y-73175968D01*
X116471985Y-73323455D01*
X116404107Y-73487329D01*
X116404104Y-73487339D01*
X116369500Y-73661310D01*
X116369500Y-73838689D01*
X116404104Y-74012660D01*
X116404107Y-74012670D01*
X116471985Y-74176544D01*
X116471986Y-74176546D01*
X116471987Y-74176547D01*
X116570536Y-74324035D01*
X116695965Y-74449464D01*
X116843453Y-74548013D01*
X116843454Y-74548013D01*
X116843455Y-74548014D01*
X116913367Y-74576972D01*
X117007334Y-74615894D01*
X117181309Y-74650500D01*
X117181311Y-74650500D01*
X117358689Y-74650500D01*
X117358691Y-74650500D01*
X117532666Y-74615894D01*
X117696547Y-74548013D01*
X117844035Y-74449464D01*
X117969464Y-74324035D01*
X118068013Y-74176547D01*
X118135894Y-74012666D01*
X118170500Y-73838691D01*
X118170500Y-73661309D01*
X118135894Y-73487334D01*
X118068013Y-73323453D01*
X117969464Y-73175965D01*
X117844035Y-73050536D01*
X117696547Y-72951987D01*
X117696548Y-72951987D01*
X117696546Y-72951986D01*
X117616181Y-72918698D01*
X117576133Y-72878649D01*
X117570500Y-72850331D01*
X117570500Y-70150436D01*
X117570499Y-70150435D01*
X117550022Y-70074014D01*
X117550020Y-70074009D01*
X117510459Y-70005488D01*
X114686281Y-67181310D01*
X117099500Y-67181310D01*
X117099500Y-67358689D01*
X117134104Y-67532660D01*
X117134107Y-67532670D01*
X117201985Y-67696544D01*
X117201986Y-67696546D01*
X117201987Y-67696547D01*
X117300536Y-67844035D01*
X117425965Y-67969464D01*
X117573453Y-68068013D01*
X117737334Y-68135894D01*
X117911309Y-68170500D01*
X117911311Y-68170500D01*
X118088689Y-68170500D01*
X118088691Y-68170500D01*
X118262666Y-68135894D01*
X118426547Y-68068013D01*
X118574035Y-67969464D01*
X118699464Y-67844035D01*
X118798013Y-67696547D01*
X118865894Y-67532666D01*
X118900500Y-67358691D01*
X118900500Y-67181310D01*
X122099500Y-67181310D01*
X122099500Y-67358689D01*
X122134104Y-67532660D01*
X122134107Y-67532670D01*
X122201985Y-67696544D01*
X122201986Y-67696546D01*
X122201987Y-67696547D01*
X122300536Y-67844035D01*
X122425965Y-67969464D01*
X122573453Y-68068013D01*
X122737334Y-68135894D01*
X122911309Y-68170500D01*
X122911311Y-68170500D01*
X123088689Y-68170500D01*
X123088691Y-68170500D01*
X123262666Y-68135894D01*
X123426547Y-68068013D01*
X123574035Y-67969464D01*
X123699464Y-67844035D01*
X123798013Y-67696547D01*
X123865894Y-67532666D01*
X123900500Y-67358691D01*
X123900500Y-67181309D01*
X123865894Y-67007334D01*
X123798013Y-66843453D01*
X123699464Y-66695965D01*
X123574035Y-66570536D01*
X123426547Y-66471987D01*
X123426546Y-66471986D01*
X123426544Y-66471985D01*
X123262670Y-66404107D01*
X123262660Y-66404104D01*
X123146156Y-66380930D01*
X123088691Y-66369500D01*
X122911309Y-66369500D01*
X122861989Y-66379310D01*
X122737339Y-66404104D01*
X122737329Y-66404107D01*
X122573455Y-66471985D01*
X122425968Y-66570533D01*
X122300533Y-66695968D01*
X122201985Y-66843455D01*
X122134107Y-67007329D01*
X122134104Y-67007339D01*
X122099500Y-67181310D01*
X118900500Y-67181310D01*
X118900500Y-67181309D01*
X118865894Y-67007334D01*
X118798013Y-66843453D01*
X118699464Y-66695965D01*
X118574035Y-66570536D01*
X118426547Y-66471987D01*
X118426546Y-66471986D01*
X118426544Y-66471985D01*
X118262670Y-66404107D01*
X118262660Y-66404104D01*
X118146156Y-66380930D01*
X118088691Y-66369500D01*
X117911309Y-66369500D01*
X117861989Y-66379310D01*
X117737339Y-66404104D01*
X117737329Y-66404107D01*
X117573455Y-66471985D01*
X117425968Y-66570533D01*
X117300533Y-66695968D01*
X117201985Y-66843455D01*
X117134107Y-67007329D01*
X117134104Y-67007339D01*
X117099500Y-67181310D01*
X114686281Y-67181310D01*
X112146281Y-64641310D01*
X117099500Y-64641310D01*
X117099500Y-64818689D01*
X117134104Y-64992660D01*
X117134107Y-64992670D01*
X117201985Y-65156544D01*
X117201986Y-65156546D01*
X117201987Y-65156547D01*
X117300536Y-65304035D01*
X117425965Y-65429464D01*
X117573453Y-65528013D01*
X117573454Y-65528013D01*
X117573455Y-65528014D01*
X117656966Y-65562605D01*
X117737334Y-65595894D01*
X117911309Y-65630500D01*
X117911311Y-65630500D01*
X118088689Y-65630500D01*
X118088691Y-65630500D01*
X118262666Y-65595894D01*
X118426547Y-65528013D01*
X118574035Y-65429464D01*
X118699464Y-65304035D01*
X118798013Y-65156547D01*
X118865894Y-64992666D01*
X118900500Y-64818691D01*
X118900500Y-64641309D01*
X118865894Y-64467334D01*
X118798013Y-64303453D01*
X118699464Y-64155965D01*
X118574035Y-64030536D01*
X118426547Y-63931987D01*
X118426546Y-63931986D01*
X118426544Y-63931985D01*
X118262670Y-63864107D01*
X118262660Y-63864104D01*
X118146156Y-63840930D01*
X118088691Y-63829500D01*
X117911309Y-63829500D01*
X117861989Y-63839310D01*
X117737339Y-63864104D01*
X117737329Y-63864107D01*
X117573455Y-63931985D01*
X117425968Y-64030533D01*
X117300533Y-64155968D01*
X117201985Y-64303455D01*
X117134107Y-64467329D01*
X117134104Y-64467339D01*
X117099500Y-64641310D01*
X112146281Y-64641310D01*
X110821297Y-63316326D01*
X110799623Y-63264000D01*
X110821297Y-63211674D01*
X110873623Y-63190000D01*
X110981536Y-63190000D01*
X110988783Y-63190356D01*
X110990246Y-63190500D01*
X110990252Y-63190500D01*
X112629754Y-63190500D01*
X112631217Y-63190356D01*
X112638464Y-63190000D01*
X112810000Y-63190000D01*
X112810000Y-63018459D01*
X112810357Y-63011203D01*
X112810500Y-63009751D01*
X112810500Y-61370246D01*
X112810356Y-61368783D01*
X112810000Y-61361536D01*
X112810000Y-61190000D01*
X112638464Y-61190000D01*
X112631217Y-61189644D01*
X112629754Y-61189500D01*
X112629748Y-61189500D01*
X110990252Y-61189500D01*
X110990246Y-61189500D01*
X110988783Y-61189644D01*
X110981536Y-61190000D01*
X110810000Y-61190000D01*
X110810000Y-61361536D01*
X110809644Y-61368783D01*
X110809500Y-61370246D01*
X110809500Y-63009751D01*
X110809643Y-63011203D01*
X110810000Y-63018459D01*
X110810000Y-63126377D01*
X110788326Y-63178703D01*
X110736000Y-63200377D01*
X110683674Y-63178703D01*
X110195183Y-62690212D01*
X110173509Y-62637886D01*
X110179142Y-62609567D01*
X110232051Y-62481835D01*
X110270500Y-62288541D01*
X110270500Y-62091459D01*
X110232051Y-61898165D01*
X110156632Y-61716086D01*
X110047139Y-61552218D01*
X109907782Y-61412861D01*
X109844014Y-61370252D01*
X109743913Y-61303367D01*
X109561839Y-61227950D01*
X109561829Y-61227947D01*
X109427023Y-61201133D01*
X109368541Y-61189500D01*
X109171459Y-61189500D01*
X109116662Y-61200399D01*
X108978170Y-61227947D01*
X108978160Y-61227950D01*
X108796086Y-61303367D01*
X108632218Y-61412860D01*
X108632217Y-61412862D01*
X108492862Y-61552217D01*
X108492860Y-61552218D01*
X108383367Y-61716086D01*
X108307950Y-61898160D01*
X108307947Y-61898170D01*
X108269500Y-62091460D01*
X68200000Y-62091460D01*
X68200000Y-60274000D01*
X68221674Y-60221674D01*
X68274000Y-60200000D01*
X131726000Y-60200000D01*
X131778326Y-60221674D01*
G37*
%TD.AperFunction*%
%TA.AperFunction,Conductor*%
G36*
X115088326Y-131459597D02*
G01*
X115110000Y-131511923D01*
X115110000Y-139726000D01*
X115088326Y-139778326D01*
X115036000Y-139800000D01*
X112704500Y-139800000D01*
X112652174Y-139778326D01*
X112630500Y-139726000D01*
X112630500Y-133062800D01*
X112652174Y-133010474D01*
X112704500Y-132988800D01*
X113369564Y-132988800D01*
X113369564Y-132988799D01*
X113445989Y-132968321D01*
X113514511Y-132928760D01*
X113570460Y-132872811D01*
X114983674Y-131459597D01*
X115036000Y-131437923D01*
X115088326Y-131459597D01*
G37*
%TD.AperFunction*%
%TA.AperFunction,Conductor*%
G36*
X83666612Y-98972309D02*
G01*
X83698078Y-99019401D01*
X83699500Y-99033838D01*
X83699500Y-104829564D01*
X83719977Y-104905985D01*
X83719979Y-104905990D01*
X83759540Y-104974511D01*
X84344816Y-105559787D01*
X84366490Y-105612113D01*
X84360857Y-105640431D01*
X84307950Y-105768160D01*
X84307947Y-105768170D01*
X84269500Y-105961460D01*
X84269500Y-106158539D01*
X84307947Y-106351829D01*
X84307950Y-106351839D01*
X84383367Y-106533913D01*
X84457266Y-106644510D01*
X84492861Y-106697782D01*
X84632218Y-106837139D01*
X84796086Y-106946632D01*
X84978165Y-107022051D01*
X85171459Y-107060500D01*
X85171461Y-107060500D01*
X85368539Y-107060500D01*
X85368541Y-107060500D01*
X85561835Y-107022051D01*
X85743914Y-106946632D01*
X85907782Y-106837139D01*
X85968374Y-106776547D01*
X86020700Y-106754873D01*
X86073026Y-106776547D01*
X86094700Y-106828873D01*
X86094700Y-106915877D01*
X86073026Y-106968203D01*
X84648740Y-108392488D01*
X84609179Y-108461009D01*
X84609177Y-108461014D01*
X84588700Y-108537435D01*
X84588700Y-122757677D01*
X84567026Y-122810003D01*
X80709540Y-126667488D01*
X80669979Y-126736009D01*
X80669977Y-126736014D01*
X80649500Y-126812435D01*
X80649500Y-132715500D01*
X80627826Y-132767826D01*
X80575500Y-132789500D01*
X79930246Y-132789500D01*
X79928783Y-132789644D01*
X79921536Y-132790000D01*
X79750000Y-132790000D01*
X79732326Y-132807674D01*
X79680000Y-132829348D01*
X79627674Y-132807674D01*
X79610000Y-132790000D01*
X79438464Y-132790000D01*
X79431217Y-132789644D01*
X79429754Y-132789500D01*
X79429748Y-132789500D01*
X78912423Y-132789500D01*
X78860097Y-132767826D01*
X78838423Y-132715500D01*
X78860097Y-132663174D01*
X78929205Y-132594066D01*
X79010460Y-132512811D01*
X79026162Y-132485614D01*
X79050021Y-132444289D01*
X79070499Y-132367864D01*
X79070500Y-132367864D01*
X79070500Y-106311620D01*
X79092174Y-106259294D01*
X79144500Y-106237620D01*
X79196826Y-106259294D01*
X79217078Y-106297183D01*
X79227947Y-106351829D01*
X79227950Y-106351839D01*
X79303367Y-106533913D01*
X79377266Y-106644510D01*
X79412861Y-106697782D01*
X79552218Y-106837139D01*
X79716086Y-106946632D01*
X79898165Y-107022051D01*
X80091459Y-107060500D01*
X80091461Y-107060500D01*
X80288539Y-107060500D01*
X80288541Y-107060500D01*
X80481835Y-107022051D01*
X80663914Y-106946632D01*
X80827782Y-106837139D01*
X80967139Y-106697782D01*
X81076632Y-106533914D01*
X81152051Y-106351835D01*
X81190500Y-106158541D01*
X81190500Y-105961460D01*
X81729500Y-105961460D01*
X81729500Y-106158539D01*
X81767947Y-106351829D01*
X81767950Y-106351839D01*
X81843367Y-106533913D01*
X81917266Y-106644510D01*
X81952861Y-106697782D01*
X82092218Y-106837139D01*
X82256086Y-106946632D01*
X82438165Y-107022051D01*
X82631459Y-107060500D01*
X82631461Y-107060500D01*
X82828539Y-107060500D01*
X82828541Y-107060500D01*
X83021835Y-107022051D01*
X83203914Y-106946632D01*
X83367782Y-106837139D01*
X83507139Y-106697782D01*
X83616632Y-106533914D01*
X83692051Y-106351835D01*
X83730500Y-106158541D01*
X83730500Y-105961459D01*
X83692051Y-105768165D01*
X83616632Y-105586086D01*
X83507139Y-105422218D01*
X83367782Y-105282861D01*
X83367780Y-105282859D01*
X83203913Y-105173367D01*
X83021839Y-105097950D01*
X83021829Y-105097947D01*
X82892388Y-105072200D01*
X82828541Y-105059500D01*
X82631459Y-105059500D01*
X82576662Y-105070399D01*
X82438170Y-105097947D01*
X82438160Y-105097950D01*
X82256086Y-105173367D01*
X82092218Y-105282860D01*
X82092217Y-105282862D01*
X81952862Y-105422217D01*
X81952860Y-105422218D01*
X81843367Y-105586086D01*
X81767950Y-105768160D01*
X81767947Y-105768170D01*
X81729500Y-105961460D01*
X81190500Y-105961460D01*
X81190500Y-105961459D01*
X81152051Y-105768165D01*
X81076632Y-105586086D01*
X80967139Y-105422218D01*
X80827782Y-105282861D01*
X80827780Y-105282859D01*
X80663913Y-105173367D01*
X80481839Y-105097950D01*
X80481829Y-105097947D01*
X80352388Y-105072200D01*
X80288541Y-105059500D01*
X80091459Y-105059500D01*
X80036662Y-105070399D01*
X79898170Y-105097947D01*
X79898160Y-105097950D01*
X79716086Y-105173367D01*
X79552218Y-105282860D01*
X79552217Y-105282862D01*
X79412862Y-105422217D01*
X79412860Y-105422218D01*
X79303367Y-105586086D01*
X79227950Y-105768160D01*
X79227947Y-105768170D01*
X79217078Y-105822816D01*
X79185612Y-105869908D01*
X79130063Y-105880957D01*
X79082971Y-105849491D01*
X79070500Y-105808379D01*
X79070500Y-102555122D01*
X79092173Y-102502797D01*
X82229787Y-99365182D01*
X82282112Y-99343509D01*
X82310430Y-99349142D01*
X82429498Y-99398461D01*
X82438165Y-99402051D01*
X82631459Y-99440500D01*
X82631461Y-99440500D01*
X82828539Y-99440500D01*
X82828541Y-99440500D01*
X83021835Y-99402051D01*
X83203914Y-99326632D01*
X83367782Y-99217139D01*
X83507139Y-99077782D01*
X83563971Y-98992725D01*
X83611063Y-98961260D01*
X83666612Y-98972309D01*
G37*
%TD.AperFunction*%
%TA.AperFunction,Conductor*%
G36*
X111779083Y-106492915D02*
G01*
X111802918Y-106492913D01*
X111806532Y-106496527D01*
X111811602Y-106497194D01*
X111841209Y-106530948D01*
X111841655Y-106530710D01*
X111842676Y-106532621D01*
X111842971Y-106532957D01*
X111843366Y-106533912D01*
X111952860Y-106697781D01*
X111952861Y-106697782D01*
X112092218Y-106837139D01*
X112256086Y-106946632D01*
X112438165Y-107022051D01*
X112631459Y-107060500D01*
X112631461Y-107060500D01*
X112828539Y-107060500D01*
X112828541Y-107060500D01*
X113021835Y-107022051D01*
X113200988Y-106947844D01*
X113257624Y-106947844D01*
X113297672Y-106987892D01*
X113300784Y-107035362D01*
X113298200Y-107045006D01*
X113298200Y-107176794D01*
X113332306Y-107304081D01*
X113332310Y-107304090D01*
X113340577Y-107318408D01*
X113398200Y-107418214D01*
X113491386Y-107511400D01*
X113605514Y-107577292D01*
X113732805Y-107611399D01*
X113732806Y-107611400D01*
X113843577Y-107611400D01*
X113895903Y-107633074D01*
X114774926Y-108512097D01*
X114796600Y-108564423D01*
X114796600Y-109863027D01*
X114774926Y-109915353D01*
X114722600Y-109937027D01*
X114670274Y-109915353D01*
X114607781Y-109852860D01*
X114443913Y-109743367D01*
X114261839Y-109667950D01*
X114261829Y-109667947D01*
X114127023Y-109641133D01*
X114068541Y-109629500D01*
X113871459Y-109629500D01*
X113829994Y-109637748D01*
X113678170Y-109667947D01*
X113678160Y-109667950D01*
X113496086Y-109743367D01*
X113332218Y-109852860D01*
X113332217Y-109852862D01*
X113192862Y-109992217D01*
X113192860Y-109992218D01*
X113083367Y-110156086D01*
X113007950Y-110338160D01*
X113007947Y-110338170D01*
X112969500Y-110531460D01*
X112969500Y-110728539D01*
X113007947Y-110921829D01*
X113007950Y-110921839D01*
X113083367Y-111103913D01*
X113143400Y-111193758D01*
X113192861Y-111267782D01*
X113332218Y-111407139D01*
X113496086Y-111516632D01*
X113593032Y-111556788D01*
X113608718Y-111563285D01*
X113648767Y-111603333D01*
X113654400Y-111631652D01*
X113654400Y-112410234D01*
X113632726Y-112462560D01*
X113554400Y-112540885D01*
X113488510Y-112655009D01*
X113488506Y-112655018D01*
X113454400Y-112782305D01*
X113454400Y-112914094D01*
X113488506Y-113041381D01*
X113488507Y-113041384D01*
X113488508Y-113041386D01*
X113554400Y-113155514D01*
X113647586Y-113248700D01*
X113761714Y-113314592D01*
X113889005Y-113348699D01*
X113889006Y-113348700D01*
X113889008Y-113348700D01*
X114020794Y-113348700D01*
X114020794Y-113348699D01*
X114148086Y-113314592D01*
X114262214Y-113248700D01*
X114355400Y-113155514D01*
X114421292Y-113041386D01*
X114455399Y-112914094D01*
X114455400Y-112914094D01*
X114455400Y-112782306D01*
X114455399Y-112782305D01*
X114421293Y-112655018D01*
X114421292Y-112655014D01*
X114355400Y-112540886D01*
X114277074Y-112462560D01*
X114255400Y-112410234D01*
X114255400Y-111644161D01*
X114277074Y-111591835D01*
X114301080Y-111575795D01*
X114443914Y-111516632D01*
X114607782Y-111407139D01*
X114670274Y-111344647D01*
X114722600Y-111322973D01*
X114774926Y-111344647D01*
X114796600Y-111396973D01*
X114796600Y-116160364D01*
X114817077Y-116236785D01*
X114817080Y-116236792D01*
X114824415Y-116249494D01*
X114824416Y-116249500D01*
X114824418Y-116249500D01*
X114856640Y-116305311D01*
X119374503Y-120823174D01*
X119396177Y-120875500D01*
X119374503Y-120927826D01*
X119322177Y-120949500D01*
X119180246Y-120949500D01*
X119178783Y-120949644D01*
X119171536Y-120950000D01*
X119000000Y-120950000D01*
X119000000Y-121121536D01*
X118999644Y-121128783D01*
X118999500Y-121130246D01*
X118999500Y-121969751D01*
X118999643Y-121971203D01*
X119000000Y-121978459D01*
X119000000Y-122321536D01*
X118999997Y-122322222D01*
X118999943Y-122328023D01*
X118999500Y-122330252D01*
X118999500Y-122375862D01*
X118999497Y-122376186D01*
X118988538Y-122401962D01*
X118977826Y-122427826D01*
X118977483Y-122427967D01*
X118977339Y-122428308D01*
X118951394Y-122438774D01*
X118925500Y-122449500D01*
X117050436Y-122449500D01*
X116974014Y-122469977D01*
X116974009Y-122469979D01*
X116905488Y-122509540D01*
X114470211Y-124944816D01*
X114417885Y-124966490D01*
X114389567Y-124960857D01*
X114261839Y-124907950D01*
X114261829Y-124907947D01*
X114110966Y-124877939D01*
X114068541Y-124869500D01*
X113871459Y-124869500D01*
X113829034Y-124877939D01*
X113678170Y-124907947D01*
X113678160Y-124907950D01*
X113496086Y-124983367D01*
X113332218Y-125092860D01*
X113332217Y-125092862D01*
X113221326Y-125203753D01*
X113169000Y-125225427D01*
X113116674Y-125203753D01*
X113095000Y-125151427D01*
X113095000Y-111954936D01*
X113094999Y-111954935D01*
X113094295Y-111952309D01*
X113084623Y-111916211D01*
X113074522Y-111878514D01*
X113074520Y-111878509D01*
X113063920Y-111860149D01*
X113034960Y-111809989D01*
X112979011Y-111754040D01*
X112355183Y-111130212D01*
X112333509Y-111077886D01*
X112339142Y-111049567D01*
X112392051Y-110921835D01*
X112430500Y-110728541D01*
X112430500Y-110531459D01*
X112392051Y-110338165D01*
X112316632Y-110156086D01*
X112207139Y-109992218D01*
X112067782Y-109852861D01*
X112004014Y-109810252D01*
X111903913Y-109743367D01*
X111721839Y-109667950D01*
X111721829Y-109667947D01*
X111587023Y-109641133D01*
X111528541Y-109629500D01*
X111331459Y-109629500D01*
X111289994Y-109637748D01*
X111138170Y-109667947D01*
X111138160Y-109667950D01*
X110956086Y-109743367D01*
X110792218Y-109852860D01*
X110792217Y-109852862D01*
X110652862Y-109992217D01*
X110652860Y-109992218D01*
X110543367Y-110156086D01*
X110467950Y-110338160D01*
X110467947Y-110338170D01*
X110429500Y-110531460D01*
X110429500Y-110728539D01*
X110467947Y-110921829D01*
X110467950Y-110921839D01*
X110543367Y-111103913D01*
X110652860Y-111267781D01*
X110792218Y-111407139D01*
X110956086Y-111516632D01*
X111137643Y-111591835D01*
X111138165Y-111592051D01*
X111331459Y-111630500D01*
X111331461Y-111630500D01*
X111528539Y-111630500D01*
X111528541Y-111630500D01*
X111721835Y-111592051D01*
X111849568Y-111539142D01*
X111906204Y-111539142D01*
X111930212Y-111555183D01*
X112472326Y-112097297D01*
X112494000Y-112149623D01*
X112494000Y-125452268D01*
X112472326Y-125504594D01*
X112420000Y-125526268D01*
X112367674Y-125504594D01*
X112351633Y-125480586D01*
X112316632Y-125396086D01*
X112207139Y-125232218D01*
X112067781Y-125092860D01*
X111903913Y-124983367D01*
X111721839Y-124907950D01*
X111721829Y-124907947D01*
X111570966Y-124877939D01*
X111528541Y-124869500D01*
X111331459Y-124869500D01*
X111289034Y-124877939D01*
X111138170Y-124907947D01*
X111138160Y-124907950D01*
X110956086Y-124983367D01*
X110792218Y-125092860D01*
X110792217Y-125092862D01*
X110671826Y-125213253D01*
X110619500Y-125234927D01*
X110567174Y-125213253D01*
X110545500Y-125160927D01*
X110545500Y-111945436D01*
X110545499Y-111945435D01*
X110525022Y-111869014D01*
X110525020Y-111869009D01*
X110498557Y-111823174D01*
X110485460Y-111800489D01*
X110429511Y-111744540D01*
X109815183Y-111130212D01*
X109793509Y-111077886D01*
X109799142Y-111049567D01*
X109852051Y-110921835D01*
X109890500Y-110728541D01*
X109890500Y-110531459D01*
X109852051Y-110338165D01*
X109776632Y-110156086D01*
X109667139Y-109992218D01*
X109527782Y-109852861D01*
X109464014Y-109810252D01*
X109363913Y-109743367D01*
X109181839Y-109667950D01*
X109181829Y-109667947D01*
X109047023Y-109641133D01*
X108988541Y-109629500D01*
X108791459Y-109629500D01*
X108749994Y-109637748D01*
X108598170Y-109667947D01*
X108598160Y-109667950D01*
X108416086Y-109743367D01*
X108252218Y-109852860D01*
X108252217Y-109852862D01*
X108112862Y-109992217D01*
X108112860Y-109992218D01*
X108003367Y-110156086D01*
X107927950Y-110338160D01*
X107927947Y-110338170D01*
X107889500Y-110531460D01*
X107889500Y-110728539D01*
X107927947Y-110921829D01*
X107927950Y-110921839D01*
X108003367Y-111103913D01*
X108112860Y-111267781D01*
X108252218Y-111407139D01*
X108416086Y-111516632D01*
X108597643Y-111591835D01*
X108598165Y-111592051D01*
X108791459Y-111630500D01*
X108791461Y-111630500D01*
X108988539Y-111630500D01*
X108988541Y-111630500D01*
X109181835Y-111592051D01*
X109309568Y-111539142D01*
X109366204Y-111539142D01*
X109390212Y-111555183D01*
X109922826Y-112087797D01*
X109944500Y-112140123D01*
X109944500Y-125429332D01*
X109922826Y-125481658D01*
X109870500Y-125503332D01*
X109818174Y-125481658D01*
X109802133Y-125457651D01*
X109790403Y-125429332D01*
X109776632Y-125396086D01*
X109667139Y-125232218D01*
X109527782Y-125092861D01*
X109519351Y-125087227D01*
X109363913Y-124983367D01*
X109181839Y-124907950D01*
X109181829Y-124907947D01*
X109030966Y-124877939D01*
X108988541Y-124869500D01*
X108791459Y-124869500D01*
X108749034Y-124877939D01*
X108598170Y-124907947D01*
X108598160Y-124907950D01*
X108416086Y-124983367D01*
X108252218Y-125092860D01*
X108252217Y-125092862D01*
X108112862Y-125232217D01*
X108112860Y-125232218D01*
X108056029Y-125317273D01*
X108008937Y-125348739D01*
X107953388Y-125337690D01*
X107921922Y-125290598D01*
X107920500Y-125276161D01*
X107920500Y-111860436D01*
X107920499Y-111860435D01*
X107900022Y-111784014D01*
X107900020Y-111784009D01*
X107882717Y-111754040D01*
X107860460Y-111715489D01*
X107804511Y-111659540D01*
X107275183Y-111130212D01*
X107253509Y-111077886D01*
X107259142Y-111049567D01*
X107312051Y-110921835D01*
X107350500Y-110728541D01*
X107350500Y-110531459D01*
X107312051Y-110338165D01*
X107236632Y-110156086D01*
X107127139Y-109992218D01*
X106987782Y-109852861D01*
X106924014Y-109810252D01*
X106823913Y-109743367D01*
X106641839Y-109667950D01*
X106641829Y-109667947D01*
X106507023Y-109641133D01*
X106448541Y-109629500D01*
X106251459Y-109629500D01*
X106209994Y-109637748D01*
X106058170Y-109667947D01*
X106058160Y-109667950D01*
X105876086Y-109743367D01*
X105712218Y-109852860D01*
X105712217Y-109852862D01*
X105572862Y-109992217D01*
X105572860Y-109992218D01*
X105463367Y-110156086D01*
X105387950Y-110338160D01*
X105387947Y-110338170D01*
X105349500Y-110531460D01*
X105349500Y-110728539D01*
X105387947Y-110921829D01*
X105387950Y-110921839D01*
X105463367Y-111103913D01*
X105572860Y-111267781D01*
X105712218Y-111407139D01*
X105876086Y-111516632D01*
X106057643Y-111591835D01*
X106058165Y-111592051D01*
X106251459Y-111630500D01*
X106251461Y-111630500D01*
X106448539Y-111630500D01*
X106448541Y-111630500D01*
X106641835Y-111592051D01*
X106769568Y-111539142D01*
X106826204Y-111539142D01*
X106850212Y-111555183D01*
X107297826Y-112002797D01*
X107319500Y-112055123D01*
X107319500Y-125276161D01*
X107297826Y-125328487D01*
X107245500Y-125350161D01*
X107193174Y-125328487D01*
X107183971Y-125317273D01*
X107127139Y-125232218D01*
X106987781Y-125092860D01*
X106823913Y-124983367D01*
X106641839Y-124907950D01*
X106641829Y-124907947D01*
X106490966Y-124877939D01*
X106448541Y-124869500D01*
X106251459Y-124869500D01*
X106209034Y-124877939D01*
X106058170Y-124907947D01*
X106058160Y-124907950D01*
X105876086Y-124983367D01*
X105712218Y-125092860D01*
X105712217Y-125092862D01*
X105572862Y-125232217D01*
X105572860Y-125232218D01*
X105463367Y-125396086D01*
X105387950Y-125578160D01*
X105387947Y-125578170D01*
X105349500Y-125771460D01*
X105349500Y-125968539D01*
X105387947Y-126161829D01*
X105387950Y-126161839D01*
X105463367Y-126343913D01*
X105553080Y-126478177D01*
X105572861Y-126507782D01*
X105712218Y-126647139D01*
X105876086Y-126756632D01*
X106003818Y-126809539D01*
X106043867Y-126849587D01*
X106049500Y-126877906D01*
X106049500Y-132715500D01*
X106027826Y-132767826D01*
X105975500Y-132789500D01*
X105330246Y-132789500D01*
X105328783Y-132789644D01*
X105321536Y-132790000D01*
X105150000Y-132790000D01*
X105132326Y-132807674D01*
X105080000Y-132829348D01*
X105027674Y-132807674D01*
X105010000Y-132790000D01*
X104838464Y-132790000D01*
X104831217Y-132789644D01*
X104829754Y-132789500D01*
X104829748Y-132789500D01*
X104267947Y-132789500D01*
X104215621Y-132767826D01*
X104193947Y-132715500D01*
X104196469Y-132696347D01*
X104210310Y-132644689D01*
X104216399Y-132621964D01*
X104216400Y-132621964D01*
X104216400Y-126834041D01*
X104238074Y-126781715D01*
X104262080Y-126765675D01*
X104283914Y-126756632D01*
X104447782Y-126647139D01*
X104587139Y-126507782D01*
X104696632Y-126343914D01*
X104772051Y-126161835D01*
X104810500Y-125968541D01*
X104810500Y-125771459D01*
X104772051Y-125578165D01*
X104696632Y-125396086D01*
X104587139Y-125232218D01*
X104447782Y-125092861D01*
X104439351Y-125087227D01*
X104283913Y-124983367D01*
X104101839Y-124907950D01*
X104101829Y-124907947D01*
X103950966Y-124877939D01*
X103908541Y-124869500D01*
X103711459Y-124869500D01*
X103669034Y-124877939D01*
X103518170Y-124907947D01*
X103518160Y-124907950D01*
X103336086Y-124983367D01*
X103172218Y-125092860D01*
X103172217Y-125092862D01*
X103032862Y-125232217D01*
X103032860Y-125232218D01*
X102923367Y-125396086D01*
X102847950Y-125578160D01*
X102847947Y-125578170D01*
X102809500Y-125771460D01*
X102809500Y-125968539D01*
X102847947Y-126161829D01*
X102847950Y-126161839D01*
X102923367Y-126343913D01*
X103032860Y-126507781D01*
X103172218Y-126647139D01*
X103336086Y-126756632D01*
X103502542Y-126825580D01*
X103518165Y-126832051D01*
X103555836Y-126839544D01*
X103602928Y-126871009D01*
X103615400Y-126912122D01*
X103615400Y-129576877D01*
X103593726Y-129629203D01*
X103541400Y-129650877D01*
X103489074Y-129629203D01*
X100474074Y-126614203D01*
X100452400Y-126561877D01*
X100452400Y-111903222D01*
X100474073Y-111850897D01*
X100769787Y-111555182D01*
X100822113Y-111533509D01*
X100850431Y-111539141D01*
X100978165Y-111592051D01*
X101171459Y-111630500D01*
X101171461Y-111630500D01*
X101368539Y-111630500D01*
X101368541Y-111630500D01*
X101561835Y-111592051D01*
X101743914Y-111516632D01*
X101907782Y-111407139D01*
X102047139Y-111267782D01*
X102156632Y-111103914D01*
X102232051Y-110921835D01*
X102270500Y-110728541D01*
X102270500Y-110531460D01*
X102809500Y-110531460D01*
X102809500Y-110728539D01*
X102847947Y-110921829D01*
X102847950Y-110921839D01*
X102923367Y-111103913D01*
X103032860Y-111267781D01*
X103172218Y-111407139D01*
X103336086Y-111516632D01*
X103517643Y-111591835D01*
X103518165Y-111592051D01*
X103711459Y-111630500D01*
X103711461Y-111630500D01*
X103908539Y-111630500D01*
X103908541Y-111630500D01*
X103988564Y-111614582D01*
X104044112Y-111625631D01*
X104075578Y-111672723D01*
X104077000Y-111687160D01*
X104077000Y-120673534D01*
X104055326Y-120725860D01*
X103977000Y-120804185D01*
X103911110Y-120918309D01*
X103911106Y-120918318D01*
X103877000Y-121045605D01*
X103877000Y-121177394D01*
X103911106Y-121304681D01*
X103911107Y-121304684D01*
X103911108Y-121304686D01*
X103977000Y-121418814D01*
X104070186Y-121512000D01*
X104184314Y-121577892D01*
X104311605Y-121611999D01*
X104311606Y-121612000D01*
X104311608Y-121612000D01*
X104443394Y-121612000D01*
X104443394Y-121611999D01*
X104570686Y-121577892D01*
X104684814Y-121512000D01*
X104778000Y-121418814D01*
X104843892Y-121304686D01*
X104877999Y-121177394D01*
X104878000Y-121177394D01*
X104878000Y-121045606D01*
X104877999Y-121045605D01*
X104843893Y-120918318D01*
X104843892Y-120918314D01*
X104778000Y-120804186D01*
X104699674Y-120725860D01*
X104678000Y-120673534D01*
X104678000Y-111154246D01*
X104690473Y-111113131D01*
X104696629Y-111103918D01*
X104696632Y-111103914D01*
X104772051Y-110921835D01*
X104810500Y-110728541D01*
X104810500Y-110531459D01*
X104772051Y-110338165D01*
X104696632Y-110156086D01*
X104587139Y-109992218D01*
X104447782Y-109852861D01*
X104384014Y-109810252D01*
X104283913Y-109743367D01*
X104101839Y-109667950D01*
X104101829Y-109667947D01*
X103967023Y-109641133D01*
X103908541Y-109629500D01*
X103711459Y-109629500D01*
X103669994Y-109637748D01*
X103518170Y-109667947D01*
X103518160Y-109667950D01*
X103336086Y-109743367D01*
X103172218Y-109852860D01*
X103172217Y-109852862D01*
X103032862Y-109992217D01*
X103032860Y-109992218D01*
X102923367Y-110156086D01*
X102847950Y-110338160D01*
X102847947Y-110338170D01*
X102809500Y-110531460D01*
X102270500Y-110531460D01*
X102270500Y-110531459D01*
X102232051Y-110338165D01*
X102156632Y-110156086D01*
X102047139Y-109992218D01*
X101907782Y-109852861D01*
X101844014Y-109810252D01*
X101743913Y-109743367D01*
X101561839Y-109667950D01*
X101561829Y-109667947D01*
X101427023Y-109641133D01*
X101368541Y-109629500D01*
X101171459Y-109629500D01*
X101129994Y-109637748D01*
X100978170Y-109667947D01*
X100978160Y-109667950D01*
X100796086Y-109743367D01*
X100632218Y-109852860D01*
X100632217Y-109852862D01*
X100492862Y-109992217D01*
X100492860Y-109992218D01*
X100383367Y-110156086D01*
X100307950Y-110338160D01*
X100307947Y-110338170D01*
X100269500Y-110531460D01*
X100269500Y-110728539D01*
X100307947Y-110921829D01*
X100307950Y-110921839D01*
X100360857Y-111049567D01*
X100360857Y-111106204D01*
X100344816Y-111130211D01*
X99967389Y-111507640D01*
X99911440Y-111563588D01*
X99871879Y-111632109D01*
X99871877Y-111632114D01*
X99851400Y-111708535D01*
X99851400Y-125627931D01*
X99829726Y-125680257D01*
X99777400Y-125701931D01*
X99725074Y-125680257D01*
X99704822Y-125642368D01*
X99692052Y-125578170D01*
X99692051Y-125578169D01*
X99692051Y-125578165D01*
X99616632Y-125396086D01*
X99507139Y-125232218D01*
X99367782Y-125092861D01*
X99359351Y-125087227D01*
X99203913Y-124983367D01*
X99021839Y-124907950D01*
X99021829Y-124907947D01*
X98870966Y-124877939D01*
X98828541Y-124869500D01*
X98631459Y-124869500D01*
X98589034Y-124877939D01*
X98438170Y-124907947D01*
X98438160Y-124907950D01*
X98256086Y-124983367D01*
X98092218Y-125092860D01*
X98092217Y-125092862D01*
X98045526Y-125139553D01*
X97993200Y-125161227D01*
X97940874Y-125139553D01*
X97919200Y-125087227D01*
X97919200Y-111896422D01*
X97940873Y-111844097D01*
X98229787Y-111555182D01*
X98282113Y-111533509D01*
X98310431Y-111539141D01*
X98438165Y-111592051D01*
X98631459Y-111630500D01*
X98631461Y-111630500D01*
X98828539Y-111630500D01*
X98828541Y-111630500D01*
X99021835Y-111592051D01*
X99203914Y-111516632D01*
X99367782Y-111407139D01*
X99507139Y-111267782D01*
X99616632Y-111103914D01*
X99692051Y-110921835D01*
X99730500Y-110728541D01*
X99730500Y-110531459D01*
X99692051Y-110338165D01*
X99616632Y-110156086D01*
X99507139Y-109992218D01*
X99367782Y-109852861D01*
X99304014Y-109810252D01*
X99203913Y-109743367D01*
X99021839Y-109667950D01*
X99021829Y-109667947D01*
X98887023Y-109641133D01*
X98828541Y-109629500D01*
X98631459Y-109629500D01*
X98589994Y-109637748D01*
X98438170Y-109667947D01*
X98438160Y-109667950D01*
X98256086Y-109743367D01*
X98092218Y-109852860D01*
X98092217Y-109852862D01*
X97952862Y-109992217D01*
X97952860Y-109992218D01*
X97843367Y-110156086D01*
X97767950Y-110338160D01*
X97767947Y-110338170D01*
X97729500Y-110531460D01*
X97729500Y-110728539D01*
X97767947Y-110921829D01*
X97767950Y-110921839D01*
X97820857Y-111049567D01*
X97820857Y-111106204D01*
X97804816Y-111130211D01*
X97434189Y-111500840D01*
X97378240Y-111556788D01*
X97338679Y-111625309D01*
X97338677Y-111625314D01*
X97318200Y-111701735D01*
X97318200Y-125662117D01*
X97296526Y-125714443D01*
X97244200Y-125736117D01*
X97191874Y-125714443D01*
X97171622Y-125676554D01*
X97152052Y-125578170D01*
X97152051Y-125578169D01*
X97152051Y-125578165D01*
X97076632Y-125396086D01*
X96967139Y-125232218D01*
X96909174Y-125174253D01*
X96887500Y-125121927D01*
X96887500Y-112518266D01*
X96909174Y-112465940D01*
X96931349Y-112443765D01*
X96987500Y-112387614D01*
X97053392Y-112273486D01*
X97087499Y-112146194D01*
X97087500Y-112146194D01*
X97087500Y-112014406D01*
X97087499Y-112014405D01*
X97076179Y-111972159D01*
X97053392Y-111887114D01*
X96987500Y-111772986D01*
X96894314Y-111679800D01*
X96866582Y-111663789D01*
X96780190Y-111613910D01*
X96780187Y-111613909D01*
X96780186Y-111613908D01*
X96780184Y-111613907D01*
X96780183Y-111613907D01*
X96751036Y-111606097D01*
X96706104Y-111571618D01*
X96698712Y-111515465D01*
X96729076Y-111473091D01*
X96827782Y-111407139D01*
X96967139Y-111267782D01*
X97076632Y-111103914D01*
X97152051Y-110921835D01*
X97190500Y-110728541D01*
X97190500Y-110531459D01*
X97152051Y-110338165D01*
X97076632Y-110156086D01*
X96967139Y-109992218D01*
X96827782Y-109852861D01*
X96764014Y-109810252D01*
X96663913Y-109743367D01*
X96481839Y-109667950D01*
X96481829Y-109667947D01*
X96347023Y-109641133D01*
X96288541Y-109629500D01*
X96091459Y-109629500D01*
X96049994Y-109637748D01*
X95898170Y-109667947D01*
X95898160Y-109667950D01*
X95716086Y-109743367D01*
X95552218Y-109852860D01*
X95552217Y-109852862D01*
X95412862Y-109992217D01*
X95412860Y-109992218D01*
X95303367Y-110156086D01*
X95227950Y-110338160D01*
X95227947Y-110338170D01*
X95189500Y-110531460D01*
X95189500Y-110728539D01*
X95227947Y-110921829D01*
X95227950Y-110921839D01*
X95303367Y-111103913D01*
X95412860Y-111267781D01*
X95552218Y-111407139D01*
X95651912Y-111473752D01*
X95683378Y-111520844D01*
X95684800Y-111535281D01*
X95684800Y-123445876D01*
X95663126Y-123498202D01*
X95156504Y-124004823D01*
X95104178Y-124026497D01*
X95051852Y-124004823D01*
X95035902Y-123977197D01*
X95034947Y-123977593D01*
X95033091Y-123973112D01*
X94967199Y-123858985D01*
X94874014Y-123765800D01*
X94759890Y-123699910D01*
X94759881Y-123699906D01*
X94632594Y-123665800D01*
X94632592Y-123665800D01*
X94521823Y-123665800D01*
X94469497Y-123644126D01*
X93972174Y-123146803D01*
X93950500Y-123094477D01*
X93950500Y-111637906D01*
X93972174Y-111585580D01*
X93996180Y-111569539D01*
X94123914Y-111516632D01*
X94287782Y-111407139D01*
X94427139Y-111267782D01*
X94536632Y-111103914D01*
X94612051Y-110921835D01*
X94650500Y-110728541D01*
X94650500Y-110531459D01*
X94612051Y-110338165D01*
X94536632Y-110156086D01*
X94427139Y-109992218D01*
X94287782Y-109852861D01*
X94224014Y-109810252D01*
X94123913Y-109743367D01*
X93941839Y-109667950D01*
X93941829Y-109667947D01*
X93807023Y-109641133D01*
X93748541Y-109629500D01*
X93551459Y-109629500D01*
X93509994Y-109637748D01*
X93358170Y-109667947D01*
X93358160Y-109667950D01*
X93176086Y-109743367D01*
X93012218Y-109852860D01*
X93012217Y-109852862D01*
X92872862Y-109992217D01*
X92872860Y-109992218D01*
X92763367Y-110156086D01*
X92687950Y-110338160D01*
X92687947Y-110338170D01*
X92649500Y-110531460D01*
X92649500Y-110728539D01*
X92687947Y-110921829D01*
X92687950Y-110921839D01*
X92763367Y-111103913D01*
X92823400Y-111193758D01*
X92872861Y-111267782D01*
X93012218Y-111407139D01*
X93176086Y-111516632D01*
X93303818Y-111569539D01*
X93343867Y-111609587D01*
X93349500Y-111637906D01*
X93349500Y-123289164D01*
X93369977Y-123365585D01*
X93369979Y-123365590D01*
X93399366Y-123416489D01*
X93409540Y-123434111D01*
X94044526Y-124069097D01*
X94066200Y-124121423D01*
X94066200Y-124232194D01*
X94100306Y-124359481D01*
X94100307Y-124359484D01*
X94100308Y-124359486D01*
X94166200Y-124473614D01*
X94259386Y-124566800D01*
X94373514Y-124632692D01*
X94500805Y-124666799D01*
X94500806Y-124666800D01*
X94500808Y-124666800D01*
X94632594Y-124666800D01*
X94632594Y-124666799D01*
X94678247Y-124654567D01*
X94734399Y-124661959D01*
X94768878Y-124706892D01*
X94771400Y-124726045D01*
X94771400Y-125627931D01*
X94749726Y-125680257D01*
X94697400Y-125701931D01*
X94645074Y-125680257D01*
X94624822Y-125642368D01*
X94612052Y-125578170D01*
X94612051Y-125578169D01*
X94612051Y-125578165D01*
X94536632Y-125396086D01*
X94427139Y-125232218D01*
X94287782Y-125092861D01*
X94279351Y-125087227D01*
X94123913Y-124983367D01*
X93941839Y-124907950D01*
X93941829Y-124907947D01*
X93790966Y-124877939D01*
X93748541Y-124869500D01*
X93551459Y-124869500D01*
X93509034Y-124877939D01*
X93358170Y-124907947D01*
X93358160Y-124907950D01*
X93176086Y-124983367D01*
X93012218Y-125092860D01*
X93012217Y-125092862D01*
X92975126Y-125129953D01*
X92922800Y-125151627D01*
X92870474Y-125129953D01*
X92848800Y-125077627D01*
X92848800Y-112028736D01*
X92848799Y-112028735D01*
X92847656Y-112024471D01*
X92829025Y-111954938D01*
X92828322Y-111952314D01*
X92828320Y-111952309D01*
X92807479Y-111916211D01*
X92788760Y-111883789D01*
X92732811Y-111827840D01*
X92035183Y-111130212D01*
X92013509Y-111077886D01*
X92019142Y-111049567D01*
X92072051Y-110921835D01*
X92110500Y-110728541D01*
X92110500Y-110531459D01*
X92072051Y-110338165D01*
X92072049Y-110338160D01*
X92019142Y-110210430D01*
X92019142Y-110153793D01*
X92035180Y-110129789D01*
X93097597Y-109067374D01*
X93149923Y-109045700D01*
X109111564Y-109045700D01*
X109111564Y-109045699D01*
X109187989Y-109025221D01*
X109256511Y-108985660D01*
X109312460Y-108929711D01*
X111700460Y-106541711D01*
X111704962Y-106533914D01*
X111710520Y-106524285D01*
X111729428Y-106509775D01*
X111746281Y-106492919D01*
X111751393Y-106492918D01*
X111755449Y-106489806D01*
X111779083Y-106492915D01*
G37*
%TD.AperFunction*%
%TA.AperFunction,Conductor*%
G36*
X115490305Y-111630000D02*
G01*
X115681536Y-111630000D01*
X115688783Y-111630356D01*
X115690246Y-111630500D01*
X115690252Y-111630500D01*
X116135500Y-111630500D01*
X116187826Y-111652174D01*
X116209500Y-111704500D01*
X116209500Y-111771264D01*
X116229977Y-111847685D01*
X116229979Y-111847690D01*
X116250821Y-111883789D01*
X116269540Y-111916211D01*
X116325489Y-111972160D01*
X116394011Y-112011721D01*
X116394012Y-112011721D01*
X116394014Y-112011722D01*
X116432224Y-112021960D01*
X116470435Y-112032199D01*
X116470436Y-112032200D01*
X116470438Y-112032200D01*
X116724877Y-112032200D01*
X116777203Y-112053874D01*
X118657840Y-113934511D01*
X118713789Y-113990460D01*
X118782311Y-114030021D01*
X118782312Y-114030021D01*
X118782314Y-114030022D01*
X118820524Y-114040260D01*
X118858735Y-114050499D01*
X118858736Y-114050500D01*
X118858738Y-114050500D01*
X118925500Y-114050500D01*
X118951347Y-114061206D01*
X118977339Y-114071691D01*
X118977481Y-114072031D01*
X118977826Y-114072174D01*
X118999497Y-114123814D01*
X118999500Y-114124137D01*
X118999500Y-114169748D01*
X118999943Y-114171976D01*
X118999997Y-114177773D01*
X118999969Y-114177840D01*
X119000000Y-114178459D01*
X119000000Y-114521536D01*
X118999644Y-114528783D01*
X118999500Y-114530246D01*
X118999500Y-115369751D01*
X118999643Y-115371203D01*
X119000000Y-115378459D01*
X119000000Y-115550000D01*
X119171536Y-115550000D01*
X119178783Y-115550356D01*
X119180246Y-115550500D01*
X119180252Y-115550500D01*
X119625500Y-115550500D01*
X119677826Y-115572174D01*
X119699500Y-115624500D01*
X119699500Y-116080331D01*
X119677826Y-116132657D01*
X119653819Y-116148698D01*
X119573453Y-116181986D01*
X119425968Y-116280533D01*
X119300533Y-116405968D01*
X119201985Y-116553455D01*
X119134107Y-116717329D01*
X119134104Y-116717339D01*
X119099500Y-116891310D01*
X119099500Y-117068689D01*
X119134104Y-117242660D01*
X119134107Y-117242670D01*
X119201985Y-117406544D01*
X119201986Y-117406546D01*
X119201987Y-117406547D01*
X119300536Y-117554035D01*
X119425965Y-117679464D01*
X119573453Y-117778013D01*
X119737334Y-117845894D01*
X119911309Y-117880500D01*
X119911311Y-117880500D01*
X120088689Y-117880500D01*
X120088691Y-117880500D01*
X120262666Y-117845894D01*
X120426547Y-117778013D01*
X120574035Y-117679464D01*
X120699464Y-117554035D01*
X120798013Y-117406547D01*
X120865894Y-117242666D01*
X120900500Y-117068691D01*
X120900500Y-116891309D01*
X120865894Y-116717334D01*
X120798013Y-116553453D01*
X120699464Y-116405965D01*
X120574035Y-116280536D01*
X120574031Y-116280533D01*
X120426546Y-116181986D01*
X120346181Y-116148698D01*
X120306133Y-116108649D01*
X120300500Y-116080331D01*
X120300500Y-115624500D01*
X120322174Y-115572174D01*
X120374500Y-115550500D01*
X120819754Y-115550500D01*
X120821217Y-115550356D01*
X120828464Y-115550000D01*
X121000000Y-115550000D01*
X121000000Y-115378459D01*
X121000357Y-115371203D01*
X121000500Y-115369751D01*
X121000500Y-114530246D01*
X121000356Y-114528783D01*
X121000000Y-114521536D01*
X121000000Y-114178459D01*
X121000357Y-114171203D01*
X121000500Y-114169751D01*
X121000500Y-113388376D01*
X121022174Y-113336050D01*
X121074500Y-113314376D01*
X121111498Y-113324289D01*
X121168314Y-113357092D01*
X121295605Y-113391199D01*
X121295606Y-113391200D01*
X121295608Y-113391200D01*
X121427394Y-113391200D01*
X121427394Y-113391199D01*
X121554686Y-113357092D01*
X121611400Y-113324347D01*
X121667552Y-113316955D01*
X121712486Y-113351434D01*
X121722400Y-113388434D01*
X121722400Y-119409776D01*
X121700726Y-119462102D01*
X121068802Y-120094026D01*
X121016476Y-120115700D01*
X120905706Y-120115700D01*
X120778418Y-120149806D01*
X120778409Y-120149810D01*
X120664285Y-120215700D01*
X120571100Y-120308885D01*
X120505210Y-120423009D01*
X120505206Y-120423018D01*
X120471100Y-120550305D01*
X120471100Y-120682094D01*
X120505206Y-120809381D01*
X120505210Y-120809390D01*
X120522017Y-120838500D01*
X120524538Y-120857653D01*
X120531931Y-120875500D01*
X120528104Y-120884737D01*
X120529410Y-120894652D01*
X120517649Y-120909978D01*
X120510257Y-120927826D01*
X120501018Y-120931652D01*
X120494931Y-120939586D01*
X120457931Y-120949500D01*
X120374500Y-120949500D01*
X120322174Y-120927826D01*
X120300500Y-120875500D01*
X120300500Y-120808736D01*
X120300499Y-120808735D01*
X120280022Y-120732314D01*
X120280020Y-120732309D01*
X120240459Y-120663788D01*
X120184511Y-120607840D01*
X120115990Y-120568279D01*
X120115985Y-120568277D01*
X120039564Y-120547800D01*
X120039562Y-120547800D01*
X119979723Y-120547800D01*
X119927397Y-120526126D01*
X115419274Y-116018003D01*
X115397600Y-115965677D01*
X115397600Y-111696252D01*
X115419274Y-111643926D01*
X115471600Y-111622252D01*
X115490305Y-111630000D01*
G37*
%TD.AperFunction*%
%TD*%
M02*
