%TF.GenerationSoftware,KiCad,Pcbnew,10.0.4*%
%TF.CreationDate,2026-06-28T17:54:52-04:00*%
%TF.ProjectId,index,696e6465-782e-46b6-9963-61645f706362,Rev1*%
%TF.SameCoordinates,Original*%
%TF.FileFunction,Copper,L1,Top*%
%TF.FilePolarity,Positive*%
%FSLAX46Y46*%
G04 Gerber Fmt 4.6, Leading zero omitted, Abs format (unit mm)*
G04 Created by KiCad (PCBNEW 10.0.4) date 2026-06-28 17:54:52*
%MOMM*%
%LPD*%
G01*
G04 APERTURE LIST*
%TA.AperFunction,ComponentPad*%
%ADD10C,1.400000*%
%TD*%
%TA.AperFunction,SMDPad,CuDef*%
%ADD11R,1.600000X0.800000*%
%TD*%
%TA.AperFunction,ComponentPad*%
%ADD12R,1.600000X1.600000*%
%TD*%
%TA.AperFunction,ComponentPad*%
%ADD13C,1.600000*%
%TD*%
%TA.AperFunction,ComponentPad*%
%ADD14C,0.600000*%
%TD*%
%TA.AperFunction,SMDPad,CuDef*%
%ADD15R,2.000000X7.000000*%
%TD*%
%TA.AperFunction,ViaPad*%
%ADD16C,0.600000*%
%TD*%
%TA.AperFunction,Conductor*%
%ADD17C,0.200000*%
%TD*%
G04 APERTURE END LIST*
D10*
%TO.P,C_RESET,1*%
%TO.N,RESET_DELAYED*%
X110730000Y-87500000D03*
%TO.P,C_RESET,2*%
%TO.N,GND*%
X113270000Y-87500000D03*
%TD*%
%TO.P,C_AMP,1*%
%TO.N,VCC*%
X88000000Y-101270000D03*
%TO.P,C_AMP,2*%
%TO.N,GND*%
X88000000Y-98730000D03*
%TD*%
%TO.P,R_YM_AUDIOC,1*%
%TO.N,ANALOG_C*%
X86730000Y-87500000D03*
%TO.P,R_YM_AUDIOC,2*%
%TO.N,SUM_NODE*%
X89270000Y-87500000D03*
%TD*%
%TO.P,C_AUDIO_OUT,1*%
%TO.N,CAP_PLUS*%
X116000000Y-101270000D03*
%TO.P,C_AUDIO_OUT,2*%
%TO.N,OPAMP_OUT_AC*%
X116000000Y-98730000D03*
%TD*%
%TO.P,C_LATCH,1*%
%TO.N,VCC*%
X115000000Y-77270000D03*
%TO.P,C_LATCH,2*%
%TO.N,GND*%
X115000000Y-74730000D03*
%TD*%
D11*
%TO.P,JP1,1*%
%TO.N,VCC*%
X118000000Y-114950000D03*
%TO.P,JP1,2*%
%TO.N,ROM_VPP*%
X118000000Y-113750000D03*
%TO.P,JP1,3*%
%TO.N,A15*%
X118000000Y-112550000D03*
%TD*%
D12*
%TO.P,U_YM,1*%
%TO.N,GND*%
X122130000Y-68380000D03*
D13*
%TO.P,U_YM,2*%
%TO.N,N/C*%
X119590000Y-68380000D03*
%TO.P,U_YM,3*%
%TO.N,ANALOG_B*%
X117050000Y-68380000D03*
%TO.P,U_YM,4*%
%TO.N,ANALOG_A*%
X114510000Y-68380000D03*
%TO.P,U_YM,5*%
%TO.N,N/C*%
X111970000Y-68380000D03*
%TO.P,U_YM,6*%
X109430000Y-68380000D03*
%TO.P,U_YM,7*%
X106890000Y-68380000D03*
%TO.P,U_YM,8*%
X104350000Y-68380000D03*
%TO.P,U_YM,9*%
X101810000Y-68380000D03*
%TO.P,U_YM,10*%
X99270000Y-68380000D03*
%TO.P,U_YM,11*%
X96730000Y-68380000D03*
%TO.P,U_YM,12*%
X94190000Y-68380000D03*
%TO.P,U_YM,13*%
X91650000Y-68380000D03*
%TO.P,U_YM,14*%
X89110000Y-68380000D03*
%TO.P,U_YM,15*%
X86570000Y-68380000D03*
%TO.P,U_YM,16*%
X84030000Y-68380000D03*
%TO.P,U_YM,17*%
X81490000Y-68380000D03*
%TO.P,U_YM,18*%
X78950000Y-68380000D03*
%TO.P,U_YM,19*%
X76410000Y-68380000D03*
%TO.P,U_YM,20*%
X73870000Y-68380000D03*
%TO.P,U_YM,21*%
X73870000Y-83620000D03*
%TO.P,U_YM,22*%
%TO.N,PHI2OUT*%
X76410000Y-83620000D03*
%TO.P,U_YM,23*%
%TO.N,RESET_DELAYED*%
X78950000Y-83620000D03*
%TO.P,U_YM,24*%
%TO.N,GND*%
X81490000Y-83620000D03*
%TO.P,U_YM,25*%
%TO.N,VCC*%
X84030000Y-83620000D03*
%TO.P,U_YM,26*%
%TO.N,N/C*%
X86570000Y-83620000D03*
%TO.P,U_YM,27*%
%TO.N,BDIR*%
X89110000Y-83620000D03*
%TO.P,U_YM,28*%
%TO.N,VCC*%
X91650000Y-83620000D03*
%TO.P,U_YM,29*%
%TO.N,BC1*%
X94190000Y-83620000D03*
%TO.P,U_YM,30*%
%TO.N,DA7*%
X96730000Y-83620000D03*
%TO.P,U_YM,31*%
%TO.N,DA6*%
X99270000Y-83620000D03*
%TO.P,U_YM,32*%
%TO.N,DA5*%
X101810000Y-83620000D03*
%TO.P,U_YM,33*%
%TO.N,DA4*%
X104350000Y-83620000D03*
%TO.P,U_YM,34*%
%TO.N,DA3*%
X106890000Y-83620000D03*
%TO.P,U_YM,35*%
%TO.N,DA2*%
X109430000Y-83620000D03*
%TO.P,U_YM,36*%
%TO.N,DA1*%
X111970000Y-83620000D03*
%TO.P,U_YM,37*%
%TO.N,DA0*%
X114510000Y-83620000D03*
%TO.P,U_YM,38*%
%TO.N,ANALOG_C*%
X117050000Y-83620000D03*
%TO.P,U_YM,39*%
%TO.N,N/C*%
X119590000Y-83620000D03*
%TO.P,U_YM,40*%
%TO.N,VCC*%
X122130000Y-83620000D03*
%TD*%
D10*
%TO.P,C_YM,1*%
%TO.N,VCC*%
X125000000Y-74730000D03*
%TO.P,C_YM,2*%
%TO.N,GND*%
X125000000Y-77270000D03*
%TD*%
%TO.P,R_PULL,1*%
%TO.N,OPAMP_OUT*%
X108000000Y-101270000D03*
%TO.P,R_PULL,2*%
%TO.N,GND*%
X108000000Y-98730000D03*
%TD*%
D12*
%TO.P,U_GAL,1*%
%TO.N,N/C*%
X109430000Y-122060000D03*
D13*
%TO.P,U_GAL,2*%
%TO.N,A15*%
X106890000Y-122060000D03*
%TO.P,U_GAL,3*%
%TO.N,A14*%
X104350000Y-122060000D03*
%TO.P,U_GAL,4*%
%TO.N,A0*%
X101810000Y-122060000D03*
%TO.P,U_GAL,5*%
%TO.N,HALT*%
X99270000Y-122060000D03*
%TO.P,U_GAL,6*%
%TO.N,RW*%
X96730000Y-122060000D03*
%TO.P,U_GAL,7*%
%TO.N,PHI2*%
X94190000Y-122060000D03*
%TO.P,U_GAL,8*%
%TO.N,N/C*%
X91650000Y-122060000D03*
%TO.P,U_GAL,9*%
X89110000Y-122060000D03*
%TO.P,U_GAL,10*%
%TO.N,GND*%
X86570000Y-122060000D03*
%TO.P,U_GAL,11*%
%TO.N,N/C*%
X86570000Y-114440000D03*
%TO.P,U_GAL,12*%
X89110000Y-114440000D03*
%TO.P,U_GAL,13*%
X91650000Y-114440000D03*
%TO.P,U_GAL,14*%
X94190000Y-114440000D03*
%TO.P,U_GAL,15*%
%TO.N,YM_LE*%
X96730000Y-114440000D03*
%TO.P,U_GAL,16*%
%TO.N,PHI2OUT*%
X99270000Y-114440000D03*
%TO.P,U_GAL,17*%
%TO.N,BC1*%
X101810000Y-114440000D03*
%TO.P,U_GAL,18*%
%TO.N,BDIR*%
X104350000Y-114440000D03*
%TO.P,U_GAL,19*%
%TO.N,ROM_CE*%
X106890000Y-114440000D03*
%TO.P,U_GAL,20*%
%TO.N,VCC*%
X109430000Y-114440000D03*
%TD*%
D12*
%TO.P,U_LATCH,1*%
%TO.N,GND*%
X111430000Y-79810000D03*
D13*
%TO.P,U_LATCH,2*%
%TO.N,DA0*%
X108890000Y-79810000D03*
%TO.P,U_LATCH,3*%
%TO.N,D0*%
X106350000Y-79810000D03*
%TO.P,U_LATCH,4*%
%TO.N,D1*%
X103810000Y-79810000D03*
%TO.P,U_LATCH,5*%
%TO.N,DA1*%
X101270000Y-79810000D03*
%TO.P,U_LATCH,6*%
%TO.N,DA2*%
X98730000Y-79810000D03*
%TO.P,U_LATCH,7*%
%TO.N,D2*%
X96190000Y-79810000D03*
%TO.P,U_LATCH,8*%
%TO.N,D3*%
X93650000Y-79810000D03*
%TO.P,U_LATCH,9*%
%TO.N,DA3*%
X91110000Y-79810000D03*
%TO.P,U_LATCH,10*%
%TO.N,GND*%
X88570000Y-79810000D03*
%TO.P,U_LATCH,11*%
%TO.N,YM_LE*%
X88570000Y-72190000D03*
%TO.P,U_LATCH,12*%
%TO.N,DA4*%
X91110000Y-72190000D03*
%TO.P,U_LATCH,13*%
%TO.N,D4*%
X93650000Y-72190000D03*
%TO.P,U_LATCH,14*%
%TO.N,D5*%
X96190000Y-72190000D03*
%TO.P,U_LATCH,15*%
%TO.N,DA5*%
X98730000Y-72190000D03*
%TO.P,U_LATCH,16*%
%TO.N,DA6*%
X101270000Y-72190000D03*
%TO.P,U_LATCH,17*%
%TO.N,D6*%
X103810000Y-72190000D03*
%TO.P,U_LATCH,18*%
%TO.N,D7*%
X106350000Y-72190000D03*
%TO.P,U_LATCH,19*%
%TO.N,DA7*%
X108890000Y-72190000D03*
%TO.P,U_LATCH,20*%
%TO.N,VCC*%
X111430000Y-72190000D03*
%TD*%
D14*
%TO.P,U7,1*%
%TO.N,GND*%
X126000000Y-84250000D03*
%TD*%
%TO.P,U6,1*%
%TO.N,GND*%
X121000000Y-108500000D03*
%TD*%
D10*
%TO.P,R_SERIES,1*%
%TO.N,OPAMP_OUT*%
X112000000Y-101270000D03*
%TO.P,R_SERIES,2*%
%TO.N,CAP_PLUS*%
X112000000Y-98730000D03*
%TD*%
D15*
%TO.P,J1,1*%
%TO.N,RW*%
X78410000Y-136490000D03*
%TO.P,J1,2*%
%TO.N,HALT*%
X80950000Y-136490000D03*
%TO.P,J1,3*%
%TO.N,D3*%
X86030000Y-136490000D03*
%TO.P,J1,4*%
%TO.N,D4*%
X88570000Y-136490000D03*
%TO.P,J1,5*%
%TO.N,D5*%
X91110000Y-136490000D03*
%TO.P,J1,6*%
%TO.N,D6*%
X93650000Y-136490000D03*
%TO.P,J1,7*%
%TO.N,D7*%
X96190000Y-136490000D03*
%TO.P,J1,8*%
%TO.N,A12*%
X98730000Y-136490000D03*
%TO.P,J1,9*%
%TO.N,A10*%
X101270000Y-136490000D03*
%TO.P,J1,10*%
%TO.N,A11*%
X103810000Y-136490000D03*
%TO.P,J1,11*%
%TO.N,A9*%
X106350000Y-136490000D03*
%TO.P,J1,12*%
%TO.N,A8*%
X108890000Y-136490000D03*
%TO.P,J1,13*%
%TO.N,VCC*%
X111430000Y-136490000D03*
%TO.P,J1,14*%
%TO.N,GND*%
X113970000Y-136490000D03*
%TO.P,J1,15*%
%TO.N,A13*%
X119050000Y-136490000D03*
%TO.P,J1,16*%
%TO.N,A14*%
X121590000Y-136490000D03*
%TD*%
D11*
%TO.P,JP2,1*%
%TO.N,VCC*%
X118000000Y-123950000D03*
%TO.P,JP2,2*%
%TO.N,ROM_ADDR14*%
X118000000Y-122750000D03*
%TO.P,JP2,3*%
%TO.N,A14*%
X118000000Y-121550000D03*
%TD*%
D10*
%TO.P,R_RESET,1*%
%TO.N,VCC*%
X104730000Y-87500000D03*
%TO.P,R_RESET,2*%
%TO.N,RESET_DELAYED*%
X107270000Y-87500000D03*
%TD*%
D12*
%TO.P,U_AMP,1*%
%TO.N,OPAMP_OUT*%
X103810000Y-96190000D03*
D13*
%TO.P,U_AMP,2*%
%TO.N,SUM_NODE*%
X101270000Y-96190000D03*
%TO.P,U_AMP,3*%
%TO.N,GND*%
X98730000Y-96190000D03*
%TO.P,U_AMP,4*%
X96190000Y-96190000D03*
%TO.P,U_AMP,5*%
X96190000Y-103810000D03*
%TO.P,U_AMP,6*%
%TO.N,AMP_UNUSED_FB*%
X98730000Y-103810000D03*
%TO.P,U_AMP,7*%
X101270000Y-103810000D03*
%TO.P,U_AMP,8*%
%TO.N,VCC*%
X103810000Y-103810000D03*
%TD*%
D12*
%TO.P,U_ROM,1*%
%TO.N,ROM_VPP*%
X114510000Y-110630000D03*
D13*
%TO.P,U_ROM,2*%
%TO.N,A12*%
X111970000Y-110630000D03*
%TO.P,U_ROM,3*%
%TO.N,A7*%
X109430000Y-110630000D03*
%TO.P,U_ROM,4*%
%TO.N,A6*%
X106890000Y-110630000D03*
%TO.P,U_ROM,5*%
%TO.N,A5*%
X104350000Y-110630000D03*
%TO.P,U_ROM,6*%
%TO.N,A4*%
X101810000Y-110630000D03*
%TO.P,U_ROM,7*%
%TO.N,A3*%
X99270000Y-110630000D03*
%TO.P,U_ROM,8*%
%TO.N,A2*%
X96730000Y-110630000D03*
%TO.P,U_ROM,9*%
%TO.N,A1*%
X94190000Y-110630000D03*
%TO.P,U_ROM,10*%
%TO.N,A0*%
X91650000Y-110630000D03*
%TO.P,U_ROM,11*%
%TO.N,D0*%
X89110000Y-110630000D03*
%TO.P,U_ROM,12*%
%TO.N,D1*%
X86570000Y-110630000D03*
%TO.P,U_ROM,13*%
%TO.N,D2*%
X84030000Y-110630000D03*
%TO.P,U_ROM,14*%
%TO.N,GND*%
X81490000Y-110630000D03*
%TO.P,U_ROM,15*%
%TO.N,D3*%
X81490000Y-125870000D03*
%TO.P,U_ROM,16*%
%TO.N,D4*%
X84030000Y-125870000D03*
%TO.P,U_ROM,17*%
%TO.N,D5*%
X86570000Y-125870000D03*
%TO.P,U_ROM,18*%
%TO.N,D6*%
X89110000Y-125870000D03*
%TO.P,U_ROM,19*%
%TO.N,D7*%
X91650000Y-125870000D03*
%TO.P,U_ROM,20*%
%TO.N,ROM_CE*%
X94190000Y-125870000D03*
%TO.P,U_ROM,21*%
%TO.N,A10*%
X96730000Y-125870000D03*
%TO.P,U_ROM,22*%
%TO.N,GND*%
X99270000Y-125870000D03*
%TO.P,U_ROM,23*%
%TO.N,A11*%
X101810000Y-125870000D03*
%TO.P,U_ROM,24*%
%TO.N,A9*%
X104350000Y-125870000D03*
%TO.P,U_ROM,25*%
%TO.N,A8*%
X106890000Y-125870000D03*
%TO.P,U_ROM,26*%
%TO.N,A13*%
X109430000Y-125870000D03*
%TO.P,U_ROM,27*%
%TO.N,ROM_ADDR14*%
X111970000Y-125870000D03*
%TO.P,U_ROM,28*%
%TO.N,VCC*%
X114510000Y-125870000D03*
%TD*%
D10*
%TO.P,C_ROM,1*%
%TO.N,VCC*%
X118000000Y-116980000D03*
%TO.P,C_ROM,2*%
%TO.N,GND*%
X118000000Y-119520000D03*
%TD*%
%TO.P,C_GAL,1*%
%TO.N,VCC*%
X112500000Y-119520000D03*
%TO.P,C_GAL,2*%
%TO.N,GND*%
X112500000Y-116980000D03*
%TD*%
%TO.P,R_FB,1*%
%TO.N,SUM_NODE*%
X92000000Y-101270000D03*
%TO.P,R_FB,2*%
%TO.N,OPAMP_OUT*%
X92000000Y-98730000D03*
%TD*%
%TO.P,R_YM_AUDIOB,1*%
%TO.N,ANALOG_B*%
X80730000Y-87500000D03*
%TO.P,R_YM_AUDIOB,2*%
%TO.N,SUM_NODE*%
X83270000Y-87500000D03*
%TD*%
%TO.P,R_YM_AUDIOA,1*%
%TO.N,ANALOG_A*%
X92730000Y-87500000D03*
%TO.P,R_YM_AUDIOA,2*%
%TO.N,SUM_NODE*%
X95270000Y-87500000D03*
%TD*%
D16*
%TO.N,VCC*%
X114247100Y-130374600D03*
%TO.N,A15*%
X107546800Y-120294700D03*
%TO.N,BC1*%
X91696200Y-85011600D03*
%TO.N,DA5*%
X99225300Y-81832700D03*
%TO.N,DA4*%
X100473100Y-82132900D03*
%TO.N,HALT*%
X79376200Y-123892100D03*
X84943300Y-112917800D03*
%TO.N,RW*%
X78960000Y-132178300D03*
X84834200Y-124688700D03*
%TO.N,PHI2*%
X84720000Y-123751600D03*
%TO.N,D0*%
X102867100Y-85161600D03*
X88452400Y-85642400D03*
%TO.N,D1*%
X90660900Y-100577600D03*
%TO.N,D2*%
X84760300Y-85243400D03*
%TO.N,D4*%
X87902800Y-75608600D03*
%TO.N,D6*%
X82013400Y-85157700D03*
X84742100Y-112037100D03*
X82097200Y-108892000D03*
X89762700Y-120533400D03*
%TO.N,D7*%
X81078100Y-99617600D03*
X89187500Y-117429400D03*
X79572000Y-80082000D03*
X86372600Y-112763900D03*
%TO.N,A12*%
X112750300Y-121745200D03*
X113869600Y-112665700D03*
X114483600Y-120156300D03*
%TO.N,A6*%
X114777000Y-124045200D03*
X118792000Y-120513000D03*
X111956800Y-127349900D03*
%TO.N,A2*%
X100142700Y-124318100D03*
X101335300Y-130046700D03*
X97742800Y-117301800D03*
%TD*%
%TO.N,VCC*%
D17*
X118000000Y-116980000D02*
X118000000Y-114950000D01*
X88000000Y-101270000D02*
X85469800Y-98739800D01*
X104913500Y-102706500D02*
X103810000Y-103810000D01*
X109430000Y-114440000D02*
X109430000Y-116450000D01*
X104913500Y-87683500D02*
X104913500Y-102706500D01*
X114247100Y-130374600D02*
X111933400Y-132688300D01*
X104730000Y-87500000D02*
X104913500Y-87683500D01*
X102993300Y-85763300D02*
X104730000Y-87500000D01*
X85469800Y-98739800D02*
X85469800Y-85059800D01*
X91650000Y-83620000D02*
X93793300Y-85763300D01*
X111430000Y-72190000D02*
X107478500Y-76141500D01*
X107478500Y-80289900D02*
X105620000Y-82148400D01*
X111430000Y-136490000D02*
X111430000Y-132688300D01*
X116430000Y-123950000D02*
X114510000Y-125870000D01*
X93793300Y-85763300D02*
X102993300Y-85763300D01*
X85469800Y-85059800D02*
X84030000Y-83620000D01*
X105620000Y-82148400D02*
X105620000Y-86610000D01*
X107478500Y-76141500D02*
X107478500Y-80289900D01*
X122130000Y-77600000D02*
X125000000Y-74730000D01*
X118000000Y-123950000D02*
X116430000Y-123950000D01*
X109430000Y-116450000D02*
X112500000Y-119520000D01*
X122130000Y-83620000D02*
X122130000Y-77600000D01*
X111933400Y-132688300D02*
X111430000Y-132688300D01*
X105620000Y-86610000D02*
X104730000Y-87500000D01*
%TO.N,SUM_NODE*%
X89270000Y-98335800D02*
X89270000Y-87500000D01*
X92000000Y-101270000D02*
X92000000Y-101065800D01*
X92000000Y-101065800D02*
X89270000Y-98335800D01*
%TO.N,ROM_VPP*%
X114880000Y-111731700D02*
X114510000Y-111731700D01*
X116898300Y-113750000D02*
X114880000Y-111731700D01*
X114510000Y-110630000D02*
X114510000Y-111731700D01*
X118000000Y-113750000D02*
X116898300Y-113750000D01*
%TO.N,A15*%
X113381600Y-110790100D02*
X113381600Y-109719300D01*
X113381600Y-109719300D02*
X113572600Y-109528300D01*
X108160000Y-114078500D02*
X110506800Y-111731700D01*
X113572600Y-109528300D02*
X115680000Y-109528300D01*
X115680000Y-109528300D02*
X118000000Y-111848300D01*
X107546800Y-120294700D02*
X108160000Y-119681500D01*
X112440000Y-111731700D02*
X113381600Y-110790100D01*
X118000000Y-112550000D02*
X118000000Y-111848300D01*
X110506800Y-111731700D02*
X112440000Y-111731700D01*
X108160000Y-119681500D02*
X108160000Y-114078500D01*
%TO.N,ANALOG_A*%
X100570200Y-83225200D02*
X100570200Y-83930600D01*
X93088300Y-84098200D02*
X93088300Y-83456100D01*
X110160000Y-72542300D02*
X105248300Y-77454000D01*
X100570200Y-83930600D02*
X99708900Y-84791900D01*
X92132900Y-82500700D02*
X91161000Y-82500700D01*
X103903100Y-81281600D02*
X102513800Y-81281600D01*
X91161000Y-82500700D02*
X90513500Y-83148200D01*
X105248300Y-77454000D02*
X105248300Y-79936400D01*
X105248300Y-79936400D02*
X103903100Y-81281600D01*
X90513500Y-83148200D02*
X90513500Y-85283500D01*
X93782000Y-84791900D02*
X93088300Y-84098200D01*
X110160000Y-71857200D02*
X110160000Y-72542300D01*
X102513800Y-81281600D02*
X100570200Y-83225200D01*
X90513500Y-85283500D02*
X92730000Y-87500000D01*
X114510000Y-68380000D02*
X113637200Y-68380000D01*
X93088300Y-83456100D02*
X92132900Y-82500700D01*
X99708900Y-84791900D02*
X93782000Y-84791900D01*
X113637200Y-68380000D02*
X110160000Y-71857200D01*
%TO.N,BDIR*%
X91000100Y-93071400D02*
X91000100Y-86771000D01*
X99858500Y-104039600D02*
X99858500Y-101929800D01*
X89110000Y-84880900D02*
X89110000Y-83620000D01*
X104350000Y-114440000D02*
X103080000Y-113170000D01*
X103080000Y-107261100D02*
X99858500Y-104039600D01*
X99858500Y-101929800D02*
X91000100Y-93071400D01*
X103080000Y-113170000D02*
X103080000Y-107261100D01*
X91000100Y-86771000D02*
X89110000Y-84880900D01*
%TO.N,BC1*%
X95421300Y-86190100D02*
X102398500Y-93167300D01*
X92874700Y-86190100D02*
X95421300Y-86190100D01*
X102913800Y-115543800D02*
X101810000Y-114440000D01*
X105488200Y-114887200D02*
X104831600Y-115543800D01*
X104831600Y-115543800D02*
X102913800Y-115543800D01*
X102398500Y-93167300D02*
X102398500Y-104028700D01*
X102398500Y-104028700D02*
X105488200Y-107118400D01*
X105488200Y-107118400D02*
X105488200Y-114887200D01*
X91696200Y-85011600D02*
X92874700Y-86190100D01*
%TO.N,DA6*%
X99871400Y-73588600D02*
X99871400Y-83018600D01*
X99871400Y-83018600D02*
X99270000Y-83620000D01*
X101270000Y-72190000D02*
X99871400Y-73588600D01*
%TO.N,DA5*%
X97618700Y-80334900D02*
X97618700Y-73301300D01*
X99116500Y-81832700D02*
X97618700Y-80334900D01*
X97618700Y-73301300D02*
X98730000Y-72190000D01*
X99225300Y-81832700D02*
X99116500Y-81832700D01*
%TO.N,DA4*%
X100473100Y-82132900D02*
X100544000Y-82132900D01*
X92232500Y-71067500D02*
X91110000Y-72190000D01*
X100544000Y-82132900D02*
X102376700Y-80300200D01*
X102376700Y-71682600D02*
X101761600Y-71067500D01*
X102376700Y-80300200D02*
X102376700Y-71682600D01*
X101761600Y-71067500D02*
X92232500Y-71067500D01*
%TO.N,A14*%
X121590000Y-124038300D02*
X121590000Y-136490000D01*
X119101700Y-121550000D02*
X121590000Y-124038300D01*
X118000000Y-121550000D02*
X119101700Y-121550000D01*
X105452700Y-120957300D02*
X104350000Y-122060000D01*
X118000000Y-121550000D02*
X116898300Y-121550000D01*
X116305600Y-120957300D02*
X105452700Y-120957300D01*
X116898300Y-121550000D02*
X116305600Y-120957300D01*
%TO.N,A0*%
X101810000Y-122060000D02*
X101650200Y-122060000D01*
X95460000Y-115869800D02*
X95460000Y-114119300D01*
X101650200Y-122060000D02*
X95460000Y-115869800D01*
X95460000Y-114119300D02*
X91970700Y-110630000D01*
X91970700Y-110630000D02*
X91650000Y-110630000D01*
%TO.N,HALT*%
X79376200Y-123892100D02*
X79376200Y-126636200D01*
X79376200Y-126636200D02*
X80950000Y-128210000D01*
X90474800Y-119933200D02*
X84943300Y-114401700D01*
X97143200Y-119933200D02*
X90474800Y-119933200D01*
X99270000Y-122060000D02*
X97143200Y-119933200D01*
X80950000Y-128210000D02*
X80950000Y-136490000D01*
X84943300Y-114401700D02*
X84943300Y-112917800D01*
%TO.N,RW*%
X78410000Y-136490000D02*
X78410000Y-132688300D01*
X96730000Y-122060000D02*
X94101300Y-124688700D01*
X78960000Y-132178300D02*
X78450000Y-132688300D01*
X78450000Y-132688300D02*
X78410000Y-132688300D01*
X94101300Y-124688700D02*
X84834200Y-124688700D01*
%TO.N,PHI2*%
X84720000Y-123751600D02*
X92498400Y-123751600D01*
X92498400Y-123751600D02*
X94190000Y-122060000D01*
%TO.N,YM_LE*%
X90271700Y-94088300D02*
X90271700Y-87085000D01*
X87800100Y-80598100D02*
X87463100Y-80261100D01*
X89054200Y-85867500D02*
X89054200Y-85393100D01*
X88570000Y-75792300D02*
X88570000Y-72190000D01*
X90271700Y-87085000D02*
X89054200Y-85867500D01*
X87463100Y-80261100D02*
X87463100Y-76899200D01*
X87463100Y-76899200D02*
X88570000Y-75792300D01*
X93001700Y-96818300D02*
X90271700Y-94088300D01*
X95601600Y-113311600D02*
X95601600Y-108045400D01*
X87800100Y-84139000D02*
X87800100Y-80598100D01*
X96730000Y-114440000D02*
X95601600Y-113311600D01*
X93001700Y-105445500D02*
X93001700Y-96818300D01*
X95601600Y-108045400D02*
X93001700Y-105445500D01*
X89054200Y-85393100D02*
X87800100Y-84139000D01*
%TO.N,ROM_CE*%
X96851000Y-123209000D02*
X94190000Y-125870000D01*
X102284200Y-123209000D02*
X96851000Y-123209000D01*
X106890000Y-114440000D02*
X103080000Y-118250000D01*
X103080000Y-118250000D02*
X103080000Y-122413200D01*
X103080000Y-122413200D02*
X102284200Y-123209000D01*
%TO.N,D0*%
X89110000Y-100961400D02*
X89110000Y-110630000D01*
X88000000Y-96399800D02*
X86983500Y-97416300D01*
X103248300Y-82911700D02*
X103248300Y-84780400D01*
X88452400Y-85642400D02*
X88000000Y-86094800D01*
X106350000Y-79810000D02*
X103248300Y-82911700D01*
X86983500Y-99188700D02*
X87882500Y-100087700D01*
X88000000Y-86094800D02*
X88000000Y-96399800D01*
X87882500Y-100087700D02*
X88236300Y-100087700D01*
X103248300Y-84780400D02*
X102867100Y-85161600D01*
X86983500Y-97416300D02*
X86983500Y-99188700D01*
X88236300Y-100087700D02*
X89110000Y-100961400D01*
%TO.N,D1*%
X90526500Y-110833200D02*
X90526500Y-100712000D01*
X87699000Y-111759000D02*
X89600700Y-111759000D01*
X86570000Y-110630000D02*
X87699000Y-111759000D01*
X89600700Y-111759000D02*
X90526500Y-110833200D01*
X90526500Y-100712000D02*
X90660900Y-100577600D01*
%TO.N,D2*%
X84030000Y-110630000D02*
X84760300Y-109899700D01*
X84760300Y-109899700D02*
X84760300Y-85243400D01*
%TO.N,D3*%
X81300700Y-88346000D02*
X81731700Y-87915000D01*
X80315300Y-78877700D02*
X88142700Y-71050300D01*
X81490000Y-125870000D02*
X80352200Y-124732200D01*
X89038700Y-71050300D02*
X89840000Y-71851600D01*
X89840000Y-71851600D02*
X89840000Y-76000000D01*
X89840000Y-76000000D02*
X93650000Y-79810000D01*
X81679800Y-107498900D02*
X81679800Y-99368400D01*
X80352200Y-124732200D02*
X80352200Y-108826500D01*
X81731700Y-87085000D02*
X80315300Y-85668600D01*
X81731700Y-87915000D02*
X81731700Y-87085000D01*
X80352200Y-108826500D02*
X81679800Y-107498900D01*
X88142700Y-71050300D02*
X89038700Y-71050300D01*
X86030000Y-130410000D02*
X86030000Y-136490000D01*
X81679800Y-99368400D02*
X81300700Y-98989300D01*
X81490000Y-125870000D02*
X86030000Y-130410000D01*
X80315300Y-85668600D02*
X80315300Y-78877700D01*
X81300700Y-98989300D02*
X81300700Y-88346000D01*
%TO.N,D4*%
X84315200Y-86610700D02*
X82857200Y-85152700D01*
X84030000Y-125870000D02*
X88570000Y-130410000D01*
X82918700Y-124758700D02*
X82918700Y-93291900D01*
X84315200Y-91895400D02*
X84315200Y-86610700D01*
X82857200Y-85152700D02*
X82857200Y-80654200D01*
X82857200Y-80654200D02*
X87902800Y-75608600D01*
X84030000Y-125870000D02*
X82918700Y-124758700D01*
X88570000Y-130410000D02*
X88570000Y-136490000D01*
X82918700Y-93291900D02*
X84315200Y-91895400D01*
%TO.N,D5*%
X91110000Y-130410000D02*
X86570000Y-125870000D01*
X91110000Y-136490000D02*
X91110000Y-130410000D01*
%TO.N,D6*%
X93650000Y-130410000D02*
X93650000Y-136490000D01*
X82133400Y-85277700D02*
X82013400Y-85157700D01*
X82097200Y-99217800D02*
X81762500Y-98883100D01*
X84341600Y-112437600D02*
X84742100Y-112037100D01*
X82097200Y-108892000D02*
X82097200Y-99217800D01*
X89762700Y-120533400D02*
X84341600Y-115112300D01*
X84341600Y-115112300D02*
X84341600Y-112437600D01*
X81762500Y-88452200D02*
X82133400Y-88081300D01*
X89110000Y-125870000D02*
X93650000Y-130410000D01*
X82133400Y-88081300D02*
X82133400Y-85277700D01*
X81762500Y-98883100D02*
X81762500Y-88452200D01*
%TO.N,D7*%
X80763800Y-90644900D02*
X77798200Y-87679300D01*
X77798200Y-87679300D02*
X77798200Y-81855800D01*
X96190000Y-130410000D02*
X96190000Y-136490000D01*
X87840000Y-114119900D02*
X86484000Y-112763900D01*
X86484000Y-112763900D02*
X86372600Y-112763900D01*
X89187500Y-117429400D02*
X87840000Y-116081900D01*
X91650000Y-125870000D02*
X96190000Y-130410000D01*
X81078100Y-99617600D02*
X80763800Y-99303300D01*
X87840000Y-116081900D02*
X87840000Y-114119900D01*
X77798200Y-81855800D02*
X79572000Y-80082000D01*
X80763800Y-99303300D02*
X80763800Y-90644900D01*
%TO.N,A12*%
X95627100Y-129041800D02*
X98730000Y-132144700D01*
X98730000Y-132144700D02*
X98730000Y-136490000D01*
X95627100Y-125314800D02*
X95627100Y-129041800D01*
X113869600Y-112665700D02*
X113869600Y-119542300D01*
X112750300Y-121745200D02*
X110884800Y-123610700D01*
X97331200Y-123610700D02*
X95627100Y-125314800D01*
X110884800Y-123610700D02*
X97331200Y-123610700D01*
X113869600Y-119542300D02*
X114483600Y-120156300D01*
%TO.N,A10*%
X96730000Y-125870000D02*
X96730000Y-126292200D01*
X101270000Y-130832200D02*
X101270000Y-136490000D01*
X96730000Y-126292200D02*
X101270000Y-130832200D01*
%TO.N,A11*%
X101810000Y-125870000D02*
X103810000Y-127870000D01*
X103810000Y-127870000D02*
X103810000Y-136490000D01*
%TO.N,A9*%
X104350000Y-125870000D02*
X106350000Y-127870000D01*
X106350000Y-127870000D02*
X106350000Y-136490000D01*
%TO.N,A8*%
X106890000Y-125870000D02*
X108890000Y-127870000D01*
X108890000Y-127870000D02*
X108890000Y-136490000D01*
%TO.N,A13*%
X112842700Y-129282700D02*
X117207200Y-129282700D01*
X119050000Y-131125500D02*
X119050000Y-136490000D01*
X109430000Y-125870000D02*
X112842700Y-129282700D01*
X117207200Y-129282700D02*
X119050000Y-131125500D01*
%TO.N,A6*%
X119101700Y-120203300D02*
X118792000Y-120513000D01*
X106890000Y-110630000D02*
X108408900Y-109111100D01*
X119101700Y-111963900D02*
X119101700Y-120203300D01*
X113381600Y-126046200D02*
X112077900Y-127349900D01*
X114777000Y-124045200D02*
X114675200Y-124045200D01*
X113381600Y-125338800D02*
X113381600Y-126046200D01*
X116248900Y-109111100D02*
X119101700Y-111963900D01*
X114675200Y-124045200D02*
X113381600Y-125338800D01*
X112077900Y-127349900D02*
X111956800Y-127349900D01*
X108408900Y-109111100D02*
X116248900Y-109111100D01*
%TO.N,A2*%
X100540000Y-124715400D02*
X100540000Y-129251400D01*
X100142700Y-124318100D02*
X100540000Y-124715400D01*
X96730000Y-110630000D02*
X97831700Y-111731700D01*
X97831700Y-117212900D02*
X97742800Y-117301800D01*
X97831700Y-111731700D02*
X97831700Y-117212900D01*
X100540000Y-129251400D02*
X101335300Y-130046700D01*
%TO.N,ROM_ADDR14*%
X118000000Y-122750000D02*
X115090000Y-122750000D01*
X115090000Y-122750000D02*
X111970000Y-125870000D01*
%TD*%
%TA.AperFunction,Conductor*%
%TO.N,GND*%
G36*
X129778326Y-60221674D02*
G01*
X129800000Y-60274000D01*
X129800000Y-90226000D01*
X129778326Y-90278326D01*
X129726000Y-90300000D01*
X120640000Y-90300000D01*
X120626994Y-90301281D01*
X120600980Y-90303843D01*
X120578218Y-90310748D01*
X120563463Y-90315224D01*
X120563461Y-90315224D01*
X120563461Y-90315225D01*
X120528887Y-90333705D01*
X120528883Y-90333708D01*
X120498579Y-90358579D01*
X120473708Y-90388883D01*
X120473705Y-90388887D01*
X120455225Y-90423461D01*
X120443843Y-90460980D01*
X120440000Y-90500001D01*
X120440000Y-100356000D01*
X120418326Y-100408326D01*
X120366000Y-100430000D01*
X119050000Y-100430000D01*
X119036994Y-100431281D01*
X119010980Y-100433843D01*
X118995603Y-100438508D01*
X118973463Y-100445224D01*
X118973461Y-100445224D01*
X118973461Y-100445225D01*
X118938887Y-100463705D01*
X118938883Y-100463708D01*
X118908579Y-100488579D01*
X118883708Y-100518883D01*
X118883705Y-100518887D01*
X118865225Y-100553461D01*
X118853843Y-100590980D01*
X118853843Y-100590982D01*
X118850000Y-100630000D01*
X118850000Y-105080000D01*
X118853843Y-105119018D01*
X118865224Y-105156537D01*
X118883706Y-105191114D01*
X118908579Y-105221421D01*
X118938886Y-105246294D01*
X118973463Y-105264776D01*
X119010982Y-105276157D01*
X119050000Y-105280000D01*
X120366000Y-105280000D01*
X120418326Y-105301674D01*
X120440000Y-105354000D01*
X120440000Y-107000000D01*
X120443843Y-107039018D01*
X120455224Y-107076537D01*
X120473706Y-107111114D01*
X120498579Y-107141421D01*
X120528886Y-107166294D01*
X120563463Y-107184776D01*
X120600982Y-107196157D01*
X120640000Y-107200000D01*
X123226000Y-107200000D01*
X123278326Y-107221674D01*
X123300000Y-107274000D01*
X123300000Y-139726000D01*
X123278326Y-139778326D01*
X123226000Y-139800000D01*
X122864500Y-139800000D01*
X122812174Y-139778326D01*
X122790500Y-139726000D01*
X122790500Y-132970246D01*
X122790356Y-132968783D01*
X122790000Y-132961536D01*
X122790000Y-132790000D01*
X122618464Y-132790000D01*
X122611217Y-132789644D01*
X122609754Y-132789500D01*
X122609748Y-132789500D01*
X121964500Y-132789500D01*
X121912174Y-132767826D01*
X121890500Y-132715500D01*
X121890500Y-123998736D01*
X121876072Y-123944894D01*
X121876071Y-123944889D01*
X121870023Y-123922316D01*
X121870023Y-123922314D01*
X121867301Y-123917600D01*
X121830460Y-123853789D01*
X119286211Y-121309540D01*
X119232981Y-121278808D01*
X119232979Y-121278805D01*
X119217694Y-121269981D01*
X119217685Y-121269977D01*
X119141264Y-121249500D01*
X119141262Y-121249500D01*
X119074500Y-121249500D01*
X119048605Y-121238774D01*
X119022661Y-121228308D01*
X119022518Y-121227968D01*
X119022174Y-121227826D01*
X119000503Y-121176186D01*
X119000500Y-121175862D01*
X119000500Y-121130252D01*
X119000056Y-121128023D01*
X119000003Y-121122222D01*
X119000030Y-121122154D01*
X119000000Y-121121536D01*
X119000000Y-121013562D01*
X119021674Y-120961236D01*
X119036998Y-120949478D01*
X119099314Y-120913500D01*
X119192500Y-120820314D01*
X119258392Y-120706186D01*
X119292499Y-120578894D01*
X119292500Y-120578894D01*
X119292500Y-120468121D01*
X119314172Y-120415797D01*
X119342160Y-120387811D01*
X119364287Y-120349486D01*
X119381721Y-120319289D01*
X119402199Y-120242864D01*
X119402200Y-120242864D01*
X119402200Y-111924336D01*
X119402199Y-111924335D01*
X119381722Y-111847914D01*
X119381720Y-111847909D01*
X119367439Y-111823174D01*
X119342160Y-111779389D01*
X119286211Y-111723440D01*
X116433411Y-108870640D01*
X116379081Y-108839273D01*
X116379081Y-108839271D01*
X116379078Y-108839271D01*
X116364894Y-108831081D01*
X116364885Y-108831077D01*
X116288464Y-108810600D01*
X116288462Y-108810600D01*
X108369338Y-108810600D01*
X108369336Y-108810600D01*
X108292914Y-108831077D01*
X108292907Y-108831080D01*
X108278720Y-108839272D01*
X108278719Y-108839273D01*
X108224388Y-108870640D01*
X107390211Y-109704816D01*
X107337885Y-109726490D01*
X107309567Y-109720857D01*
X107181839Y-109667950D01*
X107181829Y-109667947D01*
X107052388Y-109642200D01*
X106988541Y-109629500D01*
X106791459Y-109629500D01*
X106736662Y-109640399D01*
X106598170Y-109667947D01*
X106598160Y-109667950D01*
X106416086Y-109743367D01*
X106252218Y-109852860D01*
X106252217Y-109852862D01*
X106112862Y-109992217D01*
X106112860Y-109992218D01*
X106003367Y-110156086D01*
X105931067Y-110330637D01*
X105891019Y-110370686D01*
X105834382Y-110370686D01*
X105794333Y-110330638D01*
X105788700Y-110302319D01*
X105788700Y-107078838D01*
X105773106Y-107020640D01*
X105773106Y-107020639D01*
X105771885Y-107016083D01*
X105768222Y-107002412D01*
X105728660Y-106933889D01*
X103731597Y-104936826D01*
X103709923Y-104884500D01*
X103731597Y-104832174D01*
X103783923Y-104810500D01*
X103908539Y-104810500D01*
X103908541Y-104810500D01*
X104101835Y-104772051D01*
X104283914Y-104696632D01*
X104447782Y-104587139D01*
X104587139Y-104447782D01*
X104696632Y-104283914D01*
X104772051Y-104101835D01*
X104810500Y-103908541D01*
X104810500Y-103711459D01*
X104772051Y-103518165D01*
X104771008Y-103515647D01*
X104719142Y-103390430D01*
X104719142Y-103333793D01*
X104735180Y-103309789D01*
X105153960Y-102891011D01*
X105193522Y-102822488D01*
X105214000Y-102746062D01*
X105214000Y-102666938D01*
X105214000Y-101181310D01*
X107099500Y-101181310D01*
X107099500Y-101358689D01*
X107134104Y-101532660D01*
X107134107Y-101532670D01*
X107201985Y-101696544D01*
X107234555Y-101745289D01*
X107300536Y-101844035D01*
X107425965Y-101969464D01*
X107573453Y-102068013D01*
X107573454Y-102068013D01*
X107573455Y-102068014D01*
X107737329Y-102135892D01*
X107737334Y-102135894D01*
X107911309Y-102170500D01*
X107911311Y-102170500D01*
X108088689Y-102170500D01*
X108088691Y-102170500D01*
X108262666Y-102135894D01*
X108426547Y-102068013D01*
X108574035Y-101969464D01*
X108699464Y-101844035D01*
X108798013Y-101696547D01*
X108865894Y-101532666D01*
X108900500Y-101358691D01*
X108900500Y-101181310D01*
X111099500Y-101181310D01*
X111099500Y-101358689D01*
X111134104Y-101532660D01*
X111134107Y-101532670D01*
X111201985Y-101696544D01*
X111234555Y-101745289D01*
X111300536Y-101844035D01*
X111425965Y-101969464D01*
X111573453Y-102068013D01*
X111573454Y-102068013D01*
X111573455Y-102068014D01*
X111737329Y-102135892D01*
X111737334Y-102135894D01*
X111911309Y-102170500D01*
X111911311Y-102170500D01*
X112088689Y-102170500D01*
X112088691Y-102170500D01*
X112262666Y-102135894D01*
X112426547Y-102068013D01*
X112574035Y-101969464D01*
X112699464Y-101844035D01*
X112798013Y-101696547D01*
X112865894Y-101532666D01*
X112900500Y-101358691D01*
X112900500Y-101181310D01*
X115099500Y-101181310D01*
X115099500Y-101358689D01*
X115134104Y-101532660D01*
X115134107Y-101532670D01*
X115201985Y-101696544D01*
X115234555Y-101745289D01*
X115300536Y-101844035D01*
X115425965Y-101969464D01*
X115573453Y-102068013D01*
X115573454Y-102068013D01*
X115573455Y-102068014D01*
X115737329Y-102135892D01*
X115737334Y-102135894D01*
X115911309Y-102170500D01*
X115911311Y-102170500D01*
X116088689Y-102170500D01*
X116088691Y-102170500D01*
X116262666Y-102135894D01*
X116426547Y-102068013D01*
X116574035Y-101969464D01*
X116699464Y-101844035D01*
X116798013Y-101696547D01*
X116865894Y-101532666D01*
X116900500Y-101358691D01*
X116900500Y-101181309D01*
X116865894Y-101007334D01*
X116798013Y-100843453D01*
X116699464Y-100695965D01*
X116574035Y-100570536D01*
X116496737Y-100518887D01*
X116426544Y-100471985D01*
X116262670Y-100404107D01*
X116262660Y-100404104D01*
X116146156Y-100380930D01*
X116088691Y-100369500D01*
X115911309Y-100369500D01*
X115861989Y-100379310D01*
X115737339Y-100404104D01*
X115737329Y-100404107D01*
X115573455Y-100471985D01*
X115425968Y-100570533D01*
X115300533Y-100695968D01*
X115201985Y-100843455D01*
X115134107Y-101007329D01*
X115134104Y-101007339D01*
X115099500Y-101181310D01*
X112900500Y-101181310D01*
X112900500Y-101181309D01*
X112865894Y-101007334D01*
X112798013Y-100843453D01*
X112699464Y-100695965D01*
X112574035Y-100570536D01*
X112496737Y-100518887D01*
X112426544Y-100471985D01*
X112262670Y-100404107D01*
X112262660Y-100404104D01*
X112146156Y-100380930D01*
X112088691Y-100369500D01*
X111911309Y-100369500D01*
X111861989Y-100379310D01*
X111737339Y-100404104D01*
X111737329Y-100404107D01*
X111573455Y-100471985D01*
X111425968Y-100570533D01*
X111300533Y-100695968D01*
X111201985Y-100843455D01*
X111134107Y-101007329D01*
X111134104Y-101007339D01*
X111099500Y-101181310D01*
X108900500Y-101181310D01*
X108900500Y-101181309D01*
X108865894Y-101007334D01*
X108798013Y-100843453D01*
X108699464Y-100695965D01*
X108574035Y-100570536D01*
X108496737Y-100518887D01*
X108426544Y-100471985D01*
X108262670Y-100404107D01*
X108262660Y-100404104D01*
X108146156Y-100380930D01*
X108088691Y-100369500D01*
X107911309Y-100369500D01*
X107861989Y-100379310D01*
X107737339Y-100404104D01*
X107737329Y-100404107D01*
X107573455Y-100471985D01*
X107425968Y-100570533D01*
X107300533Y-100695968D01*
X107201985Y-100843455D01*
X107134107Y-101007329D01*
X107134104Y-101007339D01*
X107099500Y-101181310D01*
X105214000Y-101181310D01*
X105214000Y-98641310D01*
X111099500Y-98641310D01*
X111099500Y-98818689D01*
X111134104Y-98992660D01*
X111134107Y-98992670D01*
X111201985Y-99156544D01*
X111201986Y-99156546D01*
X111201987Y-99156547D01*
X111300536Y-99304035D01*
X111425965Y-99429464D01*
X111573453Y-99528013D01*
X111573454Y-99528013D01*
X111573455Y-99528014D01*
X111737329Y-99595892D01*
X111737334Y-99595894D01*
X111911309Y-99630500D01*
X111911311Y-99630500D01*
X112088689Y-99630500D01*
X112088691Y-99630500D01*
X112262666Y-99595894D01*
X112426547Y-99528013D01*
X112574035Y-99429464D01*
X112699464Y-99304035D01*
X112798013Y-99156547D01*
X112865894Y-98992666D01*
X112900500Y-98818691D01*
X112900500Y-98641310D01*
X115099500Y-98641310D01*
X115099500Y-98818689D01*
X115134104Y-98992660D01*
X115134107Y-98992670D01*
X115201985Y-99156544D01*
X115201986Y-99156546D01*
X115201987Y-99156547D01*
X115300536Y-99304035D01*
X115425965Y-99429464D01*
X115573453Y-99528013D01*
X115573454Y-99528013D01*
X115573455Y-99528014D01*
X115737329Y-99595892D01*
X115737334Y-99595894D01*
X115911309Y-99630500D01*
X115911311Y-99630500D01*
X116088689Y-99630500D01*
X116088691Y-99630500D01*
X116262666Y-99595894D01*
X116426547Y-99528013D01*
X116574035Y-99429464D01*
X116699464Y-99304035D01*
X116798013Y-99156547D01*
X116865894Y-98992666D01*
X116900500Y-98818691D01*
X116900500Y-98641309D01*
X116865894Y-98467334D01*
X116859455Y-98451789D01*
X116798014Y-98303455D01*
X116699466Y-98155968D01*
X116699464Y-98155965D01*
X116574035Y-98030536D01*
X116426547Y-97931987D01*
X116426546Y-97931986D01*
X116426544Y-97931985D01*
X116262670Y-97864107D01*
X116262660Y-97864104D01*
X116146156Y-97840930D01*
X116088691Y-97829500D01*
X115911309Y-97829500D01*
X115861989Y-97839310D01*
X115737339Y-97864104D01*
X115737329Y-97864107D01*
X115573455Y-97931985D01*
X115425968Y-98030533D01*
X115300533Y-98155968D01*
X115201985Y-98303455D01*
X115134107Y-98467329D01*
X115134104Y-98467339D01*
X115099500Y-98641310D01*
X112900500Y-98641310D01*
X112900500Y-98641309D01*
X112865894Y-98467334D01*
X112859455Y-98451789D01*
X112798014Y-98303455D01*
X112699466Y-98155968D01*
X112699464Y-98155965D01*
X112574035Y-98030536D01*
X112426547Y-97931987D01*
X112426546Y-97931986D01*
X112426544Y-97931985D01*
X112262670Y-97864107D01*
X112262660Y-97864104D01*
X112146156Y-97840930D01*
X112088691Y-97829500D01*
X111911309Y-97829500D01*
X111861989Y-97839310D01*
X111737339Y-97864104D01*
X111737329Y-97864107D01*
X111573455Y-97931985D01*
X111425968Y-98030533D01*
X111300533Y-98155968D01*
X111201985Y-98303455D01*
X111134107Y-98467329D01*
X111134104Y-98467339D01*
X111099500Y-98641310D01*
X105214000Y-98641310D01*
X105214000Y-88299177D01*
X105235674Y-88246851D01*
X105246888Y-88237648D01*
X105280035Y-88215500D01*
X105304035Y-88199464D01*
X105429464Y-88074035D01*
X105528013Y-87926547D01*
X105595894Y-87762666D01*
X105630500Y-87588691D01*
X105630500Y-87411310D01*
X106369500Y-87411310D01*
X106369500Y-87588689D01*
X106404104Y-87762660D01*
X106404107Y-87762670D01*
X106471985Y-87926544D01*
X106569428Y-88072378D01*
X106570536Y-88074035D01*
X106695965Y-88199464D01*
X106843453Y-88298013D01*
X106843454Y-88298013D01*
X106843455Y-88298014D01*
X106969498Y-88350222D01*
X107007334Y-88365894D01*
X107181309Y-88400500D01*
X107181311Y-88400500D01*
X107358689Y-88400500D01*
X107358691Y-88400500D01*
X107532666Y-88365894D01*
X107696547Y-88298013D01*
X107844035Y-88199464D01*
X107969464Y-88074035D01*
X108068013Y-87926547D01*
X108135894Y-87762666D01*
X108170500Y-87588691D01*
X108170500Y-87411310D01*
X109829500Y-87411310D01*
X109829500Y-87588689D01*
X109864104Y-87762660D01*
X109864107Y-87762670D01*
X109931985Y-87926544D01*
X110029428Y-88072378D01*
X110030536Y-88074035D01*
X110155965Y-88199464D01*
X110303453Y-88298013D01*
X110303454Y-88298013D01*
X110303455Y-88298014D01*
X110429498Y-88350222D01*
X110467334Y-88365894D01*
X110641309Y-88400500D01*
X110641311Y-88400500D01*
X110818689Y-88400500D01*
X110818691Y-88400500D01*
X110992666Y-88365894D01*
X111156547Y-88298013D01*
X111304035Y-88199464D01*
X111429464Y-88074035D01*
X111528013Y-87926547D01*
X111595894Y-87762666D01*
X111630500Y-87588691D01*
X111630500Y-87411309D01*
X111595894Y-87237334D01*
X111528013Y-87073453D01*
X111429464Y-86925965D01*
X111304035Y-86800536D01*
X111292083Y-86792550D01*
X111156544Y-86701985D01*
X110992670Y-86634107D01*
X110992660Y-86634104D01*
X110876156Y-86610930D01*
X110818691Y-86599500D01*
X110641309Y-86599500D01*
X110591989Y-86609310D01*
X110467339Y-86634104D01*
X110467329Y-86634107D01*
X110303455Y-86701985D01*
X110155968Y-86800533D01*
X110030533Y-86925968D01*
X109931985Y-87073455D01*
X109864107Y-87237329D01*
X109864104Y-87237339D01*
X109829500Y-87411310D01*
X108170500Y-87411310D01*
X108170500Y-87411309D01*
X108135894Y-87237334D01*
X108068013Y-87073453D01*
X107969464Y-86925965D01*
X107844035Y-86800536D01*
X107832083Y-86792550D01*
X107696544Y-86701985D01*
X107532670Y-86634107D01*
X107532660Y-86634104D01*
X107416156Y-86610930D01*
X107358691Y-86599500D01*
X107181309Y-86599500D01*
X107131989Y-86609310D01*
X107007339Y-86634104D01*
X107007329Y-86634107D01*
X106843455Y-86701985D01*
X106695968Y-86800533D01*
X106570533Y-86925968D01*
X106471985Y-87073455D01*
X106404107Y-87237329D01*
X106404104Y-87237339D01*
X106369500Y-87411310D01*
X105630500Y-87411310D01*
X105630500Y-87411309D01*
X105595894Y-87237334D01*
X105562605Y-87156966D01*
X105562605Y-87100330D01*
X105578643Y-87076326D01*
X105860460Y-86794511D01*
X105890106Y-86743161D01*
X105899600Y-86726718D01*
X105899614Y-86726693D01*
X105899617Y-86726688D01*
X105900021Y-86725989D01*
X105920499Y-86649564D01*
X105920500Y-86649564D01*
X105920500Y-84213838D01*
X105942174Y-84161512D01*
X105994500Y-84139838D01*
X106046826Y-84161512D01*
X106056026Y-84172722D01*
X106080229Y-84208945D01*
X106112860Y-84257781D01*
X106252218Y-84397139D01*
X106416086Y-84506632D01*
X106591547Y-84579310D01*
X106598165Y-84582051D01*
X106791459Y-84620500D01*
X106791461Y-84620500D01*
X106988539Y-84620500D01*
X106988541Y-84620500D01*
X107181835Y-84582051D01*
X107363914Y-84506632D01*
X107527782Y-84397139D01*
X107667139Y-84257782D01*
X107776632Y-84093914D01*
X107852051Y-83911835D01*
X107890500Y-83718541D01*
X107890500Y-83521460D01*
X108429500Y-83521460D01*
X108429500Y-83718539D01*
X108467947Y-83911829D01*
X108467950Y-83911839D01*
X108543367Y-84093913D01*
X108652860Y-84257781D01*
X108792218Y-84397139D01*
X108956086Y-84506632D01*
X109131547Y-84579310D01*
X109138165Y-84582051D01*
X109331459Y-84620500D01*
X109331461Y-84620500D01*
X109528539Y-84620500D01*
X109528541Y-84620500D01*
X109721835Y-84582051D01*
X109903914Y-84506632D01*
X110067782Y-84397139D01*
X110207139Y-84257782D01*
X110316632Y-84093914D01*
X110392051Y-83911835D01*
X110430500Y-83718541D01*
X110430500Y-83521460D01*
X110969500Y-83521460D01*
X110969500Y-83718539D01*
X111007947Y-83911829D01*
X111007950Y-83911839D01*
X111083367Y-84093913D01*
X111192860Y-84257781D01*
X111332218Y-84397139D01*
X111496086Y-84506632D01*
X111671547Y-84579310D01*
X111678165Y-84582051D01*
X111871459Y-84620500D01*
X111871461Y-84620500D01*
X112068539Y-84620500D01*
X112068541Y-84620500D01*
X112261835Y-84582051D01*
X112443914Y-84506632D01*
X112607782Y-84397139D01*
X112747139Y-84257782D01*
X112856632Y-84093914D01*
X112932051Y-83911835D01*
X112970500Y-83718541D01*
X112970500Y-83521460D01*
X113509500Y-83521460D01*
X113509500Y-83718539D01*
X113547947Y-83911829D01*
X113547950Y-83911839D01*
X113623367Y-84093913D01*
X113732860Y-84257781D01*
X113872218Y-84397139D01*
X114036086Y-84506632D01*
X114211547Y-84579310D01*
X114218165Y-84582051D01*
X114411459Y-84620500D01*
X114411461Y-84620500D01*
X114608539Y-84620500D01*
X114608541Y-84620500D01*
X114801835Y-84582051D01*
X114983914Y-84506632D01*
X115147782Y-84397139D01*
X115287139Y-84257782D01*
X115396632Y-84093914D01*
X115472051Y-83911835D01*
X115510500Y-83718541D01*
X115510500Y-83521460D01*
X116049500Y-83521460D01*
X116049500Y-83718539D01*
X116087947Y-83911829D01*
X116087950Y-83911839D01*
X116163367Y-84093913D01*
X116272860Y-84257781D01*
X116412218Y-84397139D01*
X116576086Y-84506632D01*
X116751547Y-84579310D01*
X116758165Y-84582051D01*
X116951459Y-84620500D01*
X116951461Y-84620500D01*
X117148539Y-84620500D01*
X117148541Y-84620500D01*
X117341835Y-84582051D01*
X117523914Y-84506632D01*
X117687782Y-84397139D01*
X117827139Y-84257782D01*
X117936632Y-84093914D01*
X118012051Y-83911835D01*
X118050500Y-83718541D01*
X118050500Y-83521460D01*
X118589500Y-83521460D01*
X118589500Y-83718539D01*
X118627947Y-83911829D01*
X118627950Y-83911839D01*
X118703367Y-84093913D01*
X118812860Y-84257781D01*
X118952218Y-84397139D01*
X119116086Y-84506632D01*
X119291547Y-84579310D01*
X119298165Y-84582051D01*
X119491459Y-84620500D01*
X119491461Y-84620500D01*
X119688539Y-84620500D01*
X119688541Y-84620500D01*
X119881835Y-84582051D01*
X120063914Y-84506632D01*
X120227782Y-84397139D01*
X120367139Y-84257782D01*
X120476632Y-84093914D01*
X120552051Y-83911835D01*
X120590500Y-83718541D01*
X120590500Y-83521460D01*
X121129500Y-83521460D01*
X121129500Y-83718539D01*
X121167947Y-83911829D01*
X121167950Y-83911839D01*
X121243367Y-84093913D01*
X121352860Y-84257781D01*
X121492218Y-84397139D01*
X121656086Y-84506632D01*
X121831547Y-84579310D01*
X121838165Y-84582051D01*
X122031459Y-84620500D01*
X122031461Y-84620500D01*
X122228539Y-84620500D01*
X122228541Y-84620500D01*
X122421835Y-84582051D01*
X122603914Y-84506632D01*
X122767782Y-84397139D01*
X122907139Y-84257782D01*
X123016632Y-84093914D01*
X123092051Y-83911835D01*
X123130500Y-83718541D01*
X123130500Y-83521459D01*
X123092051Y-83328165D01*
X123016632Y-83146086D01*
X122907139Y-82982218D01*
X122767782Y-82842861D01*
X122603914Y-82733368D01*
X122603911Y-82733366D01*
X122603910Y-82733366D01*
X122476181Y-82680459D01*
X122436133Y-82640410D01*
X122430500Y-82612092D01*
X122430500Y-77755122D01*
X122452173Y-77702797D01*
X124576324Y-75578645D01*
X124628649Y-75556972D01*
X124656964Y-75562604D01*
X124737334Y-75595894D01*
X124911309Y-75630500D01*
X124911311Y-75630500D01*
X125088689Y-75630500D01*
X125088691Y-75630500D01*
X125262666Y-75595894D01*
X125426547Y-75528013D01*
X125574035Y-75429464D01*
X125699464Y-75304035D01*
X125798013Y-75156547D01*
X125865894Y-74992666D01*
X125900500Y-74818691D01*
X125900500Y-74641309D01*
X125865894Y-74467334D01*
X125798013Y-74303453D01*
X125699464Y-74155965D01*
X125574035Y-74030536D01*
X125426547Y-73931987D01*
X125426546Y-73931986D01*
X125426544Y-73931985D01*
X125262670Y-73864107D01*
X125262660Y-73864104D01*
X125146156Y-73840930D01*
X125088691Y-73829500D01*
X124911309Y-73829500D01*
X124861989Y-73839310D01*
X124737339Y-73864104D01*
X124737329Y-73864107D01*
X124573455Y-73931985D01*
X124425968Y-74030533D01*
X124300533Y-74155968D01*
X124201985Y-74303455D01*
X124134107Y-74467329D01*
X124134104Y-74467339D01*
X124099500Y-74641310D01*
X124099500Y-74818689D01*
X124134104Y-74992660D01*
X124134105Y-74992662D01*
X124134106Y-74992666D01*
X124134108Y-74992670D01*
X124167394Y-75073032D01*
X124167393Y-75129669D01*
X124151352Y-75153675D01*
X121945489Y-77359540D01*
X121889540Y-77415488D01*
X121849979Y-77484009D01*
X121849977Y-77484014D01*
X121829500Y-77560435D01*
X121829500Y-82612092D01*
X121807826Y-82664418D01*
X121783819Y-82680459D01*
X121656089Y-82733366D01*
X121492218Y-82842860D01*
X121492217Y-82842862D01*
X121352862Y-82982217D01*
X121352860Y-82982218D01*
X121243367Y-83146086D01*
X121167950Y-83328160D01*
X121167947Y-83328170D01*
X121129500Y-83521460D01*
X120590500Y-83521460D01*
X120590500Y-83521459D01*
X120552051Y-83328165D01*
X120476632Y-83146086D01*
X120367139Y-82982218D01*
X120227782Y-82842861D01*
X120157222Y-82795714D01*
X120063913Y-82733367D01*
X119881839Y-82657950D01*
X119881829Y-82657947D01*
X119750728Y-82631870D01*
X119688541Y-82619500D01*
X119491459Y-82619500D01*
X119436662Y-82630399D01*
X119298170Y-82657947D01*
X119298160Y-82657950D01*
X119116086Y-82733367D01*
X118952218Y-82842860D01*
X118952217Y-82842862D01*
X118812862Y-82982217D01*
X118812860Y-82982218D01*
X118703367Y-83146086D01*
X118627950Y-83328160D01*
X118627947Y-83328170D01*
X118589500Y-83521460D01*
X118050500Y-83521460D01*
X118050500Y-83521459D01*
X118012051Y-83328165D01*
X117936632Y-83146086D01*
X117827139Y-82982218D01*
X117687782Y-82842861D01*
X117617222Y-82795714D01*
X117523913Y-82733367D01*
X117341839Y-82657950D01*
X117341829Y-82657947D01*
X117210728Y-82631870D01*
X117148541Y-82619500D01*
X116951459Y-82619500D01*
X116896662Y-82630399D01*
X116758170Y-82657947D01*
X116758160Y-82657950D01*
X116576086Y-82733367D01*
X116412218Y-82842860D01*
X116412217Y-82842862D01*
X116272862Y-82982217D01*
X116272860Y-82982218D01*
X116163367Y-83146086D01*
X116087950Y-83328160D01*
X116087947Y-83328170D01*
X116049500Y-83521460D01*
X115510500Y-83521460D01*
X115510500Y-83521459D01*
X115472051Y-83328165D01*
X115396632Y-83146086D01*
X115287139Y-82982218D01*
X115147782Y-82842861D01*
X115077222Y-82795714D01*
X114983913Y-82733367D01*
X114801839Y-82657950D01*
X114801829Y-82657947D01*
X114670728Y-82631870D01*
X114608541Y-82619500D01*
X114411459Y-82619500D01*
X114356662Y-82630399D01*
X114218170Y-82657947D01*
X114218160Y-82657950D01*
X114036086Y-82733367D01*
X113872218Y-82842860D01*
X113872217Y-82842862D01*
X113732862Y-82982217D01*
X113732860Y-82982218D01*
X113623367Y-83146086D01*
X113547950Y-83328160D01*
X113547947Y-83328170D01*
X113509500Y-83521460D01*
X112970500Y-83521460D01*
X112970500Y-83521459D01*
X112932051Y-83328165D01*
X112856632Y-83146086D01*
X112747139Y-82982218D01*
X112607782Y-82842861D01*
X112537222Y-82795714D01*
X112443913Y-82733367D01*
X112261839Y-82657950D01*
X112261829Y-82657947D01*
X112130728Y-82631870D01*
X112068541Y-82619500D01*
X111871459Y-82619500D01*
X111816662Y-82630399D01*
X111678170Y-82657947D01*
X111678160Y-82657950D01*
X111496086Y-82733367D01*
X111332218Y-82842860D01*
X111332217Y-82842862D01*
X111192862Y-82982217D01*
X111192860Y-82982218D01*
X111083367Y-83146086D01*
X111007950Y-83328160D01*
X111007947Y-83328170D01*
X110969500Y-83521460D01*
X110430500Y-83521460D01*
X110430500Y-83521459D01*
X110392051Y-83328165D01*
X110316632Y-83146086D01*
X110207139Y-82982218D01*
X110067782Y-82842861D01*
X109997222Y-82795714D01*
X109903913Y-82733367D01*
X109721839Y-82657950D01*
X109721829Y-82657947D01*
X109590728Y-82631870D01*
X109528541Y-82619500D01*
X109331459Y-82619500D01*
X109276662Y-82630399D01*
X109138170Y-82657947D01*
X109138160Y-82657950D01*
X108956086Y-82733367D01*
X108792218Y-82842860D01*
X108792217Y-82842862D01*
X108652862Y-82982217D01*
X108652860Y-82982218D01*
X108543367Y-83146086D01*
X108467950Y-83328160D01*
X108467947Y-83328170D01*
X108429500Y-83521460D01*
X107890500Y-83521460D01*
X107890500Y-83521459D01*
X107852051Y-83328165D01*
X107776632Y-83146086D01*
X107667139Y-82982218D01*
X107527782Y-82842861D01*
X107457222Y-82795714D01*
X107363913Y-82733367D01*
X107181839Y-82657950D01*
X107181829Y-82657947D01*
X107050728Y-82631870D01*
X106988541Y-82619500D01*
X106791459Y-82619500D01*
X106736662Y-82630399D01*
X106598170Y-82657947D01*
X106598160Y-82657950D01*
X106416086Y-82733367D01*
X106252218Y-82842860D01*
X106252217Y-82842862D01*
X106112862Y-82982217D01*
X106112860Y-82982218D01*
X106056029Y-83067273D01*
X106008937Y-83098739D01*
X105953388Y-83087690D01*
X105921922Y-83040598D01*
X105920500Y-83026161D01*
X105920500Y-82303523D01*
X105942174Y-82251197D01*
X106827065Y-81366306D01*
X107718960Y-80474411D01*
X107734334Y-80447782D01*
X107758521Y-80405889D01*
X107778999Y-80329464D01*
X107779000Y-80329464D01*
X107779000Y-80104352D01*
X107800674Y-80052026D01*
X107853000Y-80030352D01*
X107905326Y-80052026D01*
X107925578Y-80089916D01*
X107927947Y-80101828D01*
X107927950Y-80101839D01*
X108003367Y-80283913D01*
X108091749Y-80416185D01*
X108112861Y-80447782D01*
X108252218Y-80587139D01*
X108416086Y-80696632D01*
X108598165Y-80772051D01*
X108791459Y-80810500D01*
X108791461Y-80810500D01*
X108988539Y-80810500D01*
X108988541Y-80810500D01*
X109181835Y-80772051D01*
X109363914Y-80696632D01*
X109527782Y-80587139D01*
X109667139Y-80447782D01*
X109776632Y-80283914D01*
X109852051Y-80101835D01*
X109890500Y-79908541D01*
X109890500Y-79711459D01*
X109852051Y-79518165D01*
X109776632Y-79336086D01*
X109667139Y-79172218D01*
X109527782Y-79032861D01*
X109519351Y-79027227D01*
X109363913Y-78923367D01*
X109181839Y-78847950D01*
X109181829Y-78847947D01*
X109052388Y-78822200D01*
X108988541Y-78809500D01*
X108791459Y-78809500D01*
X108736662Y-78820399D01*
X108598170Y-78847947D01*
X108598160Y-78847950D01*
X108416086Y-78923367D01*
X108252218Y-79032860D01*
X108252217Y-79032862D01*
X108112862Y-79172217D01*
X108112860Y-79172218D01*
X108003367Y-79336086D01*
X107927950Y-79518160D01*
X107927947Y-79518170D01*
X107925578Y-79530084D01*
X107894112Y-79577176D01*
X107838563Y-79588225D01*
X107791471Y-79556759D01*
X107779000Y-79515647D01*
X107779000Y-77181310D01*
X114099500Y-77181310D01*
X114099500Y-77358689D01*
X114134104Y-77532660D01*
X114134107Y-77532670D01*
X114201985Y-77696544D01*
X114201986Y-77696546D01*
X114201987Y-77696547D01*
X114300536Y-77844035D01*
X114425965Y-77969464D01*
X114573453Y-78068013D01*
X114737334Y-78135894D01*
X114911309Y-78170500D01*
X114911311Y-78170500D01*
X115088689Y-78170500D01*
X115088691Y-78170500D01*
X115262666Y-78135894D01*
X115426547Y-78068013D01*
X115574035Y-77969464D01*
X115699464Y-77844035D01*
X115798013Y-77696547D01*
X115865894Y-77532666D01*
X115900500Y-77358691D01*
X115900500Y-77181309D01*
X115865894Y-77007334D01*
X115821475Y-76900096D01*
X115798014Y-76843455D01*
X115699466Y-76695968D01*
X115699464Y-76695965D01*
X115574035Y-76570536D01*
X115426547Y-76471987D01*
X115426546Y-76471986D01*
X115426544Y-76471985D01*
X115262670Y-76404107D01*
X115262660Y-76404104D01*
X115146156Y-76380930D01*
X115088691Y-76369500D01*
X114911309Y-76369500D01*
X114861989Y-76379310D01*
X114737339Y-76404104D01*
X114737329Y-76404107D01*
X114573455Y-76471985D01*
X114425968Y-76570533D01*
X114300533Y-76695968D01*
X114201985Y-76843455D01*
X114134107Y-77007329D01*
X114134104Y-77007339D01*
X114099500Y-77181310D01*
X107779000Y-77181310D01*
X107779000Y-76296622D01*
X107800673Y-76244297D01*
X110929787Y-73115182D01*
X110982112Y-73093509D01*
X111010430Y-73099142D01*
X111129498Y-73148461D01*
X111138165Y-73152051D01*
X111331459Y-73190500D01*
X111331461Y-73190500D01*
X111528539Y-73190500D01*
X111528541Y-73190500D01*
X111721835Y-73152051D01*
X111903914Y-73076632D01*
X112067782Y-72967139D01*
X112207139Y-72827782D01*
X112316632Y-72663914D01*
X112392051Y-72481835D01*
X112430500Y-72288541D01*
X112430500Y-72091459D01*
X112392051Y-71898165D01*
X112316632Y-71716086D01*
X112207139Y-71552218D01*
X112067782Y-71412861D01*
X112033081Y-71389674D01*
X111903913Y-71303367D01*
X111721839Y-71227950D01*
X111721829Y-71227947D01*
X111592388Y-71202200D01*
X111528541Y-71189500D01*
X111431322Y-71189500D01*
X111378996Y-71167826D01*
X111357322Y-71115500D01*
X111378996Y-71063174D01*
X111692370Y-70749800D01*
X113545545Y-68896624D01*
X113597870Y-68874951D01*
X113650196Y-68896625D01*
X113659399Y-68907839D01*
X113732860Y-69017781D01*
X113732861Y-69017782D01*
X113872218Y-69157139D01*
X114036086Y-69266632D01*
X114218165Y-69342051D01*
X114411459Y-69380500D01*
X114411461Y-69380500D01*
X114608539Y-69380500D01*
X114608541Y-69380500D01*
X114801835Y-69342051D01*
X114983914Y-69266632D01*
X115147782Y-69157139D01*
X115287139Y-69017782D01*
X115396632Y-68853914D01*
X115472051Y-68671835D01*
X115510500Y-68478541D01*
X115510500Y-68281460D01*
X116049500Y-68281460D01*
X116049500Y-68478539D01*
X116087947Y-68671829D01*
X116087950Y-68671839D01*
X116163367Y-68853913D01*
X116199400Y-68907839D01*
X116272861Y-69017782D01*
X116412218Y-69157139D01*
X116576086Y-69266632D01*
X116758165Y-69342051D01*
X116951459Y-69380500D01*
X116951461Y-69380500D01*
X117148539Y-69380500D01*
X117148541Y-69380500D01*
X117341835Y-69342051D01*
X117523914Y-69266632D01*
X117687782Y-69157139D01*
X117827139Y-69017782D01*
X117936632Y-68853914D01*
X118012051Y-68671835D01*
X118050500Y-68478541D01*
X118050500Y-68281460D01*
X118589500Y-68281460D01*
X118589500Y-68478539D01*
X118627947Y-68671829D01*
X118627950Y-68671839D01*
X118703367Y-68853913D01*
X118739400Y-68907839D01*
X118812861Y-69017782D01*
X118952218Y-69157139D01*
X119116086Y-69266632D01*
X119298165Y-69342051D01*
X119491459Y-69380500D01*
X119491461Y-69380500D01*
X119688539Y-69380500D01*
X119688541Y-69380500D01*
X119881835Y-69342051D01*
X120063914Y-69266632D01*
X120227782Y-69157139D01*
X120367139Y-69017782D01*
X120476632Y-68853914D01*
X120552051Y-68671835D01*
X120590500Y-68478541D01*
X120590500Y-68281459D01*
X120552051Y-68088165D01*
X120540690Y-68060738D01*
X120476632Y-67906086D01*
X120367139Y-67742218D01*
X120227781Y-67602860D01*
X120063913Y-67493367D01*
X119881839Y-67417950D01*
X119881829Y-67417947D01*
X119752388Y-67392200D01*
X119688541Y-67379500D01*
X119491459Y-67379500D01*
X119436662Y-67390399D01*
X119298170Y-67417947D01*
X119298160Y-67417950D01*
X119116086Y-67493367D01*
X118952218Y-67602860D01*
X118952217Y-67602862D01*
X118812862Y-67742217D01*
X118812860Y-67742218D01*
X118703367Y-67906086D01*
X118627950Y-68088160D01*
X118627947Y-68088170D01*
X118589500Y-68281460D01*
X118050500Y-68281460D01*
X118050500Y-68281459D01*
X118012051Y-68088165D01*
X118000690Y-68060738D01*
X117936632Y-67906086D01*
X117827139Y-67742218D01*
X117687781Y-67602860D01*
X117523913Y-67493367D01*
X117341839Y-67417950D01*
X117341829Y-67417947D01*
X117212388Y-67392200D01*
X117148541Y-67379500D01*
X116951459Y-67379500D01*
X116896662Y-67390399D01*
X116758170Y-67417947D01*
X116758160Y-67417950D01*
X116576086Y-67493367D01*
X116412218Y-67602860D01*
X116412217Y-67602862D01*
X116272862Y-67742217D01*
X116272860Y-67742218D01*
X116163367Y-67906086D01*
X116087950Y-68088160D01*
X116087947Y-68088170D01*
X116049500Y-68281460D01*
X115510500Y-68281460D01*
X115510500Y-68281459D01*
X115472051Y-68088165D01*
X115460690Y-68060738D01*
X115396632Y-67906086D01*
X115287139Y-67742218D01*
X115147781Y-67602860D01*
X114983913Y-67493367D01*
X114801839Y-67417950D01*
X114801829Y-67417947D01*
X114672388Y-67392200D01*
X114608541Y-67379500D01*
X114411459Y-67379500D01*
X114356662Y-67390399D01*
X114218170Y-67417947D01*
X114218160Y-67417950D01*
X114036086Y-67493367D01*
X113872218Y-67602860D01*
X113872217Y-67602862D01*
X113732862Y-67742217D01*
X113732860Y-67742218D01*
X113623368Y-67906085D01*
X113559309Y-68060738D01*
X113524345Y-68095708D01*
X113525411Y-68097554D01*
X113452688Y-68139540D01*
X113096826Y-68495402D01*
X113044500Y-68517076D01*
X112992174Y-68495402D01*
X112970500Y-68443076D01*
X112970500Y-68281460D01*
X112932052Y-68088170D01*
X112932051Y-68088169D01*
X112932051Y-68088165D01*
X112920690Y-68060738D01*
X112856632Y-67906086D01*
X112747139Y-67742218D01*
X112607781Y-67602860D01*
X112443913Y-67493367D01*
X112261839Y-67417950D01*
X112261829Y-67417947D01*
X112132388Y-67392200D01*
X112068541Y-67379500D01*
X111871459Y-67379500D01*
X111816662Y-67390399D01*
X111678170Y-67417947D01*
X111678160Y-67417950D01*
X111496086Y-67493367D01*
X111332218Y-67602860D01*
X111332217Y-67602862D01*
X111192862Y-67742217D01*
X111192860Y-67742218D01*
X111083367Y-67906086D01*
X111007950Y-68088160D01*
X111007947Y-68088170D01*
X110969500Y-68281460D01*
X110969500Y-68478539D01*
X111007947Y-68671829D01*
X111007950Y-68671839D01*
X111083367Y-68853913D01*
X111119400Y-68907839D01*
X111192861Y-69017782D01*
X111332218Y-69157139D01*
X111496086Y-69266632D01*
X111678165Y-69342051D01*
X111871459Y-69380500D01*
X111871461Y-69380500D01*
X112033076Y-69380500D01*
X112085402Y-69402174D01*
X112107076Y-69454500D01*
X112085402Y-69506826D01*
X109977949Y-71614279D01*
X109977944Y-71614284D01*
X109975489Y-71616740D01*
X109919540Y-71672689D01*
X109896253Y-71713021D01*
X109892285Y-71717819D01*
X109872333Y-71728381D01*
X109854421Y-71742126D01*
X109847975Y-71741277D01*
X109842230Y-71744319D01*
X109820652Y-71737679D01*
X109798269Y-71734732D01*
X109792003Y-71728863D01*
X109788098Y-71727662D01*
X109785518Y-71722790D01*
X109773741Y-71711759D01*
X109667139Y-71552218D01*
X109527781Y-71412860D01*
X109363913Y-71303367D01*
X109181839Y-71227950D01*
X109181829Y-71227947D01*
X109052388Y-71202200D01*
X108988541Y-71189500D01*
X108791459Y-71189500D01*
X108736662Y-71200399D01*
X108598170Y-71227947D01*
X108598160Y-71227950D01*
X108416086Y-71303367D01*
X108252218Y-71412860D01*
X108252217Y-71412862D01*
X108112862Y-71552217D01*
X108112860Y-71552218D01*
X108003367Y-71716086D01*
X107927950Y-71898160D01*
X107927947Y-71898170D01*
X107889500Y-72091460D01*
X107889500Y-72288539D01*
X107927947Y-72481829D01*
X107927950Y-72481839D01*
X108003367Y-72663913D01*
X108112860Y-72827781D01*
X108252218Y-72967139D01*
X108416086Y-73076632D01*
X108582542Y-73145580D01*
X108598165Y-73152051D01*
X108791459Y-73190500D01*
X108791461Y-73190500D01*
X108908176Y-73190500D01*
X108960502Y-73212174D01*
X108982176Y-73264500D01*
X108960502Y-73316826D01*
X105063789Y-77213540D01*
X105007840Y-77269488D01*
X104968279Y-77338009D01*
X104968277Y-77338014D01*
X104947800Y-77414435D01*
X104947800Y-79650379D01*
X104926126Y-79702705D01*
X104873800Y-79724379D01*
X104821474Y-79702705D01*
X104801222Y-79664816D01*
X104772052Y-79518170D01*
X104772051Y-79518169D01*
X104772051Y-79518165D01*
X104696632Y-79336086D01*
X104587139Y-79172218D01*
X104447782Y-79032861D01*
X104439351Y-79027227D01*
X104283913Y-78923367D01*
X104101839Y-78847950D01*
X104101829Y-78847947D01*
X103972388Y-78822200D01*
X103908541Y-78809500D01*
X103711459Y-78809500D01*
X103656662Y-78820399D01*
X103518170Y-78847947D01*
X103518160Y-78847950D01*
X103336086Y-78923367D01*
X103172218Y-79032860D01*
X103172217Y-79032862D01*
X103032862Y-79172217D01*
X103032860Y-79172218D01*
X102923367Y-79336086D01*
X102847950Y-79518160D01*
X102847947Y-79518170D01*
X102823778Y-79639680D01*
X102792312Y-79686772D01*
X102736763Y-79697821D01*
X102689671Y-79666355D01*
X102677200Y-79625243D01*
X102677200Y-72374756D01*
X102698874Y-72322430D01*
X102751200Y-72300756D01*
X102803526Y-72322430D01*
X102823777Y-72360318D01*
X102830447Y-72393847D01*
X102847947Y-72481829D01*
X102847950Y-72481839D01*
X102923367Y-72663913D01*
X103032860Y-72827781D01*
X103172218Y-72967139D01*
X103336086Y-73076632D01*
X103502542Y-73145580D01*
X103518165Y-73152051D01*
X103711459Y-73190500D01*
X103711461Y-73190500D01*
X103908539Y-73190500D01*
X103908541Y-73190500D01*
X104101835Y-73152051D01*
X104283914Y-73076632D01*
X104447782Y-72967139D01*
X104587139Y-72827782D01*
X104696632Y-72663914D01*
X104772051Y-72481835D01*
X104810500Y-72288541D01*
X104810500Y-72091460D01*
X105349500Y-72091460D01*
X105349500Y-72288539D01*
X105387947Y-72481829D01*
X105387950Y-72481839D01*
X105463367Y-72663913D01*
X105572860Y-72827781D01*
X105712218Y-72967139D01*
X105876086Y-73076632D01*
X106042542Y-73145580D01*
X106058165Y-73152051D01*
X106251459Y-73190500D01*
X106251461Y-73190500D01*
X106448539Y-73190500D01*
X106448541Y-73190500D01*
X106641835Y-73152051D01*
X106823914Y-73076632D01*
X106987782Y-72967139D01*
X107127139Y-72827782D01*
X107236632Y-72663914D01*
X107312051Y-72481835D01*
X107350500Y-72288541D01*
X107350500Y-72091459D01*
X107312051Y-71898165D01*
X107236632Y-71716086D01*
X107127139Y-71552218D01*
X106987782Y-71412861D01*
X106953081Y-71389674D01*
X106823913Y-71303367D01*
X106641839Y-71227950D01*
X106641829Y-71227947D01*
X106512388Y-71202200D01*
X106448541Y-71189500D01*
X106251459Y-71189500D01*
X106196662Y-71200399D01*
X106058170Y-71227947D01*
X106058160Y-71227950D01*
X105876086Y-71303367D01*
X105712218Y-71412860D01*
X105712217Y-71412862D01*
X105572862Y-71552217D01*
X105572860Y-71552218D01*
X105463367Y-71716086D01*
X105387950Y-71898160D01*
X105387947Y-71898170D01*
X105349500Y-72091460D01*
X104810500Y-72091460D01*
X104810500Y-72091459D01*
X104772051Y-71898165D01*
X104696632Y-71716086D01*
X104587139Y-71552218D01*
X104447782Y-71412861D01*
X104413081Y-71389674D01*
X104283913Y-71303367D01*
X104101839Y-71227950D01*
X104101829Y-71227947D01*
X103972388Y-71202200D01*
X103908541Y-71189500D01*
X103711459Y-71189500D01*
X103656662Y-71200399D01*
X103518170Y-71227947D01*
X103518160Y-71227950D01*
X103336086Y-71303367D01*
X103172218Y-71412860D01*
X103172217Y-71412862D01*
X103032862Y-71552217D01*
X103032860Y-71552218D01*
X102923367Y-71716086D01*
X102847950Y-71898160D01*
X102847947Y-71898170D01*
X102823778Y-72019680D01*
X102792312Y-72066772D01*
X102736763Y-72077821D01*
X102689671Y-72046355D01*
X102677200Y-72005243D01*
X102677200Y-71643040D01*
X102677200Y-71643038D01*
X102656722Y-71566612D01*
X102617160Y-71498089D01*
X101946111Y-70827040D01*
X101916320Y-70809840D01*
X101877590Y-70787479D01*
X101877585Y-70787477D01*
X101801164Y-70767000D01*
X101801162Y-70767000D01*
X92272062Y-70767000D01*
X92192938Y-70767000D01*
X92116512Y-70787478D01*
X92116511Y-70787478D01*
X92116509Y-70787479D01*
X92116507Y-70787480D01*
X92047990Y-70827038D01*
X91610211Y-71264816D01*
X91557885Y-71286490D01*
X91529567Y-71280857D01*
X91401839Y-71227950D01*
X91401829Y-71227947D01*
X91272388Y-71202200D01*
X91208541Y-71189500D01*
X91011459Y-71189500D01*
X90956662Y-71200399D01*
X90818170Y-71227947D01*
X90818160Y-71227950D01*
X90636086Y-71303367D01*
X90472218Y-71412860D01*
X90472217Y-71412862D01*
X90332862Y-71552217D01*
X90332860Y-71552218D01*
X90227992Y-71709164D01*
X90180899Y-71740630D01*
X90125351Y-71729581D01*
X90102377Y-71705051D01*
X90093564Y-71689787D01*
X90080460Y-71667089D01*
X90024511Y-71611140D01*
X89223211Y-70809840D01*
X89184480Y-70787479D01*
X89184477Y-70787477D01*
X89154690Y-70770279D01*
X89154685Y-70770277D01*
X89078264Y-70749800D01*
X89078262Y-70749800D01*
X88103138Y-70749800D01*
X88103136Y-70749800D01*
X88026714Y-70770277D01*
X88026709Y-70770279D01*
X87996920Y-70787479D01*
X87958188Y-70809840D01*
X80074840Y-78693188D01*
X80035279Y-78761709D01*
X80035277Y-78761714D01*
X80014800Y-78838135D01*
X80014800Y-79638334D01*
X79993126Y-79690660D01*
X79940800Y-79712334D01*
X79888474Y-79690660D01*
X79879314Y-79681500D01*
X79765190Y-79615610D01*
X79765181Y-79615606D01*
X79637894Y-79581500D01*
X79637892Y-79581500D01*
X79506108Y-79581500D01*
X79506106Y-79581500D01*
X79378818Y-79615606D01*
X79378809Y-79615610D01*
X79264685Y-79681500D01*
X79171500Y-79774685D01*
X79105610Y-79888809D01*
X79105606Y-79888818D01*
X79071500Y-80016105D01*
X79071500Y-80126876D01*
X79049826Y-80179202D01*
X77613689Y-81615340D01*
X77557740Y-81671288D01*
X77518179Y-81739809D01*
X77518177Y-81739814D01*
X77497700Y-81816235D01*
X77497700Y-83259485D01*
X77476026Y-83311811D01*
X77423700Y-83333485D01*
X77371374Y-83311811D01*
X77355333Y-83287803D01*
X77296632Y-83146086D01*
X77187139Y-82982218D01*
X77047781Y-82842860D01*
X76883913Y-82733367D01*
X76701839Y-82657950D01*
X76701829Y-82657947D01*
X76570728Y-82631870D01*
X76508541Y-82619500D01*
X76311459Y-82619500D01*
X76256662Y-82630399D01*
X76118170Y-82657947D01*
X76118160Y-82657950D01*
X75936086Y-82733367D01*
X75772218Y-82842860D01*
X75772217Y-82842862D01*
X75632862Y-82982217D01*
X75632860Y-82982218D01*
X75523367Y-83146086D01*
X75447950Y-83328160D01*
X75447947Y-83328170D01*
X75409500Y-83521460D01*
X75409500Y-83718539D01*
X75447947Y-83911829D01*
X75447950Y-83911839D01*
X75523367Y-84093913D01*
X75632860Y-84257781D01*
X75772218Y-84397139D01*
X75936086Y-84506632D01*
X76111547Y-84579310D01*
X76118165Y-84582051D01*
X76311459Y-84620500D01*
X76311461Y-84620500D01*
X76508539Y-84620500D01*
X76508541Y-84620500D01*
X76701835Y-84582051D01*
X76883914Y-84506632D01*
X77047782Y-84397139D01*
X77187139Y-84257782D01*
X77296632Y-84093914D01*
X77355333Y-83952195D01*
X77395381Y-83912147D01*
X77452018Y-83912147D01*
X77492067Y-83952195D01*
X77497700Y-83980514D01*
X77497700Y-87718864D01*
X77518177Y-87795285D01*
X77518179Y-87795290D01*
X77544474Y-87840834D01*
X77544475Y-87840836D01*
X77544478Y-87840840D01*
X77557740Y-87863811D01*
X77557741Y-87863812D01*
X80441626Y-90747697D01*
X80463300Y-90800023D01*
X80463300Y-99342863D01*
X80483777Y-99419285D01*
X80483779Y-99419290D01*
X80517453Y-99477615D01*
X80517454Y-99477616D01*
X80521364Y-99484388D01*
X80523340Y-99487811D01*
X80557273Y-99521744D01*
X80558540Y-99523148D01*
X80567436Y-99548185D01*
X80577600Y-99572723D01*
X80577600Y-99683494D01*
X80611706Y-99810781D01*
X80611707Y-99810784D01*
X80611708Y-99810786D01*
X80677600Y-99924914D01*
X80770786Y-100018100D01*
X80884914Y-100083992D01*
X81012205Y-100118099D01*
X81012206Y-100118100D01*
X81012208Y-100118100D01*
X81143991Y-100118100D01*
X81143992Y-100118100D01*
X81271286Y-100083992D01*
X81271290Y-100083989D01*
X81275769Y-100082135D01*
X81276789Y-100084599D01*
X81324448Y-100078322D01*
X81369384Y-100112798D01*
X81379300Y-100149802D01*
X81379300Y-107343777D01*
X81357626Y-107396103D01*
X80111740Y-108641988D01*
X80072179Y-108710509D01*
X80072177Y-108710514D01*
X80051700Y-108786935D01*
X80051700Y-124771764D01*
X80072178Y-124848188D01*
X80087477Y-124874688D01*
X80087478Y-124874688D01*
X80111740Y-124916711D01*
X80564816Y-125369787D01*
X80586490Y-125422113D01*
X80580857Y-125450431D01*
X80527950Y-125578160D01*
X80527947Y-125578170D01*
X80499978Y-125718784D01*
X80489500Y-125771459D01*
X80489500Y-125968541D01*
X80494672Y-125994540D01*
X80527947Y-126161829D01*
X80527950Y-126161839D01*
X80603367Y-126343913D01*
X80712860Y-126507781D01*
X80852218Y-126647139D01*
X81016086Y-126756632D01*
X81170787Y-126820711D01*
X81198165Y-126832051D01*
X81391459Y-126870500D01*
X81391461Y-126870500D01*
X81588539Y-126870500D01*
X81588541Y-126870500D01*
X81781835Y-126832051D01*
X81909568Y-126779142D01*
X81966204Y-126779142D01*
X81990212Y-126795183D01*
X85707826Y-130512797D01*
X85729500Y-130565123D01*
X85729500Y-132715500D01*
X85707826Y-132767826D01*
X85655500Y-132789500D01*
X85010246Y-132789500D01*
X85008783Y-132789644D01*
X85001536Y-132790000D01*
X84964000Y-132790000D01*
X84911674Y-132768326D01*
X84890000Y-132716000D01*
X84890000Y-130300001D01*
X84889410Y-130294007D01*
X84886157Y-130260982D01*
X84874776Y-130223463D01*
X84856294Y-130188886D01*
X84831421Y-130158579D01*
X84801114Y-130133706D01*
X84766537Y-130115224D01*
X84740400Y-130107295D01*
X84729019Y-130103843D01*
X84709509Y-130101921D01*
X84690000Y-130100000D01*
X84689999Y-130100000D01*
X82290001Y-130100000D01*
X82290000Y-130100000D01*
X82276994Y-130101281D01*
X82250980Y-130103843D01*
X82228218Y-130110748D01*
X82213463Y-130115224D01*
X82213461Y-130115224D01*
X82213461Y-130115225D01*
X82178887Y-130133705D01*
X82178883Y-130133708D01*
X82148579Y-130158579D01*
X82123708Y-130188883D01*
X82123705Y-130188887D01*
X82105225Y-130223461D01*
X82093843Y-130260980D01*
X82090000Y-130300001D01*
X82090000Y-132716000D01*
X82068326Y-132768326D01*
X82016000Y-132790000D01*
X81978464Y-132790000D01*
X81971217Y-132789644D01*
X81969754Y-132789500D01*
X81969748Y-132789500D01*
X81324500Y-132789500D01*
X81272174Y-132767826D01*
X81250500Y-132715500D01*
X81250500Y-128170436D01*
X81250499Y-128170435D01*
X81230022Y-128094014D01*
X81230020Y-128094009D01*
X81190459Y-128025488D01*
X79698374Y-126533403D01*
X79676700Y-126481077D01*
X79676700Y-124330066D01*
X79698374Y-124277740D01*
X79735854Y-124240260D01*
X79776700Y-124199414D01*
X79842592Y-124085286D01*
X79876699Y-123957994D01*
X79876700Y-123957994D01*
X79876700Y-123826206D01*
X79876699Y-123826205D01*
X79874364Y-123817492D01*
X79842592Y-123698914D01*
X79776700Y-123584786D01*
X79683514Y-123491600D01*
X79649166Y-123471769D01*
X79569390Y-123425710D01*
X79569381Y-123425706D01*
X79442094Y-123391600D01*
X79442092Y-123391600D01*
X79310308Y-123391600D01*
X79310306Y-123391600D01*
X79183018Y-123425706D01*
X79183009Y-123425710D01*
X79068885Y-123491600D01*
X78975700Y-123584785D01*
X78909810Y-123698909D01*
X78909806Y-123698918D01*
X78875700Y-123826205D01*
X78875700Y-123957994D01*
X78909806Y-124085281D01*
X78909810Y-124085290D01*
X78975700Y-124199414D01*
X79054026Y-124277740D01*
X79075700Y-124330066D01*
X79075700Y-126675764D01*
X79096177Y-126752185D01*
X79096179Y-126752190D01*
X79135740Y-126820711D01*
X80627826Y-128312797D01*
X80649500Y-128365123D01*
X80649500Y-132715500D01*
X80627826Y-132767826D01*
X80575500Y-132789500D01*
X79930246Y-132789500D01*
X79928783Y-132789644D01*
X79921536Y-132790000D01*
X79750000Y-132790000D01*
X79732326Y-132807674D01*
X79680000Y-132829348D01*
X79627674Y-132807674D01*
X79610000Y-132790000D01*
X79438464Y-132790000D01*
X79431217Y-132789644D01*
X79429754Y-132789500D01*
X79429748Y-132789500D01*
X79174840Y-132789500D01*
X79122514Y-132767826D01*
X79100840Y-132715500D01*
X79122514Y-132663174D01*
X79149210Y-132647760D01*
X79148708Y-132646546D01*
X79153176Y-132644694D01*
X79153186Y-132644692D01*
X79267314Y-132578800D01*
X79360500Y-132485614D01*
X79426392Y-132371486D01*
X79460499Y-132244194D01*
X79460500Y-132244194D01*
X79460500Y-132112406D01*
X79460499Y-132112405D01*
X79426393Y-131985118D01*
X79426392Y-131985114D01*
X79360500Y-131870986D01*
X79267314Y-131777800D01*
X79153190Y-131711910D01*
X79153181Y-131711906D01*
X79025894Y-131677800D01*
X79025892Y-131677800D01*
X78894108Y-131677800D01*
X78894106Y-131677800D01*
X78766818Y-131711906D01*
X78766809Y-131711910D01*
X78652685Y-131777800D01*
X78559500Y-131870985D01*
X78493610Y-131985109D01*
X78493606Y-131985118D01*
X78459500Y-132112405D01*
X78459500Y-132223176D01*
X78437826Y-132275502D01*
X78323108Y-132390219D01*
X78297825Y-132404830D01*
X78298486Y-132406426D01*
X78294008Y-132408280D01*
X78225488Y-132447840D01*
X78169540Y-132503788D01*
X78129979Y-132572309D01*
X78129977Y-132572314D01*
X78109500Y-132648735D01*
X78109500Y-132715500D01*
X78087826Y-132767826D01*
X78035500Y-132789500D01*
X77390246Y-132789500D01*
X77388783Y-132789644D01*
X77381536Y-132790000D01*
X77210000Y-132790000D01*
X77210000Y-132961536D01*
X77209644Y-132968783D01*
X77209500Y-132970246D01*
X77209500Y-139726000D01*
X77187826Y-139778326D01*
X77135500Y-139800000D01*
X76774000Y-139800000D01*
X76721674Y-139778326D01*
X76700000Y-139726000D01*
X76700000Y-107274000D01*
X76721674Y-107221674D01*
X76774000Y-107200000D01*
X79359999Y-107200000D01*
X79360000Y-107200000D01*
X79399018Y-107196157D01*
X79436537Y-107184776D01*
X79471114Y-107166294D01*
X79501421Y-107141421D01*
X79526294Y-107111114D01*
X79544776Y-107076537D01*
X79556157Y-107039018D01*
X79560000Y-107000000D01*
X79560000Y-105354000D01*
X79581674Y-105301674D01*
X79634000Y-105280000D01*
X80949999Y-105280000D01*
X80950000Y-105280000D01*
X80989018Y-105276157D01*
X81026537Y-105264776D01*
X81061114Y-105246294D01*
X81091421Y-105221421D01*
X81116294Y-105191114D01*
X81134776Y-105156537D01*
X81146157Y-105119018D01*
X81150000Y-105080000D01*
X81150000Y-100630000D01*
X81146157Y-100590982D01*
X81134776Y-100553463D01*
X81116294Y-100518886D01*
X81091421Y-100488579D01*
X81061114Y-100463706D01*
X81026537Y-100445224D01*
X80995381Y-100435773D01*
X80989019Y-100433843D01*
X80969509Y-100431921D01*
X80950000Y-100430000D01*
X80949999Y-100430000D01*
X79634000Y-100430000D01*
X79581674Y-100408326D01*
X79560000Y-100356000D01*
X79560000Y-90500001D01*
X79560000Y-90500000D01*
X79556157Y-90460982D01*
X79544776Y-90423463D01*
X79526294Y-90388886D01*
X79501421Y-90358579D01*
X79471114Y-90333706D01*
X79436537Y-90315224D01*
X79410400Y-90307295D01*
X79399019Y-90303843D01*
X79379509Y-90301921D01*
X79360000Y-90300000D01*
X79359999Y-90300000D01*
X70274000Y-90300000D01*
X70221674Y-90278326D01*
X70200000Y-90226000D01*
X70200000Y-83521460D01*
X72869500Y-83521460D01*
X72869500Y-83718539D01*
X72907947Y-83911829D01*
X72907950Y-83911839D01*
X72983367Y-84093913D01*
X73092860Y-84257781D01*
X73232218Y-84397139D01*
X73396086Y-84506632D01*
X73571547Y-84579310D01*
X73578165Y-84582051D01*
X73771459Y-84620500D01*
X73771461Y-84620500D01*
X73968539Y-84620500D01*
X73968541Y-84620500D01*
X74161835Y-84582051D01*
X74343914Y-84506632D01*
X74507782Y-84397139D01*
X74647139Y-84257782D01*
X74756632Y-84093914D01*
X74832051Y-83911835D01*
X74870500Y-83718541D01*
X74870500Y-83521459D01*
X74832051Y-83328165D01*
X74756632Y-83146086D01*
X74647139Y-82982218D01*
X74507782Y-82842861D01*
X74437222Y-82795714D01*
X74343913Y-82733367D01*
X74161839Y-82657950D01*
X74161829Y-82657947D01*
X74030728Y-82631870D01*
X73968541Y-82619500D01*
X73771459Y-82619500D01*
X73716662Y-82630399D01*
X73578170Y-82657947D01*
X73578160Y-82657950D01*
X73396086Y-82733367D01*
X73232218Y-82842860D01*
X73232217Y-82842862D01*
X73092862Y-82982217D01*
X73092860Y-82982218D01*
X72983367Y-83146086D01*
X72907950Y-83328160D01*
X72907947Y-83328170D01*
X72869500Y-83521460D01*
X70200000Y-83521460D01*
X70200000Y-68281460D01*
X72869500Y-68281460D01*
X72869500Y-68478539D01*
X72907947Y-68671829D01*
X72907950Y-68671839D01*
X72983367Y-68853913D01*
X73019400Y-68907839D01*
X73092861Y-69017782D01*
X73232218Y-69157139D01*
X73396086Y-69266632D01*
X73578165Y-69342051D01*
X73771459Y-69380500D01*
X73771461Y-69380500D01*
X73968539Y-69380500D01*
X73968541Y-69380500D01*
X74161835Y-69342051D01*
X74343914Y-69266632D01*
X74507782Y-69157139D01*
X74647139Y-69017782D01*
X74756632Y-68853914D01*
X74832051Y-68671835D01*
X74870500Y-68478541D01*
X74870500Y-68281460D01*
X75409500Y-68281460D01*
X75409500Y-68478539D01*
X75447947Y-68671829D01*
X75447950Y-68671839D01*
X75523367Y-68853913D01*
X75559400Y-68907839D01*
X75632861Y-69017782D01*
X75772218Y-69157139D01*
X75936086Y-69266632D01*
X76118165Y-69342051D01*
X76311459Y-69380500D01*
X76311461Y-69380500D01*
X76508539Y-69380500D01*
X76508541Y-69380500D01*
X76701835Y-69342051D01*
X76883914Y-69266632D01*
X77047782Y-69157139D01*
X77187139Y-69017782D01*
X77296632Y-68853914D01*
X77372051Y-68671835D01*
X77410500Y-68478541D01*
X77410500Y-68281460D01*
X77949500Y-68281460D01*
X77949500Y-68478539D01*
X77987947Y-68671829D01*
X77987950Y-68671839D01*
X78063367Y-68853913D01*
X78099400Y-68907839D01*
X78172861Y-69017782D01*
X78312218Y-69157139D01*
X78476086Y-69266632D01*
X78658165Y-69342051D01*
X78851459Y-69380500D01*
X78851461Y-69380500D01*
X79048539Y-69380500D01*
X79048541Y-69380500D01*
X79241835Y-69342051D01*
X79423914Y-69266632D01*
X79587782Y-69157139D01*
X79727139Y-69017782D01*
X79836632Y-68853914D01*
X79912051Y-68671835D01*
X79950500Y-68478541D01*
X79950500Y-68281460D01*
X80489500Y-68281460D01*
X80489500Y-68478539D01*
X80527947Y-68671829D01*
X80527950Y-68671839D01*
X80603367Y-68853913D01*
X80639400Y-68907839D01*
X80712861Y-69017782D01*
X80852218Y-69157139D01*
X81016086Y-69266632D01*
X81198165Y-69342051D01*
X81391459Y-69380500D01*
X81391461Y-69380500D01*
X81588539Y-69380500D01*
X81588541Y-69380500D01*
X81781835Y-69342051D01*
X81963914Y-69266632D01*
X82127782Y-69157139D01*
X82267139Y-69017782D01*
X82376632Y-68853914D01*
X82452051Y-68671835D01*
X82490500Y-68478541D01*
X82490500Y-68281460D01*
X83029500Y-68281460D01*
X83029500Y-68478539D01*
X83067947Y-68671829D01*
X83067950Y-68671839D01*
X83143367Y-68853913D01*
X83179400Y-68907839D01*
X83252861Y-69017782D01*
X83392218Y-69157139D01*
X83556086Y-69266632D01*
X83738165Y-69342051D01*
X83931459Y-69380500D01*
X83931461Y-69380500D01*
X84128539Y-69380500D01*
X84128541Y-69380500D01*
X84321835Y-69342051D01*
X84503914Y-69266632D01*
X84667782Y-69157139D01*
X84807139Y-69017782D01*
X84916632Y-68853914D01*
X84992051Y-68671835D01*
X85030500Y-68478541D01*
X85030500Y-68281460D01*
X85569500Y-68281460D01*
X85569500Y-68478539D01*
X85607947Y-68671829D01*
X85607950Y-68671839D01*
X85683367Y-68853913D01*
X85719400Y-68907839D01*
X85792861Y-69017782D01*
X85932218Y-69157139D01*
X86096086Y-69266632D01*
X86278165Y-69342051D01*
X86471459Y-69380500D01*
X86471461Y-69380500D01*
X86668539Y-69380500D01*
X86668541Y-69380500D01*
X86861835Y-69342051D01*
X87043914Y-69266632D01*
X87207782Y-69157139D01*
X87347139Y-69017782D01*
X87456632Y-68853914D01*
X87532051Y-68671835D01*
X87570500Y-68478541D01*
X87570500Y-68281460D01*
X88109500Y-68281460D01*
X88109500Y-68478539D01*
X88147947Y-68671829D01*
X88147950Y-68671839D01*
X88223367Y-68853913D01*
X88259400Y-68907839D01*
X88332861Y-69017782D01*
X88472218Y-69157139D01*
X88636086Y-69266632D01*
X88818165Y-69342051D01*
X89011459Y-69380500D01*
X89011461Y-69380500D01*
X89208539Y-69380500D01*
X89208541Y-69380500D01*
X89401835Y-69342051D01*
X89583914Y-69266632D01*
X89747782Y-69157139D01*
X89887139Y-69017782D01*
X89996632Y-68853914D01*
X90072051Y-68671835D01*
X90110500Y-68478541D01*
X90110500Y-68281460D01*
X90649500Y-68281460D01*
X90649500Y-68478539D01*
X90687947Y-68671829D01*
X90687950Y-68671839D01*
X90763367Y-68853913D01*
X90799400Y-68907839D01*
X90872861Y-69017782D01*
X91012218Y-69157139D01*
X91176086Y-69266632D01*
X91358165Y-69342051D01*
X91551459Y-69380500D01*
X91551461Y-69380500D01*
X91748539Y-69380500D01*
X91748541Y-69380500D01*
X91941835Y-69342051D01*
X92123914Y-69266632D01*
X92287782Y-69157139D01*
X92427139Y-69017782D01*
X92536632Y-68853914D01*
X92612051Y-68671835D01*
X92650500Y-68478541D01*
X92650500Y-68281460D01*
X93189500Y-68281460D01*
X93189500Y-68478539D01*
X93227947Y-68671829D01*
X93227950Y-68671839D01*
X93303367Y-68853913D01*
X93339400Y-68907839D01*
X93412861Y-69017782D01*
X93552218Y-69157139D01*
X93716086Y-69266632D01*
X93898165Y-69342051D01*
X94091459Y-69380500D01*
X94091461Y-69380500D01*
X94288539Y-69380500D01*
X94288541Y-69380500D01*
X94481835Y-69342051D01*
X94663914Y-69266632D01*
X94827782Y-69157139D01*
X94967139Y-69017782D01*
X95076632Y-68853914D01*
X95152051Y-68671835D01*
X95190500Y-68478541D01*
X95190500Y-68281460D01*
X95729500Y-68281460D01*
X95729500Y-68478539D01*
X95767947Y-68671829D01*
X95767950Y-68671839D01*
X95843367Y-68853913D01*
X95879400Y-68907839D01*
X95952861Y-69017782D01*
X96092218Y-69157139D01*
X96256086Y-69266632D01*
X96438165Y-69342051D01*
X96631459Y-69380500D01*
X96631461Y-69380500D01*
X96828539Y-69380500D01*
X96828541Y-69380500D01*
X97021835Y-69342051D01*
X97203914Y-69266632D01*
X97367782Y-69157139D01*
X97507139Y-69017782D01*
X97616632Y-68853914D01*
X97692051Y-68671835D01*
X97730500Y-68478541D01*
X97730500Y-68281460D01*
X98269500Y-68281460D01*
X98269500Y-68478539D01*
X98307947Y-68671829D01*
X98307950Y-68671839D01*
X98383367Y-68853913D01*
X98419400Y-68907839D01*
X98492861Y-69017782D01*
X98632218Y-69157139D01*
X98796086Y-69266632D01*
X98978165Y-69342051D01*
X99171459Y-69380500D01*
X99171461Y-69380500D01*
X99368539Y-69380500D01*
X99368541Y-69380500D01*
X99561835Y-69342051D01*
X99743914Y-69266632D01*
X99907782Y-69157139D01*
X100047139Y-69017782D01*
X100156632Y-68853914D01*
X100232051Y-68671835D01*
X100270500Y-68478541D01*
X100270500Y-68281460D01*
X100809500Y-68281460D01*
X100809500Y-68478539D01*
X100847947Y-68671829D01*
X100847950Y-68671839D01*
X100923367Y-68853913D01*
X100959400Y-68907839D01*
X101032861Y-69017782D01*
X101172218Y-69157139D01*
X101336086Y-69266632D01*
X101518165Y-69342051D01*
X101711459Y-69380500D01*
X101711461Y-69380500D01*
X101908539Y-69380500D01*
X101908541Y-69380500D01*
X102101835Y-69342051D01*
X102283914Y-69266632D01*
X102447782Y-69157139D01*
X102587139Y-69017782D01*
X102696632Y-68853914D01*
X102772051Y-68671835D01*
X102810500Y-68478541D01*
X102810500Y-68281460D01*
X103349500Y-68281460D01*
X103349500Y-68478539D01*
X103387947Y-68671829D01*
X103387950Y-68671839D01*
X103463367Y-68853913D01*
X103499400Y-68907839D01*
X103572861Y-69017782D01*
X103712218Y-69157139D01*
X103876086Y-69266632D01*
X104058165Y-69342051D01*
X104251459Y-69380500D01*
X104251461Y-69380500D01*
X104448539Y-69380500D01*
X104448541Y-69380500D01*
X104641835Y-69342051D01*
X104823914Y-69266632D01*
X104987782Y-69157139D01*
X105127139Y-69017782D01*
X105236632Y-68853914D01*
X105312051Y-68671835D01*
X105350500Y-68478541D01*
X105350500Y-68281460D01*
X105889500Y-68281460D01*
X105889500Y-68478539D01*
X105927947Y-68671829D01*
X105927950Y-68671839D01*
X106003367Y-68853913D01*
X106039400Y-68907839D01*
X106112861Y-69017782D01*
X106252218Y-69157139D01*
X106416086Y-69266632D01*
X106598165Y-69342051D01*
X106791459Y-69380500D01*
X106791461Y-69380500D01*
X106988539Y-69380500D01*
X106988541Y-69380500D01*
X107181835Y-69342051D01*
X107363914Y-69266632D01*
X107527782Y-69157139D01*
X107667139Y-69017782D01*
X107776632Y-68853914D01*
X107852051Y-68671835D01*
X107890500Y-68478541D01*
X107890500Y-68281460D01*
X108429500Y-68281460D01*
X108429500Y-68478539D01*
X108467947Y-68671829D01*
X108467950Y-68671839D01*
X108543367Y-68853913D01*
X108579400Y-68907839D01*
X108652861Y-69017782D01*
X108792218Y-69157139D01*
X108956086Y-69266632D01*
X109138165Y-69342051D01*
X109331459Y-69380500D01*
X109331461Y-69380500D01*
X109528539Y-69380500D01*
X109528541Y-69380500D01*
X109721835Y-69342051D01*
X109903914Y-69266632D01*
X110067782Y-69157139D01*
X110207139Y-69017782D01*
X110316632Y-68853914D01*
X110392051Y-68671835D01*
X110430500Y-68478541D01*
X110430500Y-68281459D01*
X110392051Y-68088165D01*
X110380690Y-68060738D01*
X110316632Y-67906086D01*
X110207139Y-67742218D01*
X110067781Y-67602860D01*
X109903913Y-67493367D01*
X109721839Y-67417950D01*
X109721829Y-67417947D01*
X109592388Y-67392200D01*
X109528541Y-67379500D01*
X109331459Y-67379500D01*
X109276662Y-67390399D01*
X109138170Y-67417947D01*
X109138160Y-67417950D01*
X108956086Y-67493367D01*
X108792218Y-67602860D01*
X108792217Y-67602862D01*
X108652862Y-67742217D01*
X108652860Y-67742218D01*
X108543367Y-67906086D01*
X108467950Y-68088160D01*
X108467947Y-68088170D01*
X108429500Y-68281460D01*
X107890500Y-68281460D01*
X107890500Y-68281459D01*
X107852051Y-68088165D01*
X107840690Y-68060738D01*
X107776632Y-67906086D01*
X107667139Y-67742218D01*
X107527781Y-67602860D01*
X107363913Y-67493367D01*
X107181839Y-67417950D01*
X107181829Y-67417947D01*
X107052388Y-67392200D01*
X106988541Y-67379500D01*
X106791459Y-67379500D01*
X106736662Y-67390399D01*
X106598170Y-67417947D01*
X106598160Y-67417950D01*
X106416086Y-67493367D01*
X106252218Y-67602860D01*
X106252217Y-67602862D01*
X106112862Y-67742217D01*
X106112860Y-67742218D01*
X106003367Y-67906086D01*
X105927950Y-68088160D01*
X105927947Y-68088170D01*
X105889500Y-68281460D01*
X105350500Y-68281460D01*
X105350500Y-68281459D01*
X105312051Y-68088165D01*
X105300690Y-68060738D01*
X105236632Y-67906086D01*
X105127139Y-67742218D01*
X104987781Y-67602860D01*
X104823913Y-67493367D01*
X104641839Y-67417950D01*
X104641829Y-67417947D01*
X104512388Y-67392200D01*
X104448541Y-67379500D01*
X104251459Y-67379500D01*
X104196662Y-67390399D01*
X104058170Y-67417947D01*
X104058160Y-67417950D01*
X103876086Y-67493367D01*
X103712218Y-67602860D01*
X103712217Y-67602862D01*
X103572862Y-67742217D01*
X103572860Y-67742218D01*
X103463367Y-67906086D01*
X103387950Y-68088160D01*
X103387947Y-68088170D01*
X103349500Y-68281460D01*
X102810500Y-68281460D01*
X102810500Y-68281459D01*
X102772051Y-68088165D01*
X102760690Y-68060738D01*
X102696632Y-67906086D01*
X102587139Y-67742218D01*
X102447781Y-67602860D01*
X102283913Y-67493367D01*
X102101839Y-67417950D01*
X102101829Y-67417947D01*
X101972388Y-67392200D01*
X101908541Y-67379500D01*
X101711459Y-67379500D01*
X101656662Y-67390399D01*
X101518170Y-67417947D01*
X101518160Y-67417950D01*
X101336086Y-67493367D01*
X101172218Y-67602860D01*
X101172217Y-67602862D01*
X101032862Y-67742217D01*
X101032860Y-67742218D01*
X100923367Y-67906086D01*
X100847950Y-68088160D01*
X100847947Y-68088170D01*
X100809500Y-68281460D01*
X100270500Y-68281460D01*
X100270500Y-68281459D01*
X100232051Y-68088165D01*
X100220690Y-68060738D01*
X100156632Y-67906086D01*
X100047139Y-67742218D01*
X99907781Y-67602860D01*
X99743913Y-67493367D01*
X99561839Y-67417950D01*
X99561829Y-67417947D01*
X99432388Y-67392200D01*
X99368541Y-67379500D01*
X99171459Y-67379500D01*
X99116662Y-67390399D01*
X98978170Y-67417947D01*
X98978160Y-67417950D01*
X98796086Y-67493367D01*
X98632218Y-67602860D01*
X98632217Y-67602862D01*
X98492862Y-67742217D01*
X98492860Y-67742218D01*
X98383367Y-67906086D01*
X98307950Y-68088160D01*
X98307947Y-68088170D01*
X98269500Y-68281460D01*
X97730500Y-68281460D01*
X97730500Y-68281459D01*
X97692051Y-68088165D01*
X97680690Y-68060738D01*
X97616632Y-67906086D01*
X97507139Y-67742218D01*
X97367781Y-67602860D01*
X97203913Y-67493367D01*
X97021839Y-67417950D01*
X97021829Y-67417947D01*
X96892388Y-67392200D01*
X96828541Y-67379500D01*
X96631459Y-67379500D01*
X96576662Y-67390399D01*
X96438170Y-67417947D01*
X96438160Y-67417950D01*
X96256086Y-67493367D01*
X96092218Y-67602860D01*
X96092217Y-67602862D01*
X95952862Y-67742217D01*
X95952860Y-67742218D01*
X95843367Y-67906086D01*
X95767950Y-68088160D01*
X95767947Y-68088170D01*
X95729500Y-68281460D01*
X95190500Y-68281460D01*
X95190500Y-68281459D01*
X95152051Y-68088165D01*
X95140690Y-68060738D01*
X95076632Y-67906086D01*
X94967139Y-67742218D01*
X94827781Y-67602860D01*
X94663913Y-67493367D01*
X94481839Y-67417950D01*
X94481829Y-67417947D01*
X94352388Y-67392200D01*
X94288541Y-67379500D01*
X94091459Y-67379500D01*
X94036662Y-67390399D01*
X93898170Y-67417947D01*
X93898160Y-67417950D01*
X93716086Y-67493367D01*
X93552218Y-67602860D01*
X93552217Y-67602862D01*
X93412862Y-67742217D01*
X93412860Y-67742218D01*
X93303367Y-67906086D01*
X93227950Y-68088160D01*
X93227947Y-68088170D01*
X93189500Y-68281460D01*
X92650500Y-68281460D01*
X92650500Y-68281459D01*
X92612051Y-68088165D01*
X92600690Y-68060738D01*
X92536632Y-67906086D01*
X92427139Y-67742218D01*
X92287781Y-67602860D01*
X92123913Y-67493367D01*
X91941839Y-67417950D01*
X91941829Y-67417947D01*
X91812388Y-67392200D01*
X91748541Y-67379500D01*
X91551459Y-67379500D01*
X91496662Y-67390399D01*
X91358170Y-67417947D01*
X91358160Y-67417950D01*
X91176086Y-67493367D01*
X91012218Y-67602860D01*
X91012217Y-67602862D01*
X90872862Y-67742217D01*
X90872860Y-67742218D01*
X90763367Y-67906086D01*
X90687950Y-68088160D01*
X90687947Y-68088170D01*
X90649500Y-68281460D01*
X90110500Y-68281460D01*
X90110500Y-68281459D01*
X90072051Y-68088165D01*
X90060690Y-68060738D01*
X89996632Y-67906086D01*
X89887139Y-67742218D01*
X89747781Y-67602860D01*
X89583913Y-67493367D01*
X89401839Y-67417950D01*
X89401829Y-67417947D01*
X89272388Y-67392200D01*
X89208541Y-67379500D01*
X89011459Y-67379500D01*
X88956662Y-67390399D01*
X88818170Y-67417947D01*
X88818160Y-67417950D01*
X88636086Y-67493367D01*
X88472218Y-67602860D01*
X88472217Y-67602862D01*
X88332862Y-67742217D01*
X88332860Y-67742218D01*
X88223367Y-67906086D01*
X88147950Y-68088160D01*
X88147947Y-68088170D01*
X88109500Y-68281460D01*
X87570500Y-68281460D01*
X87570500Y-68281459D01*
X87532051Y-68088165D01*
X87520690Y-68060738D01*
X87456632Y-67906086D01*
X87347139Y-67742218D01*
X87207781Y-67602860D01*
X87043913Y-67493367D01*
X86861839Y-67417950D01*
X86861829Y-67417947D01*
X86732388Y-67392200D01*
X86668541Y-67379500D01*
X86471459Y-67379500D01*
X86416662Y-67390399D01*
X86278170Y-67417947D01*
X86278160Y-67417950D01*
X86096086Y-67493367D01*
X85932218Y-67602860D01*
X85932217Y-67602862D01*
X85792862Y-67742217D01*
X85792860Y-67742218D01*
X85683367Y-67906086D01*
X85607950Y-68088160D01*
X85607947Y-68088170D01*
X85569500Y-68281460D01*
X85030500Y-68281460D01*
X85030500Y-68281459D01*
X84992051Y-68088165D01*
X84980690Y-68060738D01*
X84916632Y-67906086D01*
X84807139Y-67742218D01*
X84667781Y-67602860D01*
X84503913Y-67493367D01*
X84321839Y-67417950D01*
X84321829Y-67417947D01*
X84192388Y-67392200D01*
X84128541Y-67379500D01*
X83931459Y-67379500D01*
X83876662Y-67390399D01*
X83738170Y-67417947D01*
X83738160Y-67417950D01*
X83556086Y-67493367D01*
X83392218Y-67602860D01*
X83392217Y-67602862D01*
X83252862Y-67742217D01*
X83252860Y-67742218D01*
X83143367Y-67906086D01*
X83067950Y-68088160D01*
X83067947Y-68088170D01*
X83029500Y-68281460D01*
X82490500Y-68281460D01*
X82490500Y-68281459D01*
X82452051Y-68088165D01*
X82440690Y-68060738D01*
X82376632Y-67906086D01*
X82267139Y-67742218D01*
X82127781Y-67602860D01*
X81963913Y-67493367D01*
X81781839Y-67417950D01*
X81781829Y-67417947D01*
X81652388Y-67392200D01*
X81588541Y-67379500D01*
X81391459Y-67379500D01*
X81336662Y-67390399D01*
X81198170Y-67417947D01*
X81198160Y-67417950D01*
X81016086Y-67493367D01*
X80852218Y-67602860D01*
X80852217Y-67602862D01*
X80712862Y-67742217D01*
X80712860Y-67742218D01*
X80603367Y-67906086D01*
X80527950Y-68088160D01*
X80527947Y-68088170D01*
X80489500Y-68281460D01*
X79950500Y-68281460D01*
X79950500Y-68281459D01*
X79912051Y-68088165D01*
X79900690Y-68060738D01*
X79836632Y-67906086D01*
X79727139Y-67742218D01*
X79587781Y-67602860D01*
X79423913Y-67493367D01*
X79241839Y-67417950D01*
X79241829Y-67417947D01*
X79112388Y-67392200D01*
X79048541Y-67379500D01*
X78851459Y-67379500D01*
X78796662Y-67390399D01*
X78658170Y-67417947D01*
X78658160Y-67417950D01*
X78476086Y-67493367D01*
X78312218Y-67602860D01*
X78312217Y-67602862D01*
X78172862Y-67742217D01*
X78172860Y-67742218D01*
X78063367Y-67906086D01*
X77987950Y-68088160D01*
X77987947Y-68088170D01*
X77949500Y-68281460D01*
X77410500Y-68281460D01*
X77410500Y-68281459D01*
X77372051Y-68088165D01*
X77360690Y-68060738D01*
X77296632Y-67906086D01*
X77187139Y-67742218D01*
X77047781Y-67602860D01*
X76883913Y-67493367D01*
X76701839Y-67417950D01*
X76701829Y-67417947D01*
X76572388Y-67392200D01*
X76508541Y-67379500D01*
X76311459Y-67379500D01*
X76256662Y-67390399D01*
X76118170Y-67417947D01*
X76118160Y-67417950D01*
X75936086Y-67493367D01*
X75772218Y-67602860D01*
X75772217Y-67602862D01*
X75632862Y-67742217D01*
X75632860Y-67742218D01*
X75523367Y-67906086D01*
X75447950Y-68088160D01*
X75447947Y-68088170D01*
X75409500Y-68281460D01*
X74870500Y-68281460D01*
X74870500Y-68281459D01*
X74832051Y-68088165D01*
X74820690Y-68060738D01*
X74756632Y-67906086D01*
X74647139Y-67742218D01*
X74507781Y-67602860D01*
X74343913Y-67493367D01*
X74161839Y-67417950D01*
X74161829Y-67417947D01*
X74032388Y-67392200D01*
X73968541Y-67379500D01*
X73771459Y-67379500D01*
X73716662Y-67390399D01*
X73578170Y-67417947D01*
X73578160Y-67417950D01*
X73396086Y-67493367D01*
X73232218Y-67602860D01*
X73232217Y-67602862D01*
X73092862Y-67742217D01*
X73092860Y-67742218D01*
X72983367Y-67906086D01*
X72907950Y-68088160D01*
X72907947Y-68088170D01*
X72869500Y-68281460D01*
X70200000Y-68281460D01*
X70200000Y-60274000D01*
X70221674Y-60221674D01*
X70274000Y-60200000D01*
X129726000Y-60200000D01*
X129778326Y-60221674D01*
G37*
%TD.AperFunction*%
%TA.AperFunction,Conductor*%
G36*
X116202803Y-121279474D02*
G01*
X116657840Y-121734511D01*
X116713789Y-121790460D01*
X116782311Y-121830021D01*
X116782312Y-121830021D01*
X116782314Y-121830022D01*
X116820524Y-121840260D01*
X116858735Y-121850499D01*
X116858736Y-121850500D01*
X116858738Y-121850500D01*
X116925500Y-121850500D01*
X116951347Y-121861206D01*
X116977339Y-121871691D01*
X116977481Y-121872031D01*
X116977826Y-121872174D01*
X116999497Y-121923814D01*
X116999500Y-121924137D01*
X116999500Y-121969748D01*
X116999943Y-121971976D01*
X116999997Y-121977773D01*
X116999969Y-121977840D01*
X117000000Y-121978459D01*
X117000000Y-122321536D01*
X116999644Y-122328783D01*
X116999500Y-122330246D01*
X116999500Y-122375500D01*
X116977826Y-122427826D01*
X116925500Y-122449500D01*
X115050436Y-122449500D01*
X114974014Y-122469977D01*
X114974009Y-122469979D01*
X114905488Y-122509540D01*
X112470211Y-124944816D01*
X112417885Y-124966490D01*
X112389567Y-124960857D01*
X112261839Y-124907950D01*
X112261829Y-124907947D01*
X112130809Y-124881886D01*
X112068541Y-124869500D01*
X111871459Y-124869500D01*
X111816662Y-124880399D01*
X111678170Y-124907947D01*
X111678160Y-124907950D01*
X111496086Y-124983367D01*
X111332218Y-125092860D01*
X111332217Y-125092862D01*
X111192862Y-125232217D01*
X111192860Y-125232218D01*
X111083367Y-125396086D01*
X111007950Y-125578160D01*
X111007947Y-125578170D01*
X110979978Y-125718784D01*
X110969500Y-125771459D01*
X110969500Y-125968541D01*
X110974672Y-125994540D01*
X111007947Y-126161829D01*
X111007950Y-126161839D01*
X111083367Y-126343913D01*
X111163499Y-126463838D01*
X111192861Y-126507782D01*
X111332218Y-126647139D01*
X111496086Y-126756632D01*
X111641179Y-126816731D01*
X111681227Y-126856778D01*
X111681227Y-126913415D01*
X111652834Y-126945798D01*
X111653333Y-126946448D01*
X111650069Y-126948952D01*
X111649873Y-126949176D01*
X111649487Y-126949398D01*
X111556300Y-127042585D01*
X111490410Y-127156709D01*
X111490406Y-127156718D01*
X111456300Y-127284005D01*
X111456300Y-127292677D01*
X111434626Y-127345003D01*
X111382300Y-127366677D01*
X111329974Y-127345003D01*
X110355183Y-126370212D01*
X110333509Y-126317886D01*
X110339142Y-126289567D01*
X110392051Y-126161835D01*
X110430500Y-125968541D01*
X110430500Y-125771459D01*
X110392051Y-125578165D01*
X110316632Y-125396086D01*
X110207139Y-125232218D01*
X110067782Y-125092861D01*
X110062302Y-125089199D01*
X109903913Y-124983367D01*
X109721839Y-124907950D01*
X109721829Y-124907947D01*
X109590809Y-124881886D01*
X109528541Y-124869500D01*
X109331459Y-124869500D01*
X109276662Y-124880399D01*
X109138170Y-124907947D01*
X109138160Y-124907950D01*
X108956086Y-124983367D01*
X108792218Y-125092860D01*
X108792217Y-125092862D01*
X108652862Y-125232217D01*
X108652860Y-125232218D01*
X108543367Y-125396086D01*
X108467950Y-125578160D01*
X108467947Y-125578170D01*
X108439978Y-125718784D01*
X108429500Y-125771459D01*
X108429500Y-125968541D01*
X108434672Y-125994540D01*
X108467947Y-126161829D01*
X108467950Y-126161839D01*
X108543367Y-126343913D01*
X108652860Y-126507781D01*
X108792218Y-126647139D01*
X108956086Y-126756632D01*
X109110787Y-126820711D01*
X109138165Y-126832051D01*
X109331459Y-126870500D01*
X109331461Y-126870500D01*
X109528539Y-126870500D01*
X109528541Y-126870500D01*
X109721835Y-126832051D01*
X109849568Y-126779142D01*
X109906204Y-126779142D01*
X109930212Y-126795183D01*
X112658189Y-129523160D01*
X112726712Y-129562722D01*
X112803138Y-129583200D01*
X112882262Y-129583200D01*
X117052077Y-129583200D01*
X117104403Y-129604874D01*
X117473203Y-129973674D01*
X117494877Y-130026000D01*
X117473203Y-130078326D01*
X117420877Y-130100000D01*
X115310001Y-130100000D01*
X115310000Y-130100000D01*
X115296994Y-130101281D01*
X115270980Y-130103843D01*
X115248218Y-130110748D01*
X115233463Y-130115224D01*
X115233461Y-130115224D01*
X115233461Y-130115225D01*
X115198887Y-130133705D01*
X115198883Y-130133708D01*
X115168579Y-130158579D01*
X115143708Y-130188883D01*
X115143705Y-130188887D01*
X115125225Y-130223461D01*
X115113843Y-130260980D01*
X115110000Y-130300001D01*
X115110000Y-139726000D01*
X115088326Y-139778326D01*
X115036000Y-139800000D01*
X112704500Y-139800000D01*
X112652174Y-139778326D01*
X112630500Y-139726000D01*
X112630500Y-132970246D01*
X112630356Y-132968783D01*
X112630000Y-132961536D01*
X112630000Y-132790000D01*
X112458464Y-132790000D01*
X112456830Y-132789982D01*
X112451589Y-132789866D01*
X112449748Y-132789500D01*
X112435004Y-132789500D01*
X112434189Y-132789482D01*
X112408964Y-132778374D01*
X112383497Y-132767826D01*
X112383160Y-132767012D01*
X112382355Y-132766658D01*
X112372375Y-132740976D01*
X112361823Y-132715500D01*
X112362159Y-132714686D01*
X112361841Y-132713866D01*
X112372948Y-132688641D01*
X112383497Y-132663174D01*
X114149896Y-130896774D01*
X114202222Y-130875100D01*
X114312994Y-130875100D01*
X114312994Y-130875099D01*
X114440286Y-130840992D01*
X114554414Y-130775100D01*
X114647600Y-130681914D01*
X114713492Y-130567786D01*
X114747599Y-130440494D01*
X114747600Y-130440494D01*
X114747600Y-130308706D01*
X114747599Y-130308705D01*
X114725302Y-130225492D01*
X114713492Y-130181414D01*
X114647600Y-130067286D01*
X114554414Y-129974100D01*
X114552867Y-129973207D01*
X114440290Y-129908210D01*
X114440281Y-129908206D01*
X114312994Y-129874100D01*
X114312992Y-129874100D01*
X114181208Y-129874100D01*
X114181206Y-129874100D01*
X114053918Y-129908206D01*
X114053909Y-129908210D01*
X113939785Y-129974100D01*
X113846600Y-130067285D01*
X113780710Y-130181409D01*
X113780706Y-130181418D01*
X113746600Y-130308705D01*
X113746600Y-130419476D01*
X113724926Y-130471802D01*
X111830603Y-132366126D01*
X111778277Y-132387800D01*
X111390436Y-132387800D01*
X111314014Y-132408277D01*
X111314009Y-132408279D01*
X111245488Y-132447840D01*
X111189540Y-132503788D01*
X111149979Y-132572309D01*
X111149977Y-132572314D01*
X111129500Y-132648735D01*
X111129500Y-132715500D01*
X111107826Y-132767826D01*
X111055500Y-132789500D01*
X110410246Y-132789500D01*
X110408783Y-132789644D01*
X110401536Y-132790000D01*
X110230000Y-132790000D01*
X110212326Y-132807674D01*
X110160000Y-132829348D01*
X110107674Y-132807674D01*
X110090000Y-132790000D01*
X109918464Y-132790000D01*
X109911217Y-132789644D01*
X109909754Y-132789500D01*
X109909748Y-132789500D01*
X109264500Y-132789500D01*
X109212174Y-132767826D01*
X109190500Y-132715500D01*
X109190500Y-127830436D01*
X109190499Y-127830435D01*
X109186709Y-127816292D01*
X109170021Y-127754011D01*
X109130460Y-127685489D01*
X109074511Y-127629540D01*
X107815183Y-126370212D01*
X107793509Y-126317886D01*
X107799142Y-126289567D01*
X107852051Y-126161835D01*
X107890500Y-125968541D01*
X107890500Y-125771459D01*
X107852051Y-125578165D01*
X107776632Y-125396086D01*
X107667139Y-125232218D01*
X107527782Y-125092861D01*
X107522302Y-125089199D01*
X107363913Y-124983367D01*
X107181839Y-124907950D01*
X107181829Y-124907947D01*
X107050809Y-124881886D01*
X106988541Y-124869500D01*
X106791459Y-124869500D01*
X106736662Y-124880399D01*
X106598170Y-124907947D01*
X106598160Y-124907950D01*
X106416086Y-124983367D01*
X106252218Y-125092860D01*
X106252217Y-125092862D01*
X106112862Y-125232217D01*
X106112860Y-125232218D01*
X106003367Y-125396086D01*
X105927950Y-125578160D01*
X105927947Y-125578170D01*
X105899978Y-125718784D01*
X105889500Y-125771459D01*
X105889500Y-125968541D01*
X105894672Y-125994540D01*
X105927947Y-126161829D01*
X105927950Y-126161839D01*
X106003367Y-126343913D01*
X106112860Y-126507781D01*
X106252218Y-126647139D01*
X106416086Y-126756632D01*
X106570787Y-126820711D01*
X106598165Y-126832051D01*
X106791459Y-126870500D01*
X106791461Y-126870500D01*
X106988539Y-126870500D01*
X106988541Y-126870500D01*
X107181835Y-126832051D01*
X107309568Y-126779142D01*
X107366204Y-126779142D01*
X107390212Y-126795183D01*
X108567826Y-127972797D01*
X108589500Y-128025123D01*
X108589500Y-132715500D01*
X108567826Y-132767826D01*
X108515500Y-132789500D01*
X107870246Y-132789500D01*
X107868783Y-132789644D01*
X107861536Y-132790000D01*
X107690000Y-132790000D01*
X107672326Y-132807674D01*
X107620000Y-132829348D01*
X107567674Y-132807674D01*
X107550000Y-132790000D01*
X107378464Y-132790000D01*
X107371217Y-132789644D01*
X107369754Y-132789500D01*
X107369748Y-132789500D01*
X106724500Y-132789500D01*
X106672174Y-132767826D01*
X106650500Y-132715500D01*
X106650500Y-127830436D01*
X106650499Y-127830435D01*
X106646709Y-127816292D01*
X106630021Y-127754011D01*
X106590460Y-127685489D01*
X106534511Y-127629540D01*
X105275183Y-126370212D01*
X105253509Y-126317886D01*
X105259142Y-126289567D01*
X105312051Y-126161835D01*
X105350500Y-125968541D01*
X105350500Y-125771459D01*
X105312051Y-125578165D01*
X105236632Y-125396086D01*
X105127139Y-125232218D01*
X104987782Y-125092861D01*
X104982302Y-125089199D01*
X104823913Y-124983367D01*
X104641839Y-124907950D01*
X104641829Y-124907947D01*
X104510809Y-124881886D01*
X104448541Y-124869500D01*
X104251459Y-124869500D01*
X104196662Y-124880399D01*
X104058170Y-124907947D01*
X104058160Y-124907950D01*
X103876086Y-124983367D01*
X103712218Y-125092860D01*
X103712217Y-125092862D01*
X103572862Y-125232217D01*
X103572860Y-125232218D01*
X103463367Y-125396086D01*
X103387950Y-125578160D01*
X103387947Y-125578170D01*
X103359978Y-125718784D01*
X103349500Y-125771459D01*
X103349500Y-125968541D01*
X103354672Y-125994540D01*
X103387947Y-126161829D01*
X103387950Y-126161839D01*
X103463367Y-126343913D01*
X103572860Y-126507781D01*
X103712218Y-126647139D01*
X103876086Y-126756632D01*
X104030787Y-126820711D01*
X104058165Y-126832051D01*
X104251459Y-126870500D01*
X104251461Y-126870500D01*
X104448539Y-126870500D01*
X104448541Y-126870500D01*
X104641835Y-126832051D01*
X104769568Y-126779142D01*
X104826204Y-126779142D01*
X104850212Y-126795183D01*
X106027826Y-127972797D01*
X106049500Y-128025123D01*
X106049500Y-132715500D01*
X106027826Y-132767826D01*
X105975500Y-132789500D01*
X105330246Y-132789500D01*
X105328783Y-132789644D01*
X105321536Y-132790000D01*
X105150000Y-132790000D01*
X105132326Y-132807674D01*
X105080000Y-132829348D01*
X105027674Y-132807674D01*
X105010000Y-132790000D01*
X104838464Y-132790000D01*
X104831217Y-132789644D01*
X104829754Y-132789500D01*
X104829748Y-132789500D01*
X104184500Y-132789500D01*
X104132174Y-132767826D01*
X104110500Y-132715500D01*
X104110500Y-127830436D01*
X104110499Y-127830435D01*
X104106709Y-127816292D01*
X104090021Y-127754011D01*
X104050460Y-127685489D01*
X103994511Y-127629540D01*
X102735183Y-126370212D01*
X102713509Y-126317886D01*
X102719142Y-126289567D01*
X102772051Y-126161835D01*
X102810500Y-125968541D01*
X102810500Y-125771459D01*
X102772051Y-125578165D01*
X102696632Y-125396086D01*
X102587139Y-125232218D01*
X102447782Y-125092861D01*
X102442302Y-125089199D01*
X102283913Y-124983367D01*
X102101839Y-124907950D01*
X102101829Y-124907947D01*
X101970809Y-124881886D01*
X101908541Y-124869500D01*
X101711459Y-124869500D01*
X101656662Y-124880399D01*
X101518170Y-124907947D01*
X101518160Y-124907950D01*
X101336086Y-124983367D01*
X101172218Y-125092860D01*
X101172217Y-125092862D01*
X101032862Y-125232217D01*
X101032860Y-125232218D01*
X100976029Y-125317273D01*
X100928937Y-125348739D01*
X100873388Y-125337690D01*
X100841922Y-125290598D01*
X100840500Y-125276161D01*
X100840500Y-124675836D01*
X100840499Y-124675835D01*
X100820022Y-124599414D01*
X100820020Y-124599409D01*
X100809420Y-124581049D01*
X100780460Y-124530889D01*
X100724511Y-124474940D01*
X100664874Y-124415303D01*
X100643200Y-124362977D01*
X100643200Y-124252206D01*
X100643199Y-124252205D01*
X100639998Y-124240260D01*
X100609092Y-124124914D01*
X100549790Y-124022200D01*
X100542397Y-123966047D01*
X100576876Y-123921114D01*
X100613876Y-123911200D01*
X110924364Y-123911200D01*
X110924364Y-123911199D01*
X111000789Y-123890721D01*
X111069311Y-123851160D01*
X111125260Y-123795211D01*
X112653096Y-122267373D01*
X112705422Y-122245700D01*
X112816194Y-122245700D01*
X112816194Y-122245699D01*
X112943486Y-122211592D01*
X113057614Y-122145700D01*
X113150800Y-122052514D01*
X113216692Y-121938386D01*
X113250799Y-121811094D01*
X113250800Y-121811094D01*
X113250800Y-121679306D01*
X113250799Y-121679305D01*
X113249051Y-121672783D01*
X113216692Y-121552014D01*
X113150800Y-121437886D01*
X113097040Y-121384126D01*
X113075366Y-121331800D01*
X113097040Y-121279474D01*
X113149366Y-121257800D01*
X116150477Y-121257800D01*
X116202803Y-121279474D01*
G37*
%TD.AperFunction*%
%TA.AperFunction,Conductor*%
G36*
X81775026Y-107933297D02*
G01*
X81796700Y-107985623D01*
X81796700Y-108454034D01*
X81775026Y-108506360D01*
X81696700Y-108584685D01*
X81630810Y-108698809D01*
X81630806Y-108698818D01*
X81596700Y-108826105D01*
X81596700Y-108957894D01*
X81630806Y-109085181D01*
X81630807Y-109085184D01*
X81630808Y-109085186D01*
X81696700Y-109199314D01*
X81789886Y-109292500D01*
X81904014Y-109358392D01*
X82031305Y-109392499D01*
X82031306Y-109392500D01*
X82031308Y-109392500D01*
X82163094Y-109392500D01*
X82163094Y-109392499D01*
X82290386Y-109358392D01*
X82404514Y-109292500D01*
X82491874Y-109205140D01*
X82544200Y-109183466D01*
X82596526Y-109205140D01*
X82618200Y-109257466D01*
X82618200Y-124798264D01*
X82638677Y-124874685D01*
X82638679Y-124874689D01*
X82670127Y-124929158D01*
X82678241Y-124943212D01*
X83104816Y-125369787D01*
X83126490Y-125422113D01*
X83120857Y-125450431D01*
X83067950Y-125578160D01*
X83067947Y-125578170D01*
X83039978Y-125718784D01*
X83029500Y-125771459D01*
X83029500Y-125968541D01*
X83034672Y-125994540D01*
X83067947Y-126161829D01*
X83067950Y-126161839D01*
X83143367Y-126343913D01*
X83252860Y-126507781D01*
X83392218Y-126647139D01*
X83556086Y-126756632D01*
X83710787Y-126820711D01*
X83738165Y-126832051D01*
X83931459Y-126870500D01*
X83931461Y-126870500D01*
X84128539Y-126870500D01*
X84128541Y-126870500D01*
X84321835Y-126832051D01*
X84449568Y-126779142D01*
X84506204Y-126779142D01*
X84530212Y-126795183D01*
X88247826Y-130512797D01*
X88269500Y-130565123D01*
X88269500Y-132715500D01*
X88247826Y-132767826D01*
X88195500Y-132789500D01*
X87550246Y-132789500D01*
X87548783Y-132789644D01*
X87541536Y-132790000D01*
X87370000Y-132790000D01*
X87352326Y-132807674D01*
X87300000Y-132829348D01*
X87247674Y-132807674D01*
X87230000Y-132790000D01*
X87058464Y-132790000D01*
X87051217Y-132789644D01*
X87049754Y-132789500D01*
X87049748Y-132789500D01*
X86404500Y-132789500D01*
X86352174Y-132767826D01*
X86330500Y-132715500D01*
X86330500Y-130370437D01*
X86324273Y-130347201D01*
X86324272Y-130347198D01*
X86313960Y-130308708D01*
X86310022Y-130294012D01*
X86290951Y-130260980D01*
X86270462Y-130225492D01*
X86270461Y-130225491D01*
X86270460Y-130225489D01*
X82415183Y-126370212D01*
X82393509Y-126317886D01*
X82399142Y-126289567D01*
X82452051Y-126161835D01*
X82490500Y-125968541D01*
X82490500Y-125771459D01*
X82452051Y-125578165D01*
X82376632Y-125396086D01*
X82267139Y-125232218D01*
X82127782Y-125092861D01*
X82122302Y-125089199D01*
X81963913Y-124983367D01*
X81781839Y-124907950D01*
X81781829Y-124907947D01*
X81650809Y-124881886D01*
X81588541Y-124869500D01*
X81391459Y-124869500D01*
X81336662Y-124880399D01*
X81198170Y-124907947D01*
X81198160Y-124907950D01*
X81070431Y-124960857D01*
X81013794Y-124960857D01*
X80989787Y-124944816D01*
X80674374Y-124629403D01*
X80652700Y-124577077D01*
X80652700Y-108981623D01*
X80674374Y-108929297D01*
X81670374Y-107933297D01*
X81722700Y-107911623D01*
X81775026Y-107933297D01*
G37*
%TD.AperFunction*%
%TA.AperFunction,Conductor*%
G36*
X99723850Y-123932874D02*
G01*
X99745524Y-123985200D01*
X99735610Y-124022200D01*
X99676310Y-124124909D01*
X99676306Y-124124918D01*
X99642200Y-124252205D01*
X99642200Y-124383994D01*
X99676306Y-124511281D01*
X99676310Y-124511290D01*
X99740694Y-124622805D01*
X99742200Y-124625414D01*
X99835386Y-124718600D01*
X99949514Y-124784492D01*
X100076805Y-124818599D01*
X100076806Y-124818600D01*
X100165500Y-124818600D01*
X100217826Y-124840274D01*
X100239500Y-124892600D01*
X100239500Y-129198077D01*
X100217826Y-129250403D01*
X100165500Y-129272077D01*
X100113174Y-129250403D01*
X97491172Y-126628401D01*
X97469498Y-126576075D01*
X97491172Y-126523749D01*
X97507138Y-126507783D01*
X97507139Y-126507782D01*
X97616632Y-126343914D01*
X97692051Y-126161835D01*
X97730500Y-125968541D01*
X97730500Y-125771459D01*
X97692051Y-125578165D01*
X97616632Y-125396086D01*
X97507139Y-125232218D01*
X97367782Y-125092861D01*
X97362302Y-125089199D01*
X97203913Y-124983367D01*
X97021839Y-124907950D01*
X97021829Y-124907947D01*
X96890809Y-124881886D01*
X96828541Y-124869500D01*
X96676022Y-124869500D01*
X96623696Y-124847826D01*
X96602022Y-124795500D01*
X96623696Y-124743174D01*
X96975279Y-124391592D01*
X97433997Y-123932874D01*
X97486323Y-123911200D01*
X99671524Y-123911200D01*
X99723850Y-123932874D01*
G37*
%TD.AperFunction*%
%TA.AperFunction,Conductor*%
G36*
X83345526Y-111360447D02*
G01*
X83392218Y-111407139D01*
X83556086Y-111516632D01*
X83738165Y-111592051D01*
X83931459Y-111630500D01*
X83931461Y-111630500D01*
X84128539Y-111630500D01*
X84128541Y-111630500D01*
X84279186Y-111600534D01*
X84334733Y-111611583D01*
X84366199Y-111658675D01*
X84355150Y-111714224D01*
X84345950Y-111725435D01*
X84341600Y-111729784D01*
X84275710Y-111843909D01*
X84275706Y-111843918D01*
X84241600Y-111971205D01*
X84241600Y-112081976D01*
X84223109Y-112126617D01*
X84219926Y-112134301D01*
X84157089Y-112197139D01*
X84157089Y-112197140D01*
X84101140Y-112253088D01*
X84061579Y-112321609D01*
X84061577Y-112321614D01*
X84041100Y-112398035D01*
X84041100Y-115151864D01*
X84061577Y-115228285D01*
X84061579Y-115228289D01*
X84070246Y-115243300D01*
X84070247Y-115243302D01*
X84101139Y-115296810D01*
X89240526Y-120436197D01*
X89262200Y-120488523D01*
X89262200Y-120599294D01*
X89296306Y-120726581D01*
X89296307Y-120726584D01*
X89296308Y-120726586D01*
X89362200Y-120840714D01*
X89455386Y-120933900D01*
X89569514Y-120999792D01*
X89696805Y-121033899D01*
X89696806Y-121033900D01*
X89696808Y-121033900D01*
X89828594Y-121033900D01*
X89828594Y-121033899D01*
X89955886Y-120999792D01*
X90070014Y-120933900D01*
X90163200Y-120840714D01*
X90229092Y-120726586D01*
X90263199Y-120599294D01*
X90263200Y-120599294D01*
X90263200Y-120467506D01*
X90263199Y-120467505D01*
X90262156Y-120463614D01*
X90229092Y-120340214D01*
X90192339Y-120276556D01*
X90184946Y-120220404D01*
X90219425Y-120175470D01*
X90275577Y-120168077D01*
X90293421Y-120175468D01*
X90358811Y-120213221D01*
X90358812Y-120213221D01*
X90358814Y-120213222D01*
X90392290Y-120222192D01*
X90435235Y-120233699D01*
X90435236Y-120233700D01*
X90435238Y-120233700D01*
X96988077Y-120233700D01*
X97040403Y-120255374D01*
X98344816Y-121559787D01*
X98366490Y-121612113D01*
X98360857Y-121640431D01*
X98307950Y-121768160D01*
X98307947Y-121768170D01*
X98287260Y-121872174D01*
X98269500Y-121961459D01*
X98269500Y-122158541D01*
X98280052Y-122211589D01*
X98307947Y-122351829D01*
X98307950Y-122351839D01*
X98383367Y-122533913D01*
X98425996Y-122597711D01*
X98492861Y-122697782D01*
X98577254Y-122782175D01*
X98598928Y-122834500D01*
X98577254Y-122886826D01*
X98524928Y-122908500D01*
X97475072Y-122908500D01*
X97422746Y-122886826D01*
X97401072Y-122834500D01*
X97422745Y-122782175D01*
X97507139Y-122697782D01*
X97616632Y-122533914D01*
X97692051Y-122351835D01*
X97730500Y-122158541D01*
X97730500Y-121961459D01*
X97692051Y-121768165D01*
X97616632Y-121586086D01*
X97507139Y-121422218D01*
X97367782Y-121282861D01*
X97361717Y-121278808D01*
X97203913Y-121173367D01*
X97021839Y-121097950D01*
X97021829Y-121097947D01*
X96890221Y-121071769D01*
X96828541Y-121059500D01*
X96631459Y-121059500D01*
X96576662Y-121070399D01*
X96438170Y-121097947D01*
X96438160Y-121097950D01*
X96256086Y-121173367D01*
X96092218Y-121282860D01*
X96092217Y-121282862D01*
X95952862Y-121422217D01*
X95952860Y-121422218D01*
X95843367Y-121586086D01*
X95767950Y-121768160D01*
X95767947Y-121768170D01*
X95747260Y-121872174D01*
X95729500Y-121961459D01*
X95729500Y-122158541D01*
X95740052Y-122211589D01*
X95767947Y-122351829D01*
X95767950Y-122351839D01*
X95820857Y-122479567D01*
X95820857Y-122536204D01*
X95804816Y-122560211D01*
X93998503Y-124366526D01*
X93946177Y-124388200D01*
X85272166Y-124388200D01*
X85219840Y-124366526D01*
X85141514Y-124288200D01*
X85113756Y-124272174D01*
X85066347Y-124244802D01*
X85060259Y-124236868D01*
X85051022Y-124233042D01*
X85043630Y-124215197D01*
X85031869Y-124199870D01*
X85033174Y-124189954D01*
X85029348Y-124180716D01*
X85036740Y-124162870D01*
X85039262Y-124143717D01*
X85051023Y-124128391D01*
X85105641Y-124073774D01*
X85157966Y-124052100D01*
X92537964Y-124052100D01*
X92537964Y-124052099D01*
X92614389Y-124031621D01*
X92682911Y-123992060D01*
X92738860Y-123936111D01*
X93689787Y-122985182D01*
X93742112Y-122963509D01*
X93770430Y-122969142D01*
X93898160Y-123022049D01*
X93898165Y-123022051D01*
X94091459Y-123060500D01*
X94091461Y-123060500D01*
X94288539Y-123060500D01*
X94288541Y-123060500D01*
X94481835Y-123022051D01*
X94663914Y-122946632D01*
X94827782Y-122837139D01*
X94967139Y-122697782D01*
X95076632Y-122533914D01*
X95152051Y-122351835D01*
X95190500Y-122158541D01*
X95190500Y-121961459D01*
X95152051Y-121768165D01*
X95076632Y-121586086D01*
X94967139Y-121422218D01*
X94827782Y-121282861D01*
X94821717Y-121278808D01*
X94663913Y-121173367D01*
X94481839Y-121097950D01*
X94481829Y-121097947D01*
X94350221Y-121071769D01*
X94288541Y-121059500D01*
X94091459Y-121059500D01*
X94036662Y-121070399D01*
X93898170Y-121097947D01*
X93898160Y-121097950D01*
X93716086Y-121173367D01*
X93552218Y-121282860D01*
X93552217Y-121282862D01*
X93412862Y-121422217D01*
X93412860Y-121422218D01*
X93303367Y-121586086D01*
X93227950Y-121768160D01*
X93227947Y-121768170D01*
X93207260Y-121872174D01*
X93189500Y-121961459D01*
X93189500Y-122158541D01*
X93200052Y-122211589D01*
X93227947Y-122351829D01*
X93227950Y-122351839D01*
X93280857Y-122479567D01*
X93280857Y-122536204D01*
X93264816Y-122560211D01*
X92395603Y-123429426D01*
X92343277Y-123451100D01*
X85157966Y-123451100D01*
X85105640Y-123429426D01*
X85027314Y-123351100D01*
X84913190Y-123285210D01*
X84913181Y-123285206D01*
X84785894Y-123251100D01*
X84785892Y-123251100D01*
X84654108Y-123251100D01*
X84654106Y-123251100D01*
X84526818Y-123285206D01*
X84526809Y-123285210D01*
X84412685Y-123351100D01*
X84319500Y-123444285D01*
X84253610Y-123558409D01*
X84253606Y-123558418D01*
X84219500Y-123685705D01*
X84219500Y-123817494D01*
X84253606Y-123944781D01*
X84253610Y-123944790D01*
X84298303Y-124022200D01*
X84319500Y-124058914D01*
X84412686Y-124152100D01*
X84453481Y-124175653D01*
X84487851Y-124195497D01*
X84522330Y-124240431D01*
X84514937Y-124296583D01*
X84503177Y-124311909D01*
X84433700Y-124381385D01*
X84367810Y-124495509D01*
X84367806Y-124495518D01*
X84333700Y-124622805D01*
X84333700Y-124754591D01*
X84346973Y-124804129D01*
X84339580Y-124860282D01*
X84294646Y-124894760D01*
X84261058Y-124895859D01*
X84162958Y-124876346D01*
X84128541Y-124869500D01*
X83931459Y-124869500D01*
X83876662Y-124880399D01*
X83738170Y-124907947D01*
X83738160Y-124907950D01*
X83610431Y-124960857D01*
X83553794Y-124960857D01*
X83529787Y-124944816D01*
X83240874Y-124655903D01*
X83219200Y-124603577D01*
X83219200Y-121961459D01*
X88109500Y-121961459D01*
X88109500Y-122158541D01*
X88120052Y-122211589D01*
X88147947Y-122351829D01*
X88147950Y-122351839D01*
X88223367Y-122533913D01*
X88265996Y-122597711D01*
X88332861Y-122697782D01*
X88472218Y-122837139D01*
X88636086Y-122946632D01*
X88818165Y-123022051D01*
X89011459Y-123060500D01*
X89011461Y-123060500D01*
X89208539Y-123060500D01*
X89208541Y-123060500D01*
X89401835Y-123022051D01*
X89583914Y-122946632D01*
X89747782Y-122837139D01*
X89887139Y-122697782D01*
X89996632Y-122533914D01*
X90072051Y-122351835D01*
X90110500Y-122158541D01*
X90110500Y-121961459D01*
X90649500Y-121961459D01*
X90649500Y-122158541D01*
X90660052Y-122211589D01*
X90687947Y-122351829D01*
X90687950Y-122351839D01*
X90763367Y-122533913D01*
X90805996Y-122597711D01*
X90872861Y-122697782D01*
X91012218Y-122837139D01*
X91176086Y-122946632D01*
X91358165Y-123022051D01*
X91551459Y-123060500D01*
X91551461Y-123060500D01*
X91748539Y-123060500D01*
X91748541Y-123060500D01*
X91941835Y-123022051D01*
X92123914Y-122946632D01*
X92287782Y-122837139D01*
X92427139Y-122697782D01*
X92536632Y-122533914D01*
X92612051Y-122351835D01*
X92650500Y-122158541D01*
X92650500Y-121961459D01*
X92612051Y-121768165D01*
X92536632Y-121586086D01*
X92427139Y-121422218D01*
X92287782Y-121282861D01*
X92281717Y-121278808D01*
X92123913Y-121173367D01*
X91941839Y-121097950D01*
X91941829Y-121097947D01*
X91810221Y-121071769D01*
X91748541Y-121059500D01*
X91551459Y-121059500D01*
X91496662Y-121070399D01*
X91358170Y-121097947D01*
X91358160Y-121097950D01*
X91176086Y-121173367D01*
X91012218Y-121282860D01*
X91012217Y-121282862D01*
X90872862Y-121422217D01*
X90872860Y-121422218D01*
X90763367Y-121586086D01*
X90687950Y-121768160D01*
X90687947Y-121768170D01*
X90667260Y-121872174D01*
X90649500Y-121961459D01*
X90110500Y-121961459D01*
X90072051Y-121768165D01*
X89996632Y-121586086D01*
X89887139Y-121422218D01*
X89747782Y-121282861D01*
X89741717Y-121278808D01*
X89583913Y-121173367D01*
X89401839Y-121097950D01*
X89401829Y-121097947D01*
X89270221Y-121071769D01*
X89208541Y-121059500D01*
X89011459Y-121059500D01*
X88956662Y-121070399D01*
X88818170Y-121097947D01*
X88818160Y-121097950D01*
X88636086Y-121173367D01*
X88472218Y-121282860D01*
X88472217Y-121282862D01*
X88332862Y-121422217D01*
X88332860Y-121422218D01*
X88223367Y-121586086D01*
X88147950Y-121768160D01*
X88147947Y-121768170D01*
X88127260Y-121872174D01*
X88109500Y-121961459D01*
X83219200Y-121961459D01*
X83219200Y-111412773D01*
X83240874Y-111360447D01*
X83293200Y-111338773D01*
X83345526Y-111360447D01*
G37*
%TD.AperFunction*%
%TA.AperFunction,Conductor*%
G36*
X90664047Y-93130975D02*
G01*
X90683200Y-93133497D01*
X90689287Y-93141430D01*
X90698526Y-93145257D01*
X90717678Y-93178430D01*
X90720077Y-93187385D01*
X90720080Y-93187391D01*
X90731319Y-93206858D01*
X90731322Y-93206862D01*
X90759640Y-93255911D01*
X99536326Y-102032597D01*
X99558000Y-102084923D01*
X99558000Y-103044427D01*
X99536326Y-103096753D01*
X99484000Y-103118427D01*
X99431674Y-103096753D01*
X99367781Y-103032860D01*
X99203913Y-102923367D01*
X99021839Y-102847950D01*
X99021829Y-102847947D01*
X98892388Y-102822200D01*
X98828541Y-102809500D01*
X98631459Y-102809500D01*
X98576662Y-102820399D01*
X98438170Y-102847947D01*
X98438160Y-102847950D01*
X98256086Y-102923367D01*
X98092218Y-103032860D01*
X98092217Y-103032862D01*
X97952862Y-103172217D01*
X97952860Y-103172218D01*
X97843367Y-103336086D01*
X97767950Y-103518160D01*
X97767947Y-103518170D01*
X97735850Y-103679535D01*
X97729500Y-103711459D01*
X97729500Y-103908541D01*
X97742200Y-103972388D01*
X97767947Y-104101829D01*
X97767950Y-104101839D01*
X97843367Y-104283913D01*
X97855304Y-104301777D01*
X97952861Y-104447782D01*
X98092218Y-104587139D01*
X98256086Y-104696632D01*
X98438165Y-104772051D01*
X98631459Y-104810500D01*
X98631461Y-104810500D01*
X98828539Y-104810500D01*
X98828541Y-104810500D01*
X99021835Y-104772051D01*
X99203914Y-104696632D01*
X99367782Y-104587139D01*
X99507139Y-104447782D01*
X99591054Y-104322193D01*
X99638146Y-104290728D01*
X99693695Y-104301777D01*
X99704909Y-104310980D01*
X102757826Y-107363897D01*
X102779500Y-107416223D01*
X102779500Y-110036161D01*
X102757826Y-110088487D01*
X102705500Y-110110161D01*
X102653174Y-110088487D01*
X102643971Y-110077273D01*
X102587139Y-109992218D01*
X102447781Y-109852860D01*
X102283913Y-109743367D01*
X102101839Y-109667950D01*
X102101829Y-109667947D01*
X101972388Y-109642200D01*
X101908541Y-109629500D01*
X101711459Y-109629500D01*
X101656662Y-109640399D01*
X101518170Y-109667947D01*
X101518160Y-109667950D01*
X101336086Y-109743367D01*
X101172218Y-109852860D01*
X101172217Y-109852862D01*
X101032862Y-109992217D01*
X101032860Y-109992218D01*
X100923367Y-110156086D01*
X100847950Y-110338160D01*
X100847947Y-110338170D01*
X100809500Y-110531460D01*
X100809500Y-110728539D01*
X100847947Y-110921829D01*
X100847950Y-110921839D01*
X100923367Y-111103913D01*
X101003499Y-111223838D01*
X101032861Y-111267782D01*
X101172218Y-111407139D01*
X101336086Y-111516632D01*
X101518165Y-111592051D01*
X101711459Y-111630500D01*
X101711461Y-111630500D01*
X101908539Y-111630500D01*
X101908541Y-111630500D01*
X102101835Y-111592051D01*
X102283914Y-111516632D01*
X102447782Y-111407139D01*
X102587139Y-111267782D01*
X102643971Y-111182725D01*
X102691063Y-111151260D01*
X102746612Y-111162309D01*
X102778078Y-111209401D01*
X102779500Y-111223838D01*
X102779500Y-113209564D01*
X102799977Y-113285985D01*
X102799979Y-113285990D01*
X102818634Y-113318300D01*
X102839539Y-113354510D01*
X103424816Y-113939787D01*
X103446490Y-113992113D01*
X103440857Y-114020431D01*
X103387950Y-114148160D01*
X103387947Y-114148170D01*
X103349500Y-114341460D01*
X103349500Y-114538539D01*
X103387947Y-114731829D01*
X103387950Y-114731839D01*
X103463367Y-114913913D01*
X103572860Y-115077781D01*
X103612053Y-115116974D01*
X103633727Y-115169300D01*
X103612053Y-115221626D01*
X103559727Y-115243300D01*
X103068923Y-115243300D01*
X103016597Y-115221626D01*
X102735183Y-114940212D01*
X102713509Y-114887886D01*
X102719142Y-114859567D01*
X102757203Y-114767680D01*
X102772051Y-114731835D01*
X102810500Y-114538541D01*
X102810500Y-114341459D01*
X102772051Y-114148165D01*
X102696632Y-113966086D01*
X102587139Y-113802218D01*
X102447782Y-113662861D01*
X102283914Y-113553368D01*
X102283915Y-113553368D01*
X102283913Y-113553367D01*
X102101839Y-113477950D01*
X102101829Y-113477947D01*
X101961433Y-113450021D01*
X101908541Y-113439500D01*
X101711459Y-113439500D01*
X101658567Y-113450021D01*
X101518170Y-113477947D01*
X101518160Y-113477950D01*
X101336086Y-113553367D01*
X101172218Y-113662860D01*
X101172217Y-113662862D01*
X101032862Y-113802217D01*
X101032860Y-113802218D01*
X100923367Y-113966086D01*
X100847950Y-114148160D01*
X100847947Y-114148170D01*
X100809500Y-114341460D01*
X100809500Y-114538539D01*
X100847947Y-114731829D01*
X100847950Y-114731839D01*
X100923367Y-114913913D01*
X101032860Y-115077781D01*
X101172218Y-115217139D01*
X101336086Y-115326632D01*
X101502542Y-115395580D01*
X101518165Y-115402051D01*
X101711459Y-115440500D01*
X101711461Y-115440500D01*
X101908539Y-115440500D01*
X101908541Y-115440500D01*
X102101835Y-115402051D01*
X102229568Y-115349142D01*
X102286204Y-115349142D01*
X102310212Y-115365183D01*
X102673340Y-115728311D01*
X102729289Y-115784260D01*
X102797811Y-115823821D01*
X102797812Y-115823821D01*
X102797814Y-115823822D01*
X102836024Y-115834060D01*
X102874235Y-115844299D01*
X102874236Y-115844300D01*
X102874238Y-115844300D01*
X104871158Y-115844300D01*
X104871162Y-115844300D01*
X104871165Y-115844298D01*
X104873329Y-115844014D01*
X104874397Y-115844300D01*
X104876012Y-115844300D01*
X104876012Y-115844732D01*
X104928038Y-115858668D01*
X104956361Y-115907714D01*
X104941707Y-115962423D01*
X104935321Y-115969706D01*
X102895489Y-118009540D01*
X102839540Y-118065488D01*
X102799979Y-118134009D01*
X102799977Y-118134014D01*
X102779500Y-118210435D01*
X102779500Y-121466161D01*
X102757826Y-121518487D01*
X102705500Y-121540161D01*
X102653174Y-121518487D01*
X102643971Y-121507273D01*
X102587139Y-121422218D01*
X102447781Y-121282860D01*
X102283913Y-121173367D01*
X102101839Y-121097950D01*
X102101829Y-121097947D01*
X101970221Y-121071769D01*
X101908541Y-121059500D01*
X101711459Y-121059500D01*
X101656662Y-121070399D01*
X101518170Y-121097947D01*
X101518160Y-121097950D01*
X101336086Y-121173367D01*
X101298133Y-121198727D01*
X101242584Y-121209776D01*
X101204695Y-121189524D01*
X97906246Y-117891075D01*
X97884572Y-117838749D01*
X97906246Y-117786423D01*
X97932110Y-117771505D01*
X97931506Y-117770047D01*
X97935979Y-117768193D01*
X97935986Y-117768192D01*
X98050114Y-117702300D01*
X98143300Y-117609114D01*
X98209192Y-117494986D01*
X98243299Y-117367694D01*
X98243300Y-117367694D01*
X98243300Y-117235906D01*
X98243299Y-117235905D01*
X98212801Y-117122085D01*
X98209192Y-117108614D01*
X98143300Y-116994486D01*
X98142114Y-116992431D01*
X98132200Y-116955431D01*
X98132200Y-114599620D01*
X98153874Y-114547294D01*
X98206200Y-114525620D01*
X98258526Y-114547294D01*
X98278778Y-114585183D01*
X98307947Y-114731829D01*
X98307950Y-114731839D01*
X98383367Y-114913913D01*
X98492860Y-115077781D01*
X98632218Y-115217139D01*
X98796086Y-115326632D01*
X98962542Y-115395580D01*
X98978165Y-115402051D01*
X99171459Y-115440500D01*
X99171461Y-115440500D01*
X99368539Y-115440500D01*
X99368541Y-115440500D01*
X99561835Y-115402051D01*
X99743914Y-115326632D01*
X99907782Y-115217139D01*
X100047139Y-115077782D01*
X100156632Y-114913914D01*
X100232051Y-114731835D01*
X100270500Y-114538541D01*
X100270500Y-114341459D01*
X100232051Y-114148165D01*
X100156632Y-113966086D01*
X100047139Y-113802218D01*
X99907782Y-113662861D01*
X99743914Y-113553368D01*
X99743915Y-113553368D01*
X99743913Y-113553367D01*
X99561839Y-113477950D01*
X99561829Y-113477947D01*
X99421433Y-113450021D01*
X99368541Y-113439500D01*
X99171459Y-113439500D01*
X99118567Y-113450021D01*
X98978170Y-113477947D01*
X98978160Y-113477950D01*
X98796086Y-113553367D01*
X98632218Y-113662860D01*
X98632217Y-113662862D01*
X98492862Y-113802217D01*
X98492860Y-113802218D01*
X98383367Y-113966086D01*
X98307950Y-114148160D01*
X98307947Y-114148170D01*
X98288373Y-114246577D01*
X98278831Y-114294552D01*
X98278778Y-114294816D01*
X98247312Y-114341908D01*
X98191763Y-114352957D01*
X98144671Y-114321491D01*
X98132200Y-114280379D01*
X98132200Y-111692136D01*
X98132199Y-111692135D01*
X98111722Y-111615714D01*
X98111720Y-111615709D01*
X98101120Y-111597349D01*
X98072160Y-111547189D01*
X98016211Y-111491240D01*
X97655183Y-111130212D01*
X97633509Y-111077886D01*
X97639142Y-111049567D01*
X97677203Y-110957680D01*
X97692051Y-110921835D01*
X97730500Y-110728541D01*
X97730500Y-110531460D01*
X98269500Y-110531460D01*
X98269500Y-110728539D01*
X98307947Y-110921829D01*
X98307950Y-110921839D01*
X98383367Y-111103913D01*
X98463499Y-111223838D01*
X98492861Y-111267782D01*
X98632218Y-111407139D01*
X98796086Y-111516632D01*
X98978165Y-111592051D01*
X99171459Y-111630500D01*
X99171461Y-111630500D01*
X99368539Y-111630500D01*
X99368541Y-111630500D01*
X99561835Y-111592051D01*
X99743914Y-111516632D01*
X99907782Y-111407139D01*
X100047139Y-111267782D01*
X100156632Y-111103914D01*
X100232051Y-110921835D01*
X100270500Y-110728541D01*
X100270500Y-110531459D01*
X100232051Y-110338165D01*
X100156632Y-110156086D01*
X100047139Y-109992218D01*
X99907782Y-109852861D01*
X99899351Y-109847227D01*
X99743913Y-109743367D01*
X99561839Y-109667950D01*
X99561829Y-109667947D01*
X99432388Y-109642200D01*
X99368541Y-109629500D01*
X99171459Y-109629500D01*
X99116662Y-109640399D01*
X98978170Y-109667947D01*
X98978160Y-109667950D01*
X98796086Y-109743367D01*
X98632218Y-109852860D01*
X98632217Y-109852862D01*
X98492862Y-109992217D01*
X98492860Y-109992218D01*
X98383367Y-110156086D01*
X98307950Y-110338160D01*
X98307947Y-110338170D01*
X98269500Y-110531460D01*
X97730500Y-110531460D01*
X97730500Y-110531459D01*
X97692051Y-110338165D01*
X97616632Y-110156086D01*
X97507139Y-109992218D01*
X97367782Y-109852861D01*
X97359351Y-109847227D01*
X97203913Y-109743367D01*
X97021839Y-109667950D01*
X97021829Y-109667947D01*
X96892388Y-109642200D01*
X96828541Y-109629500D01*
X96631459Y-109629500D01*
X96576662Y-109640399D01*
X96438170Y-109667947D01*
X96438160Y-109667950D01*
X96256086Y-109743367D01*
X96092218Y-109852860D01*
X96092217Y-109852862D01*
X96028426Y-109916653D01*
X95976100Y-109938327D01*
X95923774Y-109916653D01*
X95902100Y-109864327D01*
X95902100Y-108005836D01*
X95902099Y-108005835D01*
X95881622Y-107929414D01*
X95881620Y-107929409D01*
X95842059Y-107860888D01*
X93323874Y-105342703D01*
X93302200Y-105290377D01*
X93302200Y-96778736D01*
X93302199Y-96778735D01*
X93281722Y-96702314D01*
X93281720Y-96702309D01*
X93271120Y-96683949D01*
X93242160Y-96633789D01*
X93186211Y-96577840D01*
X90593874Y-93985503D01*
X90572200Y-93933177D01*
X90572200Y-93197583D01*
X90579592Y-93179735D01*
X90582114Y-93160583D01*
X90590047Y-93154495D01*
X90593874Y-93145257D01*
X90611722Y-93137864D01*
X90627047Y-93126105D01*
X90636960Y-93127410D01*
X90646200Y-93123583D01*
X90664047Y-93130975D01*
G37*
%TD.AperFunction*%
%TA.AperFunction,Conductor*%
G36*
X113487826Y-111213497D02*
G01*
X113509500Y-111265823D01*
X113509500Y-111449751D01*
X113509643Y-111451203D01*
X113510000Y-111458459D01*
X113510000Y-111630000D01*
X113681536Y-111630000D01*
X113688783Y-111630356D01*
X113690246Y-111630500D01*
X113690252Y-111630500D01*
X114135500Y-111630500D01*
X114187826Y-111652174D01*
X114209500Y-111704500D01*
X114209500Y-111771264D01*
X114229977Y-111847685D01*
X114229979Y-111847690D01*
X114252573Y-111886823D01*
X114269540Y-111916211D01*
X114325489Y-111972160D01*
X114394011Y-112011721D01*
X114394012Y-112011721D01*
X114394014Y-112011722D01*
X114432224Y-112021960D01*
X114470435Y-112032199D01*
X114470436Y-112032200D01*
X114470438Y-112032200D01*
X114549562Y-112032200D01*
X114724877Y-112032200D01*
X114777203Y-112053874D01*
X116657840Y-113934511D01*
X116713789Y-113990460D01*
X116782311Y-114030021D01*
X116782312Y-114030021D01*
X116782314Y-114030022D01*
X116815589Y-114038938D01*
X116858735Y-114050499D01*
X116858736Y-114050500D01*
X116858738Y-114050500D01*
X116925500Y-114050500D01*
X116951347Y-114061206D01*
X116977339Y-114071691D01*
X116977481Y-114072031D01*
X116977826Y-114072174D01*
X116999497Y-114123814D01*
X116999500Y-114124137D01*
X116999500Y-114169748D01*
X116999943Y-114171976D01*
X116999997Y-114177773D01*
X116999969Y-114177840D01*
X117000000Y-114178459D01*
X117000000Y-114521536D01*
X116999644Y-114528783D01*
X116999500Y-114530246D01*
X116999500Y-115369751D01*
X116999643Y-115371203D01*
X117000000Y-115378459D01*
X117000000Y-115550000D01*
X117171536Y-115550000D01*
X117178783Y-115550356D01*
X117180246Y-115550500D01*
X117180252Y-115550500D01*
X117625500Y-115550500D01*
X117677826Y-115572174D01*
X117699500Y-115624500D01*
X117699500Y-116080331D01*
X117677826Y-116132657D01*
X117653819Y-116148698D01*
X117573453Y-116181986D01*
X117425968Y-116280533D01*
X117300533Y-116405968D01*
X117201985Y-116553455D01*
X117134107Y-116717329D01*
X117134104Y-116717339D01*
X117099500Y-116891310D01*
X117099500Y-117068689D01*
X117134104Y-117242660D01*
X117134107Y-117242670D01*
X117201985Y-117406544D01*
X117201986Y-117406546D01*
X117201987Y-117406547D01*
X117300536Y-117554035D01*
X117425965Y-117679464D01*
X117573453Y-117778013D01*
X117573454Y-117778013D01*
X117573455Y-117778014D01*
X117720084Y-117838749D01*
X117737334Y-117845894D01*
X117911309Y-117880500D01*
X117911311Y-117880500D01*
X118088689Y-117880500D01*
X118088691Y-117880500D01*
X118262666Y-117845894D01*
X118426547Y-117778013D01*
X118574035Y-117679464D01*
X118674875Y-117578623D01*
X118727200Y-117556950D01*
X118779526Y-117578624D01*
X118801200Y-117630950D01*
X118801200Y-119938500D01*
X118779526Y-119990826D01*
X118730801Y-120011008D01*
X118730915Y-120011867D01*
X118727709Y-120012288D01*
X118727200Y-120012500D01*
X118726106Y-120012500D01*
X118598818Y-120046606D01*
X118598809Y-120046610D01*
X118484685Y-120112500D01*
X118391500Y-120205685D01*
X118325610Y-120319809D01*
X118325606Y-120319818D01*
X118291500Y-120447105D01*
X118291500Y-120578894D01*
X118325606Y-120706181D01*
X118325610Y-120706190D01*
X118391500Y-120820314D01*
X118394360Y-120823174D01*
X118416034Y-120875500D01*
X118394360Y-120927826D01*
X118342034Y-120949500D01*
X117180246Y-120949500D01*
X117178783Y-120949644D01*
X117171536Y-120950000D01*
X117000000Y-120950000D01*
X117000000Y-121048077D01*
X116978326Y-121100403D01*
X116926000Y-121122077D01*
X116873674Y-121100403D01*
X116490111Y-120716840D01*
X116421590Y-120677279D01*
X116421585Y-120677277D01*
X116345164Y-120656800D01*
X116345162Y-120656800D01*
X114869566Y-120656800D01*
X114817240Y-120635126D01*
X114795566Y-120582800D01*
X114817240Y-120530474D01*
X114884100Y-120463614D01*
X114949992Y-120349486D01*
X114984099Y-120222194D01*
X114984100Y-120222194D01*
X114984100Y-120090406D01*
X114984099Y-120090405D01*
X114977830Y-120067010D01*
X114949992Y-119963114D01*
X114884100Y-119848986D01*
X114790914Y-119755800D01*
X114730741Y-119721059D01*
X114676790Y-119689910D01*
X114676781Y-119689906D01*
X114549494Y-119655800D01*
X114549492Y-119655800D01*
X114438723Y-119655800D01*
X114386397Y-119634126D01*
X114191774Y-119439503D01*
X114170100Y-119387177D01*
X114170100Y-113103666D01*
X114191774Y-113051340D01*
X114228237Y-113014877D01*
X114270100Y-112973014D01*
X114335992Y-112858886D01*
X114370099Y-112731594D01*
X114370100Y-112731594D01*
X114370100Y-112599806D01*
X114370099Y-112599805D01*
X114335993Y-112472518D01*
X114335992Y-112472514D01*
X114270100Y-112358386D01*
X114176914Y-112265200D01*
X114155937Y-112253089D01*
X114062790Y-112199310D01*
X114062781Y-112199306D01*
X113935494Y-112165200D01*
X113935492Y-112165200D01*
X113803708Y-112165200D01*
X113803706Y-112165200D01*
X113676418Y-112199306D01*
X113676409Y-112199310D01*
X113562285Y-112265200D01*
X113469100Y-112358385D01*
X113403210Y-112472509D01*
X113403206Y-112472518D01*
X113369100Y-112599805D01*
X113369100Y-112731594D01*
X113403206Y-112858881D01*
X113403210Y-112858890D01*
X113469100Y-112973014D01*
X113547426Y-113051340D01*
X113569100Y-113103666D01*
X113569100Y-119581864D01*
X113589578Y-119658288D01*
X113607833Y-119689908D01*
X113607834Y-119689908D01*
X113629140Y-119726811D01*
X113961426Y-120059097D01*
X113983100Y-120111423D01*
X113983100Y-120222194D01*
X114017206Y-120349481D01*
X114017210Y-120349490D01*
X114083100Y-120463614D01*
X114149960Y-120530474D01*
X114171634Y-120582800D01*
X114149960Y-120635126D01*
X114097634Y-120656800D01*
X108043841Y-120656800D01*
X107991515Y-120635126D01*
X107969841Y-120582800D01*
X107979755Y-120545800D01*
X108013192Y-120487886D01*
X108047299Y-120360594D01*
X108047300Y-120360594D01*
X108047300Y-120249822D01*
X108068974Y-120197496D01*
X108219864Y-120046606D01*
X108400460Y-119866011D01*
X108440022Y-119797488D01*
X108460500Y-119721062D01*
X108460500Y-119641938D01*
X108460500Y-115033838D01*
X108482174Y-114981512D01*
X108534500Y-114959838D01*
X108586826Y-114981512D01*
X108596026Y-114992722D01*
X108652861Y-115077782D01*
X108792218Y-115217139D01*
X108956086Y-115326632D01*
X109083818Y-115379539D01*
X109123867Y-115419587D01*
X109129500Y-115447906D01*
X109129500Y-116489564D01*
X109149977Y-116565985D01*
X109149979Y-116565990D01*
X109176130Y-116611284D01*
X109189540Y-116634511D01*
X111651352Y-119096323D01*
X111673026Y-119148649D01*
X111667394Y-119176966D01*
X111634105Y-119257337D01*
X111634104Y-119257339D01*
X111608278Y-119387177D01*
X111599500Y-119431309D01*
X111599500Y-119608691D01*
X111606113Y-119641938D01*
X111634104Y-119782660D01*
X111634107Y-119782670D01*
X111701985Y-119946544D01*
X111793033Y-120082807D01*
X111800536Y-120094035D01*
X111925965Y-120219464D01*
X112073453Y-120318013D01*
X112073454Y-120318013D01*
X112073455Y-120318014D01*
X112237329Y-120385892D01*
X112237334Y-120385894D01*
X112411309Y-120420500D01*
X112411311Y-120420500D01*
X112588689Y-120420500D01*
X112588691Y-120420500D01*
X112762666Y-120385894D01*
X112926547Y-120318013D01*
X113074035Y-120219464D01*
X113199464Y-120094035D01*
X113298013Y-119946547D01*
X113365894Y-119782666D01*
X113400500Y-119608691D01*
X113400500Y-119431309D01*
X113365894Y-119257334D01*
X113298013Y-119093453D01*
X113199464Y-118945965D01*
X113074035Y-118820536D01*
X112926547Y-118721987D01*
X112926546Y-118721986D01*
X112926544Y-118721985D01*
X112762670Y-118654107D01*
X112762660Y-118654104D01*
X112646156Y-118630930D01*
X112588691Y-118619500D01*
X112411309Y-118619500D01*
X112361989Y-118629310D01*
X112237339Y-118654104D01*
X112237337Y-118654105D01*
X112237335Y-118654105D01*
X112237334Y-118654106D01*
X112237332Y-118654107D01*
X112156966Y-118687394D01*
X112100329Y-118687392D01*
X112076323Y-118671352D01*
X109752174Y-116347203D01*
X109730500Y-116294877D01*
X109730500Y-115447906D01*
X109752174Y-115395580D01*
X109776180Y-115379539D01*
X109903914Y-115326632D01*
X110067782Y-115217139D01*
X110207139Y-115077782D01*
X110316632Y-114913914D01*
X110392051Y-114731835D01*
X110430500Y-114538541D01*
X110430500Y-114341459D01*
X110392051Y-114148165D01*
X110316632Y-113966086D01*
X110207139Y-113802218D01*
X110067782Y-113662861D01*
X109903914Y-113553368D01*
X109903915Y-113553368D01*
X109903913Y-113553367D01*
X109721839Y-113477950D01*
X109721829Y-113477947D01*
X109581433Y-113450021D01*
X109528541Y-113439500D01*
X109402622Y-113439500D01*
X109350296Y-113417826D01*
X109328622Y-113365500D01*
X109350296Y-113313174D01*
X109931877Y-112731594D01*
X110609597Y-112053874D01*
X110661923Y-112032200D01*
X112479564Y-112032200D01*
X112479564Y-112032199D01*
X112555989Y-112011721D01*
X112624511Y-111972160D01*
X112680460Y-111916211D01*
X113383174Y-111213497D01*
X113435500Y-111191823D01*
X113487826Y-111213497D01*
G37*
%TD.AperFunction*%
%TA.AperFunction,Conductor*%
G36*
X88426826Y-87832236D02*
G01*
X88442867Y-87856244D01*
X88471985Y-87926544D01*
X88569428Y-88072378D01*
X88570536Y-88074035D01*
X88695965Y-88199464D01*
X88843453Y-88298013D01*
X88923818Y-88331300D01*
X88963867Y-88371347D01*
X88969500Y-88399667D01*
X88969500Y-98375364D01*
X88989977Y-98451785D01*
X88989979Y-98451790D01*
X89029540Y-98520311D01*
X90497531Y-99988302D01*
X90519205Y-100040628D01*
X90497531Y-100092954D01*
X90471604Y-100107936D01*
X90472192Y-100109354D01*
X90467709Y-100111210D01*
X90353585Y-100177100D01*
X90260400Y-100270285D01*
X90194510Y-100384409D01*
X90194506Y-100384418D01*
X90160400Y-100511705D01*
X90160400Y-100511708D01*
X90160400Y-100643492D01*
X90162234Y-100650336D01*
X90194509Y-100770789D01*
X90216085Y-100808158D01*
X90226000Y-100845159D01*
X90226000Y-110360783D01*
X90204326Y-110413109D01*
X90152000Y-110434783D01*
X90099674Y-110413109D01*
X90079422Y-110375220D01*
X90072052Y-110338170D01*
X90072051Y-110338169D01*
X90072051Y-110338165D01*
X89996632Y-110156086D01*
X89887139Y-109992218D01*
X89747782Y-109852861D01*
X89739350Y-109847227D01*
X89693650Y-109816691D01*
X89583914Y-109743368D01*
X89583911Y-109743366D01*
X89583910Y-109743366D01*
X89456181Y-109690459D01*
X89416133Y-109650410D01*
X89410500Y-109622092D01*
X89410500Y-100921836D01*
X89410499Y-100921835D01*
X89408524Y-100914466D01*
X89399634Y-100881286D01*
X89390022Y-100845414D01*
X89390020Y-100845409D01*
X89350459Y-100776888D01*
X88420811Y-99847240D01*
X88352290Y-99807679D01*
X88352285Y-99807677D01*
X88275864Y-99787200D01*
X88275862Y-99787200D01*
X88037623Y-99787200D01*
X87985297Y-99765526D01*
X87305674Y-99085903D01*
X87284000Y-99033577D01*
X87284000Y-97571423D01*
X87305674Y-97519097D01*
X87756540Y-97068231D01*
X88240460Y-96584311D01*
X88267036Y-96538279D01*
X88280021Y-96515789D01*
X88300499Y-96439364D01*
X88300500Y-96439364D01*
X88300500Y-87884562D01*
X88322174Y-87832236D01*
X88374500Y-87810562D01*
X88426826Y-87832236D01*
G37*
%TD.AperFunction*%
%TA.AperFunction,Conductor*%
G36*
X95034092Y-86512274D02*
G01*
X95055766Y-86564600D01*
X95034092Y-86616926D01*
X95010084Y-86632967D01*
X94843455Y-86701985D01*
X94695968Y-86800533D01*
X94570533Y-86925968D01*
X94471985Y-87073455D01*
X94404107Y-87237329D01*
X94404104Y-87237339D01*
X94369500Y-87411310D01*
X94369500Y-87588689D01*
X94404104Y-87762660D01*
X94404107Y-87762670D01*
X94471985Y-87926544D01*
X94569428Y-88072378D01*
X94570536Y-88074035D01*
X94695965Y-88199464D01*
X94843453Y-88298013D01*
X94843454Y-88298013D01*
X94843455Y-88298014D01*
X94969498Y-88350222D01*
X95007334Y-88365894D01*
X95181309Y-88400500D01*
X95181311Y-88400500D01*
X95358689Y-88400500D01*
X95358691Y-88400500D01*
X95532666Y-88365894D01*
X95696547Y-88298013D01*
X95844035Y-88199464D01*
X95969464Y-88074035D01*
X96068013Y-87926547D01*
X96135894Y-87762666D01*
X96170500Y-87588691D01*
X96170500Y-87542923D01*
X96192174Y-87490597D01*
X96244500Y-87468923D01*
X96296826Y-87490597D01*
X102076326Y-93270097D01*
X102098000Y-93322423D01*
X102098000Y-95424427D01*
X102076326Y-95476753D01*
X102024000Y-95498427D01*
X101971674Y-95476753D01*
X101907781Y-95412860D01*
X101743913Y-95303367D01*
X101561839Y-95227950D01*
X101561829Y-95227947D01*
X101427023Y-95201133D01*
X101368541Y-95189500D01*
X101171459Y-95189500D01*
X101116662Y-95200399D01*
X100978170Y-95227947D01*
X100978160Y-95227950D01*
X100796086Y-95303367D01*
X100632218Y-95412860D01*
X100632217Y-95412862D01*
X100492862Y-95552217D01*
X100492860Y-95552218D01*
X100383367Y-95716086D01*
X100307950Y-95898160D01*
X100307947Y-95898170D01*
X100275850Y-96059535D01*
X100269500Y-96091459D01*
X100269500Y-96288541D01*
X100282200Y-96352388D01*
X100307947Y-96481829D01*
X100307950Y-96481839D01*
X100383367Y-96663913D01*
X100460090Y-96778736D01*
X100492861Y-96827782D01*
X100632218Y-96967139D01*
X100796086Y-97076632D01*
X100978165Y-97152051D01*
X101171459Y-97190500D01*
X101171461Y-97190500D01*
X101368539Y-97190500D01*
X101368541Y-97190500D01*
X101561835Y-97152051D01*
X101743914Y-97076632D01*
X101907782Y-96967139D01*
X101971674Y-96903247D01*
X102024000Y-96881573D01*
X102076326Y-96903247D01*
X102098000Y-96955573D01*
X102098000Y-103044427D01*
X102076326Y-103096753D01*
X102024000Y-103118427D01*
X101971674Y-103096753D01*
X101907781Y-103032860D01*
X101743913Y-102923367D01*
X101561839Y-102847950D01*
X101561829Y-102847947D01*
X101432388Y-102822200D01*
X101368541Y-102809500D01*
X101171459Y-102809500D01*
X101116662Y-102820399D01*
X100978170Y-102847947D01*
X100978160Y-102847950D01*
X100796086Y-102923367D01*
X100632218Y-103032860D01*
X100632217Y-103032862D01*
X100492862Y-103172217D01*
X100492860Y-103172218D01*
X100383367Y-103336086D01*
X100307950Y-103518160D01*
X100307947Y-103518170D01*
X100305578Y-103530084D01*
X100274112Y-103577176D01*
X100218563Y-103588225D01*
X100171471Y-103556759D01*
X100159000Y-103515647D01*
X100159000Y-101890236D01*
X100158999Y-101890235D01*
X100138522Y-101813814D01*
X100138520Y-101813809D01*
X100098959Y-101745288D01*
X91322274Y-92968603D01*
X91300600Y-92916277D01*
X91300600Y-86731436D01*
X91285745Y-86676000D01*
X91293137Y-86619847D01*
X91338069Y-86585368D01*
X91394222Y-86592760D01*
X91409549Y-86604520D01*
X91881352Y-87076323D01*
X91903026Y-87128649D01*
X91897394Y-87156966D01*
X91896078Y-87160144D01*
X91864107Y-87237333D01*
X91864105Y-87237337D01*
X91864104Y-87237339D01*
X91829500Y-87411310D01*
X91829500Y-87588689D01*
X91864104Y-87762660D01*
X91864107Y-87762670D01*
X91931985Y-87926544D01*
X92029428Y-88072378D01*
X92030536Y-88074035D01*
X92155965Y-88199464D01*
X92303453Y-88298013D01*
X92303454Y-88298013D01*
X92303455Y-88298014D01*
X92429498Y-88350222D01*
X92467334Y-88365894D01*
X92641309Y-88400500D01*
X92641311Y-88400500D01*
X92818689Y-88400500D01*
X92818691Y-88400500D01*
X92992666Y-88365894D01*
X93156547Y-88298013D01*
X93304035Y-88199464D01*
X93429464Y-88074035D01*
X93528013Y-87926547D01*
X93595894Y-87762666D01*
X93630500Y-87588691D01*
X93630500Y-87411309D01*
X93595894Y-87237334D01*
X93528013Y-87073453D01*
X93429464Y-86925965D01*
X93304035Y-86800536D01*
X93292083Y-86792550D01*
X93156544Y-86701985D01*
X92989916Y-86632967D01*
X92949867Y-86592919D01*
X92949867Y-86536282D01*
X92989915Y-86496233D01*
X93018234Y-86490600D01*
X94981766Y-86490600D01*
X95034092Y-86512274D01*
G37*
%TD.AperFunction*%
%TA.AperFunction,Conductor*%
G36*
X87547826Y-72174796D02*
G01*
X87569500Y-72227122D01*
X87569500Y-72288539D01*
X87607947Y-72481829D01*
X87607950Y-72481839D01*
X87683367Y-72663913D01*
X87763499Y-72783838D01*
X87792861Y-72827782D01*
X87932218Y-72967139D01*
X88096086Y-73076632D01*
X88223818Y-73129539D01*
X88263867Y-73169587D01*
X88269500Y-73197906D01*
X88269500Y-75114214D01*
X88247826Y-75166540D01*
X88195500Y-75188214D01*
X88158500Y-75178300D01*
X88095990Y-75142210D01*
X88095981Y-75142206D01*
X87968694Y-75108100D01*
X87968692Y-75108100D01*
X87836908Y-75108100D01*
X87836906Y-75108100D01*
X87709618Y-75142206D01*
X87709609Y-75142210D01*
X87595485Y-75208100D01*
X87502300Y-75301285D01*
X87436410Y-75415409D01*
X87436406Y-75415418D01*
X87402300Y-75542705D01*
X87402300Y-75653476D01*
X87380626Y-75705802D01*
X82672689Y-80413740D01*
X82616740Y-80469688D01*
X82577179Y-80538209D01*
X82577177Y-80538214D01*
X82556700Y-80614635D01*
X82556700Y-84821551D01*
X82535026Y-84873877D01*
X82482700Y-84895551D01*
X82430374Y-84873877D01*
X82418614Y-84858551D01*
X82413900Y-84850386D01*
X82320714Y-84757200D01*
X82262221Y-84723429D01*
X82206590Y-84691310D01*
X82206581Y-84691306D01*
X82079294Y-84657200D01*
X82079292Y-84657200D01*
X81947508Y-84657200D01*
X81947506Y-84657200D01*
X81820218Y-84691306D01*
X81820209Y-84691310D01*
X81706085Y-84757200D01*
X81612900Y-84850385D01*
X81547010Y-84964509D01*
X81547006Y-84964518D01*
X81512900Y-85091805D01*
X81512900Y-85223594D01*
X81547006Y-85350881D01*
X81547010Y-85350890D01*
X81604348Y-85450201D01*
X81612900Y-85465014D01*
X81706086Y-85558200D01*
X81795899Y-85610054D01*
X81830378Y-85654986D01*
X81832900Y-85674139D01*
X81832900Y-86582577D01*
X81811226Y-86634903D01*
X81758900Y-86656577D01*
X81706574Y-86634903D01*
X80637474Y-85565803D01*
X80615800Y-85513477D01*
X80615800Y-79032822D01*
X80637473Y-78980497D01*
X87443174Y-72174795D01*
X87495500Y-72153122D01*
X87547826Y-72174796D01*
G37*
%TD.AperFunction*%
%TA.AperFunction,Conductor*%
G36*
X92930753Y-71389674D02*
G01*
X92952427Y-71442000D01*
X92930753Y-71494326D01*
X92872862Y-71552217D01*
X92872860Y-71552218D01*
X92763367Y-71716086D01*
X92687950Y-71898160D01*
X92687947Y-71898170D01*
X92649500Y-72091460D01*
X92649500Y-72288539D01*
X92687947Y-72481829D01*
X92687950Y-72481839D01*
X92763367Y-72663913D01*
X92872860Y-72827781D01*
X93012218Y-72967139D01*
X93176086Y-73076632D01*
X93342542Y-73145580D01*
X93358165Y-73152051D01*
X93551459Y-73190500D01*
X93551461Y-73190500D01*
X93748539Y-73190500D01*
X93748541Y-73190500D01*
X93941835Y-73152051D01*
X94123914Y-73076632D01*
X94287782Y-72967139D01*
X94427139Y-72827782D01*
X94536632Y-72663914D01*
X94612051Y-72481835D01*
X94650500Y-72288541D01*
X94650500Y-72091459D01*
X94612051Y-71898165D01*
X94536632Y-71716086D01*
X94427139Y-71552218D01*
X94369247Y-71494326D01*
X94347573Y-71442000D01*
X94369247Y-71389674D01*
X94421573Y-71368000D01*
X95418427Y-71368000D01*
X95470753Y-71389674D01*
X95492427Y-71442000D01*
X95470753Y-71494326D01*
X95412862Y-71552217D01*
X95412860Y-71552218D01*
X95303367Y-71716086D01*
X95227950Y-71898160D01*
X95227947Y-71898170D01*
X95189500Y-72091460D01*
X95189500Y-72288539D01*
X95227947Y-72481829D01*
X95227950Y-72481839D01*
X95303367Y-72663913D01*
X95412860Y-72827781D01*
X95552218Y-72967139D01*
X95716086Y-73076632D01*
X95882542Y-73145580D01*
X95898165Y-73152051D01*
X96091459Y-73190500D01*
X96091461Y-73190500D01*
X96288539Y-73190500D01*
X96288541Y-73190500D01*
X96481835Y-73152051D01*
X96663914Y-73076632D01*
X96827782Y-72967139D01*
X96967139Y-72827782D01*
X97076632Y-72663914D01*
X97152051Y-72481835D01*
X97190500Y-72288541D01*
X97190500Y-72091459D01*
X97152051Y-71898165D01*
X97076632Y-71716086D01*
X96967139Y-71552218D01*
X96909247Y-71494326D01*
X96887573Y-71442000D01*
X96909247Y-71389674D01*
X96961573Y-71368000D01*
X97958427Y-71368000D01*
X98010753Y-71389674D01*
X98032427Y-71442000D01*
X98010753Y-71494326D01*
X97952862Y-71552217D01*
X97952860Y-71552218D01*
X97843367Y-71716086D01*
X97767950Y-71898160D01*
X97767947Y-71898170D01*
X97729500Y-72091460D01*
X97729500Y-72288539D01*
X97767947Y-72481829D01*
X97767950Y-72481839D01*
X97820857Y-72609567D01*
X97820857Y-72666204D01*
X97804816Y-72690211D01*
X97434189Y-73060840D01*
X97378240Y-73116788D01*
X97338679Y-73185309D01*
X97338677Y-73185314D01*
X97318200Y-73261735D01*
X97318200Y-79602117D01*
X97296526Y-79654443D01*
X97244200Y-79676117D01*
X97191874Y-79654443D01*
X97171622Y-79616554D01*
X97152052Y-79518170D01*
X97152051Y-79518169D01*
X97152051Y-79518165D01*
X97076632Y-79336086D01*
X96967139Y-79172218D01*
X96827782Y-79032861D01*
X96819351Y-79027227D01*
X96663913Y-78923367D01*
X96481839Y-78847950D01*
X96481829Y-78847947D01*
X96352388Y-78822200D01*
X96288541Y-78809500D01*
X96091459Y-78809500D01*
X96036662Y-78820399D01*
X95898170Y-78847947D01*
X95898160Y-78847950D01*
X95716086Y-78923367D01*
X95552218Y-79032860D01*
X95552217Y-79032862D01*
X95412862Y-79172217D01*
X95412860Y-79172218D01*
X95303367Y-79336086D01*
X95227950Y-79518160D01*
X95227947Y-79518170D01*
X95189500Y-79711460D01*
X95189500Y-79908539D01*
X95227947Y-80101829D01*
X95227950Y-80101839D01*
X95303367Y-80283913D01*
X95391749Y-80416185D01*
X95412861Y-80447782D01*
X95552218Y-80587139D01*
X95716086Y-80696632D01*
X95898165Y-80772051D01*
X96091459Y-80810500D01*
X96091461Y-80810500D01*
X96288539Y-80810500D01*
X96288541Y-80810500D01*
X96481835Y-80772051D01*
X96663914Y-80696632D01*
X96827782Y-80587139D01*
X96967139Y-80447782D01*
X97076632Y-80283914D01*
X97152051Y-80101835D01*
X97171622Y-80003444D01*
X97203088Y-79956353D01*
X97258637Y-79945304D01*
X97305729Y-79976770D01*
X97318200Y-80017882D01*
X97318200Y-80374464D01*
X97338677Y-80450885D01*
X97338679Y-80450890D01*
X97356705Y-80482111D01*
X97378240Y-80519411D01*
X98703126Y-81844297D01*
X98723652Y-81893852D01*
X98724167Y-81893785D01*
X98724419Y-81895704D01*
X98724800Y-81896623D01*
X98724800Y-81898594D01*
X98758906Y-82025881D01*
X98758907Y-82025884D01*
X98758908Y-82025886D01*
X98824800Y-82140014D01*
X98917986Y-82233200D01*
X99032114Y-82299092D01*
X99159405Y-82333199D01*
X99159406Y-82333200D01*
X99159408Y-82333200D01*
X99291194Y-82333200D01*
X99291194Y-82333199D01*
X99418486Y-82299092D01*
X99459899Y-82275181D01*
X99516052Y-82267788D01*
X99560985Y-82302266D01*
X99570900Y-82339267D01*
X99570900Y-82569582D01*
X99549226Y-82621908D01*
X99496900Y-82643582D01*
X99482464Y-82642160D01*
X99368541Y-82619500D01*
X99171459Y-82619500D01*
X99116662Y-82630399D01*
X98978170Y-82657947D01*
X98978160Y-82657950D01*
X98796086Y-82733367D01*
X98632218Y-82842860D01*
X98632217Y-82842862D01*
X98492862Y-82982217D01*
X98492860Y-82982218D01*
X98383367Y-83146086D01*
X98307950Y-83328160D01*
X98307947Y-83328170D01*
X98269500Y-83521460D01*
X98269500Y-83718539D01*
X98307947Y-83911829D01*
X98307950Y-83911839D01*
X98383367Y-84093913D01*
X98492860Y-84257781D01*
X98600153Y-84365074D01*
X98621827Y-84417400D01*
X98600153Y-84469726D01*
X98547827Y-84491400D01*
X97452173Y-84491400D01*
X97399847Y-84469726D01*
X97378173Y-84417400D01*
X97399847Y-84365074D01*
X97507138Y-84257783D01*
X97507139Y-84257782D01*
X97616632Y-84093914D01*
X97692051Y-83911835D01*
X97730500Y-83718541D01*
X97730500Y-83521459D01*
X97692051Y-83328165D01*
X97616632Y-83146086D01*
X97507139Y-82982218D01*
X97367782Y-82842861D01*
X97297222Y-82795714D01*
X97203913Y-82733367D01*
X97021839Y-82657950D01*
X97021829Y-82657947D01*
X96890728Y-82631870D01*
X96828541Y-82619500D01*
X96631459Y-82619500D01*
X96576662Y-82630399D01*
X96438170Y-82657947D01*
X96438160Y-82657950D01*
X96256086Y-82733367D01*
X96092218Y-82842860D01*
X96092217Y-82842862D01*
X95952862Y-82982217D01*
X95952860Y-82982218D01*
X95843367Y-83146086D01*
X95767950Y-83328160D01*
X95767947Y-83328170D01*
X95729500Y-83521460D01*
X95729500Y-83718539D01*
X95767947Y-83911829D01*
X95767950Y-83911839D01*
X95843367Y-84093913D01*
X95952860Y-84257781D01*
X96060153Y-84365074D01*
X96081827Y-84417400D01*
X96060153Y-84469726D01*
X96007827Y-84491400D01*
X94912173Y-84491400D01*
X94859847Y-84469726D01*
X94838173Y-84417400D01*
X94859847Y-84365074D01*
X94967138Y-84257783D01*
X94967139Y-84257782D01*
X95076632Y-84093914D01*
X95152051Y-83911835D01*
X95190500Y-83718541D01*
X95190500Y-83521459D01*
X95152051Y-83328165D01*
X95076632Y-83146086D01*
X94967139Y-82982218D01*
X94827782Y-82842861D01*
X94757222Y-82795714D01*
X94663913Y-82733367D01*
X94481839Y-82657950D01*
X94481829Y-82657947D01*
X94350728Y-82631870D01*
X94288541Y-82619500D01*
X94091459Y-82619500D01*
X94036662Y-82630399D01*
X93898170Y-82657947D01*
X93898160Y-82657950D01*
X93716086Y-82733367D01*
X93552218Y-82842860D01*
X93552217Y-82842862D01*
X93412863Y-82982215D01*
X93313364Y-83131125D01*
X93266271Y-83162590D01*
X93210722Y-83151541D01*
X93199509Y-83142338D01*
X92317412Y-82260241D01*
X92317411Y-82260240D01*
X92297750Y-82248889D01*
X92270576Y-82233200D01*
X92248890Y-82220679D01*
X92248885Y-82220677D01*
X92172464Y-82200200D01*
X92172462Y-82200200D01*
X91121438Y-82200200D01*
X91121436Y-82200200D01*
X91045014Y-82220677D01*
X91045009Y-82220679D01*
X90996150Y-82248889D01*
X90976488Y-82260240D01*
X90273040Y-82963688D01*
X90233479Y-83032209D01*
X90233477Y-83032214D01*
X90213000Y-83108635D01*
X90213000Y-83296423D01*
X90191326Y-83348749D01*
X90139000Y-83370423D01*
X90086674Y-83348749D01*
X90070633Y-83324741D01*
X89996632Y-83146086D01*
X89887139Y-82982218D01*
X89747781Y-82842860D01*
X89583913Y-82733367D01*
X89401839Y-82657950D01*
X89401829Y-82657947D01*
X89270728Y-82631870D01*
X89208541Y-82619500D01*
X89011459Y-82619500D01*
X88956662Y-82630399D01*
X88818170Y-82657947D01*
X88818160Y-82657950D01*
X88636086Y-82733367D01*
X88472218Y-82842860D01*
X88472217Y-82842862D01*
X88332862Y-82982217D01*
X88332860Y-82982218D01*
X88236129Y-83126987D01*
X88189036Y-83158453D01*
X88133488Y-83147404D01*
X88102022Y-83100311D01*
X88100600Y-83085875D01*
X88100600Y-80558536D01*
X88100599Y-80558535D01*
X88097881Y-80548393D01*
X88080121Y-80482111D01*
X88075675Y-80474411D01*
X88053211Y-80435501D01*
X88040560Y-80413589D01*
X87984611Y-80357640D01*
X87785274Y-80158303D01*
X87763600Y-80105977D01*
X87763600Y-79711460D01*
X90109500Y-79711460D01*
X90109500Y-79908539D01*
X90147947Y-80101829D01*
X90147950Y-80101839D01*
X90223367Y-80283913D01*
X90311749Y-80416185D01*
X90332861Y-80447782D01*
X90472218Y-80587139D01*
X90636086Y-80696632D01*
X90818165Y-80772051D01*
X91011459Y-80810500D01*
X91011461Y-80810500D01*
X91208539Y-80810500D01*
X91208541Y-80810500D01*
X91401835Y-80772051D01*
X91583914Y-80696632D01*
X91747782Y-80587139D01*
X91887139Y-80447782D01*
X91996632Y-80283914D01*
X92072051Y-80101835D01*
X92110500Y-79908541D01*
X92110500Y-79711459D01*
X92072051Y-79518165D01*
X91996632Y-79336086D01*
X91887139Y-79172218D01*
X91747782Y-79032861D01*
X91739351Y-79027227D01*
X91583913Y-78923367D01*
X91401839Y-78847950D01*
X91401829Y-78847947D01*
X91272388Y-78822200D01*
X91208541Y-78809500D01*
X91011459Y-78809500D01*
X90956662Y-78820399D01*
X90818170Y-78847947D01*
X90818160Y-78847950D01*
X90636086Y-78923367D01*
X90472218Y-79032860D01*
X90472217Y-79032862D01*
X90332862Y-79172217D01*
X90332860Y-79172218D01*
X90223367Y-79336086D01*
X90147950Y-79518160D01*
X90147947Y-79518170D01*
X90109500Y-79711460D01*
X87763600Y-79711460D01*
X87763600Y-77054323D01*
X87785274Y-77001997D01*
X88216738Y-76570533D01*
X88810460Y-75976811D01*
X88838017Y-75929080D01*
X88850021Y-75908289D01*
X88870499Y-75831864D01*
X88870500Y-75831864D01*
X88870500Y-73197906D01*
X88892174Y-73145580D01*
X88916180Y-73129539D01*
X89043914Y-73076632D01*
X89207782Y-72967139D01*
X89347139Y-72827782D01*
X89403971Y-72742725D01*
X89451063Y-72711260D01*
X89506612Y-72722309D01*
X89538078Y-72769401D01*
X89539500Y-72783838D01*
X89539500Y-76039564D01*
X89559977Y-76115985D01*
X89559979Y-76115990D01*
X89597549Y-76181062D01*
X89597552Y-76181068D01*
X89599535Y-76184505D01*
X89599538Y-76184508D01*
X89599540Y-76184511D01*
X91170151Y-77755122D01*
X92724816Y-79309787D01*
X92746490Y-79362113D01*
X92740857Y-79390431D01*
X92687950Y-79518160D01*
X92687947Y-79518170D01*
X92649500Y-79711460D01*
X92649500Y-79908539D01*
X92687947Y-80101829D01*
X92687950Y-80101839D01*
X92763367Y-80283913D01*
X92851749Y-80416185D01*
X92872861Y-80447782D01*
X93012218Y-80587139D01*
X93176086Y-80696632D01*
X93358165Y-80772051D01*
X93551459Y-80810500D01*
X93551461Y-80810500D01*
X93748539Y-80810500D01*
X93748541Y-80810500D01*
X93941835Y-80772051D01*
X94123914Y-80696632D01*
X94287782Y-80587139D01*
X94427139Y-80447782D01*
X94536632Y-80283914D01*
X94612051Y-80101835D01*
X94650500Y-79908541D01*
X94650500Y-79711459D01*
X94612051Y-79518165D01*
X94536632Y-79336086D01*
X94427139Y-79172218D01*
X94287782Y-79032861D01*
X94279351Y-79027227D01*
X94123913Y-78923367D01*
X93941839Y-78847950D01*
X93941829Y-78847947D01*
X93812388Y-78822200D01*
X93748541Y-78809500D01*
X93551459Y-78809500D01*
X93496662Y-78820399D01*
X93358170Y-78847947D01*
X93358160Y-78847950D01*
X93230431Y-78900857D01*
X93173794Y-78900857D01*
X93149787Y-78884816D01*
X90162174Y-75897203D01*
X90140500Y-75844877D01*
X90140500Y-72783838D01*
X90162174Y-72731512D01*
X90214500Y-72709838D01*
X90266826Y-72731512D01*
X90276026Y-72742722D01*
X90293852Y-72769401D01*
X90332860Y-72827781D01*
X90472218Y-72967139D01*
X90636086Y-73076632D01*
X90802542Y-73145580D01*
X90818165Y-73152051D01*
X91011459Y-73190500D01*
X91011461Y-73190500D01*
X91208539Y-73190500D01*
X91208541Y-73190500D01*
X91401835Y-73152051D01*
X91583914Y-73076632D01*
X91747782Y-72967139D01*
X91887139Y-72827782D01*
X91996632Y-72663914D01*
X92072051Y-72481835D01*
X92110500Y-72288541D01*
X92110500Y-72091459D01*
X92072051Y-71898165D01*
X92019142Y-71770431D01*
X92019142Y-71713794D01*
X92035183Y-71689787D01*
X92335297Y-71389674D01*
X92387623Y-71368000D01*
X92878427Y-71368000D01*
X92930753Y-71389674D01*
G37*
%TD.AperFunction*%
%TD*%
M02*
