%TF.GenerationSoftware,KiCad,Pcbnew,10.0.3*%
%TF.CreationDate,2026-06-23T23:37:30-04:00*%
%TF.ProjectId,index,696e6465-782e-46b6-9963-61645f706362,Rev1*%
%TF.SameCoordinates,Original*%
%TF.FileFunction,Copper,L2,Bot*%
%TF.FilePolarity,Positive*%
%FSLAX46Y46*%
G04 Gerber Fmt 4.6, Leading zero omitted, Abs format (unit mm)*
G04 Created by KiCad (PCBNEW 10.0.3) date 2026-06-23 23:37:30*
%MOMM*%
%LPD*%
G01*
G04 APERTURE LIST*
%TA.AperFunction,ComponentPad*%
%ADD10C,1.400000*%
%TD*%
%TA.AperFunction,ComponentPad*%
%ADD11R,1.600000X1.600000*%
%TD*%
%TA.AperFunction,ComponentPad*%
%ADD12C,1.600000*%
%TD*%
%TA.AperFunction,ComponentPad*%
%ADD13C,0.600000*%
%TD*%
%TA.AperFunction,SMDPad,CuDef*%
%ADD14R,2.000000X7.000000*%
%TD*%
%TA.AperFunction,ViaPad*%
%ADD15C,0.600000*%
%TD*%
%TA.AperFunction,Conductor*%
%ADD16C,0.200000*%
%TD*%
G04 APERTURE END LIST*
D10*
%TO.P,C_AMP,1*%
%TO.N,VCC*%
X85000000Y-102520000D03*
%TO.P,C_AMP,2*%
%TO.N,GND*%
X85000000Y-99980000D03*
%TD*%
%TO.P,C_RESET,1*%
%TO.N,RESET_DELAYED*%
X110730000Y-87500000D03*
%TO.P,C_RESET,2*%
%TO.N,GND*%
X113270000Y-87500000D03*
%TD*%
D11*
%TO.P,U_YM,1*%
%TO.N,GND*%
X124130000Y-68380000D03*
D12*
%TO.P,U_YM,2*%
%TO.N,N/C*%
X121590000Y-68380000D03*
%TO.P,U_YM,3*%
%TO.N,ANALOG_B*%
X119050000Y-68380000D03*
%TO.P,U_YM,4*%
%TO.N,ANALOG_A*%
X116510000Y-68380000D03*
%TO.P,U_YM,5*%
%TO.N,N/C*%
X113970000Y-68380000D03*
%TO.P,U_YM,6*%
X111430000Y-68380000D03*
%TO.P,U_YM,7*%
X108890000Y-68380000D03*
%TO.P,U_YM,8*%
X106350000Y-68380000D03*
%TO.P,U_YM,9*%
X103810000Y-68380000D03*
%TO.P,U_YM,10*%
X101270000Y-68380000D03*
%TO.P,U_YM,11*%
X98730000Y-68380000D03*
%TO.P,U_YM,12*%
X96190000Y-68380000D03*
%TO.P,U_YM,13*%
X93650000Y-68380000D03*
%TO.P,U_YM,14*%
X91110000Y-68380000D03*
%TO.P,U_YM,15*%
X88570000Y-68380000D03*
%TO.P,U_YM,16*%
X86030000Y-68380000D03*
%TO.P,U_YM,17*%
X83490000Y-68380000D03*
%TO.P,U_YM,18*%
X80950000Y-68380000D03*
%TO.P,U_YM,19*%
X78410000Y-68380000D03*
%TO.P,U_YM,20*%
X75870000Y-68380000D03*
%TO.P,U_YM,21*%
X75870000Y-83620000D03*
%TO.P,U_YM,22*%
%TO.N,PHI2OUT*%
X78410000Y-83620000D03*
%TO.P,U_YM,23*%
%TO.N,RESET_DELAYED*%
X80950000Y-83620000D03*
%TO.P,U_YM,24*%
%TO.N,GND*%
X83490000Y-83620000D03*
%TO.P,U_YM,25*%
%TO.N,VCC*%
X86030000Y-83620000D03*
%TO.P,U_YM,26*%
%TO.N,N/C*%
X88570000Y-83620000D03*
%TO.P,U_YM,27*%
%TO.N,BDIR*%
X91110000Y-83620000D03*
%TO.P,U_YM,28*%
%TO.N,VCC*%
X93650000Y-83620000D03*
%TO.P,U_YM,29*%
%TO.N,BC1*%
X96190000Y-83620000D03*
%TO.P,U_YM,30*%
%TO.N,DA7*%
X98730000Y-83620000D03*
%TO.P,U_YM,31*%
%TO.N,DA6*%
X101270000Y-83620000D03*
%TO.P,U_YM,32*%
%TO.N,DA5*%
X103810000Y-83620000D03*
%TO.P,U_YM,33*%
%TO.N,DA4*%
X106350000Y-83620000D03*
%TO.P,U_YM,34*%
%TO.N,DA3*%
X108890000Y-83620000D03*
%TO.P,U_YM,35*%
%TO.N,DA2*%
X111430000Y-83620000D03*
%TO.P,U_YM,36*%
%TO.N,DA1*%
X113970000Y-83620000D03*
%TO.P,U_YM,37*%
%TO.N,DA0*%
X116510000Y-83620000D03*
%TO.P,U_YM,38*%
%TO.N,ANALOG_C*%
X119050000Y-83620000D03*
%TO.P,U_YM,39*%
%TO.N,N/C*%
X121590000Y-83620000D03*
%TO.P,U_YM,40*%
%TO.N,VCC*%
X124130000Y-83620000D03*
%TD*%
D10*
%TO.P,R_YM_AUDIOC,1*%
%TO.N,ANALOG_C*%
X86730000Y-87500000D03*
%TO.P,R_YM_AUDIOC,2*%
%TO.N,SUM_NODE*%
X89270000Y-87500000D03*
%TD*%
%TO.P,C_LATCH,1*%
%TO.N,VCC*%
X115000000Y-77270000D03*
%TO.P,C_LATCH,2*%
%TO.N,GND*%
X115000000Y-74730000D03*
%TD*%
%TO.P,R_PULL,1*%
%TO.N,OPAMP_OUT*%
X110000000Y-102520000D03*
%TO.P,R_PULL,2*%
%TO.N,GND*%
X110000000Y-99980000D03*
%TD*%
D11*
%TO.P,U_ROM,1*%
%TO.N,ROM_VPP*%
X116510000Y-110630000D03*
D12*
%TO.P,U_ROM,2*%
%TO.N,A12*%
X113970000Y-110630000D03*
%TO.P,U_ROM,3*%
%TO.N,A7*%
X111430000Y-110630000D03*
%TO.P,U_ROM,4*%
%TO.N,A6*%
X108890000Y-110630000D03*
%TO.P,U_ROM,5*%
%TO.N,A5*%
X106350000Y-110630000D03*
%TO.P,U_ROM,6*%
%TO.N,A4*%
X103810000Y-110630000D03*
%TO.P,U_ROM,7*%
%TO.N,A3*%
X101270000Y-110630000D03*
%TO.P,U_ROM,8*%
%TO.N,A2*%
X98730000Y-110630000D03*
%TO.P,U_ROM,9*%
%TO.N,A1*%
X96190000Y-110630000D03*
%TO.P,U_ROM,10*%
%TO.N,A0*%
X93650000Y-110630000D03*
%TO.P,U_ROM,11*%
%TO.N,D0*%
X91110000Y-110630000D03*
%TO.P,U_ROM,12*%
%TO.N,D1*%
X88570000Y-110630000D03*
%TO.P,U_ROM,13*%
%TO.N,D2*%
X86030000Y-110630000D03*
%TO.P,U_ROM,14*%
%TO.N,GND*%
X83490000Y-110630000D03*
%TO.P,U_ROM,15*%
%TO.N,D3*%
X83490000Y-125870000D03*
%TO.P,U_ROM,16*%
%TO.N,D4*%
X86030000Y-125870000D03*
%TO.P,U_ROM,17*%
%TO.N,D5*%
X88570000Y-125870000D03*
%TO.P,U_ROM,18*%
%TO.N,D6*%
X91110000Y-125870000D03*
%TO.P,U_ROM,19*%
%TO.N,D7*%
X93650000Y-125870000D03*
%TO.P,U_ROM,20*%
%TO.N,ROM_CE*%
X96190000Y-125870000D03*
%TO.P,U_ROM,21*%
%TO.N,A10*%
X98730000Y-125870000D03*
%TO.P,U_ROM,22*%
%TO.N,GND*%
X101270000Y-125870000D03*
%TO.P,U_ROM,23*%
%TO.N,A11*%
X103810000Y-125870000D03*
%TO.P,U_ROM,24*%
%TO.N,A9*%
X106350000Y-125870000D03*
%TO.P,U_ROM,25*%
%TO.N,A8*%
X108890000Y-125870000D03*
%TO.P,U_ROM,26*%
%TO.N,A13*%
X111430000Y-125870000D03*
%TO.P,U_ROM,27*%
%TO.N,ROM_ADDR14*%
X113970000Y-125870000D03*
%TO.P,U_ROM,28*%
%TO.N,VCC*%
X116510000Y-125870000D03*
%TD*%
D11*
%TO.P,U_GAL,1*%
%TO.N,N/C*%
X111430000Y-122060000D03*
D12*
%TO.P,U_GAL,2*%
%TO.N,A15*%
X108890000Y-122060000D03*
%TO.P,U_GAL,3*%
%TO.N,A14*%
X106350000Y-122060000D03*
%TO.P,U_GAL,4*%
%TO.N,A0*%
X103810000Y-122060000D03*
%TO.P,U_GAL,5*%
%TO.N,HALT*%
X101270000Y-122060000D03*
%TO.P,U_GAL,6*%
%TO.N,RW*%
X98730000Y-122060000D03*
%TO.P,U_GAL,7*%
%TO.N,PHI2*%
X96190000Y-122060000D03*
%TO.P,U_GAL,8*%
%TO.N,N/C*%
X93650000Y-122060000D03*
%TO.P,U_GAL,9*%
X91110000Y-122060000D03*
%TO.P,U_GAL,10*%
%TO.N,GND*%
X88570000Y-122060000D03*
%TO.P,U_GAL,11*%
%TO.N,N/C*%
X88570000Y-114440000D03*
%TO.P,U_GAL,12*%
X91110000Y-114440000D03*
%TO.P,U_GAL,13*%
X93650000Y-114440000D03*
%TO.P,U_GAL,14*%
X96190000Y-114440000D03*
%TO.P,U_GAL,15*%
%TO.N,YM_LE*%
X98730000Y-114440000D03*
%TO.P,U_GAL,16*%
%TO.N,PHI2OUT*%
X101270000Y-114440000D03*
%TO.P,U_GAL,17*%
%TO.N,BC1*%
X103810000Y-114440000D03*
%TO.P,U_GAL,18*%
%TO.N,BDIR*%
X106350000Y-114440000D03*
%TO.P,U_GAL,19*%
%TO.N,ROM_CE*%
X108890000Y-114440000D03*
%TO.P,U_GAL,20*%
%TO.N,VCC*%
X111430000Y-114440000D03*
%TD*%
D11*
%TO.P,U_AMP,1*%
%TO.N,OPAMP_OUT*%
X103810000Y-97440000D03*
D12*
%TO.P,U_AMP,2*%
%TO.N,SUM_NODE*%
X101270000Y-97440000D03*
%TO.P,U_AMP,3*%
%TO.N,GND*%
X98730000Y-97440000D03*
%TO.P,U_AMP,4*%
X96190000Y-97440000D03*
%TO.P,U_AMP,5*%
X96190000Y-105060000D03*
%TO.P,U_AMP,6*%
%TO.N,AMP_UNUSED_FB*%
X98730000Y-105060000D03*
%TO.P,U_AMP,7*%
X101270000Y-105060000D03*
%TO.P,U_AMP,8*%
%TO.N,VCC*%
X103810000Y-105060000D03*
%TD*%
D11*
%TO.P,U_LATCH,1*%
%TO.N,GND*%
X111430000Y-79810000D03*
D12*
%TO.P,U_LATCH,2*%
%TO.N,DA0*%
X108890000Y-79810000D03*
%TO.P,U_LATCH,3*%
%TO.N,D0*%
X106350000Y-79810000D03*
%TO.P,U_LATCH,4*%
%TO.N,D1*%
X103810000Y-79810000D03*
%TO.P,U_LATCH,5*%
%TO.N,DA1*%
X101270000Y-79810000D03*
%TO.P,U_LATCH,6*%
%TO.N,DA2*%
X98730000Y-79810000D03*
%TO.P,U_LATCH,7*%
%TO.N,D2*%
X96190000Y-79810000D03*
%TO.P,U_LATCH,8*%
%TO.N,D3*%
X93650000Y-79810000D03*
%TO.P,U_LATCH,9*%
%TO.N,DA3*%
X91110000Y-79810000D03*
%TO.P,U_LATCH,10*%
%TO.N,GND*%
X88570000Y-79810000D03*
%TO.P,U_LATCH,11*%
%TO.N,YM_LE*%
X88570000Y-72190000D03*
%TO.P,U_LATCH,12*%
%TO.N,DA4*%
X91110000Y-72190000D03*
%TO.P,U_LATCH,13*%
%TO.N,D4*%
X93650000Y-72190000D03*
%TO.P,U_LATCH,14*%
%TO.N,D5*%
X96190000Y-72190000D03*
%TO.P,U_LATCH,15*%
%TO.N,DA5*%
X98730000Y-72190000D03*
%TO.P,U_LATCH,16*%
%TO.N,DA6*%
X101270000Y-72190000D03*
%TO.P,U_LATCH,17*%
%TO.N,D6*%
X103810000Y-72190000D03*
%TO.P,U_LATCH,18*%
%TO.N,D7*%
X106350000Y-72190000D03*
%TO.P,U_LATCH,19*%
%TO.N,DA7*%
X108890000Y-72190000D03*
%TO.P,U_LATCH,20*%
%TO.N,VCC*%
X111430000Y-72190000D03*
%TD*%
D13*
%TO.P,U7,1*%
%TO.N,GND*%
X126000000Y-84250000D03*
%TD*%
%TO.P,U6,1*%
%TO.N,GND*%
X121000000Y-108500000D03*
%TD*%
D10*
%TO.P,C_ROM,1*%
%TO.N,VCC*%
X120000000Y-116980000D03*
%TO.P,C_ROM,2*%
%TO.N,GND*%
X120000000Y-119520000D03*
%TD*%
D14*
%TO.P,J1,17*%
%TO.N,N/C*%
X121590000Y-136490000D03*
%TO.P,J1,18*%
%TO.N,OPAMP_OUT_AC*%
X119050000Y-136490000D03*
%TO.P,J1,19*%
%TO.N,A7*%
X113970000Y-136490000D03*
%TO.P,J1,20*%
%TO.N,A6*%
X111430000Y-136490000D03*
%TO.P,J1,21*%
%TO.N,A5*%
X108890000Y-136490000D03*
%TO.P,J1,22*%
%TO.N,A4*%
X106350000Y-136490000D03*
%TO.P,J1,23*%
%TO.N,A3*%
X103810000Y-136490000D03*
%TO.P,J1,24*%
%TO.N,A2*%
X101270000Y-136490000D03*
%TO.P,J1,25*%
%TO.N,A1*%
X98730000Y-136490000D03*
%TO.P,J1,26*%
%TO.N,A0*%
X96190000Y-136490000D03*
%TO.P,J1,27*%
%TO.N,D0*%
X93650000Y-136490000D03*
%TO.P,J1,28*%
%TO.N,D1*%
X91110000Y-136490000D03*
%TO.P,J1,29*%
%TO.N,D2*%
X88570000Y-136490000D03*
%TO.P,J1,30*%
%TO.N,GND*%
X86030000Y-136490000D03*
%TO.P,J1,31*%
%TO.N,N/C*%
X80950000Y-136490000D03*
%TO.P,J1,32*%
%TO.N,PHI2*%
X78410000Y-136490000D03*
%TD*%
D10*
%TO.P,C_YM,1*%
%TO.N,VCC*%
X128000000Y-74730000D03*
%TO.P,C_YM,2*%
%TO.N,GND*%
X128000000Y-77270000D03*
%TD*%
%TO.P,R_FB,1*%
%TO.N,SUM_NODE*%
X90000000Y-102520000D03*
%TO.P,R_FB,2*%
%TO.N,OPAMP_OUT*%
X90000000Y-99980000D03*
%TD*%
%TO.P,C_AUDIO_OUT,1*%
%TO.N,CAP_PLUS*%
X117000000Y-102520000D03*
%TO.P,C_AUDIO_OUT,2*%
%TO.N,OPAMP_OUT_AC*%
X117000000Y-99980000D03*
%TD*%
%TO.P,R_RESET,1*%
%TO.N,VCC*%
X104730000Y-87500000D03*
%TO.P,R_RESET,2*%
%TO.N,RESET_DELAYED*%
X107270000Y-87500000D03*
%TD*%
%TO.P,C_GAL,1*%
%TO.N,VCC*%
X115000000Y-119520000D03*
%TO.P,C_GAL,2*%
%TO.N,GND*%
X115000000Y-116980000D03*
%TD*%
%TO.P,R_SERIES,1*%
%TO.N,OPAMP_OUT*%
X113500000Y-102520000D03*
%TO.P,R_SERIES,2*%
%TO.N,CAP_PLUS*%
X113500000Y-99980000D03*
%TD*%
%TO.P,R_YM_AUDIOB,1*%
%TO.N,ANALOG_B*%
X80730000Y-87500000D03*
%TO.P,R_YM_AUDIOB,2*%
%TO.N,SUM_NODE*%
X83270000Y-87500000D03*
%TD*%
%TO.P,R_YM_AUDIOA,1*%
%TO.N,ANALOG_A*%
X92730000Y-87500000D03*
%TO.P,R_YM_AUDIOA,2*%
%TO.N,SUM_NODE*%
X95270000Y-87500000D03*
%TD*%
D15*
%TO.N,VCC*%
X114418000Y-129262900D03*
X113816100Y-117951500D03*
%TO.N,ANALOG_A*%
X102670300Y-69637200D03*
%TO.N,BDIR*%
X93349100Y-102155000D03*
%TO.N,DA7*%
X98669200Y-78388100D03*
%TO.N,A12*%
X102014600Y-119847400D03*
X98731400Y-131973900D03*
%TO.N,A0*%
X94859500Y-123404900D03*
%TO.N,D0*%
X94913700Y-93918500D03*
%TO.N,D2*%
X85666900Y-81555500D03*
%TO.N,D3*%
X83235000Y-81003100D03*
X85920500Y-120158400D03*
%TO.N,D4*%
X87267800Y-120865500D03*
%TO.N,D5*%
X88724200Y-123589100D03*
%TO.N,D6*%
X91250000Y-123526900D03*
X94468000Y-94700100D03*
X115006900Y-88398700D03*
%TO.N,D7*%
X101975000Y-118363300D03*
X99709100Y-120318500D03*
%TO.N,RW*%
X97868700Y-117680200D03*
X77410000Y-117966500D03*
X94308700Y-108806000D03*
%TO.N,YM_LE*%
X96616800Y-87262300D03*
X88157300Y-85432300D03*
%TD*%
%TO.N,VCC*%
D16*
X97705400Y-87500000D02*
X93825400Y-83620000D01*
X93650000Y-83620000D02*
X92497500Y-84772500D01*
X100236800Y-101486800D02*
X86033200Y-101486800D01*
X117540000Y-74730000D02*
X128000000Y-74730000D01*
X107620000Y-110980000D02*
X107620000Y-108870000D01*
X113816100Y-117951500D02*
X111430000Y-115565400D01*
X87182500Y-84772500D02*
X86030000Y-83620000D01*
X107620000Y-108870000D02*
X103810000Y-105060000D01*
X92497500Y-84772500D02*
X87182500Y-84772500D01*
X111430000Y-73700000D02*
X111430000Y-72190000D01*
X104730000Y-87500000D02*
X97705400Y-87500000D01*
X93825400Y-83620000D02*
X93650000Y-83620000D01*
X111080000Y-114440000D02*
X107620000Y-110980000D01*
X115000000Y-119520000D02*
X113816100Y-118336100D01*
X116510000Y-125870000D02*
X116510000Y-127170900D01*
X113816100Y-118336100D02*
X113816100Y-117951500D01*
X103810000Y-105060000D02*
X100236800Y-101486800D01*
X111430000Y-115565400D02*
X111430000Y-114440000D01*
X111430000Y-114440000D02*
X111080000Y-114440000D01*
X116510000Y-127170900D02*
X114418000Y-129262900D01*
X115000000Y-77270000D02*
X117540000Y-74730000D01*
X86033200Y-101486800D02*
X85000000Y-102520000D01*
X115000000Y-77270000D02*
X111430000Y-73700000D01*
%TO.N,RESET_DELAYED*%
X80950000Y-83620000D02*
X82102900Y-82467100D01*
X95088300Y-83485500D02*
X95088300Y-84124600D01*
X95088300Y-84124600D02*
X97033900Y-86070200D01*
X94069900Y-82467100D02*
X95088300Y-83485500D01*
X110730000Y-87500000D02*
X107270000Y-87500000D01*
X105840200Y-86070200D02*
X107270000Y-87500000D01*
X97033900Y-86070200D02*
X105840200Y-86070200D01*
X82102900Y-82467100D02*
X94069900Y-82467100D01*
%TO.N,ANALOG_B*%
X89840000Y-72577100D02*
X79811200Y-82605900D01*
X79811200Y-82605900D02*
X79811200Y-86581200D01*
X116975200Y-70454800D02*
X91225500Y-70454800D01*
X79811200Y-86581200D02*
X80730000Y-87500000D01*
X91225500Y-70454800D02*
X89840000Y-71840300D01*
X89840000Y-71840300D02*
X89840000Y-72577100D01*
X119050000Y-68380000D02*
X116975200Y-70454800D01*
%TO.N,ANALOG_A*%
X115252800Y-69637200D02*
X116510000Y-68380000D01*
X102670300Y-69637200D02*
X115252800Y-69637200D01*
%TO.N,PHI2OUT*%
X97460000Y-110955500D02*
X97460000Y-110331800D01*
X97460000Y-110331800D02*
X91338100Y-104209900D01*
X79729800Y-88871500D02*
X78410000Y-87551700D01*
X79729800Y-98700200D02*
X79729800Y-88871500D01*
X101270000Y-114440000D02*
X100944500Y-114440000D01*
X100944500Y-114440000D02*
X97460000Y-110955500D01*
X85239500Y-104209900D02*
X79729800Y-98700200D01*
X91338100Y-104209900D02*
X85239500Y-104209900D01*
X78410000Y-87551700D02*
X78410000Y-83620000D01*
%TO.N,BDIR*%
X97460000Y-105352600D02*
X97460000Y-104743300D01*
X98640300Y-106532900D02*
X97460000Y-105352600D01*
X106024500Y-114440000D02*
X102371700Y-110787200D01*
X106350000Y-114440000D02*
X106024500Y-114440000D01*
X98809100Y-106532900D02*
X98640300Y-106532900D01*
X102371700Y-110787200D02*
X102371700Y-110095500D01*
X97460000Y-104743300D02*
X94871700Y-102155000D01*
X94871700Y-102155000D02*
X93349100Y-102155000D01*
X102371700Y-110095500D02*
X98809100Y-106532900D01*
%TO.N,DA7*%
X102691900Y-78388100D02*
X108890000Y-72190000D01*
X98669200Y-78388100D02*
X102691900Y-78388100D01*
%TO.N,DA4*%
X105248300Y-71733700D02*
X105248300Y-72334800D01*
X106806400Y-71088300D02*
X105893700Y-71088300D01*
X97589000Y-80240400D02*
X97589000Y-78524300D01*
X107451700Y-71733600D02*
X106806400Y-71088300D01*
X99525800Y-82177200D02*
X97589000Y-80240400D01*
X107451700Y-72646400D02*
X107451700Y-71733600D01*
X104246800Y-73336300D02*
X92256300Y-73336300D01*
X105893700Y-71088300D02*
X105248300Y-71733700D01*
X106350000Y-83620000D02*
X104907200Y-82177200D01*
X97589000Y-78524300D02*
X100243500Y-75869800D01*
X104907200Y-82177200D02*
X99525800Y-82177200D01*
X105248300Y-72334800D02*
X104246800Y-73336300D01*
X104228300Y-75869800D02*
X107451700Y-72646400D01*
X92256300Y-73336300D02*
X91110000Y-72190000D01*
X100243500Y-75869800D02*
X104228300Y-75869800D01*
%TO.N,DA3*%
X98410600Y-81715000D02*
X93015000Y-81715000D01*
X107738200Y-84771800D02*
X100857200Y-84771800D01*
X93015000Y-81715000D02*
X91110000Y-79810000D01*
X108890000Y-83620000D02*
X107738200Y-84771800D01*
X100000000Y-83914600D02*
X100000000Y-83304400D01*
X100857200Y-84771800D02*
X100000000Y-83914600D01*
X100000000Y-83304400D02*
X98410600Y-81715000D01*
%TO.N,DA2*%
X109295800Y-81485800D02*
X111430000Y-83620000D01*
X98730000Y-79810000D02*
X100405800Y-81485800D01*
X100405800Y-81485800D02*
X109295800Y-81485800D01*
%TO.N,DA1*%
X102457200Y-80997200D02*
X101270000Y-79810000D01*
X110643200Y-82198200D02*
X109442200Y-80997200D01*
X112548200Y-82198200D02*
X110643200Y-82198200D01*
X109442200Y-80997200D02*
X102457200Y-80997200D01*
X113970000Y-83620000D02*
X112548200Y-82198200D01*
%TO.N,DA0*%
X116510000Y-83620000D02*
X113941100Y-81051100D01*
X113941100Y-81051100D02*
X110131100Y-81051100D01*
X110131100Y-81051100D02*
X108890000Y-79810000D01*
%TO.N,ANALOG_C*%
X87770600Y-88540600D02*
X86730000Y-87500000D01*
X114014200Y-88540600D02*
X87770600Y-88540600D01*
X119050000Y-83620000D02*
X118934800Y-83620000D01*
X118934800Y-83620000D02*
X114014200Y-88540600D01*
%TO.N,SUM_NODE*%
X91071800Y-95301800D02*
X99131800Y-95301800D01*
X88235200Y-86465200D02*
X84304800Y-86465200D01*
X99131800Y-95301800D02*
X101270000Y-97440000D01*
X83270000Y-87500000D02*
X91071800Y-95301800D01*
X89270000Y-87500000D02*
X88235200Y-86465200D01*
X89270000Y-87500000D02*
X90279700Y-86490300D01*
X84304800Y-86465200D02*
X83270000Y-87500000D01*
X90279700Y-86490300D02*
X94260300Y-86490300D01*
X94260300Y-86490300D02*
X95270000Y-87500000D01*
%TO.N,OPAMP_OUT*%
X113500000Y-102520000D02*
X110000000Y-102520000D01*
X109991700Y-102520000D02*
X104911700Y-97440000D01*
X102708300Y-97577700D02*
X100306000Y-99980000D01*
X110000000Y-102520000D02*
X109991700Y-102520000D01*
X100306000Y-99980000D02*
X90000000Y-99980000D01*
X103810000Y-97440000D02*
X102708300Y-97440000D01*
X102708300Y-97440000D02*
X102708300Y-97577700D01*
X103810000Y-97440000D02*
X104911700Y-97440000D01*
%TO.N,A12*%
X100000000Y-121718500D02*
X100000000Y-130705300D01*
X101871100Y-119847400D02*
X100000000Y-121718500D01*
X100000000Y-130705300D02*
X98731400Y-131973900D01*
X102014600Y-119847400D02*
X101871100Y-119847400D01*
%TO.N,A7*%
X113816300Y-132534600D02*
X113970000Y-132688300D01*
X115240000Y-127470100D02*
X113816300Y-128893800D01*
X115240000Y-124112500D02*
X115240000Y-127470100D01*
X113816300Y-128893800D02*
X113816300Y-132534600D01*
X116489100Y-115689100D02*
X116489100Y-122863400D01*
X111430000Y-110630000D02*
X116489100Y-115689100D01*
X116489100Y-122863400D02*
X115240000Y-124112500D01*
X113970000Y-136490000D02*
X113970000Y-132688300D01*
%TO.N,A6*%
X112669800Y-129474400D02*
X111430000Y-130714200D01*
X108890000Y-110630000D02*
X109872000Y-110630000D01*
X109872000Y-110630000D02*
X114408500Y-115166500D01*
X112669800Y-123691100D02*
X112669800Y-129474400D01*
X116042400Y-120318500D02*
X112669800Y-123691100D01*
X114643800Y-115166500D02*
X116042400Y-116565100D01*
X111430000Y-130714200D02*
X111430000Y-136490000D01*
X114408500Y-115166500D02*
X114643800Y-115166500D01*
X116042400Y-116565100D02*
X116042400Y-120318500D01*
%TO.N,A5*%
X106350000Y-110630000D02*
X106670000Y-110630000D01*
X106670000Y-110630000D02*
X110052300Y-114012300D01*
X110052300Y-114012300D02*
X110052300Y-131526000D01*
X108890000Y-136490000D02*
X108890000Y-132688300D01*
X110052300Y-131526000D02*
X108890000Y-132688300D01*
%TO.N,A4*%
X107512300Y-131526000D02*
X106350000Y-132688300D01*
X107512300Y-114006800D02*
X107512300Y-131526000D01*
X104135500Y-110630000D02*
X107512300Y-114006800D01*
X106350000Y-136490000D02*
X106350000Y-132688300D01*
X103810000Y-110630000D02*
X104135500Y-110630000D01*
%TO.N,A3*%
X101602300Y-110630000D02*
X104972300Y-114000000D01*
X104972300Y-114000000D02*
X104972300Y-131526000D01*
X101270000Y-110630000D02*
X101602300Y-110630000D01*
X103810000Y-136490000D02*
X103810000Y-132688300D01*
X104972300Y-131526000D02*
X103810000Y-132688300D01*
%TO.N,A2*%
X102616300Y-131342000D02*
X102616300Y-114161400D01*
X101270000Y-136490000D02*
X101270000Y-132688300D01*
X102616300Y-114161400D02*
X99084900Y-110630000D01*
X101270000Y-132688300D02*
X102616300Y-131342000D01*
X99084900Y-110630000D02*
X98730000Y-110630000D01*
%TO.N,A1*%
X98730000Y-136490000D02*
X98730000Y-132688300D01*
X97267000Y-117431100D02*
X97267000Y-117929300D01*
X97532600Y-111972600D02*
X97532600Y-117165500D01*
X97267000Y-117929300D02*
X97532600Y-118194900D01*
X96190000Y-110630000D02*
X97532600Y-111972600D01*
X97532600Y-131625900D02*
X98595000Y-132688300D01*
X97532600Y-117165500D02*
X97267000Y-117431100D01*
X97532600Y-118194900D02*
X97532600Y-131625900D01*
X98595000Y-132688300D02*
X98730000Y-132688300D01*
%TO.N,A0*%
X94859500Y-129383700D02*
X94859500Y-123404900D01*
X96190000Y-130714200D02*
X94859500Y-129383700D01*
X96190000Y-136490000D02*
X96190000Y-130714200D01*
%TO.N,D0*%
X120177700Y-83120400D02*
X120177700Y-84114900D01*
X92520000Y-131558300D02*
X93650000Y-132688300D01*
X92519900Y-131558300D02*
X92520000Y-131558300D01*
X107451700Y-78708300D02*
X115765600Y-78708300D01*
X120177700Y-84114900D02*
X110374100Y-93918500D01*
X106350000Y-79810000D02*
X107451700Y-78708300D01*
X110374100Y-93918500D02*
X94913700Y-93918500D01*
X93650000Y-136490000D02*
X93650000Y-132688300D01*
X115765600Y-78708300D02*
X120177700Y-83120400D01*
X91110000Y-110630000D02*
X92519900Y-112039900D01*
X92519900Y-112039900D02*
X92519900Y-131558300D01*
%TO.N,D1*%
X89980000Y-112040000D02*
X88570000Y-110630000D01*
X89980000Y-131558300D02*
X89980000Y-112040000D01*
X91110000Y-136490000D02*
X91110000Y-132688300D01*
X91110000Y-132688300D02*
X89980000Y-131558300D01*
%TO.N,D2*%
X87468300Y-131586600D02*
X87468300Y-121515900D01*
X87869500Y-121114700D02*
X87869500Y-120616300D01*
X87468300Y-121515900D02*
X87869500Y-121114700D01*
X87468400Y-120215200D02*
X87468300Y-120215200D01*
X88570000Y-132688300D02*
X87468300Y-131586600D01*
X87869500Y-120616300D02*
X87468400Y-120215200D01*
X85538100Y-77849200D02*
X82633300Y-80754000D01*
X83484200Y-81604800D02*
X86412400Y-78676600D01*
X87468300Y-120215200D02*
X87468300Y-112068300D01*
X89676300Y-80265500D02*
X88386300Y-81555500D01*
X94229200Y-77849200D02*
X85538100Y-77849200D01*
X88570000Y-136490000D02*
X88570000Y-132688300D01*
X82985900Y-81604800D02*
X83484200Y-81604800D01*
X82633300Y-80754000D02*
X82633300Y-81252200D01*
X88386300Y-81555500D02*
X85666900Y-81555500D01*
X82633300Y-81252200D02*
X82985900Y-81604800D01*
X89053900Y-78676600D02*
X89676300Y-79299000D01*
X96190000Y-79810000D02*
X94229200Y-77849200D01*
X87468300Y-112068300D02*
X86030000Y-110630000D01*
X89676300Y-79299000D02*
X89676300Y-80265500D01*
X86412400Y-78676600D02*
X89053900Y-78676600D01*
%TO.N,D3*%
X85920500Y-120158400D02*
X83490000Y-122588900D01*
X93650000Y-79810000D02*
X92105700Y-78265700D01*
X83490000Y-122588900D02*
X83490000Y-125870000D01*
X85972400Y-78265700D02*
X83235000Y-81003100D01*
X92105700Y-78265700D02*
X85972400Y-78265700D01*
%TO.N,D4*%
X86030000Y-122103300D02*
X86030000Y-125870000D01*
X87267800Y-120865500D02*
X86030000Y-122103300D01*
%TO.N,D5*%
X88724200Y-125715800D02*
X88724200Y-123589100D01*
X88570000Y-125870000D02*
X88724200Y-125715800D01*
%TO.N,D6*%
X96073800Y-91859100D02*
X94311900Y-93621000D01*
X91110000Y-123666900D02*
X91110000Y-125870000D01*
X91250000Y-123526900D02*
X91110000Y-123666900D01*
X94311900Y-94544000D02*
X94468000Y-94700100D01*
X115006900Y-88398700D02*
X111546500Y-91859100D01*
X94311900Y-93621000D02*
X94311900Y-94544000D01*
X111546500Y-91859100D02*
X96073800Y-91859100D01*
%TO.N,D7*%
X99709100Y-120318500D02*
X101664300Y-118363300D01*
X101664300Y-118363300D02*
X101975000Y-118363300D01*
%TO.N,RW*%
X83753500Y-108806000D02*
X82388300Y-110171200D01*
X94308700Y-108806000D02*
X83753500Y-108806000D01*
X82388300Y-110171200D02*
X82388300Y-111728700D01*
X98730000Y-122060000D02*
X98730000Y-118541500D01*
X82389800Y-112986700D02*
X77410000Y-117966500D01*
X82388300Y-111728700D02*
X82389800Y-111730200D01*
X98730000Y-118541500D02*
X97868700Y-117680200D01*
X82389800Y-111730200D02*
X82389800Y-112986700D01*
%TO.N,PHI2*%
X84760000Y-110334900D02*
X85595400Y-109499500D01*
X94086400Y-109499500D02*
X94920000Y-110333100D01*
X94920000Y-110333100D02*
X94920000Y-120790000D01*
X78410000Y-136490000D02*
X78410000Y-117534500D01*
X85595400Y-109499500D02*
X94086400Y-109499500D01*
X84760000Y-111184500D02*
X84760000Y-110334900D01*
X94920000Y-120790000D02*
X96190000Y-122060000D01*
X78410000Y-117534500D02*
X84760000Y-111184500D01*
%TO.N,YM_LE*%
X94786800Y-85432300D02*
X96616800Y-87262300D01*
X88157300Y-85432300D02*
X94786800Y-85432300D01*
%TO.N,AMP_UNUSED_FB*%
X101270000Y-105060000D02*
X98730000Y-105060000D01*
%TO.N,OPAMP_OUT_AC*%
X118020200Y-101000200D02*
X118020200Y-120520200D01*
X117000000Y-99980000D02*
X118020200Y-101000200D01*
X119050000Y-121550000D02*
X119050000Y-136490000D01*
X118020200Y-120520200D02*
X119050000Y-121550000D01*
%TO.N,CAP_PLUS*%
X116040000Y-102520000D02*
X117000000Y-102520000D01*
X113500000Y-99980000D02*
X116040000Y-102520000D01*
%TD*%
%TA.AperFunction,Conductor*%
%TO.N,GND*%
G36*
X85186826Y-111171512D02*
G01*
X85196026Y-111182722D01*
X85252861Y-111267782D01*
X85392218Y-111407139D01*
X85556086Y-111516632D01*
X85738165Y-111592051D01*
X85931459Y-111630500D01*
X85931461Y-111630500D01*
X86128539Y-111630500D01*
X86128541Y-111630500D01*
X86321835Y-111592051D01*
X86449568Y-111539142D01*
X86506204Y-111539142D01*
X86530212Y-111555183D01*
X87146126Y-112171097D01*
X87167800Y-112223423D01*
X87167800Y-120254764D01*
X87178491Y-120294663D01*
X87171099Y-120350816D01*
X87126166Y-120385294D01*
X87074618Y-120399106D01*
X87074609Y-120399110D01*
X86960485Y-120465000D01*
X86867300Y-120558185D01*
X86801410Y-120672309D01*
X86801406Y-120672318D01*
X86767300Y-120799605D01*
X86767300Y-120910376D01*
X86745626Y-120962702D01*
X85845489Y-121862840D01*
X85789540Y-121918788D01*
X85749979Y-121987309D01*
X85749977Y-121987314D01*
X85729500Y-122063735D01*
X85729500Y-124862092D01*
X85707826Y-124914418D01*
X85683819Y-124930459D01*
X85556089Y-124983366D01*
X85392218Y-125092860D01*
X85392217Y-125092862D01*
X85252862Y-125232217D01*
X85252860Y-125232218D01*
X85143367Y-125396086D01*
X85067950Y-125578160D01*
X85067947Y-125578170D01*
X85029500Y-125771460D01*
X85029500Y-125968539D01*
X85067947Y-126161829D01*
X85067950Y-126161839D01*
X85143367Y-126343913D01*
X85252860Y-126507781D01*
X85392218Y-126647139D01*
X85556086Y-126756632D01*
X85722542Y-126825580D01*
X85738165Y-126832051D01*
X85931459Y-126870500D01*
X85931461Y-126870500D01*
X86128539Y-126870500D01*
X86128541Y-126870500D01*
X86321835Y-126832051D01*
X86503914Y-126756632D01*
X86667782Y-126647139D01*
X86807139Y-126507782D01*
X86916632Y-126343914D01*
X86992051Y-126161835D01*
X87021222Y-126015182D01*
X87052688Y-125968091D01*
X87108237Y-125957042D01*
X87155329Y-125988508D01*
X87167800Y-126029620D01*
X87167800Y-131626164D01*
X87188278Y-131702588D01*
X87210968Y-131741889D01*
X87227836Y-131771105D01*
X87227836Y-131771106D01*
X87227838Y-131771108D01*
X87227840Y-131771111D01*
X87737943Y-132281214D01*
X88119903Y-132663174D01*
X88141577Y-132715500D01*
X88119903Y-132767826D01*
X88067577Y-132789500D01*
X87550246Y-132789500D01*
X87548783Y-132789644D01*
X87541536Y-132790000D01*
X87370000Y-132790000D01*
X87370000Y-132961536D01*
X87369644Y-132968783D01*
X87369500Y-132970246D01*
X87369500Y-139726000D01*
X87347826Y-139778326D01*
X87295500Y-139800000D01*
X84964000Y-139800000D01*
X84911674Y-139778326D01*
X84890000Y-139726000D01*
X84890000Y-130300001D01*
X84890000Y-130300000D01*
X84886157Y-130260982D01*
X84874776Y-130223463D01*
X84856294Y-130188886D01*
X84831421Y-130158579D01*
X84801114Y-130133706D01*
X84766537Y-130115224D01*
X84740400Y-130107295D01*
X84729019Y-130103843D01*
X84709509Y-130101921D01*
X84690000Y-130100000D01*
X84689999Y-130100000D01*
X82290001Y-130100000D01*
X82290000Y-130100000D01*
X82276994Y-130101281D01*
X82250980Y-130103843D01*
X82228218Y-130110748D01*
X82213463Y-130115224D01*
X82213461Y-130115224D01*
X82213461Y-130115225D01*
X82178887Y-130133705D01*
X82178883Y-130133708D01*
X82148579Y-130158579D01*
X82123708Y-130188883D01*
X82123705Y-130188887D01*
X82105225Y-130223461D01*
X82093843Y-130260980D01*
X82090000Y-130300001D01*
X82090000Y-132716000D01*
X82068326Y-132768326D01*
X82016000Y-132790000D01*
X81978464Y-132790000D01*
X81971217Y-132789644D01*
X81969754Y-132789500D01*
X81969748Y-132789500D01*
X79930252Y-132789500D01*
X79930246Y-132789500D01*
X79928783Y-132789644D01*
X79921536Y-132790000D01*
X79750000Y-132790000D01*
X79732326Y-132807674D01*
X79680000Y-132829348D01*
X79627674Y-132807674D01*
X79610000Y-132790000D01*
X79438464Y-132790000D01*
X79431217Y-132789644D01*
X79429754Y-132789500D01*
X79429748Y-132789500D01*
X78784500Y-132789500D01*
X78732174Y-132767826D01*
X78710500Y-132715500D01*
X78710500Y-125771460D01*
X82489500Y-125771460D01*
X82489500Y-125968539D01*
X82527947Y-126161829D01*
X82527950Y-126161839D01*
X82603367Y-126343913D01*
X82712860Y-126507781D01*
X82852218Y-126647139D01*
X83016086Y-126756632D01*
X83182542Y-126825580D01*
X83198165Y-126832051D01*
X83391459Y-126870500D01*
X83391461Y-126870500D01*
X83588539Y-126870500D01*
X83588541Y-126870500D01*
X83781835Y-126832051D01*
X83963914Y-126756632D01*
X84127782Y-126647139D01*
X84267139Y-126507782D01*
X84376632Y-126343914D01*
X84452051Y-126161835D01*
X84490500Y-125968541D01*
X84490500Y-125771459D01*
X84452051Y-125578165D01*
X84447884Y-125568106D01*
X84376632Y-125396086D01*
X84267139Y-125232218D01*
X84127781Y-125092860D01*
X84073650Y-125056691D01*
X83963914Y-124983368D01*
X83963911Y-124983366D01*
X83963910Y-124983366D01*
X83836181Y-124930459D01*
X83796133Y-124890410D01*
X83790500Y-124862092D01*
X83790500Y-122744022D01*
X83812173Y-122691697D01*
X85823296Y-120680573D01*
X85875622Y-120658900D01*
X85986394Y-120658900D01*
X85986394Y-120658899D01*
X86113686Y-120624792D01*
X86227814Y-120558900D01*
X86321000Y-120465714D01*
X86386892Y-120351586D01*
X86420999Y-120224294D01*
X86421000Y-120224294D01*
X86421000Y-120092506D01*
X86420999Y-120092505D01*
X86420496Y-120090629D01*
X86386892Y-119965214D01*
X86321000Y-119851086D01*
X86227814Y-119757900D01*
X86113690Y-119692010D01*
X86113681Y-119692006D01*
X85986394Y-119657900D01*
X85986392Y-119657900D01*
X85854608Y-119657900D01*
X85854606Y-119657900D01*
X85727318Y-119692006D01*
X85727309Y-119692010D01*
X85613185Y-119757900D01*
X85520000Y-119851085D01*
X85454110Y-119965209D01*
X85454106Y-119965218D01*
X85420000Y-120092505D01*
X85420000Y-120203276D01*
X85398326Y-120255602D01*
X83305489Y-122348440D01*
X83249540Y-122404388D01*
X83209979Y-122472909D01*
X83209977Y-122472914D01*
X83189500Y-122549335D01*
X83189500Y-124862092D01*
X83167826Y-124914418D01*
X83143819Y-124930459D01*
X83016089Y-124983366D01*
X82852218Y-125092860D01*
X82852217Y-125092862D01*
X82712862Y-125232217D01*
X82712860Y-125232218D01*
X82603367Y-125396086D01*
X82527950Y-125578160D01*
X82527947Y-125578170D01*
X82489500Y-125771460D01*
X78710500Y-125771460D01*
X78710500Y-117689623D01*
X78732174Y-117637297D01*
X81830932Y-114538539D01*
X85000460Y-111369011D01*
X85040021Y-111300489D01*
X85060499Y-111224064D01*
X85060500Y-111224064D01*
X85060500Y-111223838D01*
X85060543Y-111223732D01*
X85061133Y-111219255D01*
X85062332Y-111219412D01*
X85082174Y-111171512D01*
X85134500Y-111149838D01*
X85186826Y-111171512D01*
G37*
%TD.AperFunction*%
%TA.AperFunction,Conductor*%
G36*
X129778326Y-60221674D02*
G01*
X129800000Y-60274000D01*
X129800000Y-90226000D01*
X129778326Y-90278326D01*
X129726000Y-90300000D01*
X120640000Y-90300000D01*
X120626994Y-90301281D01*
X120600980Y-90303843D01*
X120578218Y-90310748D01*
X120563463Y-90315224D01*
X120563461Y-90315224D01*
X120563461Y-90315225D01*
X120528887Y-90333705D01*
X120528883Y-90333708D01*
X120498579Y-90358579D01*
X120473708Y-90388883D01*
X120473705Y-90388887D01*
X120455225Y-90423461D01*
X120443843Y-90460980D01*
X120440000Y-90500001D01*
X120440000Y-100356000D01*
X120418326Y-100408326D01*
X120366000Y-100430000D01*
X119050000Y-100430000D01*
X119036994Y-100431281D01*
X119010980Y-100433843D01*
X118988218Y-100440748D01*
X118973463Y-100445224D01*
X118973461Y-100445224D01*
X118973461Y-100445225D01*
X118938887Y-100463705D01*
X118938883Y-100463708D01*
X118908579Y-100488579D01*
X118883708Y-100518883D01*
X118883705Y-100518887D01*
X118865225Y-100553461D01*
X118853843Y-100590980D01*
X118853843Y-100590982D01*
X118850000Y-100630000D01*
X118850000Y-105080000D01*
X118853843Y-105119018D01*
X118865224Y-105156537D01*
X118883706Y-105191114D01*
X118908579Y-105221421D01*
X118938886Y-105246294D01*
X118973463Y-105264776D01*
X119010982Y-105276157D01*
X119050000Y-105280000D01*
X120366000Y-105280000D01*
X120418326Y-105301674D01*
X120440000Y-105354000D01*
X120440000Y-107000000D01*
X120443843Y-107039018D01*
X120455224Y-107076537D01*
X120473706Y-107111114D01*
X120498579Y-107141421D01*
X120528886Y-107166294D01*
X120563463Y-107184776D01*
X120600982Y-107196157D01*
X120640000Y-107200000D01*
X123226000Y-107200000D01*
X123278326Y-107221674D01*
X123300000Y-107274000D01*
X123300000Y-139726000D01*
X123278326Y-139778326D01*
X123226000Y-139800000D01*
X122864500Y-139800000D01*
X122812174Y-139778326D01*
X122790500Y-139726000D01*
X122790500Y-132970246D01*
X122790356Y-132968783D01*
X122790000Y-132961536D01*
X122790000Y-132790000D01*
X122618464Y-132790000D01*
X122611217Y-132789644D01*
X122609754Y-132789500D01*
X122609748Y-132789500D01*
X120570252Y-132789500D01*
X120570246Y-132789500D01*
X120568783Y-132789644D01*
X120561536Y-132790000D01*
X120390000Y-132790000D01*
X120372326Y-132807674D01*
X120320000Y-132829348D01*
X120267674Y-132807674D01*
X120250000Y-132790000D01*
X120078464Y-132790000D01*
X120071217Y-132789644D01*
X120069754Y-132789500D01*
X120069748Y-132789500D01*
X119424500Y-132789500D01*
X119372174Y-132767826D01*
X119350500Y-132715500D01*
X119350500Y-121510436D01*
X119350499Y-121510435D01*
X119330022Y-121434014D01*
X119330020Y-121434009D01*
X119317286Y-121411953D01*
X119290460Y-121365489D01*
X119234511Y-121309540D01*
X118342374Y-120417403D01*
X118320700Y-120365077D01*
X118320700Y-116891310D01*
X119099500Y-116891310D01*
X119099500Y-117068689D01*
X119134104Y-117242660D01*
X119134107Y-117242670D01*
X119201985Y-117406544D01*
X119264501Y-117500106D01*
X119300536Y-117554035D01*
X119425965Y-117679464D01*
X119573453Y-117778013D01*
X119573454Y-117778013D01*
X119573455Y-117778014D01*
X119670706Y-117818296D01*
X119737334Y-117845894D01*
X119911309Y-117880500D01*
X119911311Y-117880500D01*
X120088689Y-117880500D01*
X120088691Y-117880500D01*
X120262666Y-117845894D01*
X120426547Y-117778013D01*
X120574035Y-117679464D01*
X120699464Y-117554035D01*
X120798013Y-117406547D01*
X120865894Y-117242666D01*
X120900500Y-117068691D01*
X120900500Y-116891309D01*
X120865894Y-116717334D01*
X120798013Y-116553453D01*
X120699464Y-116405965D01*
X120574035Y-116280536D01*
X120426547Y-116181987D01*
X120426546Y-116181986D01*
X120426544Y-116181985D01*
X120262670Y-116114107D01*
X120262660Y-116114104D01*
X120146156Y-116090930D01*
X120088691Y-116079500D01*
X119911309Y-116079500D01*
X119861989Y-116089310D01*
X119737339Y-116114104D01*
X119737329Y-116114107D01*
X119573455Y-116181985D01*
X119425968Y-116280533D01*
X119300533Y-116405968D01*
X119201985Y-116553455D01*
X119134107Y-116717329D01*
X119134104Y-116717339D01*
X119099500Y-116891310D01*
X118320700Y-116891310D01*
X118320700Y-100960640D01*
X118320700Y-100960638D01*
X118300222Y-100884212D01*
X118260660Y-100815689D01*
X117848646Y-100403675D01*
X117826972Y-100351349D01*
X117832603Y-100323036D01*
X117865894Y-100242666D01*
X117900500Y-100068691D01*
X117900500Y-99891309D01*
X117865894Y-99717334D01*
X117798013Y-99553453D01*
X117699464Y-99405965D01*
X117574035Y-99280536D01*
X117426547Y-99181987D01*
X117426546Y-99181986D01*
X117426544Y-99181985D01*
X117262670Y-99114107D01*
X117262660Y-99114104D01*
X117146156Y-99090930D01*
X117088691Y-99079500D01*
X116911309Y-99079500D01*
X116861989Y-99089310D01*
X116737339Y-99114104D01*
X116737329Y-99114107D01*
X116573455Y-99181985D01*
X116425968Y-99280533D01*
X116300533Y-99405968D01*
X116201985Y-99553455D01*
X116134107Y-99717329D01*
X116134104Y-99717339D01*
X116099500Y-99891310D01*
X116099500Y-100068689D01*
X116134104Y-100242660D01*
X116134107Y-100242670D01*
X116201985Y-100406544D01*
X116277050Y-100518887D01*
X116300536Y-100554035D01*
X116425965Y-100679464D01*
X116573453Y-100778013D01*
X116573454Y-100778013D01*
X116573455Y-100778014D01*
X116656966Y-100812605D01*
X116737334Y-100845894D01*
X116911309Y-100880500D01*
X116911311Y-100880500D01*
X117088689Y-100880500D01*
X117088691Y-100880500D01*
X117262666Y-100845894D01*
X117343033Y-100812605D01*
X117399667Y-100812605D01*
X117423675Y-100828646D01*
X117698026Y-101102997D01*
X117719700Y-101155323D01*
X117719700Y-101787550D01*
X117698026Y-101839876D01*
X117645700Y-101861550D01*
X117593375Y-101839876D01*
X117574035Y-101820536D01*
X117556731Y-101808974D01*
X117426544Y-101721985D01*
X117262670Y-101654107D01*
X117262660Y-101654104D01*
X117146156Y-101630930D01*
X117088691Y-101619500D01*
X116911309Y-101619500D01*
X116861989Y-101629310D01*
X116737339Y-101654104D01*
X116737329Y-101654107D01*
X116573455Y-101721985D01*
X116425968Y-101820533D01*
X116300533Y-101945968D01*
X116201984Y-102093457D01*
X116201983Y-102093458D01*
X116196459Y-102106794D01*
X116156408Y-102146840D01*
X116099771Y-102146836D01*
X116075768Y-102130797D01*
X114348646Y-100403675D01*
X114326972Y-100351349D01*
X114332603Y-100323036D01*
X114365894Y-100242666D01*
X114400500Y-100068691D01*
X114400500Y-99891309D01*
X114365894Y-99717334D01*
X114298013Y-99553453D01*
X114199464Y-99405965D01*
X114074035Y-99280536D01*
X113926547Y-99181987D01*
X113926546Y-99181986D01*
X113926544Y-99181985D01*
X113762670Y-99114107D01*
X113762660Y-99114104D01*
X113646156Y-99090930D01*
X113588691Y-99079500D01*
X113411309Y-99079500D01*
X113361989Y-99089310D01*
X113237339Y-99114104D01*
X113237329Y-99114107D01*
X113073455Y-99181985D01*
X112925968Y-99280533D01*
X112800533Y-99405968D01*
X112701985Y-99553455D01*
X112634107Y-99717329D01*
X112634104Y-99717339D01*
X112599500Y-99891310D01*
X112599500Y-100068689D01*
X112634104Y-100242660D01*
X112634107Y-100242670D01*
X112701985Y-100406544D01*
X112777050Y-100518887D01*
X112800536Y-100554035D01*
X112925965Y-100679464D01*
X113073453Y-100778013D01*
X113073454Y-100778013D01*
X113073455Y-100778014D01*
X113156966Y-100812605D01*
X113237334Y-100845894D01*
X113411309Y-100880500D01*
X113411311Y-100880500D01*
X113588689Y-100880500D01*
X113588691Y-100880500D01*
X113762666Y-100845894D01*
X113843033Y-100812605D01*
X113899667Y-100812605D01*
X113923675Y-100828646D01*
X115799540Y-102704511D01*
X115855489Y-102760460D01*
X115924011Y-102800021D01*
X115924012Y-102800021D01*
X115924014Y-102800022D01*
X115962224Y-102810260D01*
X116000435Y-102820499D01*
X116000436Y-102820500D01*
X116000438Y-102820500D01*
X116079562Y-102820500D01*
X116100332Y-102820500D01*
X116152658Y-102842174D01*
X116168699Y-102866182D01*
X116201985Y-102946544D01*
X116201986Y-102946546D01*
X116201987Y-102946547D01*
X116300536Y-103094035D01*
X116425965Y-103219464D01*
X116573453Y-103318013D01*
X116737334Y-103385894D01*
X116911309Y-103420500D01*
X116911311Y-103420500D01*
X117088689Y-103420500D01*
X117088691Y-103420500D01*
X117262666Y-103385894D01*
X117426547Y-103318013D01*
X117574035Y-103219464D01*
X117593375Y-103200123D01*
X117645700Y-103178450D01*
X117698026Y-103200124D01*
X117719700Y-103252450D01*
X117719700Y-120559764D01*
X117740177Y-120636185D01*
X117740179Y-120636190D01*
X117761032Y-120672308D01*
X117761033Y-120672309D01*
X117761036Y-120672314D01*
X117779740Y-120704711D01*
X117779741Y-120704712D01*
X118727826Y-121652797D01*
X118749500Y-121705123D01*
X118749500Y-132715500D01*
X118727826Y-132767826D01*
X118675500Y-132789500D01*
X118030246Y-132789500D01*
X118028783Y-132789644D01*
X118021536Y-132790000D01*
X117984000Y-132790000D01*
X117931674Y-132768326D01*
X117910000Y-132716000D01*
X117910000Y-130300001D01*
X117910000Y-130300000D01*
X117906157Y-130260982D01*
X117894776Y-130223463D01*
X117876294Y-130188886D01*
X117851421Y-130158579D01*
X117821114Y-130133706D01*
X117786537Y-130115224D01*
X117760400Y-130107295D01*
X117749019Y-130103843D01*
X117729509Y-130101921D01*
X117710000Y-130100000D01*
X117709999Y-130100000D01*
X115310001Y-130100000D01*
X115310000Y-130100000D01*
X115296994Y-130101281D01*
X115270980Y-130103843D01*
X115248218Y-130110748D01*
X115233463Y-130115224D01*
X115233461Y-130115224D01*
X115233461Y-130115225D01*
X115198887Y-130133705D01*
X115198883Y-130133708D01*
X115168579Y-130158579D01*
X115143708Y-130188883D01*
X115143705Y-130188887D01*
X115125225Y-130223461D01*
X115113843Y-130260980D01*
X115110000Y-130300001D01*
X115110000Y-132716000D01*
X115088326Y-132768326D01*
X115036000Y-132790000D01*
X114998464Y-132790000D01*
X114991217Y-132789644D01*
X114989754Y-132789500D01*
X114989748Y-132789500D01*
X114344500Y-132789500D01*
X114292174Y-132767826D01*
X114270500Y-132715500D01*
X114270500Y-132648740D01*
X114270500Y-132648738D01*
X114250022Y-132572312D01*
X114210460Y-132503789D01*
X114138474Y-132431803D01*
X114116800Y-132379477D01*
X114116800Y-129795102D01*
X114138474Y-129742776D01*
X114190800Y-129721102D01*
X114219741Y-129728857D01*
X114220331Y-129727435D01*
X114224810Y-129729290D01*
X114224811Y-129729290D01*
X114224814Y-129729292D01*
X114352108Y-129763400D01*
X114352109Y-129763400D01*
X114483894Y-129763400D01*
X114483894Y-129763399D01*
X114611186Y-129729292D01*
X114725314Y-129663400D01*
X114818500Y-129570214D01*
X114884392Y-129456086D01*
X114918499Y-129328794D01*
X114918500Y-129328794D01*
X114918500Y-129218022D01*
X114940174Y-129165696D01*
X115452530Y-128653340D01*
X116750460Y-127355411D01*
X116790022Y-127286888D01*
X116810500Y-127210462D01*
X116810500Y-127131338D01*
X116810500Y-126877906D01*
X116832174Y-126825580D01*
X116856180Y-126809539D01*
X116983914Y-126756632D01*
X117147782Y-126647139D01*
X117287139Y-126507782D01*
X117396632Y-126343914D01*
X117472051Y-126161835D01*
X117510500Y-125968541D01*
X117510500Y-125771459D01*
X117472051Y-125578165D01*
X117467884Y-125568106D01*
X117396632Y-125396086D01*
X117287139Y-125232218D01*
X117147781Y-125092860D01*
X116983913Y-124983367D01*
X116801839Y-124907950D01*
X116801829Y-124907947D01*
X116656295Y-124878999D01*
X116608541Y-124869500D01*
X116411459Y-124869500D01*
X116363705Y-124878999D01*
X116218170Y-124907947D01*
X116218160Y-124907950D01*
X116036086Y-124983367D01*
X115872218Y-125092860D01*
X115872217Y-125092862D01*
X115732862Y-125232217D01*
X115732860Y-125232218D01*
X115676029Y-125317273D01*
X115628937Y-125348739D01*
X115573388Y-125337690D01*
X115541922Y-125290598D01*
X115540500Y-125276161D01*
X115540500Y-124267623D01*
X115562174Y-124215297D01*
X116125936Y-123651535D01*
X116729560Y-123047911D01*
X116754681Y-123004400D01*
X116769121Y-122979389D01*
X116789599Y-122902964D01*
X116789600Y-122902964D01*
X116789600Y-115649536D01*
X116789599Y-115649535D01*
X116769122Y-115573114D01*
X116769120Y-115573109D01*
X116729559Y-115504588D01*
X112355183Y-111130212D01*
X112333509Y-111077886D01*
X112339142Y-111049567D01*
X112361719Y-110995062D01*
X112392051Y-110921835D01*
X112430500Y-110728541D01*
X112430500Y-110531460D01*
X112969500Y-110531460D01*
X112969500Y-110728539D01*
X113007947Y-110921829D01*
X113007950Y-110921839D01*
X113083367Y-111103913D01*
X113163650Y-111224064D01*
X113192861Y-111267782D01*
X113332218Y-111407139D01*
X113496086Y-111516632D01*
X113678165Y-111592051D01*
X113871459Y-111630500D01*
X113871461Y-111630500D01*
X114068539Y-111630500D01*
X114068541Y-111630500D01*
X114261835Y-111592051D01*
X114443914Y-111516632D01*
X114607782Y-111407139D01*
X114747139Y-111267782D01*
X114856632Y-111103914D01*
X114932051Y-110921835D01*
X114970500Y-110728541D01*
X114970500Y-110531459D01*
X114932051Y-110338165D01*
X114856632Y-110156086D01*
X114747139Y-109992218D01*
X114607782Y-109852861D01*
X114561108Y-109821674D01*
X114544005Y-109810246D01*
X115509500Y-109810246D01*
X115509500Y-111449751D01*
X115509643Y-111451203D01*
X115510000Y-111458459D01*
X115510000Y-111630000D01*
X115681536Y-111630000D01*
X115688783Y-111630356D01*
X115690246Y-111630500D01*
X115690252Y-111630500D01*
X117329754Y-111630500D01*
X117331217Y-111630356D01*
X117338464Y-111630000D01*
X117510000Y-111630000D01*
X117510000Y-111458459D01*
X117510357Y-111451203D01*
X117510500Y-111449751D01*
X117510500Y-109810246D01*
X117510356Y-109808783D01*
X117510000Y-109801536D01*
X117510000Y-109630000D01*
X117338464Y-109630000D01*
X117331217Y-109629644D01*
X117329754Y-109629500D01*
X117329748Y-109629500D01*
X115690252Y-109629500D01*
X115690246Y-109629500D01*
X115688783Y-109629644D01*
X115681536Y-109630000D01*
X115510000Y-109630000D01*
X115510000Y-109801536D01*
X115509644Y-109808783D01*
X115509500Y-109810246D01*
X114544005Y-109810246D01*
X114443913Y-109743367D01*
X114261839Y-109667950D01*
X114261829Y-109667947D01*
X114123700Y-109640472D01*
X114068541Y-109629500D01*
X113871459Y-109629500D01*
X113816662Y-109640399D01*
X113678170Y-109667947D01*
X113678160Y-109667950D01*
X113496086Y-109743367D01*
X113332218Y-109852860D01*
X113332217Y-109852862D01*
X113192862Y-109992217D01*
X113192860Y-109992218D01*
X113083367Y-110156086D01*
X113007950Y-110338160D01*
X113007947Y-110338170D01*
X112969500Y-110531460D01*
X112430500Y-110531460D01*
X112430500Y-110531459D01*
X112392051Y-110338165D01*
X112316632Y-110156086D01*
X112207139Y-109992218D01*
X112067782Y-109852861D01*
X112021108Y-109821674D01*
X111903913Y-109743367D01*
X111721839Y-109667950D01*
X111721829Y-109667947D01*
X111583700Y-109640472D01*
X111528541Y-109629500D01*
X111331459Y-109629500D01*
X111276662Y-109640399D01*
X111138170Y-109667947D01*
X111138160Y-109667950D01*
X110956086Y-109743367D01*
X110792218Y-109852860D01*
X110792217Y-109852862D01*
X110652862Y-109992217D01*
X110652860Y-109992218D01*
X110543367Y-110156086D01*
X110467950Y-110338160D01*
X110467947Y-110338170D01*
X110429500Y-110531460D01*
X110429500Y-110583877D01*
X110407826Y-110636203D01*
X110355500Y-110657877D01*
X110303174Y-110636203D01*
X110056511Y-110389540D01*
X110027277Y-110372662D01*
X109987990Y-110349979D01*
X109987985Y-110349977D01*
X109911564Y-110329500D01*
X109911562Y-110329500D01*
X109897907Y-110329500D01*
X109845581Y-110307826D01*
X109829540Y-110283818D01*
X109776634Y-110156090D01*
X109776633Y-110156088D01*
X109776632Y-110156086D01*
X109667139Y-109992218D01*
X109527782Y-109852861D01*
X109481108Y-109821674D01*
X109363913Y-109743367D01*
X109181839Y-109667950D01*
X109181829Y-109667947D01*
X109043700Y-109640472D01*
X108988541Y-109629500D01*
X108791459Y-109629500D01*
X108736662Y-109640399D01*
X108598170Y-109667947D01*
X108598160Y-109667950D01*
X108416086Y-109743367D01*
X108252218Y-109852860D01*
X108252217Y-109852862D01*
X108112862Y-109992217D01*
X108112860Y-109992218D01*
X108056029Y-110077273D01*
X108008937Y-110108739D01*
X107953388Y-110097690D01*
X107921922Y-110050598D01*
X107920500Y-110036161D01*
X107920500Y-108830436D01*
X107920499Y-108830435D01*
X107903351Y-108766438D01*
X107900022Y-108754012D01*
X107860460Y-108685489D01*
X104735183Y-105560212D01*
X104713509Y-105507886D01*
X104719142Y-105479567D01*
X104772051Y-105351835D01*
X104810500Y-105158541D01*
X104810500Y-104961459D01*
X104772051Y-104768165D01*
X104696632Y-104586086D01*
X104587139Y-104422218D01*
X104447782Y-104282861D01*
X104283914Y-104173368D01*
X104283915Y-104173368D01*
X104283913Y-104173367D01*
X104101839Y-104097950D01*
X104101829Y-104097947D01*
X103972388Y-104072200D01*
X103908541Y-104059500D01*
X103711459Y-104059500D01*
X103656662Y-104070399D01*
X103518170Y-104097947D01*
X103518160Y-104097950D01*
X103390431Y-104150857D01*
X103333794Y-104150857D01*
X103309787Y-104134816D01*
X101879482Y-102704511D01*
X100421311Y-101246340D01*
X100411473Y-101240660D01*
X100411471Y-101240659D01*
X100352790Y-101206779D01*
X100352785Y-101206777D01*
X100276364Y-101186300D01*
X100276362Y-101186300D01*
X85993638Y-101186300D01*
X85993636Y-101186300D01*
X85917214Y-101206777D01*
X85917209Y-101206779D01*
X85858527Y-101240659D01*
X85858527Y-101240660D01*
X85850766Y-101245140D01*
X85848687Y-101246341D01*
X85423675Y-101671352D01*
X85371349Y-101693026D01*
X85343032Y-101687394D01*
X85262666Y-101654106D01*
X85262662Y-101654105D01*
X85262660Y-101654104D01*
X85146156Y-101630930D01*
X85088691Y-101619500D01*
X84911309Y-101619500D01*
X84861989Y-101629310D01*
X84737339Y-101654104D01*
X84737329Y-101654107D01*
X84573455Y-101721985D01*
X84425968Y-101820533D01*
X84300533Y-101945968D01*
X84201985Y-102093455D01*
X84134107Y-102257329D01*
X84134104Y-102257339D01*
X84099500Y-102431310D01*
X84099500Y-102466277D01*
X84077826Y-102518603D01*
X84025500Y-102540277D01*
X83973174Y-102518603D01*
X80051974Y-98597403D01*
X80030300Y-98545077D01*
X80030300Y-88831936D01*
X80030299Y-88831935D01*
X80027267Y-88820621D01*
X80009821Y-88755511D01*
X79970260Y-88686989D01*
X79914311Y-88631040D01*
X78732174Y-87448903D01*
X78710500Y-87396577D01*
X78710500Y-84627906D01*
X78732174Y-84575580D01*
X78756180Y-84559539D01*
X78883914Y-84506632D01*
X79047782Y-84397139D01*
X79187139Y-84257782D01*
X79296632Y-84093914D01*
X79368333Y-83920810D01*
X79408381Y-83880762D01*
X79465018Y-83880762D01*
X79505067Y-83920810D01*
X79510700Y-83949129D01*
X79510700Y-86620764D01*
X79531177Y-86697185D01*
X79531180Y-86697191D01*
X79536070Y-86705662D01*
X79536071Y-86705662D01*
X79570740Y-86765711D01*
X79881352Y-87076323D01*
X79903026Y-87128649D01*
X79897394Y-87156966D01*
X79888754Y-87177826D01*
X79864107Y-87237333D01*
X79864105Y-87237337D01*
X79864104Y-87237339D01*
X79835215Y-87382576D01*
X79829500Y-87411309D01*
X79829500Y-87588691D01*
X79830012Y-87591264D01*
X79864104Y-87762660D01*
X79864107Y-87762670D01*
X79931985Y-87926544D01*
X79931986Y-87926546D01*
X79931987Y-87926547D01*
X80030536Y-88074035D01*
X80155965Y-88199464D01*
X80303453Y-88298013D01*
X80303454Y-88298013D01*
X80303455Y-88298014D01*
X80386966Y-88332605D01*
X80467334Y-88365894D01*
X80641309Y-88400500D01*
X80641311Y-88400500D01*
X80818689Y-88400500D01*
X80818691Y-88400500D01*
X80992666Y-88365894D01*
X81156547Y-88298013D01*
X81304035Y-88199464D01*
X81429464Y-88074035D01*
X81528013Y-87926547D01*
X81595894Y-87762666D01*
X81630500Y-87588691D01*
X81630500Y-87411309D01*
X81595894Y-87237334D01*
X81577890Y-87193867D01*
X81528014Y-87073455D01*
X81429466Y-86925968D01*
X81429465Y-86925967D01*
X81429464Y-86925965D01*
X81304035Y-86800536D01*
X81289464Y-86790800D01*
X81156544Y-86701985D01*
X80992670Y-86634107D01*
X80992660Y-86634104D01*
X80876156Y-86610930D01*
X80818691Y-86599500D01*
X80641309Y-86599500D01*
X80591989Y-86609310D01*
X80467339Y-86634104D01*
X80467337Y-86634105D01*
X80467335Y-86634105D01*
X80467334Y-86634106D01*
X80467332Y-86634107D01*
X80386966Y-86667394D01*
X80330329Y-86667392D01*
X80306323Y-86651352D01*
X80133374Y-86478403D01*
X80111700Y-86426077D01*
X80111700Y-84375273D01*
X80133374Y-84322947D01*
X80185700Y-84301273D01*
X80238026Y-84322947D01*
X80312218Y-84397139D01*
X80476086Y-84506632D01*
X80642542Y-84575580D01*
X80658165Y-84582051D01*
X80851459Y-84620500D01*
X80851461Y-84620500D01*
X81048539Y-84620500D01*
X81048541Y-84620500D01*
X81241835Y-84582051D01*
X81423914Y-84506632D01*
X81587782Y-84397139D01*
X81727139Y-84257782D01*
X81836632Y-84093914D01*
X81912051Y-83911835D01*
X81950500Y-83718541D01*
X81950500Y-83521459D01*
X81912051Y-83328165D01*
X81859142Y-83200431D01*
X81859142Y-83143794D01*
X81875183Y-83119787D01*
X82205697Y-82789274D01*
X82258023Y-82767600D01*
X85288827Y-82767600D01*
X85341153Y-82789274D01*
X85362827Y-82841600D01*
X85341153Y-82893926D01*
X85252862Y-82982217D01*
X85252860Y-82982218D01*
X85143367Y-83146086D01*
X85067950Y-83328160D01*
X85067947Y-83328170D01*
X85029500Y-83521460D01*
X85029500Y-83718539D01*
X85067947Y-83911829D01*
X85067950Y-83911839D01*
X85143367Y-84093913D01*
X85252860Y-84257781D01*
X85392218Y-84397139D01*
X85556086Y-84506632D01*
X85722542Y-84575580D01*
X85738165Y-84582051D01*
X85931459Y-84620500D01*
X85931461Y-84620500D01*
X86128539Y-84620500D01*
X86128541Y-84620500D01*
X86321835Y-84582051D01*
X86449568Y-84529142D01*
X86506204Y-84529142D01*
X86530212Y-84545183D01*
X86942040Y-84957011D01*
X86997989Y-85012960D01*
X87048149Y-85041920D01*
X87065298Y-85051821D01*
X87066511Y-85052521D01*
X87066512Y-85052521D01*
X87066514Y-85052522D01*
X87086212Y-85057800D01*
X87142935Y-85072999D01*
X87142936Y-85073000D01*
X87142938Y-85073000D01*
X87658642Y-85073000D01*
X87710968Y-85094674D01*
X87732642Y-85147000D01*
X87722728Y-85184000D01*
X87690910Y-85239109D01*
X87690906Y-85239118D01*
X87656800Y-85366405D01*
X87656800Y-85498194D01*
X87690906Y-85625481D01*
X87690907Y-85625484D01*
X87690908Y-85625486D01*
X87756800Y-85739614D01*
X87849986Y-85832800D01*
X87964114Y-85898692D01*
X88091405Y-85932799D01*
X88091406Y-85932800D01*
X88091408Y-85932800D01*
X88223194Y-85932800D01*
X88223194Y-85932799D01*
X88350486Y-85898692D01*
X88464614Y-85832800D01*
X88542940Y-85754474D01*
X88595266Y-85732800D01*
X94631677Y-85732800D01*
X94684003Y-85754474D01*
X95402703Y-86473174D01*
X95424377Y-86525500D01*
X95402703Y-86577826D01*
X95350377Y-86599500D01*
X95181309Y-86599500D01*
X95131989Y-86609310D01*
X95007339Y-86634104D01*
X95007337Y-86634105D01*
X95007335Y-86634105D01*
X95007334Y-86634106D01*
X95007332Y-86634107D01*
X94926966Y-86667394D01*
X94870329Y-86667392D01*
X94846323Y-86651352D01*
X94444811Y-86249840D01*
X94401336Y-86224740D01*
X94376290Y-86210279D01*
X94376285Y-86210277D01*
X94299864Y-86189800D01*
X94299862Y-86189800D01*
X90240138Y-86189800D01*
X90240136Y-86189800D01*
X90163714Y-86210277D01*
X90163709Y-86210279D01*
X90138664Y-86224740D01*
X90095188Y-86249840D01*
X89693675Y-86651352D01*
X89641349Y-86673026D01*
X89613032Y-86667394D01*
X89532666Y-86634106D01*
X89532662Y-86634105D01*
X89532660Y-86634104D01*
X89416156Y-86610930D01*
X89358691Y-86599500D01*
X89181309Y-86599500D01*
X89131989Y-86609310D01*
X89007339Y-86634104D01*
X89007337Y-86634105D01*
X89007335Y-86634105D01*
X89007334Y-86634106D01*
X89007332Y-86634107D01*
X88926966Y-86667394D01*
X88870329Y-86667392D01*
X88846323Y-86651352D01*
X88419711Y-86224740D01*
X88351190Y-86185179D01*
X88351185Y-86185177D01*
X88274764Y-86164700D01*
X88274762Y-86164700D01*
X84265238Y-86164700D01*
X84265236Y-86164700D01*
X84188814Y-86185177D01*
X84188809Y-86185179D01*
X84120288Y-86224740D01*
X83693675Y-86651352D01*
X83641349Y-86673026D01*
X83613032Y-86667394D01*
X83532666Y-86634106D01*
X83532662Y-86634105D01*
X83532660Y-86634104D01*
X83416156Y-86610930D01*
X83358691Y-86599500D01*
X83181309Y-86599500D01*
X83131989Y-86609310D01*
X83007339Y-86634104D01*
X83007329Y-86634107D01*
X82843455Y-86701985D01*
X82695968Y-86800533D01*
X82570533Y-86925968D01*
X82471985Y-87073455D01*
X82404107Y-87237329D01*
X82404104Y-87237339D01*
X82375215Y-87382576D01*
X82369500Y-87411309D01*
X82369500Y-87588691D01*
X82370012Y-87591264D01*
X82404104Y-87762660D01*
X82404107Y-87762670D01*
X82471985Y-87926544D01*
X82471986Y-87926546D01*
X82471987Y-87926547D01*
X82570536Y-88074035D01*
X82695965Y-88199464D01*
X82843453Y-88298013D01*
X82843454Y-88298013D01*
X82843455Y-88298014D01*
X82926966Y-88332605D01*
X83007334Y-88365894D01*
X83181309Y-88400500D01*
X83181311Y-88400500D01*
X83358689Y-88400500D01*
X83358691Y-88400500D01*
X83532666Y-88365894D01*
X83613033Y-88332605D01*
X83669667Y-88332605D01*
X83693675Y-88348646D01*
X90831340Y-95486311D01*
X90887289Y-95542260D01*
X90955811Y-95581821D01*
X90955812Y-95581821D01*
X90955814Y-95581822D01*
X90994024Y-95592060D01*
X91032235Y-95602299D01*
X91032236Y-95602300D01*
X91032238Y-95602300D01*
X91111362Y-95602300D01*
X98976677Y-95602300D01*
X99029003Y-95623974D01*
X100344816Y-96939787D01*
X100366490Y-96992113D01*
X100360857Y-97020431D01*
X100307950Y-97148160D01*
X100307947Y-97148170D01*
X100269500Y-97341460D01*
X100269500Y-97538539D01*
X100307947Y-97731829D01*
X100307950Y-97731839D01*
X100383367Y-97913913D01*
X100383368Y-97913914D01*
X100492861Y-98077782D01*
X100632218Y-98217139D01*
X100796086Y-98326632D01*
X100978165Y-98402051D01*
X101171459Y-98440500D01*
X101171461Y-98440500D01*
X101241876Y-98440500D01*
X101294202Y-98462174D01*
X101315876Y-98514500D01*
X101294202Y-98566826D01*
X100203203Y-99657826D01*
X100150877Y-99679500D01*
X90899668Y-99679500D01*
X90847342Y-99657826D01*
X90831301Y-99633818D01*
X90798014Y-99553455D01*
X90699466Y-99405968D01*
X90699464Y-99405965D01*
X90574035Y-99280536D01*
X90426547Y-99181987D01*
X90426546Y-99181986D01*
X90426544Y-99181985D01*
X90262670Y-99114107D01*
X90262660Y-99114104D01*
X90146156Y-99090930D01*
X90088691Y-99079500D01*
X89911309Y-99079500D01*
X89861989Y-99089310D01*
X89737339Y-99114104D01*
X89737329Y-99114107D01*
X89573455Y-99181985D01*
X89425968Y-99280533D01*
X89300533Y-99405968D01*
X89201985Y-99553455D01*
X89134107Y-99717329D01*
X89134104Y-99717339D01*
X89099500Y-99891310D01*
X89099500Y-100068689D01*
X89134104Y-100242660D01*
X89134107Y-100242670D01*
X89201985Y-100406544D01*
X89277050Y-100518887D01*
X89300536Y-100554035D01*
X89425965Y-100679464D01*
X89573453Y-100778013D01*
X89573454Y-100778013D01*
X89573455Y-100778014D01*
X89656966Y-100812605D01*
X89737334Y-100845894D01*
X89911309Y-100880500D01*
X89911311Y-100880500D01*
X90088689Y-100880500D01*
X90088691Y-100880500D01*
X90262666Y-100845894D01*
X90426547Y-100778013D01*
X90574035Y-100679464D01*
X90699464Y-100554035D01*
X90798013Y-100406547D01*
X90831301Y-100326181D01*
X90871349Y-100286133D01*
X90899668Y-100280500D01*
X100345564Y-100280500D01*
X100345564Y-100280499D01*
X100421989Y-100260021D01*
X100490511Y-100220460D01*
X100546460Y-100164511D01*
X102683174Y-98027797D01*
X102735500Y-98006123D01*
X102787826Y-98027797D01*
X102809500Y-98080123D01*
X102809500Y-98259751D01*
X102809643Y-98261203D01*
X102810000Y-98268459D01*
X102810000Y-98440000D01*
X102981536Y-98440000D01*
X102988783Y-98440356D01*
X102990246Y-98440500D01*
X102990252Y-98440500D01*
X104629754Y-98440500D01*
X104631217Y-98440356D01*
X104638464Y-98440000D01*
X104810000Y-98440000D01*
X104810000Y-98268459D01*
X104810357Y-98261203D01*
X104810500Y-98259751D01*
X104810500Y-97942423D01*
X104832174Y-97890097D01*
X104884500Y-97868423D01*
X104936826Y-97890097D01*
X109148921Y-102102192D01*
X109170595Y-102154518D01*
X109164963Y-102182836D01*
X109134105Y-102257335D01*
X109106383Y-102396704D01*
X109099500Y-102431309D01*
X109099500Y-102608691D01*
X109102027Y-102621393D01*
X109134104Y-102782660D01*
X109134107Y-102782670D01*
X109201985Y-102946544D01*
X109201986Y-102946546D01*
X109201987Y-102946547D01*
X109300536Y-103094035D01*
X109425965Y-103219464D01*
X109573453Y-103318013D01*
X109737334Y-103385894D01*
X109911309Y-103420500D01*
X109911311Y-103420500D01*
X110088689Y-103420500D01*
X110088691Y-103420500D01*
X110262666Y-103385894D01*
X110426547Y-103318013D01*
X110574035Y-103219464D01*
X110699464Y-103094035D01*
X110798013Y-102946547D01*
X110831301Y-102866181D01*
X110871349Y-102826133D01*
X110899668Y-102820500D01*
X112600332Y-102820500D01*
X112652658Y-102842174D01*
X112668699Y-102866182D01*
X112701985Y-102946544D01*
X112701986Y-102946546D01*
X112701987Y-102946547D01*
X112800536Y-103094035D01*
X112925965Y-103219464D01*
X113073453Y-103318013D01*
X113237334Y-103385894D01*
X113411309Y-103420500D01*
X113411311Y-103420500D01*
X113588689Y-103420500D01*
X113588691Y-103420500D01*
X113762666Y-103385894D01*
X113926547Y-103318013D01*
X114074035Y-103219464D01*
X114199464Y-103094035D01*
X114298013Y-102946547D01*
X114365894Y-102782666D01*
X114400500Y-102608691D01*
X114400500Y-102431309D01*
X114365894Y-102257334D01*
X114323307Y-102154518D01*
X114298014Y-102093455D01*
X114295109Y-102089108D01*
X114199464Y-101945965D01*
X114074035Y-101820536D01*
X114056731Y-101808974D01*
X113926544Y-101721985D01*
X113762670Y-101654107D01*
X113762660Y-101654104D01*
X113646156Y-101630930D01*
X113588691Y-101619500D01*
X113411309Y-101619500D01*
X113361989Y-101629310D01*
X113237339Y-101654104D01*
X113237329Y-101654107D01*
X113073455Y-101721985D01*
X112925968Y-101820533D01*
X112800533Y-101945968D01*
X112701985Y-102093455D01*
X112668699Y-102173818D01*
X112628651Y-102213867D01*
X112600332Y-102219500D01*
X110899668Y-102219500D01*
X110847342Y-102197826D01*
X110831301Y-102173818D01*
X110798014Y-102093455D01*
X110795109Y-102089108D01*
X110699464Y-101945965D01*
X110574035Y-101820536D01*
X110556731Y-101808974D01*
X110426544Y-101721985D01*
X110262670Y-101654107D01*
X110262660Y-101654104D01*
X110146156Y-101630930D01*
X110088691Y-101619500D01*
X109911309Y-101619500D01*
X109861989Y-101629310D01*
X109737339Y-101654104D01*
X109737337Y-101654105D01*
X109737335Y-101654105D01*
X109737334Y-101654106D01*
X109737332Y-101654107D01*
X109651097Y-101689825D01*
X109594460Y-101689823D01*
X109570454Y-101673783D01*
X105096211Y-97199540D01*
X105027690Y-97159979D01*
X105027685Y-97159977D01*
X104951264Y-97139500D01*
X104951262Y-97139500D01*
X104884500Y-97139500D01*
X104832174Y-97117826D01*
X104810500Y-97065500D01*
X104810500Y-96620246D01*
X104810356Y-96618783D01*
X104810000Y-96611536D01*
X104810000Y-96440000D01*
X104638464Y-96440000D01*
X104631217Y-96439644D01*
X104629754Y-96439500D01*
X104629748Y-96439500D01*
X102990252Y-96439500D01*
X102990246Y-96439500D01*
X102988783Y-96439644D01*
X102981536Y-96440000D01*
X102810000Y-96440000D01*
X102810000Y-96611536D01*
X102809644Y-96618783D01*
X102809500Y-96620246D01*
X102809500Y-97065500D01*
X102787826Y-97117826D01*
X102735500Y-97139500D01*
X102668736Y-97139500D01*
X102592314Y-97159977D01*
X102592309Y-97159979D01*
X102523788Y-97199540D01*
X102467840Y-97255488D01*
X102428279Y-97324009D01*
X102428277Y-97324014D01*
X102415978Y-97369916D01*
X102381499Y-97414849D01*
X102325347Y-97422241D01*
X102280414Y-97387762D01*
X102270500Y-97350763D01*
X102270500Y-97341460D01*
X102232052Y-97148170D01*
X102232051Y-97148169D01*
X102232051Y-97148165D01*
X102156632Y-96966086D01*
X102047139Y-96802218D01*
X101907782Y-96662861D01*
X101844014Y-96620252D01*
X101743913Y-96553367D01*
X101561839Y-96477950D01*
X101561829Y-96477947D01*
X101427023Y-96451133D01*
X101368541Y-96439500D01*
X101171459Y-96439500D01*
X101116662Y-96450399D01*
X100978170Y-96477947D01*
X100978160Y-96477950D01*
X100850431Y-96530857D01*
X100793794Y-96530857D01*
X100769787Y-96514816D01*
X99316311Y-95061340D01*
X99247790Y-95021779D01*
X99247785Y-95021777D01*
X99171364Y-95001300D01*
X99171362Y-95001300D01*
X95000202Y-95001300D01*
X94947876Y-94979626D01*
X94926202Y-94927300D01*
X94933956Y-94898360D01*
X94932534Y-94897771D01*
X94934388Y-94893292D01*
X94934392Y-94893286D01*
X94968499Y-94765994D01*
X94968500Y-94765994D01*
X94968500Y-94634206D01*
X94968499Y-94634205D01*
X94934594Y-94507668D01*
X94941986Y-94451515D01*
X94986919Y-94417037D01*
X94986919Y-94417036D01*
X95106886Y-94384892D01*
X95221014Y-94319000D01*
X95299340Y-94240674D01*
X95351666Y-94219000D01*
X110413664Y-94219000D01*
X110413664Y-94218999D01*
X110490089Y-94198521D01*
X110558611Y-94158960D01*
X110614560Y-94103011D01*
X120418160Y-84299411D01*
X120457721Y-84230889D01*
X120478199Y-84154464D01*
X120478200Y-84154464D01*
X120478200Y-83910330D01*
X120499874Y-83858004D01*
X120552200Y-83836330D01*
X120604526Y-83858004D01*
X120624778Y-83895894D01*
X120627947Y-83911828D01*
X120627950Y-83911839D01*
X120703367Y-84093913D01*
X120812860Y-84257781D01*
X120952218Y-84397139D01*
X121116086Y-84506632D01*
X121282542Y-84575580D01*
X121298165Y-84582051D01*
X121491459Y-84620500D01*
X121491461Y-84620500D01*
X121688539Y-84620500D01*
X121688541Y-84620500D01*
X121881835Y-84582051D01*
X122063914Y-84506632D01*
X122227782Y-84397139D01*
X122367139Y-84257782D01*
X122476632Y-84093914D01*
X122552051Y-83911835D01*
X122590500Y-83718541D01*
X122590500Y-83521460D01*
X123129500Y-83521460D01*
X123129500Y-83718539D01*
X123167947Y-83911829D01*
X123167950Y-83911839D01*
X123243367Y-84093913D01*
X123352860Y-84257781D01*
X123492218Y-84397139D01*
X123656086Y-84506632D01*
X123822542Y-84575580D01*
X123838165Y-84582051D01*
X124031459Y-84620500D01*
X124031461Y-84620500D01*
X124228539Y-84620500D01*
X124228541Y-84620500D01*
X124421835Y-84582051D01*
X124603914Y-84506632D01*
X124767782Y-84397139D01*
X124907139Y-84257782D01*
X125016632Y-84093914D01*
X125092051Y-83911835D01*
X125130500Y-83718541D01*
X125130500Y-83521459D01*
X125092051Y-83328165D01*
X125016632Y-83146086D01*
X124907139Y-82982218D01*
X124767782Y-82842861D01*
X124687584Y-82789274D01*
X124603913Y-82733367D01*
X124421839Y-82657950D01*
X124421829Y-82657947D01*
X124292388Y-82632200D01*
X124228541Y-82619500D01*
X124031459Y-82619500D01*
X123976662Y-82630399D01*
X123838170Y-82657947D01*
X123838160Y-82657950D01*
X123656086Y-82733367D01*
X123492218Y-82842860D01*
X123492217Y-82842862D01*
X123352862Y-82982217D01*
X123352860Y-82982218D01*
X123243367Y-83146086D01*
X123167950Y-83328160D01*
X123167947Y-83328170D01*
X123129500Y-83521460D01*
X122590500Y-83521460D01*
X122590500Y-83521459D01*
X122552051Y-83328165D01*
X122476632Y-83146086D01*
X122367139Y-82982218D01*
X122227782Y-82842861D01*
X122147584Y-82789274D01*
X122063913Y-82733367D01*
X121881839Y-82657950D01*
X121881829Y-82657947D01*
X121752388Y-82632200D01*
X121688541Y-82619500D01*
X121491459Y-82619500D01*
X121436662Y-82630399D01*
X121298170Y-82657947D01*
X121298160Y-82657950D01*
X121116086Y-82733367D01*
X120952218Y-82842860D01*
X120952217Y-82842862D01*
X120812862Y-82982217D01*
X120812860Y-82982218D01*
X120703367Y-83146086D01*
X120627950Y-83328160D01*
X120627947Y-83328170D01*
X120624778Y-83344106D01*
X120593312Y-83391198D01*
X120537763Y-83402247D01*
X120490671Y-83370781D01*
X120478200Y-83329669D01*
X120478200Y-83080839D01*
X120478200Y-83080838D01*
X120473672Y-83063940D01*
X120457722Y-83004412D01*
X120418160Y-82935889D01*
X115950111Y-78467840D01*
X115926125Y-78453992D01*
X115916711Y-78448557D01*
X115881590Y-78428279D01*
X115881585Y-78428277D01*
X115805164Y-78407800D01*
X115805162Y-78407800D01*
X107412138Y-78407800D01*
X107412136Y-78407800D01*
X107335714Y-78428277D01*
X107335709Y-78428279D01*
X107291175Y-78453992D01*
X107267188Y-78467840D01*
X106850211Y-78884816D01*
X106797885Y-78906490D01*
X106769567Y-78900857D01*
X106641839Y-78847950D01*
X106641829Y-78847947D01*
X106499442Y-78819625D01*
X106448541Y-78809500D01*
X106251459Y-78809500D01*
X106200558Y-78819625D01*
X106058170Y-78847947D01*
X106058160Y-78847950D01*
X105876086Y-78923367D01*
X105712218Y-79032860D01*
X105712217Y-79032862D01*
X105572862Y-79172217D01*
X105572860Y-79172218D01*
X105463367Y-79336086D01*
X105387950Y-79518160D01*
X105387947Y-79518170D01*
X105349500Y-79711460D01*
X105349500Y-79908539D01*
X105387947Y-80101829D01*
X105387950Y-80101839D01*
X105463367Y-80283913D01*
X105572860Y-80447781D01*
X105695453Y-80570374D01*
X105717127Y-80622700D01*
X105695453Y-80675026D01*
X105643127Y-80696700D01*
X104516873Y-80696700D01*
X104464547Y-80675026D01*
X104442873Y-80622700D01*
X104464547Y-80570374D01*
X104587138Y-80447783D01*
X104587139Y-80447782D01*
X104696632Y-80283914D01*
X104772051Y-80101835D01*
X104810500Y-79908541D01*
X104810500Y-79711459D01*
X104772051Y-79518165D01*
X104696632Y-79336086D01*
X104587139Y-79172218D01*
X104447782Y-79032861D01*
X104411773Y-79008800D01*
X104283913Y-78923367D01*
X104101839Y-78847950D01*
X104101829Y-78847947D01*
X103959442Y-78819625D01*
X103908541Y-78809500D01*
X103711459Y-78809500D01*
X103660558Y-78819625D01*
X103518170Y-78847947D01*
X103518160Y-78847950D01*
X103336086Y-78923367D01*
X103172218Y-79032860D01*
X103172217Y-79032862D01*
X103032862Y-79172217D01*
X103032860Y-79172218D01*
X102923367Y-79336086D01*
X102847950Y-79518160D01*
X102847947Y-79518170D01*
X102809500Y-79711460D01*
X102809500Y-79908539D01*
X102847947Y-80101829D01*
X102847950Y-80101839D01*
X102923367Y-80283913D01*
X103032860Y-80447781D01*
X103155453Y-80570374D01*
X103177127Y-80622700D01*
X103155453Y-80675026D01*
X103103127Y-80696700D01*
X102612323Y-80696700D01*
X102559997Y-80675026D01*
X102195183Y-80310212D01*
X102173509Y-80257886D01*
X102179142Y-80229567D01*
X102214403Y-80144440D01*
X102232051Y-80101835D01*
X102270500Y-79908541D01*
X102270500Y-79711459D01*
X102232051Y-79518165D01*
X102156632Y-79336086D01*
X102047139Y-79172218D01*
X101907782Y-79032861D01*
X101871773Y-79008800D01*
X101743913Y-78923367D01*
X101561839Y-78847950D01*
X101561829Y-78847947D01*
X101505545Y-78836752D01*
X101497630Y-78835177D01*
X101450539Y-78803712D01*
X101439490Y-78748163D01*
X101470956Y-78701071D01*
X101512068Y-78688600D01*
X102731464Y-78688600D01*
X102731464Y-78688599D01*
X102807889Y-78668121D01*
X102876411Y-78628560D01*
X102932360Y-78572611D01*
X108389787Y-73115182D01*
X108442112Y-73093509D01*
X108470430Y-73099142D01*
X108589498Y-73148461D01*
X108598165Y-73152051D01*
X108791459Y-73190500D01*
X108791461Y-73190500D01*
X108988539Y-73190500D01*
X108988541Y-73190500D01*
X109181835Y-73152051D01*
X109363914Y-73076632D01*
X109527782Y-72967139D01*
X109667139Y-72827782D01*
X109776632Y-72663914D01*
X109852051Y-72481835D01*
X109890500Y-72288541D01*
X109890500Y-72091460D01*
X110429500Y-72091460D01*
X110429500Y-72288539D01*
X110467947Y-72481829D01*
X110467950Y-72481839D01*
X110543367Y-72663913D01*
X110590597Y-72734597D01*
X110652861Y-72827782D01*
X110792218Y-72967139D01*
X110956086Y-73076632D01*
X111083818Y-73129539D01*
X111123867Y-73169587D01*
X111129500Y-73197906D01*
X111129500Y-73739564D01*
X111149977Y-73815985D01*
X111149979Y-73815989D01*
X111157780Y-73829500D01*
X111157781Y-73829502D01*
X111189539Y-73884510D01*
X114151352Y-76846323D01*
X114173026Y-76898649D01*
X114167394Y-76926966D01*
X114147211Y-76975693D01*
X114134107Y-77007333D01*
X114134105Y-77007337D01*
X114134104Y-77007339D01*
X114099500Y-77181310D01*
X114099500Y-77358689D01*
X114134104Y-77532660D01*
X114134107Y-77532670D01*
X114201985Y-77696544D01*
X114201986Y-77696546D01*
X114201987Y-77696547D01*
X114300536Y-77844035D01*
X114425965Y-77969464D01*
X114573453Y-78068013D01*
X114573454Y-78068013D01*
X114573455Y-78068014D01*
X114737329Y-78135892D01*
X114737334Y-78135894D01*
X114911309Y-78170500D01*
X114911311Y-78170500D01*
X115088689Y-78170500D01*
X115088691Y-78170500D01*
X115262666Y-78135894D01*
X115426547Y-78068013D01*
X115574035Y-77969464D01*
X115699464Y-77844035D01*
X115798013Y-77696547D01*
X115865894Y-77532666D01*
X115900500Y-77358691D01*
X115900500Y-77181309D01*
X115865894Y-77007334D01*
X115832605Y-76926966D01*
X115832605Y-76870330D01*
X115848643Y-76846326D01*
X117642797Y-75052174D01*
X117695123Y-75030500D01*
X127100332Y-75030500D01*
X127152658Y-75052174D01*
X127168699Y-75076182D01*
X127201985Y-75156544D01*
X127201986Y-75156546D01*
X127201987Y-75156547D01*
X127300536Y-75304035D01*
X127425965Y-75429464D01*
X127573453Y-75528013D01*
X127573454Y-75528013D01*
X127573455Y-75528014D01*
X127722566Y-75589777D01*
X127737334Y-75595894D01*
X127911309Y-75630500D01*
X127911311Y-75630500D01*
X128088689Y-75630500D01*
X128088691Y-75630500D01*
X128262666Y-75595894D01*
X128426547Y-75528013D01*
X128574035Y-75429464D01*
X128699464Y-75304035D01*
X128798013Y-75156547D01*
X128865894Y-74992666D01*
X128900500Y-74818691D01*
X128900500Y-74641309D01*
X128865894Y-74467334D01*
X128798013Y-74303453D01*
X128699464Y-74155965D01*
X128574035Y-74030536D01*
X128426547Y-73931987D01*
X128426546Y-73931986D01*
X128426544Y-73931985D01*
X128262670Y-73864107D01*
X128262660Y-73864104D01*
X128146156Y-73840930D01*
X128088691Y-73829500D01*
X127911309Y-73829500D01*
X127861989Y-73839310D01*
X127737339Y-73864104D01*
X127737329Y-73864107D01*
X127573455Y-73931985D01*
X127425968Y-74030533D01*
X127300533Y-74155968D01*
X127201985Y-74303455D01*
X127168699Y-74383818D01*
X127128651Y-74423867D01*
X127100332Y-74429500D01*
X117500436Y-74429500D01*
X117424014Y-74449977D01*
X117424009Y-74449979D01*
X117355488Y-74489540D01*
X115423675Y-76421352D01*
X115371349Y-76443026D01*
X115343032Y-76437394D01*
X115262666Y-76404106D01*
X115262662Y-76404105D01*
X115262660Y-76404104D01*
X115146156Y-76380930D01*
X115088691Y-76369500D01*
X114911309Y-76369500D01*
X114861989Y-76379310D01*
X114737339Y-76404104D01*
X114737337Y-76404105D01*
X114737335Y-76404105D01*
X114737334Y-76404106D01*
X114705693Y-76417211D01*
X114656966Y-76437394D01*
X114600329Y-76437392D01*
X114576323Y-76421352D01*
X111752174Y-73597203D01*
X111730500Y-73544877D01*
X111730500Y-73197906D01*
X111752174Y-73145580D01*
X111776180Y-73129539D01*
X111903914Y-73076632D01*
X112067782Y-72967139D01*
X112207139Y-72827782D01*
X112316632Y-72663914D01*
X112392051Y-72481835D01*
X112430500Y-72288541D01*
X112430500Y-72091459D01*
X112392051Y-71898165D01*
X112316632Y-71716086D01*
X112207139Y-71552218D01*
X112067782Y-71412861D01*
X111903914Y-71303368D01*
X111903915Y-71303368D01*
X111903913Y-71303367D01*
X111721839Y-71227950D01*
X111721829Y-71227947D01*
X111592388Y-71202200D01*
X111528541Y-71189500D01*
X111331459Y-71189500D01*
X111276662Y-71200399D01*
X111138170Y-71227947D01*
X111138160Y-71227950D01*
X110956086Y-71303367D01*
X110792218Y-71412860D01*
X110792217Y-71412862D01*
X110652862Y-71552217D01*
X110652860Y-71552218D01*
X110543367Y-71716086D01*
X110467950Y-71898160D01*
X110467947Y-71898170D01*
X110429500Y-72091460D01*
X109890500Y-72091460D01*
X109890500Y-72091459D01*
X109852051Y-71898165D01*
X109776632Y-71716086D01*
X109667139Y-71552218D01*
X109527782Y-71412861D01*
X109363914Y-71303368D01*
X109363915Y-71303368D01*
X109363913Y-71303367D01*
X109181839Y-71227950D01*
X109181829Y-71227947D01*
X109052388Y-71202200D01*
X108988541Y-71189500D01*
X108791459Y-71189500D01*
X108736662Y-71200399D01*
X108598170Y-71227947D01*
X108598160Y-71227950D01*
X108416086Y-71303367D01*
X108252218Y-71412860D01*
X108252217Y-71412862D01*
X108112862Y-71552217D01*
X108112860Y-71552218D01*
X108003367Y-71716086D01*
X107927950Y-71898160D01*
X107927947Y-71898170D01*
X107898778Y-72044816D01*
X107867312Y-72091908D01*
X107811763Y-72102957D01*
X107764671Y-72071491D01*
X107752200Y-72030379D01*
X107752200Y-71694036D01*
X107752199Y-71694035D01*
X107731722Y-71617614D01*
X107731720Y-71617609D01*
X107721120Y-71599249D01*
X107692160Y-71549089D01*
X107636211Y-71493140D01*
X107024697Y-70881626D01*
X107003023Y-70829300D01*
X107024697Y-70776974D01*
X107077023Y-70755300D01*
X117014764Y-70755300D01*
X117014764Y-70755299D01*
X117091189Y-70734821D01*
X117159711Y-70695260D01*
X117215660Y-70639311D01*
X118549787Y-69305182D01*
X118602112Y-69283509D01*
X118630430Y-69289142D01*
X118758160Y-69342049D01*
X118758165Y-69342051D01*
X118951459Y-69380500D01*
X118951461Y-69380500D01*
X119148539Y-69380500D01*
X119148541Y-69380500D01*
X119341835Y-69342051D01*
X119523914Y-69266632D01*
X119687782Y-69157139D01*
X119827139Y-69017782D01*
X119936632Y-68853914D01*
X120012051Y-68671835D01*
X120050500Y-68478541D01*
X120050500Y-68281460D01*
X120589500Y-68281460D01*
X120589500Y-68478539D01*
X120627947Y-68671829D01*
X120627950Y-68671839D01*
X120703367Y-68853913D01*
X120703368Y-68853914D01*
X120812861Y-69017782D01*
X120952218Y-69157139D01*
X121116086Y-69266632D01*
X121298165Y-69342051D01*
X121491459Y-69380500D01*
X121491461Y-69380500D01*
X121688539Y-69380500D01*
X121688541Y-69380500D01*
X121881835Y-69342051D01*
X122063914Y-69266632D01*
X122227782Y-69157139D01*
X122367139Y-69017782D01*
X122476632Y-68853914D01*
X122552051Y-68671835D01*
X122590500Y-68478541D01*
X122590500Y-68281459D01*
X122552051Y-68088165D01*
X122476632Y-67906086D01*
X122367139Y-67742218D01*
X122227782Y-67602861D01*
X122063914Y-67493368D01*
X122063915Y-67493368D01*
X122063913Y-67493367D01*
X121881839Y-67417950D01*
X121881829Y-67417947D01*
X121752388Y-67392200D01*
X121688541Y-67379500D01*
X121491459Y-67379500D01*
X121436662Y-67390399D01*
X121298170Y-67417947D01*
X121298160Y-67417950D01*
X121116086Y-67493367D01*
X120952218Y-67602860D01*
X120952217Y-67602862D01*
X120812862Y-67742217D01*
X120812860Y-67742218D01*
X120703367Y-67906086D01*
X120627950Y-68088160D01*
X120627947Y-68088170D01*
X120589500Y-68281460D01*
X120050500Y-68281460D01*
X120050500Y-68281459D01*
X120012051Y-68088165D01*
X119936632Y-67906086D01*
X119827139Y-67742218D01*
X119687782Y-67602861D01*
X119523914Y-67493368D01*
X119523915Y-67493368D01*
X119523913Y-67493367D01*
X119341839Y-67417950D01*
X119341829Y-67417947D01*
X119212388Y-67392200D01*
X119148541Y-67379500D01*
X118951459Y-67379500D01*
X118896662Y-67390399D01*
X118758170Y-67417947D01*
X118758160Y-67417950D01*
X118576086Y-67493367D01*
X118412218Y-67602860D01*
X118412217Y-67602862D01*
X118272862Y-67742217D01*
X118272860Y-67742218D01*
X118163367Y-67906086D01*
X118087950Y-68088160D01*
X118087947Y-68088170D01*
X118049500Y-68281460D01*
X118049500Y-68478539D01*
X118087947Y-68671829D01*
X118087950Y-68671839D01*
X118140857Y-68799567D01*
X118140857Y-68856204D01*
X118124816Y-68880211D01*
X116872403Y-70132626D01*
X116820077Y-70154300D01*
X103039666Y-70154300D01*
X102987340Y-70132626D01*
X102965666Y-70080300D01*
X102987340Y-70027974D01*
X103055940Y-69959374D01*
X103108266Y-69937700D01*
X115292364Y-69937700D01*
X115292364Y-69937699D01*
X115368789Y-69917221D01*
X115437311Y-69877660D01*
X115493260Y-69821711D01*
X116009787Y-69305182D01*
X116062113Y-69283509D01*
X116090431Y-69289141D01*
X116218165Y-69342051D01*
X116411459Y-69380500D01*
X116411461Y-69380500D01*
X116608539Y-69380500D01*
X116608541Y-69380500D01*
X116801835Y-69342051D01*
X116983914Y-69266632D01*
X117147782Y-69157139D01*
X117287139Y-69017782D01*
X117396632Y-68853914D01*
X117472051Y-68671835D01*
X117510500Y-68478541D01*
X117510500Y-68281459D01*
X117472051Y-68088165D01*
X117396632Y-67906086D01*
X117287139Y-67742218D01*
X117147782Y-67602861D01*
X116983914Y-67493368D01*
X116983915Y-67493368D01*
X116983913Y-67493367D01*
X116801839Y-67417950D01*
X116801829Y-67417947D01*
X116672388Y-67392200D01*
X116608541Y-67379500D01*
X116411459Y-67379500D01*
X116356662Y-67390399D01*
X116218170Y-67417947D01*
X116218160Y-67417950D01*
X116036086Y-67493367D01*
X115872218Y-67602860D01*
X115872217Y-67602862D01*
X115732862Y-67742217D01*
X115732860Y-67742218D01*
X115623367Y-67906086D01*
X115547950Y-68088160D01*
X115547947Y-68088170D01*
X115509500Y-68281460D01*
X115509500Y-68478539D01*
X115547947Y-68671829D01*
X115547950Y-68671839D01*
X115600857Y-68799567D01*
X115600857Y-68856204D01*
X115584816Y-68880211D01*
X115150003Y-69315026D01*
X115097677Y-69336700D01*
X114582995Y-69336700D01*
X114530669Y-69315026D01*
X114508995Y-69262700D01*
X114530669Y-69210374D01*
X114541883Y-69201171D01*
X114607782Y-69157139D01*
X114747139Y-69017782D01*
X114856632Y-68853914D01*
X114932051Y-68671835D01*
X114970500Y-68478541D01*
X114970500Y-68281459D01*
X114932051Y-68088165D01*
X114856632Y-67906086D01*
X114747139Y-67742218D01*
X114607782Y-67602861D01*
X114443914Y-67493368D01*
X114443915Y-67493368D01*
X114443913Y-67493367D01*
X114261839Y-67417950D01*
X114261829Y-67417947D01*
X114132388Y-67392200D01*
X114068541Y-67379500D01*
X113871459Y-67379500D01*
X113816662Y-67390399D01*
X113678170Y-67417947D01*
X113678160Y-67417950D01*
X113496086Y-67493367D01*
X113332218Y-67602860D01*
X113332217Y-67602862D01*
X113192862Y-67742217D01*
X113192860Y-67742218D01*
X113083367Y-67906086D01*
X113007950Y-68088160D01*
X113007947Y-68088170D01*
X112969500Y-68281460D01*
X112969500Y-68478539D01*
X113007947Y-68671829D01*
X113007950Y-68671839D01*
X113083367Y-68853913D01*
X113192860Y-69017781D01*
X113332218Y-69157139D01*
X113398117Y-69201171D01*
X113429583Y-69248263D01*
X113418534Y-69303812D01*
X113371442Y-69335278D01*
X113357005Y-69336700D01*
X112042995Y-69336700D01*
X111990669Y-69315026D01*
X111968995Y-69262700D01*
X111990669Y-69210374D01*
X112001883Y-69201171D01*
X112067782Y-69157139D01*
X112207139Y-69017782D01*
X112316632Y-68853914D01*
X112392051Y-68671835D01*
X112430500Y-68478541D01*
X112430500Y-68281459D01*
X112392051Y-68088165D01*
X112316632Y-67906086D01*
X112207139Y-67742218D01*
X112067782Y-67602861D01*
X111903914Y-67493368D01*
X111903915Y-67493368D01*
X111903913Y-67493367D01*
X111721839Y-67417950D01*
X111721829Y-67417947D01*
X111592388Y-67392200D01*
X111528541Y-67379500D01*
X111331459Y-67379500D01*
X111276662Y-67390399D01*
X111138170Y-67417947D01*
X111138160Y-67417950D01*
X110956086Y-67493367D01*
X110792218Y-67602860D01*
X110792217Y-67602862D01*
X110652862Y-67742217D01*
X110652860Y-67742218D01*
X110543367Y-67906086D01*
X110467950Y-68088160D01*
X110467947Y-68088170D01*
X110429500Y-68281460D01*
X110429500Y-68478539D01*
X110467947Y-68671829D01*
X110467950Y-68671839D01*
X110543367Y-68853913D01*
X110652860Y-69017781D01*
X110792218Y-69157139D01*
X110858117Y-69201171D01*
X110889583Y-69248263D01*
X110878534Y-69303812D01*
X110831442Y-69335278D01*
X110817005Y-69336700D01*
X109502995Y-69336700D01*
X109450669Y-69315026D01*
X109428995Y-69262700D01*
X109450669Y-69210374D01*
X109461883Y-69201171D01*
X109527782Y-69157139D01*
X109667139Y-69017782D01*
X109776632Y-68853914D01*
X109852051Y-68671835D01*
X109890500Y-68478541D01*
X109890500Y-68281459D01*
X109852051Y-68088165D01*
X109776632Y-67906086D01*
X109667139Y-67742218D01*
X109527782Y-67602861D01*
X109363914Y-67493368D01*
X109363915Y-67493368D01*
X109363913Y-67493367D01*
X109181839Y-67417950D01*
X109181829Y-67417947D01*
X109052388Y-67392200D01*
X108988541Y-67379500D01*
X108791459Y-67379500D01*
X108736662Y-67390399D01*
X108598170Y-67417947D01*
X108598160Y-67417950D01*
X108416086Y-67493367D01*
X108252218Y-67602860D01*
X108252217Y-67602862D01*
X108112862Y-67742217D01*
X108112860Y-67742218D01*
X108003367Y-67906086D01*
X107927950Y-68088160D01*
X107927947Y-68088170D01*
X107889500Y-68281460D01*
X107889500Y-68478539D01*
X107927947Y-68671829D01*
X107927950Y-68671839D01*
X108003367Y-68853913D01*
X108112860Y-69017781D01*
X108252218Y-69157139D01*
X108318117Y-69201171D01*
X108349583Y-69248263D01*
X108338534Y-69303812D01*
X108291442Y-69335278D01*
X108277005Y-69336700D01*
X106962995Y-69336700D01*
X106910669Y-69315026D01*
X106888995Y-69262700D01*
X106910669Y-69210374D01*
X106921883Y-69201171D01*
X106987782Y-69157139D01*
X107127139Y-69017782D01*
X107236632Y-68853914D01*
X107312051Y-68671835D01*
X107350500Y-68478541D01*
X107350500Y-68281459D01*
X107312051Y-68088165D01*
X107236632Y-67906086D01*
X107127139Y-67742218D01*
X106987782Y-67602861D01*
X106823914Y-67493368D01*
X106823915Y-67493368D01*
X106823913Y-67493367D01*
X106641839Y-67417950D01*
X106641829Y-67417947D01*
X106512388Y-67392200D01*
X106448541Y-67379500D01*
X106251459Y-67379500D01*
X106196662Y-67390399D01*
X106058170Y-67417947D01*
X106058160Y-67417950D01*
X105876086Y-67493367D01*
X105712218Y-67602860D01*
X105712217Y-67602862D01*
X105572862Y-67742217D01*
X105572860Y-67742218D01*
X105463367Y-67906086D01*
X105387950Y-68088160D01*
X105387947Y-68088170D01*
X105349500Y-68281460D01*
X105349500Y-68478539D01*
X105387947Y-68671829D01*
X105387950Y-68671839D01*
X105463367Y-68853913D01*
X105572860Y-69017781D01*
X105712218Y-69157139D01*
X105778117Y-69201171D01*
X105809583Y-69248263D01*
X105798534Y-69303812D01*
X105751442Y-69335278D01*
X105737005Y-69336700D01*
X104422995Y-69336700D01*
X104370669Y-69315026D01*
X104348995Y-69262700D01*
X104370669Y-69210374D01*
X104381883Y-69201171D01*
X104447782Y-69157139D01*
X104587139Y-69017782D01*
X104696632Y-68853914D01*
X104772051Y-68671835D01*
X104810500Y-68478541D01*
X104810500Y-68281459D01*
X104772051Y-68088165D01*
X104696632Y-67906086D01*
X104587139Y-67742218D01*
X104447782Y-67602861D01*
X104283914Y-67493368D01*
X104283915Y-67493368D01*
X104283913Y-67493367D01*
X104101839Y-67417950D01*
X104101829Y-67417947D01*
X103972388Y-67392200D01*
X103908541Y-67379500D01*
X103711459Y-67379500D01*
X103656662Y-67390399D01*
X103518170Y-67417947D01*
X103518160Y-67417950D01*
X103336086Y-67493367D01*
X103172218Y-67602860D01*
X103172217Y-67602862D01*
X103032862Y-67742217D01*
X103032860Y-67742218D01*
X102923367Y-67906086D01*
X102847950Y-68088160D01*
X102847947Y-68088170D01*
X102809500Y-68281460D01*
X102809500Y-68478539D01*
X102847947Y-68671829D01*
X102847950Y-68671839D01*
X102923367Y-68853913D01*
X103032860Y-69017781D01*
X103172218Y-69157139D01*
X103238117Y-69201171D01*
X103242328Y-69207473D01*
X103249331Y-69210374D01*
X103257591Y-69230316D01*
X103269583Y-69248263D01*
X103268104Y-69255697D01*
X103271005Y-69262700D01*
X103262744Y-69282641D01*
X103258534Y-69303812D01*
X103252231Y-69308023D01*
X103249331Y-69315026D01*
X103229388Y-69323286D01*
X103211442Y-69335278D01*
X103197005Y-69336700D01*
X103108266Y-69336700D01*
X103055940Y-69315026D01*
X102977614Y-69236700D01*
X102863490Y-69170810D01*
X102863481Y-69170806D01*
X102736194Y-69136700D01*
X102736192Y-69136700D01*
X102604408Y-69136700D01*
X102604406Y-69136700D01*
X102477118Y-69170806D01*
X102477109Y-69170810D01*
X102362985Y-69236700D01*
X102269800Y-69329885D01*
X102203910Y-69444009D01*
X102203906Y-69444018D01*
X102169800Y-69571305D01*
X102169800Y-69703094D01*
X102203906Y-69830381D01*
X102203910Y-69830390D01*
X102269800Y-69944514D01*
X102353260Y-70027974D01*
X102374934Y-70080300D01*
X102353260Y-70132626D01*
X102300934Y-70154300D01*
X91185936Y-70154300D01*
X91109514Y-70174777D01*
X91109509Y-70174779D01*
X91040988Y-70214340D01*
X89599540Y-71655788D01*
X89574122Y-71699814D01*
X89529188Y-71734293D01*
X89473036Y-71726900D01*
X89448507Y-71703926D01*
X89347139Y-71552218D01*
X89207781Y-71412860D01*
X89043913Y-71303367D01*
X88861839Y-71227950D01*
X88861829Y-71227947D01*
X88732388Y-71202200D01*
X88668541Y-71189500D01*
X88471459Y-71189500D01*
X88416662Y-71200399D01*
X88278170Y-71227947D01*
X88278160Y-71227950D01*
X88096086Y-71303367D01*
X87932218Y-71412860D01*
X87932217Y-71412862D01*
X87792862Y-71552217D01*
X87792860Y-71552218D01*
X87683367Y-71716086D01*
X87607950Y-71898160D01*
X87607947Y-71898170D01*
X87569500Y-72091460D01*
X87569500Y-72288539D01*
X87607947Y-72481829D01*
X87607950Y-72481839D01*
X87683367Y-72663913D01*
X87792860Y-72827781D01*
X87932218Y-72967139D01*
X88096086Y-73076632D01*
X88262542Y-73145580D01*
X88278165Y-73152051D01*
X88471459Y-73190500D01*
X88471461Y-73190500D01*
X88622976Y-73190500D01*
X88675302Y-73212174D01*
X88696976Y-73264500D01*
X88675302Y-73316826D01*
X79626689Y-82365440D01*
X79570740Y-82421388D01*
X79531179Y-82489909D01*
X79531177Y-82489914D01*
X79510700Y-82566335D01*
X79510700Y-83290870D01*
X79489026Y-83343196D01*
X79436700Y-83364870D01*
X79384374Y-83343196D01*
X79368333Y-83319188D01*
X79296632Y-83146086D01*
X79187139Y-82982218D01*
X79047781Y-82842860D01*
X78883913Y-82733367D01*
X78701839Y-82657950D01*
X78701829Y-82657947D01*
X78572388Y-82632200D01*
X78508541Y-82619500D01*
X78311459Y-82619500D01*
X78256662Y-82630399D01*
X78118170Y-82657947D01*
X78118160Y-82657950D01*
X77936086Y-82733367D01*
X77772218Y-82842860D01*
X77772217Y-82842862D01*
X77632862Y-82982217D01*
X77632860Y-82982218D01*
X77523367Y-83146086D01*
X77447950Y-83328160D01*
X77447947Y-83328170D01*
X77409500Y-83521460D01*
X77409500Y-83718539D01*
X77447947Y-83911829D01*
X77447950Y-83911839D01*
X77523367Y-84093913D01*
X77614892Y-84230889D01*
X77632861Y-84257782D01*
X77772218Y-84397139D01*
X77936086Y-84506632D01*
X78063818Y-84559539D01*
X78103867Y-84599587D01*
X78109500Y-84627906D01*
X78109500Y-87591264D01*
X78129977Y-87667685D01*
X78129979Y-87667690D01*
X78165198Y-87728690D01*
X78165200Y-87728693D01*
X78169540Y-87736211D01*
X79407626Y-88974297D01*
X79429300Y-89026623D01*
X79429300Y-90226000D01*
X79407626Y-90278326D01*
X79355300Y-90300000D01*
X70274000Y-90300000D01*
X70221674Y-90278326D01*
X70200000Y-90226000D01*
X70200000Y-83521460D01*
X74869500Y-83521460D01*
X74869500Y-83718539D01*
X74907947Y-83911829D01*
X74907950Y-83911839D01*
X74983367Y-84093913D01*
X75092860Y-84257781D01*
X75232218Y-84397139D01*
X75396086Y-84506632D01*
X75562542Y-84575580D01*
X75578165Y-84582051D01*
X75771459Y-84620500D01*
X75771461Y-84620500D01*
X75968539Y-84620500D01*
X75968541Y-84620500D01*
X76161835Y-84582051D01*
X76343914Y-84506632D01*
X76507782Y-84397139D01*
X76647139Y-84257782D01*
X76756632Y-84093914D01*
X76832051Y-83911835D01*
X76870500Y-83718541D01*
X76870500Y-83521459D01*
X76832051Y-83328165D01*
X76756632Y-83146086D01*
X76647139Y-82982218D01*
X76507782Y-82842861D01*
X76427584Y-82789274D01*
X76343913Y-82733367D01*
X76161839Y-82657950D01*
X76161829Y-82657947D01*
X76032388Y-82632200D01*
X75968541Y-82619500D01*
X75771459Y-82619500D01*
X75716662Y-82630399D01*
X75578170Y-82657947D01*
X75578160Y-82657950D01*
X75396086Y-82733367D01*
X75232218Y-82842860D01*
X75232217Y-82842862D01*
X75092862Y-82982217D01*
X75092860Y-82982218D01*
X74983367Y-83146086D01*
X74907950Y-83328160D01*
X74907947Y-83328170D01*
X74869500Y-83521460D01*
X70200000Y-83521460D01*
X70200000Y-68281460D01*
X74869500Y-68281460D01*
X74869500Y-68478539D01*
X74907947Y-68671829D01*
X74907950Y-68671839D01*
X74983367Y-68853913D01*
X74983368Y-68853914D01*
X75092861Y-69017782D01*
X75232218Y-69157139D01*
X75396086Y-69266632D01*
X75578165Y-69342051D01*
X75771459Y-69380500D01*
X75771461Y-69380500D01*
X75968539Y-69380500D01*
X75968541Y-69380500D01*
X76161835Y-69342051D01*
X76343914Y-69266632D01*
X76507782Y-69157139D01*
X76647139Y-69017782D01*
X76756632Y-68853914D01*
X76832051Y-68671835D01*
X76870500Y-68478541D01*
X76870500Y-68281460D01*
X77409500Y-68281460D01*
X77409500Y-68478539D01*
X77447947Y-68671829D01*
X77447950Y-68671839D01*
X77523367Y-68853913D01*
X77523368Y-68853914D01*
X77632861Y-69017782D01*
X77772218Y-69157139D01*
X77936086Y-69266632D01*
X78118165Y-69342051D01*
X78311459Y-69380500D01*
X78311461Y-69380500D01*
X78508539Y-69380500D01*
X78508541Y-69380500D01*
X78701835Y-69342051D01*
X78883914Y-69266632D01*
X79047782Y-69157139D01*
X79187139Y-69017782D01*
X79296632Y-68853914D01*
X79372051Y-68671835D01*
X79410500Y-68478541D01*
X79410500Y-68281460D01*
X79949500Y-68281460D01*
X79949500Y-68478539D01*
X79987947Y-68671829D01*
X79987950Y-68671839D01*
X80063367Y-68853913D01*
X80063368Y-68853914D01*
X80172861Y-69017782D01*
X80312218Y-69157139D01*
X80476086Y-69266632D01*
X80658165Y-69342051D01*
X80851459Y-69380500D01*
X80851461Y-69380500D01*
X81048539Y-69380500D01*
X81048541Y-69380500D01*
X81241835Y-69342051D01*
X81423914Y-69266632D01*
X81587782Y-69157139D01*
X81727139Y-69017782D01*
X81836632Y-68853914D01*
X81912051Y-68671835D01*
X81950500Y-68478541D01*
X81950500Y-68281460D01*
X82489500Y-68281460D01*
X82489500Y-68478539D01*
X82527947Y-68671829D01*
X82527950Y-68671839D01*
X82603367Y-68853913D01*
X82603368Y-68853914D01*
X82712861Y-69017782D01*
X82852218Y-69157139D01*
X83016086Y-69266632D01*
X83198165Y-69342051D01*
X83391459Y-69380500D01*
X83391461Y-69380500D01*
X83588539Y-69380500D01*
X83588541Y-69380500D01*
X83781835Y-69342051D01*
X83963914Y-69266632D01*
X84127782Y-69157139D01*
X84267139Y-69017782D01*
X84376632Y-68853914D01*
X84452051Y-68671835D01*
X84490500Y-68478541D01*
X84490500Y-68281460D01*
X85029500Y-68281460D01*
X85029500Y-68478539D01*
X85067947Y-68671829D01*
X85067950Y-68671839D01*
X85143367Y-68853913D01*
X85143368Y-68853914D01*
X85252861Y-69017782D01*
X85392218Y-69157139D01*
X85556086Y-69266632D01*
X85738165Y-69342051D01*
X85931459Y-69380500D01*
X85931461Y-69380500D01*
X86128539Y-69380500D01*
X86128541Y-69380500D01*
X86321835Y-69342051D01*
X86503914Y-69266632D01*
X86667782Y-69157139D01*
X86807139Y-69017782D01*
X86916632Y-68853914D01*
X86992051Y-68671835D01*
X87030500Y-68478541D01*
X87030500Y-68281460D01*
X87569500Y-68281460D01*
X87569500Y-68478539D01*
X87607947Y-68671829D01*
X87607950Y-68671839D01*
X87683367Y-68853913D01*
X87683368Y-68853914D01*
X87792861Y-69017782D01*
X87932218Y-69157139D01*
X88096086Y-69266632D01*
X88278165Y-69342051D01*
X88471459Y-69380500D01*
X88471461Y-69380500D01*
X88668539Y-69380500D01*
X88668541Y-69380500D01*
X88861835Y-69342051D01*
X89043914Y-69266632D01*
X89207782Y-69157139D01*
X89347139Y-69017782D01*
X89456632Y-68853914D01*
X89532051Y-68671835D01*
X89570500Y-68478541D01*
X89570500Y-68281460D01*
X90109500Y-68281460D01*
X90109500Y-68478539D01*
X90147947Y-68671829D01*
X90147950Y-68671839D01*
X90223367Y-68853913D01*
X90223368Y-68853914D01*
X90332861Y-69017782D01*
X90472218Y-69157139D01*
X90636086Y-69266632D01*
X90818165Y-69342051D01*
X91011459Y-69380500D01*
X91011461Y-69380500D01*
X91208539Y-69380500D01*
X91208541Y-69380500D01*
X91401835Y-69342051D01*
X91583914Y-69266632D01*
X91747782Y-69157139D01*
X91887139Y-69017782D01*
X91996632Y-68853914D01*
X92072051Y-68671835D01*
X92110500Y-68478541D01*
X92110500Y-68281460D01*
X92649500Y-68281460D01*
X92649500Y-68478539D01*
X92687947Y-68671829D01*
X92687950Y-68671839D01*
X92763367Y-68853913D01*
X92763368Y-68853914D01*
X92872861Y-69017782D01*
X93012218Y-69157139D01*
X93176086Y-69266632D01*
X93358165Y-69342051D01*
X93551459Y-69380500D01*
X93551461Y-69380500D01*
X93748539Y-69380500D01*
X93748541Y-69380500D01*
X93941835Y-69342051D01*
X94123914Y-69266632D01*
X94287782Y-69157139D01*
X94427139Y-69017782D01*
X94536632Y-68853914D01*
X94612051Y-68671835D01*
X94650500Y-68478541D01*
X94650500Y-68281460D01*
X95189500Y-68281460D01*
X95189500Y-68478539D01*
X95227947Y-68671829D01*
X95227950Y-68671839D01*
X95303367Y-68853913D01*
X95303368Y-68853914D01*
X95412861Y-69017782D01*
X95552218Y-69157139D01*
X95716086Y-69266632D01*
X95898165Y-69342051D01*
X96091459Y-69380500D01*
X96091461Y-69380500D01*
X96288539Y-69380500D01*
X96288541Y-69380500D01*
X96481835Y-69342051D01*
X96663914Y-69266632D01*
X96827782Y-69157139D01*
X96967139Y-69017782D01*
X97076632Y-68853914D01*
X97152051Y-68671835D01*
X97190500Y-68478541D01*
X97190500Y-68281460D01*
X97729500Y-68281460D01*
X97729500Y-68478539D01*
X97767947Y-68671829D01*
X97767950Y-68671839D01*
X97843367Y-68853913D01*
X97843368Y-68853914D01*
X97952861Y-69017782D01*
X98092218Y-69157139D01*
X98256086Y-69266632D01*
X98438165Y-69342051D01*
X98631459Y-69380500D01*
X98631461Y-69380500D01*
X98828539Y-69380500D01*
X98828541Y-69380500D01*
X99021835Y-69342051D01*
X99203914Y-69266632D01*
X99367782Y-69157139D01*
X99507139Y-69017782D01*
X99616632Y-68853914D01*
X99692051Y-68671835D01*
X99730500Y-68478541D01*
X99730500Y-68281460D01*
X100269500Y-68281460D01*
X100269500Y-68478539D01*
X100307947Y-68671829D01*
X100307950Y-68671839D01*
X100383367Y-68853913D01*
X100383368Y-68853914D01*
X100492861Y-69017782D01*
X100632218Y-69157139D01*
X100796086Y-69266632D01*
X100978165Y-69342051D01*
X101171459Y-69380500D01*
X101171461Y-69380500D01*
X101368539Y-69380500D01*
X101368541Y-69380500D01*
X101561835Y-69342051D01*
X101743914Y-69266632D01*
X101907782Y-69157139D01*
X102047139Y-69017782D01*
X102156632Y-68853914D01*
X102232051Y-68671835D01*
X102270500Y-68478541D01*
X102270500Y-68281459D01*
X102232051Y-68088165D01*
X102156632Y-67906086D01*
X102047139Y-67742218D01*
X101907782Y-67602861D01*
X101743914Y-67493368D01*
X101743915Y-67493368D01*
X101743913Y-67493367D01*
X101561839Y-67417950D01*
X101561829Y-67417947D01*
X101432388Y-67392200D01*
X101368541Y-67379500D01*
X101171459Y-67379500D01*
X101116662Y-67390399D01*
X100978170Y-67417947D01*
X100978160Y-67417950D01*
X100796086Y-67493367D01*
X100632218Y-67602860D01*
X100632217Y-67602862D01*
X100492862Y-67742217D01*
X100492860Y-67742218D01*
X100383367Y-67906086D01*
X100307950Y-68088160D01*
X100307947Y-68088170D01*
X100269500Y-68281460D01*
X99730500Y-68281460D01*
X99730500Y-68281459D01*
X99692051Y-68088165D01*
X99616632Y-67906086D01*
X99507139Y-67742218D01*
X99367782Y-67602861D01*
X99203914Y-67493368D01*
X99203915Y-67493368D01*
X99203913Y-67493367D01*
X99021839Y-67417950D01*
X99021829Y-67417947D01*
X98892388Y-67392200D01*
X98828541Y-67379500D01*
X98631459Y-67379500D01*
X98576662Y-67390399D01*
X98438170Y-67417947D01*
X98438160Y-67417950D01*
X98256086Y-67493367D01*
X98092218Y-67602860D01*
X98092217Y-67602862D01*
X97952862Y-67742217D01*
X97952860Y-67742218D01*
X97843367Y-67906086D01*
X97767950Y-68088160D01*
X97767947Y-68088170D01*
X97729500Y-68281460D01*
X97190500Y-68281460D01*
X97190500Y-68281459D01*
X97152051Y-68088165D01*
X97076632Y-67906086D01*
X96967139Y-67742218D01*
X96827782Y-67602861D01*
X96663914Y-67493368D01*
X96663915Y-67493368D01*
X96663913Y-67493367D01*
X96481839Y-67417950D01*
X96481829Y-67417947D01*
X96352388Y-67392200D01*
X96288541Y-67379500D01*
X96091459Y-67379500D01*
X96036662Y-67390399D01*
X95898170Y-67417947D01*
X95898160Y-67417950D01*
X95716086Y-67493367D01*
X95552218Y-67602860D01*
X95552217Y-67602862D01*
X95412862Y-67742217D01*
X95412860Y-67742218D01*
X95303367Y-67906086D01*
X95227950Y-68088160D01*
X95227947Y-68088170D01*
X95189500Y-68281460D01*
X94650500Y-68281460D01*
X94650500Y-68281459D01*
X94612051Y-68088165D01*
X94536632Y-67906086D01*
X94427139Y-67742218D01*
X94287782Y-67602861D01*
X94123914Y-67493368D01*
X94123915Y-67493368D01*
X94123913Y-67493367D01*
X93941839Y-67417950D01*
X93941829Y-67417947D01*
X93812388Y-67392200D01*
X93748541Y-67379500D01*
X93551459Y-67379500D01*
X93496662Y-67390399D01*
X93358170Y-67417947D01*
X93358160Y-67417950D01*
X93176086Y-67493367D01*
X93012218Y-67602860D01*
X93012217Y-67602862D01*
X92872862Y-67742217D01*
X92872860Y-67742218D01*
X92763367Y-67906086D01*
X92687950Y-68088160D01*
X92687947Y-68088170D01*
X92649500Y-68281460D01*
X92110500Y-68281460D01*
X92110500Y-68281459D01*
X92072051Y-68088165D01*
X91996632Y-67906086D01*
X91887139Y-67742218D01*
X91747782Y-67602861D01*
X91583914Y-67493368D01*
X91583915Y-67493368D01*
X91583913Y-67493367D01*
X91401839Y-67417950D01*
X91401829Y-67417947D01*
X91272388Y-67392200D01*
X91208541Y-67379500D01*
X91011459Y-67379500D01*
X90956662Y-67390399D01*
X90818170Y-67417947D01*
X90818160Y-67417950D01*
X90636086Y-67493367D01*
X90472218Y-67602860D01*
X90472217Y-67602862D01*
X90332862Y-67742217D01*
X90332860Y-67742218D01*
X90223367Y-67906086D01*
X90147950Y-68088160D01*
X90147947Y-68088170D01*
X90109500Y-68281460D01*
X89570500Y-68281460D01*
X89570500Y-68281459D01*
X89532051Y-68088165D01*
X89456632Y-67906086D01*
X89347139Y-67742218D01*
X89207782Y-67602861D01*
X89043914Y-67493368D01*
X89043915Y-67493368D01*
X89043913Y-67493367D01*
X88861839Y-67417950D01*
X88861829Y-67417947D01*
X88732388Y-67392200D01*
X88668541Y-67379500D01*
X88471459Y-67379500D01*
X88416662Y-67390399D01*
X88278170Y-67417947D01*
X88278160Y-67417950D01*
X88096086Y-67493367D01*
X87932218Y-67602860D01*
X87932217Y-67602862D01*
X87792862Y-67742217D01*
X87792860Y-67742218D01*
X87683367Y-67906086D01*
X87607950Y-68088160D01*
X87607947Y-68088170D01*
X87569500Y-68281460D01*
X87030500Y-68281460D01*
X87030500Y-68281459D01*
X86992051Y-68088165D01*
X86916632Y-67906086D01*
X86807139Y-67742218D01*
X86667782Y-67602861D01*
X86503914Y-67493368D01*
X86503915Y-67493368D01*
X86503913Y-67493367D01*
X86321839Y-67417950D01*
X86321829Y-67417947D01*
X86192388Y-67392200D01*
X86128541Y-67379500D01*
X85931459Y-67379500D01*
X85876662Y-67390399D01*
X85738170Y-67417947D01*
X85738160Y-67417950D01*
X85556086Y-67493367D01*
X85392218Y-67602860D01*
X85392217Y-67602862D01*
X85252862Y-67742217D01*
X85252860Y-67742218D01*
X85143367Y-67906086D01*
X85067950Y-68088160D01*
X85067947Y-68088170D01*
X85029500Y-68281460D01*
X84490500Y-68281460D01*
X84490500Y-68281459D01*
X84452051Y-68088165D01*
X84376632Y-67906086D01*
X84267139Y-67742218D01*
X84127782Y-67602861D01*
X83963914Y-67493368D01*
X83963915Y-67493368D01*
X83963913Y-67493367D01*
X83781839Y-67417950D01*
X83781829Y-67417947D01*
X83652388Y-67392200D01*
X83588541Y-67379500D01*
X83391459Y-67379500D01*
X83336662Y-67390399D01*
X83198170Y-67417947D01*
X83198160Y-67417950D01*
X83016086Y-67493367D01*
X82852218Y-67602860D01*
X82852217Y-67602862D01*
X82712862Y-67742217D01*
X82712860Y-67742218D01*
X82603367Y-67906086D01*
X82527950Y-68088160D01*
X82527947Y-68088170D01*
X82489500Y-68281460D01*
X81950500Y-68281460D01*
X81950500Y-68281459D01*
X81912051Y-68088165D01*
X81836632Y-67906086D01*
X81727139Y-67742218D01*
X81587782Y-67602861D01*
X81423914Y-67493368D01*
X81423915Y-67493368D01*
X81423913Y-67493367D01*
X81241839Y-67417950D01*
X81241829Y-67417947D01*
X81112388Y-67392200D01*
X81048541Y-67379500D01*
X80851459Y-67379500D01*
X80796662Y-67390399D01*
X80658170Y-67417947D01*
X80658160Y-67417950D01*
X80476086Y-67493367D01*
X80312218Y-67602860D01*
X80312217Y-67602862D01*
X80172862Y-67742217D01*
X80172860Y-67742218D01*
X80063367Y-67906086D01*
X79987950Y-68088160D01*
X79987947Y-68088170D01*
X79949500Y-68281460D01*
X79410500Y-68281460D01*
X79410500Y-68281459D01*
X79372051Y-68088165D01*
X79296632Y-67906086D01*
X79187139Y-67742218D01*
X79047782Y-67602861D01*
X78883914Y-67493368D01*
X78883915Y-67493368D01*
X78883913Y-67493367D01*
X78701839Y-67417950D01*
X78701829Y-67417947D01*
X78572388Y-67392200D01*
X78508541Y-67379500D01*
X78311459Y-67379500D01*
X78256662Y-67390399D01*
X78118170Y-67417947D01*
X78118160Y-67417950D01*
X77936086Y-67493367D01*
X77772218Y-67602860D01*
X77772217Y-67602862D01*
X77632862Y-67742217D01*
X77632860Y-67742218D01*
X77523367Y-67906086D01*
X77447950Y-68088160D01*
X77447947Y-68088170D01*
X77409500Y-68281460D01*
X76870500Y-68281460D01*
X76870500Y-68281459D01*
X76832051Y-68088165D01*
X76756632Y-67906086D01*
X76647139Y-67742218D01*
X76507782Y-67602861D01*
X76343914Y-67493368D01*
X76343915Y-67493368D01*
X76343913Y-67493367D01*
X76161839Y-67417950D01*
X76161829Y-67417947D01*
X76032388Y-67392200D01*
X75968541Y-67379500D01*
X75771459Y-67379500D01*
X75716662Y-67390399D01*
X75578170Y-67417947D01*
X75578160Y-67417950D01*
X75396086Y-67493367D01*
X75232218Y-67602860D01*
X75232217Y-67602862D01*
X75092862Y-67742217D01*
X75092860Y-67742218D01*
X74983367Y-67906086D01*
X74907950Y-68088160D01*
X74907947Y-68088170D01*
X74869500Y-68281460D01*
X70200000Y-68281460D01*
X70200000Y-60274000D01*
X70221674Y-60221674D01*
X70274000Y-60200000D01*
X129726000Y-60200000D01*
X129778326Y-60221674D01*
G37*
%TD.AperFunction*%
%TA.AperFunction,Conductor*%
G36*
X102310167Y-122493352D02*
G01*
X102315800Y-122521671D01*
X102315800Y-131186877D01*
X102294126Y-131239203D01*
X101029540Y-132503788D01*
X100989979Y-132572309D01*
X100989977Y-132572314D01*
X100969500Y-132648735D01*
X100969500Y-132715500D01*
X100947826Y-132767826D01*
X100895500Y-132789500D01*
X100250246Y-132789500D01*
X100248783Y-132789644D01*
X100241536Y-132790000D01*
X100070000Y-132790000D01*
X100052326Y-132807674D01*
X100000000Y-132829348D01*
X99947674Y-132807674D01*
X99930000Y-132790000D01*
X99758464Y-132790000D01*
X99751217Y-132789644D01*
X99749754Y-132789500D01*
X99749748Y-132789500D01*
X99104500Y-132789500D01*
X99052174Y-132767826D01*
X99030500Y-132715500D01*
X99030500Y-132648736D01*
X99030499Y-132648735D01*
X99010022Y-132572314D01*
X99010020Y-132572309D01*
X98968496Y-132500387D01*
X98961104Y-132444234D01*
X98995580Y-132399303D01*
X99038714Y-132374400D01*
X99131900Y-132281214D01*
X99197792Y-132167086D01*
X99231899Y-132039794D01*
X99231900Y-132039794D01*
X99231900Y-131929022D01*
X99253574Y-131876696D01*
X99728741Y-131401529D01*
X100240460Y-130889811D01*
X100274883Y-130830188D01*
X100280021Y-130821289D01*
X100300499Y-130744864D01*
X100300500Y-130744864D01*
X100300500Y-122653838D01*
X100322174Y-122601512D01*
X100374500Y-122579838D01*
X100426826Y-122601512D01*
X100436026Y-122612722D01*
X100492861Y-122697782D01*
X100632218Y-122837139D01*
X100796086Y-122946632D01*
X100978165Y-123022051D01*
X101171459Y-123060500D01*
X101171461Y-123060500D01*
X101368539Y-123060500D01*
X101368541Y-123060500D01*
X101561835Y-123022051D01*
X101743914Y-122946632D01*
X101907782Y-122837139D01*
X102047139Y-122697782D01*
X102156632Y-122533914D01*
X102169733Y-122502285D01*
X102173433Y-122493353D01*
X102213481Y-122453304D01*
X102270118Y-122453304D01*
X102310167Y-122493352D01*
G37*
%TD.AperFunction*%
%TA.AperFunction,Conductor*%
G36*
X89667028Y-114700780D02*
G01*
X89679500Y-114741893D01*
X89679500Y-125568106D01*
X89657826Y-125620432D01*
X89605500Y-125642106D01*
X89553174Y-125620432D01*
X89532922Y-125582543D01*
X89532052Y-125578170D01*
X89532051Y-125578169D01*
X89532051Y-125578165D01*
X89527884Y-125568106D01*
X89456632Y-125396086D01*
X89347139Y-125232218D01*
X89207781Y-125092860D01*
X89057588Y-124992504D01*
X89026122Y-124945411D01*
X89024700Y-124930975D01*
X89024700Y-124027066D01*
X89046374Y-123974740D01*
X89124700Y-123896414D01*
X89190592Y-123782286D01*
X89224699Y-123654994D01*
X89224700Y-123654994D01*
X89224700Y-123523206D01*
X89224699Y-123523205D01*
X89190593Y-123395918D01*
X89190592Y-123395914D01*
X89124700Y-123281786D01*
X89031514Y-123188600D01*
X88978368Y-123157916D01*
X88917390Y-123122710D01*
X88917381Y-123122706D01*
X88790094Y-123088600D01*
X88790092Y-123088600D01*
X88658308Y-123088600D01*
X88658306Y-123088600D01*
X88531018Y-123122706D01*
X88531009Y-123122710D01*
X88416885Y-123188600D01*
X88323700Y-123281785D01*
X88257810Y-123395909D01*
X88257806Y-123395918D01*
X88223700Y-123523205D01*
X88223700Y-123654994D01*
X88257806Y-123782281D01*
X88257810Y-123782290D01*
X88323700Y-123896414D01*
X88402026Y-123974740D01*
X88423700Y-124027066D01*
X88423700Y-124818269D01*
X88402026Y-124870595D01*
X88364137Y-124890847D01*
X88278169Y-124907947D01*
X88278162Y-124907949D01*
X88096086Y-124983367D01*
X87932218Y-125092860D01*
X87932217Y-125092862D01*
X87895126Y-125129953D01*
X87842800Y-125151627D01*
X87790474Y-125129953D01*
X87768800Y-125077627D01*
X87768800Y-121671023D01*
X87790474Y-121618697D01*
X87933762Y-121475409D01*
X88109960Y-121299211D01*
X88149521Y-121230689D01*
X88169999Y-121154264D01*
X88170000Y-121154264D01*
X88170000Y-120576736D01*
X88169999Y-120576735D01*
X88149522Y-120500314D01*
X88149520Y-120500309D01*
X88138920Y-120481949D01*
X88109960Y-120431789D01*
X88054011Y-120375840D01*
X87790474Y-120112303D01*
X87768800Y-120059977D01*
X87768800Y-115232373D01*
X87790474Y-115180047D01*
X87842800Y-115158373D01*
X87895126Y-115180047D01*
X87932218Y-115217139D01*
X88096086Y-115326632D01*
X88197208Y-115368518D01*
X88278165Y-115402051D01*
X88471459Y-115440500D01*
X88471461Y-115440500D01*
X88668539Y-115440500D01*
X88668541Y-115440500D01*
X88861835Y-115402051D01*
X89043914Y-115326632D01*
X89207782Y-115217139D01*
X89347139Y-115077782D01*
X89456632Y-114913914D01*
X89532051Y-114731835D01*
X89532922Y-114727458D01*
X89564387Y-114680365D01*
X89619935Y-114669315D01*
X89667028Y-114700780D01*
G37*
%TD.AperFunction*%
%TA.AperFunction,Conductor*%
G36*
X109897210Y-111080181D02*
G01*
X114168040Y-115351011D01*
X114223989Y-115406960D01*
X114292511Y-115446521D01*
X114292512Y-115446521D01*
X114292514Y-115446522D01*
X114330724Y-115456760D01*
X114368935Y-115466999D01*
X114368936Y-115467000D01*
X114368938Y-115467000D01*
X114488677Y-115467000D01*
X114541003Y-115488674D01*
X115720226Y-116667897D01*
X115741900Y-116720223D01*
X115741900Y-118809750D01*
X115720226Y-118862076D01*
X115667900Y-118883750D01*
X115615575Y-118862076D01*
X115574035Y-118820536D01*
X115560763Y-118811668D01*
X115426544Y-118721985D01*
X115262670Y-118654107D01*
X115262660Y-118654104D01*
X115146156Y-118630930D01*
X115088691Y-118619500D01*
X114911309Y-118619500D01*
X114861989Y-118629310D01*
X114737339Y-118654104D01*
X114737337Y-118654105D01*
X114737335Y-118654105D01*
X114737334Y-118654106D01*
X114737332Y-118654107D01*
X114656966Y-118687394D01*
X114600329Y-118687392D01*
X114576323Y-118671352D01*
X114237419Y-118332448D01*
X114215745Y-118280122D01*
X114225657Y-118243125D01*
X114282492Y-118144686D01*
X114316599Y-118017394D01*
X114316600Y-118017394D01*
X114316600Y-117885606D01*
X114316599Y-117885605D01*
X114312584Y-117870622D01*
X114282492Y-117758314D01*
X114216600Y-117644186D01*
X114123414Y-117551000D01*
X114009290Y-117485110D01*
X114009281Y-117485106D01*
X113881994Y-117451000D01*
X113881992Y-117451000D01*
X113771223Y-117451000D01*
X113718897Y-117429326D01*
X111778782Y-115489211D01*
X111757108Y-115436885D01*
X111778782Y-115384559D01*
X111802790Y-115368518D01*
X111903914Y-115326632D01*
X112067782Y-115217139D01*
X112207139Y-115077782D01*
X112316632Y-114913914D01*
X112392051Y-114731835D01*
X112430500Y-114538541D01*
X112430500Y-114341459D01*
X112392051Y-114148165D01*
X112387884Y-114138106D01*
X112316632Y-113966086D01*
X112207139Y-113802218D01*
X112067781Y-113662860D01*
X111903913Y-113553367D01*
X111721839Y-113477950D01*
X111721829Y-113477947D01*
X111592388Y-113452200D01*
X111528541Y-113439500D01*
X111331459Y-113439500D01*
X111276662Y-113450399D01*
X111138170Y-113477947D01*
X111138160Y-113477950D01*
X110956086Y-113553367D01*
X110804116Y-113654910D01*
X110748567Y-113665959D01*
X110710678Y-113645707D01*
X108821797Y-111756826D01*
X108800123Y-111704500D01*
X108821797Y-111652174D01*
X108874123Y-111630500D01*
X108988539Y-111630500D01*
X108988541Y-111630500D01*
X109181835Y-111592051D01*
X109363914Y-111516632D01*
X109527782Y-111407139D01*
X109667139Y-111267782D01*
X109776632Y-111103914D01*
X109776634Y-111103910D01*
X109778345Y-111100710D01*
X109779429Y-111101289D01*
X109816538Y-111064151D01*
X109873175Y-111064129D01*
X109897210Y-111080181D01*
G37*
%TD.AperFunction*%
%TA.AperFunction,Conductor*%
G36*
X89332876Y-101808974D02*
G01*
X89354550Y-101861300D01*
X89332876Y-101913624D01*
X89300536Y-101945965D01*
X89300534Y-101945967D01*
X89300533Y-101945968D01*
X89201985Y-102093455D01*
X89134107Y-102257329D01*
X89134104Y-102257339D01*
X89105215Y-102402576D01*
X89099500Y-102431309D01*
X89099500Y-102608691D01*
X89102027Y-102621393D01*
X89134104Y-102782660D01*
X89134107Y-102782670D01*
X89201985Y-102946544D01*
X89201986Y-102946546D01*
X89201987Y-102946547D01*
X89300536Y-103094035D01*
X89425965Y-103219464D01*
X89573453Y-103318013D01*
X89737334Y-103385894D01*
X89911309Y-103420500D01*
X89911311Y-103420500D01*
X90088689Y-103420500D01*
X90088691Y-103420500D01*
X90262666Y-103385894D01*
X90426547Y-103318013D01*
X90574035Y-103219464D01*
X90699464Y-103094035D01*
X90798013Y-102946547D01*
X90865894Y-102782666D01*
X90900500Y-102608691D01*
X90900500Y-102431309D01*
X90865894Y-102257334D01*
X90823307Y-102154518D01*
X90798014Y-102093455D01*
X90795109Y-102089108D01*
X90699464Y-101945965D01*
X90667123Y-101913624D01*
X90645450Y-101861300D01*
X90667124Y-101808974D01*
X90719450Y-101787300D01*
X92855292Y-101787300D01*
X92907618Y-101808974D01*
X92929292Y-101861300D01*
X92919378Y-101898300D01*
X92882710Y-101961809D01*
X92882706Y-101961818D01*
X92848600Y-102089105D01*
X92848600Y-102220894D01*
X92882706Y-102348181D01*
X92882707Y-102348184D01*
X92882708Y-102348186D01*
X92948600Y-102462314D01*
X93041786Y-102555500D01*
X93155914Y-102621392D01*
X93283205Y-102655499D01*
X93283206Y-102655500D01*
X93283208Y-102655500D01*
X93414994Y-102655500D01*
X93414994Y-102655499D01*
X93542286Y-102621392D01*
X93656414Y-102555500D01*
X93734740Y-102477174D01*
X93787066Y-102455500D01*
X94716577Y-102455500D01*
X94768903Y-102477174D01*
X97137826Y-104846097D01*
X97159500Y-104898423D01*
X97159500Y-105392164D01*
X97179977Y-105468586D01*
X97179979Y-105468589D01*
X97217694Y-105533914D01*
X97219540Y-105537111D01*
X98399840Y-106717411D01*
X98455789Y-106773360D01*
X98524311Y-106812921D01*
X98524312Y-106812921D01*
X98524314Y-106812922D01*
X98562524Y-106823160D01*
X98600735Y-106833399D01*
X98600736Y-106833400D01*
X98600738Y-106833400D01*
X98653977Y-106833400D01*
X98706303Y-106855074D01*
X101354403Y-109503174D01*
X101376077Y-109555500D01*
X101354403Y-109607826D01*
X101302077Y-109629500D01*
X101171459Y-109629500D01*
X101116662Y-109640399D01*
X100978170Y-109667947D01*
X100978160Y-109667950D01*
X100796086Y-109743367D01*
X100632218Y-109852860D01*
X100632217Y-109852862D01*
X100492862Y-109992217D01*
X100492860Y-109992218D01*
X100383367Y-110156086D01*
X100307950Y-110338160D01*
X100307947Y-110338170D01*
X100269500Y-110531460D01*
X100269500Y-110728539D01*
X100307947Y-110921829D01*
X100307950Y-110921839D01*
X100383367Y-111103913D01*
X100463650Y-111224064D01*
X100492861Y-111267782D01*
X100632218Y-111407139D01*
X100796086Y-111516632D01*
X100978165Y-111592051D01*
X101171459Y-111630500D01*
X101171461Y-111630500D01*
X101368539Y-111630500D01*
X101368541Y-111630500D01*
X101561835Y-111592051D01*
X101743914Y-111516632D01*
X101885273Y-111422178D01*
X101940820Y-111411129D01*
X101978710Y-111431381D01*
X103860503Y-113313174D01*
X103882177Y-113365500D01*
X103860503Y-113417826D01*
X103808177Y-113439500D01*
X103711459Y-113439500D01*
X103656662Y-113450399D01*
X103518170Y-113477947D01*
X103518160Y-113477950D01*
X103336086Y-113553367D01*
X103172218Y-113662860D01*
X103172217Y-113662862D01*
X103032863Y-113802215D01*
X102942456Y-113937518D01*
X102895363Y-113968983D01*
X102839814Y-113957934D01*
X102828606Y-113948735D01*
X99738212Y-110858341D01*
X99716538Y-110806015D01*
X99717958Y-110791588D01*
X99730500Y-110728541D01*
X99730500Y-110531459D01*
X99692051Y-110338165D01*
X99616632Y-110156086D01*
X99507139Y-109992218D01*
X99367782Y-109852861D01*
X99321108Y-109821674D01*
X99203913Y-109743367D01*
X99021839Y-109667950D01*
X99021829Y-109667947D01*
X98883700Y-109640472D01*
X98828541Y-109629500D01*
X98631459Y-109629500D01*
X98576662Y-109640399D01*
X98438170Y-109667947D01*
X98438160Y-109667950D01*
X98256086Y-109743367D01*
X98092218Y-109852860D01*
X98092217Y-109852862D01*
X97952862Y-109992217D01*
X97952860Y-109992218D01*
X97843365Y-110156089D01*
X97843364Y-110156091D01*
X97843208Y-110156469D01*
X97843110Y-110156566D01*
X97841655Y-110159290D01*
X97840827Y-110158847D01*
X97803150Y-110196508D01*
X97746513Y-110196494D01*
X97710763Y-110165135D01*
X97700460Y-110147289D01*
X97644511Y-110091340D01*
X91522611Y-103969440D01*
X91454090Y-103929879D01*
X91454085Y-103929877D01*
X91377664Y-103909400D01*
X91377662Y-103909400D01*
X85394623Y-103909400D01*
X85342297Y-103887726D01*
X85001397Y-103546826D01*
X84979723Y-103494500D01*
X85001397Y-103442174D01*
X85053723Y-103420500D01*
X85088689Y-103420500D01*
X85088691Y-103420500D01*
X85262666Y-103385894D01*
X85426547Y-103318013D01*
X85574035Y-103219464D01*
X85699464Y-103094035D01*
X85798013Y-102946547D01*
X85865894Y-102782666D01*
X85900500Y-102608691D01*
X85900500Y-102431309D01*
X85865894Y-102257334D01*
X85832605Y-102176966D01*
X85832605Y-102120330D01*
X85848643Y-102096326D01*
X86135997Y-101808974D01*
X86188323Y-101787300D01*
X89280550Y-101787300D01*
X89332876Y-101808974D01*
G37*
%TD.AperFunction*%
%TA.AperFunction,Conductor*%
G36*
X85451250Y-109128174D02*
G01*
X85472924Y-109180500D01*
X85451250Y-109232826D01*
X85435924Y-109244586D01*
X85410888Y-109259040D01*
X84519540Y-110150388D01*
X84479979Y-110218909D01*
X84479977Y-110218914D01*
X84459500Y-110295335D01*
X84459500Y-111029377D01*
X84437826Y-111081703D01*
X82816626Y-112702903D01*
X82764300Y-112724577D01*
X82711974Y-112702903D01*
X82690300Y-112650577D01*
X82690300Y-111690636D01*
X82689667Y-111685827D01*
X82690176Y-111685759D01*
X82688800Y-111675296D01*
X82688800Y-110326323D01*
X82710474Y-110273997D01*
X83856297Y-109128174D01*
X83908623Y-109106500D01*
X85398924Y-109106500D01*
X85451250Y-109128174D01*
G37*
%TD.AperFunction*%
%TA.AperFunction,Conductor*%
G36*
X115662803Y-79030474D02*
G01*
X119125503Y-82493174D01*
X119147177Y-82545500D01*
X119125503Y-82597826D01*
X119073177Y-82619500D01*
X118951459Y-82619500D01*
X118896662Y-82630399D01*
X118758170Y-82657947D01*
X118758160Y-82657950D01*
X118576086Y-82733367D01*
X118412218Y-82842860D01*
X118412217Y-82842862D01*
X118272862Y-82982217D01*
X118272860Y-82982218D01*
X118163367Y-83146086D01*
X118087950Y-83328160D01*
X118087947Y-83328170D01*
X118049500Y-83521460D01*
X118049500Y-83718539D01*
X118087947Y-83911829D01*
X118087949Y-83911834D01*
X118087949Y-83911835D01*
X118107116Y-83958108D01*
X118107116Y-84014744D01*
X118091075Y-84038752D01*
X113911403Y-88218426D01*
X113859077Y-88240100D01*
X111442050Y-88240100D01*
X111389724Y-88218426D01*
X111368050Y-88166100D01*
X111389723Y-88113775D01*
X111429464Y-88074035D01*
X111528013Y-87926547D01*
X111595894Y-87762666D01*
X111630500Y-87588691D01*
X111630500Y-87411309D01*
X111595894Y-87237334D01*
X111577890Y-87193867D01*
X111528014Y-87073455D01*
X111429466Y-86925968D01*
X111429465Y-86925967D01*
X111429464Y-86925965D01*
X111304035Y-86800536D01*
X111289464Y-86790800D01*
X111156544Y-86701985D01*
X110992670Y-86634107D01*
X110992660Y-86634104D01*
X110876156Y-86610930D01*
X110818691Y-86599500D01*
X110641309Y-86599500D01*
X110591989Y-86609310D01*
X110467339Y-86634104D01*
X110467329Y-86634107D01*
X110303455Y-86701985D01*
X110155968Y-86800533D01*
X110030533Y-86925968D01*
X109931985Y-87073455D01*
X109898699Y-87153818D01*
X109858651Y-87193867D01*
X109830332Y-87199500D01*
X108169668Y-87199500D01*
X108117342Y-87177826D01*
X108101301Y-87153818D01*
X108068014Y-87073455D01*
X107969466Y-86925968D01*
X107969465Y-86925967D01*
X107969464Y-86925965D01*
X107844035Y-86800536D01*
X107829464Y-86790800D01*
X107696544Y-86701985D01*
X107532670Y-86634107D01*
X107532660Y-86634104D01*
X107416156Y-86610930D01*
X107358691Y-86599500D01*
X107181309Y-86599500D01*
X107131989Y-86609310D01*
X107007339Y-86634104D01*
X107007337Y-86634105D01*
X107007335Y-86634105D01*
X107007334Y-86634106D01*
X107007332Y-86634107D01*
X106926966Y-86667394D01*
X106870329Y-86667392D01*
X106846323Y-86651352D01*
X106024711Y-85829740D01*
X105956190Y-85790179D01*
X105956185Y-85790177D01*
X105879764Y-85769700D01*
X105879762Y-85769700D01*
X97189023Y-85769700D01*
X97136697Y-85748026D01*
X96135497Y-84746826D01*
X96113823Y-84694500D01*
X96135497Y-84642174D01*
X96187823Y-84620500D01*
X96288539Y-84620500D01*
X96288541Y-84620500D01*
X96481835Y-84582051D01*
X96663914Y-84506632D01*
X96827782Y-84397139D01*
X96967139Y-84257782D01*
X97076632Y-84093914D01*
X97152051Y-83911835D01*
X97190500Y-83718541D01*
X97190500Y-83521459D01*
X97152051Y-83328165D01*
X97076632Y-83146086D01*
X96967139Y-82982218D01*
X96827782Y-82842861D01*
X96747584Y-82789274D01*
X96663913Y-82733367D01*
X96481839Y-82657950D01*
X96481829Y-82657947D01*
X96352388Y-82632200D01*
X96288541Y-82619500D01*
X96091459Y-82619500D01*
X96036662Y-82630399D01*
X95898170Y-82657947D01*
X95898160Y-82657950D01*
X95716086Y-82733367D01*
X95552218Y-82842860D01*
X95552217Y-82842862D01*
X95412862Y-82982217D01*
X95412860Y-82982218D01*
X95330930Y-83104835D01*
X95303630Y-83145695D01*
X95301589Y-83148749D01*
X95254497Y-83180215D01*
X95198948Y-83169166D01*
X95187734Y-83159963D01*
X94254411Y-82226640D01*
X94185890Y-82187079D01*
X94185885Y-82187077D01*
X94109464Y-82166600D01*
X94109462Y-82166600D01*
X85882113Y-82166600D01*
X85829787Y-82144926D01*
X85808113Y-82092600D01*
X85829787Y-82040274D01*
X85856149Y-82025053D01*
X85855608Y-82023746D01*
X85860076Y-82021894D01*
X85860086Y-82021892D01*
X85974214Y-81956000D01*
X86052540Y-81877674D01*
X86104866Y-81856000D01*
X88425864Y-81856000D01*
X88425864Y-81855999D01*
X88502289Y-81835521D01*
X88570811Y-81795960D01*
X88626760Y-81740011D01*
X89916760Y-80450011D01*
X89953448Y-80386465D01*
X89953450Y-80386466D01*
X89953452Y-80386457D01*
X89956321Y-80381489D01*
X89976799Y-80305064D01*
X89976800Y-80305064D01*
X89976800Y-79992745D01*
X89998474Y-79940419D01*
X90050800Y-79918745D01*
X90103126Y-79940419D01*
X90123377Y-79978307D01*
X90130429Y-80013757D01*
X90147947Y-80101829D01*
X90147950Y-80101839D01*
X90223367Y-80283913D01*
X90291884Y-80386455D01*
X90332861Y-80447782D01*
X90472218Y-80587139D01*
X90636086Y-80696632D01*
X90818165Y-80772051D01*
X91011459Y-80810500D01*
X91011461Y-80810500D01*
X91208539Y-80810500D01*
X91208541Y-80810500D01*
X91401835Y-80772051D01*
X91529568Y-80719142D01*
X91586204Y-80719142D01*
X91610212Y-80735183D01*
X92774540Y-81899511D01*
X92830489Y-81955460D01*
X92899011Y-81995021D01*
X92899012Y-81995021D01*
X92899014Y-81995022D01*
X92937224Y-82005260D01*
X92975435Y-82015499D01*
X92975436Y-82015500D01*
X92975438Y-82015500D01*
X93054562Y-82015500D01*
X98255477Y-82015500D01*
X98307803Y-82037174D01*
X98763803Y-82493174D01*
X98785477Y-82545500D01*
X98763803Y-82597826D01*
X98711477Y-82619500D01*
X98631459Y-82619500D01*
X98576662Y-82630399D01*
X98438170Y-82657947D01*
X98438160Y-82657950D01*
X98256086Y-82733367D01*
X98092218Y-82842860D01*
X98092217Y-82842862D01*
X97952862Y-82982217D01*
X97952860Y-82982218D01*
X97843367Y-83146086D01*
X97767950Y-83328160D01*
X97767947Y-83328170D01*
X97729500Y-83521460D01*
X97729500Y-83718539D01*
X97767947Y-83911829D01*
X97767950Y-83911839D01*
X97843367Y-84093913D01*
X97952860Y-84257781D01*
X98092218Y-84397139D01*
X98256086Y-84506632D01*
X98422542Y-84575580D01*
X98438165Y-84582051D01*
X98631459Y-84620500D01*
X98631461Y-84620500D01*
X98828539Y-84620500D01*
X98828541Y-84620500D01*
X99021835Y-84582051D01*
X99203914Y-84506632D01*
X99367782Y-84397139D01*
X99507139Y-84257782D01*
X99616632Y-84093914D01*
X99617650Y-84091455D01*
X99618286Y-84090819D01*
X99618345Y-84090710D01*
X99618378Y-84090727D01*
X99657695Y-84051404D01*
X99714332Y-84051400D01*
X99750105Y-84082769D01*
X99759540Y-84099111D01*
X100616740Y-84956311D01*
X100672689Y-85012260D01*
X100741211Y-85051821D01*
X100741212Y-85051821D01*
X100741214Y-85051822D01*
X100763524Y-85057800D01*
X100817635Y-85072299D01*
X100817636Y-85072300D01*
X100817638Y-85072300D01*
X107777764Y-85072300D01*
X107777764Y-85072299D01*
X107854189Y-85051821D01*
X107922711Y-85012260D01*
X107978660Y-84956311D01*
X108389787Y-84545182D01*
X108442113Y-84523509D01*
X108470431Y-84529141D01*
X108598165Y-84582051D01*
X108791459Y-84620500D01*
X108791461Y-84620500D01*
X108988539Y-84620500D01*
X108988541Y-84620500D01*
X109181835Y-84582051D01*
X109363914Y-84506632D01*
X109527782Y-84397139D01*
X109667139Y-84257782D01*
X109776632Y-84093914D01*
X109852051Y-83911835D01*
X109890500Y-83718541D01*
X109890500Y-83521459D01*
X109852051Y-83328165D01*
X109776632Y-83146086D01*
X109667139Y-82982218D01*
X109527782Y-82842861D01*
X109447584Y-82789274D01*
X109363913Y-82733367D01*
X109181839Y-82657950D01*
X109181829Y-82657947D01*
X109052388Y-82632200D01*
X108988541Y-82619500D01*
X108791459Y-82619500D01*
X108736662Y-82630399D01*
X108598170Y-82657947D01*
X108598160Y-82657950D01*
X108416086Y-82733367D01*
X108252218Y-82842860D01*
X108252217Y-82842862D01*
X108112862Y-82982217D01*
X108112860Y-82982218D01*
X108003367Y-83146086D01*
X107927950Y-83328160D01*
X107927947Y-83328170D01*
X107889500Y-83521460D01*
X107889500Y-83718539D01*
X107927947Y-83911829D01*
X107927950Y-83911839D01*
X107980857Y-84039567D01*
X107980857Y-84096204D01*
X107964816Y-84120211D01*
X107635403Y-84449626D01*
X107583077Y-84471300D01*
X107092273Y-84471300D01*
X107039947Y-84449626D01*
X107018273Y-84397300D01*
X107039947Y-84344974D01*
X107127138Y-84257783D01*
X107127139Y-84257782D01*
X107236632Y-84093914D01*
X107312051Y-83911835D01*
X107350500Y-83718541D01*
X107350500Y-83521459D01*
X107312051Y-83328165D01*
X107236632Y-83146086D01*
X107127139Y-82982218D01*
X106987782Y-82842861D01*
X106907584Y-82789274D01*
X106823913Y-82733367D01*
X106641839Y-82657950D01*
X106641829Y-82657947D01*
X106512388Y-82632200D01*
X106448541Y-82619500D01*
X106251459Y-82619500D01*
X106196662Y-82630399D01*
X106058170Y-82657947D01*
X106058160Y-82657950D01*
X105930431Y-82710857D01*
X105873794Y-82710857D01*
X105849787Y-82694816D01*
X105091711Y-81936740D01*
X105070313Y-81924386D01*
X105035834Y-81879453D01*
X105043227Y-81823300D01*
X105088160Y-81788821D01*
X105107313Y-81786300D01*
X109140677Y-81786300D01*
X109193003Y-81807974D01*
X110504816Y-83119787D01*
X110526490Y-83172113D01*
X110520857Y-83200431D01*
X110467950Y-83328160D01*
X110467947Y-83328170D01*
X110429500Y-83521460D01*
X110429500Y-83718539D01*
X110467947Y-83911829D01*
X110467950Y-83911839D01*
X110543367Y-84093913D01*
X110652860Y-84257781D01*
X110792218Y-84397139D01*
X110956086Y-84506632D01*
X111122542Y-84575580D01*
X111138165Y-84582051D01*
X111331459Y-84620500D01*
X111331461Y-84620500D01*
X111528539Y-84620500D01*
X111528541Y-84620500D01*
X111721835Y-84582051D01*
X111903914Y-84506632D01*
X112067782Y-84397139D01*
X112207139Y-84257782D01*
X112316632Y-84093914D01*
X112392051Y-83911835D01*
X112430500Y-83718541D01*
X112430500Y-83521459D01*
X112392051Y-83328165D01*
X112316632Y-83146086D01*
X112207139Y-82982218D01*
X112067782Y-82842861D01*
X111987584Y-82789274D01*
X111903913Y-82733367D01*
X111721839Y-82657950D01*
X111721829Y-82657947D01*
X111658134Y-82645278D01*
X111611042Y-82613812D01*
X111599993Y-82558263D01*
X111631459Y-82511171D01*
X111672571Y-82498700D01*
X112393077Y-82498700D01*
X112445403Y-82520374D01*
X113044816Y-83119787D01*
X113066490Y-83172113D01*
X113060857Y-83200431D01*
X113007950Y-83328160D01*
X113007947Y-83328170D01*
X112969500Y-83521460D01*
X112969500Y-83718539D01*
X113007947Y-83911829D01*
X113007950Y-83911839D01*
X113083367Y-84093913D01*
X113192860Y-84257781D01*
X113332218Y-84397139D01*
X113496086Y-84506632D01*
X113662542Y-84575580D01*
X113678165Y-84582051D01*
X113871459Y-84620500D01*
X113871461Y-84620500D01*
X114068539Y-84620500D01*
X114068541Y-84620500D01*
X114261835Y-84582051D01*
X114443914Y-84506632D01*
X114607782Y-84397139D01*
X114747139Y-84257782D01*
X114856632Y-84093914D01*
X114932051Y-83911835D01*
X114970500Y-83718541D01*
X114970500Y-83521459D01*
X114932051Y-83328165D01*
X114856632Y-83146086D01*
X114747139Y-82982218D01*
X114607782Y-82842861D01*
X114527584Y-82789274D01*
X114443913Y-82733367D01*
X114261839Y-82657950D01*
X114261829Y-82657947D01*
X114132388Y-82632200D01*
X114068541Y-82619500D01*
X113871459Y-82619500D01*
X113816662Y-82630399D01*
X113678170Y-82657947D01*
X113678160Y-82657950D01*
X113550431Y-82710857D01*
X113493794Y-82710857D01*
X113469787Y-82694816D01*
X113140411Y-82365440D01*
X112732711Y-81957740D01*
X112732708Y-81957738D01*
X112732707Y-81957737D01*
X112728764Y-81955461D01*
X112728762Y-81955460D01*
X112664190Y-81918179D01*
X112664185Y-81918177D01*
X112587764Y-81897700D01*
X112587762Y-81897700D01*
X110798323Y-81897700D01*
X110745997Y-81876026D01*
X110347897Y-81477926D01*
X110326223Y-81425600D01*
X110347897Y-81373274D01*
X110400223Y-81351600D01*
X113785977Y-81351600D01*
X113838303Y-81373274D01*
X115584816Y-83119787D01*
X115606490Y-83172113D01*
X115600857Y-83200431D01*
X115547950Y-83328160D01*
X115547947Y-83328170D01*
X115509500Y-83521460D01*
X115509500Y-83718539D01*
X115547947Y-83911829D01*
X115547950Y-83911839D01*
X115623367Y-84093913D01*
X115732860Y-84257781D01*
X115872218Y-84397139D01*
X116036086Y-84506632D01*
X116202542Y-84575580D01*
X116218165Y-84582051D01*
X116411459Y-84620500D01*
X116411461Y-84620500D01*
X116608539Y-84620500D01*
X116608541Y-84620500D01*
X116801835Y-84582051D01*
X116983914Y-84506632D01*
X117147782Y-84397139D01*
X117287139Y-84257782D01*
X117396632Y-84093914D01*
X117472051Y-83911835D01*
X117510500Y-83718541D01*
X117510500Y-83521459D01*
X117472051Y-83328165D01*
X117396632Y-83146086D01*
X117287139Y-82982218D01*
X117147782Y-82842861D01*
X117067584Y-82789274D01*
X116983913Y-82733367D01*
X116801839Y-82657950D01*
X116801829Y-82657947D01*
X116672388Y-82632200D01*
X116608541Y-82619500D01*
X116411459Y-82619500D01*
X116356662Y-82630399D01*
X116218170Y-82657947D01*
X116218160Y-82657950D01*
X116090431Y-82710857D01*
X116033794Y-82710857D01*
X116009787Y-82694816D01*
X115080792Y-81765821D01*
X114125611Y-80810640D01*
X114125608Y-80810638D01*
X114125607Y-80810637D01*
X114124353Y-80809913D01*
X114124353Y-80809912D01*
X114058774Y-80772052D01*
X114057089Y-80771079D01*
X114057088Y-80771078D01*
X113980664Y-80750600D01*
X113980662Y-80750600D01*
X110286223Y-80750600D01*
X110233897Y-80728926D01*
X109815183Y-80310212D01*
X109793509Y-80257886D01*
X109799142Y-80229567D01*
X109834403Y-80144440D01*
X109852051Y-80101835D01*
X109890500Y-79908541D01*
X109890500Y-79711459D01*
X109852051Y-79518165D01*
X109776632Y-79336086D01*
X109667139Y-79172218D01*
X109630047Y-79135126D01*
X109608373Y-79082800D01*
X109630047Y-79030474D01*
X109682373Y-79008800D01*
X115610477Y-79008800D01*
X115662803Y-79030474D01*
G37*
%TD.AperFunction*%
%TA.AperFunction,Conductor*%
G36*
X88951103Y-78998774D02*
G01*
X89354126Y-79401797D01*
X89375800Y-79454123D01*
X89375800Y-80110377D01*
X89354126Y-80162703D01*
X88283503Y-81233326D01*
X88231177Y-81255000D01*
X86104866Y-81255000D01*
X86052540Y-81233326D01*
X85974214Y-81155000D01*
X85860090Y-81089110D01*
X85860081Y-81089106D01*
X85732794Y-81055000D01*
X85732792Y-81055000D01*
X85601008Y-81055000D01*
X85601006Y-81055000D01*
X85473718Y-81089106D01*
X85473709Y-81089110D01*
X85359585Y-81155000D01*
X85266400Y-81248185D01*
X85200510Y-81362309D01*
X85200506Y-81362318D01*
X85166400Y-81489605D01*
X85166400Y-81621394D01*
X85200506Y-81748681D01*
X85200510Y-81748690D01*
X85250642Y-81835520D01*
X85266400Y-81862814D01*
X85359586Y-81956000D01*
X85473714Y-82021892D01*
X85473720Y-82021893D01*
X85478192Y-82023746D01*
X85477243Y-82026035D01*
X85515773Y-82055600D01*
X85523165Y-82111753D01*
X85488687Y-82156686D01*
X85451687Y-82166600D01*
X82063336Y-82166600D01*
X81986914Y-82187077D01*
X81986909Y-82187079D01*
X81918388Y-82226640D01*
X81450211Y-82694816D01*
X81397885Y-82716490D01*
X81369567Y-82710857D01*
X81241839Y-82657950D01*
X81241829Y-82657947D01*
X81112388Y-82632200D01*
X81048541Y-82619500D01*
X80851459Y-82619500D01*
X80796662Y-82630399D01*
X80658170Y-82657947D01*
X80658160Y-82657950D01*
X80476086Y-82733367D01*
X80312218Y-82842860D01*
X80312217Y-82842862D01*
X80238026Y-82917053D01*
X80185700Y-82938727D01*
X80133374Y-82917053D01*
X80111700Y-82864727D01*
X80111700Y-82761023D01*
X80133374Y-82708697D01*
X81171760Y-81670311D01*
X82212614Y-80629456D01*
X82264939Y-80607783D01*
X82317265Y-80629457D01*
X82338939Y-80681783D01*
X82336418Y-80700935D01*
X82332800Y-80714438D01*
X82332800Y-81291764D01*
X82353277Y-81368185D01*
X82353278Y-81368186D01*
X82353279Y-81368189D01*
X82380016Y-81414498D01*
X82380016Y-81414500D01*
X82386425Y-81425600D01*
X82392840Y-81436711D01*
X82801389Y-81845260D01*
X82869912Y-81884822D01*
X82946338Y-81905300D01*
X82946340Y-81905300D01*
X83523764Y-81905300D01*
X83523764Y-81905299D01*
X83600189Y-81884821D01*
X83668711Y-81845260D01*
X83724660Y-81789311D01*
X86515197Y-78998774D01*
X86567523Y-78977100D01*
X88898777Y-78977100D01*
X88951103Y-78998774D01*
G37*
%TD.AperFunction*%
%TD*%
M02*
