%TF.GenerationSoftware,KiCad,Pcbnew,10.0.3*%
%TF.CreationDate,2026-06-18T01:25:48-04:00*%
%TF.ProjectId,index,696e6465-782e-46b6-9963-61645f706362,rev?*%
%TF.SameCoordinates,Original*%
%TF.FileFunction,Copper,L2,Bot*%
%TF.FilePolarity,Positive*%
%FSLAX46Y46*%
G04 Gerber Fmt 4.6, Leading zero omitted, Abs format (unit mm)*
G04 Created by KiCad (PCBNEW 10.0.3) date 2026-06-18 01:25:48*
%MOMM*%
%LPD*%
G01*
G04 APERTURE LIST*
%TA.AperFunction,ComponentPad*%
%ADD10R,1.600000X1.600000*%
%TD*%
%TA.AperFunction,ComponentPad*%
%ADD11C,1.600000*%
%TD*%
%TA.AperFunction,ComponentPad*%
%ADD12C,1.400000*%
%TD*%
%TA.AperFunction,ComponentPad*%
%ADD13C,0.600000*%
%TD*%
%TA.AperFunction,SMDPad,CuDef*%
%ADD14R,2.000000X7.000000*%
%TD*%
%TA.AperFunction,ViaPad*%
%ADD15C,0.600000*%
%TD*%
%TA.AperFunction,Conductor*%
%ADD16C,0.200000*%
%TD*%
G04 APERTURE END LIST*
D10*
%TO.P,U5,1*%
%TO.N,OPAMP_OUT*%
X111810000Y-62190000D03*
D11*
%TO.P,U5,2*%
%TO.N,SUM_NODE*%
X109270000Y-62190000D03*
%TO.P,U5,3*%
%TO.N,GND*%
X106730000Y-62190000D03*
%TO.P,U5,4*%
X104190000Y-62190000D03*
%TO.P,U5,5*%
X104190000Y-69810000D03*
%TO.P,U5,6*%
%TO.N,U5_UNUSED_FB*%
X106730000Y-69810000D03*
%TO.P,U5,7*%
X109270000Y-69810000D03*
%TO.P,U5,8*%
%TO.N,VCC*%
X111810000Y-69810000D03*
%TD*%
D12*
%TO.P,RAUDIOB,1*%
%TO.N,ANALOG_B*%
X120730000Y-73750000D03*
%TO.P,RAUDIOB,2*%
%TO.N,SUM_NODE*%
X123270000Y-73750000D03*
%TD*%
D10*
%TO.P,U3,1*%
%TO.N,GND*%
X125430000Y-98440000D03*
D11*
%TO.P,U3,2*%
%TO.N,DA0*%
X122890000Y-98440000D03*
%TO.P,U3,3*%
%TO.N,D0*%
X120350000Y-98440000D03*
%TO.P,U3,4*%
%TO.N,D1*%
X117810000Y-98440000D03*
%TO.P,U3,5*%
%TO.N,DA1*%
X115270000Y-98440000D03*
%TO.P,U3,6*%
%TO.N,DA2*%
X112730000Y-98440000D03*
%TO.P,U3,7*%
%TO.N,D2*%
X110190000Y-98440000D03*
%TO.P,U3,8*%
%TO.N,D3*%
X107650000Y-98440000D03*
%TO.P,U3,9*%
%TO.N,DA3*%
X105110000Y-98440000D03*
%TO.P,U3,10*%
%TO.N,GND*%
X102570000Y-98440000D03*
%TO.P,U3,11*%
%TO.N,YM_LE*%
X102570000Y-106060000D03*
%TO.P,U3,12*%
%TO.N,DA4*%
X105110000Y-106060000D03*
%TO.P,U3,13*%
%TO.N,D4*%
X107650000Y-106060000D03*
%TO.P,U3,14*%
%TO.N,D5*%
X110190000Y-106060000D03*
%TO.P,U3,15*%
%TO.N,DA5*%
X112730000Y-106060000D03*
%TO.P,U3,16*%
%TO.N,DA6*%
X115270000Y-106060000D03*
%TO.P,U3,17*%
%TO.N,D6*%
X117810000Y-106060000D03*
%TO.P,U3,18*%
%TO.N,D7*%
X120350000Y-106060000D03*
%TO.P,U3,19*%
%TO.N,DA7*%
X122890000Y-106060000D03*
%TO.P,U3,20*%
%TO.N,VCC*%
X125430000Y-106060000D03*
%TD*%
D12*
%TO.P,CRESET1,1*%
%TO.N,RESET_DELAYED*%
X78730000Y-95750000D03*
%TO.P,CRESET1,2*%
%TO.N,GND*%
X81270000Y-95750000D03*
%TD*%
D10*
%TO.P,U1,1*%
%TO.N,ROM_VPP*%
X116510000Y-110630000D03*
D11*
%TO.P,U1,2*%
%TO.N,A12*%
X113970000Y-110630000D03*
%TO.P,U1,3*%
%TO.N,A7*%
X111430000Y-110630000D03*
%TO.P,U1,4*%
%TO.N,A6*%
X108890000Y-110630000D03*
%TO.P,U1,5*%
%TO.N,A5*%
X106350000Y-110630000D03*
%TO.P,U1,6*%
%TO.N,A4*%
X103810000Y-110630000D03*
%TO.P,U1,7*%
%TO.N,A3*%
X101270000Y-110630000D03*
%TO.P,U1,8*%
%TO.N,A2*%
X98730000Y-110630000D03*
%TO.P,U1,9*%
%TO.N,A1*%
X96190000Y-110630000D03*
%TO.P,U1,10*%
%TO.N,A0*%
X93650000Y-110630000D03*
%TO.P,U1,11*%
%TO.N,D0*%
X91110000Y-110630000D03*
%TO.P,U1,12*%
%TO.N,D1*%
X88570000Y-110630000D03*
%TO.P,U1,13*%
%TO.N,D2*%
X86030000Y-110630000D03*
%TO.P,U1,14*%
%TO.N,GND*%
X83490000Y-110630000D03*
%TO.P,U1,15*%
%TO.N,D3*%
X83490000Y-125870000D03*
%TO.P,U1,16*%
%TO.N,D4*%
X86030000Y-125870000D03*
%TO.P,U1,17*%
%TO.N,D5*%
X88570000Y-125870000D03*
%TO.P,U1,18*%
%TO.N,D6*%
X91110000Y-125870000D03*
%TO.P,U1,19*%
%TO.N,D7*%
X93650000Y-125870000D03*
%TO.P,U1,20*%
%TO.N,ROM_CE*%
X96190000Y-125870000D03*
%TO.P,U1,21*%
%TO.N,A10*%
X98730000Y-125870000D03*
%TO.P,U1,22*%
%TO.N,GND*%
X101270000Y-125870000D03*
%TO.P,U1,23*%
%TO.N,A11*%
X103810000Y-125870000D03*
%TO.P,U1,24*%
%TO.N,A9*%
X106350000Y-125870000D03*
%TO.P,U1,25*%
%TO.N,A8*%
X108890000Y-125870000D03*
%TO.P,U1,26*%
%TO.N,A13*%
X111430000Y-125870000D03*
%TO.P,U1,27*%
%TO.N,A14*%
X113970000Y-125870000D03*
%TO.P,U1,28*%
%TO.N,VCC*%
X116510000Y-125870000D03*
%TD*%
D12*
%TO.P,RSERIES,1*%
%TO.N,OPAMP_OUT*%
X118000000Y-67270000D03*
%TO.P,RSERIES,2*%
%TO.N,CAP_PLUS*%
X118000000Y-64730000D03*
%TD*%
D13*
%TO.P,U6,1*%
%TO.N,GND*%
X129000000Y-113000000D03*
%TD*%
D10*
%TO.P,U2,1*%
%TO.N,N/C*%
X95430000Y-98440000D03*
D11*
%TO.P,U2,2*%
%TO.N,A15*%
X92890000Y-98440000D03*
%TO.P,U2,3*%
%TO.N,A14*%
X90350000Y-98440000D03*
%TO.P,U2,4*%
%TO.N,A0*%
X87810000Y-98440000D03*
%TO.P,U2,5*%
%TO.N,HALT*%
X85270000Y-98440000D03*
%TO.P,U2,6*%
%TO.N,RW*%
X82730000Y-98440000D03*
%TO.P,U2,7*%
%TO.N,PHI2*%
X80190000Y-98440000D03*
%TO.P,U2,8*%
%TO.N,N/C*%
X77650000Y-98440000D03*
%TO.P,U2,9*%
X75110000Y-98440000D03*
%TO.P,U2,10*%
%TO.N,GND*%
X72570000Y-98440000D03*
%TO.P,U2,11*%
%TO.N,N/C*%
X72570000Y-106060000D03*
%TO.P,U2,12*%
X75110000Y-106060000D03*
%TO.P,U2,13*%
X77650000Y-106060000D03*
%TO.P,U2,14*%
X80190000Y-106060000D03*
%TO.P,U2,15*%
%TO.N,YM_LE*%
X82730000Y-106060000D03*
%TO.P,U2,16*%
%TO.N,PHI2OUT*%
X85270000Y-106060000D03*
%TO.P,U2,17*%
%TO.N,BC1*%
X87810000Y-106060000D03*
%TO.P,U2,18*%
%TO.N,BDIR*%
X90350000Y-106060000D03*
%TO.P,U2,19*%
%TO.N,ROM_CE*%
X92890000Y-106060000D03*
%TO.P,U2,20*%
%TO.N,VCC*%
X95430000Y-106060000D03*
%TD*%
D12*
%TO.P,C3,1*%
%TO.N,VCC*%
X129000000Y-100980000D03*
%TO.P,C3,2*%
%TO.N,GND*%
X129000000Y-103520000D03*
%TD*%
D13*
%TO.P,U7,1*%
%TO.N,GND*%
X126000000Y-84250000D03*
%TD*%
D12*
%TO.P,RAUDIOA,1*%
%TO.N,ANALOG_A*%
X114730000Y-73750000D03*
%TO.P,RAUDIOA,2*%
%TO.N,SUM_NODE*%
X117270000Y-73750000D03*
%TD*%
D10*
%TO.P,U4,1*%
%TO.N,GND*%
X124130000Y-76630000D03*
D11*
%TO.P,U4,2*%
%TO.N,N/C*%
X121590000Y-76630000D03*
%TO.P,U4,3*%
%TO.N,ANALOG_B*%
X119050000Y-76630000D03*
%TO.P,U4,4*%
%TO.N,ANALOG_A*%
X116510000Y-76630000D03*
%TO.P,U4,5*%
%TO.N,N/C*%
X113970000Y-76630000D03*
%TO.P,U4,6*%
X111430000Y-76630000D03*
%TO.P,U4,7*%
X108890000Y-76630000D03*
%TO.P,U4,8*%
X106350000Y-76630000D03*
%TO.P,U4,9*%
X103810000Y-76630000D03*
%TO.P,U4,10*%
X101270000Y-76630000D03*
%TO.P,U4,11*%
X98730000Y-76630000D03*
%TO.P,U4,12*%
X96190000Y-76630000D03*
%TO.P,U4,13*%
X93650000Y-76630000D03*
%TO.P,U4,14*%
X91110000Y-76630000D03*
%TO.P,U4,15*%
X88570000Y-76630000D03*
%TO.P,U4,16*%
X86030000Y-76630000D03*
%TO.P,U4,17*%
X83490000Y-76630000D03*
%TO.P,U4,18*%
X80950000Y-76630000D03*
%TO.P,U4,19*%
X78410000Y-76630000D03*
%TO.P,U4,20*%
X75870000Y-76630000D03*
%TO.P,U4,21*%
X75870000Y-91870000D03*
%TO.P,U4,22*%
%TO.N,PHI2OUT*%
X78410000Y-91870000D03*
%TO.P,U4,23*%
%TO.N,RESET_DELAYED*%
X80950000Y-91870000D03*
%TO.P,U4,24*%
%TO.N,GND*%
X83490000Y-91870000D03*
%TO.P,U4,25*%
%TO.N,VCC*%
X86030000Y-91870000D03*
%TO.P,U4,26*%
%TO.N,N/C*%
X88570000Y-91870000D03*
%TO.P,U4,27*%
%TO.N,BDIR*%
X91110000Y-91870000D03*
%TO.P,U4,28*%
%TO.N,VCC*%
X93650000Y-91870000D03*
%TO.P,U4,29*%
%TO.N,BC1*%
X96190000Y-91870000D03*
%TO.P,U4,30*%
%TO.N,DA7*%
X98730000Y-91870000D03*
%TO.P,U4,31*%
%TO.N,DA6*%
X101270000Y-91870000D03*
%TO.P,U4,32*%
%TO.N,DA5*%
X103810000Y-91870000D03*
%TO.P,U4,33*%
%TO.N,DA4*%
X106350000Y-91870000D03*
%TO.P,U4,34*%
%TO.N,DA3*%
X108890000Y-91870000D03*
%TO.P,U4,35*%
%TO.N,DA2*%
X111430000Y-91870000D03*
%TO.P,U4,36*%
%TO.N,DA1*%
X113970000Y-91870000D03*
%TO.P,U4,37*%
%TO.N,DA0*%
X116510000Y-91870000D03*
%TO.P,U4,38*%
%TO.N,ANALOG_C*%
X119050000Y-91870000D03*
%TO.P,U4,39*%
%TO.N,N/C*%
X121590000Y-91870000D03*
%TO.P,U4,40*%
%TO.N,VCC*%
X124130000Y-91870000D03*
%TD*%
D12*
%TO.P,C1,1*%
%TO.N,VCC*%
X120000000Y-116980000D03*
%TO.P,C1,2*%
%TO.N,GND*%
X120000000Y-119520000D03*
%TD*%
%TO.P,RRESET1,1*%
%TO.N,VCC*%
X84730000Y-95750000D03*
%TO.P,RRESET1,2*%
%TO.N,RESET_DELAYED*%
X87270000Y-95750000D03*
%TD*%
%TO.P,C5,1*%
%TO.N,CAP_PLUS*%
X123000000Y-67270000D03*
%TO.P,C5,2*%
%TO.N,OPAMP_OUT_AC*%
X123000000Y-64730000D03*
%TD*%
%TO.P,RPULL,1*%
%TO.N,OPAMP_OUT*%
X128000000Y-67270000D03*
%TO.P,RPULL,2*%
%TO.N,GND*%
X128000000Y-64730000D03*
%TD*%
%TO.P,C2,1*%
%TO.N,VCC*%
X99000000Y-100980000D03*
%TO.P,C2,2*%
%TO.N,GND*%
X99000000Y-103520000D03*
%TD*%
%TO.P,RAUDIOC,1*%
%TO.N,ANALOG_C*%
X118730000Y-95750000D03*
%TO.P,RAUDIOC,2*%
%TO.N,SUM_NODE*%
X121270000Y-95750000D03*
%TD*%
%TO.P,RFB,1*%
%TO.N,SUM_NODE*%
X98000000Y-67270000D03*
%TO.P,RFB,2*%
%TO.N,OPAMP_OUT*%
X98000000Y-64730000D03*
%TD*%
%TO.P,C6,1*%
%TO.N,VCC*%
X93000000Y-67270000D03*
%TO.P,C6,2*%
%TO.N,GND*%
X93000000Y-64730000D03*
%TD*%
D14*
%TO.P,J1,17*%
%TO.N,A15*%
X121590000Y-136490000D03*
%TO.P,J1,18*%
%TO.N,OPAMP_OUT_AC*%
X119050000Y-136490000D03*
%TO.P,J1,19*%
%TO.N,A7*%
X113970000Y-136490000D03*
%TO.P,J1,20*%
%TO.N,A6*%
X111430000Y-136490000D03*
%TO.P,J1,21*%
%TO.N,A5*%
X108890000Y-136490000D03*
%TO.P,J1,22*%
%TO.N,A4*%
X106350000Y-136490000D03*
%TO.P,J1,23*%
%TO.N,A3*%
X103810000Y-136490000D03*
%TO.P,J1,24*%
%TO.N,A2*%
X101270000Y-136490000D03*
%TO.P,J1,25*%
%TO.N,A1*%
X98730000Y-136490000D03*
%TO.P,J1,26*%
%TO.N,A0*%
X96190000Y-136490000D03*
%TO.P,J1,27*%
%TO.N,D0*%
X93650000Y-136490000D03*
%TO.P,J1,28*%
%TO.N,D1*%
X91110000Y-136490000D03*
%TO.P,J1,29*%
%TO.N,D2*%
X88570000Y-136490000D03*
%TO.P,J1,30*%
%TO.N,GND*%
X86030000Y-136490000D03*
%TO.P,J1,31*%
%TO.N,N/C*%
X80950000Y-136490000D03*
%TO.P,J1,32*%
%TO.N,PHI2*%
X78410000Y-136490000D03*
%TD*%
D12*
%TO.P,C4,1*%
%TO.N,VCC*%
X128000000Y-82980000D03*
%TO.P,C4,2*%
%TO.N,GND*%
X128000000Y-85520000D03*
%TD*%
D15*
%TO.N,VCC*%
X112184600Y-127833200D03*
%TO.N,A15*%
X114872600Y-107825600D03*
X99507800Y-107051800D03*
X116947300Y-123103200D03*
%TO.N,D0*%
X93956900Y-132178300D03*
%TO.N,D1*%
X89840000Y-132178300D03*
%TO.N,YM_LE*%
X86053000Y-108264000D03*
%TO.N,DA6*%
X112141600Y-102057200D03*
%TO.N,A12*%
X99347700Y-130782700D03*
X113955600Y-112848000D03*
%TO.N,A7*%
X113510600Y-132178300D03*
%TO.N,A6*%
X110781500Y-132178300D03*
%TO.N,A5*%
X108052400Y-132178300D03*
%TO.N,A4*%
X106678300Y-121822300D03*
%TO.N,A3*%
X103314200Y-132178300D03*
%TO.N,A2*%
X100585100Y-132178300D03*
%TO.N,A1*%
X98595100Y-132178300D03*
%TO.N,A0*%
X94566700Y-124166300D03*
%TO.N,ROM_CE*%
X96587000Y-112080300D03*
%TO.N,A13*%
X118335000Y-132178300D03*
%TO.N,A14*%
X104377500Y-121111500D03*
X95296600Y-109513400D03*
%TO.N,BC1*%
X89786500Y-96404300D03*
%TO.N,OPAMP_OUT_AC*%
X121192300Y-131776000D03*
%TD*%
%TO.N,VCC*%
D16*
X112321300Y-69810000D02*
X116141600Y-73630300D01*
X111810000Y-69810000D02*
X112321300Y-69810000D01*
X124130000Y-91870000D02*
X129000000Y-96740000D01*
X111810000Y-69810000D02*
X110655200Y-68655200D01*
X92534400Y-92985600D02*
X87145600Y-92985600D01*
X117780000Y-76955800D02*
X123804100Y-82979900D01*
X116345600Y-120634400D02*
X116345600Y-125705600D01*
X117780000Y-75860000D02*
X117780000Y-76955800D01*
X124130000Y-91870000D02*
X124130000Y-87386100D01*
X124130000Y-87386100D02*
X128000000Y-83516100D01*
X125430000Y-106060000D02*
X120000000Y-111490000D01*
X116141600Y-74221600D02*
X117780000Y-75860000D01*
X120000000Y-116980000D02*
X116345600Y-120634400D01*
X129000000Y-96740000D02*
X129000000Y-100980000D01*
X114546800Y-127833200D02*
X112184600Y-127833200D01*
X128000000Y-82979900D02*
X128000000Y-82980000D01*
X87145600Y-92985600D02*
X86030000Y-91870000D01*
X116141600Y-73630300D02*
X116141600Y-74221600D01*
X110655200Y-68655200D02*
X94385200Y-68655200D01*
X116510000Y-125870000D02*
X114546800Y-127833200D01*
X120000000Y-111490000D02*
X120000000Y-116980000D01*
X128000000Y-83516100D02*
X128000000Y-82980000D01*
X116345600Y-125705600D02*
X116510000Y-125870000D01*
X123804100Y-82979900D02*
X128000000Y-82979900D01*
X93650000Y-91870000D02*
X92534400Y-92985600D01*
X94385200Y-68655200D02*
X93000000Y-67270000D01*
%TO.N,A15*%
X116947300Y-123103200D02*
X121808200Y-127964100D01*
X111291700Y-106229000D02*
X112888200Y-107825500D01*
X121808200Y-127964100D02*
X121808200Y-132470100D01*
X99507800Y-107051800D02*
X101616900Y-104942700D01*
X121590000Y-136490000D02*
X121590000Y-132688300D01*
X121808200Y-132470100D02*
X121590000Y-132688300D01*
X114872600Y-107825500D02*
X114872600Y-107825600D01*
X111291700Y-105594100D02*
X111291700Y-106229000D01*
X112888200Y-107825500D02*
X114872600Y-107825500D01*
X101616900Y-104942700D02*
X110640300Y-104942700D01*
X110640300Y-104942700D02*
X111291700Y-105594100D01*
%TO.N,OPAMP_OUT*%
X126979800Y-68290200D02*
X119020200Y-68290200D01*
X117991700Y-67270000D02*
X112911700Y-62190000D01*
X111810000Y-62190000D02*
X110708300Y-62190000D01*
X118000000Y-67270000D02*
X117991700Y-67270000D01*
X108306000Y-64730000D02*
X110708300Y-62327700D01*
X98000000Y-64730000D02*
X108306000Y-64730000D01*
X111810000Y-62190000D02*
X112911700Y-62190000D01*
X110708300Y-62327700D02*
X110708300Y-62190000D01*
X119020200Y-68290200D02*
X118000000Y-67270000D01*
X128000000Y-67270000D02*
X126979800Y-68290200D01*
%TO.N,SUM_NODE*%
X107779500Y-63680500D02*
X109270000Y-62190000D01*
X123270000Y-73750000D02*
X122259400Y-72739400D01*
X96958500Y-66228500D02*
X96958500Y-64300400D01*
X118280600Y-72739400D02*
X117270000Y-73750000D01*
X97578400Y-63680500D02*
X107779500Y-63680500D01*
X96958500Y-64300400D02*
X97578400Y-63680500D01*
X122259400Y-72739400D02*
X118280600Y-72739400D01*
X98000000Y-67270000D02*
X96958500Y-66228500D01*
%TO.N,U5_UNUSED_FB*%
X109270000Y-69810000D02*
X106730000Y-69810000D01*
%TO.N,DA0*%
X120216100Y-96163200D02*
X122492900Y-98440000D01*
X122492900Y-98440000D02*
X122890000Y-98440000D01*
X120216100Y-95576100D02*
X120216100Y-96163200D01*
X116510000Y-91870000D02*
X120216100Y-95576100D01*
%TO.N,D0*%
X93956900Y-132178300D02*
X93650000Y-132485200D01*
X93650000Y-132485200D02*
X93650000Y-136490000D01*
%TO.N,D1*%
X89840000Y-132178300D02*
X90350000Y-132688300D01*
X90350000Y-132688300D02*
X91110000Y-132688300D01*
X91110000Y-136490000D02*
X91110000Y-132688300D01*
%TO.N,D2*%
X88570000Y-132561600D02*
X88570000Y-136490000D01*
X82356000Y-126347600D02*
X88570000Y-132561600D01*
X109025600Y-97275600D02*
X110190000Y-98440000D01*
X86654700Y-110005300D02*
X86654700Y-97957700D01*
X86030000Y-110630000D02*
X86654700Y-110005300D01*
X86030000Y-110630000D02*
X82356000Y-114304000D01*
X82356000Y-114304000D02*
X82356000Y-126347600D01*
X86654700Y-97957700D02*
X87336800Y-97275600D01*
X87336800Y-97275600D02*
X109025600Y-97275600D01*
%TO.N,D3*%
X97375800Y-112142400D02*
X83648200Y-125870000D01*
X83648200Y-125870000D02*
X83490000Y-125870000D01*
X107268800Y-98440000D02*
X97375800Y-108333000D01*
X107650000Y-98440000D02*
X107268800Y-98440000D01*
X97375800Y-108333000D02*
X97375800Y-112142400D01*
%TO.N,YM_LE*%
X86053000Y-108264000D02*
X84934000Y-108264000D01*
X84934000Y-108264000D02*
X82730000Y-106060000D01*
%TO.N,D4*%
X102371700Y-111131200D02*
X93813100Y-119689800D01*
X102371700Y-110495500D02*
X102371700Y-111131200D01*
X92210200Y-119689800D02*
X86030000Y-125870000D01*
X106807200Y-106060000D02*
X102371700Y-110495500D01*
X93813100Y-119689800D02*
X92210200Y-119689800D01*
X107650000Y-106060000D02*
X106807200Y-106060000D01*
%TO.N,D5*%
X104911700Y-111131200D02*
X96353100Y-119689800D01*
X109347200Y-106060000D02*
X104911700Y-110495500D01*
X96353100Y-119689800D02*
X94750200Y-119689800D01*
X110190000Y-106060000D02*
X109347200Y-106060000D01*
X104911700Y-110495500D02*
X104911700Y-111131200D01*
X94750200Y-119689800D02*
X88570000Y-125870000D01*
%TO.N,DA5*%
X103810000Y-91870000D02*
X105944900Y-94004900D01*
X111539900Y-98209300D02*
X111539900Y-104869900D01*
X107335500Y-94004900D02*
X111539900Y-98209300D01*
X111539900Y-104869900D02*
X112730000Y-106060000D01*
X105944900Y-94004900D02*
X107335500Y-94004900D01*
%TO.N,DA6*%
X112141600Y-102057200D02*
X112141600Y-102931600D01*
X112141600Y-102931600D02*
X115270000Y-106060000D01*
%TO.N,D6*%
X105417500Y-118250000D02*
X112700000Y-110967500D01*
X98730000Y-118250000D02*
X105417500Y-118250000D01*
X114599900Y-108427300D02*
X115442700Y-108427300D01*
X115442700Y-108427300D02*
X117810000Y-106060000D01*
X91110000Y-125870000D02*
X98730000Y-118250000D01*
X112700000Y-110327200D02*
X114599900Y-108427300D01*
X112700000Y-110967500D02*
X112700000Y-110327200D01*
%TO.N,D7*%
X115381600Y-109696900D02*
X115381600Y-110840600D01*
X116563700Y-108514800D02*
X115381600Y-109696900D01*
X117895200Y-108514800D02*
X116563700Y-108514800D01*
X113706500Y-112246300D02*
X106263000Y-119689800D01*
X113975900Y-112246300D02*
X113706500Y-112246300D01*
X93714300Y-125870000D02*
X93650000Y-125870000D01*
X106263000Y-119689800D02*
X99894500Y-119689800D01*
X99894500Y-119689800D02*
X93714300Y-125870000D01*
X120350000Y-106060000D02*
X117895200Y-108514800D01*
X115381600Y-110840600D02*
X113975900Y-112246300D01*
%TO.N,DA7*%
X107620000Y-91538800D02*
X107620000Y-92165000D01*
X112261000Y-96404500D02*
X114000000Y-98143500D01*
X118929300Y-103689800D02*
X120519800Y-103689800D01*
X107620000Y-92165000D02*
X111859500Y-96404500D01*
X111859500Y-96404500D02*
X112261000Y-96404500D01*
X114000000Y-98143500D02*
X114000000Y-98760500D01*
X106832100Y-90750900D02*
X107620000Y-91538800D01*
X120519800Y-103689800D02*
X122890000Y-106060000D01*
X99849100Y-90750900D02*
X106832100Y-90750900D01*
X114000000Y-98760500D02*
X118929300Y-103689800D01*
X98730000Y-91870000D02*
X99849100Y-90750900D01*
%TO.N,RESET_DELAYED*%
X84905800Y-93385800D02*
X82465800Y-93385800D01*
X87270000Y-95750000D02*
X84905800Y-93385800D01*
X82465800Y-93385800D02*
X80950000Y-91870000D01*
%TO.N,A12*%
X95074800Y-125425500D02*
X95074800Y-126509800D01*
X95074800Y-126509800D02*
X99347700Y-130782700D01*
X100341300Y-120159000D02*
X95074800Y-125425500D01*
X106644600Y-120159000D02*
X100341300Y-120159000D01*
X113955600Y-112848000D02*
X106644600Y-120159000D01*
%TO.N,A7*%
X113970000Y-132637700D02*
X113970000Y-136490000D01*
X113510600Y-132178300D02*
X113970000Y-132637700D01*
%TO.N,A6*%
X111430000Y-136490000D02*
X111430000Y-132688300D01*
X111291500Y-132688300D02*
X110781500Y-132178300D01*
X111430000Y-132688300D02*
X111291500Y-132688300D01*
%TO.N,A5*%
X108890000Y-132688300D02*
X108562400Y-132688300D01*
X108890000Y-136490000D02*
X108890000Y-132688300D01*
X108562400Y-132688300D02*
X108052400Y-132178300D01*
%TO.N,A4*%
X105187700Y-123312900D02*
X105187700Y-131526000D01*
X105187700Y-131526000D02*
X106350000Y-132688300D01*
X106678300Y-121822300D02*
X105187700Y-123312900D01*
X106350000Y-136490000D02*
X106350000Y-132688300D01*
%TO.N,A3*%
X103314200Y-132178300D02*
X103810000Y-132674100D01*
X103810000Y-132674100D02*
X103810000Y-136490000D01*
%TO.N,A2*%
X101270000Y-136490000D02*
X101270000Y-132688300D01*
X100585100Y-132178300D02*
X101095100Y-132688300D01*
X101095100Y-132688300D02*
X101270000Y-132688300D01*
%TO.N,A1*%
X98595100Y-132178300D02*
X98730000Y-132313200D01*
X98730000Y-132313200D02*
X98730000Y-136490000D01*
%TO.N,A0*%
X91495500Y-102125500D02*
X87810000Y-98440000D01*
X93650000Y-110630000D02*
X91495500Y-108475500D01*
X96190000Y-136490000D02*
X96190000Y-130391300D01*
X93784400Y-124166400D02*
X94566700Y-124166400D01*
X92541800Y-125409000D02*
X93784400Y-124166400D01*
X92541800Y-126743100D02*
X92541800Y-125409000D01*
X94566700Y-124166400D02*
X94566700Y-124166300D01*
X96190000Y-130391300D02*
X92541800Y-126743100D01*
X91495500Y-108475500D02*
X91495500Y-102125500D01*
%TO.N,ROM_CE*%
X92890000Y-106060000D02*
X92890000Y-107957600D01*
X94751700Y-109819300D02*
X94751700Y-110802500D01*
X94751700Y-110802500D02*
X96029500Y-112080300D01*
X96029500Y-112080300D02*
X96587000Y-112080300D01*
X92890000Y-107957600D02*
X94751700Y-109819300D01*
%TO.N,A13*%
X118335000Y-130429200D02*
X118335000Y-132178300D01*
X117540000Y-129634200D02*
X118335000Y-130429200D01*
X111430000Y-128028600D02*
X113035600Y-129634200D01*
X111430000Y-125870000D02*
X111430000Y-128028600D01*
X113035600Y-129634200D02*
X117540000Y-129634200D01*
%TO.N,A14*%
X109211500Y-121111500D02*
X113970000Y-125870000D01*
X90350000Y-98440000D02*
X94305600Y-102395600D01*
X94305600Y-108522400D02*
X95296600Y-109513400D01*
X104377500Y-121111500D02*
X109211500Y-121111500D01*
X94305600Y-102395600D02*
X94305600Y-108522400D01*
%TO.N,CAP_PLUS*%
X120540000Y-67270000D02*
X123000000Y-67270000D01*
X118000000Y-64730000D02*
X120540000Y-67270000D01*
%TO.N,PHI2*%
X78920000Y-99710000D02*
X78920000Y-132178300D01*
X78410000Y-136490000D02*
X78410000Y-132688300D01*
X80190000Y-98440000D02*
X78920000Y-99710000D01*
X78920000Y-132178300D02*
X78410000Y-132688300D01*
%TO.N,BC1*%
X96190000Y-91870000D02*
X91655700Y-96404300D01*
X91655700Y-96404300D02*
X89786500Y-96404300D01*
%TO.N,OPAMP_OUT_AC*%
X121192300Y-131776000D02*
X120280000Y-132688300D01*
X120280000Y-132688300D02*
X119050000Y-132688300D01*
X119050000Y-136490000D02*
X119050000Y-132688300D01*
%TD*%
%TA.AperFunction,Conductor*%
%TO.N,GND*%
G36*
X131778326Y-60221674D02*
G01*
X131800000Y-60274000D01*
X131800000Y-115636506D01*
X131778326Y-115688832D01*
X131438832Y-116028326D01*
X131386506Y-116050000D01*
X131300000Y-116050000D01*
X123800000Y-116050000D01*
X123786994Y-116051281D01*
X123760980Y-116053843D01*
X123738218Y-116060748D01*
X123723463Y-116065224D01*
X123723461Y-116065224D01*
X123723461Y-116065225D01*
X123688887Y-116083705D01*
X123688883Y-116083708D01*
X123658579Y-116108579D01*
X123633708Y-116138883D01*
X123633705Y-116138887D01*
X123615225Y-116173461D01*
X123603843Y-116210980D01*
X123600000Y-116250001D01*
X123600000Y-139726000D01*
X123578326Y-139778326D01*
X123526000Y-139800000D01*
X122864500Y-139800000D01*
X122812174Y-139778326D01*
X122790500Y-139726000D01*
X122790500Y-132970246D01*
X122790356Y-132968783D01*
X122790000Y-132961536D01*
X122790000Y-132790000D01*
X122618464Y-132790000D01*
X122611217Y-132789644D01*
X122609754Y-132789500D01*
X122609748Y-132789500D01*
X122092423Y-132789500D01*
X122040097Y-132767826D01*
X122018423Y-132715500D01*
X122040097Y-132663174D01*
X122040300Y-132662971D01*
X122048660Y-132654611D01*
X122072280Y-132613700D01*
X122088221Y-132586089D01*
X122108699Y-132509664D01*
X122108700Y-132509664D01*
X122108700Y-127924537D01*
X122105251Y-127911667D01*
X122098354Y-127885927D01*
X122098354Y-127885925D01*
X122088223Y-127848116D01*
X122088222Y-127848112D01*
X122048660Y-127779589D01*
X117469474Y-123200403D01*
X117447800Y-123148077D01*
X117447800Y-123037306D01*
X117447799Y-123037305D01*
X117413693Y-122910018D01*
X117413692Y-122910014D01*
X117347800Y-122795886D01*
X117254614Y-122702700D01*
X117248500Y-122699170D01*
X117140490Y-122636810D01*
X117140481Y-122636806D01*
X117013194Y-122602700D01*
X117013192Y-122602700D01*
X116881408Y-122602700D01*
X116881406Y-122602700D01*
X116754118Y-122636806D01*
X116749629Y-122638666D01*
X116748612Y-122636211D01*
X116700907Y-122642465D01*
X116655993Y-122607961D01*
X116646100Y-122570997D01*
X116646100Y-120789522D01*
X116667773Y-120737197D01*
X119576324Y-117828645D01*
X119628649Y-117806972D01*
X119656964Y-117812604D01*
X119737334Y-117845894D01*
X119911309Y-117880500D01*
X119911311Y-117880500D01*
X120088689Y-117880500D01*
X120088691Y-117880500D01*
X120262666Y-117845894D01*
X120426547Y-117778013D01*
X120574035Y-117679464D01*
X120699464Y-117554035D01*
X120798013Y-117406547D01*
X120865894Y-117242666D01*
X120900500Y-117068691D01*
X120900500Y-116891309D01*
X120865894Y-116717334D01*
X120798013Y-116553453D01*
X120699464Y-116405965D01*
X120574035Y-116280536D01*
X120574031Y-116280533D01*
X120426546Y-116181986D01*
X120346181Y-116148698D01*
X120306133Y-116108649D01*
X120300500Y-116080331D01*
X120300500Y-111645122D01*
X120322173Y-111592797D01*
X124929787Y-106985182D01*
X124982112Y-106963509D01*
X125010430Y-106969142D01*
X125129498Y-107018461D01*
X125138165Y-107022051D01*
X125331459Y-107060500D01*
X125331461Y-107060500D01*
X125528539Y-107060500D01*
X125528541Y-107060500D01*
X125721835Y-107022051D01*
X125903914Y-106946632D01*
X126067782Y-106837139D01*
X126207139Y-106697782D01*
X126316632Y-106533914D01*
X126392051Y-106351835D01*
X126430500Y-106158541D01*
X126430500Y-105961459D01*
X126392051Y-105768165D01*
X126316632Y-105586086D01*
X126207139Y-105422218D01*
X126067782Y-105282861D01*
X126029227Y-105257099D01*
X125903913Y-105173367D01*
X125721839Y-105097950D01*
X125721829Y-105097947D01*
X125592388Y-105072200D01*
X125528541Y-105059500D01*
X125331459Y-105059500D01*
X125276662Y-105070399D01*
X125138170Y-105097947D01*
X125138160Y-105097950D01*
X124956086Y-105173367D01*
X124792218Y-105282860D01*
X124792217Y-105282862D01*
X124652862Y-105422217D01*
X124652860Y-105422218D01*
X124543367Y-105586086D01*
X124467950Y-105768160D01*
X124467947Y-105768170D01*
X124429500Y-105961460D01*
X124429500Y-106158539D01*
X124467947Y-106351829D01*
X124467950Y-106351839D01*
X124520857Y-106479567D01*
X124520857Y-106536204D01*
X124504816Y-106560211D01*
X119815489Y-111249540D01*
X119759540Y-111305488D01*
X119719979Y-111374009D01*
X119719977Y-111374014D01*
X119699500Y-111450435D01*
X119699500Y-116080331D01*
X119677826Y-116132657D01*
X119653819Y-116148698D01*
X119573453Y-116181986D01*
X119425968Y-116280533D01*
X119300533Y-116405968D01*
X119201985Y-116553455D01*
X119134107Y-116717329D01*
X119134104Y-116717339D01*
X119099500Y-116891310D01*
X119099500Y-117068689D01*
X119134104Y-117242660D01*
X119134105Y-117242662D01*
X119134106Y-117242666D01*
X119134108Y-117242670D01*
X119167394Y-117323032D01*
X119167393Y-117379669D01*
X119151352Y-117403675D01*
X116161089Y-120393940D01*
X116105140Y-120449888D01*
X116065579Y-120518409D01*
X116065577Y-120518414D01*
X116045100Y-120594835D01*
X116045100Y-124937791D01*
X116023426Y-124990117D01*
X116012212Y-124999320D01*
X115872218Y-125092860D01*
X115872217Y-125092862D01*
X115732862Y-125232217D01*
X115732860Y-125232218D01*
X115623367Y-125396086D01*
X115547950Y-125578160D01*
X115547947Y-125578170D01*
X115525278Y-125692139D01*
X115509500Y-125771459D01*
X115509500Y-125968541D01*
X115519972Y-126021185D01*
X115547947Y-126161829D01*
X115547950Y-126161839D01*
X115600857Y-126289567D01*
X115600857Y-126346204D01*
X115584816Y-126370211D01*
X114444003Y-127511026D01*
X114391677Y-127532700D01*
X112622566Y-127532700D01*
X112570240Y-127511026D01*
X112491914Y-127432700D01*
X112377790Y-127366810D01*
X112377781Y-127366806D01*
X112250494Y-127332700D01*
X112250492Y-127332700D01*
X112118708Y-127332700D01*
X112118706Y-127332700D01*
X111991418Y-127366806D01*
X111991409Y-127366810D01*
X111877285Y-127432700D01*
X111856826Y-127453160D01*
X111804500Y-127474834D01*
X111752174Y-127453160D01*
X111730500Y-127400834D01*
X111730500Y-126877906D01*
X111752174Y-126825580D01*
X111776180Y-126809539D01*
X111903914Y-126756632D01*
X112067782Y-126647139D01*
X112207139Y-126507782D01*
X112316632Y-126343914D01*
X112392051Y-126161835D01*
X112430500Y-125968541D01*
X112430500Y-125771459D01*
X112392051Y-125578165D01*
X112316632Y-125396086D01*
X112207139Y-125232218D01*
X112067782Y-125092861D01*
X111959572Y-125020557D01*
X111903913Y-124983367D01*
X111721839Y-124907950D01*
X111721829Y-124907947D01*
X111584947Y-124880720D01*
X111528541Y-124869500D01*
X111331459Y-124869500D01*
X111276662Y-124880399D01*
X111138170Y-124907947D01*
X111138160Y-124907950D01*
X110956086Y-124983367D01*
X110792218Y-125092860D01*
X110792217Y-125092862D01*
X110652862Y-125232217D01*
X110652860Y-125232218D01*
X110543367Y-125396086D01*
X110467950Y-125578160D01*
X110467947Y-125578170D01*
X110445278Y-125692139D01*
X110429500Y-125771459D01*
X110429500Y-125968541D01*
X110439972Y-126021185D01*
X110467947Y-126161829D01*
X110467950Y-126161839D01*
X110543367Y-126343913D01*
X110623330Y-126463585D01*
X110652861Y-126507782D01*
X110792218Y-126647139D01*
X110956086Y-126756632D01*
X111083818Y-126809539D01*
X111123867Y-126849587D01*
X111129500Y-126877906D01*
X111129500Y-128068164D01*
X111149977Y-128144585D01*
X111149979Y-128144590D01*
X111189540Y-128213111D01*
X112795140Y-129818711D01*
X112851089Y-129874660D01*
X112919611Y-129914221D01*
X112919612Y-129914221D01*
X112919614Y-129914222D01*
X112957824Y-129924460D01*
X112996035Y-129934699D01*
X112996036Y-129934700D01*
X112996038Y-129934700D01*
X117384877Y-129934700D01*
X117437203Y-129956374D01*
X117454503Y-129973674D01*
X117476177Y-130026000D01*
X117454503Y-130078326D01*
X117402177Y-130100000D01*
X115310001Y-130100000D01*
X115310000Y-130100000D01*
X115296994Y-130101281D01*
X115270980Y-130103843D01*
X115248218Y-130110748D01*
X115233463Y-130115224D01*
X115233461Y-130115224D01*
X115233461Y-130115225D01*
X115198887Y-130133705D01*
X115198883Y-130133708D01*
X115168579Y-130158579D01*
X115143708Y-130188883D01*
X115143705Y-130188887D01*
X115125225Y-130223461D01*
X115113843Y-130260980D01*
X115110000Y-130300001D01*
X115110000Y-132716000D01*
X115088326Y-132768326D01*
X115036000Y-132790000D01*
X114998464Y-132790000D01*
X114991217Y-132789644D01*
X114989754Y-132789500D01*
X114989748Y-132789500D01*
X114344500Y-132789500D01*
X114292174Y-132767826D01*
X114270500Y-132715500D01*
X114270500Y-132598140D01*
X114270500Y-132598138D01*
X114250022Y-132521712D01*
X114210460Y-132453189D01*
X114032774Y-132275503D01*
X114011100Y-132223177D01*
X114011100Y-132112406D01*
X114011099Y-132112405D01*
X113976993Y-131985118D01*
X113976992Y-131985114D01*
X113911100Y-131870986D01*
X113817914Y-131777800D01*
X113753021Y-131740334D01*
X113703790Y-131711910D01*
X113703781Y-131711906D01*
X113576494Y-131677800D01*
X113576492Y-131677800D01*
X113444708Y-131677800D01*
X113444706Y-131677800D01*
X113317418Y-131711906D01*
X113317409Y-131711910D01*
X113203285Y-131777800D01*
X113110100Y-131870985D01*
X113044210Y-131985109D01*
X113044206Y-131985118D01*
X113010100Y-132112405D01*
X113010100Y-132244194D01*
X113044206Y-132371481D01*
X113044210Y-132371490D01*
X113065451Y-132408280D01*
X113110100Y-132485614D01*
X113203286Y-132578800D01*
X113317414Y-132644692D01*
X113317420Y-132644693D01*
X113321892Y-132646546D01*
X113321002Y-132648693D01*
X113359847Y-132678502D01*
X113367238Y-132734655D01*
X113332758Y-132779587D01*
X113295760Y-132789500D01*
X112950246Y-132789500D01*
X112948783Y-132789644D01*
X112941536Y-132790000D01*
X112770000Y-132790000D01*
X112752326Y-132807674D01*
X112700000Y-132829348D01*
X112647674Y-132807674D01*
X112630000Y-132790000D01*
X112458464Y-132790000D01*
X112451217Y-132789644D01*
X112449754Y-132789500D01*
X112449748Y-132789500D01*
X111804500Y-132789500D01*
X111752174Y-132767826D01*
X111730500Y-132715500D01*
X111730500Y-132648736D01*
X111730499Y-132648735D01*
X111729912Y-132646546D01*
X111716942Y-132598140D01*
X111710022Y-132572314D01*
X111710020Y-132572309D01*
X111673852Y-132509664D01*
X111670460Y-132503789D01*
X111614511Y-132447840D01*
X111575237Y-132425165D01*
X111545990Y-132408279D01*
X111545985Y-132408277D01*
X111469564Y-132387800D01*
X111469562Y-132387800D01*
X111446623Y-132387800D01*
X111394297Y-132366126D01*
X111303674Y-132275503D01*
X111282000Y-132223177D01*
X111282000Y-132112406D01*
X111281999Y-132112405D01*
X111247893Y-131985118D01*
X111247892Y-131985114D01*
X111182000Y-131870986D01*
X111088814Y-131777800D01*
X111023921Y-131740334D01*
X110974690Y-131711910D01*
X110974681Y-131711906D01*
X110847394Y-131677800D01*
X110847392Y-131677800D01*
X110715608Y-131677800D01*
X110715606Y-131677800D01*
X110588318Y-131711906D01*
X110588309Y-131711910D01*
X110474185Y-131777800D01*
X110381000Y-131870985D01*
X110315110Y-131985109D01*
X110315106Y-131985118D01*
X110281000Y-132112405D01*
X110281000Y-132244194D01*
X110315106Y-132371481D01*
X110315110Y-132371490D01*
X110336351Y-132408280D01*
X110381000Y-132485614D01*
X110474186Y-132578800D01*
X110588314Y-132644692D01*
X110588320Y-132644693D01*
X110592792Y-132646546D01*
X110591902Y-132648693D01*
X110630747Y-132678502D01*
X110638138Y-132734655D01*
X110603658Y-132779587D01*
X110566660Y-132789500D01*
X110410246Y-132789500D01*
X110408783Y-132789644D01*
X110401536Y-132790000D01*
X110230000Y-132790000D01*
X110212326Y-132807674D01*
X110160000Y-132829348D01*
X110107674Y-132807674D01*
X110090000Y-132790000D01*
X109918464Y-132790000D01*
X109911217Y-132789644D01*
X109909754Y-132789500D01*
X109909748Y-132789500D01*
X109264500Y-132789500D01*
X109212174Y-132767826D01*
X109190500Y-132715500D01*
X109190500Y-132648736D01*
X109190499Y-132648735D01*
X109189912Y-132646546D01*
X109176942Y-132598140D01*
X109170022Y-132572314D01*
X109170020Y-132572309D01*
X109133852Y-132509664D01*
X109130460Y-132503789D01*
X109074511Y-132447840D01*
X109035237Y-132425165D01*
X109005990Y-132408279D01*
X109005985Y-132408277D01*
X108929564Y-132387800D01*
X108929562Y-132387800D01*
X108717523Y-132387800D01*
X108665197Y-132366126D01*
X108574574Y-132275503D01*
X108552900Y-132223177D01*
X108552900Y-132112406D01*
X108552899Y-132112405D01*
X108518793Y-131985118D01*
X108518792Y-131985114D01*
X108452900Y-131870986D01*
X108359714Y-131777800D01*
X108294821Y-131740334D01*
X108245590Y-131711910D01*
X108245581Y-131711906D01*
X108118294Y-131677800D01*
X108118292Y-131677800D01*
X107986508Y-131677800D01*
X107986506Y-131677800D01*
X107859218Y-131711906D01*
X107859209Y-131711910D01*
X107745085Y-131777800D01*
X107651900Y-131870985D01*
X107586010Y-131985109D01*
X107586006Y-131985118D01*
X107551900Y-132112405D01*
X107551900Y-132244194D01*
X107586006Y-132371481D01*
X107586010Y-132371490D01*
X107607251Y-132408280D01*
X107651900Y-132485614D01*
X107745086Y-132578800D01*
X107859214Y-132644692D01*
X107859220Y-132644693D01*
X107863692Y-132646546D01*
X107863095Y-132647986D01*
X107903513Y-132679001D01*
X107910904Y-132735154D01*
X107876425Y-132780087D01*
X107839426Y-132790000D01*
X107690000Y-132790000D01*
X107672326Y-132807674D01*
X107620000Y-132829348D01*
X107567674Y-132807674D01*
X107550000Y-132790000D01*
X107378464Y-132790000D01*
X107371217Y-132789644D01*
X107369754Y-132789500D01*
X107369748Y-132789500D01*
X106724500Y-132789500D01*
X106672174Y-132767826D01*
X106650500Y-132715500D01*
X106650500Y-132648736D01*
X106650499Y-132648735D01*
X106649912Y-132646546D01*
X106636942Y-132598140D01*
X106630022Y-132572314D01*
X106630020Y-132572309D01*
X106593852Y-132509664D01*
X106590460Y-132503789D01*
X106534511Y-132447840D01*
X105509874Y-131423203D01*
X105488200Y-131370877D01*
X105488200Y-126601773D01*
X105509874Y-126549447D01*
X105562200Y-126527773D01*
X105614526Y-126549447D01*
X105712218Y-126647139D01*
X105876086Y-126756632D01*
X106050620Y-126828926D01*
X106058165Y-126832051D01*
X106251459Y-126870500D01*
X106251461Y-126870500D01*
X106448539Y-126870500D01*
X106448541Y-126870500D01*
X106641835Y-126832051D01*
X106823914Y-126756632D01*
X106987782Y-126647139D01*
X107127139Y-126507782D01*
X107236632Y-126343914D01*
X107312051Y-126161835D01*
X107350500Y-125968541D01*
X107350500Y-125771459D01*
X107889500Y-125771459D01*
X107889500Y-125968541D01*
X107899972Y-126021185D01*
X107927947Y-126161829D01*
X107927950Y-126161839D01*
X108003367Y-126343913D01*
X108112860Y-126507781D01*
X108252218Y-126647139D01*
X108416086Y-126756632D01*
X108590620Y-126828926D01*
X108598165Y-126832051D01*
X108791459Y-126870500D01*
X108791461Y-126870500D01*
X108988539Y-126870500D01*
X108988541Y-126870500D01*
X109181835Y-126832051D01*
X109363914Y-126756632D01*
X109527782Y-126647139D01*
X109667139Y-126507782D01*
X109776632Y-126343914D01*
X109852051Y-126161835D01*
X109890500Y-125968541D01*
X109890500Y-125771459D01*
X109852051Y-125578165D01*
X109776632Y-125396086D01*
X109667139Y-125232218D01*
X109527782Y-125092861D01*
X109419572Y-125020557D01*
X109363913Y-124983367D01*
X109181839Y-124907950D01*
X109181829Y-124907947D01*
X109044947Y-124880720D01*
X108988541Y-124869500D01*
X108791459Y-124869500D01*
X108736662Y-124880399D01*
X108598170Y-124907947D01*
X108598160Y-124907950D01*
X108416086Y-124983367D01*
X108252218Y-125092860D01*
X108252217Y-125092862D01*
X108112862Y-125232217D01*
X108112860Y-125232218D01*
X108003367Y-125396086D01*
X107927950Y-125578160D01*
X107927947Y-125578170D01*
X107905278Y-125692139D01*
X107889500Y-125771459D01*
X107350500Y-125771459D01*
X107312051Y-125578165D01*
X107236632Y-125396086D01*
X107127139Y-125232218D01*
X106987782Y-125092861D01*
X106879572Y-125020557D01*
X106823913Y-124983367D01*
X106641839Y-124907950D01*
X106641829Y-124907947D01*
X106504947Y-124880720D01*
X106448541Y-124869500D01*
X106251459Y-124869500D01*
X106196662Y-124880399D01*
X106058170Y-124907947D01*
X106058160Y-124907950D01*
X105876086Y-124983367D01*
X105712218Y-125092860D01*
X105712217Y-125092862D01*
X105614526Y-125190553D01*
X105562200Y-125212227D01*
X105509874Y-125190553D01*
X105488200Y-125138227D01*
X105488200Y-123468022D01*
X105509873Y-123415697D01*
X106581096Y-122344473D01*
X106633422Y-122322800D01*
X106744194Y-122322800D01*
X106744194Y-122322799D01*
X106871486Y-122288692D01*
X106985614Y-122222800D01*
X107078800Y-122129614D01*
X107144692Y-122015486D01*
X107178799Y-121888194D01*
X107178800Y-121888194D01*
X107178800Y-121756406D01*
X107178799Y-121756405D01*
X107144693Y-121629118D01*
X107144692Y-121629114D01*
X107083427Y-121523000D01*
X107076034Y-121466847D01*
X107110513Y-121421914D01*
X107147513Y-121412000D01*
X109056377Y-121412000D01*
X109108703Y-121433674D01*
X113044816Y-125369787D01*
X113066490Y-125422113D01*
X113060857Y-125450431D01*
X113007950Y-125578160D01*
X113007947Y-125578170D01*
X112985278Y-125692139D01*
X112969500Y-125771459D01*
X112969500Y-125968541D01*
X112979972Y-126021185D01*
X113007947Y-126161829D01*
X113007950Y-126161839D01*
X113083367Y-126343913D01*
X113192860Y-126507781D01*
X113332218Y-126647139D01*
X113496086Y-126756632D01*
X113670620Y-126828926D01*
X113678165Y-126832051D01*
X113871459Y-126870500D01*
X113871461Y-126870500D01*
X114068539Y-126870500D01*
X114068541Y-126870500D01*
X114261835Y-126832051D01*
X114443914Y-126756632D01*
X114607782Y-126647139D01*
X114747139Y-126507782D01*
X114856632Y-126343914D01*
X114932051Y-126161835D01*
X114970500Y-125968541D01*
X114970500Y-125771459D01*
X114932051Y-125578165D01*
X114856632Y-125396086D01*
X114747139Y-125232218D01*
X114607782Y-125092861D01*
X114499572Y-125020557D01*
X114443913Y-124983367D01*
X114261839Y-124907950D01*
X114261829Y-124907947D01*
X114124947Y-124880720D01*
X114068541Y-124869500D01*
X113871459Y-124869500D01*
X113816662Y-124880399D01*
X113678170Y-124907947D01*
X113678160Y-124907950D01*
X113550431Y-124960857D01*
X113493794Y-124960857D01*
X113469787Y-124944816D01*
X109396011Y-120871040D01*
X109386566Y-120865587D01*
X109327490Y-120831479D01*
X109327485Y-120831477D01*
X109251064Y-120811000D01*
X109251062Y-120811000D01*
X104815466Y-120811000D01*
X104763140Y-120789326D01*
X104684814Y-120711000D01*
X104570690Y-120645110D01*
X104570681Y-120645106D01*
X104443394Y-120611000D01*
X104443392Y-120611000D01*
X104311608Y-120611000D01*
X104311606Y-120611000D01*
X104184318Y-120645106D01*
X104184309Y-120645110D01*
X104070185Y-120711000D01*
X103977000Y-120804185D01*
X103911110Y-120918309D01*
X103911106Y-120918318D01*
X103877000Y-121045605D01*
X103877000Y-121177394D01*
X103911106Y-121304681D01*
X103911107Y-121304684D01*
X103911108Y-121304686D01*
X103977000Y-121418814D01*
X104070186Y-121512000D01*
X104184314Y-121577892D01*
X104311605Y-121611999D01*
X104311606Y-121612000D01*
X104311608Y-121612000D01*
X104443394Y-121612000D01*
X104443394Y-121611999D01*
X104570686Y-121577892D01*
X104684814Y-121512000D01*
X104763140Y-121433674D01*
X104815466Y-121412000D01*
X106209087Y-121412000D01*
X106261413Y-121433674D01*
X106283087Y-121486000D01*
X106273173Y-121523000D01*
X106211910Y-121629109D01*
X106211906Y-121629118D01*
X106177800Y-121756405D01*
X106177800Y-121867176D01*
X106156126Y-121919502D01*
X105003189Y-123072440D01*
X104947240Y-123128388D01*
X104907679Y-123196909D01*
X104907677Y-123196914D01*
X104887200Y-123273335D01*
X104887200Y-125484136D01*
X104865526Y-125536462D01*
X104813200Y-125558136D01*
X104760874Y-125536462D01*
X104744833Y-125512454D01*
X104696632Y-125396086D01*
X104587139Y-125232218D01*
X104447781Y-125092860D01*
X104283913Y-124983367D01*
X104101839Y-124907950D01*
X104101829Y-124907947D01*
X103964947Y-124880720D01*
X103908541Y-124869500D01*
X103711459Y-124869500D01*
X103656662Y-124880399D01*
X103518170Y-124907947D01*
X103518160Y-124907950D01*
X103336086Y-124983367D01*
X103172218Y-125092860D01*
X103172217Y-125092862D01*
X103032862Y-125232217D01*
X103032860Y-125232218D01*
X102923367Y-125396086D01*
X102847950Y-125578160D01*
X102847947Y-125578170D01*
X102825278Y-125692139D01*
X102809500Y-125771459D01*
X102809500Y-125968541D01*
X102819972Y-126021185D01*
X102847947Y-126161829D01*
X102847950Y-126161839D01*
X102923367Y-126343913D01*
X103032860Y-126507781D01*
X103172218Y-126647139D01*
X103336086Y-126756632D01*
X103510620Y-126828926D01*
X103518165Y-126832051D01*
X103711459Y-126870500D01*
X103711461Y-126870500D01*
X103908539Y-126870500D01*
X103908541Y-126870500D01*
X104101835Y-126832051D01*
X104283914Y-126756632D01*
X104447782Y-126647139D01*
X104587139Y-126507782D01*
X104696632Y-126343914D01*
X104744833Y-126227544D01*
X104784881Y-126187496D01*
X104841518Y-126187496D01*
X104881567Y-126227544D01*
X104887200Y-126255863D01*
X104887200Y-131565564D01*
X104907678Y-131641988D01*
X104946992Y-131710083D01*
X104947237Y-131710507D01*
X104947240Y-131710511D01*
X105899903Y-132663174D01*
X105921577Y-132715500D01*
X105899903Y-132767826D01*
X105847577Y-132789500D01*
X105330246Y-132789500D01*
X105328783Y-132789644D01*
X105321536Y-132790000D01*
X105150000Y-132790000D01*
X105132326Y-132807674D01*
X105080000Y-132829348D01*
X105027674Y-132807674D01*
X105010000Y-132790000D01*
X104838464Y-132790000D01*
X104831217Y-132789644D01*
X104829754Y-132789500D01*
X104829748Y-132789500D01*
X104184500Y-132789500D01*
X104132174Y-132767826D01*
X104110500Y-132715500D01*
X104110500Y-132634536D01*
X104110499Y-132634535D01*
X104090022Y-132558114D01*
X104090020Y-132558109D01*
X104069193Y-132522036D01*
X104050460Y-132489589D01*
X103994511Y-132433640D01*
X103836374Y-132275503D01*
X103814700Y-132223177D01*
X103814700Y-132112406D01*
X103814699Y-132112405D01*
X103780593Y-131985118D01*
X103780592Y-131985114D01*
X103714700Y-131870986D01*
X103621514Y-131777800D01*
X103556621Y-131740334D01*
X103507390Y-131711910D01*
X103507381Y-131711906D01*
X103380094Y-131677800D01*
X103380092Y-131677800D01*
X103248308Y-131677800D01*
X103248306Y-131677800D01*
X103121018Y-131711906D01*
X103121009Y-131711910D01*
X103006885Y-131777800D01*
X102913700Y-131870985D01*
X102847810Y-131985109D01*
X102847806Y-131985118D01*
X102813700Y-132112405D01*
X102813700Y-132244194D01*
X102847806Y-132371481D01*
X102847810Y-132371490D01*
X102869051Y-132408280D01*
X102913700Y-132485614D01*
X103006886Y-132578800D01*
X103121014Y-132644692D01*
X103121020Y-132644693D01*
X103125492Y-132646546D01*
X103124602Y-132648693D01*
X103163447Y-132678502D01*
X103170838Y-132734655D01*
X103136358Y-132779587D01*
X103099360Y-132789500D01*
X102790246Y-132789500D01*
X102788783Y-132789644D01*
X102781536Y-132790000D01*
X102610000Y-132790000D01*
X102592326Y-132807674D01*
X102540000Y-132829348D01*
X102487674Y-132807674D01*
X102470000Y-132790000D01*
X102298464Y-132790000D01*
X102291217Y-132789644D01*
X102289754Y-132789500D01*
X102289748Y-132789500D01*
X101644500Y-132789500D01*
X101592174Y-132767826D01*
X101570500Y-132715500D01*
X101570500Y-132648736D01*
X101570499Y-132648735D01*
X101569912Y-132646546D01*
X101556942Y-132598140D01*
X101550022Y-132572314D01*
X101550020Y-132572309D01*
X101513852Y-132509664D01*
X101510460Y-132503789D01*
X101454511Y-132447840D01*
X101415237Y-132425165D01*
X101385990Y-132408279D01*
X101385985Y-132408277D01*
X101309564Y-132387800D01*
X101309562Y-132387800D01*
X101250223Y-132387800D01*
X101197897Y-132366126D01*
X101107274Y-132275503D01*
X101085600Y-132223177D01*
X101085600Y-132112406D01*
X101085599Y-132112405D01*
X101051493Y-131985118D01*
X101051492Y-131985114D01*
X100985600Y-131870986D01*
X100892414Y-131777800D01*
X100827521Y-131740334D01*
X100778290Y-131711910D01*
X100778281Y-131711906D01*
X100650994Y-131677800D01*
X100650992Y-131677800D01*
X100519208Y-131677800D01*
X100519206Y-131677800D01*
X100391918Y-131711906D01*
X100391909Y-131711910D01*
X100277785Y-131777800D01*
X100184600Y-131870985D01*
X100118710Y-131985109D01*
X100118706Y-131985118D01*
X100084600Y-132112405D01*
X100084600Y-132244194D01*
X100118706Y-132371481D01*
X100118710Y-132371490D01*
X100139951Y-132408280D01*
X100184600Y-132485614D01*
X100277786Y-132578800D01*
X100391914Y-132644692D01*
X100391920Y-132644693D01*
X100396392Y-132646546D01*
X100395502Y-132648693D01*
X100404632Y-132655699D01*
X100422382Y-132662971D01*
X100426299Y-132672326D01*
X100434347Y-132678502D01*
X100436850Y-132697521D01*
X100444259Y-132715213D01*
X100440414Y-132724598D01*
X100441738Y-132734655D01*
X100430060Y-132749872D01*
X100422789Y-132767622D01*
X100413457Y-132771508D01*
X100407258Y-132779587D01*
X100370547Y-132789499D01*
X100370290Y-132789500D01*
X100250252Y-132789500D01*
X100247861Y-132789975D01*
X100241823Y-132789999D01*
X100241794Y-132789987D01*
X100241536Y-132790000D01*
X100070000Y-132790000D01*
X100052326Y-132807674D01*
X100000000Y-132829348D01*
X99947674Y-132807674D01*
X99930000Y-132790000D01*
X99758464Y-132790000D01*
X99751217Y-132789644D01*
X99749754Y-132789500D01*
X99749748Y-132789500D01*
X99104500Y-132789500D01*
X99052174Y-132767826D01*
X99030500Y-132715500D01*
X99030500Y-132444993D01*
X99040415Y-132407992D01*
X99058257Y-132377089D01*
X99061492Y-132371486D01*
X99095600Y-132244192D01*
X99095600Y-132112408D01*
X99095600Y-132112406D01*
X99095599Y-132112405D01*
X99061493Y-131985118D01*
X99061492Y-131985114D01*
X98995600Y-131870986D01*
X98902414Y-131777800D01*
X98837521Y-131740334D01*
X98788290Y-131711910D01*
X98788281Y-131711906D01*
X98660994Y-131677800D01*
X98660992Y-131677800D01*
X98529208Y-131677800D01*
X98529206Y-131677800D01*
X98401918Y-131711906D01*
X98401909Y-131711910D01*
X98287785Y-131777800D01*
X98194600Y-131870985D01*
X98128710Y-131985109D01*
X98128706Y-131985118D01*
X98094600Y-132112405D01*
X98094600Y-132244194D01*
X98128706Y-132371481D01*
X98128710Y-132371490D01*
X98149951Y-132408280D01*
X98194600Y-132485614D01*
X98287786Y-132578800D01*
X98392501Y-132639257D01*
X98398587Y-132647189D01*
X98407826Y-132651016D01*
X98415218Y-132668864D01*
X98426978Y-132684189D01*
X98429500Y-132703342D01*
X98429500Y-132715500D01*
X98407826Y-132767826D01*
X98355500Y-132789500D01*
X97710246Y-132789500D01*
X97708783Y-132789644D01*
X97701536Y-132790000D01*
X97530000Y-132790000D01*
X97512326Y-132807674D01*
X97460000Y-132829348D01*
X97407674Y-132807674D01*
X97390000Y-132790000D01*
X97218464Y-132790000D01*
X97211217Y-132789644D01*
X97209754Y-132789500D01*
X97209748Y-132789500D01*
X96564500Y-132789500D01*
X96512174Y-132767826D01*
X96490500Y-132715500D01*
X96490500Y-130351736D01*
X96490499Y-130351735D01*
X96470022Y-130275314D01*
X96470020Y-130275309D01*
X96452341Y-130244689D01*
X96430460Y-130206789D01*
X96374511Y-130150840D01*
X93104923Y-126881252D01*
X93083249Y-126828926D01*
X93104923Y-126776600D01*
X93157249Y-126754926D01*
X93185566Y-126760558D01*
X93238933Y-126782664D01*
X93350620Y-126828926D01*
X93358165Y-126832051D01*
X93551459Y-126870500D01*
X93551461Y-126870500D01*
X93748539Y-126870500D01*
X93748541Y-126870500D01*
X93941835Y-126832051D01*
X94123914Y-126756632D01*
X94287782Y-126647139D01*
X94427139Y-126507782D01*
X94536632Y-126343914D01*
X94612051Y-126161835D01*
X94627722Y-126083051D01*
X94659188Y-126035960D01*
X94714737Y-126024911D01*
X94761829Y-126056377D01*
X94774300Y-126097489D01*
X94774300Y-126549364D01*
X94794777Y-126625785D01*
X94794779Y-126625790D01*
X94834340Y-126694311D01*
X98825526Y-130685497D01*
X98847200Y-130737823D01*
X98847200Y-130848594D01*
X98881306Y-130975881D01*
X98881307Y-130975884D01*
X98881308Y-130975886D01*
X98947200Y-131090014D01*
X99040386Y-131183200D01*
X99154514Y-131249092D01*
X99281805Y-131283199D01*
X99281806Y-131283200D01*
X99281808Y-131283200D01*
X99413594Y-131283200D01*
X99413594Y-131283199D01*
X99540886Y-131249092D01*
X99655014Y-131183200D01*
X99748200Y-131090014D01*
X99814092Y-130975886D01*
X99848199Y-130848594D01*
X99848200Y-130848594D01*
X99848200Y-130716806D01*
X99848199Y-130716805D01*
X99814093Y-130589518D01*
X99814092Y-130589514D01*
X99748200Y-130475386D01*
X99655014Y-130382200D01*
X99540890Y-130316310D01*
X99540881Y-130316306D01*
X99413594Y-130282200D01*
X99413592Y-130282200D01*
X99302823Y-130282200D01*
X99250497Y-130260526D01*
X95975611Y-126985640D01*
X95953937Y-126933314D01*
X95975611Y-126880988D01*
X96027937Y-126859314D01*
X96042371Y-126860735D01*
X96091459Y-126870500D01*
X96091461Y-126870500D01*
X96288539Y-126870500D01*
X96288541Y-126870500D01*
X96481835Y-126832051D01*
X96663914Y-126756632D01*
X96827782Y-126647139D01*
X96967139Y-126507782D01*
X97076632Y-126343914D01*
X97152051Y-126161835D01*
X97190500Y-125968541D01*
X97190500Y-125771459D01*
X97729500Y-125771459D01*
X97729500Y-125968541D01*
X97739972Y-126021185D01*
X97767947Y-126161829D01*
X97767950Y-126161839D01*
X97843367Y-126343913D01*
X97952860Y-126507781D01*
X98092218Y-126647139D01*
X98256086Y-126756632D01*
X98430620Y-126828926D01*
X98438165Y-126832051D01*
X98631459Y-126870500D01*
X98631461Y-126870500D01*
X98828539Y-126870500D01*
X98828541Y-126870500D01*
X99021835Y-126832051D01*
X99203914Y-126756632D01*
X99367782Y-126647139D01*
X99507139Y-126507782D01*
X99616632Y-126343914D01*
X99692051Y-126161835D01*
X99730500Y-125968541D01*
X99730500Y-125771459D01*
X99692051Y-125578165D01*
X99616632Y-125396086D01*
X99507139Y-125232218D01*
X99367782Y-125092861D01*
X99259572Y-125020557D01*
X99203913Y-124983367D01*
X99021839Y-124907950D01*
X99021829Y-124907947D01*
X98884947Y-124880720D01*
X98828541Y-124869500D01*
X98631459Y-124869500D01*
X98576662Y-124880399D01*
X98438170Y-124907947D01*
X98438160Y-124907950D01*
X98256086Y-124983367D01*
X98092218Y-125092860D01*
X98092217Y-125092862D01*
X97952862Y-125232217D01*
X97952860Y-125232218D01*
X97843367Y-125396086D01*
X97767950Y-125578160D01*
X97767947Y-125578170D01*
X97745278Y-125692139D01*
X97729500Y-125771459D01*
X97190500Y-125771459D01*
X97152051Y-125578165D01*
X97076632Y-125396086D01*
X96967139Y-125232218D01*
X96827782Y-125092861D01*
X96719572Y-125020557D01*
X96663913Y-124983367D01*
X96481839Y-124907950D01*
X96481829Y-124907947D01*
X96344947Y-124880720D01*
X96288541Y-124869500D01*
X96234422Y-124869500D01*
X96182096Y-124847826D01*
X96160422Y-124795500D01*
X96182096Y-124743174D01*
X98282806Y-122642465D01*
X100444097Y-120481174D01*
X100496423Y-120459500D01*
X106684164Y-120459500D01*
X106684164Y-120459499D01*
X106760589Y-120439021D01*
X106829111Y-120399460D01*
X106885060Y-120343511D01*
X113858396Y-113370173D01*
X113910722Y-113348500D01*
X114021494Y-113348500D01*
X114021494Y-113348499D01*
X114148786Y-113314392D01*
X114262914Y-113248500D01*
X114356100Y-113155314D01*
X114421992Y-113041186D01*
X114456099Y-112913894D01*
X114456100Y-112913894D01*
X114456100Y-112782106D01*
X114456099Y-112782105D01*
X114421993Y-112654818D01*
X114421992Y-112654814D01*
X114356100Y-112540686D01*
X114283616Y-112468202D01*
X114261943Y-112415878D01*
X114283616Y-112363553D01*
X115383175Y-111263995D01*
X115435500Y-111242322D01*
X115487826Y-111263996D01*
X115509500Y-111316322D01*
X115509500Y-111449748D01*
X115514143Y-111473090D01*
X115521133Y-111508232D01*
X115538023Y-111533509D01*
X115565448Y-111574552D01*
X115592752Y-111592796D01*
X115631767Y-111618866D01*
X115631768Y-111618866D01*
X115631769Y-111618867D01*
X115690252Y-111630500D01*
X115690254Y-111630500D01*
X117329746Y-111630500D01*
X117329748Y-111630500D01*
X117388231Y-111618867D01*
X117454552Y-111574552D01*
X117498867Y-111508231D01*
X117510500Y-111449748D01*
X117510500Y-109810252D01*
X117498867Y-109751769D01*
X117490855Y-109739779D01*
X117458075Y-109690721D01*
X117454552Y-109685448D01*
X117413799Y-109658217D01*
X117388232Y-109641133D01*
X117388233Y-109641133D01*
X117358989Y-109635316D01*
X117329748Y-109629500D01*
X117329746Y-109629500D01*
X116052623Y-109629500D01*
X116000297Y-109607826D01*
X115978623Y-109555500D01*
X116000297Y-109503174D01*
X116666497Y-108836974D01*
X116718823Y-108815300D01*
X117934764Y-108815300D01*
X117934764Y-108815299D01*
X118011189Y-108794821D01*
X118079711Y-108755260D01*
X118135660Y-108699311D01*
X119849787Y-106985182D01*
X119902112Y-106963509D01*
X119930430Y-106969142D01*
X120049498Y-107018461D01*
X120058165Y-107022051D01*
X120251459Y-107060500D01*
X120251461Y-107060500D01*
X120448539Y-107060500D01*
X120448541Y-107060500D01*
X120641835Y-107022051D01*
X120823914Y-106946632D01*
X120987782Y-106837139D01*
X121127139Y-106697782D01*
X121236632Y-106533914D01*
X121312051Y-106351835D01*
X121350500Y-106158541D01*
X121350500Y-105961459D01*
X121312051Y-105768165D01*
X121236632Y-105586086D01*
X121127139Y-105422218D01*
X120987782Y-105282861D01*
X120949227Y-105257099D01*
X120823913Y-105173367D01*
X120641839Y-105097950D01*
X120641829Y-105097947D01*
X120512388Y-105072200D01*
X120448541Y-105059500D01*
X120251459Y-105059500D01*
X120196662Y-105070399D01*
X120058170Y-105097947D01*
X120058160Y-105097950D01*
X119876086Y-105173367D01*
X119712218Y-105282860D01*
X119712217Y-105282862D01*
X119572862Y-105422217D01*
X119572860Y-105422218D01*
X119463367Y-105586086D01*
X119387950Y-105768160D01*
X119387947Y-105768170D01*
X119349500Y-105961460D01*
X119349500Y-106158539D01*
X119387947Y-106351829D01*
X119387950Y-106351839D01*
X119440857Y-106479567D01*
X119440857Y-106536204D01*
X119424816Y-106560211D01*
X117792403Y-108192626D01*
X117740077Y-108214300D01*
X116524136Y-108214300D01*
X116447714Y-108234777D01*
X116447709Y-108234779D01*
X116407318Y-108258100D01*
X116379188Y-108274340D01*
X115141140Y-109512388D01*
X115101579Y-109580909D01*
X115101577Y-109580914D01*
X115081100Y-109657335D01*
X115081100Y-110336149D01*
X115059426Y-110388475D01*
X115007100Y-110410149D01*
X114954774Y-110388475D01*
X114934522Y-110350587D01*
X114934221Y-110349074D01*
X114932051Y-110338165D01*
X114856632Y-110156086D01*
X114747139Y-109992218D01*
X114607782Y-109852861D01*
X114544014Y-109810252D01*
X114443913Y-109743367D01*
X114261839Y-109667950D01*
X114261829Y-109667947D01*
X114132388Y-109642200D01*
X114068541Y-109629500D01*
X114001322Y-109629500D01*
X113948996Y-109607826D01*
X113927322Y-109555500D01*
X113948996Y-109503174D01*
X114702697Y-108749474D01*
X114755023Y-108727800D01*
X115482264Y-108727800D01*
X115482264Y-108727799D01*
X115558689Y-108707321D01*
X115627211Y-108667760D01*
X115683160Y-108611811D01*
X117309787Y-106985182D01*
X117362112Y-106963509D01*
X117390430Y-106969142D01*
X117509498Y-107018461D01*
X117518165Y-107022051D01*
X117711459Y-107060500D01*
X117711461Y-107060500D01*
X117908539Y-107060500D01*
X117908541Y-107060500D01*
X118101835Y-107022051D01*
X118283914Y-106946632D01*
X118447782Y-106837139D01*
X118587139Y-106697782D01*
X118696632Y-106533914D01*
X118772051Y-106351835D01*
X118810500Y-106158541D01*
X118810500Y-105961459D01*
X118772051Y-105768165D01*
X118696632Y-105586086D01*
X118587139Y-105422218D01*
X118447782Y-105282861D01*
X118409227Y-105257099D01*
X118283913Y-105173367D01*
X118101839Y-105097950D01*
X118101829Y-105097947D01*
X117972388Y-105072200D01*
X117908541Y-105059500D01*
X117711459Y-105059500D01*
X117656662Y-105070399D01*
X117518170Y-105097947D01*
X117518160Y-105097950D01*
X117336086Y-105173367D01*
X117172218Y-105282860D01*
X117172217Y-105282862D01*
X117032862Y-105422217D01*
X117032860Y-105422218D01*
X116923367Y-105586086D01*
X116847950Y-105768160D01*
X116847947Y-105768170D01*
X116809500Y-105961460D01*
X116809500Y-106158539D01*
X116847947Y-106351829D01*
X116847950Y-106351839D01*
X116900857Y-106479567D01*
X116900857Y-106536204D01*
X116884816Y-106560211D01*
X115499426Y-107945602D01*
X115447100Y-107967276D01*
X115394774Y-107945602D01*
X115373100Y-107893276D01*
X115373100Y-107759706D01*
X115373099Y-107759705D01*
X115338993Y-107632418D01*
X115338992Y-107632414D01*
X115273100Y-107518286D01*
X115179914Y-107425100D01*
X115065790Y-107359210D01*
X115065781Y-107359206D01*
X114938494Y-107325100D01*
X114938492Y-107325100D01*
X114806708Y-107325100D01*
X114806706Y-107325100D01*
X114679418Y-107359206D01*
X114679409Y-107359210D01*
X114565285Y-107425100D01*
X114487060Y-107503326D01*
X114434734Y-107525000D01*
X113043323Y-107525000D01*
X112990997Y-107503326D01*
X112674497Y-107186826D01*
X112652823Y-107134500D01*
X112674497Y-107082174D01*
X112726823Y-107060500D01*
X112828539Y-107060500D01*
X112828541Y-107060500D01*
X113021835Y-107022051D01*
X113203914Y-106946632D01*
X113367782Y-106837139D01*
X113507139Y-106697782D01*
X113616632Y-106533914D01*
X113692051Y-106351835D01*
X113730500Y-106158541D01*
X113730500Y-105961459D01*
X113692051Y-105768165D01*
X113616632Y-105586086D01*
X113507139Y-105422218D01*
X113367782Y-105282861D01*
X113329227Y-105257099D01*
X113203913Y-105173367D01*
X113021839Y-105097950D01*
X113021829Y-105097947D01*
X112892388Y-105072200D01*
X112828541Y-105059500D01*
X112631459Y-105059500D01*
X112576662Y-105070399D01*
X112438170Y-105097947D01*
X112438160Y-105097950D01*
X112310431Y-105150857D01*
X112253794Y-105150857D01*
X112229787Y-105134816D01*
X111862074Y-104767103D01*
X111840400Y-104714777D01*
X111840400Y-103234023D01*
X111862074Y-103181697D01*
X111914400Y-103160023D01*
X111966726Y-103181697D01*
X114344816Y-105559787D01*
X114366490Y-105612113D01*
X114360857Y-105640431D01*
X114307950Y-105768160D01*
X114307947Y-105768170D01*
X114269500Y-105961460D01*
X114269500Y-106158539D01*
X114307947Y-106351829D01*
X114307950Y-106351839D01*
X114383367Y-106533913D01*
X114492860Y-106697781D01*
X114632218Y-106837139D01*
X114796086Y-106946632D01*
X114962542Y-107015580D01*
X114978165Y-107022051D01*
X115171459Y-107060500D01*
X115171461Y-107060500D01*
X115368539Y-107060500D01*
X115368541Y-107060500D01*
X115561835Y-107022051D01*
X115743914Y-106946632D01*
X115907782Y-106837139D01*
X116047139Y-106697782D01*
X116156632Y-106533914D01*
X116232051Y-106351835D01*
X116270500Y-106158541D01*
X116270500Y-105961459D01*
X116232051Y-105768165D01*
X116156632Y-105586086D01*
X116047139Y-105422218D01*
X115907782Y-105282861D01*
X115869227Y-105257099D01*
X115743913Y-105173367D01*
X115561839Y-105097950D01*
X115561829Y-105097947D01*
X115432388Y-105072200D01*
X115368541Y-105059500D01*
X115171459Y-105059500D01*
X115116662Y-105070399D01*
X114978170Y-105097947D01*
X114978160Y-105097950D01*
X114850431Y-105150857D01*
X114793794Y-105150857D01*
X114769787Y-105134816D01*
X112463774Y-102828803D01*
X112442100Y-102776477D01*
X112442100Y-102495166D01*
X112463774Y-102442840D01*
X112542100Y-102364514D01*
X112607992Y-102250386D01*
X112642099Y-102123094D01*
X112642100Y-102123094D01*
X112642100Y-101991306D01*
X112642099Y-101991305D01*
X112607993Y-101864018D01*
X112607992Y-101864014D01*
X112542100Y-101749886D01*
X112448914Y-101656700D01*
X112442800Y-101653170D01*
X112334790Y-101590810D01*
X112334781Y-101590806D01*
X112207494Y-101556700D01*
X112207492Y-101556700D01*
X112075708Y-101556700D01*
X112075706Y-101556700D01*
X111948418Y-101590806D01*
X111943929Y-101592666D01*
X111942912Y-101590211D01*
X111895207Y-101596465D01*
X111850293Y-101561961D01*
X111840400Y-101524997D01*
X111840400Y-99143973D01*
X111862074Y-99091647D01*
X111914400Y-99069973D01*
X111966726Y-99091647D01*
X112092218Y-99217139D01*
X112256086Y-99326632D01*
X112395913Y-99384550D01*
X112438165Y-99402051D01*
X112631459Y-99440500D01*
X112631461Y-99440500D01*
X112828539Y-99440500D01*
X112828541Y-99440500D01*
X113021835Y-99402051D01*
X113203914Y-99326632D01*
X113367782Y-99217139D01*
X113507139Y-99077782D01*
X113616632Y-98913914D01*
X113616632Y-98913912D01*
X113617551Y-98912538D01*
X113664643Y-98881072D01*
X113720192Y-98892121D01*
X113743166Y-98916651D01*
X113759536Y-98945006D01*
X113759538Y-98945008D01*
X113759540Y-98945011D01*
X118688840Y-103874311D01*
X118744789Y-103930260D01*
X118813311Y-103969821D01*
X118813312Y-103969821D01*
X118813314Y-103969822D01*
X118851524Y-103980060D01*
X118889735Y-103990299D01*
X118889736Y-103990300D01*
X118889738Y-103990300D01*
X118968862Y-103990300D01*
X120364677Y-103990300D01*
X120417003Y-104011974D01*
X121964816Y-105559787D01*
X121986490Y-105612113D01*
X121980857Y-105640431D01*
X121927950Y-105768160D01*
X121927947Y-105768170D01*
X121889500Y-105961460D01*
X121889500Y-106158539D01*
X121927947Y-106351829D01*
X121927950Y-106351839D01*
X122003367Y-106533913D01*
X122112860Y-106697781D01*
X122252218Y-106837139D01*
X122416086Y-106946632D01*
X122582542Y-107015580D01*
X122598165Y-107022051D01*
X122791459Y-107060500D01*
X122791461Y-107060500D01*
X122988539Y-107060500D01*
X122988541Y-107060500D01*
X123181835Y-107022051D01*
X123363914Y-106946632D01*
X123527782Y-106837139D01*
X123667139Y-106697782D01*
X123776632Y-106533914D01*
X123852051Y-106351835D01*
X123890500Y-106158541D01*
X123890500Y-105961459D01*
X123852051Y-105768165D01*
X123776632Y-105586086D01*
X123667139Y-105422218D01*
X123527782Y-105282861D01*
X123489227Y-105257099D01*
X123363913Y-105173367D01*
X123181839Y-105097950D01*
X123181829Y-105097947D01*
X123052388Y-105072200D01*
X122988541Y-105059500D01*
X122791459Y-105059500D01*
X122736662Y-105070399D01*
X122598170Y-105097947D01*
X122598160Y-105097950D01*
X122470431Y-105150857D01*
X122413794Y-105150857D01*
X122389787Y-105134816D01*
X120704311Y-103449340D01*
X120635790Y-103409779D01*
X120635785Y-103409777D01*
X120559364Y-103389300D01*
X120559362Y-103389300D01*
X119084423Y-103389300D01*
X119032097Y-103367626D01*
X115231297Y-99566826D01*
X115209623Y-99514500D01*
X115231297Y-99462174D01*
X115283623Y-99440500D01*
X115368539Y-99440500D01*
X115368541Y-99440500D01*
X115561835Y-99402051D01*
X115743914Y-99326632D01*
X115907782Y-99217139D01*
X116047139Y-99077782D01*
X116156632Y-98913914D01*
X116232051Y-98731835D01*
X116270500Y-98538541D01*
X116270500Y-98341460D01*
X116809500Y-98341460D01*
X116809500Y-98538539D01*
X116847947Y-98731829D01*
X116847950Y-98731839D01*
X116923367Y-98913913D01*
X117032860Y-99077781D01*
X117172218Y-99217139D01*
X117336086Y-99326632D01*
X117475913Y-99384550D01*
X117518165Y-99402051D01*
X117711459Y-99440500D01*
X117711461Y-99440500D01*
X117908539Y-99440500D01*
X117908541Y-99440500D01*
X118101835Y-99402051D01*
X118283914Y-99326632D01*
X118447782Y-99217139D01*
X118587139Y-99077782D01*
X118696632Y-98913914D01*
X118772051Y-98731835D01*
X118810500Y-98538541D01*
X118810500Y-98341460D01*
X119349500Y-98341460D01*
X119349500Y-98538539D01*
X119387947Y-98731829D01*
X119387950Y-98731839D01*
X119463367Y-98913913D01*
X119572860Y-99077781D01*
X119712218Y-99217139D01*
X119876086Y-99326632D01*
X120015913Y-99384550D01*
X120058165Y-99402051D01*
X120251459Y-99440500D01*
X120251461Y-99440500D01*
X120448539Y-99440500D01*
X120448541Y-99440500D01*
X120641835Y-99402051D01*
X120823914Y-99326632D01*
X120987782Y-99217139D01*
X121127139Y-99077782D01*
X121236632Y-98913914D01*
X121312051Y-98731835D01*
X121350500Y-98538541D01*
X121350500Y-98341459D01*
X121312051Y-98148165D01*
X121236632Y-97966086D01*
X121127139Y-97802218D01*
X120987782Y-97662861D01*
X120924014Y-97620252D01*
X120823913Y-97553367D01*
X120641839Y-97477950D01*
X120641829Y-97477947D01*
X120512388Y-97452200D01*
X120448541Y-97439500D01*
X120251459Y-97439500D01*
X120198421Y-97450050D01*
X120058170Y-97477947D01*
X120058160Y-97477950D01*
X119876086Y-97553367D01*
X119712218Y-97662860D01*
X119712217Y-97662862D01*
X119572862Y-97802217D01*
X119572860Y-97802218D01*
X119463367Y-97966086D01*
X119387950Y-98148160D01*
X119387947Y-98148170D01*
X119349500Y-98341460D01*
X118810500Y-98341460D01*
X118810500Y-98341459D01*
X118772051Y-98148165D01*
X118696632Y-97966086D01*
X118587139Y-97802218D01*
X118447782Y-97662861D01*
X118384014Y-97620252D01*
X118283913Y-97553367D01*
X118101839Y-97477950D01*
X118101829Y-97477947D01*
X117972388Y-97452200D01*
X117908541Y-97439500D01*
X117711459Y-97439500D01*
X117658421Y-97450050D01*
X117518170Y-97477947D01*
X117518160Y-97477950D01*
X117336086Y-97553367D01*
X117172218Y-97662860D01*
X117172217Y-97662862D01*
X117032862Y-97802217D01*
X117032860Y-97802218D01*
X116923367Y-97966086D01*
X116847950Y-98148160D01*
X116847947Y-98148170D01*
X116809500Y-98341460D01*
X116270500Y-98341460D01*
X116270500Y-98341459D01*
X116232051Y-98148165D01*
X116156632Y-97966086D01*
X116047139Y-97802218D01*
X115907782Y-97662861D01*
X115844014Y-97620252D01*
X115743913Y-97553367D01*
X115561839Y-97477950D01*
X115561829Y-97477947D01*
X115432388Y-97452200D01*
X115368541Y-97439500D01*
X115171459Y-97439500D01*
X115118421Y-97450050D01*
X114978170Y-97477947D01*
X114978160Y-97477950D01*
X114796086Y-97553367D01*
X114632218Y-97662860D01*
X114632217Y-97662862D01*
X114492862Y-97802217D01*
X114492860Y-97802218D01*
X114383366Y-97966088D01*
X114382800Y-97967455D01*
X114382447Y-97967807D01*
X114381655Y-97969290D01*
X114381204Y-97969049D01*
X114342744Y-98007496D01*
X114286107Y-98007486D01*
X114250352Y-97976123D01*
X114240460Y-97958989D01*
X114184511Y-97903040D01*
X112445511Y-96164040D01*
X112445508Y-96164038D01*
X112445504Y-96164035D01*
X112435721Y-96158387D01*
X112376987Y-96124478D01*
X112376988Y-96124478D01*
X112300564Y-96104000D01*
X112300562Y-96104000D01*
X112014623Y-96104000D01*
X111962297Y-96082326D01*
X108876797Y-92996826D01*
X108855123Y-92944500D01*
X108876797Y-92892174D01*
X108929123Y-92870500D01*
X108988539Y-92870500D01*
X108988541Y-92870500D01*
X109181835Y-92832051D01*
X109363914Y-92756632D01*
X109527782Y-92647139D01*
X109667139Y-92507782D01*
X109776632Y-92343914D01*
X109852051Y-92161835D01*
X109890500Y-91968541D01*
X109890500Y-91771460D01*
X110429500Y-91771460D01*
X110429500Y-91968539D01*
X110467947Y-92161829D01*
X110467950Y-92161839D01*
X110543367Y-92343913D01*
X110560940Y-92370212D01*
X110652861Y-92507782D01*
X110792218Y-92647139D01*
X110956086Y-92756632D01*
X111138165Y-92832051D01*
X111331459Y-92870500D01*
X111331461Y-92870500D01*
X111528539Y-92870500D01*
X111528541Y-92870500D01*
X111721835Y-92832051D01*
X111903914Y-92756632D01*
X112067782Y-92647139D01*
X112207139Y-92507782D01*
X112316632Y-92343914D01*
X112392051Y-92161835D01*
X112430500Y-91968541D01*
X112430500Y-91771460D01*
X112969500Y-91771460D01*
X112969500Y-91968539D01*
X113007947Y-92161829D01*
X113007950Y-92161839D01*
X113083367Y-92343913D01*
X113100940Y-92370212D01*
X113192861Y-92507782D01*
X113332218Y-92647139D01*
X113496086Y-92756632D01*
X113678165Y-92832051D01*
X113871459Y-92870500D01*
X113871461Y-92870500D01*
X114068539Y-92870500D01*
X114068541Y-92870500D01*
X114261835Y-92832051D01*
X114443914Y-92756632D01*
X114607782Y-92647139D01*
X114747139Y-92507782D01*
X114856632Y-92343914D01*
X114932051Y-92161835D01*
X114970500Y-91968541D01*
X114970500Y-91771460D01*
X115509500Y-91771460D01*
X115509500Y-91968539D01*
X115547947Y-92161829D01*
X115547950Y-92161839D01*
X115623367Y-92343913D01*
X115640940Y-92370212D01*
X115732861Y-92507782D01*
X115872218Y-92647139D01*
X116036086Y-92756632D01*
X116218165Y-92832051D01*
X116411459Y-92870500D01*
X116411461Y-92870500D01*
X116608539Y-92870500D01*
X116608541Y-92870500D01*
X116801835Y-92832051D01*
X116929568Y-92779142D01*
X116986204Y-92779142D01*
X117010212Y-92795183D01*
X118953076Y-94738047D01*
X118974750Y-94790373D01*
X118953076Y-94842699D01*
X118900750Y-94864373D01*
X118886313Y-94862951D01*
X118818691Y-94849500D01*
X118641309Y-94849500D01*
X118591989Y-94859310D01*
X118467339Y-94884104D01*
X118467329Y-94884107D01*
X118303455Y-94951985D01*
X118155968Y-95050533D01*
X118030533Y-95175968D01*
X117931985Y-95323455D01*
X117864107Y-95487329D01*
X117864104Y-95487339D01*
X117829500Y-95661310D01*
X117829500Y-95838689D01*
X117864104Y-96012660D01*
X117864107Y-96012670D01*
X117931985Y-96176544D01*
X118000570Y-96279189D01*
X118030536Y-96324035D01*
X118155965Y-96449464D01*
X118303453Y-96548013D01*
X118303454Y-96548013D01*
X118303455Y-96548014D01*
X118422902Y-96597490D01*
X118467334Y-96615894D01*
X118641309Y-96650500D01*
X118641311Y-96650500D01*
X118818689Y-96650500D01*
X118818691Y-96650500D01*
X118992666Y-96615894D01*
X119156547Y-96548013D01*
X119304035Y-96449464D01*
X119429464Y-96324035D01*
X119528013Y-96176547D01*
X119595894Y-96012666D01*
X119630500Y-95838691D01*
X119630500Y-95661309D01*
X119617048Y-95593683D01*
X119628097Y-95538137D01*
X119675189Y-95506671D01*
X119730738Y-95517720D01*
X119741952Y-95526923D01*
X119893926Y-95678897D01*
X119915600Y-95731223D01*
X119915600Y-96202764D01*
X119936077Y-96279185D01*
X119936079Y-96279190D01*
X119961967Y-96324029D01*
X119961968Y-96324031D01*
X119961971Y-96324035D01*
X119975640Y-96347711D01*
X119975641Y-96347712D01*
X121874785Y-98246856D01*
X121896459Y-98299182D01*
X121895038Y-98313616D01*
X121889500Y-98341459D01*
X121889500Y-98341460D01*
X121889500Y-98341462D01*
X121889500Y-98538539D01*
X121927947Y-98731829D01*
X121927950Y-98731839D01*
X122003367Y-98913913D01*
X122112860Y-99077781D01*
X122252218Y-99217139D01*
X122416086Y-99326632D01*
X122555913Y-99384550D01*
X122598165Y-99402051D01*
X122791459Y-99440500D01*
X122791461Y-99440500D01*
X122988539Y-99440500D01*
X122988541Y-99440500D01*
X123181835Y-99402051D01*
X123363914Y-99326632D01*
X123527782Y-99217139D01*
X123667139Y-99077782D01*
X123776632Y-98913914D01*
X123852051Y-98731835D01*
X123890500Y-98538541D01*
X123890500Y-98341459D01*
X123852051Y-98148165D01*
X123776632Y-97966086D01*
X123667139Y-97802218D01*
X123527782Y-97662861D01*
X123464014Y-97620252D01*
X123363913Y-97553367D01*
X123181839Y-97477950D01*
X123181829Y-97477947D01*
X123052388Y-97452200D01*
X122988541Y-97439500D01*
X122791459Y-97439500D01*
X122738421Y-97450050D01*
X122598170Y-97477947D01*
X122598160Y-97477950D01*
X122416086Y-97553367D01*
X122252218Y-97662860D01*
X122252217Y-97662862D01*
X122248801Y-97666278D01*
X122196475Y-97687952D01*
X122144149Y-97666278D01*
X121254697Y-96776826D01*
X121233023Y-96724500D01*
X121254697Y-96672174D01*
X121307023Y-96650500D01*
X121358689Y-96650500D01*
X121358691Y-96650500D01*
X121532666Y-96615894D01*
X121696547Y-96548013D01*
X121844035Y-96449464D01*
X121969464Y-96324035D01*
X122068013Y-96176547D01*
X122135894Y-96012666D01*
X122170500Y-95838691D01*
X122170500Y-95661309D01*
X122135894Y-95487334D01*
X122068013Y-95323453D01*
X121969464Y-95175965D01*
X121844035Y-95050536D01*
X121696547Y-94951987D01*
X121696546Y-94951986D01*
X121696544Y-94951985D01*
X121532670Y-94884107D01*
X121532660Y-94884104D01*
X121416156Y-94860930D01*
X121358691Y-94849500D01*
X121181309Y-94849500D01*
X121131989Y-94859310D01*
X121007339Y-94884104D01*
X121007329Y-94884107D01*
X120843455Y-94951985D01*
X120695968Y-95050533D01*
X120570533Y-95175968D01*
X120488612Y-95298572D01*
X120441519Y-95330038D01*
X120385971Y-95318989D01*
X120374757Y-95309786D01*
X117435183Y-92370212D01*
X117413509Y-92317886D01*
X117419142Y-92289567D01*
X117422695Y-92280989D01*
X117472051Y-92161835D01*
X117510500Y-91968541D01*
X117510500Y-91771460D01*
X118049500Y-91771460D01*
X118049500Y-91968539D01*
X118087947Y-92161829D01*
X118087950Y-92161839D01*
X118163367Y-92343913D01*
X118180940Y-92370212D01*
X118272861Y-92507782D01*
X118412218Y-92647139D01*
X118576086Y-92756632D01*
X118758165Y-92832051D01*
X118951459Y-92870500D01*
X118951461Y-92870500D01*
X119148539Y-92870500D01*
X119148541Y-92870500D01*
X119341835Y-92832051D01*
X119523914Y-92756632D01*
X119687782Y-92647139D01*
X119827139Y-92507782D01*
X119936632Y-92343914D01*
X120012051Y-92161835D01*
X120050500Y-91968541D01*
X120050500Y-91771460D01*
X120589500Y-91771460D01*
X120589500Y-91968539D01*
X120627947Y-92161829D01*
X120627950Y-92161839D01*
X120703367Y-92343913D01*
X120720940Y-92370212D01*
X120812861Y-92507782D01*
X120952218Y-92647139D01*
X121116086Y-92756632D01*
X121298165Y-92832051D01*
X121491459Y-92870500D01*
X121491461Y-92870500D01*
X121688539Y-92870500D01*
X121688541Y-92870500D01*
X121881835Y-92832051D01*
X122063914Y-92756632D01*
X122227782Y-92647139D01*
X122367139Y-92507782D01*
X122476632Y-92343914D01*
X122552051Y-92161835D01*
X122590500Y-91968541D01*
X122590500Y-91771459D01*
X122552051Y-91578165D01*
X122476632Y-91396086D01*
X122367139Y-91232218D01*
X122227782Y-91092861D01*
X122165732Y-91051400D01*
X122063913Y-90983367D01*
X121881839Y-90907950D01*
X121881829Y-90907947D01*
X121752388Y-90882200D01*
X121688541Y-90869500D01*
X121491459Y-90869500D01*
X121436662Y-90880399D01*
X121298170Y-90907947D01*
X121298160Y-90907950D01*
X121116086Y-90983367D01*
X120952218Y-91092860D01*
X120952217Y-91092862D01*
X120812862Y-91232217D01*
X120812860Y-91232218D01*
X120703367Y-91396086D01*
X120627950Y-91578160D01*
X120627947Y-91578170D01*
X120589500Y-91771460D01*
X120050500Y-91771460D01*
X120050500Y-91771459D01*
X120012051Y-91578165D01*
X119936632Y-91396086D01*
X119827139Y-91232218D01*
X119687782Y-91092861D01*
X119625732Y-91051400D01*
X119523913Y-90983367D01*
X119341839Y-90907950D01*
X119341829Y-90907947D01*
X119212388Y-90882200D01*
X119148541Y-90869500D01*
X118951459Y-90869500D01*
X118896662Y-90880399D01*
X118758170Y-90907947D01*
X118758160Y-90907950D01*
X118576086Y-90983367D01*
X118412218Y-91092860D01*
X118412217Y-91092862D01*
X118272862Y-91232217D01*
X118272860Y-91232218D01*
X118163367Y-91396086D01*
X118087950Y-91578160D01*
X118087947Y-91578170D01*
X118049500Y-91771460D01*
X117510500Y-91771460D01*
X117510500Y-91771459D01*
X117472051Y-91578165D01*
X117396632Y-91396086D01*
X117287139Y-91232218D01*
X117147782Y-91092861D01*
X117085732Y-91051400D01*
X116983913Y-90983367D01*
X116801839Y-90907950D01*
X116801829Y-90907947D01*
X116672388Y-90882200D01*
X116608541Y-90869500D01*
X116411459Y-90869500D01*
X116356662Y-90880399D01*
X116218170Y-90907947D01*
X116218160Y-90907950D01*
X116036086Y-90983367D01*
X115872218Y-91092860D01*
X115872217Y-91092862D01*
X115732862Y-91232217D01*
X115732860Y-91232218D01*
X115623367Y-91396086D01*
X115547950Y-91578160D01*
X115547947Y-91578170D01*
X115509500Y-91771460D01*
X114970500Y-91771460D01*
X114970500Y-91771459D01*
X114932051Y-91578165D01*
X114856632Y-91396086D01*
X114747139Y-91232218D01*
X114607782Y-91092861D01*
X114545732Y-91051400D01*
X114443913Y-90983367D01*
X114261839Y-90907950D01*
X114261829Y-90907947D01*
X114132388Y-90882200D01*
X114068541Y-90869500D01*
X113871459Y-90869500D01*
X113816662Y-90880399D01*
X113678170Y-90907947D01*
X113678160Y-90907950D01*
X113496086Y-90983367D01*
X113332218Y-91092860D01*
X113332217Y-91092862D01*
X113192862Y-91232217D01*
X113192860Y-91232218D01*
X113083367Y-91396086D01*
X113007950Y-91578160D01*
X113007947Y-91578170D01*
X112969500Y-91771460D01*
X112430500Y-91771460D01*
X112430500Y-91771459D01*
X112392051Y-91578165D01*
X112316632Y-91396086D01*
X112207139Y-91232218D01*
X112067782Y-91092861D01*
X112005732Y-91051400D01*
X111903913Y-90983367D01*
X111721839Y-90907950D01*
X111721829Y-90907947D01*
X111592388Y-90882200D01*
X111528541Y-90869500D01*
X111331459Y-90869500D01*
X111276662Y-90880399D01*
X111138170Y-90907947D01*
X111138160Y-90907950D01*
X110956086Y-90983367D01*
X110792218Y-91092860D01*
X110792217Y-91092862D01*
X110652862Y-91232217D01*
X110652860Y-91232218D01*
X110543367Y-91396086D01*
X110467950Y-91578160D01*
X110467947Y-91578170D01*
X110429500Y-91771460D01*
X109890500Y-91771460D01*
X109890500Y-91771459D01*
X109852051Y-91578165D01*
X109776632Y-91396086D01*
X109667139Y-91232218D01*
X109527782Y-91092861D01*
X109465732Y-91051400D01*
X109363913Y-90983367D01*
X109181839Y-90907950D01*
X109181829Y-90907947D01*
X109052388Y-90882200D01*
X108988541Y-90869500D01*
X108791459Y-90869500D01*
X108736662Y-90880399D01*
X108598170Y-90907947D01*
X108598160Y-90907950D01*
X108416086Y-90983367D01*
X108252218Y-91092860D01*
X108252217Y-91092862D01*
X108112863Y-91232215D01*
X108005762Y-91392502D01*
X107958669Y-91423967D01*
X107903120Y-91412918D01*
X107880147Y-91388388D01*
X107860460Y-91354289D01*
X107016611Y-90510440D01*
X106948090Y-90470879D01*
X106948085Y-90470877D01*
X106871664Y-90450400D01*
X106871662Y-90450400D01*
X99809538Y-90450400D01*
X99809536Y-90450400D01*
X99733114Y-90470877D01*
X99733109Y-90470879D01*
X99664588Y-90510440D01*
X99230211Y-90944816D01*
X99177885Y-90966490D01*
X99149567Y-90960857D01*
X99021839Y-90907950D01*
X99021829Y-90907947D01*
X98892388Y-90882200D01*
X98828541Y-90869500D01*
X98631459Y-90869500D01*
X98576662Y-90880399D01*
X98438170Y-90907947D01*
X98438160Y-90907950D01*
X98256086Y-90983367D01*
X98092218Y-91092860D01*
X98092217Y-91092862D01*
X97952862Y-91232217D01*
X97952860Y-91232218D01*
X97843367Y-91396086D01*
X97767950Y-91578160D01*
X97767947Y-91578170D01*
X97729500Y-91771460D01*
X97729500Y-91968539D01*
X97767947Y-92161829D01*
X97767950Y-92161839D01*
X97843367Y-92343913D01*
X97860940Y-92370212D01*
X97952861Y-92507782D01*
X98092218Y-92647139D01*
X98256086Y-92756632D01*
X98438165Y-92832051D01*
X98631459Y-92870500D01*
X98631461Y-92870500D01*
X98828539Y-92870500D01*
X98828541Y-92870500D01*
X99021835Y-92832051D01*
X99203914Y-92756632D01*
X99367782Y-92647139D01*
X99507139Y-92507782D01*
X99616632Y-92343914D01*
X99692051Y-92161835D01*
X99730500Y-91968541D01*
X99730500Y-91771459D01*
X99692051Y-91578165D01*
X99639142Y-91450431D01*
X99639142Y-91393794D01*
X99655183Y-91369787D01*
X99951897Y-91073074D01*
X100004223Y-91051400D01*
X100495027Y-91051400D01*
X100547353Y-91073074D01*
X100569027Y-91125400D01*
X100547353Y-91177726D01*
X100492862Y-91232217D01*
X100492860Y-91232218D01*
X100383367Y-91396086D01*
X100307950Y-91578160D01*
X100307947Y-91578170D01*
X100269500Y-91771460D01*
X100269500Y-91968539D01*
X100307947Y-92161829D01*
X100307950Y-92161839D01*
X100383367Y-92343913D01*
X100400940Y-92370212D01*
X100492861Y-92507782D01*
X100632218Y-92647139D01*
X100796086Y-92756632D01*
X100978165Y-92832051D01*
X101171459Y-92870500D01*
X101171461Y-92870500D01*
X101368539Y-92870500D01*
X101368541Y-92870500D01*
X101561835Y-92832051D01*
X101743914Y-92756632D01*
X101907782Y-92647139D01*
X102047139Y-92507782D01*
X102156632Y-92343914D01*
X102232051Y-92161835D01*
X102270500Y-91968541D01*
X102270500Y-91771459D01*
X102232051Y-91578165D01*
X102156632Y-91396086D01*
X102047139Y-91232218D01*
X101992647Y-91177726D01*
X101970973Y-91125400D01*
X101992647Y-91073074D01*
X102044973Y-91051400D01*
X103035027Y-91051400D01*
X103087353Y-91073074D01*
X103109027Y-91125400D01*
X103087353Y-91177726D01*
X103032862Y-91232217D01*
X103032860Y-91232218D01*
X102923367Y-91396086D01*
X102847950Y-91578160D01*
X102847947Y-91578170D01*
X102809500Y-91771460D01*
X102809500Y-91968539D01*
X102847947Y-92161829D01*
X102847950Y-92161839D01*
X102923367Y-92343913D01*
X102940940Y-92370212D01*
X103032861Y-92507782D01*
X103172218Y-92647139D01*
X103336086Y-92756632D01*
X103518165Y-92832051D01*
X103711459Y-92870500D01*
X103711461Y-92870500D01*
X103908539Y-92870500D01*
X103908541Y-92870500D01*
X104101835Y-92832051D01*
X104229568Y-92779142D01*
X104286204Y-92779142D01*
X104310212Y-92795183D01*
X105760389Y-94245360D01*
X105828912Y-94284922D01*
X105905338Y-94305400D01*
X107180377Y-94305400D01*
X107232703Y-94327074D01*
X110218803Y-97313174D01*
X110240477Y-97365500D01*
X110218803Y-97417826D01*
X110166477Y-97439500D01*
X110091459Y-97439500D01*
X110038421Y-97450050D01*
X109898170Y-97477947D01*
X109898160Y-97477950D01*
X109770431Y-97530857D01*
X109713794Y-97530857D01*
X109689787Y-97514816D01*
X109210111Y-97035140D01*
X109183924Y-97020021D01*
X109141590Y-96995579D01*
X109141585Y-96995577D01*
X109065164Y-96975100D01*
X109065162Y-96975100D01*
X90075018Y-96975100D01*
X90022692Y-96953426D01*
X90001018Y-96901100D01*
X90022692Y-96848774D01*
X90038018Y-96837014D01*
X90042247Y-96834572D01*
X90093814Y-96804800D01*
X90172140Y-96726474D01*
X90224466Y-96704800D01*
X91695264Y-96704800D01*
X91695264Y-96704799D01*
X91771689Y-96684321D01*
X91840211Y-96644760D01*
X91896160Y-96588811D01*
X95689787Y-92795182D01*
X95742112Y-92773509D01*
X95770430Y-92779142D01*
X95898160Y-92832049D01*
X95898165Y-92832051D01*
X96091459Y-92870500D01*
X96091461Y-92870500D01*
X96288539Y-92870500D01*
X96288541Y-92870500D01*
X96481835Y-92832051D01*
X96663914Y-92756632D01*
X96827782Y-92647139D01*
X96967139Y-92507782D01*
X97076632Y-92343914D01*
X97152051Y-92161835D01*
X97190500Y-91968541D01*
X97190500Y-91771459D01*
X97152051Y-91578165D01*
X97076632Y-91396086D01*
X96967139Y-91232218D01*
X96827782Y-91092861D01*
X96765732Y-91051400D01*
X96663913Y-90983367D01*
X96481839Y-90907950D01*
X96481829Y-90907947D01*
X96352388Y-90882200D01*
X96288541Y-90869500D01*
X96091459Y-90869500D01*
X96036662Y-90880399D01*
X95898170Y-90907947D01*
X95898160Y-90907950D01*
X95716086Y-90983367D01*
X95552218Y-91092860D01*
X95552217Y-91092862D01*
X95412862Y-91232217D01*
X95412860Y-91232218D01*
X95303367Y-91396086D01*
X95227950Y-91578160D01*
X95227947Y-91578170D01*
X95189500Y-91771460D01*
X95189500Y-91968539D01*
X95227947Y-92161829D01*
X95227950Y-92161839D01*
X95280857Y-92289567D01*
X95280857Y-92346204D01*
X95264816Y-92370211D01*
X91552903Y-96082126D01*
X91500577Y-96103800D01*
X90224466Y-96103800D01*
X90172140Y-96082126D01*
X90093814Y-96003800D01*
X89979690Y-95937910D01*
X89979681Y-95937906D01*
X89852394Y-95903800D01*
X89852392Y-95903800D01*
X89720608Y-95903800D01*
X89720606Y-95903800D01*
X89593318Y-95937906D01*
X89593309Y-95937910D01*
X89479185Y-96003800D01*
X89386000Y-96096985D01*
X89320110Y-96211109D01*
X89320106Y-96211118D01*
X89286000Y-96338405D01*
X89286000Y-96470194D01*
X89320106Y-96597481D01*
X89320110Y-96597490D01*
X89382065Y-96704799D01*
X89386000Y-96711614D01*
X89479186Y-96804800D01*
X89525914Y-96831778D01*
X89534982Y-96837014D01*
X89569461Y-96881948D01*
X89562068Y-96938100D01*
X89517134Y-96972579D01*
X89497982Y-96975100D01*
X87297236Y-96975100D01*
X87220814Y-96995577D01*
X87220809Y-96995579D01*
X87178476Y-97020021D01*
X87152288Y-97035140D01*
X86414240Y-97773188D01*
X86374679Y-97841709D01*
X86374677Y-97841714D01*
X86354200Y-97918135D01*
X86354200Y-98071035D01*
X86332526Y-98123361D01*
X86280200Y-98145035D01*
X86227874Y-98123361D01*
X86211833Y-98099353D01*
X86156632Y-97966086D01*
X86047139Y-97802218D01*
X85907781Y-97662860D01*
X85743913Y-97553367D01*
X85561839Y-97477950D01*
X85561829Y-97477947D01*
X85432388Y-97452200D01*
X85368541Y-97439500D01*
X85171459Y-97439500D01*
X85118421Y-97450050D01*
X84978170Y-97477947D01*
X84978160Y-97477950D01*
X84796086Y-97553367D01*
X84632218Y-97662860D01*
X84632217Y-97662862D01*
X84492862Y-97802217D01*
X84492860Y-97802218D01*
X84383367Y-97966086D01*
X84307950Y-98148160D01*
X84307947Y-98148170D01*
X84269500Y-98341460D01*
X84269500Y-98538539D01*
X84307947Y-98731829D01*
X84307950Y-98731839D01*
X84383367Y-98913913D01*
X84492860Y-99077781D01*
X84632218Y-99217139D01*
X84796086Y-99326632D01*
X84935913Y-99384550D01*
X84978165Y-99402051D01*
X85171459Y-99440500D01*
X85171461Y-99440500D01*
X85368539Y-99440500D01*
X85368541Y-99440500D01*
X85561835Y-99402051D01*
X85743914Y-99326632D01*
X85907782Y-99217139D01*
X86047139Y-99077782D01*
X86156632Y-98913914D01*
X86211833Y-98780646D01*
X86251881Y-98740597D01*
X86308518Y-98740597D01*
X86348567Y-98780645D01*
X86354200Y-98808964D01*
X86354200Y-105691035D01*
X86332526Y-105743361D01*
X86280200Y-105765035D01*
X86227874Y-105743361D01*
X86211833Y-105719353D01*
X86156632Y-105586086D01*
X86047139Y-105422218D01*
X85907781Y-105282860D01*
X85743913Y-105173367D01*
X85561839Y-105097950D01*
X85561829Y-105097947D01*
X85432388Y-105072200D01*
X85368541Y-105059500D01*
X85171459Y-105059500D01*
X85116662Y-105070399D01*
X84978170Y-105097947D01*
X84978160Y-105097950D01*
X84796086Y-105173367D01*
X84632218Y-105282860D01*
X84632217Y-105282862D01*
X84492862Y-105422217D01*
X84492860Y-105422218D01*
X84383367Y-105586086D01*
X84307950Y-105768160D01*
X84307947Y-105768170D01*
X84269500Y-105961460D01*
X84269500Y-106158539D01*
X84307947Y-106351829D01*
X84307950Y-106351839D01*
X84383367Y-106533913D01*
X84492860Y-106697781D01*
X84632218Y-106837139D01*
X84796086Y-106946632D01*
X84962542Y-107015580D01*
X84978165Y-107022051D01*
X85171459Y-107060500D01*
X85171461Y-107060500D01*
X85368539Y-107060500D01*
X85368541Y-107060500D01*
X85561835Y-107022051D01*
X85743914Y-106946632D01*
X85907782Y-106837139D01*
X86047139Y-106697782D01*
X86156632Y-106533914D01*
X86211833Y-106400646D01*
X86251881Y-106360597D01*
X86308518Y-106360597D01*
X86348567Y-106400645D01*
X86354200Y-106428964D01*
X86354200Y-107731797D01*
X86332526Y-107784123D01*
X86280200Y-107805797D01*
X86251257Y-107798050D01*
X86250671Y-107799466D01*
X86246181Y-107797606D01*
X86118894Y-107763500D01*
X86118892Y-107763500D01*
X85987108Y-107763500D01*
X85987106Y-107763500D01*
X85859818Y-107797606D01*
X85859809Y-107797610D01*
X85745685Y-107863500D01*
X85667360Y-107941826D01*
X85615034Y-107963500D01*
X85089123Y-107963500D01*
X85036797Y-107941826D01*
X83655183Y-106560212D01*
X83633509Y-106507886D01*
X83639142Y-106479567D01*
X83692051Y-106351835D01*
X83730500Y-106158541D01*
X83730500Y-105961459D01*
X83692051Y-105768165D01*
X83616632Y-105586086D01*
X83507139Y-105422218D01*
X83367782Y-105282861D01*
X83329227Y-105257099D01*
X83203913Y-105173367D01*
X83021839Y-105097950D01*
X83021829Y-105097947D01*
X82892388Y-105072200D01*
X82828541Y-105059500D01*
X82631459Y-105059500D01*
X82576662Y-105070399D01*
X82438170Y-105097947D01*
X82438160Y-105097950D01*
X82256086Y-105173367D01*
X82092218Y-105282860D01*
X82092217Y-105282862D01*
X81952862Y-105422217D01*
X81952860Y-105422218D01*
X81843367Y-105586086D01*
X81767950Y-105768160D01*
X81767947Y-105768170D01*
X81729500Y-105961460D01*
X81729500Y-106158539D01*
X81767947Y-106351829D01*
X81767950Y-106351839D01*
X81843367Y-106533913D01*
X81952860Y-106697781D01*
X82092218Y-106837139D01*
X82256086Y-106946632D01*
X82422542Y-107015580D01*
X82438165Y-107022051D01*
X82631459Y-107060500D01*
X82631461Y-107060500D01*
X82828539Y-107060500D01*
X82828541Y-107060500D01*
X83021835Y-107022051D01*
X83149568Y-106969142D01*
X83206204Y-106969142D01*
X83230212Y-106985183D01*
X84749489Y-108504460D01*
X84749491Y-108504461D01*
X84749492Y-108504462D01*
X84778835Y-108521403D01*
X84818012Y-108544022D01*
X84894438Y-108564500D01*
X84973562Y-108564500D01*
X85615034Y-108564500D01*
X85667360Y-108586174D01*
X85745686Y-108664500D01*
X85859814Y-108730392D01*
X85987105Y-108764499D01*
X85987106Y-108764500D01*
X85987108Y-108764500D01*
X86118891Y-108764500D01*
X86118892Y-108764500D01*
X86246186Y-108730392D01*
X86246190Y-108730389D01*
X86250669Y-108728535D01*
X86251689Y-108730999D01*
X86299348Y-108724722D01*
X86344284Y-108759198D01*
X86354200Y-108796202D01*
X86354200Y-109584217D01*
X86332526Y-109636543D01*
X86280200Y-109658217D01*
X86265764Y-109656795D01*
X86160353Y-109635827D01*
X86128541Y-109629500D01*
X85931459Y-109629500D01*
X85876662Y-109640399D01*
X85738170Y-109667947D01*
X85738160Y-109667950D01*
X85556086Y-109743367D01*
X85392218Y-109852860D01*
X85392217Y-109852862D01*
X85252862Y-109992217D01*
X85252860Y-109992218D01*
X85143367Y-110156086D01*
X85067950Y-110338160D01*
X85067947Y-110338170D01*
X85029500Y-110531460D01*
X85029500Y-110728539D01*
X85067947Y-110921829D01*
X85067950Y-110921839D01*
X85120857Y-111049567D01*
X85120857Y-111106204D01*
X85104816Y-111130211D01*
X82171489Y-114063540D01*
X82115540Y-114119488D01*
X82075979Y-114188009D01*
X82075977Y-114188014D01*
X82055500Y-114264435D01*
X82055500Y-126387164D01*
X82075977Y-126463585D01*
X82075979Y-126463590D01*
X82115540Y-126532111D01*
X88246603Y-132663174D01*
X88268277Y-132715500D01*
X88246603Y-132767826D01*
X88194277Y-132789500D01*
X87550246Y-132789500D01*
X87548783Y-132789644D01*
X87541536Y-132790000D01*
X87370000Y-132790000D01*
X87370000Y-132961536D01*
X87369644Y-132968783D01*
X87369500Y-132970246D01*
X87369500Y-139726000D01*
X87347826Y-139778326D01*
X87295500Y-139800000D01*
X84964000Y-139800000D01*
X84911674Y-139778326D01*
X84890000Y-139726000D01*
X84890000Y-130300001D01*
X84890000Y-130300000D01*
X84886157Y-130260982D01*
X84874776Y-130223463D01*
X84856294Y-130188886D01*
X84831421Y-130158579D01*
X84801114Y-130133706D01*
X84766537Y-130115224D01*
X84740400Y-130107295D01*
X84729019Y-130103843D01*
X84709509Y-130101921D01*
X84690000Y-130100000D01*
X84689999Y-130100000D01*
X82290001Y-130100000D01*
X82290000Y-130100000D01*
X82276994Y-130101281D01*
X82250980Y-130103843D01*
X82228218Y-130110748D01*
X82213463Y-130115224D01*
X82213461Y-130115224D01*
X82213461Y-130115225D01*
X82178887Y-130133705D01*
X82178883Y-130133708D01*
X82148579Y-130158579D01*
X82123708Y-130188883D01*
X82123705Y-130188887D01*
X82105225Y-130223461D01*
X82093843Y-130260980D01*
X82090000Y-130300001D01*
X82090000Y-132716000D01*
X82068326Y-132768326D01*
X82016000Y-132790000D01*
X81978464Y-132790000D01*
X81971217Y-132789644D01*
X81969754Y-132789500D01*
X81969748Y-132789500D01*
X79930252Y-132789500D01*
X79930246Y-132789500D01*
X79928783Y-132789644D01*
X79921536Y-132790000D01*
X79750000Y-132790000D01*
X79732326Y-132807674D01*
X79680000Y-132829348D01*
X79627674Y-132807674D01*
X79610000Y-132790000D01*
X79438464Y-132790000D01*
X79431217Y-132789644D01*
X79429754Y-132789500D01*
X79429748Y-132789500D01*
X78912423Y-132789500D01*
X78860097Y-132767826D01*
X78838423Y-132715500D01*
X78860097Y-132663174D01*
X79001564Y-132521707D01*
X79160460Y-132362811D01*
X79175246Y-132337200D01*
X79200021Y-132294289D01*
X79220499Y-132217864D01*
X79220500Y-132217864D01*
X79220500Y-106653838D01*
X79242174Y-106601512D01*
X79294500Y-106579838D01*
X79346826Y-106601512D01*
X79356026Y-106612722D01*
X79366100Y-106627799D01*
X79412860Y-106697781D01*
X79552218Y-106837139D01*
X79716086Y-106946632D01*
X79882542Y-107015580D01*
X79898165Y-107022051D01*
X80091459Y-107060500D01*
X80091461Y-107060500D01*
X80288539Y-107060500D01*
X80288541Y-107060500D01*
X80481835Y-107022051D01*
X80663914Y-106946632D01*
X80827782Y-106837139D01*
X80967139Y-106697782D01*
X81076632Y-106533914D01*
X81152051Y-106351835D01*
X81190500Y-106158541D01*
X81190500Y-105961459D01*
X81152051Y-105768165D01*
X81076632Y-105586086D01*
X80967139Y-105422218D01*
X80827782Y-105282861D01*
X80789227Y-105257099D01*
X80663913Y-105173367D01*
X80481839Y-105097950D01*
X80481829Y-105097947D01*
X80352388Y-105072200D01*
X80288541Y-105059500D01*
X80091459Y-105059500D01*
X80036662Y-105070399D01*
X79898170Y-105097947D01*
X79898160Y-105097950D01*
X79716086Y-105173367D01*
X79552218Y-105282860D01*
X79552217Y-105282862D01*
X79412862Y-105422217D01*
X79412860Y-105422218D01*
X79356029Y-105507273D01*
X79308937Y-105538739D01*
X79253388Y-105527690D01*
X79221922Y-105480598D01*
X79220500Y-105466161D01*
X79220500Y-99865122D01*
X79242173Y-99812797D01*
X79689787Y-99365182D01*
X79742113Y-99343509D01*
X79770431Y-99349141D01*
X79898165Y-99402051D01*
X80091459Y-99440500D01*
X80091461Y-99440500D01*
X80288539Y-99440500D01*
X80288541Y-99440500D01*
X80481835Y-99402051D01*
X80663914Y-99326632D01*
X80827782Y-99217139D01*
X80967139Y-99077782D01*
X81076632Y-98913914D01*
X81152051Y-98731835D01*
X81190500Y-98538541D01*
X81190500Y-98341460D01*
X81729500Y-98341460D01*
X81729500Y-98538539D01*
X81767947Y-98731829D01*
X81767950Y-98731839D01*
X81843367Y-98913913D01*
X81952860Y-99077781D01*
X82092218Y-99217139D01*
X82256086Y-99326632D01*
X82395913Y-99384550D01*
X82438165Y-99402051D01*
X82631459Y-99440500D01*
X82631461Y-99440500D01*
X82828539Y-99440500D01*
X82828541Y-99440500D01*
X83021835Y-99402051D01*
X83203914Y-99326632D01*
X83367782Y-99217139D01*
X83507139Y-99077782D01*
X83616632Y-98913914D01*
X83692051Y-98731835D01*
X83730500Y-98538541D01*
X83730500Y-98341459D01*
X83692051Y-98148165D01*
X83616632Y-97966086D01*
X83507139Y-97802218D01*
X83367782Y-97662861D01*
X83304014Y-97620252D01*
X83203913Y-97553367D01*
X83021839Y-97477950D01*
X83021829Y-97477947D01*
X82892388Y-97452200D01*
X82828541Y-97439500D01*
X82631459Y-97439500D01*
X82578421Y-97450050D01*
X82438170Y-97477947D01*
X82438160Y-97477950D01*
X82256086Y-97553367D01*
X82092218Y-97662860D01*
X82092217Y-97662862D01*
X81952862Y-97802217D01*
X81952860Y-97802218D01*
X81843367Y-97966086D01*
X81767950Y-98148160D01*
X81767947Y-98148170D01*
X81729500Y-98341460D01*
X81190500Y-98341460D01*
X81190500Y-98341459D01*
X81152051Y-98148165D01*
X81076632Y-97966086D01*
X80967139Y-97802218D01*
X80827782Y-97662861D01*
X80764014Y-97620252D01*
X80663913Y-97553367D01*
X80481839Y-97477950D01*
X80481829Y-97477947D01*
X80352388Y-97452200D01*
X80288541Y-97439500D01*
X80091459Y-97439500D01*
X80038421Y-97450050D01*
X79898170Y-97477947D01*
X79898160Y-97477950D01*
X79716086Y-97553367D01*
X79552218Y-97662860D01*
X79552217Y-97662862D01*
X79412862Y-97802217D01*
X79412860Y-97802218D01*
X79303367Y-97966086D01*
X79227950Y-98148160D01*
X79227947Y-98148170D01*
X79189500Y-98341460D01*
X79189500Y-98538539D01*
X79227947Y-98731829D01*
X79227950Y-98731839D01*
X79280857Y-98859567D01*
X79280857Y-98916204D01*
X79264816Y-98940211D01*
X78735489Y-99469540D01*
X78679540Y-99525488D01*
X78639979Y-99594009D01*
X78639977Y-99594014D01*
X78619500Y-99670435D01*
X78619500Y-105466161D01*
X78597826Y-105518487D01*
X78545500Y-105540161D01*
X78493174Y-105518487D01*
X78483971Y-105507273D01*
X78427139Y-105422218D01*
X78287781Y-105282860D01*
X78123913Y-105173367D01*
X77941839Y-105097950D01*
X77941829Y-105097947D01*
X77812388Y-105072200D01*
X77748541Y-105059500D01*
X77551459Y-105059500D01*
X77496662Y-105070399D01*
X77358170Y-105097947D01*
X77358160Y-105097950D01*
X77176086Y-105173367D01*
X77012218Y-105282860D01*
X77012217Y-105282862D01*
X76872862Y-105422217D01*
X76872860Y-105422218D01*
X76763367Y-105586086D01*
X76687950Y-105768160D01*
X76687947Y-105768170D01*
X76649500Y-105961460D01*
X76649500Y-106158539D01*
X76687947Y-106351829D01*
X76687950Y-106351839D01*
X76763367Y-106533913D01*
X76872860Y-106697781D01*
X77012218Y-106837139D01*
X77176086Y-106946632D01*
X77342542Y-107015580D01*
X77358165Y-107022051D01*
X77551459Y-107060500D01*
X77551461Y-107060500D01*
X77748539Y-107060500D01*
X77748541Y-107060500D01*
X77941835Y-107022051D01*
X78123914Y-106946632D01*
X78287782Y-106837139D01*
X78427139Y-106697782D01*
X78483971Y-106612725D01*
X78531063Y-106581260D01*
X78586612Y-106592309D01*
X78618078Y-106639401D01*
X78619500Y-106653838D01*
X78619500Y-132023177D01*
X78597826Y-132075503D01*
X78169540Y-132503788D01*
X78129979Y-132572309D01*
X78129977Y-132572314D01*
X78109500Y-132648735D01*
X78109500Y-132715500D01*
X78087826Y-132767826D01*
X78035500Y-132789500D01*
X77390246Y-132789500D01*
X77388783Y-132789644D01*
X77381536Y-132790000D01*
X77210000Y-132790000D01*
X77210000Y-132961536D01*
X77209644Y-132968783D01*
X77209500Y-132970246D01*
X77209500Y-139726000D01*
X77187826Y-139778326D01*
X77135500Y-139800000D01*
X76474000Y-139800000D01*
X76421674Y-139778326D01*
X76400000Y-139726000D01*
X76400000Y-116250001D01*
X76400000Y-116250000D01*
X76396157Y-116210982D01*
X76384776Y-116173463D01*
X76366294Y-116138886D01*
X76341421Y-116108579D01*
X76311114Y-116083706D01*
X76276537Y-116065224D01*
X76250400Y-116057295D01*
X76239019Y-116053843D01*
X76219509Y-116051921D01*
X76200000Y-116050000D01*
X76199999Y-116050000D01*
X68613494Y-116050000D01*
X68561168Y-116028326D01*
X68221674Y-115688832D01*
X68200000Y-115636506D01*
X68200000Y-105961460D01*
X71569500Y-105961460D01*
X71569500Y-106158539D01*
X71607947Y-106351829D01*
X71607950Y-106351839D01*
X71683367Y-106533913D01*
X71792860Y-106697781D01*
X71932218Y-106837139D01*
X72096086Y-106946632D01*
X72262542Y-107015580D01*
X72278165Y-107022051D01*
X72471459Y-107060500D01*
X72471461Y-107060500D01*
X72668539Y-107060500D01*
X72668541Y-107060500D01*
X72861835Y-107022051D01*
X73043914Y-106946632D01*
X73207782Y-106837139D01*
X73347139Y-106697782D01*
X73456632Y-106533914D01*
X73532051Y-106351835D01*
X73570500Y-106158541D01*
X73570500Y-105961460D01*
X74109500Y-105961460D01*
X74109500Y-106158539D01*
X74147947Y-106351829D01*
X74147950Y-106351839D01*
X74223367Y-106533913D01*
X74332860Y-106697781D01*
X74472218Y-106837139D01*
X74636086Y-106946632D01*
X74802542Y-107015580D01*
X74818165Y-107022051D01*
X75011459Y-107060500D01*
X75011461Y-107060500D01*
X75208539Y-107060500D01*
X75208541Y-107060500D01*
X75401835Y-107022051D01*
X75583914Y-106946632D01*
X75747782Y-106837139D01*
X75887139Y-106697782D01*
X75996632Y-106533914D01*
X76072051Y-106351835D01*
X76110500Y-106158541D01*
X76110500Y-105961459D01*
X76072051Y-105768165D01*
X75996632Y-105586086D01*
X75887139Y-105422218D01*
X75747782Y-105282861D01*
X75709227Y-105257099D01*
X75583913Y-105173367D01*
X75401839Y-105097950D01*
X75401829Y-105097947D01*
X75272388Y-105072200D01*
X75208541Y-105059500D01*
X75011459Y-105059500D01*
X74956662Y-105070399D01*
X74818170Y-105097947D01*
X74818160Y-105097950D01*
X74636086Y-105173367D01*
X74472218Y-105282860D01*
X74472217Y-105282862D01*
X74332862Y-105422217D01*
X74332860Y-105422218D01*
X74223367Y-105586086D01*
X74147950Y-105768160D01*
X74147947Y-105768170D01*
X74109500Y-105961460D01*
X73570500Y-105961460D01*
X73570500Y-105961459D01*
X73532051Y-105768165D01*
X73456632Y-105586086D01*
X73347139Y-105422218D01*
X73207782Y-105282861D01*
X73169227Y-105257099D01*
X73043913Y-105173367D01*
X72861839Y-105097950D01*
X72861829Y-105097947D01*
X72732388Y-105072200D01*
X72668541Y-105059500D01*
X72471459Y-105059500D01*
X72416662Y-105070399D01*
X72278170Y-105097947D01*
X72278160Y-105097950D01*
X72096086Y-105173367D01*
X71932218Y-105282860D01*
X71932217Y-105282862D01*
X71792862Y-105422217D01*
X71792860Y-105422218D01*
X71683367Y-105586086D01*
X71607950Y-105768160D01*
X71607947Y-105768170D01*
X71569500Y-105961460D01*
X68200000Y-105961460D01*
X68200000Y-98341460D01*
X74109500Y-98341460D01*
X74109500Y-98538539D01*
X74147947Y-98731829D01*
X74147950Y-98731839D01*
X74223367Y-98913913D01*
X74332860Y-99077781D01*
X74472218Y-99217139D01*
X74636086Y-99326632D01*
X74775913Y-99384550D01*
X74818165Y-99402051D01*
X75011459Y-99440500D01*
X75011461Y-99440500D01*
X75208539Y-99440500D01*
X75208541Y-99440500D01*
X75401835Y-99402051D01*
X75583914Y-99326632D01*
X75747782Y-99217139D01*
X75887139Y-99077782D01*
X75996632Y-98913914D01*
X76072051Y-98731835D01*
X76110500Y-98538541D01*
X76110500Y-98341460D01*
X76649500Y-98341460D01*
X76649500Y-98538539D01*
X76687947Y-98731829D01*
X76687950Y-98731839D01*
X76763367Y-98913913D01*
X76872860Y-99077781D01*
X77012218Y-99217139D01*
X77176086Y-99326632D01*
X77315913Y-99384550D01*
X77358165Y-99402051D01*
X77551459Y-99440500D01*
X77551461Y-99440500D01*
X77748539Y-99440500D01*
X77748541Y-99440500D01*
X77941835Y-99402051D01*
X78123914Y-99326632D01*
X78287782Y-99217139D01*
X78427139Y-99077782D01*
X78536632Y-98913914D01*
X78612051Y-98731835D01*
X78650500Y-98538541D01*
X78650500Y-98341459D01*
X78612051Y-98148165D01*
X78536632Y-97966086D01*
X78427139Y-97802218D01*
X78287782Y-97662861D01*
X78224014Y-97620252D01*
X78123913Y-97553367D01*
X77941839Y-97477950D01*
X77941829Y-97477947D01*
X77812388Y-97452200D01*
X77748541Y-97439500D01*
X77551459Y-97439500D01*
X77498421Y-97450050D01*
X77358170Y-97477947D01*
X77358160Y-97477950D01*
X77176086Y-97553367D01*
X77012218Y-97662860D01*
X77012217Y-97662862D01*
X76872862Y-97802217D01*
X76872860Y-97802218D01*
X76763367Y-97966086D01*
X76687950Y-98148160D01*
X76687947Y-98148170D01*
X76649500Y-98341460D01*
X76110500Y-98341460D01*
X76110500Y-98341459D01*
X76072051Y-98148165D01*
X75996632Y-97966086D01*
X75887139Y-97802218D01*
X75747782Y-97662861D01*
X75684014Y-97620252D01*
X75583913Y-97553367D01*
X75401839Y-97477950D01*
X75401829Y-97477947D01*
X75272388Y-97452200D01*
X75208541Y-97439500D01*
X75011459Y-97439500D01*
X74958421Y-97450050D01*
X74818170Y-97477947D01*
X74818160Y-97477950D01*
X74636086Y-97553367D01*
X74472218Y-97662860D01*
X74472217Y-97662862D01*
X74332862Y-97802217D01*
X74332860Y-97802218D01*
X74223367Y-97966086D01*
X74147950Y-98148160D01*
X74147947Y-98148170D01*
X74109500Y-98341460D01*
X68200000Y-98341460D01*
X68200000Y-95661310D01*
X77829500Y-95661310D01*
X77829500Y-95838689D01*
X77864104Y-96012660D01*
X77864107Y-96012670D01*
X77931985Y-96176544D01*
X78000570Y-96279189D01*
X78030536Y-96324035D01*
X78155965Y-96449464D01*
X78303453Y-96548013D01*
X78303454Y-96548013D01*
X78303455Y-96548014D01*
X78422902Y-96597490D01*
X78467334Y-96615894D01*
X78641309Y-96650500D01*
X78641311Y-96650500D01*
X78818689Y-96650500D01*
X78818691Y-96650500D01*
X78992666Y-96615894D01*
X79156547Y-96548013D01*
X79304035Y-96449464D01*
X79429464Y-96324035D01*
X79528013Y-96176547D01*
X79595894Y-96012666D01*
X79630500Y-95838691D01*
X79630500Y-95661310D01*
X83829500Y-95661310D01*
X83829500Y-95838689D01*
X83864104Y-96012660D01*
X83864107Y-96012670D01*
X83931985Y-96176544D01*
X84000570Y-96279189D01*
X84030536Y-96324035D01*
X84155965Y-96449464D01*
X84303453Y-96548013D01*
X84303454Y-96548013D01*
X84303455Y-96548014D01*
X84422902Y-96597490D01*
X84467334Y-96615894D01*
X84641309Y-96650500D01*
X84641311Y-96650500D01*
X84818689Y-96650500D01*
X84818691Y-96650500D01*
X84992666Y-96615894D01*
X85156547Y-96548013D01*
X85304035Y-96449464D01*
X85429464Y-96324035D01*
X85528013Y-96176547D01*
X85595894Y-96012666D01*
X85630500Y-95838691D01*
X85630500Y-95661309D01*
X85595894Y-95487334D01*
X85528013Y-95323453D01*
X85429464Y-95175965D01*
X85304035Y-95050536D01*
X85156547Y-94951987D01*
X85156546Y-94951986D01*
X85156544Y-94951985D01*
X84992670Y-94884107D01*
X84992660Y-94884104D01*
X84876156Y-94860930D01*
X84818691Y-94849500D01*
X84641309Y-94849500D01*
X84591989Y-94859310D01*
X84467339Y-94884104D01*
X84467329Y-94884107D01*
X84303455Y-94951985D01*
X84155968Y-95050533D01*
X84030533Y-95175968D01*
X83931985Y-95323455D01*
X83864107Y-95487329D01*
X83864104Y-95487339D01*
X83829500Y-95661310D01*
X79630500Y-95661310D01*
X79630500Y-95661309D01*
X79595894Y-95487334D01*
X79528013Y-95323453D01*
X79429464Y-95175965D01*
X79304035Y-95050536D01*
X79156547Y-94951987D01*
X79156546Y-94951986D01*
X79156544Y-94951985D01*
X78992670Y-94884107D01*
X78992660Y-94884104D01*
X78876156Y-94860930D01*
X78818691Y-94849500D01*
X78641309Y-94849500D01*
X78591989Y-94859310D01*
X78467339Y-94884104D01*
X78467329Y-94884107D01*
X78303455Y-94951985D01*
X78155968Y-95050533D01*
X78030533Y-95175968D01*
X77931985Y-95323455D01*
X77864107Y-95487329D01*
X77864104Y-95487339D01*
X77829500Y-95661310D01*
X68200000Y-95661310D01*
X68200000Y-91771460D01*
X74869500Y-91771460D01*
X74869500Y-91968539D01*
X74907947Y-92161829D01*
X74907950Y-92161839D01*
X74983367Y-92343913D01*
X75000940Y-92370212D01*
X75092861Y-92507782D01*
X75232218Y-92647139D01*
X75396086Y-92756632D01*
X75578165Y-92832051D01*
X75771459Y-92870500D01*
X75771461Y-92870500D01*
X75968539Y-92870500D01*
X75968541Y-92870500D01*
X76161835Y-92832051D01*
X76343914Y-92756632D01*
X76507782Y-92647139D01*
X76647139Y-92507782D01*
X76756632Y-92343914D01*
X76832051Y-92161835D01*
X76870500Y-91968541D01*
X76870500Y-91771460D01*
X77409500Y-91771460D01*
X77409500Y-91968539D01*
X77447947Y-92161829D01*
X77447950Y-92161839D01*
X77523367Y-92343913D01*
X77540940Y-92370212D01*
X77632861Y-92507782D01*
X77772218Y-92647139D01*
X77936086Y-92756632D01*
X78118165Y-92832051D01*
X78311459Y-92870500D01*
X78311461Y-92870500D01*
X78508539Y-92870500D01*
X78508541Y-92870500D01*
X78701835Y-92832051D01*
X78883914Y-92756632D01*
X79047782Y-92647139D01*
X79187139Y-92507782D01*
X79296632Y-92343914D01*
X79372051Y-92161835D01*
X79410500Y-91968541D01*
X79410500Y-91771460D01*
X79949500Y-91771460D01*
X79949500Y-91968539D01*
X79987947Y-92161829D01*
X79987950Y-92161839D01*
X80063367Y-92343913D01*
X80080940Y-92370212D01*
X80172861Y-92507782D01*
X80312218Y-92647139D01*
X80476086Y-92756632D01*
X80658165Y-92832051D01*
X80851459Y-92870500D01*
X80851461Y-92870500D01*
X81048539Y-92870500D01*
X81048541Y-92870500D01*
X81241835Y-92832051D01*
X81369568Y-92779142D01*
X81426204Y-92779142D01*
X81450212Y-92795183D01*
X82225340Y-93570311D01*
X82281289Y-93626260D01*
X82349811Y-93665821D01*
X82349812Y-93665821D01*
X82349814Y-93665822D01*
X82388024Y-93676060D01*
X82426235Y-93686299D01*
X82426236Y-93686300D01*
X82426238Y-93686300D01*
X82505362Y-93686300D01*
X84750677Y-93686300D01*
X84803003Y-93707974D01*
X86421352Y-95326323D01*
X86443026Y-95378649D01*
X86437394Y-95406966D01*
X86404105Y-95487337D01*
X86404104Y-95487339D01*
X86369500Y-95661310D01*
X86369500Y-95838689D01*
X86404104Y-96012660D01*
X86404107Y-96012670D01*
X86471985Y-96176544D01*
X86540570Y-96279189D01*
X86570536Y-96324035D01*
X86695965Y-96449464D01*
X86843453Y-96548013D01*
X86843454Y-96548013D01*
X86843455Y-96548014D01*
X86962902Y-96597490D01*
X87007334Y-96615894D01*
X87181309Y-96650500D01*
X87181311Y-96650500D01*
X87358689Y-96650500D01*
X87358691Y-96650500D01*
X87532666Y-96615894D01*
X87696547Y-96548013D01*
X87844035Y-96449464D01*
X87969464Y-96324035D01*
X88068013Y-96176547D01*
X88135894Y-96012666D01*
X88170500Y-95838691D01*
X88170500Y-95661309D01*
X88135894Y-95487334D01*
X88068013Y-95323453D01*
X87969464Y-95175965D01*
X87844035Y-95050536D01*
X87696547Y-94951987D01*
X87696546Y-94951986D01*
X87696544Y-94951985D01*
X87532670Y-94884107D01*
X87532660Y-94884104D01*
X87416156Y-94860930D01*
X87358691Y-94849500D01*
X87181309Y-94849500D01*
X87131989Y-94859310D01*
X87007339Y-94884104D01*
X87007337Y-94884105D01*
X87007335Y-94884105D01*
X87007334Y-94884106D01*
X87007332Y-94884107D01*
X86926966Y-94917394D01*
X86870329Y-94917392D01*
X86846323Y-94901352D01*
X85090311Y-93145340D01*
X85021790Y-93105779D01*
X85021785Y-93105777D01*
X84945364Y-93085300D01*
X84945362Y-93085300D01*
X82620923Y-93085300D01*
X82568597Y-93063626D01*
X81875183Y-92370212D01*
X81853509Y-92317886D01*
X81859142Y-92289567D01*
X81862695Y-92280989D01*
X81912051Y-92161835D01*
X81950500Y-91968541D01*
X81950500Y-91771460D01*
X85029500Y-91771460D01*
X85029500Y-91968539D01*
X85067947Y-92161829D01*
X85067950Y-92161839D01*
X85143367Y-92343913D01*
X85160940Y-92370212D01*
X85252861Y-92507782D01*
X85392218Y-92647139D01*
X85556086Y-92756632D01*
X85738165Y-92832051D01*
X85931459Y-92870500D01*
X85931461Y-92870500D01*
X86128539Y-92870500D01*
X86128541Y-92870500D01*
X86321835Y-92832051D01*
X86449568Y-92779142D01*
X86506204Y-92779142D01*
X86530212Y-92795183D01*
X86961089Y-93226060D01*
X87029612Y-93265622D01*
X87106038Y-93286100D01*
X87106040Y-93286100D01*
X92573964Y-93286100D01*
X92573964Y-93286099D01*
X92650389Y-93265621D01*
X92718911Y-93226060D01*
X92774860Y-93170111D01*
X93149787Y-92795182D01*
X93202113Y-92773509D01*
X93230431Y-92779141D01*
X93358165Y-92832051D01*
X93551459Y-92870500D01*
X93551461Y-92870500D01*
X93748539Y-92870500D01*
X93748541Y-92870500D01*
X93941835Y-92832051D01*
X94123914Y-92756632D01*
X94287782Y-92647139D01*
X94427139Y-92507782D01*
X94536632Y-92343914D01*
X94612051Y-92161835D01*
X94650500Y-91968541D01*
X94650500Y-91771459D01*
X94612051Y-91578165D01*
X94536632Y-91396086D01*
X94427139Y-91232218D01*
X94287782Y-91092861D01*
X94225732Y-91051400D01*
X94123913Y-90983367D01*
X93941839Y-90907950D01*
X93941829Y-90907947D01*
X93812388Y-90882200D01*
X93748541Y-90869500D01*
X93551459Y-90869500D01*
X93496662Y-90880399D01*
X93358170Y-90907947D01*
X93358160Y-90907950D01*
X93176086Y-90983367D01*
X93012218Y-91092860D01*
X93012217Y-91092862D01*
X92872862Y-91232217D01*
X92872860Y-91232218D01*
X92763367Y-91396086D01*
X92687950Y-91578160D01*
X92687947Y-91578170D01*
X92649500Y-91771460D01*
X92649500Y-91968539D01*
X92687947Y-92161829D01*
X92687950Y-92161839D01*
X92740857Y-92289567D01*
X92740857Y-92346204D01*
X92724816Y-92370211D01*
X92431603Y-92663426D01*
X92379277Y-92685100D01*
X91888473Y-92685100D01*
X91836147Y-92663426D01*
X91814473Y-92611100D01*
X91836147Y-92558774D01*
X91887138Y-92507783D01*
X91887139Y-92507782D01*
X91996632Y-92343914D01*
X92072051Y-92161835D01*
X92110500Y-91968541D01*
X92110500Y-91771459D01*
X92072051Y-91578165D01*
X91996632Y-91396086D01*
X91887139Y-91232218D01*
X91747782Y-91092861D01*
X91685732Y-91051400D01*
X91583913Y-90983367D01*
X91401839Y-90907950D01*
X91401829Y-90907947D01*
X91272388Y-90882200D01*
X91208541Y-90869500D01*
X91011459Y-90869500D01*
X90956662Y-90880399D01*
X90818170Y-90907947D01*
X90818160Y-90907950D01*
X90636086Y-90983367D01*
X90472218Y-91092860D01*
X90472217Y-91092862D01*
X90332862Y-91232217D01*
X90332860Y-91232218D01*
X90223367Y-91396086D01*
X90147950Y-91578160D01*
X90147947Y-91578170D01*
X90109500Y-91771460D01*
X90109500Y-91968539D01*
X90147947Y-92161829D01*
X90147950Y-92161839D01*
X90223367Y-92343913D01*
X90332860Y-92507781D01*
X90383853Y-92558774D01*
X90405527Y-92611100D01*
X90383853Y-92663426D01*
X90331527Y-92685100D01*
X89348473Y-92685100D01*
X89296147Y-92663426D01*
X89274473Y-92611100D01*
X89296147Y-92558774D01*
X89347138Y-92507783D01*
X89347139Y-92507782D01*
X89456632Y-92343914D01*
X89532051Y-92161835D01*
X89570500Y-91968541D01*
X89570500Y-91771459D01*
X89532051Y-91578165D01*
X89456632Y-91396086D01*
X89347139Y-91232218D01*
X89207782Y-91092861D01*
X89145732Y-91051400D01*
X89043913Y-90983367D01*
X88861839Y-90907950D01*
X88861829Y-90907947D01*
X88732388Y-90882200D01*
X88668541Y-90869500D01*
X88471459Y-90869500D01*
X88416662Y-90880399D01*
X88278170Y-90907947D01*
X88278160Y-90907950D01*
X88096086Y-90983367D01*
X87932218Y-91092860D01*
X87932217Y-91092862D01*
X87792862Y-91232217D01*
X87792860Y-91232218D01*
X87683367Y-91396086D01*
X87607950Y-91578160D01*
X87607947Y-91578170D01*
X87569500Y-91771460D01*
X87569500Y-91968539D01*
X87607947Y-92161829D01*
X87607950Y-92161839D01*
X87683367Y-92343913D01*
X87792860Y-92507781D01*
X87843853Y-92558774D01*
X87865527Y-92611100D01*
X87843853Y-92663426D01*
X87791527Y-92685100D01*
X87300723Y-92685100D01*
X87248397Y-92663426D01*
X86955183Y-92370212D01*
X86933509Y-92317886D01*
X86939142Y-92289567D01*
X86942695Y-92280989D01*
X86992051Y-92161835D01*
X87030500Y-91968541D01*
X87030500Y-91771459D01*
X86992051Y-91578165D01*
X86916632Y-91396086D01*
X86807139Y-91232218D01*
X86667782Y-91092861D01*
X86605732Y-91051400D01*
X86503913Y-90983367D01*
X86321839Y-90907950D01*
X86321829Y-90907947D01*
X86192388Y-90882200D01*
X86128541Y-90869500D01*
X85931459Y-90869500D01*
X85876662Y-90880399D01*
X85738170Y-90907947D01*
X85738160Y-90907950D01*
X85556086Y-90983367D01*
X85392218Y-91092860D01*
X85392217Y-91092862D01*
X85252862Y-91232217D01*
X85252860Y-91232218D01*
X85143367Y-91396086D01*
X85067950Y-91578160D01*
X85067947Y-91578170D01*
X85029500Y-91771460D01*
X81950500Y-91771460D01*
X81950500Y-91771459D01*
X81912051Y-91578165D01*
X81836632Y-91396086D01*
X81727139Y-91232218D01*
X81587782Y-91092861D01*
X81525732Y-91051400D01*
X81423913Y-90983367D01*
X81241839Y-90907950D01*
X81241829Y-90907947D01*
X81112388Y-90882200D01*
X81048541Y-90869500D01*
X80851459Y-90869500D01*
X80796662Y-90880399D01*
X80658170Y-90907947D01*
X80658160Y-90907950D01*
X80476086Y-90983367D01*
X80312218Y-91092860D01*
X80312217Y-91092862D01*
X80172862Y-91232217D01*
X80172860Y-91232218D01*
X80063367Y-91396086D01*
X79987950Y-91578160D01*
X79987947Y-91578170D01*
X79949500Y-91771460D01*
X79410500Y-91771460D01*
X79410500Y-91771459D01*
X79372051Y-91578165D01*
X79296632Y-91396086D01*
X79187139Y-91232218D01*
X79047782Y-91092861D01*
X78985732Y-91051400D01*
X78883913Y-90983367D01*
X78701839Y-90907950D01*
X78701829Y-90907947D01*
X78572388Y-90882200D01*
X78508541Y-90869500D01*
X78311459Y-90869500D01*
X78256662Y-90880399D01*
X78118170Y-90907947D01*
X78118160Y-90907950D01*
X77936086Y-90983367D01*
X77772218Y-91092860D01*
X77772217Y-91092862D01*
X77632862Y-91232217D01*
X77632860Y-91232218D01*
X77523367Y-91396086D01*
X77447950Y-91578160D01*
X77447947Y-91578170D01*
X77409500Y-91771460D01*
X76870500Y-91771460D01*
X76870500Y-91771459D01*
X76832051Y-91578165D01*
X76756632Y-91396086D01*
X76647139Y-91232218D01*
X76507782Y-91092861D01*
X76445732Y-91051400D01*
X76343913Y-90983367D01*
X76161839Y-90907950D01*
X76161829Y-90907947D01*
X76032388Y-90882200D01*
X75968541Y-90869500D01*
X75771459Y-90869500D01*
X75716662Y-90880399D01*
X75578170Y-90907947D01*
X75578160Y-90907950D01*
X75396086Y-90983367D01*
X75232218Y-91092860D01*
X75232217Y-91092862D01*
X75092862Y-91232217D01*
X75092860Y-91232218D01*
X74983367Y-91396086D01*
X74907950Y-91578160D01*
X74907947Y-91578170D01*
X74869500Y-91771460D01*
X68200000Y-91771460D01*
X68200000Y-76531460D01*
X74869500Y-76531460D01*
X74869500Y-76728539D01*
X74907947Y-76921829D01*
X74907950Y-76921839D01*
X74983367Y-77103913D01*
X75007688Y-77140311D01*
X75092861Y-77267782D01*
X75232218Y-77407139D01*
X75396086Y-77516632D01*
X75578165Y-77592051D01*
X75771459Y-77630500D01*
X75771461Y-77630500D01*
X75968539Y-77630500D01*
X75968541Y-77630500D01*
X76161835Y-77592051D01*
X76343914Y-77516632D01*
X76507782Y-77407139D01*
X76647139Y-77267782D01*
X76756632Y-77103914D01*
X76832051Y-76921835D01*
X76870500Y-76728541D01*
X76870500Y-76531460D01*
X77409500Y-76531460D01*
X77409500Y-76728539D01*
X77447947Y-76921829D01*
X77447950Y-76921839D01*
X77523367Y-77103913D01*
X77547688Y-77140311D01*
X77632861Y-77267782D01*
X77772218Y-77407139D01*
X77936086Y-77516632D01*
X78118165Y-77592051D01*
X78311459Y-77630500D01*
X78311461Y-77630500D01*
X78508539Y-77630500D01*
X78508541Y-77630500D01*
X78701835Y-77592051D01*
X78883914Y-77516632D01*
X79047782Y-77407139D01*
X79187139Y-77267782D01*
X79296632Y-77103914D01*
X79372051Y-76921835D01*
X79410500Y-76728541D01*
X79410500Y-76531460D01*
X79949500Y-76531460D01*
X79949500Y-76728539D01*
X79987947Y-76921829D01*
X79987950Y-76921839D01*
X80063367Y-77103913D01*
X80087688Y-77140311D01*
X80172861Y-77267782D01*
X80312218Y-77407139D01*
X80476086Y-77516632D01*
X80658165Y-77592051D01*
X80851459Y-77630500D01*
X80851461Y-77630500D01*
X81048539Y-77630500D01*
X81048541Y-77630500D01*
X81241835Y-77592051D01*
X81423914Y-77516632D01*
X81587782Y-77407139D01*
X81727139Y-77267782D01*
X81836632Y-77103914D01*
X81912051Y-76921835D01*
X81950500Y-76728541D01*
X81950500Y-76531460D01*
X82489500Y-76531460D01*
X82489500Y-76728539D01*
X82527947Y-76921829D01*
X82527950Y-76921839D01*
X82603367Y-77103913D01*
X82627688Y-77140311D01*
X82712861Y-77267782D01*
X82852218Y-77407139D01*
X83016086Y-77516632D01*
X83198165Y-77592051D01*
X83391459Y-77630500D01*
X83391461Y-77630500D01*
X83588539Y-77630500D01*
X83588541Y-77630500D01*
X83781835Y-77592051D01*
X83963914Y-77516632D01*
X84127782Y-77407139D01*
X84267139Y-77267782D01*
X84376632Y-77103914D01*
X84452051Y-76921835D01*
X84490500Y-76728541D01*
X84490500Y-76531460D01*
X85029500Y-76531460D01*
X85029500Y-76728539D01*
X85067947Y-76921829D01*
X85067950Y-76921839D01*
X85143367Y-77103913D01*
X85167688Y-77140311D01*
X85252861Y-77267782D01*
X85392218Y-77407139D01*
X85556086Y-77516632D01*
X85738165Y-77592051D01*
X85931459Y-77630500D01*
X85931461Y-77630500D01*
X86128539Y-77630500D01*
X86128541Y-77630500D01*
X86321835Y-77592051D01*
X86503914Y-77516632D01*
X86667782Y-77407139D01*
X86807139Y-77267782D01*
X86916632Y-77103914D01*
X86992051Y-76921835D01*
X87030500Y-76728541D01*
X87030500Y-76531460D01*
X87569500Y-76531460D01*
X87569500Y-76728539D01*
X87607947Y-76921829D01*
X87607950Y-76921839D01*
X87683367Y-77103913D01*
X87707688Y-77140311D01*
X87792861Y-77267782D01*
X87932218Y-77407139D01*
X88096086Y-77516632D01*
X88278165Y-77592051D01*
X88471459Y-77630500D01*
X88471461Y-77630500D01*
X88668539Y-77630500D01*
X88668541Y-77630500D01*
X88861835Y-77592051D01*
X89043914Y-77516632D01*
X89207782Y-77407139D01*
X89347139Y-77267782D01*
X89456632Y-77103914D01*
X89532051Y-76921835D01*
X89570500Y-76728541D01*
X89570500Y-76531460D01*
X90109500Y-76531460D01*
X90109500Y-76728539D01*
X90147947Y-76921829D01*
X90147950Y-76921839D01*
X90223367Y-77103913D01*
X90247688Y-77140311D01*
X90332861Y-77267782D01*
X90472218Y-77407139D01*
X90636086Y-77516632D01*
X90818165Y-77592051D01*
X91011459Y-77630500D01*
X91011461Y-77630500D01*
X91208539Y-77630500D01*
X91208541Y-77630500D01*
X91401835Y-77592051D01*
X91583914Y-77516632D01*
X91747782Y-77407139D01*
X91887139Y-77267782D01*
X91996632Y-77103914D01*
X92072051Y-76921835D01*
X92110500Y-76728541D01*
X92110500Y-76531460D01*
X92649500Y-76531460D01*
X92649500Y-76728539D01*
X92687947Y-76921829D01*
X92687950Y-76921839D01*
X92763367Y-77103913D01*
X92787688Y-77140311D01*
X92872861Y-77267782D01*
X93012218Y-77407139D01*
X93176086Y-77516632D01*
X93358165Y-77592051D01*
X93551459Y-77630500D01*
X93551461Y-77630500D01*
X93748539Y-77630500D01*
X93748541Y-77630500D01*
X93941835Y-77592051D01*
X94123914Y-77516632D01*
X94287782Y-77407139D01*
X94427139Y-77267782D01*
X94536632Y-77103914D01*
X94612051Y-76921835D01*
X94650500Y-76728541D01*
X94650500Y-76531460D01*
X95189500Y-76531460D01*
X95189500Y-76728539D01*
X95227947Y-76921829D01*
X95227950Y-76921839D01*
X95303367Y-77103913D01*
X95327688Y-77140311D01*
X95412861Y-77267782D01*
X95552218Y-77407139D01*
X95716086Y-77516632D01*
X95898165Y-77592051D01*
X96091459Y-77630500D01*
X96091461Y-77630500D01*
X96288539Y-77630500D01*
X96288541Y-77630500D01*
X96481835Y-77592051D01*
X96663914Y-77516632D01*
X96827782Y-77407139D01*
X96967139Y-77267782D01*
X97076632Y-77103914D01*
X97152051Y-76921835D01*
X97190500Y-76728541D01*
X97190500Y-76531460D01*
X97729500Y-76531460D01*
X97729500Y-76728539D01*
X97767947Y-76921829D01*
X97767950Y-76921839D01*
X97843367Y-77103913D01*
X97867688Y-77140311D01*
X97952861Y-77267782D01*
X98092218Y-77407139D01*
X98256086Y-77516632D01*
X98438165Y-77592051D01*
X98631459Y-77630500D01*
X98631461Y-77630500D01*
X98828539Y-77630500D01*
X98828541Y-77630500D01*
X99021835Y-77592051D01*
X99203914Y-77516632D01*
X99367782Y-77407139D01*
X99507139Y-77267782D01*
X99616632Y-77103914D01*
X99692051Y-76921835D01*
X99730500Y-76728541D01*
X99730500Y-76531460D01*
X100269500Y-76531460D01*
X100269500Y-76728539D01*
X100307947Y-76921829D01*
X100307950Y-76921839D01*
X100383367Y-77103913D01*
X100407688Y-77140311D01*
X100492861Y-77267782D01*
X100632218Y-77407139D01*
X100796086Y-77516632D01*
X100978165Y-77592051D01*
X101171459Y-77630500D01*
X101171461Y-77630500D01*
X101368539Y-77630500D01*
X101368541Y-77630500D01*
X101561835Y-77592051D01*
X101743914Y-77516632D01*
X101907782Y-77407139D01*
X102047139Y-77267782D01*
X102156632Y-77103914D01*
X102232051Y-76921835D01*
X102270500Y-76728541D01*
X102270500Y-76531460D01*
X102809500Y-76531460D01*
X102809500Y-76728539D01*
X102847947Y-76921829D01*
X102847950Y-76921839D01*
X102923367Y-77103913D01*
X102947688Y-77140311D01*
X103032861Y-77267782D01*
X103172218Y-77407139D01*
X103336086Y-77516632D01*
X103518165Y-77592051D01*
X103711459Y-77630500D01*
X103711461Y-77630500D01*
X103908539Y-77630500D01*
X103908541Y-77630500D01*
X104101835Y-77592051D01*
X104283914Y-77516632D01*
X104447782Y-77407139D01*
X104587139Y-77267782D01*
X104696632Y-77103914D01*
X104772051Y-76921835D01*
X104810500Y-76728541D01*
X104810500Y-76531460D01*
X105349500Y-76531460D01*
X105349500Y-76728539D01*
X105387947Y-76921829D01*
X105387950Y-76921839D01*
X105463367Y-77103913D01*
X105487688Y-77140311D01*
X105572861Y-77267782D01*
X105712218Y-77407139D01*
X105876086Y-77516632D01*
X106058165Y-77592051D01*
X106251459Y-77630500D01*
X106251461Y-77630500D01*
X106448539Y-77630500D01*
X106448541Y-77630500D01*
X106641835Y-77592051D01*
X106823914Y-77516632D01*
X106987782Y-77407139D01*
X107127139Y-77267782D01*
X107236632Y-77103914D01*
X107312051Y-76921835D01*
X107350500Y-76728541D01*
X107350500Y-76531460D01*
X107889500Y-76531460D01*
X107889500Y-76728539D01*
X107927947Y-76921829D01*
X107927950Y-76921839D01*
X108003367Y-77103913D01*
X108027688Y-77140311D01*
X108112861Y-77267782D01*
X108252218Y-77407139D01*
X108416086Y-77516632D01*
X108598165Y-77592051D01*
X108791459Y-77630500D01*
X108791461Y-77630500D01*
X108988539Y-77630500D01*
X108988541Y-77630500D01*
X109181835Y-77592051D01*
X109363914Y-77516632D01*
X109527782Y-77407139D01*
X109667139Y-77267782D01*
X109776632Y-77103914D01*
X109852051Y-76921835D01*
X109890500Y-76728541D01*
X109890500Y-76531460D01*
X110429500Y-76531460D01*
X110429500Y-76728539D01*
X110467947Y-76921829D01*
X110467950Y-76921839D01*
X110543367Y-77103913D01*
X110567688Y-77140311D01*
X110652861Y-77267782D01*
X110792218Y-77407139D01*
X110956086Y-77516632D01*
X111138165Y-77592051D01*
X111331459Y-77630500D01*
X111331461Y-77630500D01*
X111528539Y-77630500D01*
X111528541Y-77630500D01*
X111721835Y-77592051D01*
X111903914Y-77516632D01*
X112067782Y-77407139D01*
X112207139Y-77267782D01*
X112316632Y-77103914D01*
X112392051Y-76921835D01*
X112430500Y-76728541D01*
X112430500Y-76531460D01*
X112969500Y-76531460D01*
X112969500Y-76728539D01*
X113007947Y-76921829D01*
X113007950Y-76921839D01*
X113083367Y-77103913D01*
X113107688Y-77140311D01*
X113192861Y-77267782D01*
X113332218Y-77407139D01*
X113496086Y-77516632D01*
X113678165Y-77592051D01*
X113871459Y-77630500D01*
X113871461Y-77630500D01*
X114068539Y-77630500D01*
X114068541Y-77630500D01*
X114261835Y-77592051D01*
X114443914Y-77516632D01*
X114607782Y-77407139D01*
X114747139Y-77267782D01*
X114856632Y-77103914D01*
X114932051Y-76921835D01*
X114970500Y-76728541D01*
X114970500Y-76531459D01*
X114932051Y-76338165D01*
X114856632Y-76156086D01*
X114747139Y-75992218D01*
X114607782Y-75852861D01*
X114604794Y-75850864D01*
X114443913Y-75743367D01*
X114261839Y-75667950D01*
X114261829Y-75667947D01*
X114132388Y-75642200D01*
X114068541Y-75629500D01*
X113871459Y-75629500D01*
X113816662Y-75640399D01*
X113678170Y-75667947D01*
X113678160Y-75667950D01*
X113496086Y-75743367D01*
X113332218Y-75852860D01*
X113332217Y-75852862D01*
X113192862Y-75992217D01*
X113192860Y-75992218D01*
X113083367Y-76156086D01*
X113007950Y-76338160D01*
X113007947Y-76338170D01*
X112969500Y-76531460D01*
X112430500Y-76531460D01*
X112430500Y-76531459D01*
X112392051Y-76338165D01*
X112316632Y-76156086D01*
X112207139Y-75992218D01*
X112067782Y-75852861D01*
X112064794Y-75850864D01*
X111903913Y-75743367D01*
X111721839Y-75667950D01*
X111721829Y-75667947D01*
X111592388Y-75642200D01*
X111528541Y-75629500D01*
X111331459Y-75629500D01*
X111276662Y-75640399D01*
X111138170Y-75667947D01*
X111138160Y-75667950D01*
X110956086Y-75743367D01*
X110792218Y-75852860D01*
X110792217Y-75852862D01*
X110652862Y-75992217D01*
X110652860Y-75992218D01*
X110543367Y-76156086D01*
X110467950Y-76338160D01*
X110467947Y-76338170D01*
X110429500Y-76531460D01*
X109890500Y-76531460D01*
X109890500Y-76531459D01*
X109852051Y-76338165D01*
X109776632Y-76156086D01*
X109667139Y-75992218D01*
X109527782Y-75852861D01*
X109524794Y-75850864D01*
X109363913Y-75743367D01*
X109181839Y-75667950D01*
X109181829Y-75667947D01*
X109052388Y-75642200D01*
X108988541Y-75629500D01*
X108791459Y-75629500D01*
X108736662Y-75640399D01*
X108598170Y-75667947D01*
X108598160Y-75667950D01*
X108416086Y-75743367D01*
X108252218Y-75852860D01*
X108252217Y-75852862D01*
X108112862Y-75992217D01*
X108112860Y-75992218D01*
X108003367Y-76156086D01*
X107927950Y-76338160D01*
X107927947Y-76338170D01*
X107889500Y-76531460D01*
X107350500Y-76531460D01*
X107350500Y-76531459D01*
X107312051Y-76338165D01*
X107236632Y-76156086D01*
X107127139Y-75992218D01*
X106987782Y-75852861D01*
X106984794Y-75850864D01*
X106823913Y-75743367D01*
X106641839Y-75667950D01*
X106641829Y-75667947D01*
X106512388Y-75642200D01*
X106448541Y-75629500D01*
X106251459Y-75629500D01*
X106196662Y-75640399D01*
X106058170Y-75667947D01*
X106058160Y-75667950D01*
X105876086Y-75743367D01*
X105712218Y-75852860D01*
X105712217Y-75852862D01*
X105572862Y-75992217D01*
X105572860Y-75992218D01*
X105463367Y-76156086D01*
X105387950Y-76338160D01*
X105387947Y-76338170D01*
X105349500Y-76531460D01*
X104810500Y-76531460D01*
X104810500Y-76531459D01*
X104772051Y-76338165D01*
X104696632Y-76156086D01*
X104587139Y-75992218D01*
X104447782Y-75852861D01*
X104444794Y-75850864D01*
X104283913Y-75743367D01*
X104101839Y-75667950D01*
X104101829Y-75667947D01*
X103972388Y-75642200D01*
X103908541Y-75629500D01*
X103711459Y-75629500D01*
X103656662Y-75640399D01*
X103518170Y-75667947D01*
X103518160Y-75667950D01*
X103336086Y-75743367D01*
X103172218Y-75852860D01*
X103172217Y-75852862D01*
X103032862Y-75992217D01*
X103032860Y-75992218D01*
X102923367Y-76156086D01*
X102847950Y-76338160D01*
X102847947Y-76338170D01*
X102809500Y-76531460D01*
X102270500Y-76531460D01*
X102270500Y-76531459D01*
X102232051Y-76338165D01*
X102156632Y-76156086D01*
X102047139Y-75992218D01*
X101907782Y-75852861D01*
X101904794Y-75850864D01*
X101743913Y-75743367D01*
X101561839Y-75667950D01*
X101561829Y-75667947D01*
X101432388Y-75642200D01*
X101368541Y-75629500D01*
X101171459Y-75629500D01*
X101116662Y-75640399D01*
X100978170Y-75667947D01*
X100978160Y-75667950D01*
X100796086Y-75743367D01*
X100632218Y-75852860D01*
X100632217Y-75852862D01*
X100492862Y-75992217D01*
X100492860Y-75992218D01*
X100383367Y-76156086D01*
X100307950Y-76338160D01*
X100307947Y-76338170D01*
X100269500Y-76531460D01*
X99730500Y-76531460D01*
X99730500Y-76531459D01*
X99692051Y-76338165D01*
X99616632Y-76156086D01*
X99507139Y-75992218D01*
X99367782Y-75852861D01*
X99364794Y-75850864D01*
X99203913Y-75743367D01*
X99021839Y-75667950D01*
X99021829Y-75667947D01*
X98892388Y-75642200D01*
X98828541Y-75629500D01*
X98631459Y-75629500D01*
X98576662Y-75640399D01*
X98438170Y-75667947D01*
X98438160Y-75667950D01*
X98256086Y-75743367D01*
X98092218Y-75852860D01*
X98092217Y-75852862D01*
X97952862Y-75992217D01*
X97952860Y-75992218D01*
X97843367Y-76156086D01*
X97767950Y-76338160D01*
X97767947Y-76338170D01*
X97729500Y-76531460D01*
X97190500Y-76531460D01*
X97190500Y-76531459D01*
X97152051Y-76338165D01*
X97076632Y-76156086D01*
X96967139Y-75992218D01*
X96827782Y-75852861D01*
X96824794Y-75850864D01*
X96663913Y-75743367D01*
X96481839Y-75667950D01*
X96481829Y-75667947D01*
X96352388Y-75642200D01*
X96288541Y-75629500D01*
X96091459Y-75629500D01*
X96036662Y-75640399D01*
X95898170Y-75667947D01*
X95898160Y-75667950D01*
X95716086Y-75743367D01*
X95552218Y-75852860D01*
X95552217Y-75852862D01*
X95412862Y-75992217D01*
X95412860Y-75992218D01*
X95303367Y-76156086D01*
X95227950Y-76338160D01*
X95227947Y-76338170D01*
X95189500Y-76531460D01*
X94650500Y-76531460D01*
X94650500Y-76531459D01*
X94612051Y-76338165D01*
X94536632Y-76156086D01*
X94427139Y-75992218D01*
X94287782Y-75852861D01*
X94284794Y-75850864D01*
X94123913Y-75743367D01*
X93941839Y-75667950D01*
X93941829Y-75667947D01*
X93812388Y-75642200D01*
X93748541Y-75629500D01*
X93551459Y-75629500D01*
X93496662Y-75640399D01*
X93358170Y-75667947D01*
X93358160Y-75667950D01*
X93176086Y-75743367D01*
X93012218Y-75852860D01*
X93012217Y-75852862D01*
X92872862Y-75992217D01*
X92872860Y-75992218D01*
X92763367Y-76156086D01*
X92687950Y-76338160D01*
X92687947Y-76338170D01*
X92649500Y-76531460D01*
X92110500Y-76531460D01*
X92110500Y-76531459D01*
X92072051Y-76338165D01*
X91996632Y-76156086D01*
X91887139Y-75992218D01*
X91747782Y-75852861D01*
X91744794Y-75850864D01*
X91583913Y-75743367D01*
X91401839Y-75667950D01*
X91401829Y-75667947D01*
X91272388Y-75642200D01*
X91208541Y-75629500D01*
X91011459Y-75629500D01*
X90956662Y-75640399D01*
X90818170Y-75667947D01*
X90818160Y-75667950D01*
X90636086Y-75743367D01*
X90472218Y-75852860D01*
X90472217Y-75852862D01*
X90332862Y-75992217D01*
X90332860Y-75992218D01*
X90223367Y-76156086D01*
X90147950Y-76338160D01*
X90147947Y-76338170D01*
X90109500Y-76531460D01*
X89570500Y-76531460D01*
X89570500Y-76531459D01*
X89532051Y-76338165D01*
X89456632Y-76156086D01*
X89347139Y-75992218D01*
X89207782Y-75852861D01*
X89204794Y-75850864D01*
X89043913Y-75743367D01*
X88861839Y-75667950D01*
X88861829Y-75667947D01*
X88732388Y-75642200D01*
X88668541Y-75629500D01*
X88471459Y-75629500D01*
X88416662Y-75640399D01*
X88278170Y-75667947D01*
X88278160Y-75667950D01*
X88096086Y-75743367D01*
X87932218Y-75852860D01*
X87932217Y-75852862D01*
X87792862Y-75992217D01*
X87792860Y-75992218D01*
X87683367Y-76156086D01*
X87607950Y-76338160D01*
X87607947Y-76338170D01*
X87569500Y-76531460D01*
X87030500Y-76531460D01*
X87030500Y-76531459D01*
X86992051Y-76338165D01*
X86916632Y-76156086D01*
X86807139Y-75992218D01*
X86667782Y-75852861D01*
X86664794Y-75850864D01*
X86503913Y-75743367D01*
X86321839Y-75667950D01*
X86321829Y-75667947D01*
X86192388Y-75642200D01*
X86128541Y-75629500D01*
X85931459Y-75629500D01*
X85876662Y-75640399D01*
X85738170Y-75667947D01*
X85738160Y-75667950D01*
X85556086Y-75743367D01*
X85392218Y-75852860D01*
X85392217Y-75852862D01*
X85252862Y-75992217D01*
X85252860Y-75992218D01*
X85143367Y-76156086D01*
X85067950Y-76338160D01*
X85067947Y-76338170D01*
X85029500Y-76531460D01*
X84490500Y-76531460D01*
X84490500Y-76531459D01*
X84452051Y-76338165D01*
X84376632Y-76156086D01*
X84267139Y-75992218D01*
X84127782Y-75852861D01*
X84124794Y-75850864D01*
X83963913Y-75743367D01*
X83781839Y-75667950D01*
X83781829Y-75667947D01*
X83652388Y-75642200D01*
X83588541Y-75629500D01*
X83391459Y-75629500D01*
X83336662Y-75640399D01*
X83198170Y-75667947D01*
X83198160Y-75667950D01*
X83016086Y-75743367D01*
X82852218Y-75852860D01*
X82852217Y-75852862D01*
X82712862Y-75992217D01*
X82712860Y-75992218D01*
X82603367Y-76156086D01*
X82527950Y-76338160D01*
X82527947Y-76338170D01*
X82489500Y-76531460D01*
X81950500Y-76531460D01*
X81950500Y-76531459D01*
X81912051Y-76338165D01*
X81836632Y-76156086D01*
X81727139Y-75992218D01*
X81587782Y-75852861D01*
X81584794Y-75850864D01*
X81423913Y-75743367D01*
X81241839Y-75667950D01*
X81241829Y-75667947D01*
X81112388Y-75642200D01*
X81048541Y-75629500D01*
X80851459Y-75629500D01*
X80796662Y-75640399D01*
X80658170Y-75667947D01*
X80658160Y-75667950D01*
X80476086Y-75743367D01*
X80312218Y-75852860D01*
X80312217Y-75852862D01*
X80172862Y-75992217D01*
X80172860Y-75992218D01*
X80063367Y-76156086D01*
X79987950Y-76338160D01*
X79987947Y-76338170D01*
X79949500Y-76531460D01*
X79410500Y-76531460D01*
X79410500Y-76531459D01*
X79372051Y-76338165D01*
X79296632Y-76156086D01*
X79187139Y-75992218D01*
X79047782Y-75852861D01*
X79044794Y-75850864D01*
X78883913Y-75743367D01*
X78701839Y-75667950D01*
X78701829Y-75667947D01*
X78572388Y-75642200D01*
X78508541Y-75629500D01*
X78311459Y-75629500D01*
X78256662Y-75640399D01*
X78118170Y-75667947D01*
X78118160Y-75667950D01*
X77936086Y-75743367D01*
X77772218Y-75852860D01*
X77772217Y-75852862D01*
X77632862Y-75992217D01*
X77632860Y-75992218D01*
X77523367Y-76156086D01*
X77447950Y-76338160D01*
X77447947Y-76338170D01*
X77409500Y-76531460D01*
X76870500Y-76531460D01*
X76870500Y-76531459D01*
X76832051Y-76338165D01*
X76756632Y-76156086D01*
X76647139Y-75992218D01*
X76507782Y-75852861D01*
X76504794Y-75850864D01*
X76343913Y-75743367D01*
X76161839Y-75667950D01*
X76161829Y-75667947D01*
X76032388Y-75642200D01*
X75968541Y-75629500D01*
X75771459Y-75629500D01*
X75716662Y-75640399D01*
X75578170Y-75667947D01*
X75578160Y-75667950D01*
X75396086Y-75743367D01*
X75232218Y-75852860D01*
X75232217Y-75852862D01*
X75092862Y-75992217D01*
X75092860Y-75992218D01*
X74983367Y-76156086D01*
X74907950Y-76338160D01*
X74907947Y-76338170D01*
X74869500Y-76531460D01*
X68200000Y-76531460D01*
X68200000Y-67181310D01*
X92099500Y-67181310D01*
X92099500Y-67358689D01*
X92134104Y-67532660D01*
X92134107Y-67532670D01*
X92201985Y-67696544D01*
X92201986Y-67696546D01*
X92201987Y-67696547D01*
X92300536Y-67844035D01*
X92425965Y-67969464D01*
X92573453Y-68068013D01*
X92573454Y-68068013D01*
X92573455Y-68068014D01*
X92643367Y-68096972D01*
X92737334Y-68135894D01*
X92911309Y-68170500D01*
X92911311Y-68170500D01*
X93088689Y-68170500D01*
X93088691Y-68170500D01*
X93262666Y-68135894D01*
X93343033Y-68102605D01*
X93399667Y-68102605D01*
X93423675Y-68118646D01*
X94200689Y-68895660D01*
X94269212Y-68935222D01*
X94345638Y-68955700D01*
X94424762Y-68955700D01*
X105990727Y-68955700D01*
X106043053Y-68977374D01*
X106064727Y-69029700D01*
X106043053Y-69082026D01*
X105952862Y-69172217D01*
X105952860Y-69172218D01*
X105843367Y-69336086D01*
X105767950Y-69518160D01*
X105767947Y-69518170D01*
X105729500Y-69711460D01*
X105729500Y-69908539D01*
X105767947Y-70101829D01*
X105767950Y-70101839D01*
X105843367Y-70283913D01*
X105843368Y-70283914D01*
X105952861Y-70447782D01*
X106092218Y-70587139D01*
X106256086Y-70696632D01*
X106438165Y-70772051D01*
X106631459Y-70810500D01*
X106631461Y-70810500D01*
X106828539Y-70810500D01*
X106828541Y-70810500D01*
X107021835Y-70772051D01*
X107203914Y-70696632D01*
X107367782Y-70587139D01*
X107507139Y-70447782D01*
X107616632Y-70283914D01*
X107669540Y-70156181D01*
X107709588Y-70116133D01*
X107737907Y-70110500D01*
X108262093Y-70110500D01*
X108314419Y-70132174D01*
X108330460Y-70156182D01*
X108383365Y-70283909D01*
X108383367Y-70283912D01*
X108383368Y-70283914D01*
X108492861Y-70447782D01*
X108632218Y-70587139D01*
X108796086Y-70696632D01*
X108978165Y-70772051D01*
X109171459Y-70810500D01*
X109171461Y-70810500D01*
X109368539Y-70810500D01*
X109368541Y-70810500D01*
X109561835Y-70772051D01*
X109743914Y-70696632D01*
X109907782Y-70587139D01*
X110047139Y-70447782D01*
X110156632Y-70283914D01*
X110232051Y-70101835D01*
X110270500Y-69908541D01*
X110270500Y-69711459D01*
X110232051Y-69518165D01*
X110156632Y-69336086D01*
X110047139Y-69172218D01*
X109956947Y-69082026D01*
X109935273Y-69029700D01*
X109956947Y-68977374D01*
X110009273Y-68955700D01*
X110500077Y-68955700D01*
X110552403Y-68977374D01*
X110884816Y-69309787D01*
X110906490Y-69362113D01*
X110900857Y-69390431D01*
X110847950Y-69518160D01*
X110847947Y-69518170D01*
X110809500Y-69711460D01*
X110809500Y-69908539D01*
X110847947Y-70101829D01*
X110847950Y-70101839D01*
X110923367Y-70283913D01*
X110923368Y-70283914D01*
X111032861Y-70447782D01*
X111172218Y-70587139D01*
X111336086Y-70696632D01*
X111518165Y-70772051D01*
X111711459Y-70810500D01*
X111711461Y-70810500D01*
X111908539Y-70810500D01*
X111908541Y-70810500D01*
X112101835Y-70772051D01*
X112283914Y-70696632D01*
X112447782Y-70587139D01*
X112508299Y-70526622D01*
X112560625Y-70504948D01*
X112612951Y-70526622D01*
X114809503Y-72723174D01*
X114831177Y-72775500D01*
X114809503Y-72827826D01*
X114757177Y-72849500D01*
X114641309Y-72849500D01*
X114591989Y-72859310D01*
X114467339Y-72884104D01*
X114467329Y-72884107D01*
X114303455Y-72951985D01*
X114155968Y-73050533D01*
X114030533Y-73175968D01*
X113931985Y-73323455D01*
X113864107Y-73487329D01*
X113864104Y-73487339D01*
X113829500Y-73661310D01*
X113829500Y-73838689D01*
X113864104Y-74012660D01*
X113864107Y-74012670D01*
X113931985Y-74176544D01*
X113988526Y-74261164D01*
X114030536Y-74324035D01*
X114155965Y-74449464D01*
X114303453Y-74548013D01*
X114467334Y-74615894D01*
X114641309Y-74650500D01*
X114641311Y-74650500D01*
X114818689Y-74650500D01*
X114818691Y-74650500D01*
X114992666Y-74615894D01*
X115156547Y-74548013D01*
X115304035Y-74449464D01*
X115429464Y-74324035D01*
X115528013Y-74176547D01*
X115595894Y-74012666D01*
X115630500Y-73838691D01*
X115630500Y-73722823D01*
X115652174Y-73670497D01*
X115704500Y-73648823D01*
X115756826Y-73670497D01*
X115819426Y-73733097D01*
X115841100Y-73785423D01*
X115841100Y-74261164D01*
X115861577Y-74337585D01*
X115861579Y-74337590D01*
X115901140Y-74406111D01*
X117219567Y-75724538D01*
X117241241Y-75776864D01*
X117219567Y-75829190D01*
X117167241Y-75850864D01*
X117126129Y-75838393D01*
X116983913Y-75743367D01*
X116801839Y-75667950D01*
X116801829Y-75667947D01*
X116672388Y-75642200D01*
X116608541Y-75629500D01*
X116411459Y-75629500D01*
X116356662Y-75640399D01*
X116218170Y-75667947D01*
X116218160Y-75667950D01*
X116036086Y-75743367D01*
X115872218Y-75852860D01*
X115872217Y-75852862D01*
X115732862Y-75992217D01*
X115732860Y-75992218D01*
X115623367Y-76156086D01*
X115547950Y-76338160D01*
X115547947Y-76338170D01*
X115509500Y-76531460D01*
X115509500Y-76728539D01*
X115547947Y-76921829D01*
X115547950Y-76921839D01*
X115623367Y-77103913D01*
X115647688Y-77140311D01*
X115732861Y-77267782D01*
X115872218Y-77407139D01*
X116036086Y-77516632D01*
X116218165Y-77592051D01*
X116411459Y-77630500D01*
X116411461Y-77630500D01*
X116608539Y-77630500D01*
X116608541Y-77630500D01*
X116801835Y-77592051D01*
X116983914Y-77516632D01*
X117147782Y-77407139D01*
X117287139Y-77267782D01*
X117395910Y-77104994D01*
X117410068Y-77095533D01*
X117420437Y-77082021D01*
X117432710Y-77080405D01*
X117443001Y-77073529D01*
X117459703Y-77076851D01*
X117476590Y-77074628D01*
X117486410Y-77082163D01*
X117498550Y-77084578D01*
X117521523Y-77109105D01*
X117536633Y-77135276D01*
X117536634Y-77135278D01*
X117539537Y-77140307D01*
X117539538Y-77140308D01*
X117539540Y-77140311D01*
X123563640Y-83164411D01*
X123619589Y-83220360D01*
X123688111Y-83259921D01*
X123688112Y-83259921D01*
X123688114Y-83259922D01*
X123726324Y-83270160D01*
X123764535Y-83280399D01*
X123764536Y-83280400D01*
X123764538Y-83280400D01*
X127100291Y-83280400D01*
X127152617Y-83302074D01*
X127168658Y-83326082D01*
X127201985Y-83406544D01*
X127201986Y-83406546D01*
X127201987Y-83406547D01*
X127300536Y-83554035D01*
X127366489Y-83619988D01*
X127388163Y-83672313D01*
X127366489Y-83724639D01*
X123945489Y-87145640D01*
X123889540Y-87201588D01*
X123849979Y-87270109D01*
X123849977Y-87270114D01*
X123829500Y-87346535D01*
X123829500Y-90862092D01*
X123807826Y-90914418D01*
X123783819Y-90930459D01*
X123656089Y-90983366D01*
X123492218Y-91092860D01*
X123492217Y-91092862D01*
X123352862Y-91232217D01*
X123352860Y-91232218D01*
X123243367Y-91396086D01*
X123167950Y-91578160D01*
X123167947Y-91578170D01*
X123129500Y-91771460D01*
X123129500Y-91968539D01*
X123167947Y-92161829D01*
X123167950Y-92161839D01*
X123243367Y-92343913D01*
X123260940Y-92370212D01*
X123352861Y-92507782D01*
X123492218Y-92647139D01*
X123656086Y-92756632D01*
X123838165Y-92832051D01*
X124031459Y-92870500D01*
X124031461Y-92870500D01*
X124228539Y-92870500D01*
X124228541Y-92870500D01*
X124421835Y-92832051D01*
X124549568Y-92779142D01*
X124606204Y-92779142D01*
X124630212Y-92795183D01*
X128677826Y-96842797D01*
X128699500Y-96895123D01*
X128699500Y-100080331D01*
X128677826Y-100132657D01*
X128653819Y-100148698D01*
X128573453Y-100181986D01*
X128425968Y-100280533D01*
X128300533Y-100405968D01*
X128201985Y-100553455D01*
X128134107Y-100717329D01*
X128134104Y-100717339D01*
X128099500Y-100891310D01*
X128099500Y-101068689D01*
X128134104Y-101242660D01*
X128134107Y-101242670D01*
X128201985Y-101406544D01*
X128201986Y-101406546D01*
X128201987Y-101406547D01*
X128300536Y-101554035D01*
X128425965Y-101679464D01*
X128573453Y-101778013D01*
X128737334Y-101845894D01*
X128911309Y-101880500D01*
X128911311Y-101880500D01*
X129088689Y-101880500D01*
X129088691Y-101880500D01*
X129262666Y-101845894D01*
X129426547Y-101778013D01*
X129574035Y-101679464D01*
X129699464Y-101554035D01*
X129798013Y-101406547D01*
X129865894Y-101242666D01*
X129900500Y-101068691D01*
X129900500Y-100891309D01*
X129865894Y-100717334D01*
X129798013Y-100553453D01*
X129699464Y-100405965D01*
X129574035Y-100280536D01*
X129426547Y-100181987D01*
X129426548Y-100181987D01*
X129426546Y-100181986D01*
X129346181Y-100148698D01*
X129306133Y-100108649D01*
X129300500Y-100080331D01*
X129300500Y-96700436D01*
X129300499Y-96700435D01*
X129292926Y-96672174D01*
X129280021Y-96624011D01*
X129240460Y-96555489D01*
X129184511Y-96499540D01*
X125055183Y-92370212D01*
X125033509Y-92317886D01*
X125039142Y-92289567D01*
X125042695Y-92280989D01*
X125092051Y-92161835D01*
X125130500Y-91968541D01*
X125130500Y-91771459D01*
X125092051Y-91578165D01*
X125016632Y-91396086D01*
X124907139Y-91232218D01*
X124767782Y-91092861D01*
X124603914Y-90983368D01*
X124603911Y-90983366D01*
X124603910Y-90983366D01*
X124476181Y-90930459D01*
X124436133Y-90890410D01*
X124430500Y-90862092D01*
X124430500Y-87541223D01*
X124452174Y-87488897D01*
X128038897Y-83902174D01*
X128085277Y-83882962D01*
X128085070Y-83880857D01*
X128088685Y-83880500D01*
X128088691Y-83880500D01*
X128262666Y-83845894D01*
X128426547Y-83778013D01*
X128574035Y-83679464D01*
X128699464Y-83554035D01*
X128798013Y-83406547D01*
X128865894Y-83242666D01*
X128900500Y-83068691D01*
X128900500Y-82891309D01*
X128865894Y-82717334D01*
X128841204Y-82657726D01*
X128798014Y-82553455D01*
X128699466Y-82405968D01*
X128699464Y-82405965D01*
X128574035Y-82280536D01*
X128426547Y-82181987D01*
X128426546Y-82181986D01*
X128426544Y-82181985D01*
X128262670Y-82114107D01*
X128262660Y-82114104D01*
X128146156Y-82090930D01*
X128088691Y-82079500D01*
X127911309Y-82079500D01*
X127861989Y-82089310D01*
X127737339Y-82114104D01*
X127737329Y-82114107D01*
X127573455Y-82181985D01*
X127425968Y-82280533D01*
X127300533Y-82405968D01*
X127201985Y-82553455D01*
X127168741Y-82633718D01*
X127128693Y-82673767D01*
X127100374Y-82679400D01*
X123959223Y-82679400D01*
X123906897Y-82657726D01*
X119005997Y-77756826D01*
X118984323Y-77704500D01*
X119005997Y-77652174D01*
X119058323Y-77630500D01*
X119148539Y-77630500D01*
X119148541Y-77630500D01*
X119341835Y-77592051D01*
X119523914Y-77516632D01*
X119687782Y-77407139D01*
X119827139Y-77267782D01*
X119936632Y-77103914D01*
X120012051Y-76921835D01*
X120050500Y-76728541D01*
X120050500Y-76531460D01*
X120589500Y-76531460D01*
X120589500Y-76728539D01*
X120627947Y-76921829D01*
X120627950Y-76921839D01*
X120703367Y-77103913D01*
X120727688Y-77140311D01*
X120812861Y-77267782D01*
X120952218Y-77407139D01*
X121116086Y-77516632D01*
X121298165Y-77592051D01*
X121491459Y-77630500D01*
X121491461Y-77630500D01*
X121688539Y-77630500D01*
X121688541Y-77630500D01*
X121881835Y-77592051D01*
X122063914Y-77516632D01*
X122227782Y-77407139D01*
X122367139Y-77267782D01*
X122476632Y-77103914D01*
X122552051Y-76921835D01*
X122590500Y-76728541D01*
X122590500Y-76531459D01*
X122552051Y-76338165D01*
X122476632Y-76156086D01*
X122367139Y-75992218D01*
X122227782Y-75852861D01*
X122224794Y-75850864D01*
X122063913Y-75743367D01*
X121881839Y-75667950D01*
X121881829Y-75667947D01*
X121752388Y-75642200D01*
X121688541Y-75629500D01*
X121491459Y-75629500D01*
X121436662Y-75640399D01*
X121298170Y-75667947D01*
X121298160Y-75667950D01*
X121116086Y-75743367D01*
X120952218Y-75852860D01*
X120952217Y-75852862D01*
X120812862Y-75992217D01*
X120812860Y-75992218D01*
X120703367Y-76156086D01*
X120627950Y-76338160D01*
X120627947Y-76338170D01*
X120589500Y-76531460D01*
X120050500Y-76531460D01*
X120050500Y-76531459D01*
X120012051Y-76338165D01*
X119936632Y-76156086D01*
X119827139Y-75992218D01*
X119687782Y-75852861D01*
X119684794Y-75850864D01*
X119523913Y-75743367D01*
X119341839Y-75667950D01*
X119341829Y-75667947D01*
X119212388Y-75642200D01*
X119148541Y-75629500D01*
X118951459Y-75629500D01*
X118896662Y-75640399D01*
X118758170Y-75667947D01*
X118758160Y-75667950D01*
X118576086Y-75743367D01*
X118412218Y-75852860D01*
X118412217Y-75852862D01*
X118272862Y-75992217D01*
X118272860Y-75992218D01*
X118216029Y-76077273D01*
X118168937Y-76108739D01*
X118113388Y-76097690D01*
X118081922Y-76050598D01*
X118080500Y-76036161D01*
X118080500Y-75820440D01*
X118080500Y-75820438D01*
X118060022Y-75744012D01*
X118020460Y-75675489D01*
X117121408Y-74776437D01*
X117099734Y-74724111D01*
X117121408Y-74671785D01*
X117173734Y-74650111D01*
X117181005Y-74650469D01*
X117181299Y-74650498D01*
X117181309Y-74650500D01*
X117181319Y-74650500D01*
X117358689Y-74650500D01*
X117358691Y-74650500D01*
X117532666Y-74615894D01*
X117696547Y-74548013D01*
X117844035Y-74449464D01*
X117969464Y-74324035D01*
X118068013Y-74176547D01*
X118135894Y-74012666D01*
X118170500Y-73838691D01*
X118170500Y-73661309D01*
X118135894Y-73487334D01*
X118102605Y-73406966D01*
X118102605Y-73350330D01*
X118118643Y-73326326D01*
X118383397Y-73061574D01*
X118435723Y-73039900D01*
X119987950Y-73039900D01*
X120040276Y-73061574D01*
X120061950Y-73113900D01*
X120040276Y-73166224D01*
X120030536Y-73175965D01*
X120030534Y-73175967D01*
X120030533Y-73175968D01*
X119931985Y-73323455D01*
X119864107Y-73487329D01*
X119864104Y-73487339D01*
X119829500Y-73661310D01*
X119829500Y-73838689D01*
X119864104Y-74012660D01*
X119864107Y-74012670D01*
X119931985Y-74176544D01*
X119988526Y-74261164D01*
X120030536Y-74324035D01*
X120155965Y-74449464D01*
X120303453Y-74548013D01*
X120467334Y-74615894D01*
X120641309Y-74650500D01*
X120641311Y-74650500D01*
X120818689Y-74650500D01*
X120818691Y-74650500D01*
X120992666Y-74615894D01*
X121156547Y-74548013D01*
X121304035Y-74449464D01*
X121429464Y-74324035D01*
X121528013Y-74176547D01*
X121595894Y-74012666D01*
X121630500Y-73838691D01*
X121630500Y-73661309D01*
X121595894Y-73487334D01*
X121550876Y-73378649D01*
X121528014Y-73323455D01*
X121429466Y-73175968D01*
X121429465Y-73175967D01*
X121429464Y-73175965D01*
X121419723Y-73166224D01*
X121398050Y-73113900D01*
X121419724Y-73061574D01*
X121472050Y-73039900D01*
X122104277Y-73039900D01*
X122156603Y-73061574D01*
X122421352Y-73326323D01*
X122443026Y-73378649D01*
X122437394Y-73406966D01*
X122421314Y-73445789D01*
X122404107Y-73487333D01*
X122404105Y-73487337D01*
X122404104Y-73487339D01*
X122369500Y-73661310D01*
X122369500Y-73838689D01*
X122404104Y-74012660D01*
X122404107Y-74012670D01*
X122471985Y-74176544D01*
X122528526Y-74261164D01*
X122570536Y-74324035D01*
X122695965Y-74449464D01*
X122843453Y-74548013D01*
X123007334Y-74615894D01*
X123181309Y-74650500D01*
X123181311Y-74650500D01*
X123358689Y-74650500D01*
X123358691Y-74650500D01*
X123532666Y-74615894D01*
X123696547Y-74548013D01*
X123844035Y-74449464D01*
X123969464Y-74324035D01*
X124068013Y-74176547D01*
X124135894Y-74012666D01*
X124170500Y-73838691D01*
X124170500Y-73661309D01*
X124135894Y-73487334D01*
X124090876Y-73378649D01*
X124068014Y-73323455D01*
X123969466Y-73175968D01*
X123969465Y-73175967D01*
X123969464Y-73175965D01*
X123844035Y-73050536D01*
X123828117Y-73039900D01*
X123696544Y-72951985D01*
X123532670Y-72884107D01*
X123532660Y-72884104D01*
X123416156Y-72860930D01*
X123358691Y-72849500D01*
X123181309Y-72849500D01*
X123131989Y-72859310D01*
X123007339Y-72884104D01*
X123007337Y-72884105D01*
X123007335Y-72884105D01*
X123007334Y-72884106D01*
X123007332Y-72884107D01*
X122926966Y-72917394D01*
X122870329Y-72917392D01*
X122846323Y-72901352D01*
X122443911Y-72498940D01*
X122375390Y-72459379D01*
X122375385Y-72459377D01*
X122298964Y-72438900D01*
X122298962Y-72438900D01*
X118241038Y-72438900D01*
X118241036Y-72438900D01*
X118164614Y-72459377D01*
X118164609Y-72459379D01*
X118096088Y-72498940D01*
X117693675Y-72901352D01*
X117641349Y-72923026D01*
X117613032Y-72917394D01*
X117532666Y-72884106D01*
X117532662Y-72884105D01*
X117532660Y-72884104D01*
X117416156Y-72860930D01*
X117358691Y-72849500D01*
X117181309Y-72849500D01*
X117131989Y-72859310D01*
X117007339Y-72884104D01*
X117007329Y-72884107D01*
X116843455Y-72951985D01*
X116695968Y-73050533D01*
X116570533Y-73175968D01*
X116471986Y-73323453D01*
X116452198Y-73371227D01*
X116412149Y-73411275D01*
X116355512Y-73411275D01*
X116331505Y-73395234D01*
X112832174Y-69895903D01*
X112810500Y-69843577D01*
X112810500Y-69711460D01*
X112772052Y-69518170D01*
X112772051Y-69518169D01*
X112772051Y-69518165D01*
X112696632Y-69336086D01*
X112587139Y-69172218D01*
X112447782Y-69032861D01*
X112443052Y-69029700D01*
X112283913Y-68923367D01*
X112101839Y-68847950D01*
X112101829Y-68847947D01*
X111972388Y-68822200D01*
X111908541Y-68809500D01*
X111711459Y-68809500D01*
X111656662Y-68820399D01*
X111518170Y-68847947D01*
X111518160Y-68847950D01*
X111390431Y-68900857D01*
X111333794Y-68900857D01*
X111309787Y-68884816D01*
X110839711Y-68414740D01*
X110824898Y-68406188D01*
X110771190Y-68375179D01*
X110771185Y-68375177D01*
X110694764Y-68354700D01*
X110694762Y-68354700D01*
X94540323Y-68354700D01*
X94487997Y-68333026D01*
X93848646Y-67693675D01*
X93826972Y-67641349D01*
X93832603Y-67613036D01*
X93865894Y-67532666D01*
X93900500Y-67358691D01*
X93900500Y-67181309D01*
X93865894Y-67007334D01*
X93798013Y-66843453D01*
X93699464Y-66695965D01*
X93574035Y-66570536D01*
X93426547Y-66471987D01*
X93426546Y-66471986D01*
X93426544Y-66471985D01*
X93262670Y-66404107D01*
X93262660Y-66404104D01*
X93146156Y-66380930D01*
X93088691Y-66369500D01*
X92911309Y-66369500D01*
X92861989Y-66379310D01*
X92737339Y-66404104D01*
X92737329Y-66404107D01*
X92573455Y-66471985D01*
X92425968Y-66570533D01*
X92300533Y-66695968D01*
X92201985Y-66843455D01*
X92134107Y-67007329D01*
X92134104Y-67007339D01*
X92099500Y-67181310D01*
X68200000Y-67181310D01*
X68200000Y-64260835D01*
X96658000Y-64260835D01*
X96658000Y-66268064D01*
X96678477Y-66344485D01*
X96678479Y-66344490D01*
X96692919Y-66369500D01*
X96718040Y-66413011D01*
X97151352Y-66846323D01*
X97173026Y-66898649D01*
X97167394Y-66926966D01*
X97134105Y-67007337D01*
X97134104Y-67007339D01*
X97099500Y-67181310D01*
X97099500Y-67358689D01*
X97134104Y-67532660D01*
X97134107Y-67532670D01*
X97201985Y-67696544D01*
X97201986Y-67696546D01*
X97201987Y-67696547D01*
X97300536Y-67844035D01*
X97425965Y-67969464D01*
X97573453Y-68068013D01*
X97573454Y-68068013D01*
X97573455Y-68068014D01*
X97643367Y-68096972D01*
X97737334Y-68135894D01*
X97911309Y-68170500D01*
X97911311Y-68170500D01*
X98088689Y-68170500D01*
X98088691Y-68170500D01*
X98262666Y-68135894D01*
X98426547Y-68068013D01*
X98574035Y-67969464D01*
X98699464Y-67844035D01*
X98798013Y-67696547D01*
X98865894Y-67532666D01*
X98900500Y-67358691D01*
X98900500Y-67181309D01*
X98865894Y-67007334D01*
X98798013Y-66843453D01*
X98699464Y-66695965D01*
X98574035Y-66570536D01*
X98426547Y-66471987D01*
X98426546Y-66471986D01*
X98426544Y-66471985D01*
X98262670Y-66404107D01*
X98262660Y-66404104D01*
X98146156Y-66380930D01*
X98088691Y-66369500D01*
X97911309Y-66369500D01*
X97861989Y-66379310D01*
X97737339Y-66404104D01*
X97737337Y-66404105D01*
X97737335Y-66404105D01*
X97737334Y-66404106D01*
X97737332Y-66404107D01*
X97656966Y-66437394D01*
X97600329Y-66437392D01*
X97576323Y-66421352D01*
X97280674Y-66125703D01*
X97259000Y-66073377D01*
X97259000Y-65441150D01*
X97280674Y-65388824D01*
X97333000Y-65367150D01*
X97385324Y-65388823D01*
X97425965Y-65429464D01*
X97573453Y-65528013D01*
X97573454Y-65528013D01*
X97573455Y-65528014D01*
X97656966Y-65562605D01*
X97737334Y-65595894D01*
X97911309Y-65630500D01*
X97911311Y-65630500D01*
X98088689Y-65630500D01*
X98088691Y-65630500D01*
X98262666Y-65595894D01*
X98426547Y-65528013D01*
X98574035Y-65429464D01*
X98699464Y-65304035D01*
X98798013Y-65156547D01*
X98831301Y-65076181D01*
X98871349Y-65036133D01*
X98899668Y-65030500D01*
X108345564Y-65030500D01*
X108345564Y-65030499D01*
X108421989Y-65010021D01*
X108490511Y-64970460D01*
X108546460Y-64914511D01*
X110683174Y-62777797D01*
X110735500Y-62756123D01*
X110787826Y-62777797D01*
X110809500Y-62830123D01*
X110809500Y-63009746D01*
X110821133Y-63068232D01*
X110838023Y-63093509D01*
X110865448Y-63134552D01*
X110909560Y-63164027D01*
X110931767Y-63178866D01*
X110931768Y-63178866D01*
X110931769Y-63178867D01*
X110990252Y-63190500D01*
X110990254Y-63190500D01*
X112629746Y-63190500D01*
X112629748Y-63190500D01*
X112688231Y-63178867D01*
X112754552Y-63134552D01*
X112798867Y-63068231D01*
X112810500Y-63009748D01*
X112810500Y-62692423D01*
X112832174Y-62640097D01*
X112884500Y-62618423D01*
X112936826Y-62640097D01*
X117148921Y-66852192D01*
X117170595Y-66904518D01*
X117164963Y-66932836D01*
X117134105Y-67007335D01*
X117099500Y-67181310D01*
X117099500Y-67358689D01*
X117134104Y-67532660D01*
X117134107Y-67532670D01*
X117201985Y-67696544D01*
X117201986Y-67696546D01*
X117201987Y-67696547D01*
X117300536Y-67844035D01*
X117425965Y-67969464D01*
X117573453Y-68068013D01*
X117573454Y-68068013D01*
X117573455Y-68068014D01*
X117643367Y-68096972D01*
X117737334Y-68135894D01*
X117911309Y-68170500D01*
X117911311Y-68170500D01*
X118088689Y-68170500D01*
X118088691Y-68170500D01*
X118262666Y-68135894D01*
X118343033Y-68102605D01*
X118399667Y-68102605D01*
X118423675Y-68118646D01*
X118835689Y-68530660D01*
X118904212Y-68570222D01*
X118980638Y-68590700D01*
X118980640Y-68590700D01*
X127019364Y-68590700D01*
X127019364Y-68590699D01*
X127095789Y-68570221D01*
X127164311Y-68530660D01*
X127220260Y-68474711D01*
X127576324Y-68118645D01*
X127628649Y-68096972D01*
X127656964Y-68102604D01*
X127737334Y-68135894D01*
X127911309Y-68170500D01*
X127911311Y-68170500D01*
X128088689Y-68170500D01*
X128088691Y-68170500D01*
X128262666Y-68135894D01*
X128426547Y-68068013D01*
X128574035Y-67969464D01*
X128699464Y-67844035D01*
X128798013Y-67696547D01*
X128865894Y-67532666D01*
X128900500Y-67358691D01*
X128900500Y-67181309D01*
X128865894Y-67007334D01*
X128798013Y-66843453D01*
X128699464Y-66695965D01*
X128574035Y-66570536D01*
X128426547Y-66471987D01*
X128426546Y-66471986D01*
X128426544Y-66471985D01*
X128262670Y-66404107D01*
X128262660Y-66404104D01*
X128146156Y-66380930D01*
X128088691Y-66369500D01*
X127911309Y-66369500D01*
X127861989Y-66379310D01*
X127737339Y-66404104D01*
X127737329Y-66404107D01*
X127573455Y-66471985D01*
X127425968Y-66570533D01*
X127300533Y-66695968D01*
X127201985Y-66843455D01*
X127134107Y-67007329D01*
X127134104Y-67007339D01*
X127099500Y-67181310D01*
X127099500Y-67358689D01*
X127134104Y-67532660D01*
X127134105Y-67532662D01*
X127134106Y-67532666D01*
X127167393Y-67613030D01*
X127167394Y-67613032D01*
X127167393Y-67669669D01*
X127151352Y-67693675D01*
X126877003Y-67968026D01*
X126824677Y-67989700D01*
X123732450Y-67989700D01*
X123680124Y-67968026D01*
X123658450Y-67915700D01*
X123680123Y-67863375D01*
X123699464Y-67844035D01*
X123798013Y-67696547D01*
X123865894Y-67532666D01*
X123900500Y-67358691D01*
X123900500Y-67181309D01*
X123865894Y-67007334D01*
X123798013Y-66843453D01*
X123699464Y-66695965D01*
X123574035Y-66570536D01*
X123426547Y-66471987D01*
X123426546Y-66471986D01*
X123426544Y-66471985D01*
X123262670Y-66404107D01*
X123262660Y-66404104D01*
X123146156Y-66380930D01*
X123088691Y-66369500D01*
X122911309Y-66369500D01*
X122861989Y-66379310D01*
X122737339Y-66404104D01*
X122737329Y-66404107D01*
X122573455Y-66471985D01*
X122425968Y-66570533D01*
X122300533Y-66695968D01*
X122201985Y-66843455D01*
X122168699Y-66923818D01*
X122128651Y-66963867D01*
X122100332Y-66969500D01*
X120695123Y-66969500D01*
X120642797Y-66947826D01*
X118848646Y-65153675D01*
X118826972Y-65101349D01*
X118832603Y-65073036D01*
X118865894Y-64992666D01*
X118900500Y-64818691D01*
X118900500Y-64641310D01*
X122099500Y-64641310D01*
X122099500Y-64818689D01*
X122134104Y-64992660D01*
X122134107Y-64992670D01*
X122201985Y-65156544D01*
X122201986Y-65156546D01*
X122201987Y-65156547D01*
X122300536Y-65304035D01*
X122425965Y-65429464D01*
X122573453Y-65528013D01*
X122573454Y-65528013D01*
X122573455Y-65528014D01*
X122656966Y-65562605D01*
X122737334Y-65595894D01*
X122911309Y-65630500D01*
X122911311Y-65630500D01*
X123088689Y-65630500D01*
X123088691Y-65630500D01*
X123262666Y-65595894D01*
X123426547Y-65528013D01*
X123574035Y-65429464D01*
X123699464Y-65304035D01*
X123798013Y-65156547D01*
X123865894Y-64992666D01*
X123900500Y-64818691D01*
X123900500Y-64641309D01*
X123865894Y-64467334D01*
X123798013Y-64303453D01*
X123699464Y-64155965D01*
X123574035Y-64030536D01*
X123426547Y-63931987D01*
X123426546Y-63931986D01*
X123426544Y-63931985D01*
X123262670Y-63864107D01*
X123262660Y-63864104D01*
X123146156Y-63840930D01*
X123088691Y-63829500D01*
X122911309Y-63829500D01*
X122861989Y-63839310D01*
X122737339Y-63864104D01*
X122737329Y-63864107D01*
X122573455Y-63931985D01*
X122425968Y-64030533D01*
X122300533Y-64155968D01*
X122201985Y-64303455D01*
X122134107Y-64467329D01*
X122134104Y-64467339D01*
X122099500Y-64641310D01*
X118900500Y-64641310D01*
X118900500Y-64641309D01*
X118865894Y-64467334D01*
X118798013Y-64303453D01*
X118699464Y-64155965D01*
X118574035Y-64030536D01*
X118426547Y-63931987D01*
X118426546Y-63931986D01*
X118426544Y-63931985D01*
X118262670Y-63864107D01*
X118262660Y-63864104D01*
X118146156Y-63840930D01*
X118088691Y-63829500D01*
X117911309Y-63829500D01*
X117861989Y-63839310D01*
X117737339Y-63864104D01*
X117737329Y-63864107D01*
X117573455Y-63931985D01*
X117425968Y-64030533D01*
X117300533Y-64155968D01*
X117201985Y-64303455D01*
X117134107Y-64467329D01*
X117134104Y-64467339D01*
X117099500Y-64641310D01*
X117099500Y-64818689D01*
X117134104Y-64992660D01*
X117134107Y-64992670D01*
X117201985Y-65156544D01*
X117201986Y-65156546D01*
X117201987Y-65156547D01*
X117300536Y-65304035D01*
X117425965Y-65429464D01*
X117573453Y-65528013D01*
X117573454Y-65528013D01*
X117573455Y-65528014D01*
X117656966Y-65562605D01*
X117737334Y-65595894D01*
X117911309Y-65630500D01*
X117911311Y-65630500D01*
X118088689Y-65630500D01*
X118088691Y-65630500D01*
X118262666Y-65595894D01*
X118343033Y-65562605D01*
X118399667Y-65562605D01*
X118423675Y-65578646D01*
X120299540Y-67454511D01*
X120355489Y-67510460D01*
X120424011Y-67550021D01*
X120424012Y-67550021D01*
X120424014Y-67550022D01*
X120462224Y-67560260D01*
X120500435Y-67570499D01*
X120500436Y-67570500D01*
X120500438Y-67570500D01*
X120579562Y-67570500D01*
X122100332Y-67570500D01*
X122152658Y-67592174D01*
X122168699Y-67616182D01*
X122201985Y-67696544D01*
X122201986Y-67696546D01*
X122201987Y-67696547D01*
X122300536Y-67844035D01*
X122319876Y-67863375D01*
X122341550Y-67915700D01*
X122319876Y-67968026D01*
X122267550Y-67989700D01*
X119175323Y-67989700D01*
X119122997Y-67968026D01*
X118848646Y-67693675D01*
X118826972Y-67641349D01*
X118832603Y-67613036D01*
X118865894Y-67532666D01*
X118900500Y-67358691D01*
X118900500Y-67181309D01*
X118865894Y-67007334D01*
X118798013Y-66843453D01*
X118699464Y-66695965D01*
X118574035Y-66570536D01*
X118426547Y-66471987D01*
X118426546Y-66471986D01*
X118426544Y-66471985D01*
X118262670Y-66404107D01*
X118262660Y-66404104D01*
X118146156Y-66380930D01*
X118088691Y-66369500D01*
X117911309Y-66369500D01*
X117861989Y-66379310D01*
X117737339Y-66404104D01*
X117737337Y-66404105D01*
X117737335Y-66404105D01*
X117737334Y-66404106D01*
X117737332Y-66404107D01*
X117651097Y-66439825D01*
X117594460Y-66439823D01*
X117570454Y-66423783D01*
X113096211Y-61949540D01*
X113027690Y-61909979D01*
X113027685Y-61909977D01*
X112951264Y-61889500D01*
X112951262Y-61889500D01*
X112884500Y-61889500D01*
X112832174Y-61867826D01*
X112810500Y-61815500D01*
X112810500Y-61370253D01*
X112810500Y-61370252D01*
X112798867Y-61311769D01*
X112754552Y-61245448D01*
X112728360Y-61227947D01*
X112688232Y-61201133D01*
X112688233Y-61201133D01*
X112658989Y-61195316D01*
X112629748Y-61189500D01*
X110990252Y-61189500D01*
X110961010Y-61195316D01*
X110931767Y-61201133D01*
X110865449Y-61245447D01*
X110865447Y-61245449D01*
X110821133Y-61311767D01*
X110809500Y-61370253D01*
X110809500Y-61815500D01*
X110787826Y-61867826D01*
X110735500Y-61889500D01*
X110668736Y-61889500D01*
X110592314Y-61909977D01*
X110592309Y-61909979D01*
X110523788Y-61949540D01*
X110467840Y-62005488D01*
X110428279Y-62074009D01*
X110428277Y-62074014D01*
X110415978Y-62119916D01*
X110381499Y-62164849D01*
X110325347Y-62172241D01*
X110280414Y-62137762D01*
X110270500Y-62100763D01*
X110270500Y-62091460D01*
X110232052Y-61898170D01*
X110232051Y-61898169D01*
X110232051Y-61898165D01*
X110156632Y-61716086D01*
X110047139Y-61552218D01*
X109907782Y-61412861D01*
X109844014Y-61370252D01*
X109743913Y-61303367D01*
X109561839Y-61227950D01*
X109561829Y-61227947D01*
X109427023Y-61201133D01*
X109368541Y-61189500D01*
X109171459Y-61189500D01*
X109116662Y-61200399D01*
X108978170Y-61227947D01*
X108978160Y-61227950D01*
X108796086Y-61303367D01*
X108632218Y-61412860D01*
X108632217Y-61412862D01*
X108492862Y-61552217D01*
X108492860Y-61552218D01*
X108383367Y-61716086D01*
X108307950Y-61898160D01*
X108307947Y-61898170D01*
X108269500Y-62091460D01*
X108269500Y-62288539D01*
X108307947Y-62481829D01*
X108307950Y-62481839D01*
X108360857Y-62609567D01*
X108360857Y-62666204D01*
X108344816Y-62690211D01*
X107676703Y-63358326D01*
X107624377Y-63380000D01*
X97538836Y-63380000D01*
X97462414Y-63400477D01*
X97462409Y-63400479D01*
X97393888Y-63440040D01*
X96718040Y-64115888D01*
X96678479Y-64184409D01*
X96678477Y-64184414D01*
X96658000Y-64260835D01*
X68200000Y-64260835D01*
X68200000Y-60274000D01*
X68221674Y-60221674D01*
X68274000Y-60200000D01*
X131726000Y-60200000D01*
X131778326Y-60221674D01*
G37*
%TD.AperFunction*%
%TA.AperFunction,Conductor*%
G36*
X92212653Y-97597774D02*
G01*
X92234327Y-97650100D01*
X92212653Y-97702426D01*
X92112862Y-97802217D01*
X92112860Y-97802218D01*
X92003367Y-97966086D01*
X91927950Y-98148160D01*
X91927947Y-98148170D01*
X91889500Y-98341460D01*
X91889500Y-98538539D01*
X91927947Y-98731829D01*
X91927950Y-98731839D01*
X92003367Y-98913913D01*
X92112860Y-99077781D01*
X92252218Y-99217139D01*
X92416086Y-99326632D01*
X92555913Y-99384550D01*
X92598165Y-99402051D01*
X92791459Y-99440500D01*
X92791461Y-99440500D01*
X92988539Y-99440500D01*
X92988541Y-99440500D01*
X93181835Y-99402051D01*
X93363914Y-99326632D01*
X93527782Y-99217139D01*
X93667139Y-99077782D01*
X93776632Y-98913914D01*
X93852051Y-98731835D01*
X93890500Y-98538541D01*
X93890500Y-98341459D01*
X93852051Y-98148165D01*
X93776632Y-97966086D01*
X93667139Y-97802218D01*
X93567347Y-97702426D01*
X93545673Y-97650100D01*
X93567347Y-97597774D01*
X93619673Y-97576100D01*
X94355500Y-97576100D01*
X94407826Y-97597774D01*
X94429500Y-97650100D01*
X94429500Y-99259746D01*
X94441133Y-99318232D01*
X94458023Y-99343509D01*
X94485448Y-99384552D01*
X94529560Y-99414027D01*
X94551767Y-99428866D01*
X94551768Y-99428866D01*
X94551769Y-99428867D01*
X94610252Y-99440500D01*
X94610254Y-99440500D01*
X96249746Y-99440500D01*
X96249748Y-99440500D01*
X96308231Y-99428867D01*
X96374552Y-99384552D01*
X96418867Y-99318231D01*
X96430500Y-99259748D01*
X96430500Y-97650100D01*
X96452174Y-97597774D01*
X96504500Y-97576100D01*
X104380327Y-97576100D01*
X104432653Y-97597774D01*
X104454327Y-97650100D01*
X104432653Y-97702426D01*
X104332862Y-97802217D01*
X104332860Y-97802218D01*
X104223367Y-97966086D01*
X104147950Y-98148160D01*
X104147947Y-98148170D01*
X104109500Y-98341460D01*
X104109500Y-98538539D01*
X104147947Y-98731829D01*
X104147950Y-98731839D01*
X104223367Y-98913913D01*
X104332860Y-99077781D01*
X104472218Y-99217139D01*
X104636086Y-99326632D01*
X104775913Y-99384550D01*
X104818165Y-99402051D01*
X105011459Y-99440500D01*
X105011461Y-99440500D01*
X105208539Y-99440500D01*
X105208541Y-99440500D01*
X105401835Y-99402051D01*
X105583914Y-99326632D01*
X105747782Y-99217139D01*
X105887139Y-99077782D01*
X105996632Y-98913914D01*
X106072051Y-98731835D01*
X106110500Y-98538541D01*
X106110500Y-98341459D01*
X106072051Y-98148165D01*
X105996632Y-97966086D01*
X105887139Y-97802218D01*
X105787347Y-97702426D01*
X105765673Y-97650100D01*
X105787347Y-97597774D01*
X105839673Y-97576100D01*
X106920327Y-97576100D01*
X106972653Y-97597774D01*
X106994327Y-97650100D01*
X106972653Y-97702426D01*
X106872862Y-97802217D01*
X106872860Y-97802218D01*
X106763367Y-97966086D01*
X106687950Y-98148160D01*
X106687947Y-98148170D01*
X106649500Y-98341460D01*
X106649500Y-98538540D01*
X106657675Y-98579642D01*
X106646625Y-98635191D01*
X106637423Y-98646404D01*
X97191289Y-108092540D01*
X97135340Y-108148488D01*
X97095779Y-108217009D01*
X97095777Y-108217014D01*
X97075300Y-108293435D01*
X97075300Y-109921727D01*
X97053626Y-109974053D01*
X97001300Y-109995727D01*
X96948974Y-109974053D01*
X96827781Y-109852860D01*
X96663913Y-109743367D01*
X96481839Y-109667950D01*
X96481829Y-109667947D01*
X96352388Y-109642200D01*
X96288541Y-109629500D01*
X96091459Y-109629500D01*
X96036662Y-109640399D01*
X95898170Y-109667947D01*
X95898154Y-109667952D01*
X95896383Y-109668686D01*
X95895737Y-109668685D01*
X95894689Y-109669004D01*
X95894592Y-109668685D01*
X95839746Y-109668676D01*
X95799705Y-109628620D01*
X95796796Y-109584146D01*
X95796467Y-109584103D01*
X95796685Y-109582443D01*
X95796601Y-109581153D01*
X95796667Y-109580909D01*
X95797100Y-109579292D01*
X95797100Y-109447508D01*
X95797100Y-109447506D01*
X95797099Y-109447505D01*
X95762993Y-109320218D01*
X95762992Y-109320214D01*
X95697100Y-109206086D01*
X95603914Y-109112900D01*
X95489790Y-109047010D01*
X95489781Y-109047006D01*
X95362494Y-109012900D01*
X95362492Y-109012900D01*
X95251723Y-109012900D01*
X95199397Y-108991226D01*
X94627774Y-108419603D01*
X94606100Y-108367277D01*
X94606100Y-106829673D01*
X94627774Y-106777347D01*
X94680100Y-106755673D01*
X94732426Y-106777347D01*
X94792218Y-106837139D01*
X94956086Y-106946632D01*
X95122542Y-107015580D01*
X95138165Y-107022051D01*
X95331459Y-107060500D01*
X95331461Y-107060500D01*
X95528539Y-107060500D01*
X95528541Y-107060500D01*
X95721835Y-107022051D01*
X95903914Y-106946632D01*
X96067782Y-106837139D01*
X96207139Y-106697782D01*
X96316632Y-106533914D01*
X96392051Y-106351835D01*
X96430500Y-106158541D01*
X96430500Y-105961459D01*
X96392051Y-105768165D01*
X96316632Y-105586086D01*
X96207139Y-105422218D01*
X96067782Y-105282861D01*
X96029227Y-105257099D01*
X95903913Y-105173367D01*
X95721839Y-105097950D01*
X95721829Y-105097947D01*
X95592388Y-105072200D01*
X95528541Y-105059500D01*
X95331459Y-105059500D01*
X95276662Y-105070399D01*
X95138170Y-105097947D01*
X95138160Y-105097950D01*
X94956086Y-105173367D01*
X94792218Y-105282860D01*
X94792217Y-105282862D01*
X94732426Y-105342653D01*
X94680100Y-105364327D01*
X94627774Y-105342653D01*
X94606100Y-105290327D01*
X94606100Y-102356036D01*
X94606099Y-102356035D01*
X94585622Y-102279614D01*
X94585620Y-102279609D01*
X94546059Y-102211088D01*
X93226281Y-100891310D01*
X98099500Y-100891310D01*
X98099500Y-101068689D01*
X98134104Y-101242660D01*
X98134107Y-101242670D01*
X98201985Y-101406544D01*
X98201986Y-101406546D01*
X98201987Y-101406547D01*
X98300536Y-101554035D01*
X98425965Y-101679464D01*
X98573453Y-101778013D01*
X98737334Y-101845894D01*
X98911309Y-101880500D01*
X98911311Y-101880500D01*
X99088689Y-101880500D01*
X99088691Y-101880500D01*
X99262666Y-101845894D01*
X99426547Y-101778013D01*
X99574035Y-101679464D01*
X99699464Y-101554035D01*
X99798013Y-101406547D01*
X99865894Y-101242666D01*
X99900500Y-101068691D01*
X99900500Y-100891309D01*
X99865894Y-100717334D01*
X99798013Y-100553453D01*
X99699464Y-100405965D01*
X99574035Y-100280536D01*
X99426547Y-100181987D01*
X99426546Y-100181986D01*
X99426544Y-100181985D01*
X99262670Y-100114107D01*
X99262660Y-100114104D01*
X99146156Y-100090930D01*
X99088691Y-100079500D01*
X98911309Y-100079500D01*
X98861989Y-100089310D01*
X98737339Y-100114104D01*
X98737329Y-100114107D01*
X98573455Y-100181985D01*
X98425968Y-100280533D01*
X98300533Y-100405968D01*
X98201985Y-100553455D01*
X98134107Y-100717329D01*
X98134104Y-100717339D01*
X98099500Y-100891310D01*
X93226281Y-100891310D01*
X91275183Y-98940212D01*
X91253509Y-98887886D01*
X91259142Y-98859567D01*
X91273621Y-98824612D01*
X91312051Y-98731835D01*
X91350500Y-98538541D01*
X91350500Y-98341459D01*
X91312051Y-98148165D01*
X91236632Y-97966086D01*
X91127139Y-97802218D01*
X91027347Y-97702426D01*
X91005673Y-97650100D01*
X91027347Y-97597774D01*
X91079673Y-97576100D01*
X92160327Y-97576100D01*
X92212653Y-97597774D01*
G37*
%TD.AperFunction*%
%TD*%
M02*
