%TF.GenerationSoftware,KiCad,Pcbnew,10.0.3*%
%TF.CreationDate,2026-06-15T23:45:57-04:00*%
%TF.ProjectId,index,696e6465-782e-46b6-9963-61645f706362,rev?*%
%TF.SameCoordinates,Original*%
%TF.FileFunction,Copper,L2,Bot*%
%TF.FilePolarity,Positive*%
%FSLAX46Y46*%
G04 Gerber Fmt 4.6, Leading zero omitted, Abs format (unit mm)*
G04 Created by KiCad (PCBNEW 10.0.3) date 2026-06-15 23:45:57*
%MOMM*%
%LPD*%
G01*
G04 APERTURE LIST*
%TA.AperFunction,ComponentPad*%
%ADD10C,1.400000*%
%TD*%
%TA.AperFunction,ComponentPad*%
%ADD11R,1.600000X1.600000*%
%TD*%
%TA.AperFunction,ComponentPad*%
%ADD12C,1.600000*%
%TD*%
%TA.AperFunction,ComponentPad*%
%ADD13C,0.600000*%
%TD*%
%TA.AperFunction,SMDPad,CuDef*%
%ADD14R,2.000000X7.000000*%
%TD*%
%TA.AperFunction,ViaPad*%
%ADD15C,0.600000*%
%TD*%
%TA.AperFunction,Conductor*%
%ADD16C,0.200000*%
%TD*%
G04 APERTURE END LIST*
D10*
%TO.P,RAUDIOB,1*%
%TO.N,ANALOG_B*%
X120730000Y-73750000D03*
%TO.P,RAUDIOB,2*%
%TO.N,SUM_NODE*%
X123270000Y-73750000D03*
%TD*%
D11*
%TO.P,U5,1*%
%TO.N,OPAMP_OUT*%
X111810000Y-62190000D03*
D12*
%TO.P,U5,2*%
%TO.N,SUM_NODE*%
X109270000Y-62190000D03*
%TO.P,U5,3*%
%TO.N,GND*%
X106730000Y-62190000D03*
%TO.P,U5,4*%
X104190000Y-62190000D03*
%TO.P,U5,5*%
X104190000Y-69810000D03*
%TO.P,U5,6*%
%TO.N,U5_UNUSED_FB*%
X106730000Y-69810000D03*
%TO.P,U5,7*%
X109270000Y-69810000D03*
%TO.P,U5,8*%
%TO.N,VCC*%
X111810000Y-69810000D03*
%TD*%
D13*
%TO.P,U7,1*%
%TO.N,GND*%
X130000000Y-84250000D03*
%TD*%
D11*
%TO.P,U1,1*%
%TO.N,VCC*%
X116510000Y-110630000D03*
D12*
%TO.P,U1,2*%
%TO.N,A12*%
X113970000Y-110630000D03*
%TO.P,U1,3*%
%TO.N,A7*%
X111430000Y-110630000D03*
%TO.P,U1,4*%
%TO.N,A6*%
X108890000Y-110630000D03*
%TO.P,U1,5*%
%TO.N,A5*%
X106350000Y-110630000D03*
%TO.P,U1,6*%
%TO.N,A4*%
X103810000Y-110630000D03*
%TO.P,U1,7*%
%TO.N,A3*%
X101270000Y-110630000D03*
%TO.P,U1,8*%
%TO.N,A2*%
X98730000Y-110630000D03*
%TO.P,U1,9*%
%TO.N,A1*%
X96190000Y-110630000D03*
%TO.P,U1,10*%
%TO.N,A0*%
X93650000Y-110630000D03*
%TO.P,U1,11*%
%TO.N,D0*%
X91110000Y-110630000D03*
%TO.P,U1,12*%
%TO.N,D1*%
X88570000Y-110630000D03*
%TO.P,U1,13*%
%TO.N,D2*%
X86030000Y-110630000D03*
%TO.P,U1,14*%
%TO.N,GND*%
X83490000Y-110630000D03*
%TO.P,U1,15*%
%TO.N,D3*%
X83490000Y-125870000D03*
%TO.P,U1,16*%
%TO.N,D4*%
X86030000Y-125870000D03*
%TO.P,U1,17*%
%TO.N,D5*%
X88570000Y-125870000D03*
%TO.P,U1,18*%
%TO.N,D6*%
X91110000Y-125870000D03*
%TO.P,U1,19*%
%TO.N,D7*%
X93650000Y-125870000D03*
%TO.P,U1,20*%
%TO.N,ROM_CE*%
X96190000Y-125870000D03*
%TO.P,U1,21*%
%TO.N,A10*%
X98730000Y-125870000D03*
%TO.P,U1,22*%
%TO.N,GND*%
X101270000Y-125870000D03*
%TO.P,U1,23*%
%TO.N,A11*%
X103810000Y-125870000D03*
%TO.P,U1,24*%
%TO.N,A9*%
X106350000Y-125870000D03*
%TO.P,U1,25*%
%TO.N,A8*%
X108890000Y-125870000D03*
%TO.P,U1,26*%
%TO.N,A13*%
X111430000Y-125870000D03*
%TO.P,U1,27*%
%TO.N,A14*%
X113970000Y-125870000D03*
%TO.P,U1,28*%
%TO.N,VCC*%
X116510000Y-125870000D03*
%TD*%
D10*
%TO.P,RAUDIOA,1*%
%TO.N,ANALOG_A*%
X114730000Y-73750000D03*
%TO.P,RAUDIOA,2*%
%TO.N,SUM_NODE*%
X117270000Y-73750000D03*
%TD*%
%TO.P,CRESET1,1*%
%TO.N,RESET_DELAYED*%
X78730000Y-95750000D03*
%TO.P,CRESET1,2*%
%TO.N,GND*%
X81270000Y-95750000D03*
%TD*%
%TO.P,RSERIES,1*%
%TO.N,OPAMP_OUT*%
X118000000Y-67270000D03*
%TO.P,RSERIES,2*%
%TO.N,CAP_PLUS*%
X118000000Y-64730000D03*
%TD*%
%TO.P,RPULL,1*%
%TO.N,OPAMP_OUT*%
X128000000Y-67270000D03*
%TO.P,RPULL,2*%
%TO.N,GND*%
X128000000Y-64730000D03*
%TD*%
D11*
%TO.P,U4,1*%
%TO.N,GND*%
X124130000Y-76630000D03*
D12*
%TO.P,U4,2*%
%TO.N,N/C*%
X121590000Y-76630000D03*
%TO.P,U4,3*%
%TO.N,ANALOG_B*%
X119050000Y-76630000D03*
%TO.P,U4,4*%
%TO.N,ANALOG_A*%
X116510000Y-76630000D03*
%TO.P,U4,5*%
%TO.N,N/C*%
X113970000Y-76630000D03*
%TO.P,U4,6*%
X111430000Y-76630000D03*
%TO.P,U4,7*%
X108890000Y-76630000D03*
%TO.P,U4,8*%
X106350000Y-76630000D03*
%TO.P,U4,9*%
X103810000Y-76630000D03*
%TO.P,U4,10*%
X101270000Y-76630000D03*
%TO.P,U4,11*%
X98730000Y-76630000D03*
%TO.P,U4,12*%
X96190000Y-76630000D03*
%TO.P,U4,13*%
X93650000Y-76630000D03*
%TO.P,U4,14*%
X91110000Y-76630000D03*
%TO.P,U4,15*%
X88570000Y-76630000D03*
%TO.P,U4,16*%
X86030000Y-76630000D03*
%TO.P,U4,17*%
X83490000Y-76630000D03*
%TO.P,U4,18*%
X80950000Y-76630000D03*
%TO.P,U4,19*%
X78410000Y-76630000D03*
%TO.P,U4,20*%
X75870000Y-76630000D03*
%TO.P,U4,21*%
X75870000Y-91870000D03*
%TO.P,U4,22*%
%TO.N,PHI2OUT*%
X78410000Y-91870000D03*
%TO.P,U4,23*%
%TO.N,RESET_DELAYED*%
X80950000Y-91870000D03*
%TO.P,U4,24*%
%TO.N,GND*%
X83490000Y-91870000D03*
%TO.P,U4,25*%
%TO.N,VCC*%
X86030000Y-91870000D03*
%TO.P,U4,26*%
%TO.N,N/C*%
X88570000Y-91870000D03*
%TO.P,U4,27*%
%TO.N,BDIR*%
X91110000Y-91870000D03*
%TO.P,U4,28*%
%TO.N,VCC*%
X93650000Y-91870000D03*
%TO.P,U4,29*%
%TO.N,BC1*%
X96190000Y-91870000D03*
%TO.P,U4,30*%
%TO.N,DA7*%
X98730000Y-91870000D03*
%TO.P,U4,31*%
%TO.N,DA6*%
X101270000Y-91870000D03*
%TO.P,U4,32*%
%TO.N,DA5*%
X103810000Y-91870000D03*
%TO.P,U4,33*%
%TO.N,DA4*%
X106350000Y-91870000D03*
%TO.P,U4,34*%
%TO.N,DA3*%
X108890000Y-91870000D03*
%TO.P,U4,35*%
%TO.N,DA2*%
X111430000Y-91870000D03*
%TO.P,U4,36*%
%TO.N,DA1*%
X113970000Y-91870000D03*
%TO.P,U4,37*%
%TO.N,DA0*%
X116510000Y-91870000D03*
%TO.P,U4,38*%
%TO.N,ANALOG_C*%
X119050000Y-91870000D03*
%TO.P,U4,39*%
%TO.N,N/C*%
X121590000Y-91870000D03*
%TO.P,U4,40*%
%TO.N,VCC*%
X124130000Y-91870000D03*
%TD*%
D10*
%TO.P,RFB,1*%
%TO.N,SUM_NODE*%
X98000000Y-67270000D03*
%TO.P,RFB,2*%
%TO.N,OPAMP_OUT*%
X98000000Y-64730000D03*
%TD*%
%TO.P,C5,1*%
%TO.N,CAP_PLUS*%
X123000000Y-67270000D03*
%TO.P,C5,2*%
%TO.N,OPAMP_OUT_AC*%
X123000000Y-64730000D03*
%TD*%
D14*
%TO.P,J1,17*%
%TO.N,A15*%
X121590000Y-136490000D03*
%TO.P,J1,18*%
%TO.N,OPAMP_OUT_AC*%
X119050000Y-136490000D03*
%TO.P,J1,19*%
%TO.N,A7*%
X113970000Y-136490000D03*
%TO.P,J1,20*%
%TO.N,A6*%
X111430000Y-136490000D03*
%TO.P,J1,21*%
%TO.N,A5*%
X108890000Y-136490000D03*
%TO.P,J1,22*%
%TO.N,A4*%
X106350000Y-136490000D03*
%TO.P,J1,23*%
%TO.N,A3*%
X103810000Y-136490000D03*
%TO.P,J1,24*%
%TO.N,A2*%
X101270000Y-136490000D03*
%TO.P,J1,25*%
%TO.N,A1*%
X98730000Y-136490000D03*
%TO.P,J1,26*%
%TO.N,A0*%
X96190000Y-136490000D03*
%TO.P,J1,27*%
%TO.N,D0*%
X93650000Y-136490000D03*
%TO.P,J1,28*%
%TO.N,D1*%
X91110000Y-136490000D03*
%TO.P,J1,29*%
%TO.N,D2*%
X88570000Y-136490000D03*
%TO.P,J1,30*%
%TO.N,GND*%
X86030000Y-136490000D03*
%TO.P,J1,31*%
%TO.N,N/C*%
X80950000Y-136490000D03*
%TO.P,J1,32*%
%TO.N,PHI2*%
X78410000Y-136490000D03*
%TD*%
D10*
%TO.P,RRESET1,1*%
%TO.N,VCC*%
X84730000Y-95750000D03*
%TO.P,RRESET1,2*%
%TO.N,RESET_DELAYED*%
X87270000Y-95750000D03*
%TD*%
D13*
%TO.P,U6,1*%
%TO.N,GND*%
X131000000Y-115000000D03*
%TD*%
D10*
%TO.P,RAUDIOC,1*%
%TO.N,ANALOG_C*%
X118730000Y-95750000D03*
%TO.P,RAUDIOC,2*%
%TO.N,SUM_NODE*%
X121270000Y-95750000D03*
%TD*%
D11*
%TO.P,U2,1*%
%TO.N,N/C*%
X95430000Y-98440000D03*
D12*
%TO.P,U2,2*%
%TO.N,A15*%
X92890000Y-98440000D03*
%TO.P,U2,3*%
%TO.N,A14*%
X90350000Y-98440000D03*
%TO.P,U2,4*%
%TO.N,A0*%
X87810000Y-98440000D03*
%TO.P,U2,5*%
%TO.N,HALT*%
X85270000Y-98440000D03*
%TO.P,U2,6*%
%TO.N,RW*%
X82730000Y-98440000D03*
%TO.P,U2,7*%
%TO.N,PHI2*%
X80190000Y-98440000D03*
%TO.P,U2,8*%
%TO.N,N/C*%
X77650000Y-98440000D03*
%TO.P,U2,9*%
X75110000Y-98440000D03*
%TO.P,U2,10*%
%TO.N,GND*%
X72570000Y-98440000D03*
%TO.P,U2,11*%
%TO.N,N/C*%
X72570000Y-106060000D03*
%TO.P,U2,12*%
X75110000Y-106060000D03*
%TO.P,U2,13*%
X77650000Y-106060000D03*
%TO.P,U2,14*%
X80190000Y-106060000D03*
%TO.P,U2,15*%
%TO.N,YM_LE*%
X82730000Y-106060000D03*
%TO.P,U2,16*%
%TO.N,PHI2OUT*%
X85270000Y-106060000D03*
%TO.P,U2,17*%
%TO.N,BC1*%
X87810000Y-106060000D03*
%TO.P,U2,18*%
%TO.N,BDIR*%
X90350000Y-106060000D03*
%TO.P,U2,19*%
%TO.N,ROM_CE*%
X92890000Y-106060000D03*
%TO.P,U2,20*%
%TO.N,VCC*%
X95430000Y-106060000D03*
%TD*%
D11*
%TO.P,U3,1*%
%TO.N,GND*%
X125430000Y-98440000D03*
D12*
%TO.P,U3,2*%
%TO.N,DA0*%
X122890000Y-98440000D03*
%TO.P,U3,3*%
%TO.N,D0*%
X120350000Y-98440000D03*
%TO.P,U3,4*%
%TO.N,D1*%
X117810000Y-98440000D03*
%TO.P,U3,5*%
%TO.N,DA1*%
X115270000Y-98440000D03*
%TO.P,U3,6*%
%TO.N,DA2*%
X112730000Y-98440000D03*
%TO.P,U3,7*%
%TO.N,D2*%
X110190000Y-98440000D03*
%TO.P,U3,8*%
%TO.N,D3*%
X107650000Y-98440000D03*
%TO.P,U3,9*%
%TO.N,DA3*%
X105110000Y-98440000D03*
%TO.P,U3,10*%
%TO.N,GND*%
X102570000Y-98440000D03*
%TO.P,U3,11*%
%TO.N,YM_LE*%
X102570000Y-106060000D03*
%TO.P,U3,12*%
%TO.N,DA4*%
X105110000Y-106060000D03*
%TO.P,U3,13*%
%TO.N,D4*%
X107650000Y-106060000D03*
%TO.P,U3,14*%
%TO.N,D5*%
X110190000Y-106060000D03*
%TO.P,U3,15*%
%TO.N,DA5*%
X112730000Y-106060000D03*
%TO.P,U3,16*%
%TO.N,DA6*%
X115270000Y-106060000D03*
%TO.P,U3,17*%
%TO.N,D6*%
X117810000Y-106060000D03*
%TO.P,U3,18*%
%TO.N,D7*%
X120350000Y-106060000D03*
%TO.P,U3,19*%
%TO.N,DA7*%
X122890000Y-106060000D03*
%TO.P,U3,20*%
%TO.N,VCC*%
X125430000Y-106060000D03*
%TD*%
D15*
%TO.N,A6*%
X110160000Y-132178300D03*
%TO.N,A5*%
X107538700Y-115231700D03*
%TO.N,A4*%
X104613100Y-118202100D03*
%TO.N,A3*%
X103314200Y-132178300D03*
%TO.N,A2*%
X99573400Y-123879500D03*
%TO.N,A1*%
X98595100Y-132178300D03*
%TO.N,A0*%
X92864500Y-100022200D03*
X91512000Y-107324100D03*
X94567900Y-123842800D03*
%TO.N,D0*%
X93956900Y-132178300D03*
%TO.N,D1*%
X89840000Y-132178300D03*
%TO.N,ROM_CE*%
X96587000Y-112080300D03*
%TO.N,A13*%
X113709100Y-123751600D03*
X118938300Y-132313800D03*
%TO.N,A14*%
X113895600Y-105251700D03*
X119073800Y-129877700D03*
%TO.N,DA6*%
X111818000Y-102258200D03*
%TO.N,DA5*%
X109986700Y-102872700D03*
X108493700Y-95371800D03*
%TO.N,OPAMP_OUT_AC*%
X122666300Y-117966500D03*
%TO.N,A15*%
X93088400Y-96205000D03*
X112179000Y-97143100D03*
X121300300Y-131888200D03*
%TD*%
%TO.N,SUM_NODE*%
D16*
X117270000Y-73750000D02*
X118286300Y-74766300D01*
X98000000Y-67270000D02*
X96987400Y-66257400D01*
X96987400Y-66257400D02*
X96987400Y-64317500D01*
X125286800Y-92282600D02*
X121819400Y-95750000D01*
X121819400Y-95750000D02*
X121270000Y-95750000D01*
X125286800Y-91226700D02*
X125286800Y-92282600D01*
X122860000Y-74766300D02*
X122860000Y-88799900D01*
X118286300Y-74766300D02*
X122860000Y-74766300D01*
X97624400Y-63680500D02*
X107779500Y-63680500D01*
X107779500Y-63680500D02*
X109270000Y-62190000D01*
X122860000Y-74160000D02*
X122860000Y-74766300D01*
X122860000Y-88799900D02*
X125286800Y-91226700D01*
X96987400Y-64317500D02*
X97624400Y-63680500D01*
X123270000Y-73750000D02*
X122860000Y-74160000D01*
%TO.N,OPAMP_OUT*%
X111810000Y-62190000D02*
X110708300Y-62190000D01*
X119020200Y-68290200D02*
X118000000Y-67270000D01*
X117991700Y-67270000D02*
X112911700Y-62190000D01*
X108306000Y-64730000D02*
X110708300Y-62327700D01*
X98000000Y-64730000D02*
X108306000Y-64730000D01*
X126979800Y-68290200D02*
X119020200Y-68290200D01*
X118000000Y-67270000D02*
X117991700Y-67270000D01*
X128000000Y-67270000D02*
X126979800Y-68290200D01*
X110708300Y-62327700D02*
X110708300Y-62190000D01*
X111810000Y-62190000D02*
X112911700Y-62190000D01*
%TO.N,U5_UNUSED_FB*%
X109270000Y-69810000D02*
X106730000Y-69810000D01*
%TO.N,VCC*%
X120860000Y-110630000D02*
X116510000Y-110630000D01*
X125430000Y-106060000D02*
X120860000Y-110630000D01*
X93650000Y-91870000D02*
X95174000Y-90346000D01*
X92534400Y-92985600D02*
X87145600Y-92985600D01*
X87145600Y-92985600D02*
X86030000Y-91870000D01*
X122606000Y-90346000D02*
X124130000Y-91870000D01*
X93650000Y-91870000D02*
X92534400Y-92985600D01*
X95174000Y-90346000D02*
X122606000Y-90346000D01*
%TO.N,A7*%
X112730200Y-126970200D02*
X113970000Y-128210000D01*
X112730200Y-111930200D02*
X112730200Y-126970200D01*
X113970000Y-128210000D02*
X113970000Y-136490000D01*
X111430000Y-110630000D02*
X112730200Y-111930200D01*
%TO.N,A6*%
X110670000Y-132688300D02*
X111430000Y-132688300D01*
X110160000Y-132178300D02*
X110670000Y-132688300D01*
X111430000Y-136490000D02*
X111430000Y-132688300D01*
%TO.N,A5*%
X107538700Y-115231700D02*
X107538700Y-126858700D01*
X107538700Y-126858700D02*
X108890000Y-128210000D01*
X108890000Y-128210000D02*
X108890000Y-136490000D01*
%TO.N,A4*%
X106350000Y-128210000D02*
X106350000Y-136490000D01*
X104613100Y-118202100D02*
X105110200Y-118699200D01*
X105110200Y-126970200D02*
X106350000Y-128210000D01*
X105110200Y-118699200D02*
X105110200Y-126970200D01*
%TO.N,A3*%
X103810000Y-132674100D02*
X103810000Y-136490000D01*
X103314200Y-132178300D02*
X103810000Y-132674100D01*
%TO.N,A2*%
X101270000Y-132688300D02*
X100141600Y-131559900D01*
X100141600Y-124447700D02*
X99573400Y-123879500D01*
X100141600Y-131559900D02*
X100141600Y-124447700D01*
X101270000Y-136490000D02*
X101270000Y-132688300D01*
%TO.N,A1*%
X98595100Y-132178300D02*
X98730000Y-132313200D01*
X98730000Y-132313200D02*
X98730000Y-136490000D01*
%TO.N,A0*%
X91512000Y-107324100D02*
X93650000Y-109462100D01*
X96190000Y-132688300D02*
X95088300Y-131586600D01*
X89392200Y-100022200D02*
X92864500Y-100022200D01*
X93650000Y-109462100D02*
X93650000Y-110630000D01*
X87810000Y-98440000D02*
X89392200Y-100022200D01*
X95088300Y-131586600D02*
X95088300Y-124363200D01*
X96190000Y-136490000D02*
X96190000Y-132688300D01*
X95088300Y-124363200D02*
X94567900Y-123842800D01*
%TO.N,D0*%
X93650000Y-132485200D02*
X93650000Y-136490000D01*
X93956900Y-132178300D02*
X93650000Y-132485200D01*
%TO.N,D1*%
X91110000Y-136490000D02*
X91110000Y-132688300D01*
X90350000Y-132688300D02*
X91110000Y-132688300D01*
X89840000Y-132178300D02*
X90350000Y-132688300D01*
%TO.N,D2*%
X109059400Y-97309400D02*
X101009400Y-97309400D01*
X86271700Y-100904500D02*
X81621900Y-105554300D01*
X97414300Y-100904500D02*
X86271700Y-100904500D01*
X86030000Y-110630000D02*
X82356000Y-114304000D01*
X101009400Y-97309400D02*
X97414300Y-100904500D01*
X88570000Y-132561600D02*
X88570000Y-136490000D01*
X85695900Y-110630000D02*
X86030000Y-110630000D01*
X82356000Y-114304000D02*
X82356000Y-126347600D01*
X81621900Y-105554300D02*
X81621900Y-106556000D01*
X81621900Y-106556000D02*
X85695900Y-110630000D01*
X110190000Y-98440000D02*
X109059400Y-97309400D01*
X82356000Y-126347600D02*
X88570000Y-132561600D01*
%TO.N,D3*%
X98806300Y-112126600D02*
X100000000Y-110932900D01*
X83648200Y-125870000D02*
X97391600Y-112126600D01*
X83490000Y-125870000D02*
X83648200Y-125870000D01*
X100000000Y-110319100D02*
X103840000Y-106479100D01*
X103840000Y-102250000D02*
X107650000Y-98440000D01*
X103840000Y-106479100D02*
X103840000Y-102250000D01*
X97391600Y-112126600D02*
X98806300Y-112126600D01*
X100000000Y-110932900D02*
X100000000Y-110319100D01*
%TO.N,D4*%
X106807200Y-106060000D02*
X102371700Y-110495500D01*
X93813100Y-119689800D02*
X92210200Y-119689800D01*
X102371700Y-111131200D02*
X93813100Y-119689800D01*
X102371700Y-110495500D02*
X102371700Y-111131200D01*
X92210200Y-119689800D02*
X86030000Y-125870000D01*
X107650000Y-106060000D02*
X106807200Y-106060000D01*
%TO.N,D5*%
X104911700Y-110495500D02*
X104911700Y-111131200D01*
X104911700Y-111131200D02*
X96353100Y-119689800D01*
X110190000Y-106060000D02*
X109347200Y-106060000D01*
X109347200Y-106060000D02*
X104911700Y-110495500D01*
X96353100Y-119689800D02*
X94750200Y-119689800D01*
X94750200Y-119689800D02*
X88570000Y-125870000D01*
%TO.N,D6*%
X117810000Y-106060000D02*
X116705900Y-107164100D01*
X116705900Y-107164100D02*
X110788900Y-107164100D01*
X107620000Y-110333000D02*
X107620000Y-110957700D01*
X107620000Y-110957700D02*
X95965800Y-122611900D01*
X110788900Y-107164100D02*
X107620000Y-110333000D01*
X94368100Y-122611900D02*
X91110000Y-125870000D01*
X95965800Y-122611900D02*
X94368100Y-122611900D01*
%TO.N,D7*%
X117188800Y-109221200D02*
X111272400Y-109221200D01*
X109991700Y-111147500D02*
X97924800Y-123214400D01*
X111272400Y-109221200D02*
X109991700Y-110501900D01*
X120350000Y-106060000D02*
X117188800Y-109221200D01*
X94339600Y-123214400D02*
X93650000Y-123904000D01*
X97924800Y-123214400D02*
X94339600Y-123214400D01*
X93650000Y-123904000D02*
X93650000Y-125870000D01*
X109991700Y-110501900D02*
X109991700Y-111147500D01*
%TO.N,ROM_CE*%
X94751700Y-110802500D02*
X96029500Y-112080300D01*
X96029500Y-112080300D02*
X96587000Y-112080300D01*
X92890000Y-106060000D02*
X94751700Y-107921700D01*
X94751700Y-107921700D02*
X94751700Y-110802500D01*
%TO.N,A13*%
X117289500Y-128241000D02*
X115408300Y-126359800D01*
X118340300Y-128241000D02*
X117289500Y-128241000D01*
X115408300Y-126359800D02*
X115408300Y-125450800D01*
X119696900Y-129597600D02*
X118340300Y-128241000D01*
X118938300Y-132313800D02*
X119696900Y-131555200D01*
X119696900Y-131555200D02*
X119696900Y-129597600D01*
X115408300Y-125450800D02*
X113709100Y-123751600D01*
%TO.N,A14*%
X90350000Y-98440000D02*
X91912900Y-96877100D01*
X111345800Y-99699200D02*
X111195200Y-99849800D01*
X110231100Y-96877100D02*
X111345800Y-97991800D01*
X111195200Y-102551300D02*
X113895600Y-105251700D01*
X91912900Y-96877100D02*
X110231100Y-96877100D01*
X111195200Y-99849800D02*
X111195200Y-102551300D01*
X117977700Y-129877700D02*
X119073800Y-129877700D01*
X111345800Y-97991800D02*
X111345800Y-99699200D01*
X113970000Y-125870000D02*
X117977700Y-129877700D01*
%TO.N,RESET_DELAYED*%
X87270000Y-95750000D02*
X84905800Y-93385800D01*
X82465800Y-93385800D02*
X80950000Y-91870000D01*
X84905800Y-93385800D02*
X82465800Y-93385800D01*
%TO.N,CAP_PLUS*%
X118000000Y-64730000D02*
X120540000Y-67270000D01*
X120540000Y-67270000D02*
X123000000Y-67270000D01*
%TO.N,DA7*%
X107620000Y-91538800D02*
X106832100Y-90750900D01*
X122890000Y-106060000D02*
X120519800Y-103689800D01*
X111859500Y-96404500D02*
X107620000Y-92165000D01*
X107620000Y-92165000D02*
X107620000Y-91538800D01*
X114000000Y-98113200D02*
X112291300Y-96404500D01*
X120519800Y-103689800D02*
X118929300Y-103689800D01*
X112291300Y-96404500D02*
X111859500Y-96404500D01*
X106832100Y-90750900D02*
X99849100Y-90750900D01*
X118929300Y-103689800D02*
X114000000Y-98760500D01*
X114000000Y-98760500D02*
X114000000Y-98113200D01*
X99849100Y-90750900D02*
X98730000Y-91870000D01*
%TO.N,DA6*%
X115270000Y-105710200D02*
X111818000Y-102258200D01*
X115270000Y-106060000D02*
X115270000Y-105710200D01*
%TO.N,DA5*%
X112730000Y-105616000D02*
X112730000Y-106060000D01*
X103810000Y-91870000D02*
X107311800Y-95371800D01*
X109986700Y-102872700D02*
X112730000Y-105616000D01*
X107311800Y-95371800D02*
X108493700Y-95371800D01*
%TO.N,DA0*%
X120216100Y-96163200D02*
X122492900Y-98440000D01*
X122492900Y-98440000D02*
X122890000Y-98440000D01*
X120216100Y-95576100D02*
X120216100Y-96163200D01*
X116510000Y-91870000D02*
X120216100Y-95576100D01*
%TO.N,OPAMP_OUT_AC*%
X122666300Y-129476600D02*
X122666300Y-117966500D01*
X119050000Y-136490000D02*
X119050000Y-133092900D01*
X119050000Y-133092900D02*
X122666300Y-129476600D01*
%TO.N,A15*%
X111065100Y-97143100D02*
X112179000Y-97143100D01*
X121300300Y-131888200D02*
X121590000Y-132177900D01*
X110127000Y-96205000D02*
X111065100Y-97143100D01*
X121590000Y-132177900D02*
X121590000Y-136490000D01*
X93088400Y-96205000D02*
X110127000Y-96205000D01*
%TO.N,PHI2*%
X78920000Y-132178300D02*
X78410000Y-132688300D01*
X78410000Y-136490000D02*
X78410000Y-132688300D01*
X78920000Y-99710000D02*
X78920000Y-132178300D01*
X80190000Y-98440000D02*
X78920000Y-99710000D01*
%TO.N,YM_LE*%
X83841100Y-104948900D02*
X82730000Y-106060000D01*
X101458900Y-104948900D02*
X83841100Y-104948900D01*
X102570000Y-106060000D02*
X101458900Y-104948900D01*
%TD*%
%TA.AperFunction,Conductor*%
%TO.N,GND*%
G36*
X131778326Y-60221674D02*
G01*
X131800000Y-60274000D01*
X131800000Y-115636506D01*
X131778326Y-115688832D01*
X131438832Y-116028326D01*
X131386506Y-116050000D01*
X131300000Y-116050000D01*
X123800000Y-116050000D01*
X123786994Y-116051281D01*
X123760980Y-116053843D01*
X123738218Y-116060748D01*
X123723463Y-116065224D01*
X123723461Y-116065224D01*
X123723461Y-116065225D01*
X123688887Y-116083705D01*
X123688883Y-116083708D01*
X123658579Y-116108579D01*
X123633708Y-116138883D01*
X123633705Y-116138887D01*
X123615225Y-116173461D01*
X123603843Y-116210980D01*
X123600000Y-116250001D01*
X123600000Y-139726000D01*
X123578326Y-139778326D01*
X123526000Y-139800000D01*
X122864500Y-139800000D01*
X122812174Y-139778326D01*
X122790500Y-139726000D01*
X122790500Y-132970246D01*
X122790356Y-132968783D01*
X122790000Y-132961536D01*
X122790000Y-132790000D01*
X122618464Y-132790000D01*
X122611217Y-132789644D01*
X122609754Y-132789500D01*
X122609748Y-132789500D01*
X121964500Y-132789500D01*
X121912174Y-132767826D01*
X121890500Y-132715500D01*
X121890500Y-132138338D01*
X121883552Y-132112408D01*
X121883551Y-132112406D01*
X121870023Y-132061916D01*
X121870022Y-132061912D01*
X121865346Y-132053813D01*
X121830462Y-131993391D01*
X121822472Y-131985401D01*
X121800800Y-131933077D01*
X121800800Y-131822306D01*
X121800799Y-131822305D01*
X121766693Y-131695018D01*
X121766692Y-131695014D01*
X121700800Y-131580886D01*
X121607614Y-131487700D01*
X121554619Y-131457103D01*
X121493490Y-131421810D01*
X121493481Y-131421806D01*
X121366194Y-131387700D01*
X121366192Y-131387700D01*
X121358822Y-131387700D01*
X121306496Y-131366026D01*
X121284822Y-131313700D01*
X121306496Y-131261374D01*
X122906760Y-129661111D01*
X122946322Y-129592588D01*
X122966800Y-129516162D01*
X122966800Y-129437038D01*
X122966800Y-118404466D01*
X122988474Y-118352140D01*
X123066800Y-118273814D01*
X123132692Y-118159686D01*
X123166799Y-118032394D01*
X123166800Y-118032394D01*
X123166800Y-117900606D01*
X123166799Y-117900605D01*
X123132693Y-117773318D01*
X123132692Y-117773314D01*
X123066800Y-117659186D01*
X122973614Y-117566000D01*
X122859490Y-117500110D01*
X122859481Y-117500106D01*
X122732194Y-117466000D01*
X122732192Y-117466000D01*
X122600408Y-117466000D01*
X122600406Y-117466000D01*
X122473118Y-117500106D01*
X122473109Y-117500110D01*
X122358985Y-117566000D01*
X122265800Y-117659185D01*
X122199910Y-117773309D01*
X122199906Y-117773318D01*
X122165800Y-117900605D01*
X122165800Y-118032394D01*
X122199906Y-118159681D01*
X122199910Y-118159690D01*
X122265800Y-118273814D01*
X122344126Y-118352140D01*
X122365800Y-118404466D01*
X122365800Y-129321477D01*
X122344126Y-129373803D01*
X120123726Y-131594203D01*
X120071400Y-131615877D01*
X120019074Y-131594203D01*
X119997400Y-131541877D01*
X119997400Y-129558036D01*
X119997399Y-129558035D01*
X119976922Y-129481614D01*
X119976920Y-129481609D01*
X119937359Y-129413088D01*
X118524811Y-128000540D01*
X118456290Y-127960979D01*
X118456285Y-127960977D01*
X118379864Y-127940500D01*
X118379862Y-127940500D01*
X117444623Y-127940500D01*
X117392297Y-127918826D01*
X116470297Y-126996826D01*
X116448623Y-126944500D01*
X116470297Y-126892174D01*
X116522623Y-126870500D01*
X116608539Y-126870500D01*
X116608541Y-126870500D01*
X116801835Y-126832051D01*
X116983914Y-126756632D01*
X117147782Y-126647139D01*
X117287139Y-126507782D01*
X117396632Y-126343914D01*
X117472051Y-126161835D01*
X117510500Y-125968541D01*
X117510500Y-125771459D01*
X117472051Y-125578165D01*
X117396632Y-125396086D01*
X117287139Y-125232218D01*
X117147782Y-125092861D01*
X117039572Y-125020557D01*
X116983913Y-124983367D01*
X116801839Y-124907950D01*
X116801829Y-124907947D01*
X116672388Y-124882200D01*
X116608541Y-124869500D01*
X116411459Y-124869500D01*
X116356662Y-124880399D01*
X116218170Y-124907947D01*
X116218160Y-124907950D01*
X116036086Y-124983367D01*
X115872218Y-125092860D01*
X115872217Y-125092861D01*
X115732850Y-125232229D01*
X115731377Y-125234024D01*
X115730687Y-125234392D01*
X115730291Y-125234789D01*
X115730170Y-125234668D01*
X115681421Y-125260710D01*
X115627227Y-125244254D01*
X115621861Y-125239390D01*
X114231274Y-123848803D01*
X114209600Y-123796477D01*
X114209600Y-123685706D01*
X114209599Y-123685705D01*
X114175493Y-123558418D01*
X114175492Y-123558414D01*
X114109600Y-123444286D01*
X114016414Y-123351100D01*
X113902290Y-123285210D01*
X113902281Y-123285206D01*
X113774994Y-123251100D01*
X113774992Y-123251100D01*
X113643208Y-123251100D01*
X113643206Y-123251100D01*
X113515918Y-123285206D01*
X113515909Y-123285210D01*
X113401785Y-123351100D01*
X113308600Y-123444285D01*
X113242710Y-123558409D01*
X113242706Y-123558418D01*
X113208600Y-123685705D01*
X113208600Y-123817494D01*
X113242706Y-123944781D01*
X113242710Y-123944790D01*
X113292844Y-124031624D01*
X113308600Y-124058914D01*
X113401786Y-124152100D01*
X113515914Y-124217992D01*
X113643205Y-124252099D01*
X113643206Y-124252100D01*
X113753977Y-124252100D01*
X113806303Y-124273774D01*
X114312339Y-124779810D01*
X114334013Y-124832136D01*
X114312339Y-124884462D01*
X114260013Y-124906136D01*
X114245577Y-124904714D01*
X114096819Y-124875125D01*
X114068541Y-124869500D01*
X113871459Y-124869500D01*
X113816662Y-124880399D01*
X113678170Y-124907947D01*
X113678160Y-124907950D01*
X113496086Y-124983367D01*
X113332218Y-125092860D01*
X113332217Y-125092862D01*
X113192862Y-125232217D01*
X113192860Y-125232218D01*
X113166229Y-125272076D01*
X113119137Y-125303542D01*
X113063588Y-125292493D01*
X113032122Y-125245401D01*
X113030700Y-125230964D01*
X113030700Y-111890636D01*
X113030699Y-111890635D01*
X113010222Y-111814214D01*
X113010220Y-111814209D01*
X112970659Y-111745688D01*
X112355183Y-111130212D01*
X112333509Y-111077886D01*
X112339142Y-111049567D01*
X112392051Y-110921835D01*
X112430500Y-110728541D01*
X112430500Y-110531459D01*
X112392051Y-110338165D01*
X112316632Y-110156086D01*
X112207139Y-109992218D01*
X112067782Y-109852861D01*
X112062889Y-109849591D01*
X111903913Y-109743367D01*
X111721839Y-109667950D01*
X111718353Y-109666893D01*
X111718869Y-109665192D01*
X111676397Y-109636810D01*
X111665349Y-109581260D01*
X111696817Y-109534170D01*
X111737927Y-109521700D01*
X113662073Y-109521700D01*
X113714399Y-109543374D01*
X113736073Y-109595700D01*
X113714399Y-109648026D01*
X113681292Y-109665723D01*
X113681647Y-109666893D01*
X113678160Y-109667950D01*
X113496086Y-109743367D01*
X113332218Y-109852860D01*
X113332217Y-109852862D01*
X113192862Y-109992217D01*
X113192860Y-109992218D01*
X113083367Y-110156086D01*
X113007950Y-110338160D01*
X113007947Y-110338170D01*
X112969500Y-110531460D01*
X112969500Y-110728539D01*
X113007947Y-110921829D01*
X113007950Y-110921839D01*
X113083367Y-111103913D01*
X113192860Y-111267781D01*
X113332218Y-111407139D01*
X113496086Y-111516632D01*
X113635913Y-111574550D01*
X113678165Y-111592051D01*
X113871459Y-111630500D01*
X113871461Y-111630500D01*
X114068539Y-111630500D01*
X114068541Y-111630500D01*
X114261835Y-111592051D01*
X114443914Y-111516632D01*
X114607782Y-111407139D01*
X114747139Y-111267782D01*
X114856632Y-111103914D01*
X114932051Y-110921835D01*
X114970500Y-110728541D01*
X114970500Y-110531459D01*
X114932051Y-110338165D01*
X114856632Y-110156086D01*
X114747139Y-109992218D01*
X114607782Y-109852861D01*
X114602889Y-109849591D01*
X114443913Y-109743367D01*
X114261839Y-109667950D01*
X114258353Y-109666893D01*
X114258869Y-109665192D01*
X114216397Y-109636810D01*
X114205349Y-109581260D01*
X114236817Y-109534170D01*
X114277927Y-109521700D01*
X115566568Y-109521700D01*
X115618894Y-109543374D01*
X115640568Y-109595700D01*
X115618894Y-109648026D01*
X115607681Y-109657228D01*
X115565449Y-109685447D01*
X115565447Y-109685449D01*
X115521133Y-109751767D01*
X115509500Y-109810253D01*
X115509500Y-111449746D01*
X115521133Y-111508232D01*
X115538023Y-111533509D01*
X115565448Y-111574552D01*
X115599088Y-111597030D01*
X115631767Y-111618866D01*
X115631768Y-111618866D01*
X115631769Y-111618867D01*
X115690252Y-111630500D01*
X115690254Y-111630500D01*
X117329746Y-111630500D01*
X117329748Y-111630500D01*
X117388231Y-111618867D01*
X117454552Y-111574552D01*
X117498867Y-111508231D01*
X117510500Y-111449748D01*
X117510500Y-111004500D01*
X117532174Y-110952174D01*
X117584500Y-110930500D01*
X120899564Y-110930500D01*
X120899564Y-110930499D01*
X120975989Y-110910021D01*
X121044511Y-110870460D01*
X121100460Y-110814511D01*
X124929787Y-106985182D01*
X124982112Y-106963509D01*
X125010430Y-106969142D01*
X125125454Y-107016786D01*
X125138165Y-107022051D01*
X125331459Y-107060500D01*
X125331461Y-107060500D01*
X125528539Y-107060500D01*
X125528541Y-107060500D01*
X125721835Y-107022051D01*
X125903914Y-106946632D01*
X126067782Y-106837139D01*
X126207139Y-106697782D01*
X126316632Y-106533914D01*
X126392051Y-106351835D01*
X126430500Y-106158541D01*
X126430500Y-105961459D01*
X126392051Y-105768165D01*
X126366408Y-105706258D01*
X126316632Y-105586086D01*
X126207139Y-105422218D01*
X126067781Y-105282860D01*
X125903913Y-105173367D01*
X125721839Y-105097950D01*
X125721829Y-105097947D01*
X125592388Y-105072200D01*
X125528541Y-105059500D01*
X125331459Y-105059500D01*
X125276662Y-105070399D01*
X125138170Y-105097947D01*
X125138160Y-105097950D01*
X124956086Y-105173367D01*
X124792218Y-105282860D01*
X124792217Y-105282862D01*
X124652862Y-105422217D01*
X124652860Y-105422218D01*
X124543367Y-105586086D01*
X124467950Y-105768160D01*
X124467947Y-105768170D01*
X124429500Y-105961460D01*
X124429500Y-106158539D01*
X124467947Y-106351829D01*
X124467950Y-106351839D01*
X124520857Y-106479567D01*
X124520857Y-106536204D01*
X124504816Y-106560211D01*
X120757203Y-110307826D01*
X120704877Y-110329500D01*
X117584500Y-110329500D01*
X117532174Y-110307826D01*
X117510500Y-110255500D01*
X117510500Y-109810253D01*
X117510500Y-109810252D01*
X117498867Y-109751769D01*
X117454552Y-109685448D01*
X117424237Y-109665192D01*
X117388232Y-109641133D01*
X117338767Y-109631294D01*
X117291675Y-109599828D01*
X117280626Y-109544279D01*
X117312092Y-109497187D01*
X117316190Y-109494638D01*
X117373311Y-109461660D01*
X117429260Y-109405711D01*
X119849787Y-106985182D01*
X119902112Y-106963509D01*
X119930430Y-106969142D01*
X120045454Y-107016786D01*
X120058165Y-107022051D01*
X120251459Y-107060500D01*
X120251461Y-107060500D01*
X120448539Y-107060500D01*
X120448541Y-107060500D01*
X120641835Y-107022051D01*
X120823914Y-106946632D01*
X120987782Y-106837139D01*
X121127139Y-106697782D01*
X121236632Y-106533914D01*
X121312051Y-106351835D01*
X121350500Y-106158541D01*
X121350500Y-105961459D01*
X121312051Y-105768165D01*
X121286408Y-105706258D01*
X121236632Y-105586086D01*
X121127139Y-105422218D01*
X120987781Y-105282860D01*
X120823913Y-105173367D01*
X120641839Y-105097950D01*
X120641829Y-105097947D01*
X120512388Y-105072200D01*
X120448541Y-105059500D01*
X120251459Y-105059500D01*
X120196662Y-105070399D01*
X120058170Y-105097947D01*
X120058160Y-105097950D01*
X119876086Y-105173367D01*
X119712218Y-105282860D01*
X119712217Y-105282862D01*
X119572862Y-105422217D01*
X119572860Y-105422218D01*
X119463367Y-105586086D01*
X119387950Y-105768160D01*
X119387947Y-105768170D01*
X119349500Y-105961460D01*
X119349500Y-106158539D01*
X119387947Y-106351829D01*
X119387950Y-106351839D01*
X119440857Y-106479567D01*
X119440857Y-106536204D01*
X119424816Y-106560211D01*
X117086003Y-108899026D01*
X117033677Y-108920700D01*
X111232836Y-108920700D01*
X111156414Y-108941177D01*
X111156409Y-108941179D01*
X111087888Y-108980740D01*
X109894526Y-110174101D01*
X109842200Y-110195775D01*
X109789874Y-110174101D01*
X109778719Y-110159063D01*
X109778651Y-110159109D01*
X109777721Y-110157717D01*
X109776942Y-110156667D01*
X109776632Y-110156087D01*
X109776632Y-110156086D01*
X109667139Y-109992218D01*
X109527782Y-109852861D01*
X109522889Y-109849591D01*
X109363913Y-109743367D01*
X109181839Y-109667950D01*
X109181829Y-109667947D01*
X109052388Y-109642200D01*
X108988541Y-109629500D01*
X108927122Y-109629500D01*
X108874796Y-109607826D01*
X108853122Y-109555500D01*
X108874796Y-109503174D01*
X110891697Y-107486274D01*
X110944023Y-107464600D01*
X116745464Y-107464600D01*
X116745464Y-107464599D01*
X116821889Y-107444121D01*
X116890411Y-107404560D01*
X116946360Y-107348611D01*
X117309787Y-106985182D01*
X117362113Y-106963509D01*
X117390431Y-106969141D01*
X117518165Y-107022051D01*
X117711459Y-107060500D01*
X117711461Y-107060500D01*
X117908539Y-107060500D01*
X117908541Y-107060500D01*
X118101835Y-107022051D01*
X118283914Y-106946632D01*
X118447782Y-106837139D01*
X118587139Y-106697782D01*
X118696632Y-106533914D01*
X118772051Y-106351835D01*
X118810500Y-106158541D01*
X118810500Y-105961459D01*
X118772051Y-105768165D01*
X118746408Y-105706258D01*
X118696632Y-105586086D01*
X118587139Y-105422218D01*
X118447781Y-105282860D01*
X118283913Y-105173367D01*
X118101839Y-105097950D01*
X118101829Y-105097947D01*
X117972388Y-105072200D01*
X117908541Y-105059500D01*
X117711459Y-105059500D01*
X117656662Y-105070399D01*
X117518170Y-105097947D01*
X117518160Y-105097950D01*
X117336086Y-105173367D01*
X117172218Y-105282860D01*
X117172217Y-105282862D01*
X117032862Y-105422217D01*
X117032860Y-105422218D01*
X116923367Y-105586086D01*
X116847950Y-105768160D01*
X116847947Y-105768170D01*
X116809500Y-105961460D01*
X116809500Y-106158539D01*
X116847947Y-106351829D01*
X116847950Y-106351839D01*
X116900857Y-106479567D01*
X116900857Y-106536204D01*
X116884816Y-106560211D01*
X116603103Y-106841926D01*
X116550777Y-106863600D01*
X116059973Y-106863600D01*
X116007647Y-106841926D01*
X115985973Y-106789600D01*
X116007647Y-106737274D01*
X116047140Y-106697781D01*
X116086148Y-106639401D01*
X116156632Y-106533914D01*
X116232051Y-106351835D01*
X116270500Y-106158541D01*
X116270500Y-105961459D01*
X116232051Y-105768165D01*
X116206408Y-105706258D01*
X116156632Y-105586086D01*
X116047139Y-105422218D01*
X115907781Y-105282860D01*
X115743913Y-105173367D01*
X115561839Y-105097950D01*
X115561829Y-105097947D01*
X115432388Y-105072200D01*
X115368541Y-105059500D01*
X115171459Y-105059500D01*
X115104166Y-105072885D01*
X115048617Y-105061835D01*
X115037404Y-105052633D01*
X112340174Y-102355403D01*
X112318500Y-102303077D01*
X112318500Y-102192306D01*
X112318499Y-102192305D01*
X112302879Y-102134011D01*
X112284392Y-102065014D01*
X112218500Y-101950886D01*
X112125314Y-101857700D01*
X112029300Y-101802266D01*
X112011190Y-101791810D01*
X112011181Y-101791806D01*
X111883894Y-101757700D01*
X111883892Y-101757700D01*
X111752108Y-101757700D01*
X111752106Y-101757700D01*
X111624818Y-101791806D01*
X111624809Y-101791810D01*
X111606700Y-101802266D01*
X111550547Y-101809659D01*
X111505614Y-101775180D01*
X111495700Y-101738180D01*
X111495700Y-100004922D01*
X111517373Y-99952597D01*
X111586260Y-99883711D01*
X111625822Y-99815188D01*
X111646300Y-99738762D01*
X111646300Y-99659638D01*
X111646300Y-98810171D01*
X111667974Y-98757845D01*
X111720300Y-98736171D01*
X111772626Y-98757845D01*
X111788667Y-98781853D01*
X111843367Y-98913913D01*
X111952860Y-99077781D01*
X112092218Y-99217139D01*
X112256086Y-99326632D01*
X112395913Y-99384550D01*
X112438165Y-99402051D01*
X112631459Y-99440500D01*
X112631461Y-99440500D01*
X112828539Y-99440500D01*
X112828541Y-99440500D01*
X113021835Y-99402051D01*
X113203914Y-99326632D01*
X113367782Y-99217139D01*
X113507139Y-99077782D01*
X113616632Y-98913914D01*
X113616632Y-98913912D01*
X113617551Y-98912538D01*
X113664643Y-98881072D01*
X113720192Y-98892121D01*
X113743166Y-98916651D01*
X113759536Y-98945006D01*
X113759538Y-98945008D01*
X113759540Y-98945011D01*
X118688840Y-103874311D01*
X118744789Y-103930260D01*
X118813311Y-103969821D01*
X118813312Y-103969821D01*
X118813314Y-103969822D01*
X118851524Y-103980060D01*
X118889735Y-103990299D01*
X118889736Y-103990300D01*
X118889738Y-103990300D01*
X118968862Y-103990300D01*
X120364677Y-103990300D01*
X120417003Y-104011974D01*
X121964816Y-105559787D01*
X121986490Y-105612113D01*
X121980857Y-105640431D01*
X121927950Y-105768160D01*
X121927947Y-105768170D01*
X121889500Y-105961460D01*
X121889500Y-106158539D01*
X121927947Y-106351829D01*
X121927950Y-106351839D01*
X122003367Y-106533913D01*
X122112860Y-106697781D01*
X122252218Y-106837139D01*
X122416086Y-106946632D01*
X122585451Y-107016785D01*
X122598165Y-107022051D01*
X122791459Y-107060500D01*
X122791461Y-107060500D01*
X122988539Y-107060500D01*
X122988541Y-107060500D01*
X123181835Y-107022051D01*
X123363914Y-106946632D01*
X123527782Y-106837139D01*
X123667139Y-106697782D01*
X123776632Y-106533914D01*
X123852051Y-106351835D01*
X123890500Y-106158541D01*
X123890500Y-105961459D01*
X123852051Y-105768165D01*
X123826408Y-105706258D01*
X123776632Y-105586086D01*
X123667139Y-105422218D01*
X123527781Y-105282860D01*
X123363913Y-105173367D01*
X123181839Y-105097950D01*
X123181829Y-105097947D01*
X123052388Y-105072200D01*
X122988541Y-105059500D01*
X122791459Y-105059500D01*
X122736662Y-105070399D01*
X122598170Y-105097947D01*
X122598160Y-105097950D01*
X122470431Y-105150857D01*
X122413794Y-105150857D01*
X122389787Y-105134816D01*
X120704311Y-103449340D01*
X120635790Y-103409779D01*
X120635785Y-103409777D01*
X120559364Y-103389300D01*
X120559362Y-103389300D01*
X119084423Y-103389300D01*
X119032097Y-103367626D01*
X115231297Y-99566826D01*
X115209623Y-99514500D01*
X115231297Y-99462174D01*
X115283623Y-99440500D01*
X115368539Y-99440500D01*
X115368541Y-99440500D01*
X115561835Y-99402051D01*
X115743914Y-99326632D01*
X115907782Y-99217139D01*
X116047139Y-99077782D01*
X116156632Y-98913914D01*
X116232051Y-98731835D01*
X116270500Y-98538541D01*
X116270500Y-98341460D01*
X116809500Y-98341460D01*
X116809500Y-98538539D01*
X116847947Y-98731829D01*
X116847950Y-98731839D01*
X116923367Y-98913913D01*
X117032860Y-99077781D01*
X117172218Y-99217139D01*
X117336086Y-99326632D01*
X117475913Y-99384550D01*
X117518165Y-99402051D01*
X117711459Y-99440500D01*
X117711461Y-99440500D01*
X117908539Y-99440500D01*
X117908541Y-99440500D01*
X118101835Y-99402051D01*
X118283914Y-99326632D01*
X118447782Y-99217139D01*
X118587139Y-99077782D01*
X118696632Y-98913914D01*
X118772051Y-98731835D01*
X118810500Y-98538541D01*
X118810500Y-98341460D01*
X119349500Y-98341460D01*
X119349500Y-98538539D01*
X119387947Y-98731829D01*
X119387950Y-98731839D01*
X119463367Y-98913913D01*
X119572860Y-99077781D01*
X119712218Y-99217139D01*
X119876086Y-99326632D01*
X120015913Y-99384550D01*
X120058165Y-99402051D01*
X120251459Y-99440500D01*
X120251461Y-99440500D01*
X120448539Y-99440500D01*
X120448541Y-99440500D01*
X120641835Y-99402051D01*
X120823914Y-99326632D01*
X120987782Y-99217139D01*
X121127139Y-99077782D01*
X121236632Y-98913914D01*
X121312051Y-98731835D01*
X121350500Y-98538541D01*
X121350500Y-98341459D01*
X121312051Y-98148165D01*
X121236632Y-97966086D01*
X121127139Y-97802218D01*
X120987782Y-97662861D01*
X120924014Y-97620252D01*
X120823913Y-97553367D01*
X120641839Y-97477950D01*
X120641829Y-97477947D01*
X120507023Y-97451133D01*
X120448541Y-97439500D01*
X120251459Y-97439500D01*
X120199879Y-97449760D01*
X120058170Y-97477947D01*
X120058160Y-97477950D01*
X119876086Y-97553367D01*
X119712218Y-97662860D01*
X119712217Y-97662862D01*
X119572862Y-97802217D01*
X119572860Y-97802218D01*
X119463367Y-97966086D01*
X119387950Y-98148160D01*
X119387947Y-98148170D01*
X119349500Y-98341460D01*
X118810500Y-98341460D01*
X118810500Y-98341459D01*
X118772051Y-98148165D01*
X118696632Y-97966086D01*
X118587139Y-97802218D01*
X118447782Y-97662861D01*
X118384014Y-97620252D01*
X118283913Y-97553367D01*
X118101839Y-97477950D01*
X118101829Y-97477947D01*
X117967023Y-97451133D01*
X117908541Y-97439500D01*
X117711459Y-97439500D01*
X117659879Y-97449760D01*
X117518170Y-97477947D01*
X117518160Y-97477950D01*
X117336086Y-97553367D01*
X117172218Y-97662860D01*
X117172217Y-97662862D01*
X117032862Y-97802217D01*
X117032860Y-97802218D01*
X116923367Y-97966086D01*
X116847950Y-98148160D01*
X116847947Y-98148170D01*
X116809500Y-98341460D01*
X116270500Y-98341460D01*
X116270500Y-98341459D01*
X116232051Y-98148165D01*
X116156632Y-97966086D01*
X116047139Y-97802218D01*
X115907782Y-97662861D01*
X115844014Y-97620252D01*
X115743913Y-97553367D01*
X115561839Y-97477950D01*
X115561829Y-97477947D01*
X115427023Y-97451133D01*
X115368541Y-97439500D01*
X115171459Y-97439500D01*
X115119879Y-97449760D01*
X114978170Y-97477947D01*
X114978160Y-97477950D01*
X114796086Y-97553367D01*
X114632218Y-97662860D01*
X114632217Y-97662862D01*
X114492862Y-97802217D01*
X114492860Y-97802218D01*
X114384400Y-97964541D01*
X114337308Y-97996007D01*
X114281759Y-97984958D01*
X114258785Y-97960428D01*
X114240463Y-97928693D01*
X114240461Y-97928691D01*
X114240460Y-97928689D01*
X112475811Y-96164040D01*
X112432627Y-96139108D01*
X112432622Y-96139105D01*
X112407290Y-96124479D01*
X112407285Y-96124477D01*
X112330864Y-96104000D01*
X112330862Y-96104000D01*
X112014623Y-96104000D01*
X111962297Y-96082326D01*
X108876797Y-92996826D01*
X108855123Y-92944500D01*
X108876797Y-92892174D01*
X108929123Y-92870500D01*
X108988539Y-92870500D01*
X108988541Y-92870500D01*
X109181835Y-92832051D01*
X109363914Y-92756632D01*
X109527782Y-92647139D01*
X109667139Y-92507782D01*
X109776632Y-92343914D01*
X109852051Y-92161835D01*
X109890500Y-91968541D01*
X109890500Y-91771460D01*
X110429500Y-91771460D01*
X110429500Y-91968539D01*
X110467947Y-92161829D01*
X110467950Y-92161839D01*
X110543367Y-92343913D01*
X110625686Y-92467111D01*
X110652861Y-92507782D01*
X110792218Y-92647139D01*
X110956086Y-92756632D01*
X111138165Y-92832051D01*
X111331459Y-92870500D01*
X111331461Y-92870500D01*
X111528539Y-92870500D01*
X111528541Y-92870500D01*
X111721835Y-92832051D01*
X111903914Y-92756632D01*
X112067782Y-92647139D01*
X112207139Y-92507782D01*
X112316632Y-92343914D01*
X112392051Y-92161835D01*
X112430500Y-91968541D01*
X112430500Y-91771460D01*
X112969500Y-91771460D01*
X112969500Y-91968539D01*
X113007947Y-92161829D01*
X113007950Y-92161839D01*
X113083367Y-92343913D01*
X113165686Y-92467111D01*
X113192861Y-92507782D01*
X113332218Y-92647139D01*
X113496086Y-92756632D01*
X113678165Y-92832051D01*
X113871459Y-92870500D01*
X113871461Y-92870500D01*
X114068539Y-92870500D01*
X114068541Y-92870500D01*
X114261835Y-92832051D01*
X114443914Y-92756632D01*
X114607782Y-92647139D01*
X114747139Y-92507782D01*
X114856632Y-92343914D01*
X114932051Y-92161835D01*
X114970500Y-91968541D01*
X114970500Y-91771459D01*
X114932051Y-91578165D01*
X114856632Y-91396086D01*
X114747139Y-91232218D01*
X114607782Y-91092861D01*
X114545732Y-91051400D01*
X114443913Y-90983367D01*
X114261839Y-90907950D01*
X114261829Y-90907947D01*
X114132388Y-90882200D01*
X114068541Y-90869500D01*
X113871459Y-90869500D01*
X113816662Y-90880399D01*
X113678170Y-90907947D01*
X113678160Y-90907950D01*
X113496086Y-90983367D01*
X113332218Y-91092860D01*
X113332217Y-91092862D01*
X113192862Y-91232217D01*
X113192860Y-91232218D01*
X113083367Y-91396086D01*
X113007950Y-91578160D01*
X113007947Y-91578170D01*
X112969500Y-91771460D01*
X112430500Y-91771460D01*
X112430500Y-91771459D01*
X112392051Y-91578165D01*
X112316632Y-91396086D01*
X112207139Y-91232218D01*
X112067782Y-91092861D01*
X112005732Y-91051400D01*
X111903913Y-90983367D01*
X111721839Y-90907950D01*
X111721829Y-90907947D01*
X111592388Y-90882200D01*
X111528541Y-90869500D01*
X111331459Y-90869500D01*
X111276662Y-90880399D01*
X111138170Y-90907947D01*
X111138160Y-90907950D01*
X110956086Y-90983367D01*
X110792218Y-91092860D01*
X110792217Y-91092862D01*
X110652862Y-91232217D01*
X110652860Y-91232218D01*
X110543367Y-91396086D01*
X110467950Y-91578160D01*
X110467947Y-91578170D01*
X110429500Y-91771460D01*
X109890500Y-91771460D01*
X109890500Y-91771459D01*
X109852051Y-91578165D01*
X109776632Y-91396086D01*
X109667139Y-91232218D01*
X109527782Y-91092861D01*
X109465732Y-91051400D01*
X109363913Y-90983367D01*
X109181839Y-90907950D01*
X109181829Y-90907947D01*
X109052388Y-90882200D01*
X108988541Y-90869500D01*
X108791459Y-90869500D01*
X108736662Y-90880399D01*
X108598170Y-90907947D01*
X108598160Y-90907950D01*
X108416086Y-90983367D01*
X108252218Y-91092860D01*
X108252217Y-91092862D01*
X108112863Y-91232215D01*
X108005762Y-91392502D01*
X107958669Y-91423967D01*
X107903120Y-91412918D01*
X107880147Y-91388388D01*
X107860460Y-91354289D01*
X107278997Y-90772826D01*
X107257323Y-90720500D01*
X107278997Y-90668174D01*
X107331323Y-90646500D01*
X122450877Y-90646500D01*
X122503203Y-90668174D01*
X123204816Y-91369787D01*
X123226490Y-91422113D01*
X123220857Y-91450431D01*
X123167950Y-91578160D01*
X123167947Y-91578170D01*
X123129500Y-91771460D01*
X123129500Y-91968539D01*
X123167947Y-92161829D01*
X123167950Y-92161839D01*
X123243367Y-92343913D01*
X123325686Y-92467111D01*
X123352861Y-92507782D01*
X123492218Y-92647139D01*
X123656086Y-92756632D01*
X123838165Y-92832051D01*
X124031459Y-92870500D01*
X124031461Y-92870500D01*
X124095276Y-92870500D01*
X124147602Y-92892174D01*
X124169276Y-92944500D01*
X124147602Y-92996826D01*
X122021289Y-95123139D01*
X121968963Y-95144813D01*
X121916638Y-95123139D01*
X121844035Y-95050536D01*
X121842673Y-95049626D01*
X121696544Y-94951985D01*
X121532670Y-94884107D01*
X121532660Y-94884104D01*
X121416156Y-94860930D01*
X121358691Y-94849500D01*
X121181309Y-94849500D01*
X121131989Y-94859310D01*
X121007339Y-94884104D01*
X121007329Y-94884107D01*
X120843455Y-94951985D01*
X120695968Y-95050533D01*
X120570533Y-95175968D01*
X120488612Y-95298572D01*
X120441519Y-95330038D01*
X120385971Y-95318989D01*
X120374757Y-95309786D01*
X117435183Y-92370212D01*
X117413509Y-92317886D01*
X117419142Y-92289567D01*
X117422695Y-92280989D01*
X117472051Y-92161835D01*
X117510500Y-91968541D01*
X117510500Y-91771460D01*
X118049500Y-91771460D01*
X118049500Y-91968539D01*
X118087947Y-92161829D01*
X118087950Y-92161839D01*
X118163367Y-92343913D01*
X118245686Y-92467111D01*
X118272861Y-92507782D01*
X118412218Y-92647139D01*
X118576086Y-92756632D01*
X118758165Y-92832051D01*
X118951459Y-92870500D01*
X118951461Y-92870500D01*
X119148539Y-92870500D01*
X119148541Y-92870500D01*
X119341835Y-92832051D01*
X119523914Y-92756632D01*
X119687782Y-92647139D01*
X119827139Y-92507782D01*
X119936632Y-92343914D01*
X120012051Y-92161835D01*
X120050500Y-91968541D01*
X120050500Y-91771460D01*
X120589500Y-91771460D01*
X120589500Y-91968539D01*
X120627947Y-92161829D01*
X120627950Y-92161839D01*
X120703367Y-92343913D01*
X120785686Y-92467111D01*
X120812861Y-92507782D01*
X120952218Y-92647139D01*
X121116086Y-92756632D01*
X121298165Y-92832051D01*
X121491459Y-92870500D01*
X121491461Y-92870500D01*
X121688539Y-92870500D01*
X121688541Y-92870500D01*
X121881835Y-92832051D01*
X122063914Y-92756632D01*
X122227782Y-92647139D01*
X122367139Y-92507782D01*
X122476632Y-92343914D01*
X122552051Y-92161835D01*
X122590500Y-91968541D01*
X122590500Y-91771459D01*
X122552051Y-91578165D01*
X122476632Y-91396086D01*
X122367139Y-91232218D01*
X122227782Y-91092861D01*
X122165732Y-91051400D01*
X122063913Y-90983367D01*
X121881839Y-90907950D01*
X121881829Y-90907947D01*
X121752388Y-90882200D01*
X121688541Y-90869500D01*
X121491459Y-90869500D01*
X121436662Y-90880399D01*
X121298170Y-90907947D01*
X121298160Y-90907950D01*
X121116086Y-90983367D01*
X120952218Y-91092860D01*
X120952217Y-91092862D01*
X120812862Y-91232217D01*
X120812860Y-91232218D01*
X120703367Y-91396086D01*
X120627950Y-91578160D01*
X120627947Y-91578170D01*
X120589500Y-91771460D01*
X120050500Y-91771460D01*
X120050500Y-91771459D01*
X120012051Y-91578165D01*
X119936632Y-91396086D01*
X119827139Y-91232218D01*
X119687782Y-91092861D01*
X119625732Y-91051400D01*
X119523913Y-90983367D01*
X119341839Y-90907950D01*
X119341829Y-90907947D01*
X119212388Y-90882200D01*
X119148541Y-90869500D01*
X118951459Y-90869500D01*
X118896662Y-90880399D01*
X118758170Y-90907947D01*
X118758160Y-90907950D01*
X118576086Y-90983367D01*
X118412218Y-91092860D01*
X118412217Y-91092862D01*
X118272862Y-91232217D01*
X118272860Y-91232218D01*
X118163367Y-91396086D01*
X118087950Y-91578160D01*
X118087947Y-91578170D01*
X118049500Y-91771460D01*
X117510500Y-91771460D01*
X117510500Y-91771459D01*
X117472051Y-91578165D01*
X117396632Y-91396086D01*
X117287139Y-91232218D01*
X117147782Y-91092861D01*
X117085732Y-91051400D01*
X116983913Y-90983367D01*
X116801839Y-90907950D01*
X116801829Y-90907947D01*
X116672388Y-90882200D01*
X116608541Y-90869500D01*
X116411459Y-90869500D01*
X116356662Y-90880399D01*
X116218170Y-90907947D01*
X116218160Y-90907950D01*
X116036086Y-90983367D01*
X115872218Y-91092860D01*
X115872217Y-91092862D01*
X115732862Y-91232217D01*
X115732860Y-91232218D01*
X115623367Y-91396086D01*
X115547950Y-91578160D01*
X115547947Y-91578170D01*
X115509500Y-91771460D01*
X115509500Y-91968539D01*
X115547947Y-92161829D01*
X115547950Y-92161839D01*
X115623367Y-92343913D01*
X115705686Y-92467111D01*
X115732861Y-92507782D01*
X115872218Y-92647139D01*
X116036086Y-92756632D01*
X116218165Y-92832051D01*
X116411459Y-92870500D01*
X116411461Y-92870500D01*
X116608539Y-92870500D01*
X116608541Y-92870500D01*
X116801835Y-92832051D01*
X116929568Y-92779142D01*
X116986204Y-92779142D01*
X117010212Y-92795183D01*
X118953076Y-94738047D01*
X118974750Y-94790373D01*
X118953076Y-94842699D01*
X118900750Y-94864373D01*
X118886313Y-94862951D01*
X118818691Y-94849500D01*
X118641309Y-94849500D01*
X118591989Y-94859310D01*
X118467339Y-94884104D01*
X118467329Y-94884107D01*
X118303455Y-94951985D01*
X118155968Y-95050533D01*
X118030533Y-95175968D01*
X117931985Y-95323455D01*
X117864107Y-95487329D01*
X117864104Y-95487339D01*
X117835215Y-95632576D01*
X117831388Y-95651820D01*
X117829500Y-95661310D01*
X117829500Y-95838689D01*
X117864104Y-96012660D01*
X117864107Y-96012670D01*
X117931985Y-96176544D01*
X118028500Y-96320989D01*
X118030536Y-96324035D01*
X118155965Y-96449464D01*
X118303453Y-96548013D01*
X118467334Y-96615894D01*
X118641309Y-96650500D01*
X118641311Y-96650500D01*
X118818689Y-96650500D01*
X118818691Y-96650500D01*
X118992666Y-96615894D01*
X119156547Y-96548013D01*
X119304035Y-96449464D01*
X119429464Y-96324035D01*
X119528013Y-96176547D01*
X119595894Y-96012666D01*
X119630500Y-95838691D01*
X119630500Y-95661309D01*
X119617048Y-95593683D01*
X119628097Y-95538137D01*
X119675189Y-95506671D01*
X119730738Y-95517720D01*
X119741952Y-95526923D01*
X119893926Y-95678897D01*
X119915600Y-95731223D01*
X119915600Y-96202764D01*
X119936077Y-96279185D01*
X119936079Y-96279190D01*
X119955110Y-96312152D01*
X119960212Y-96320988D01*
X119975640Y-96347711D01*
X121874785Y-98246856D01*
X121896459Y-98299182D01*
X121895038Y-98313616D01*
X121889500Y-98341459D01*
X121889500Y-98341460D01*
X121889500Y-98341462D01*
X121889500Y-98538539D01*
X121927947Y-98731829D01*
X121927950Y-98731839D01*
X122003367Y-98913913D01*
X122112860Y-99077781D01*
X122252218Y-99217139D01*
X122416086Y-99326632D01*
X122555913Y-99384550D01*
X122598165Y-99402051D01*
X122791459Y-99440500D01*
X122791461Y-99440500D01*
X122988539Y-99440500D01*
X122988541Y-99440500D01*
X123181835Y-99402051D01*
X123363914Y-99326632D01*
X123527782Y-99217139D01*
X123667139Y-99077782D01*
X123776632Y-98913914D01*
X123852051Y-98731835D01*
X123890500Y-98538541D01*
X123890500Y-98341459D01*
X123852051Y-98148165D01*
X123776632Y-97966086D01*
X123667139Y-97802218D01*
X123527782Y-97662861D01*
X123464014Y-97620252D01*
X123363913Y-97553367D01*
X123181839Y-97477950D01*
X123181829Y-97477947D01*
X123047023Y-97451133D01*
X122988541Y-97439500D01*
X122791459Y-97439500D01*
X122739879Y-97449760D01*
X122598170Y-97477947D01*
X122598160Y-97477950D01*
X122416086Y-97553367D01*
X122252218Y-97662860D01*
X122252217Y-97662862D01*
X122248801Y-97666278D01*
X122196475Y-97687952D01*
X122144149Y-97666278D01*
X121254697Y-96776826D01*
X121233023Y-96724500D01*
X121254697Y-96672174D01*
X121307023Y-96650500D01*
X121358689Y-96650500D01*
X121358691Y-96650500D01*
X121532666Y-96615894D01*
X121696547Y-96548013D01*
X121844035Y-96449464D01*
X121969464Y-96324035D01*
X122068013Y-96176547D01*
X122135894Y-96012666D01*
X122169800Y-95842206D01*
X122190050Y-95804320D01*
X125527260Y-92467111D01*
X125539180Y-92446465D01*
X125566821Y-92398589D01*
X125587299Y-92322164D01*
X125587300Y-92322164D01*
X125587300Y-91187136D01*
X125587299Y-91187135D01*
X125566822Y-91110714D01*
X125566820Y-91110709D01*
X125527259Y-91042188D01*
X123182174Y-88697103D01*
X123160500Y-88644777D01*
X123160500Y-74724500D01*
X123182174Y-74672174D01*
X123234500Y-74650500D01*
X123358689Y-74650500D01*
X123358691Y-74650500D01*
X123532666Y-74615894D01*
X123696547Y-74548013D01*
X123844035Y-74449464D01*
X123969464Y-74324035D01*
X124068013Y-74176547D01*
X124135894Y-74012666D01*
X124170500Y-73838691D01*
X124170500Y-73661309D01*
X124135894Y-73487334D01*
X124068013Y-73323453D01*
X123969464Y-73175965D01*
X123844035Y-73050536D01*
X123696547Y-72951987D01*
X123696546Y-72951986D01*
X123696544Y-72951985D01*
X123532670Y-72884107D01*
X123532660Y-72884104D01*
X123416156Y-72860930D01*
X123358691Y-72849500D01*
X123181309Y-72849500D01*
X123131989Y-72859310D01*
X123007339Y-72884104D01*
X123007329Y-72884107D01*
X122843455Y-72951985D01*
X122695968Y-73050533D01*
X122570533Y-73175968D01*
X122471985Y-73323455D01*
X122404107Y-73487329D01*
X122404104Y-73487339D01*
X122369500Y-73661310D01*
X122369500Y-73838689D01*
X122404104Y-74012660D01*
X122404107Y-74012670D01*
X122471985Y-74176544D01*
X122547029Y-74288854D01*
X122559500Y-74329966D01*
X122559500Y-74391800D01*
X122537826Y-74444126D01*
X122485500Y-74465800D01*
X121466350Y-74465800D01*
X121414024Y-74444126D01*
X121392350Y-74391800D01*
X121414023Y-74339475D01*
X121429464Y-74324035D01*
X121528013Y-74176547D01*
X121595894Y-74012666D01*
X121630500Y-73838691D01*
X121630500Y-73661309D01*
X121595894Y-73487334D01*
X121528013Y-73323453D01*
X121429464Y-73175965D01*
X121304035Y-73050536D01*
X121156547Y-72951987D01*
X121156546Y-72951986D01*
X121156544Y-72951985D01*
X120992670Y-72884107D01*
X120992660Y-72884104D01*
X120876156Y-72860930D01*
X120818691Y-72849500D01*
X120641309Y-72849500D01*
X120591989Y-72859310D01*
X120467339Y-72884104D01*
X120467329Y-72884107D01*
X120303455Y-72951985D01*
X120155968Y-73050533D01*
X120030533Y-73175968D01*
X119931985Y-73323455D01*
X119864107Y-73487329D01*
X119864104Y-73487339D01*
X119829500Y-73661310D01*
X119829500Y-73838689D01*
X119864104Y-74012660D01*
X119864107Y-74012670D01*
X119931985Y-74176544D01*
X120019499Y-74307518D01*
X120030536Y-74324035D01*
X120045976Y-74339475D01*
X120067650Y-74391800D01*
X120045976Y-74444126D01*
X119993650Y-74465800D01*
X118441423Y-74465800D01*
X118389097Y-74444126D01*
X118118646Y-74173675D01*
X118096972Y-74121349D01*
X118102603Y-74093036D01*
X118135894Y-74012666D01*
X118170500Y-73838691D01*
X118170500Y-73661309D01*
X118135894Y-73487334D01*
X118068013Y-73323453D01*
X117969464Y-73175965D01*
X117844035Y-73050536D01*
X117696547Y-72951987D01*
X117696546Y-72951986D01*
X117696544Y-72951985D01*
X117532670Y-72884107D01*
X117532660Y-72884104D01*
X117416156Y-72860930D01*
X117358691Y-72849500D01*
X117181309Y-72849500D01*
X117131989Y-72859310D01*
X117007339Y-72884104D01*
X117007329Y-72884107D01*
X116843455Y-72951985D01*
X116695968Y-73050533D01*
X116570533Y-73175968D01*
X116471985Y-73323455D01*
X116404107Y-73487329D01*
X116404104Y-73487339D01*
X116369500Y-73661310D01*
X116369500Y-73838689D01*
X116404104Y-74012660D01*
X116404107Y-74012670D01*
X116471985Y-74176544D01*
X116559499Y-74307518D01*
X116570536Y-74324035D01*
X116695965Y-74449464D01*
X116843453Y-74548013D01*
X116843454Y-74548013D01*
X116843455Y-74548014D01*
X116926966Y-74582605D01*
X117007334Y-74615894D01*
X117181309Y-74650500D01*
X117181311Y-74650500D01*
X117358689Y-74650500D01*
X117358691Y-74650500D01*
X117532666Y-74615894D01*
X117613033Y-74582605D01*
X117669667Y-74582605D01*
X117693675Y-74598646D01*
X118045840Y-74950811D01*
X118101789Y-75006760D01*
X118170311Y-75046321D01*
X118170312Y-75046321D01*
X118170314Y-75046322D01*
X118208524Y-75056560D01*
X118246735Y-75066799D01*
X118246736Y-75066800D01*
X118246738Y-75066800D01*
X122485500Y-75066800D01*
X122537826Y-75088474D01*
X122559500Y-75140800D01*
X122559500Y-76036161D01*
X122537826Y-76088487D01*
X122485500Y-76110161D01*
X122433174Y-76088487D01*
X122423971Y-76077273D01*
X122367139Y-75992218D01*
X122227781Y-75852860D01*
X122063913Y-75743367D01*
X121881839Y-75667950D01*
X121881829Y-75667947D01*
X121752388Y-75642200D01*
X121688541Y-75629500D01*
X121491459Y-75629500D01*
X121436662Y-75640399D01*
X121298170Y-75667947D01*
X121298160Y-75667950D01*
X121116086Y-75743367D01*
X120952218Y-75852860D01*
X120952217Y-75852862D01*
X120812862Y-75992217D01*
X120812860Y-75992218D01*
X120703367Y-76156086D01*
X120627950Y-76338160D01*
X120627947Y-76338170D01*
X120589500Y-76531460D01*
X120589500Y-76728539D01*
X120627947Y-76921829D01*
X120627950Y-76921839D01*
X120703367Y-77103913D01*
X120783499Y-77223838D01*
X120812861Y-77267782D01*
X120952218Y-77407139D01*
X121116086Y-77516632D01*
X121298165Y-77592051D01*
X121491459Y-77630500D01*
X121491461Y-77630500D01*
X121688539Y-77630500D01*
X121688541Y-77630500D01*
X121881835Y-77592051D01*
X122063914Y-77516632D01*
X122227782Y-77407139D01*
X122367139Y-77267782D01*
X122423971Y-77182725D01*
X122471063Y-77151260D01*
X122526612Y-77162309D01*
X122558078Y-77209401D01*
X122559500Y-77223838D01*
X122559500Y-88839464D01*
X122579977Y-88915885D01*
X122579979Y-88915890D01*
X122619540Y-88984411D01*
X124400687Y-90765558D01*
X124422361Y-90817884D01*
X124400687Y-90870210D01*
X124348361Y-90891884D01*
X124333925Y-90890462D01*
X124262579Y-90876270D01*
X124228541Y-90869500D01*
X124031459Y-90869500D01*
X123976662Y-90880399D01*
X123838170Y-90907947D01*
X123838160Y-90907950D01*
X123710431Y-90960857D01*
X123653794Y-90960857D01*
X123629787Y-90944816D01*
X122790511Y-90105540D01*
X122721990Y-90065979D01*
X122721985Y-90065977D01*
X122645564Y-90045500D01*
X122645562Y-90045500D01*
X95134438Y-90045500D01*
X95134436Y-90045500D01*
X95058014Y-90065977D01*
X95058009Y-90065979D01*
X94989488Y-90105540D01*
X94150211Y-90944816D01*
X94097885Y-90966490D01*
X94069567Y-90960857D01*
X93941839Y-90907950D01*
X93941829Y-90907947D01*
X93812388Y-90882200D01*
X93748541Y-90869500D01*
X93551459Y-90869500D01*
X93496662Y-90880399D01*
X93358170Y-90907947D01*
X93358160Y-90907950D01*
X93176086Y-90983367D01*
X93012218Y-91092860D01*
X93012217Y-91092862D01*
X92872862Y-91232217D01*
X92872860Y-91232218D01*
X92763367Y-91396086D01*
X92687950Y-91578160D01*
X92687947Y-91578170D01*
X92649500Y-91771460D01*
X92649500Y-91968539D01*
X92687947Y-92161829D01*
X92687950Y-92161839D01*
X92740857Y-92289567D01*
X92740857Y-92346204D01*
X92724816Y-92370211D01*
X92431603Y-92663426D01*
X92379277Y-92685100D01*
X91888473Y-92685100D01*
X91836147Y-92663426D01*
X91814473Y-92611100D01*
X91836147Y-92558774D01*
X91887138Y-92507783D01*
X91887139Y-92507782D01*
X91996632Y-92343914D01*
X92072051Y-92161835D01*
X92110500Y-91968541D01*
X92110500Y-91771459D01*
X92072051Y-91578165D01*
X91996632Y-91396086D01*
X91887139Y-91232218D01*
X91747782Y-91092861D01*
X91685732Y-91051400D01*
X91583913Y-90983367D01*
X91401839Y-90907950D01*
X91401829Y-90907947D01*
X91272388Y-90882200D01*
X91208541Y-90869500D01*
X91011459Y-90869500D01*
X90956662Y-90880399D01*
X90818170Y-90907947D01*
X90818160Y-90907950D01*
X90636086Y-90983367D01*
X90472218Y-91092860D01*
X90472217Y-91092862D01*
X90332862Y-91232217D01*
X90332860Y-91232218D01*
X90223367Y-91396086D01*
X90147950Y-91578160D01*
X90147947Y-91578170D01*
X90109500Y-91771460D01*
X90109500Y-91968539D01*
X90147947Y-92161829D01*
X90147950Y-92161839D01*
X90223367Y-92343913D01*
X90332860Y-92507781D01*
X90383853Y-92558774D01*
X90405527Y-92611100D01*
X90383853Y-92663426D01*
X90331527Y-92685100D01*
X89348473Y-92685100D01*
X89296147Y-92663426D01*
X89274473Y-92611100D01*
X89296147Y-92558774D01*
X89347138Y-92507783D01*
X89347139Y-92507782D01*
X89456632Y-92343914D01*
X89532051Y-92161835D01*
X89570500Y-91968541D01*
X89570500Y-91771459D01*
X89532051Y-91578165D01*
X89456632Y-91396086D01*
X89347139Y-91232218D01*
X89207782Y-91092861D01*
X89145732Y-91051400D01*
X89043913Y-90983367D01*
X88861839Y-90907950D01*
X88861829Y-90907947D01*
X88732388Y-90882200D01*
X88668541Y-90869500D01*
X88471459Y-90869500D01*
X88416662Y-90880399D01*
X88278170Y-90907947D01*
X88278160Y-90907950D01*
X88096086Y-90983367D01*
X87932218Y-91092860D01*
X87932217Y-91092862D01*
X87792862Y-91232217D01*
X87792860Y-91232218D01*
X87683367Y-91396086D01*
X87607950Y-91578160D01*
X87607947Y-91578170D01*
X87569500Y-91771460D01*
X87569500Y-91968539D01*
X87607947Y-92161829D01*
X87607950Y-92161839D01*
X87683367Y-92343913D01*
X87792860Y-92507781D01*
X87843853Y-92558774D01*
X87865527Y-92611100D01*
X87843853Y-92663426D01*
X87791527Y-92685100D01*
X87300723Y-92685100D01*
X87248397Y-92663426D01*
X86955183Y-92370212D01*
X86933509Y-92317886D01*
X86939142Y-92289567D01*
X86942695Y-92280989D01*
X86992051Y-92161835D01*
X87030500Y-91968541D01*
X87030500Y-91771459D01*
X86992051Y-91578165D01*
X86916632Y-91396086D01*
X86807139Y-91232218D01*
X86667782Y-91092861D01*
X86605732Y-91051400D01*
X86503913Y-90983367D01*
X86321839Y-90907950D01*
X86321829Y-90907947D01*
X86192388Y-90882200D01*
X86128541Y-90869500D01*
X85931459Y-90869500D01*
X85876662Y-90880399D01*
X85738170Y-90907947D01*
X85738160Y-90907950D01*
X85556086Y-90983367D01*
X85392218Y-91092860D01*
X85392217Y-91092862D01*
X85252862Y-91232217D01*
X85252860Y-91232218D01*
X85143367Y-91396086D01*
X85067950Y-91578160D01*
X85067947Y-91578170D01*
X85029500Y-91771460D01*
X85029500Y-91968539D01*
X85067947Y-92161829D01*
X85067950Y-92161839D01*
X85143367Y-92343913D01*
X85225686Y-92467111D01*
X85252861Y-92507782D01*
X85392218Y-92647139D01*
X85556086Y-92756632D01*
X85738165Y-92832051D01*
X85931459Y-92870500D01*
X85931461Y-92870500D01*
X86128539Y-92870500D01*
X86128541Y-92870500D01*
X86321835Y-92832051D01*
X86449568Y-92779142D01*
X86506204Y-92779142D01*
X86530212Y-92795183D01*
X86961089Y-93226060D01*
X87029612Y-93265622D01*
X87106038Y-93286100D01*
X87106040Y-93286100D01*
X92573964Y-93286100D01*
X92573964Y-93286099D01*
X92650389Y-93265621D01*
X92718911Y-93226060D01*
X92774860Y-93170111D01*
X93149787Y-92795182D01*
X93202113Y-92773509D01*
X93230431Y-92779141D01*
X93358165Y-92832051D01*
X93551459Y-92870500D01*
X93551461Y-92870500D01*
X93748539Y-92870500D01*
X93748541Y-92870500D01*
X93941835Y-92832051D01*
X94123914Y-92756632D01*
X94287782Y-92647139D01*
X94427139Y-92507782D01*
X94536632Y-92343914D01*
X94612051Y-92161835D01*
X94650500Y-91968541D01*
X94650500Y-91771460D01*
X95189500Y-91771460D01*
X95189500Y-91968539D01*
X95227947Y-92161829D01*
X95227950Y-92161839D01*
X95303367Y-92343913D01*
X95385686Y-92467111D01*
X95412861Y-92507782D01*
X95552218Y-92647139D01*
X95716086Y-92756632D01*
X95898165Y-92832051D01*
X96091459Y-92870500D01*
X96091461Y-92870500D01*
X96288539Y-92870500D01*
X96288541Y-92870500D01*
X96481835Y-92832051D01*
X96663914Y-92756632D01*
X96827782Y-92647139D01*
X96967139Y-92507782D01*
X97076632Y-92343914D01*
X97152051Y-92161835D01*
X97190500Y-91968541D01*
X97190500Y-91771459D01*
X97152051Y-91578165D01*
X97076632Y-91396086D01*
X96967139Y-91232218D01*
X96827782Y-91092861D01*
X96765732Y-91051400D01*
X96663913Y-90983367D01*
X96481839Y-90907950D01*
X96481829Y-90907947D01*
X96352388Y-90882200D01*
X96288541Y-90869500D01*
X96091459Y-90869500D01*
X96036662Y-90880399D01*
X95898170Y-90907947D01*
X95898160Y-90907950D01*
X95716086Y-90983367D01*
X95552218Y-91092860D01*
X95552217Y-91092862D01*
X95412862Y-91232217D01*
X95412860Y-91232218D01*
X95303367Y-91396086D01*
X95227950Y-91578160D01*
X95227947Y-91578170D01*
X95189500Y-91771460D01*
X94650500Y-91771460D01*
X94650500Y-91771459D01*
X94612051Y-91578165D01*
X94612049Y-91578160D01*
X94559142Y-91450430D01*
X94559142Y-91393793D01*
X94575180Y-91369789D01*
X95276797Y-90668174D01*
X95329123Y-90646500D01*
X99349877Y-90646500D01*
X99402203Y-90668174D01*
X99423877Y-90720500D01*
X99402203Y-90772826D01*
X99230211Y-90944816D01*
X99177885Y-90966490D01*
X99149567Y-90960857D01*
X99021839Y-90907950D01*
X99021829Y-90907947D01*
X98892388Y-90882200D01*
X98828541Y-90869500D01*
X98631459Y-90869500D01*
X98576662Y-90880399D01*
X98438170Y-90907947D01*
X98438160Y-90907950D01*
X98256086Y-90983367D01*
X98092218Y-91092860D01*
X98092217Y-91092862D01*
X97952862Y-91232217D01*
X97952860Y-91232218D01*
X97843367Y-91396086D01*
X97767950Y-91578160D01*
X97767947Y-91578170D01*
X97729500Y-91771460D01*
X97729500Y-91968539D01*
X97767947Y-92161829D01*
X97767950Y-92161839D01*
X97843367Y-92343913D01*
X97925686Y-92467111D01*
X97952861Y-92507782D01*
X98092218Y-92647139D01*
X98256086Y-92756632D01*
X98438165Y-92832051D01*
X98631459Y-92870500D01*
X98631461Y-92870500D01*
X98828539Y-92870500D01*
X98828541Y-92870500D01*
X99021835Y-92832051D01*
X99203914Y-92756632D01*
X99367782Y-92647139D01*
X99507139Y-92507782D01*
X99616632Y-92343914D01*
X99692051Y-92161835D01*
X99730500Y-91968541D01*
X99730500Y-91771459D01*
X99692051Y-91578165D01*
X99639142Y-91450431D01*
X99639142Y-91393794D01*
X99655183Y-91369787D01*
X99951897Y-91073074D01*
X100004223Y-91051400D01*
X100495027Y-91051400D01*
X100547353Y-91073074D01*
X100569027Y-91125400D01*
X100547353Y-91177726D01*
X100492862Y-91232217D01*
X100492860Y-91232218D01*
X100383367Y-91396086D01*
X100307950Y-91578160D01*
X100307947Y-91578170D01*
X100269500Y-91771460D01*
X100269500Y-91968539D01*
X100307947Y-92161829D01*
X100307950Y-92161839D01*
X100383367Y-92343913D01*
X100465686Y-92467111D01*
X100492861Y-92507782D01*
X100632218Y-92647139D01*
X100796086Y-92756632D01*
X100978165Y-92832051D01*
X101171459Y-92870500D01*
X101171461Y-92870500D01*
X101368539Y-92870500D01*
X101368541Y-92870500D01*
X101561835Y-92832051D01*
X101743914Y-92756632D01*
X101907782Y-92647139D01*
X102047139Y-92507782D01*
X102156632Y-92343914D01*
X102232051Y-92161835D01*
X102270500Y-91968541D01*
X102270500Y-91771459D01*
X102232051Y-91578165D01*
X102156632Y-91396086D01*
X102047139Y-91232218D01*
X101992647Y-91177726D01*
X101970973Y-91125400D01*
X101992647Y-91073074D01*
X102044973Y-91051400D01*
X103035027Y-91051400D01*
X103087353Y-91073074D01*
X103109027Y-91125400D01*
X103087353Y-91177726D01*
X103032862Y-91232217D01*
X103032860Y-91232218D01*
X102923367Y-91396086D01*
X102847950Y-91578160D01*
X102847947Y-91578170D01*
X102809500Y-91771460D01*
X102809500Y-91968539D01*
X102847947Y-92161829D01*
X102847950Y-92161839D01*
X102923367Y-92343913D01*
X103005686Y-92467111D01*
X103032861Y-92507782D01*
X103172218Y-92647139D01*
X103336086Y-92756632D01*
X103518165Y-92832051D01*
X103711459Y-92870500D01*
X103711461Y-92870500D01*
X103908539Y-92870500D01*
X103908541Y-92870500D01*
X104101835Y-92832051D01*
X104229568Y-92779142D01*
X104286204Y-92779142D01*
X104310212Y-92795183D01*
X107071340Y-95556311D01*
X107127289Y-95612260D01*
X107195811Y-95651821D01*
X107195812Y-95651821D01*
X107195814Y-95651822D01*
X107231220Y-95661309D01*
X107272235Y-95672299D01*
X107272236Y-95672300D01*
X107272238Y-95672300D01*
X108055734Y-95672300D01*
X108107830Y-95693745D01*
X108107944Y-95693858D01*
X108186386Y-95772300D01*
X108188039Y-95773254D01*
X108192771Y-95777945D01*
X108202047Y-95800066D01*
X108214042Y-95820842D01*
X108212762Y-95825617D01*
X108214674Y-95830176D01*
X108205592Y-95852376D01*
X108199383Y-95875549D01*
X108195101Y-95878020D01*
X108193230Y-95882596D01*
X108171108Y-95891872D01*
X108150333Y-95903867D01*
X108141056Y-95904475D01*
X108140999Y-95904499D01*
X108140956Y-95904481D01*
X108140675Y-95904500D01*
X93526366Y-95904500D01*
X93474040Y-95882826D01*
X93395714Y-95804500D01*
X93281590Y-95738610D01*
X93281581Y-95738606D01*
X93154294Y-95704500D01*
X93154292Y-95704500D01*
X93022508Y-95704500D01*
X93022506Y-95704500D01*
X92895218Y-95738606D01*
X92895209Y-95738610D01*
X92781085Y-95804500D01*
X92687900Y-95897685D01*
X92622010Y-96011809D01*
X92622006Y-96011818D01*
X92587900Y-96139105D01*
X92587900Y-96270894D01*
X92622006Y-96398181D01*
X92622007Y-96398183D01*
X92622008Y-96398186D01*
X92651613Y-96449464D01*
X92660930Y-96465600D01*
X92668323Y-96521752D01*
X92633844Y-96566686D01*
X92596844Y-96576600D01*
X91873336Y-96576600D01*
X91796914Y-96597077D01*
X91796909Y-96597079D01*
X91728388Y-96636640D01*
X90850211Y-97514816D01*
X90797885Y-97536490D01*
X90769567Y-97530857D01*
X90641839Y-97477950D01*
X90641829Y-97477947D01*
X90507023Y-97451133D01*
X90448541Y-97439500D01*
X90251459Y-97439500D01*
X90199879Y-97449760D01*
X90058170Y-97477947D01*
X90058160Y-97477950D01*
X89876086Y-97553367D01*
X89712218Y-97662860D01*
X89712217Y-97662862D01*
X89572862Y-97802217D01*
X89572860Y-97802218D01*
X89463367Y-97966086D01*
X89387950Y-98148160D01*
X89387947Y-98148170D01*
X89349500Y-98341460D01*
X89349500Y-98538539D01*
X89387947Y-98731829D01*
X89387950Y-98731839D01*
X89463367Y-98913913D01*
X89572860Y-99077781D01*
X89712218Y-99217139D01*
X89876086Y-99326632D01*
X90015913Y-99384550D01*
X90058165Y-99402051D01*
X90251459Y-99440500D01*
X90251461Y-99440500D01*
X90448539Y-99440500D01*
X90448541Y-99440500D01*
X90641835Y-99402051D01*
X90823914Y-99326632D01*
X90987782Y-99217139D01*
X91127139Y-99077782D01*
X91236632Y-98913914D01*
X91312051Y-98731835D01*
X91350500Y-98538541D01*
X91350500Y-98341459D01*
X91312051Y-98148165D01*
X91291333Y-98098147D01*
X91259142Y-98020430D01*
X91259142Y-97963793D01*
X91275180Y-97939789D01*
X92015697Y-97199274D01*
X92068023Y-97177600D01*
X100537577Y-97177600D01*
X100589903Y-97199274D01*
X100611577Y-97251600D01*
X100589903Y-97303926D01*
X97311503Y-100582326D01*
X97259177Y-100604000D01*
X93133965Y-100604000D01*
X93081639Y-100582326D01*
X93059965Y-100530000D01*
X93081639Y-100477674D01*
X93096965Y-100465914D01*
X93171814Y-100422700D01*
X93265000Y-100329514D01*
X93330892Y-100215386D01*
X93364999Y-100088094D01*
X93365000Y-100088094D01*
X93365000Y-99956306D01*
X93364999Y-99956305D01*
X93330893Y-99829018D01*
X93330892Y-99829014D01*
X93265000Y-99714886D01*
X93171814Y-99621700D01*
X93150406Y-99609340D01*
X93061697Y-99558123D01*
X93027218Y-99513189D01*
X93034611Y-99457037D01*
X93079545Y-99422558D01*
X93084234Y-99421465D01*
X93181835Y-99402051D01*
X93363914Y-99326632D01*
X93527782Y-99217139D01*
X93667139Y-99077782D01*
X93776632Y-98913914D01*
X93852051Y-98731835D01*
X93890500Y-98538541D01*
X93890500Y-98341459D01*
X93852051Y-98148165D01*
X93776632Y-97966086D01*
X93667139Y-97802218D01*
X93527782Y-97662861D01*
X93464015Y-97620253D01*
X94429500Y-97620253D01*
X94429500Y-99259746D01*
X94441133Y-99318232D01*
X94458023Y-99343509D01*
X94485448Y-99384552D01*
X94529560Y-99414027D01*
X94551767Y-99428866D01*
X94551768Y-99428866D01*
X94551769Y-99428867D01*
X94610252Y-99440500D01*
X94610254Y-99440500D01*
X96249746Y-99440500D01*
X96249748Y-99440500D01*
X96308231Y-99428867D01*
X96374552Y-99384552D01*
X96418867Y-99318231D01*
X96430500Y-99259748D01*
X96430500Y-97620252D01*
X96418867Y-97561769D01*
X96410855Y-97549779D01*
X96398212Y-97530857D01*
X96374552Y-97495448D01*
X96348360Y-97477947D01*
X96308232Y-97451133D01*
X96308233Y-97451133D01*
X96278989Y-97445316D01*
X96249748Y-97439500D01*
X94610252Y-97439500D01*
X94581010Y-97445316D01*
X94551767Y-97451133D01*
X94485449Y-97495447D01*
X94485447Y-97495449D01*
X94441133Y-97561767D01*
X94429500Y-97620253D01*
X93464015Y-97620253D01*
X93464014Y-97620252D01*
X93363913Y-97553367D01*
X93181839Y-97477950D01*
X93181829Y-97477947D01*
X93047023Y-97451133D01*
X92988541Y-97439500D01*
X92791459Y-97439500D01*
X92739879Y-97449760D01*
X92598170Y-97477947D01*
X92598160Y-97477950D01*
X92416086Y-97553367D01*
X92252218Y-97662860D01*
X92252217Y-97662862D01*
X92112862Y-97802217D01*
X92112860Y-97802218D01*
X92003367Y-97966086D01*
X91927950Y-98148160D01*
X91927947Y-98148170D01*
X91889500Y-98341460D01*
X91889500Y-98538539D01*
X91927947Y-98731829D01*
X91927950Y-98731839D01*
X92003367Y-98913913D01*
X92112860Y-99077781D01*
X92252218Y-99217139D01*
X92416086Y-99326632D01*
X92555913Y-99384550D01*
X92598165Y-99402051D01*
X92598169Y-99402051D01*
X92598170Y-99402052D01*
X92659100Y-99414172D01*
X92706192Y-99445638D01*
X92717241Y-99501187D01*
X92685775Y-99548279D01*
X92672982Y-99555117D01*
X92671313Y-99555807D01*
X92557185Y-99621700D01*
X92478860Y-99700026D01*
X92426534Y-99721700D01*
X89547323Y-99721700D01*
X89494997Y-99700026D01*
X88735183Y-98940212D01*
X88713509Y-98887886D01*
X88719142Y-98859567D01*
X88772051Y-98731835D01*
X88810500Y-98538541D01*
X88810500Y-98341459D01*
X88772051Y-98148165D01*
X88696632Y-97966086D01*
X88587139Y-97802218D01*
X88447782Y-97662861D01*
X88384014Y-97620252D01*
X88283913Y-97553367D01*
X88101839Y-97477950D01*
X88101829Y-97477947D01*
X87967023Y-97451133D01*
X87908541Y-97439500D01*
X87711459Y-97439500D01*
X87659879Y-97449760D01*
X87518170Y-97477947D01*
X87518160Y-97477950D01*
X87336086Y-97553367D01*
X87172218Y-97662860D01*
X87172217Y-97662862D01*
X87032862Y-97802217D01*
X87032860Y-97802218D01*
X86923367Y-97966086D01*
X86847950Y-98148160D01*
X86847947Y-98148170D01*
X86809500Y-98341460D01*
X86809500Y-98538539D01*
X86847947Y-98731829D01*
X86847950Y-98731839D01*
X86923367Y-98913913D01*
X87032860Y-99077781D01*
X87172218Y-99217139D01*
X87336086Y-99326632D01*
X87475913Y-99384550D01*
X87518165Y-99402051D01*
X87711459Y-99440500D01*
X87711461Y-99440500D01*
X87908539Y-99440500D01*
X87908541Y-99440500D01*
X88101835Y-99402051D01*
X88229568Y-99349142D01*
X88286204Y-99349142D01*
X88310212Y-99365183D01*
X89207689Y-100262660D01*
X89276212Y-100302222D01*
X89352638Y-100322700D01*
X89431762Y-100322700D01*
X92426534Y-100322700D01*
X92478860Y-100344374D01*
X92557186Y-100422700D01*
X92632035Y-100465914D01*
X92666514Y-100510847D01*
X92659121Y-100567000D01*
X92614188Y-100601479D01*
X92595035Y-100604000D01*
X86232136Y-100604000D01*
X86155714Y-100624477D01*
X86155709Y-100624479D01*
X86087188Y-100664040D01*
X81381440Y-105369788D01*
X81341879Y-105438309D01*
X81341877Y-105438314D01*
X81321400Y-105514735D01*
X81321400Y-105868204D01*
X81299726Y-105920530D01*
X81247400Y-105942204D01*
X81195074Y-105920530D01*
X81174822Y-105882641D01*
X81152052Y-105768170D01*
X81152051Y-105768169D01*
X81152051Y-105768165D01*
X81126408Y-105706258D01*
X81076632Y-105586086D01*
X80967139Y-105422218D01*
X80827781Y-105282860D01*
X80663913Y-105173367D01*
X80481839Y-105097950D01*
X80481829Y-105097947D01*
X80352388Y-105072200D01*
X80288541Y-105059500D01*
X80091459Y-105059500D01*
X80036662Y-105070399D01*
X79898170Y-105097947D01*
X79898160Y-105097950D01*
X79716086Y-105173367D01*
X79552218Y-105282860D01*
X79552217Y-105282862D01*
X79412862Y-105422217D01*
X79412860Y-105422218D01*
X79356029Y-105507273D01*
X79308937Y-105538739D01*
X79253388Y-105527690D01*
X79221922Y-105480598D01*
X79220500Y-105466161D01*
X79220500Y-99865122D01*
X79242173Y-99812797D01*
X79689787Y-99365182D01*
X79742113Y-99343509D01*
X79770431Y-99349141D01*
X79898165Y-99402051D01*
X80091459Y-99440500D01*
X80091461Y-99440500D01*
X80288539Y-99440500D01*
X80288541Y-99440500D01*
X80481835Y-99402051D01*
X80663914Y-99326632D01*
X80827782Y-99217139D01*
X80967139Y-99077782D01*
X81076632Y-98913914D01*
X81152051Y-98731835D01*
X81190500Y-98538541D01*
X81190500Y-98341460D01*
X81729500Y-98341460D01*
X81729500Y-98538539D01*
X81767947Y-98731829D01*
X81767950Y-98731839D01*
X81843367Y-98913913D01*
X81952860Y-99077781D01*
X82092218Y-99217139D01*
X82256086Y-99326632D01*
X82395913Y-99384550D01*
X82438165Y-99402051D01*
X82631459Y-99440500D01*
X82631461Y-99440500D01*
X82828539Y-99440500D01*
X82828541Y-99440500D01*
X83021835Y-99402051D01*
X83203914Y-99326632D01*
X83367782Y-99217139D01*
X83507139Y-99077782D01*
X83616632Y-98913914D01*
X83692051Y-98731835D01*
X83730500Y-98538541D01*
X83730500Y-98341460D01*
X84269500Y-98341460D01*
X84269500Y-98538539D01*
X84307947Y-98731829D01*
X84307950Y-98731839D01*
X84383367Y-98913913D01*
X84492860Y-99077781D01*
X84632218Y-99217139D01*
X84796086Y-99326632D01*
X84935913Y-99384550D01*
X84978165Y-99402051D01*
X85171459Y-99440500D01*
X85171461Y-99440500D01*
X85368539Y-99440500D01*
X85368541Y-99440500D01*
X85561835Y-99402051D01*
X85743914Y-99326632D01*
X85907782Y-99217139D01*
X86047139Y-99077782D01*
X86156632Y-98913914D01*
X86232051Y-98731835D01*
X86270500Y-98538541D01*
X86270500Y-98341459D01*
X86232051Y-98148165D01*
X86156632Y-97966086D01*
X86047139Y-97802218D01*
X85907782Y-97662861D01*
X85844014Y-97620252D01*
X85743913Y-97553367D01*
X85561839Y-97477950D01*
X85561829Y-97477947D01*
X85427023Y-97451133D01*
X85368541Y-97439500D01*
X85171459Y-97439500D01*
X85119879Y-97449760D01*
X84978170Y-97477947D01*
X84978160Y-97477950D01*
X84796086Y-97553367D01*
X84632218Y-97662860D01*
X84632217Y-97662862D01*
X84492862Y-97802217D01*
X84492860Y-97802218D01*
X84383367Y-97966086D01*
X84307950Y-98148160D01*
X84307947Y-98148170D01*
X84269500Y-98341460D01*
X83730500Y-98341460D01*
X83730500Y-98341459D01*
X83692051Y-98148165D01*
X83616632Y-97966086D01*
X83507139Y-97802218D01*
X83367782Y-97662861D01*
X83304014Y-97620252D01*
X83203913Y-97553367D01*
X83021839Y-97477950D01*
X83021829Y-97477947D01*
X82887023Y-97451133D01*
X82828541Y-97439500D01*
X82631459Y-97439500D01*
X82579879Y-97449760D01*
X82438170Y-97477947D01*
X82438160Y-97477950D01*
X82256086Y-97553367D01*
X82092218Y-97662860D01*
X82092217Y-97662862D01*
X81952862Y-97802217D01*
X81952860Y-97802218D01*
X81843367Y-97966086D01*
X81767950Y-98148160D01*
X81767947Y-98148170D01*
X81729500Y-98341460D01*
X81190500Y-98341460D01*
X81190500Y-98341459D01*
X81152051Y-98148165D01*
X81076632Y-97966086D01*
X80967139Y-97802218D01*
X80827782Y-97662861D01*
X80764014Y-97620252D01*
X80663913Y-97553367D01*
X80481839Y-97477950D01*
X80481829Y-97477947D01*
X80347023Y-97451133D01*
X80288541Y-97439500D01*
X80091459Y-97439500D01*
X80039879Y-97449760D01*
X79898170Y-97477947D01*
X79898160Y-97477950D01*
X79716086Y-97553367D01*
X79552218Y-97662860D01*
X79552217Y-97662862D01*
X79412862Y-97802217D01*
X79412860Y-97802218D01*
X79303367Y-97966086D01*
X79227950Y-98148160D01*
X79227947Y-98148170D01*
X79189500Y-98341460D01*
X79189500Y-98538539D01*
X79227947Y-98731829D01*
X79227950Y-98731839D01*
X79280857Y-98859567D01*
X79280857Y-98916204D01*
X79264816Y-98940211D01*
X78735489Y-99469540D01*
X78679540Y-99525488D01*
X78639979Y-99594009D01*
X78639977Y-99594014D01*
X78619500Y-99670435D01*
X78619500Y-105466161D01*
X78597826Y-105518487D01*
X78545500Y-105540161D01*
X78493174Y-105518487D01*
X78483971Y-105507273D01*
X78427139Y-105422218D01*
X78287781Y-105282860D01*
X78123913Y-105173367D01*
X77941839Y-105097950D01*
X77941829Y-105097947D01*
X77812388Y-105072200D01*
X77748541Y-105059500D01*
X77551459Y-105059500D01*
X77496662Y-105070399D01*
X77358170Y-105097947D01*
X77358160Y-105097950D01*
X77176086Y-105173367D01*
X77012218Y-105282860D01*
X77012217Y-105282862D01*
X76872862Y-105422217D01*
X76872860Y-105422218D01*
X76763367Y-105586086D01*
X76687950Y-105768160D01*
X76687947Y-105768170D01*
X76649500Y-105961460D01*
X76649500Y-106158539D01*
X76687947Y-106351829D01*
X76687950Y-106351839D01*
X76763367Y-106533913D01*
X76872860Y-106697781D01*
X77012218Y-106837139D01*
X77176086Y-106946632D01*
X77345451Y-107016785D01*
X77358165Y-107022051D01*
X77551459Y-107060500D01*
X77551461Y-107060500D01*
X77748539Y-107060500D01*
X77748541Y-107060500D01*
X77941835Y-107022051D01*
X78123914Y-106946632D01*
X78287782Y-106837139D01*
X78427139Y-106697782D01*
X78483971Y-106612725D01*
X78531063Y-106581260D01*
X78586612Y-106592309D01*
X78618078Y-106639401D01*
X78619500Y-106653838D01*
X78619500Y-132023177D01*
X78597826Y-132075503D01*
X78169540Y-132503788D01*
X78129979Y-132572309D01*
X78129977Y-132572314D01*
X78109500Y-132648735D01*
X78109500Y-132715500D01*
X78087826Y-132767826D01*
X78035500Y-132789500D01*
X77390246Y-132789500D01*
X77388783Y-132789644D01*
X77381536Y-132790000D01*
X77210000Y-132790000D01*
X77210000Y-132961536D01*
X77209644Y-132968783D01*
X77209500Y-132970246D01*
X77209500Y-139726000D01*
X77187826Y-139778326D01*
X77135500Y-139800000D01*
X76474000Y-139800000D01*
X76421674Y-139778326D01*
X76400000Y-139726000D01*
X76400000Y-116250001D01*
X76400000Y-116250000D01*
X76396157Y-116210982D01*
X76384776Y-116173463D01*
X76366294Y-116138886D01*
X76341421Y-116108579D01*
X76311114Y-116083706D01*
X76276537Y-116065224D01*
X76250400Y-116057295D01*
X76239019Y-116053843D01*
X76219509Y-116051921D01*
X76200000Y-116050000D01*
X76199999Y-116050000D01*
X68613494Y-116050000D01*
X68561168Y-116028326D01*
X68221674Y-115688832D01*
X68200000Y-115636506D01*
X68200000Y-105961460D01*
X71569500Y-105961460D01*
X71569500Y-106158539D01*
X71607947Y-106351829D01*
X71607950Y-106351839D01*
X71683367Y-106533913D01*
X71792860Y-106697781D01*
X71932218Y-106837139D01*
X72096086Y-106946632D01*
X72265451Y-107016785D01*
X72278165Y-107022051D01*
X72471459Y-107060500D01*
X72471461Y-107060500D01*
X72668539Y-107060500D01*
X72668541Y-107060500D01*
X72861835Y-107022051D01*
X73043914Y-106946632D01*
X73207782Y-106837139D01*
X73347139Y-106697782D01*
X73456632Y-106533914D01*
X73532051Y-106351835D01*
X73570500Y-106158541D01*
X73570500Y-105961460D01*
X74109500Y-105961460D01*
X74109500Y-106158539D01*
X74147947Y-106351829D01*
X74147950Y-106351839D01*
X74223367Y-106533913D01*
X74332860Y-106697781D01*
X74472218Y-106837139D01*
X74636086Y-106946632D01*
X74805451Y-107016785D01*
X74818165Y-107022051D01*
X75011459Y-107060500D01*
X75011461Y-107060500D01*
X75208539Y-107060500D01*
X75208541Y-107060500D01*
X75401835Y-107022051D01*
X75583914Y-106946632D01*
X75747782Y-106837139D01*
X75887139Y-106697782D01*
X75996632Y-106533914D01*
X76072051Y-106351835D01*
X76110500Y-106158541D01*
X76110500Y-105961459D01*
X76072051Y-105768165D01*
X76046408Y-105706258D01*
X75996632Y-105586086D01*
X75887139Y-105422218D01*
X75747781Y-105282860D01*
X75583913Y-105173367D01*
X75401839Y-105097950D01*
X75401829Y-105097947D01*
X75272388Y-105072200D01*
X75208541Y-105059500D01*
X75011459Y-105059500D01*
X74956662Y-105070399D01*
X74818170Y-105097947D01*
X74818160Y-105097950D01*
X74636086Y-105173367D01*
X74472218Y-105282860D01*
X74472217Y-105282862D01*
X74332862Y-105422217D01*
X74332860Y-105422218D01*
X74223367Y-105586086D01*
X74147950Y-105768160D01*
X74147947Y-105768170D01*
X74109500Y-105961460D01*
X73570500Y-105961460D01*
X73570500Y-105961459D01*
X73532051Y-105768165D01*
X73506408Y-105706258D01*
X73456632Y-105586086D01*
X73347139Y-105422218D01*
X73207781Y-105282860D01*
X73043913Y-105173367D01*
X72861839Y-105097950D01*
X72861829Y-105097947D01*
X72732388Y-105072200D01*
X72668541Y-105059500D01*
X72471459Y-105059500D01*
X72416662Y-105070399D01*
X72278170Y-105097947D01*
X72278160Y-105097950D01*
X72096086Y-105173367D01*
X71932218Y-105282860D01*
X71932217Y-105282862D01*
X71792862Y-105422217D01*
X71792860Y-105422218D01*
X71683367Y-105586086D01*
X71607950Y-105768160D01*
X71607947Y-105768170D01*
X71569500Y-105961460D01*
X68200000Y-105961460D01*
X68200000Y-98341460D01*
X74109500Y-98341460D01*
X74109500Y-98538539D01*
X74147947Y-98731829D01*
X74147950Y-98731839D01*
X74223367Y-98913913D01*
X74332860Y-99077781D01*
X74472218Y-99217139D01*
X74636086Y-99326632D01*
X74775913Y-99384550D01*
X74818165Y-99402051D01*
X75011459Y-99440500D01*
X75011461Y-99440500D01*
X75208539Y-99440500D01*
X75208541Y-99440500D01*
X75401835Y-99402051D01*
X75583914Y-99326632D01*
X75747782Y-99217139D01*
X75887139Y-99077782D01*
X75996632Y-98913914D01*
X76072051Y-98731835D01*
X76110500Y-98538541D01*
X76110500Y-98341460D01*
X76649500Y-98341460D01*
X76649500Y-98538539D01*
X76687947Y-98731829D01*
X76687950Y-98731839D01*
X76763367Y-98913913D01*
X76872860Y-99077781D01*
X77012218Y-99217139D01*
X77176086Y-99326632D01*
X77315913Y-99384550D01*
X77358165Y-99402051D01*
X77551459Y-99440500D01*
X77551461Y-99440500D01*
X77748539Y-99440500D01*
X77748541Y-99440500D01*
X77941835Y-99402051D01*
X78123914Y-99326632D01*
X78287782Y-99217139D01*
X78427139Y-99077782D01*
X78536632Y-98913914D01*
X78612051Y-98731835D01*
X78650500Y-98538541D01*
X78650500Y-98341459D01*
X78612051Y-98148165D01*
X78536632Y-97966086D01*
X78427139Y-97802218D01*
X78287782Y-97662861D01*
X78224014Y-97620252D01*
X78123913Y-97553367D01*
X77941839Y-97477950D01*
X77941829Y-97477947D01*
X77807023Y-97451133D01*
X77748541Y-97439500D01*
X77551459Y-97439500D01*
X77499879Y-97449760D01*
X77358170Y-97477947D01*
X77358160Y-97477950D01*
X77176086Y-97553367D01*
X77012218Y-97662860D01*
X77012217Y-97662862D01*
X76872862Y-97802217D01*
X76872860Y-97802218D01*
X76763367Y-97966086D01*
X76687950Y-98148160D01*
X76687947Y-98148170D01*
X76649500Y-98341460D01*
X76110500Y-98341460D01*
X76110500Y-98341459D01*
X76072051Y-98148165D01*
X75996632Y-97966086D01*
X75887139Y-97802218D01*
X75747782Y-97662861D01*
X75684014Y-97620252D01*
X75583913Y-97553367D01*
X75401839Y-97477950D01*
X75401829Y-97477947D01*
X75267023Y-97451133D01*
X75208541Y-97439500D01*
X75011459Y-97439500D01*
X74959879Y-97449760D01*
X74818170Y-97477947D01*
X74818160Y-97477950D01*
X74636086Y-97553367D01*
X74472218Y-97662860D01*
X74472217Y-97662862D01*
X74332862Y-97802217D01*
X74332860Y-97802218D01*
X74223367Y-97966086D01*
X74147950Y-98148160D01*
X74147947Y-98148170D01*
X74109500Y-98341460D01*
X68200000Y-98341460D01*
X68200000Y-95661310D01*
X77829500Y-95661310D01*
X77829500Y-95838689D01*
X77864104Y-96012660D01*
X77864107Y-96012670D01*
X77931985Y-96176544D01*
X78028500Y-96320989D01*
X78030536Y-96324035D01*
X78155965Y-96449464D01*
X78303453Y-96548013D01*
X78467334Y-96615894D01*
X78641309Y-96650500D01*
X78641311Y-96650500D01*
X78818689Y-96650500D01*
X78818691Y-96650500D01*
X78992666Y-96615894D01*
X79156547Y-96548013D01*
X79304035Y-96449464D01*
X79429464Y-96324035D01*
X79528013Y-96176547D01*
X79595894Y-96012666D01*
X79630500Y-95838691D01*
X79630500Y-95661310D01*
X83829500Y-95661310D01*
X83829500Y-95838689D01*
X83864104Y-96012660D01*
X83864107Y-96012670D01*
X83931985Y-96176544D01*
X84028500Y-96320989D01*
X84030536Y-96324035D01*
X84155965Y-96449464D01*
X84303453Y-96548013D01*
X84467334Y-96615894D01*
X84641309Y-96650500D01*
X84641311Y-96650500D01*
X84818689Y-96650500D01*
X84818691Y-96650500D01*
X84992666Y-96615894D01*
X85156547Y-96548013D01*
X85304035Y-96449464D01*
X85429464Y-96324035D01*
X85528013Y-96176547D01*
X85595894Y-96012666D01*
X85630500Y-95838691D01*
X85630500Y-95661309D01*
X85595894Y-95487334D01*
X85528013Y-95323453D01*
X85429464Y-95175965D01*
X85304035Y-95050536D01*
X85302673Y-95049626D01*
X85156544Y-94951985D01*
X84992670Y-94884107D01*
X84992660Y-94884104D01*
X84876156Y-94860930D01*
X84818691Y-94849500D01*
X84641309Y-94849500D01*
X84591989Y-94859310D01*
X84467339Y-94884104D01*
X84467329Y-94884107D01*
X84303455Y-94951985D01*
X84155968Y-95050533D01*
X84030533Y-95175968D01*
X83931985Y-95323455D01*
X83864107Y-95487329D01*
X83864104Y-95487339D01*
X83835215Y-95632576D01*
X83831388Y-95651820D01*
X83829500Y-95661310D01*
X79630500Y-95661310D01*
X79630500Y-95661309D01*
X79595894Y-95487334D01*
X79528013Y-95323453D01*
X79429464Y-95175965D01*
X79304035Y-95050536D01*
X79302673Y-95049626D01*
X79156544Y-94951985D01*
X78992670Y-94884107D01*
X78992660Y-94884104D01*
X78876156Y-94860930D01*
X78818691Y-94849500D01*
X78641309Y-94849500D01*
X78591989Y-94859310D01*
X78467339Y-94884104D01*
X78467329Y-94884107D01*
X78303455Y-94951985D01*
X78155968Y-95050533D01*
X78030533Y-95175968D01*
X77931985Y-95323455D01*
X77864107Y-95487329D01*
X77864104Y-95487339D01*
X77835215Y-95632576D01*
X77831388Y-95651820D01*
X77829500Y-95661310D01*
X68200000Y-95661310D01*
X68200000Y-91771460D01*
X74869500Y-91771460D01*
X74869500Y-91968539D01*
X74907947Y-92161829D01*
X74907950Y-92161839D01*
X74983367Y-92343913D01*
X75065686Y-92467111D01*
X75092861Y-92507782D01*
X75232218Y-92647139D01*
X75396086Y-92756632D01*
X75578165Y-92832051D01*
X75771459Y-92870500D01*
X75771461Y-92870500D01*
X75968539Y-92870500D01*
X75968541Y-92870500D01*
X76161835Y-92832051D01*
X76343914Y-92756632D01*
X76507782Y-92647139D01*
X76647139Y-92507782D01*
X76756632Y-92343914D01*
X76832051Y-92161835D01*
X76870500Y-91968541D01*
X76870500Y-91771460D01*
X77409500Y-91771460D01*
X77409500Y-91968539D01*
X77447947Y-92161829D01*
X77447950Y-92161839D01*
X77523367Y-92343913D01*
X77605686Y-92467111D01*
X77632861Y-92507782D01*
X77772218Y-92647139D01*
X77936086Y-92756632D01*
X78118165Y-92832051D01*
X78311459Y-92870500D01*
X78311461Y-92870500D01*
X78508539Y-92870500D01*
X78508541Y-92870500D01*
X78701835Y-92832051D01*
X78883914Y-92756632D01*
X79047782Y-92647139D01*
X79187139Y-92507782D01*
X79296632Y-92343914D01*
X79372051Y-92161835D01*
X79410500Y-91968541D01*
X79410500Y-91771460D01*
X79949500Y-91771460D01*
X79949500Y-91968539D01*
X79987947Y-92161829D01*
X79987950Y-92161839D01*
X80063367Y-92343913D01*
X80145686Y-92467111D01*
X80172861Y-92507782D01*
X80312218Y-92647139D01*
X80476086Y-92756632D01*
X80658165Y-92832051D01*
X80851459Y-92870500D01*
X80851461Y-92870500D01*
X81048539Y-92870500D01*
X81048541Y-92870500D01*
X81241835Y-92832051D01*
X81369568Y-92779142D01*
X81426204Y-92779142D01*
X81450212Y-92795183D01*
X82225340Y-93570311D01*
X82281289Y-93626260D01*
X82349811Y-93665821D01*
X82349812Y-93665821D01*
X82349814Y-93665822D01*
X82388024Y-93676060D01*
X82426235Y-93686299D01*
X82426236Y-93686300D01*
X82426238Y-93686300D01*
X84750677Y-93686300D01*
X84803003Y-93707974D01*
X86421352Y-95326323D01*
X86443026Y-95378649D01*
X86437394Y-95406966D01*
X86404105Y-95487337D01*
X86404104Y-95487339D01*
X86375215Y-95632576D01*
X86371388Y-95651820D01*
X86369500Y-95661310D01*
X86369500Y-95838689D01*
X86404104Y-96012660D01*
X86404107Y-96012670D01*
X86471985Y-96176544D01*
X86568500Y-96320989D01*
X86570536Y-96324035D01*
X86695965Y-96449464D01*
X86843453Y-96548013D01*
X87007334Y-96615894D01*
X87181309Y-96650500D01*
X87181311Y-96650500D01*
X87358689Y-96650500D01*
X87358691Y-96650500D01*
X87532666Y-96615894D01*
X87696547Y-96548013D01*
X87844035Y-96449464D01*
X87969464Y-96324035D01*
X88068013Y-96176547D01*
X88135894Y-96012666D01*
X88170500Y-95838691D01*
X88170500Y-95661309D01*
X88135894Y-95487334D01*
X88068013Y-95323453D01*
X87969464Y-95175965D01*
X87844035Y-95050536D01*
X87842673Y-95049626D01*
X87696544Y-94951985D01*
X87532670Y-94884107D01*
X87532660Y-94884104D01*
X87416156Y-94860930D01*
X87358691Y-94849500D01*
X87181309Y-94849500D01*
X87131989Y-94859310D01*
X87007339Y-94884104D01*
X87007337Y-94884105D01*
X87007335Y-94884105D01*
X87007334Y-94884106D01*
X87007332Y-94884107D01*
X86926966Y-94917394D01*
X86870329Y-94917392D01*
X86846323Y-94901352D01*
X85090311Y-93145340D01*
X85021790Y-93105779D01*
X85021785Y-93105777D01*
X84945364Y-93085300D01*
X84945362Y-93085300D01*
X82620923Y-93085300D01*
X82568597Y-93063626D01*
X81875183Y-92370212D01*
X81853509Y-92317886D01*
X81859142Y-92289567D01*
X81862695Y-92280989D01*
X81912051Y-92161835D01*
X81950500Y-91968541D01*
X81950500Y-91771459D01*
X81912051Y-91578165D01*
X81836632Y-91396086D01*
X81727139Y-91232218D01*
X81587782Y-91092861D01*
X81525732Y-91051400D01*
X81423913Y-90983367D01*
X81241839Y-90907950D01*
X81241829Y-90907947D01*
X81112388Y-90882200D01*
X81048541Y-90869500D01*
X80851459Y-90869500D01*
X80796662Y-90880399D01*
X80658170Y-90907947D01*
X80658160Y-90907950D01*
X80476086Y-90983367D01*
X80312218Y-91092860D01*
X80312217Y-91092862D01*
X80172862Y-91232217D01*
X80172860Y-91232218D01*
X80063367Y-91396086D01*
X79987950Y-91578160D01*
X79987947Y-91578170D01*
X79949500Y-91771460D01*
X79410500Y-91771460D01*
X79410500Y-91771459D01*
X79372051Y-91578165D01*
X79296632Y-91396086D01*
X79187139Y-91232218D01*
X79047782Y-91092861D01*
X78985732Y-91051400D01*
X78883913Y-90983367D01*
X78701839Y-90907950D01*
X78701829Y-90907947D01*
X78572388Y-90882200D01*
X78508541Y-90869500D01*
X78311459Y-90869500D01*
X78256662Y-90880399D01*
X78118170Y-90907947D01*
X78118160Y-90907950D01*
X77936086Y-90983367D01*
X77772218Y-91092860D01*
X77772217Y-91092862D01*
X77632862Y-91232217D01*
X77632860Y-91232218D01*
X77523367Y-91396086D01*
X77447950Y-91578160D01*
X77447947Y-91578170D01*
X77409500Y-91771460D01*
X76870500Y-91771460D01*
X76870500Y-91771459D01*
X76832051Y-91578165D01*
X76756632Y-91396086D01*
X76647139Y-91232218D01*
X76507782Y-91092861D01*
X76445732Y-91051400D01*
X76343913Y-90983367D01*
X76161839Y-90907950D01*
X76161829Y-90907947D01*
X76032388Y-90882200D01*
X75968541Y-90869500D01*
X75771459Y-90869500D01*
X75716662Y-90880399D01*
X75578170Y-90907947D01*
X75578160Y-90907950D01*
X75396086Y-90983367D01*
X75232218Y-91092860D01*
X75232217Y-91092862D01*
X75092862Y-91232217D01*
X75092860Y-91232218D01*
X74983367Y-91396086D01*
X74907950Y-91578160D01*
X74907947Y-91578170D01*
X74869500Y-91771460D01*
X68200000Y-91771460D01*
X68200000Y-76531460D01*
X74869500Y-76531460D01*
X74869500Y-76728539D01*
X74907947Y-76921829D01*
X74907950Y-76921839D01*
X74983367Y-77103913D01*
X75063499Y-77223838D01*
X75092861Y-77267782D01*
X75232218Y-77407139D01*
X75396086Y-77516632D01*
X75578165Y-77592051D01*
X75771459Y-77630500D01*
X75771461Y-77630500D01*
X75968539Y-77630500D01*
X75968541Y-77630500D01*
X76161835Y-77592051D01*
X76343914Y-77516632D01*
X76507782Y-77407139D01*
X76647139Y-77267782D01*
X76756632Y-77103914D01*
X76832051Y-76921835D01*
X76870500Y-76728541D01*
X76870500Y-76531460D01*
X77409500Y-76531460D01*
X77409500Y-76728539D01*
X77447947Y-76921829D01*
X77447950Y-76921839D01*
X77523367Y-77103913D01*
X77603499Y-77223838D01*
X77632861Y-77267782D01*
X77772218Y-77407139D01*
X77936086Y-77516632D01*
X78118165Y-77592051D01*
X78311459Y-77630500D01*
X78311461Y-77630500D01*
X78508539Y-77630500D01*
X78508541Y-77630500D01*
X78701835Y-77592051D01*
X78883914Y-77516632D01*
X79047782Y-77407139D01*
X79187139Y-77267782D01*
X79296632Y-77103914D01*
X79372051Y-76921835D01*
X79410500Y-76728541D01*
X79410500Y-76531460D01*
X79949500Y-76531460D01*
X79949500Y-76728539D01*
X79987947Y-76921829D01*
X79987950Y-76921839D01*
X80063367Y-77103913D01*
X80143499Y-77223838D01*
X80172861Y-77267782D01*
X80312218Y-77407139D01*
X80476086Y-77516632D01*
X80658165Y-77592051D01*
X80851459Y-77630500D01*
X80851461Y-77630500D01*
X81048539Y-77630500D01*
X81048541Y-77630500D01*
X81241835Y-77592051D01*
X81423914Y-77516632D01*
X81587782Y-77407139D01*
X81727139Y-77267782D01*
X81836632Y-77103914D01*
X81912051Y-76921835D01*
X81950500Y-76728541D01*
X81950500Y-76531460D01*
X82489500Y-76531460D01*
X82489500Y-76728539D01*
X82527947Y-76921829D01*
X82527950Y-76921839D01*
X82603367Y-77103913D01*
X82683499Y-77223838D01*
X82712861Y-77267782D01*
X82852218Y-77407139D01*
X83016086Y-77516632D01*
X83198165Y-77592051D01*
X83391459Y-77630500D01*
X83391461Y-77630500D01*
X83588539Y-77630500D01*
X83588541Y-77630500D01*
X83781835Y-77592051D01*
X83963914Y-77516632D01*
X84127782Y-77407139D01*
X84267139Y-77267782D01*
X84376632Y-77103914D01*
X84452051Y-76921835D01*
X84490500Y-76728541D01*
X84490500Y-76531460D01*
X85029500Y-76531460D01*
X85029500Y-76728539D01*
X85067947Y-76921829D01*
X85067950Y-76921839D01*
X85143367Y-77103913D01*
X85223499Y-77223838D01*
X85252861Y-77267782D01*
X85392218Y-77407139D01*
X85556086Y-77516632D01*
X85738165Y-77592051D01*
X85931459Y-77630500D01*
X85931461Y-77630500D01*
X86128539Y-77630500D01*
X86128541Y-77630500D01*
X86321835Y-77592051D01*
X86503914Y-77516632D01*
X86667782Y-77407139D01*
X86807139Y-77267782D01*
X86916632Y-77103914D01*
X86992051Y-76921835D01*
X87030500Y-76728541D01*
X87030500Y-76531460D01*
X87569500Y-76531460D01*
X87569500Y-76728539D01*
X87607947Y-76921829D01*
X87607950Y-76921839D01*
X87683367Y-77103913D01*
X87763499Y-77223838D01*
X87792861Y-77267782D01*
X87932218Y-77407139D01*
X88096086Y-77516632D01*
X88278165Y-77592051D01*
X88471459Y-77630500D01*
X88471461Y-77630500D01*
X88668539Y-77630500D01*
X88668541Y-77630500D01*
X88861835Y-77592051D01*
X89043914Y-77516632D01*
X89207782Y-77407139D01*
X89347139Y-77267782D01*
X89456632Y-77103914D01*
X89532051Y-76921835D01*
X89570500Y-76728541D01*
X89570500Y-76531460D01*
X90109500Y-76531460D01*
X90109500Y-76728539D01*
X90147947Y-76921829D01*
X90147950Y-76921839D01*
X90223367Y-77103913D01*
X90303499Y-77223838D01*
X90332861Y-77267782D01*
X90472218Y-77407139D01*
X90636086Y-77516632D01*
X90818165Y-77592051D01*
X91011459Y-77630500D01*
X91011461Y-77630500D01*
X91208539Y-77630500D01*
X91208541Y-77630500D01*
X91401835Y-77592051D01*
X91583914Y-77516632D01*
X91747782Y-77407139D01*
X91887139Y-77267782D01*
X91996632Y-77103914D01*
X92072051Y-76921835D01*
X92110500Y-76728541D01*
X92110500Y-76531460D01*
X92649500Y-76531460D01*
X92649500Y-76728539D01*
X92687947Y-76921829D01*
X92687950Y-76921839D01*
X92763367Y-77103913D01*
X92843499Y-77223838D01*
X92872861Y-77267782D01*
X93012218Y-77407139D01*
X93176086Y-77516632D01*
X93358165Y-77592051D01*
X93551459Y-77630500D01*
X93551461Y-77630500D01*
X93748539Y-77630500D01*
X93748541Y-77630500D01*
X93941835Y-77592051D01*
X94123914Y-77516632D01*
X94287782Y-77407139D01*
X94427139Y-77267782D01*
X94536632Y-77103914D01*
X94612051Y-76921835D01*
X94650500Y-76728541D01*
X94650500Y-76531460D01*
X95189500Y-76531460D01*
X95189500Y-76728539D01*
X95227947Y-76921829D01*
X95227950Y-76921839D01*
X95303367Y-77103913D01*
X95383499Y-77223838D01*
X95412861Y-77267782D01*
X95552218Y-77407139D01*
X95716086Y-77516632D01*
X95898165Y-77592051D01*
X96091459Y-77630500D01*
X96091461Y-77630500D01*
X96288539Y-77630500D01*
X96288541Y-77630500D01*
X96481835Y-77592051D01*
X96663914Y-77516632D01*
X96827782Y-77407139D01*
X96967139Y-77267782D01*
X97076632Y-77103914D01*
X97152051Y-76921835D01*
X97190500Y-76728541D01*
X97190500Y-76531460D01*
X97729500Y-76531460D01*
X97729500Y-76728539D01*
X97767947Y-76921829D01*
X97767950Y-76921839D01*
X97843367Y-77103913D01*
X97923499Y-77223838D01*
X97952861Y-77267782D01*
X98092218Y-77407139D01*
X98256086Y-77516632D01*
X98438165Y-77592051D01*
X98631459Y-77630500D01*
X98631461Y-77630500D01*
X98828539Y-77630500D01*
X98828541Y-77630500D01*
X99021835Y-77592051D01*
X99203914Y-77516632D01*
X99367782Y-77407139D01*
X99507139Y-77267782D01*
X99616632Y-77103914D01*
X99692051Y-76921835D01*
X99730500Y-76728541D01*
X99730500Y-76531460D01*
X100269500Y-76531460D01*
X100269500Y-76728539D01*
X100307947Y-76921829D01*
X100307950Y-76921839D01*
X100383367Y-77103913D01*
X100463499Y-77223838D01*
X100492861Y-77267782D01*
X100632218Y-77407139D01*
X100796086Y-77516632D01*
X100978165Y-77592051D01*
X101171459Y-77630500D01*
X101171461Y-77630500D01*
X101368539Y-77630500D01*
X101368541Y-77630500D01*
X101561835Y-77592051D01*
X101743914Y-77516632D01*
X101907782Y-77407139D01*
X102047139Y-77267782D01*
X102156632Y-77103914D01*
X102232051Y-76921835D01*
X102270500Y-76728541D01*
X102270500Y-76531460D01*
X102809500Y-76531460D01*
X102809500Y-76728539D01*
X102847947Y-76921829D01*
X102847950Y-76921839D01*
X102923367Y-77103913D01*
X103003499Y-77223838D01*
X103032861Y-77267782D01*
X103172218Y-77407139D01*
X103336086Y-77516632D01*
X103518165Y-77592051D01*
X103711459Y-77630500D01*
X103711461Y-77630500D01*
X103908539Y-77630500D01*
X103908541Y-77630500D01*
X104101835Y-77592051D01*
X104283914Y-77516632D01*
X104447782Y-77407139D01*
X104587139Y-77267782D01*
X104696632Y-77103914D01*
X104772051Y-76921835D01*
X104810500Y-76728541D01*
X104810500Y-76531460D01*
X105349500Y-76531460D01*
X105349500Y-76728539D01*
X105387947Y-76921829D01*
X105387950Y-76921839D01*
X105463367Y-77103913D01*
X105543499Y-77223838D01*
X105572861Y-77267782D01*
X105712218Y-77407139D01*
X105876086Y-77516632D01*
X106058165Y-77592051D01*
X106251459Y-77630500D01*
X106251461Y-77630500D01*
X106448539Y-77630500D01*
X106448541Y-77630500D01*
X106641835Y-77592051D01*
X106823914Y-77516632D01*
X106987782Y-77407139D01*
X107127139Y-77267782D01*
X107236632Y-77103914D01*
X107312051Y-76921835D01*
X107350500Y-76728541D01*
X107350500Y-76531460D01*
X107889500Y-76531460D01*
X107889500Y-76728539D01*
X107927947Y-76921829D01*
X107927950Y-76921839D01*
X108003367Y-77103913D01*
X108083499Y-77223838D01*
X108112861Y-77267782D01*
X108252218Y-77407139D01*
X108416086Y-77516632D01*
X108598165Y-77592051D01*
X108791459Y-77630500D01*
X108791461Y-77630500D01*
X108988539Y-77630500D01*
X108988541Y-77630500D01*
X109181835Y-77592051D01*
X109363914Y-77516632D01*
X109527782Y-77407139D01*
X109667139Y-77267782D01*
X109776632Y-77103914D01*
X109852051Y-76921835D01*
X109890500Y-76728541D01*
X109890500Y-76531460D01*
X110429500Y-76531460D01*
X110429500Y-76728539D01*
X110467947Y-76921829D01*
X110467950Y-76921839D01*
X110543367Y-77103913D01*
X110623499Y-77223838D01*
X110652861Y-77267782D01*
X110792218Y-77407139D01*
X110956086Y-77516632D01*
X111138165Y-77592051D01*
X111331459Y-77630500D01*
X111331461Y-77630500D01*
X111528539Y-77630500D01*
X111528541Y-77630500D01*
X111721835Y-77592051D01*
X111903914Y-77516632D01*
X112067782Y-77407139D01*
X112207139Y-77267782D01*
X112316632Y-77103914D01*
X112392051Y-76921835D01*
X112430500Y-76728541D01*
X112430500Y-76531460D01*
X112969500Y-76531460D01*
X112969500Y-76728539D01*
X113007947Y-76921829D01*
X113007950Y-76921839D01*
X113083367Y-77103913D01*
X113163499Y-77223838D01*
X113192861Y-77267782D01*
X113332218Y-77407139D01*
X113496086Y-77516632D01*
X113678165Y-77592051D01*
X113871459Y-77630500D01*
X113871461Y-77630500D01*
X114068539Y-77630500D01*
X114068541Y-77630500D01*
X114261835Y-77592051D01*
X114443914Y-77516632D01*
X114607782Y-77407139D01*
X114747139Y-77267782D01*
X114856632Y-77103914D01*
X114932051Y-76921835D01*
X114970500Y-76728541D01*
X114970500Y-76531460D01*
X115509500Y-76531460D01*
X115509500Y-76728539D01*
X115547947Y-76921829D01*
X115547950Y-76921839D01*
X115623367Y-77103913D01*
X115703499Y-77223838D01*
X115732861Y-77267782D01*
X115872218Y-77407139D01*
X116036086Y-77516632D01*
X116218165Y-77592051D01*
X116411459Y-77630500D01*
X116411461Y-77630500D01*
X116608539Y-77630500D01*
X116608541Y-77630500D01*
X116801835Y-77592051D01*
X116983914Y-77516632D01*
X117147782Y-77407139D01*
X117287139Y-77267782D01*
X117396632Y-77103914D01*
X117472051Y-76921835D01*
X117510500Y-76728541D01*
X117510500Y-76531460D01*
X118049500Y-76531460D01*
X118049500Y-76728539D01*
X118087947Y-76921829D01*
X118087950Y-76921839D01*
X118163367Y-77103913D01*
X118243499Y-77223838D01*
X118272861Y-77267782D01*
X118412218Y-77407139D01*
X118576086Y-77516632D01*
X118758165Y-77592051D01*
X118951459Y-77630500D01*
X118951461Y-77630500D01*
X119148539Y-77630500D01*
X119148541Y-77630500D01*
X119341835Y-77592051D01*
X119523914Y-77516632D01*
X119687782Y-77407139D01*
X119827139Y-77267782D01*
X119936632Y-77103914D01*
X120012051Y-76921835D01*
X120050500Y-76728541D01*
X120050500Y-76531459D01*
X120012051Y-76338165D01*
X119936632Y-76156086D01*
X119827139Y-75992218D01*
X119687782Y-75852861D01*
X119523914Y-75743368D01*
X119523915Y-75743368D01*
X119523913Y-75743367D01*
X119341839Y-75667950D01*
X119341829Y-75667947D01*
X119212388Y-75642200D01*
X119148541Y-75629500D01*
X118951459Y-75629500D01*
X118896662Y-75640399D01*
X118758170Y-75667947D01*
X118758160Y-75667950D01*
X118576086Y-75743367D01*
X118412218Y-75852860D01*
X118412217Y-75852862D01*
X118272862Y-75992217D01*
X118272860Y-75992218D01*
X118163367Y-76156086D01*
X118087950Y-76338160D01*
X118087947Y-76338170D01*
X118049500Y-76531460D01*
X117510500Y-76531460D01*
X117510500Y-76531459D01*
X117472051Y-76338165D01*
X117396632Y-76156086D01*
X117287139Y-75992218D01*
X117147782Y-75852861D01*
X116983914Y-75743368D01*
X116983915Y-75743368D01*
X116983913Y-75743367D01*
X116801839Y-75667950D01*
X116801829Y-75667947D01*
X116672388Y-75642200D01*
X116608541Y-75629500D01*
X116411459Y-75629500D01*
X116356662Y-75640399D01*
X116218170Y-75667947D01*
X116218160Y-75667950D01*
X116036086Y-75743367D01*
X115872218Y-75852860D01*
X115872217Y-75852862D01*
X115732862Y-75992217D01*
X115732860Y-75992218D01*
X115623367Y-76156086D01*
X115547950Y-76338160D01*
X115547947Y-76338170D01*
X115509500Y-76531460D01*
X114970500Y-76531460D01*
X114970500Y-76531459D01*
X114932051Y-76338165D01*
X114856632Y-76156086D01*
X114747139Y-75992218D01*
X114607782Y-75852861D01*
X114443914Y-75743368D01*
X114443915Y-75743368D01*
X114443913Y-75743367D01*
X114261839Y-75667950D01*
X114261829Y-75667947D01*
X114132388Y-75642200D01*
X114068541Y-75629500D01*
X113871459Y-75629500D01*
X113816662Y-75640399D01*
X113678170Y-75667947D01*
X113678160Y-75667950D01*
X113496086Y-75743367D01*
X113332218Y-75852860D01*
X113332217Y-75852862D01*
X113192862Y-75992217D01*
X113192860Y-75992218D01*
X113083367Y-76156086D01*
X113007950Y-76338160D01*
X113007947Y-76338170D01*
X112969500Y-76531460D01*
X112430500Y-76531460D01*
X112430500Y-76531459D01*
X112392051Y-76338165D01*
X112316632Y-76156086D01*
X112207139Y-75992218D01*
X112067782Y-75852861D01*
X111903914Y-75743368D01*
X111903915Y-75743368D01*
X111903913Y-75743367D01*
X111721839Y-75667950D01*
X111721829Y-75667947D01*
X111592388Y-75642200D01*
X111528541Y-75629500D01*
X111331459Y-75629500D01*
X111276662Y-75640399D01*
X111138170Y-75667947D01*
X111138160Y-75667950D01*
X110956086Y-75743367D01*
X110792218Y-75852860D01*
X110792217Y-75852862D01*
X110652862Y-75992217D01*
X110652860Y-75992218D01*
X110543367Y-76156086D01*
X110467950Y-76338160D01*
X110467947Y-76338170D01*
X110429500Y-76531460D01*
X109890500Y-76531460D01*
X109890500Y-76531459D01*
X109852051Y-76338165D01*
X109776632Y-76156086D01*
X109667139Y-75992218D01*
X109527782Y-75852861D01*
X109363914Y-75743368D01*
X109363915Y-75743368D01*
X109363913Y-75743367D01*
X109181839Y-75667950D01*
X109181829Y-75667947D01*
X109052388Y-75642200D01*
X108988541Y-75629500D01*
X108791459Y-75629500D01*
X108736662Y-75640399D01*
X108598170Y-75667947D01*
X108598160Y-75667950D01*
X108416086Y-75743367D01*
X108252218Y-75852860D01*
X108252217Y-75852862D01*
X108112862Y-75992217D01*
X108112860Y-75992218D01*
X108003367Y-76156086D01*
X107927950Y-76338160D01*
X107927947Y-76338170D01*
X107889500Y-76531460D01*
X107350500Y-76531460D01*
X107350500Y-76531459D01*
X107312051Y-76338165D01*
X107236632Y-76156086D01*
X107127139Y-75992218D01*
X106987782Y-75852861D01*
X106823914Y-75743368D01*
X106823915Y-75743368D01*
X106823913Y-75743367D01*
X106641839Y-75667950D01*
X106641829Y-75667947D01*
X106512388Y-75642200D01*
X106448541Y-75629500D01*
X106251459Y-75629500D01*
X106196662Y-75640399D01*
X106058170Y-75667947D01*
X106058160Y-75667950D01*
X105876086Y-75743367D01*
X105712218Y-75852860D01*
X105712217Y-75852862D01*
X105572862Y-75992217D01*
X105572860Y-75992218D01*
X105463367Y-76156086D01*
X105387950Y-76338160D01*
X105387947Y-76338170D01*
X105349500Y-76531460D01*
X104810500Y-76531460D01*
X104810500Y-76531459D01*
X104772051Y-76338165D01*
X104696632Y-76156086D01*
X104587139Y-75992218D01*
X104447782Y-75852861D01*
X104283914Y-75743368D01*
X104283915Y-75743368D01*
X104283913Y-75743367D01*
X104101839Y-75667950D01*
X104101829Y-75667947D01*
X103972388Y-75642200D01*
X103908541Y-75629500D01*
X103711459Y-75629500D01*
X103656662Y-75640399D01*
X103518170Y-75667947D01*
X103518160Y-75667950D01*
X103336086Y-75743367D01*
X103172218Y-75852860D01*
X103172217Y-75852862D01*
X103032862Y-75992217D01*
X103032860Y-75992218D01*
X102923367Y-76156086D01*
X102847950Y-76338160D01*
X102847947Y-76338170D01*
X102809500Y-76531460D01*
X102270500Y-76531460D01*
X102270500Y-76531459D01*
X102232051Y-76338165D01*
X102156632Y-76156086D01*
X102047139Y-75992218D01*
X101907782Y-75852861D01*
X101743914Y-75743368D01*
X101743915Y-75743368D01*
X101743913Y-75743367D01*
X101561839Y-75667950D01*
X101561829Y-75667947D01*
X101432388Y-75642200D01*
X101368541Y-75629500D01*
X101171459Y-75629500D01*
X101116662Y-75640399D01*
X100978170Y-75667947D01*
X100978160Y-75667950D01*
X100796086Y-75743367D01*
X100632218Y-75852860D01*
X100632217Y-75852862D01*
X100492862Y-75992217D01*
X100492860Y-75992218D01*
X100383367Y-76156086D01*
X100307950Y-76338160D01*
X100307947Y-76338170D01*
X100269500Y-76531460D01*
X99730500Y-76531460D01*
X99730500Y-76531459D01*
X99692051Y-76338165D01*
X99616632Y-76156086D01*
X99507139Y-75992218D01*
X99367782Y-75852861D01*
X99203914Y-75743368D01*
X99203915Y-75743368D01*
X99203913Y-75743367D01*
X99021839Y-75667950D01*
X99021829Y-75667947D01*
X98892388Y-75642200D01*
X98828541Y-75629500D01*
X98631459Y-75629500D01*
X98576662Y-75640399D01*
X98438170Y-75667947D01*
X98438160Y-75667950D01*
X98256086Y-75743367D01*
X98092218Y-75852860D01*
X98092217Y-75852862D01*
X97952862Y-75992217D01*
X97952860Y-75992218D01*
X97843367Y-76156086D01*
X97767950Y-76338160D01*
X97767947Y-76338170D01*
X97729500Y-76531460D01*
X97190500Y-76531460D01*
X97190500Y-76531459D01*
X97152051Y-76338165D01*
X97076632Y-76156086D01*
X96967139Y-75992218D01*
X96827782Y-75852861D01*
X96663914Y-75743368D01*
X96663915Y-75743368D01*
X96663913Y-75743367D01*
X96481839Y-75667950D01*
X96481829Y-75667947D01*
X96352388Y-75642200D01*
X96288541Y-75629500D01*
X96091459Y-75629500D01*
X96036662Y-75640399D01*
X95898170Y-75667947D01*
X95898160Y-75667950D01*
X95716086Y-75743367D01*
X95552218Y-75852860D01*
X95552217Y-75852862D01*
X95412862Y-75992217D01*
X95412860Y-75992218D01*
X95303367Y-76156086D01*
X95227950Y-76338160D01*
X95227947Y-76338170D01*
X95189500Y-76531460D01*
X94650500Y-76531460D01*
X94650500Y-76531459D01*
X94612051Y-76338165D01*
X94536632Y-76156086D01*
X94427139Y-75992218D01*
X94287782Y-75852861D01*
X94123914Y-75743368D01*
X94123915Y-75743368D01*
X94123913Y-75743367D01*
X93941839Y-75667950D01*
X93941829Y-75667947D01*
X93812388Y-75642200D01*
X93748541Y-75629500D01*
X93551459Y-75629500D01*
X93496662Y-75640399D01*
X93358170Y-75667947D01*
X93358160Y-75667950D01*
X93176086Y-75743367D01*
X93012218Y-75852860D01*
X93012217Y-75852862D01*
X92872862Y-75992217D01*
X92872860Y-75992218D01*
X92763367Y-76156086D01*
X92687950Y-76338160D01*
X92687947Y-76338170D01*
X92649500Y-76531460D01*
X92110500Y-76531460D01*
X92110500Y-76531459D01*
X92072051Y-76338165D01*
X91996632Y-76156086D01*
X91887139Y-75992218D01*
X91747782Y-75852861D01*
X91583914Y-75743368D01*
X91583915Y-75743368D01*
X91583913Y-75743367D01*
X91401839Y-75667950D01*
X91401829Y-75667947D01*
X91272388Y-75642200D01*
X91208541Y-75629500D01*
X91011459Y-75629500D01*
X90956662Y-75640399D01*
X90818170Y-75667947D01*
X90818160Y-75667950D01*
X90636086Y-75743367D01*
X90472218Y-75852860D01*
X90472217Y-75852862D01*
X90332862Y-75992217D01*
X90332860Y-75992218D01*
X90223367Y-76156086D01*
X90147950Y-76338160D01*
X90147947Y-76338170D01*
X90109500Y-76531460D01*
X89570500Y-76531460D01*
X89570500Y-76531459D01*
X89532051Y-76338165D01*
X89456632Y-76156086D01*
X89347139Y-75992218D01*
X89207782Y-75852861D01*
X89043914Y-75743368D01*
X89043915Y-75743368D01*
X89043913Y-75743367D01*
X88861839Y-75667950D01*
X88861829Y-75667947D01*
X88732388Y-75642200D01*
X88668541Y-75629500D01*
X88471459Y-75629500D01*
X88416662Y-75640399D01*
X88278170Y-75667947D01*
X88278160Y-75667950D01*
X88096086Y-75743367D01*
X87932218Y-75852860D01*
X87932217Y-75852862D01*
X87792862Y-75992217D01*
X87792860Y-75992218D01*
X87683367Y-76156086D01*
X87607950Y-76338160D01*
X87607947Y-76338170D01*
X87569500Y-76531460D01*
X87030500Y-76531460D01*
X87030500Y-76531459D01*
X86992051Y-76338165D01*
X86916632Y-76156086D01*
X86807139Y-75992218D01*
X86667782Y-75852861D01*
X86503914Y-75743368D01*
X86503915Y-75743368D01*
X86503913Y-75743367D01*
X86321839Y-75667950D01*
X86321829Y-75667947D01*
X86192388Y-75642200D01*
X86128541Y-75629500D01*
X85931459Y-75629500D01*
X85876662Y-75640399D01*
X85738170Y-75667947D01*
X85738160Y-75667950D01*
X85556086Y-75743367D01*
X85392218Y-75852860D01*
X85392217Y-75852862D01*
X85252862Y-75992217D01*
X85252860Y-75992218D01*
X85143367Y-76156086D01*
X85067950Y-76338160D01*
X85067947Y-76338170D01*
X85029500Y-76531460D01*
X84490500Y-76531460D01*
X84490500Y-76531459D01*
X84452051Y-76338165D01*
X84376632Y-76156086D01*
X84267139Y-75992218D01*
X84127782Y-75852861D01*
X83963914Y-75743368D01*
X83963915Y-75743368D01*
X83963913Y-75743367D01*
X83781839Y-75667950D01*
X83781829Y-75667947D01*
X83652388Y-75642200D01*
X83588541Y-75629500D01*
X83391459Y-75629500D01*
X83336662Y-75640399D01*
X83198170Y-75667947D01*
X83198160Y-75667950D01*
X83016086Y-75743367D01*
X82852218Y-75852860D01*
X82852217Y-75852862D01*
X82712862Y-75992217D01*
X82712860Y-75992218D01*
X82603367Y-76156086D01*
X82527950Y-76338160D01*
X82527947Y-76338170D01*
X82489500Y-76531460D01*
X81950500Y-76531460D01*
X81950500Y-76531459D01*
X81912051Y-76338165D01*
X81836632Y-76156086D01*
X81727139Y-75992218D01*
X81587782Y-75852861D01*
X81423914Y-75743368D01*
X81423915Y-75743368D01*
X81423913Y-75743367D01*
X81241839Y-75667950D01*
X81241829Y-75667947D01*
X81112388Y-75642200D01*
X81048541Y-75629500D01*
X80851459Y-75629500D01*
X80796662Y-75640399D01*
X80658170Y-75667947D01*
X80658160Y-75667950D01*
X80476086Y-75743367D01*
X80312218Y-75852860D01*
X80312217Y-75852862D01*
X80172862Y-75992217D01*
X80172860Y-75992218D01*
X80063367Y-76156086D01*
X79987950Y-76338160D01*
X79987947Y-76338170D01*
X79949500Y-76531460D01*
X79410500Y-76531460D01*
X79410500Y-76531459D01*
X79372051Y-76338165D01*
X79296632Y-76156086D01*
X79187139Y-75992218D01*
X79047782Y-75852861D01*
X78883914Y-75743368D01*
X78883915Y-75743368D01*
X78883913Y-75743367D01*
X78701839Y-75667950D01*
X78701829Y-75667947D01*
X78572388Y-75642200D01*
X78508541Y-75629500D01*
X78311459Y-75629500D01*
X78256662Y-75640399D01*
X78118170Y-75667947D01*
X78118160Y-75667950D01*
X77936086Y-75743367D01*
X77772218Y-75852860D01*
X77772217Y-75852862D01*
X77632862Y-75992217D01*
X77632860Y-75992218D01*
X77523367Y-76156086D01*
X77447950Y-76338160D01*
X77447947Y-76338170D01*
X77409500Y-76531460D01*
X76870500Y-76531460D01*
X76870500Y-76531459D01*
X76832051Y-76338165D01*
X76756632Y-76156086D01*
X76647139Y-75992218D01*
X76507782Y-75852861D01*
X76343914Y-75743368D01*
X76343915Y-75743368D01*
X76343913Y-75743367D01*
X76161839Y-75667950D01*
X76161829Y-75667947D01*
X76032388Y-75642200D01*
X75968541Y-75629500D01*
X75771459Y-75629500D01*
X75716662Y-75640399D01*
X75578170Y-75667947D01*
X75578160Y-75667950D01*
X75396086Y-75743367D01*
X75232218Y-75852860D01*
X75232217Y-75852862D01*
X75092862Y-75992217D01*
X75092860Y-75992218D01*
X74983367Y-76156086D01*
X74907950Y-76338160D01*
X74907947Y-76338170D01*
X74869500Y-76531460D01*
X68200000Y-76531460D01*
X68200000Y-73661310D01*
X113829500Y-73661310D01*
X113829500Y-73838689D01*
X113864104Y-74012660D01*
X113864107Y-74012670D01*
X113931985Y-74176544D01*
X114019499Y-74307518D01*
X114030536Y-74324035D01*
X114155965Y-74449464D01*
X114303453Y-74548013D01*
X114303454Y-74548013D01*
X114303455Y-74548014D01*
X114386966Y-74582605D01*
X114467334Y-74615894D01*
X114641309Y-74650500D01*
X114641311Y-74650500D01*
X114818689Y-74650500D01*
X114818691Y-74650500D01*
X114992666Y-74615894D01*
X115156547Y-74548013D01*
X115304035Y-74449464D01*
X115429464Y-74324035D01*
X115528013Y-74176547D01*
X115595894Y-74012666D01*
X115630500Y-73838691D01*
X115630500Y-73661309D01*
X115595894Y-73487334D01*
X115528013Y-73323453D01*
X115429464Y-73175965D01*
X115304035Y-73050536D01*
X115156547Y-72951987D01*
X115156546Y-72951986D01*
X115156544Y-72951985D01*
X114992670Y-72884107D01*
X114992660Y-72884104D01*
X114876156Y-72860930D01*
X114818691Y-72849500D01*
X114641309Y-72849500D01*
X114591989Y-72859310D01*
X114467339Y-72884104D01*
X114467329Y-72884107D01*
X114303455Y-72951985D01*
X114155968Y-73050533D01*
X114030533Y-73175968D01*
X113931985Y-73323455D01*
X113864107Y-73487329D01*
X113864104Y-73487339D01*
X113829500Y-73661310D01*
X68200000Y-73661310D01*
X68200000Y-69711460D01*
X105729500Y-69711460D01*
X105729500Y-69908539D01*
X105767947Y-70101829D01*
X105767950Y-70101839D01*
X105843367Y-70283913D01*
X105843368Y-70283914D01*
X105952861Y-70447782D01*
X106092218Y-70587139D01*
X106256086Y-70696632D01*
X106438165Y-70772051D01*
X106631459Y-70810500D01*
X106631461Y-70810500D01*
X106828539Y-70810500D01*
X106828541Y-70810500D01*
X107021835Y-70772051D01*
X107203914Y-70696632D01*
X107367782Y-70587139D01*
X107507139Y-70447782D01*
X107616632Y-70283914D01*
X107669540Y-70156181D01*
X107709588Y-70116133D01*
X107737907Y-70110500D01*
X108262093Y-70110500D01*
X108314419Y-70132174D01*
X108330460Y-70156182D01*
X108383365Y-70283909D01*
X108383367Y-70283912D01*
X108383368Y-70283914D01*
X108492861Y-70447782D01*
X108632218Y-70587139D01*
X108796086Y-70696632D01*
X108978165Y-70772051D01*
X109171459Y-70810500D01*
X109171461Y-70810500D01*
X109368539Y-70810500D01*
X109368541Y-70810500D01*
X109561835Y-70772051D01*
X109743914Y-70696632D01*
X109907782Y-70587139D01*
X110047139Y-70447782D01*
X110156632Y-70283914D01*
X110232051Y-70101835D01*
X110270500Y-69908541D01*
X110270500Y-69711460D01*
X110809500Y-69711460D01*
X110809500Y-69908539D01*
X110847947Y-70101829D01*
X110847950Y-70101839D01*
X110923367Y-70283913D01*
X110923368Y-70283914D01*
X111032861Y-70447782D01*
X111172218Y-70587139D01*
X111336086Y-70696632D01*
X111518165Y-70772051D01*
X111711459Y-70810500D01*
X111711461Y-70810500D01*
X111908539Y-70810500D01*
X111908541Y-70810500D01*
X112101835Y-70772051D01*
X112283914Y-70696632D01*
X112447782Y-70587139D01*
X112587139Y-70447782D01*
X112696632Y-70283914D01*
X112772051Y-70101835D01*
X112810500Y-69908541D01*
X112810500Y-69711459D01*
X112772051Y-69518165D01*
X112696632Y-69336086D01*
X112587139Y-69172218D01*
X112447782Y-69032861D01*
X112283914Y-68923368D01*
X112283915Y-68923368D01*
X112283913Y-68923367D01*
X112101839Y-68847950D01*
X112101829Y-68847947D01*
X111972388Y-68822200D01*
X111908541Y-68809500D01*
X111711459Y-68809500D01*
X111656662Y-68820399D01*
X111518170Y-68847947D01*
X111518160Y-68847950D01*
X111336086Y-68923367D01*
X111172218Y-69032860D01*
X111172217Y-69032862D01*
X111032862Y-69172217D01*
X111032860Y-69172218D01*
X110923367Y-69336086D01*
X110847950Y-69518160D01*
X110847947Y-69518170D01*
X110809500Y-69711460D01*
X110270500Y-69711460D01*
X110270500Y-69711459D01*
X110232051Y-69518165D01*
X110156632Y-69336086D01*
X110047139Y-69172218D01*
X109907782Y-69032861D01*
X109743914Y-68923368D01*
X109743915Y-68923368D01*
X109743913Y-68923367D01*
X109561839Y-68847950D01*
X109561829Y-68847947D01*
X109432388Y-68822200D01*
X109368541Y-68809500D01*
X109171459Y-68809500D01*
X109116662Y-68820399D01*
X108978170Y-68847947D01*
X108978160Y-68847950D01*
X108796086Y-68923367D01*
X108632218Y-69032860D01*
X108632217Y-69032862D01*
X108492862Y-69172217D01*
X108492860Y-69172218D01*
X108383365Y-69336090D01*
X108330460Y-69463818D01*
X108290412Y-69503867D01*
X108262093Y-69509500D01*
X107737907Y-69509500D01*
X107685581Y-69487826D01*
X107669540Y-69463818D01*
X107616634Y-69336090D01*
X107616633Y-69336088D01*
X107616632Y-69336086D01*
X107507139Y-69172218D01*
X107367782Y-69032861D01*
X107203914Y-68923368D01*
X107203915Y-68923368D01*
X107203913Y-68923367D01*
X107021839Y-68847950D01*
X107021829Y-68847947D01*
X106892388Y-68822200D01*
X106828541Y-68809500D01*
X106631459Y-68809500D01*
X106576662Y-68820399D01*
X106438170Y-68847947D01*
X106438160Y-68847950D01*
X106256086Y-68923367D01*
X106092218Y-69032860D01*
X106092217Y-69032862D01*
X105952862Y-69172217D01*
X105952860Y-69172218D01*
X105843367Y-69336086D01*
X105767950Y-69518160D01*
X105767947Y-69518170D01*
X105729500Y-69711460D01*
X68200000Y-69711460D01*
X68200000Y-64277935D01*
X96686900Y-64277935D01*
X96686900Y-66296964D01*
X96707377Y-66373385D01*
X96707379Y-66373390D01*
X96746940Y-66441911D01*
X97151352Y-66846323D01*
X97173026Y-66898649D01*
X97167394Y-66926966D01*
X97134105Y-67007337D01*
X97134104Y-67007339D01*
X97099500Y-67181310D01*
X97099500Y-67358689D01*
X97134104Y-67532660D01*
X97134107Y-67532670D01*
X97201985Y-67696544D01*
X97201986Y-67696546D01*
X97201987Y-67696547D01*
X97300536Y-67844035D01*
X97425965Y-67969464D01*
X97573453Y-68068013D01*
X97573454Y-68068013D01*
X97573455Y-68068014D01*
X97643367Y-68096972D01*
X97737334Y-68135894D01*
X97911309Y-68170500D01*
X97911311Y-68170500D01*
X98088689Y-68170500D01*
X98088691Y-68170500D01*
X98262666Y-68135894D01*
X98426547Y-68068013D01*
X98574035Y-67969464D01*
X98699464Y-67844035D01*
X98798013Y-67696547D01*
X98865894Y-67532666D01*
X98900500Y-67358691D01*
X98900500Y-67181309D01*
X98865894Y-67007334D01*
X98798013Y-66843453D01*
X98699464Y-66695965D01*
X98574035Y-66570536D01*
X98426547Y-66471987D01*
X98426546Y-66471986D01*
X98426544Y-66471985D01*
X98262670Y-66404107D01*
X98262660Y-66404104D01*
X98146156Y-66380930D01*
X98088691Y-66369500D01*
X97911309Y-66369500D01*
X97861989Y-66379310D01*
X97737339Y-66404104D01*
X97737337Y-66404105D01*
X97737335Y-66404105D01*
X97737334Y-66404106D01*
X97737332Y-66404107D01*
X97656966Y-66437394D01*
X97600329Y-66437392D01*
X97576323Y-66421352D01*
X97309574Y-66154603D01*
X97287900Y-66102277D01*
X97287900Y-65470050D01*
X97309574Y-65417724D01*
X97361900Y-65396050D01*
X97414224Y-65417723D01*
X97425965Y-65429464D01*
X97573453Y-65528013D01*
X97573454Y-65528013D01*
X97573455Y-65528014D01*
X97656966Y-65562605D01*
X97737334Y-65595894D01*
X97911309Y-65630500D01*
X97911311Y-65630500D01*
X98088689Y-65630500D01*
X98088691Y-65630500D01*
X98262666Y-65595894D01*
X98426547Y-65528013D01*
X98574035Y-65429464D01*
X98699464Y-65304035D01*
X98798013Y-65156547D01*
X98831301Y-65076181D01*
X98871349Y-65036133D01*
X98899668Y-65030500D01*
X108345564Y-65030500D01*
X108345564Y-65030499D01*
X108421989Y-65010021D01*
X108490511Y-64970460D01*
X108546460Y-64914511D01*
X110683174Y-62777797D01*
X110735500Y-62756123D01*
X110787826Y-62777797D01*
X110809500Y-62830123D01*
X110809500Y-63009746D01*
X110821133Y-63068232D01*
X110838023Y-63093509D01*
X110865448Y-63134552D01*
X110909560Y-63164027D01*
X110931767Y-63178866D01*
X110931768Y-63178866D01*
X110931769Y-63178867D01*
X110990252Y-63190500D01*
X110990254Y-63190500D01*
X112629746Y-63190500D01*
X112629748Y-63190500D01*
X112688231Y-63178867D01*
X112754552Y-63134552D01*
X112798867Y-63068231D01*
X112810500Y-63009748D01*
X112810500Y-62692423D01*
X112832174Y-62640097D01*
X112884500Y-62618423D01*
X112936826Y-62640097D01*
X117148921Y-66852192D01*
X117170595Y-66904518D01*
X117164963Y-66932836D01*
X117134105Y-67007335D01*
X117099500Y-67181310D01*
X117099500Y-67358689D01*
X117134104Y-67532660D01*
X117134107Y-67532670D01*
X117201985Y-67696544D01*
X117201986Y-67696546D01*
X117201987Y-67696547D01*
X117300536Y-67844035D01*
X117425965Y-67969464D01*
X117573453Y-68068013D01*
X117573454Y-68068013D01*
X117573455Y-68068014D01*
X117643367Y-68096972D01*
X117737334Y-68135894D01*
X117911309Y-68170500D01*
X117911311Y-68170500D01*
X118088689Y-68170500D01*
X118088691Y-68170500D01*
X118262666Y-68135894D01*
X118343033Y-68102605D01*
X118399667Y-68102605D01*
X118423675Y-68118646D01*
X118835689Y-68530660D01*
X118904212Y-68570222D01*
X118980638Y-68590700D01*
X118980640Y-68590700D01*
X127019364Y-68590700D01*
X127019364Y-68590699D01*
X127095789Y-68570221D01*
X127164311Y-68530660D01*
X127220260Y-68474711D01*
X127576324Y-68118645D01*
X127628649Y-68096972D01*
X127656964Y-68102604D01*
X127737334Y-68135894D01*
X127911309Y-68170500D01*
X127911311Y-68170500D01*
X128088689Y-68170500D01*
X128088691Y-68170500D01*
X128262666Y-68135894D01*
X128426547Y-68068013D01*
X128574035Y-67969464D01*
X128699464Y-67844035D01*
X128798013Y-67696547D01*
X128865894Y-67532666D01*
X128900500Y-67358691D01*
X128900500Y-67181309D01*
X128865894Y-67007334D01*
X128798013Y-66843453D01*
X128699464Y-66695965D01*
X128574035Y-66570536D01*
X128426547Y-66471987D01*
X128426546Y-66471986D01*
X128426544Y-66471985D01*
X128262670Y-66404107D01*
X128262660Y-66404104D01*
X128146156Y-66380930D01*
X128088691Y-66369500D01*
X127911309Y-66369500D01*
X127861989Y-66379310D01*
X127737339Y-66404104D01*
X127737329Y-66404107D01*
X127573455Y-66471985D01*
X127425968Y-66570533D01*
X127300533Y-66695968D01*
X127201985Y-66843455D01*
X127134107Y-67007329D01*
X127134104Y-67007339D01*
X127099500Y-67181310D01*
X127099500Y-67358689D01*
X127134104Y-67532660D01*
X127134105Y-67532662D01*
X127134106Y-67532666D01*
X127167393Y-67613030D01*
X127167394Y-67613032D01*
X127167393Y-67669669D01*
X127151352Y-67693675D01*
X126877003Y-67968026D01*
X126824677Y-67989700D01*
X123732450Y-67989700D01*
X123680124Y-67968026D01*
X123658450Y-67915700D01*
X123680123Y-67863375D01*
X123699464Y-67844035D01*
X123798013Y-67696547D01*
X123865894Y-67532666D01*
X123900500Y-67358691D01*
X123900500Y-67181309D01*
X123865894Y-67007334D01*
X123798013Y-66843453D01*
X123699464Y-66695965D01*
X123574035Y-66570536D01*
X123426547Y-66471987D01*
X123426546Y-66471986D01*
X123426544Y-66471985D01*
X123262670Y-66404107D01*
X123262660Y-66404104D01*
X123146156Y-66380930D01*
X123088691Y-66369500D01*
X122911309Y-66369500D01*
X122861989Y-66379310D01*
X122737339Y-66404104D01*
X122737329Y-66404107D01*
X122573455Y-66471985D01*
X122425968Y-66570533D01*
X122300533Y-66695968D01*
X122201985Y-66843455D01*
X122168699Y-66923818D01*
X122128651Y-66963867D01*
X122100332Y-66969500D01*
X120695123Y-66969500D01*
X120642797Y-66947826D01*
X118848646Y-65153675D01*
X118826972Y-65101349D01*
X118832603Y-65073036D01*
X118865894Y-64992666D01*
X118900500Y-64818691D01*
X118900500Y-64641310D01*
X122099500Y-64641310D01*
X122099500Y-64818689D01*
X122134104Y-64992660D01*
X122134107Y-64992670D01*
X122201985Y-65156544D01*
X122201986Y-65156546D01*
X122201987Y-65156547D01*
X122300536Y-65304035D01*
X122425965Y-65429464D01*
X122573453Y-65528013D01*
X122573454Y-65528013D01*
X122573455Y-65528014D01*
X122656966Y-65562605D01*
X122737334Y-65595894D01*
X122911309Y-65630500D01*
X122911311Y-65630500D01*
X123088689Y-65630500D01*
X123088691Y-65630500D01*
X123262666Y-65595894D01*
X123426547Y-65528013D01*
X123574035Y-65429464D01*
X123699464Y-65304035D01*
X123798013Y-65156547D01*
X123865894Y-64992666D01*
X123900500Y-64818691D01*
X123900500Y-64641309D01*
X123865894Y-64467334D01*
X123798013Y-64303453D01*
X123699464Y-64155965D01*
X123574035Y-64030536D01*
X123426547Y-63931987D01*
X123426546Y-63931986D01*
X123426544Y-63931985D01*
X123262670Y-63864107D01*
X123262660Y-63864104D01*
X123146156Y-63840930D01*
X123088691Y-63829500D01*
X122911309Y-63829500D01*
X122861989Y-63839310D01*
X122737339Y-63864104D01*
X122737329Y-63864107D01*
X122573455Y-63931985D01*
X122425968Y-64030533D01*
X122300533Y-64155968D01*
X122201985Y-64303455D01*
X122134107Y-64467329D01*
X122134104Y-64467339D01*
X122099500Y-64641310D01*
X118900500Y-64641310D01*
X118900500Y-64641309D01*
X118865894Y-64467334D01*
X118798013Y-64303453D01*
X118699464Y-64155965D01*
X118574035Y-64030536D01*
X118426547Y-63931987D01*
X118426546Y-63931986D01*
X118426544Y-63931985D01*
X118262670Y-63864107D01*
X118262660Y-63864104D01*
X118146156Y-63840930D01*
X118088691Y-63829500D01*
X117911309Y-63829500D01*
X117861989Y-63839310D01*
X117737339Y-63864104D01*
X117737329Y-63864107D01*
X117573455Y-63931985D01*
X117425968Y-64030533D01*
X117300533Y-64155968D01*
X117201985Y-64303455D01*
X117134107Y-64467329D01*
X117134104Y-64467339D01*
X117099500Y-64641310D01*
X117099500Y-64818689D01*
X117134104Y-64992660D01*
X117134107Y-64992670D01*
X117201985Y-65156544D01*
X117201986Y-65156546D01*
X117201987Y-65156547D01*
X117300536Y-65304035D01*
X117425965Y-65429464D01*
X117573453Y-65528013D01*
X117573454Y-65528013D01*
X117573455Y-65528014D01*
X117656966Y-65562605D01*
X117737334Y-65595894D01*
X117911309Y-65630500D01*
X117911311Y-65630500D01*
X118088689Y-65630500D01*
X118088691Y-65630500D01*
X118262666Y-65595894D01*
X118343033Y-65562605D01*
X118399667Y-65562605D01*
X118423675Y-65578646D01*
X120299540Y-67454511D01*
X120355489Y-67510460D01*
X120424011Y-67550021D01*
X120424012Y-67550021D01*
X120424014Y-67550022D01*
X120462224Y-67560260D01*
X120500435Y-67570499D01*
X120500436Y-67570500D01*
X120500438Y-67570500D01*
X122100332Y-67570500D01*
X122152658Y-67592174D01*
X122168699Y-67616182D01*
X122201985Y-67696544D01*
X122201986Y-67696546D01*
X122201987Y-67696547D01*
X122300536Y-67844035D01*
X122319876Y-67863375D01*
X122341550Y-67915700D01*
X122319876Y-67968026D01*
X122267550Y-67989700D01*
X119175323Y-67989700D01*
X119122997Y-67968026D01*
X118848646Y-67693675D01*
X118826972Y-67641349D01*
X118832603Y-67613036D01*
X118865894Y-67532666D01*
X118900500Y-67358691D01*
X118900500Y-67181309D01*
X118865894Y-67007334D01*
X118798013Y-66843453D01*
X118699464Y-66695965D01*
X118574035Y-66570536D01*
X118426547Y-66471987D01*
X118426546Y-66471986D01*
X118426544Y-66471985D01*
X118262670Y-66404107D01*
X118262660Y-66404104D01*
X118146156Y-66380930D01*
X118088691Y-66369500D01*
X117911309Y-66369500D01*
X117861989Y-66379310D01*
X117737339Y-66404104D01*
X117737337Y-66404105D01*
X117737335Y-66404105D01*
X117737334Y-66404106D01*
X117737332Y-66404107D01*
X117651097Y-66439825D01*
X117594460Y-66439823D01*
X117570454Y-66423783D01*
X113096211Y-61949540D01*
X113027690Y-61909979D01*
X113027685Y-61909977D01*
X112951264Y-61889500D01*
X112951262Y-61889500D01*
X112884500Y-61889500D01*
X112832174Y-61867826D01*
X112810500Y-61815500D01*
X112810500Y-61370253D01*
X112810500Y-61370252D01*
X112798867Y-61311769D01*
X112754552Y-61245448D01*
X112728360Y-61227947D01*
X112688232Y-61201133D01*
X112688233Y-61201133D01*
X112658989Y-61195316D01*
X112629748Y-61189500D01*
X110990252Y-61189500D01*
X110961010Y-61195316D01*
X110931767Y-61201133D01*
X110865449Y-61245447D01*
X110865447Y-61245449D01*
X110821133Y-61311767D01*
X110809500Y-61370253D01*
X110809500Y-61815500D01*
X110787826Y-61867826D01*
X110735500Y-61889500D01*
X110668736Y-61889500D01*
X110592314Y-61909977D01*
X110592309Y-61909979D01*
X110523788Y-61949540D01*
X110467840Y-62005488D01*
X110428279Y-62074009D01*
X110428277Y-62074014D01*
X110415978Y-62119916D01*
X110381499Y-62164849D01*
X110325347Y-62172241D01*
X110280414Y-62137762D01*
X110270500Y-62100763D01*
X110270500Y-62091460D01*
X110232052Y-61898170D01*
X110232051Y-61898169D01*
X110232051Y-61898165D01*
X110156632Y-61716086D01*
X110047139Y-61552218D01*
X109907782Y-61412861D01*
X109844014Y-61370252D01*
X109743913Y-61303367D01*
X109561839Y-61227950D01*
X109561829Y-61227947D01*
X109427023Y-61201133D01*
X109368541Y-61189500D01*
X109171459Y-61189500D01*
X109116662Y-61200399D01*
X108978170Y-61227947D01*
X108978160Y-61227950D01*
X108796086Y-61303367D01*
X108632218Y-61412860D01*
X108632217Y-61412862D01*
X108492862Y-61552217D01*
X108492860Y-61552218D01*
X108383367Y-61716086D01*
X108307950Y-61898160D01*
X108307947Y-61898170D01*
X108269500Y-62091460D01*
X108269500Y-62288539D01*
X108307947Y-62481829D01*
X108307950Y-62481839D01*
X108360857Y-62609567D01*
X108360857Y-62666204D01*
X108344816Y-62690211D01*
X107676703Y-63358326D01*
X107624377Y-63380000D01*
X97584836Y-63380000D01*
X97508414Y-63400477D01*
X97508409Y-63400479D01*
X97439888Y-63440040D01*
X96746940Y-64132988D01*
X96707379Y-64201509D01*
X96707377Y-64201514D01*
X96686900Y-64277935D01*
X68200000Y-64277935D01*
X68200000Y-60274000D01*
X68221674Y-60221674D01*
X68274000Y-60200000D01*
X131726000Y-60200000D01*
X131778326Y-60221674D01*
G37*
%TD.AperFunction*%
%TA.AperFunction,Conductor*%
G36*
X81308929Y-106210683D02*
G01*
X81321400Y-106251795D01*
X81321400Y-106595564D01*
X81341877Y-106671985D01*
X81341879Y-106671989D01*
X81356771Y-106697782D01*
X81356772Y-106697784D01*
X81381439Y-106740510D01*
X85025237Y-110384308D01*
X85046911Y-110436634D01*
X85045489Y-110451069D01*
X85029500Y-110531458D01*
X85029500Y-110728539D01*
X85067947Y-110921829D01*
X85067950Y-110921839D01*
X85120857Y-111049567D01*
X85120857Y-111106204D01*
X85104816Y-111130211D01*
X82171489Y-114063540D01*
X82115540Y-114119488D01*
X82075979Y-114188009D01*
X82075977Y-114188014D01*
X82055500Y-114264435D01*
X82055500Y-126387164D01*
X82075977Y-126463585D01*
X82075979Y-126463590D01*
X82115540Y-126532111D01*
X88246603Y-132663174D01*
X88268277Y-132715500D01*
X88246603Y-132767826D01*
X88194277Y-132789500D01*
X87550246Y-132789500D01*
X87548783Y-132789644D01*
X87541536Y-132790000D01*
X87370000Y-132790000D01*
X87370000Y-132961536D01*
X87369644Y-132968783D01*
X87369500Y-132970246D01*
X87369500Y-139726000D01*
X87347826Y-139778326D01*
X87295500Y-139800000D01*
X84964000Y-139800000D01*
X84911674Y-139778326D01*
X84890000Y-139726000D01*
X84890000Y-130300001D01*
X84890000Y-130300000D01*
X84886157Y-130260982D01*
X84874776Y-130223463D01*
X84856294Y-130188886D01*
X84831421Y-130158579D01*
X84801114Y-130133706D01*
X84766537Y-130115224D01*
X84740400Y-130107295D01*
X84729019Y-130103843D01*
X84709509Y-130101921D01*
X84690000Y-130100000D01*
X84689999Y-130100000D01*
X82290001Y-130100000D01*
X82290000Y-130100000D01*
X82276994Y-130101281D01*
X82250980Y-130103843D01*
X82228218Y-130110748D01*
X82213463Y-130115224D01*
X82213461Y-130115224D01*
X82213461Y-130115225D01*
X82178887Y-130133705D01*
X82178883Y-130133708D01*
X82148579Y-130158579D01*
X82123708Y-130188883D01*
X82123705Y-130188887D01*
X82105225Y-130223461D01*
X82093843Y-130260980D01*
X82090000Y-130300001D01*
X82090000Y-132716000D01*
X82068326Y-132768326D01*
X82016000Y-132790000D01*
X81978464Y-132790000D01*
X81971217Y-132789644D01*
X81969754Y-132789500D01*
X81969748Y-132789500D01*
X79930252Y-132789500D01*
X79930246Y-132789500D01*
X79928783Y-132789644D01*
X79921536Y-132790000D01*
X79750000Y-132790000D01*
X79732326Y-132807674D01*
X79680000Y-132829348D01*
X79627674Y-132807674D01*
X79610000Y-132790000D01*
X79438464Y-132790000D01*
X79431217Y-132789644D01*
X79429754Y-132789500D01*
X79429748Y-132789500D01*
X78912423Y-132789500D01*
X78860097Y-132767826D01*
X78838423Y-132715500D01*
X78860097Y-132663174D01*
X78914866Y-132608405D01*
X79160460Y-132362811D01*
X79166262Y-132352762D01*
X79200021Y-132294289D01*
X79220499Y-132217864D01*
X79220500Y-132217864D01*
X79220500Y-106653838D01*
X79242174Y-106601512D01*
X79294500Y-106579838D01*
X79346826Y-106601512D01*
X79356026Y-106612722D01*
X79373852Y-106639401D01*
X79412860Y-106697781D01*
X79552218Y-106837139D01*
X79716086Y-106946632D01*
X79885451Y-107016785D01*
X79898165Y-107022051D01*
X80091459Y-107060500D01*
X80091461Y-107060500D01*
X80288539Y-107060500D01*
X80288541Y-107060500D01*
X80481835Y-107022051D01*
X80663914Y-106946632D01*
X80827782Y-106837139D01*
X80967139Y-106697782D01*
X81076632Y-106533914D01*
X81152051Y-106351835D01*
X81174822Y-106237357D01*
X81206288Y-106190266D01*
X81261837Y-106179217D01*
X81308929Y-106210683D01*
G37*
%TD.AperFunction*%
%TA.AperFunction,Conductor*%
G36*
X110418526Y-110737294D02*
G01*
X110438778Y-110775183D01*
X110467947Y-110921829D01*
X110467950Y-110921839D01*
X110543367Y-111103913D01*
X110652860Y-111267781D01*
X110792218Y-111407139D01*
X110956086Y-111516632D01*
X111095913Y-111574550D01*
X111138165Y-111592051D01*
X111331459Y-111630500D01*
X111331461Y-111630500D01*
X111528539Y-111630500D01*
X111528541Y-111630500D01*
X111721835Y-111592051D01*
X111849568Y-111539142D01*
X111906204Y-111539142D01*
X111930212Y-111555183D01*
X112408026Y-112032997D01*
X112429700Y-112085323D01*
X112429700Y-125321358D01*
X112408026Y-125373684D01*
X112355700Y-125395358D01*
X112303374Y-125373684D01*
X112294171Y-125362470D01*
X112207139Y-125232218D01*
X112067781Y-125092860D01*
X111903913Y-124983367D01*
X111721839Y-124907950D01*
X111721829Y-124907947D01*
X111592388Y-124882200D01*
X111528541Y-124869500D01*
X111331459Y-124869500D01*
X111276662Y-124880399D01*
X111138170Y-124907947D01*
X111138160Y-124907950D01*
X110956086Y-124983367D01*
X110792218Y-125092860D01*
X110792217Y-125092862D01*
X110652862Y-125232217D01*
X110652860Y-125232218D01*
X110543367Y-125396086D01*
X110467950Y-125578160D01*
X110467947Y-125578170D01*
X110429500Y-125771460D01*
X110429500Y-125968539D01*
X110467947Y-126161829D01*
X110467950Y-126161839D01*
X110543367Y-126343913D01*
X110648579Y-126501373D01*
X110652861Y-126507782D01*
X110792218Y-126647139D01*
X110956086Y-126756632D01*
X111138165Y-126832051D01*
X111331459Y-126870500D01*
X111331461Y-126870500D01*
X111528539Y-126870500D01*
X111528541Y-126870500D01*
X111721835Y-126832051D01*
X111903914Y-126756632D01*
X112067782Y-126647139D01*
X112207139Y-126507782D01*
X112294171Y-126377528D01*
X112341263Y-126346063D01*
X112396812Y-126357112D01*
X112428278Y-126404204D01*
X112429700Y-126418641D01*
X112429700Y-127009764D01*
X112450177Y-127086185D01*
X112450180Y-127086191D01*
X112457666Y-127099156D01*
X112457667Y-127099160D01*
X112457668Y-127099160D01*
X112489740Y-127154711D01*
X113647826Y-128312797D01*
X113669500Y-128365123D01*
X113669500Y-132715500D01*
X113647826Y-132767826D01*
X113595500Y-132789500D01*
X112950246Y-132789500D01*
X112948783Y-132789644D01*
X112941536Y-132790000D01*
X112770000Y-132790000D01*
X112752326Y-132807674D01*
X112700000Y-132829348D01*
X112647674Y-132807674D01*
X112630000Y-132790000D01*
X112458464Y-132790000D01*
X112451217Y-132789644D01*
X112449754Y-132789500D01*
X112449748Y-132789500D01*
X111804500Y-132789500D01*
X111752174Y-132767826D01*
X111730500Y-132715500D01*
X111730500Y-132648736D01*
X111730499Y-132648735D01*
X111729912Y-132646546D01*
X111711760Y-132578800D01*
X111710022Y-132572314D01*
X111710020Y-132572309D01*
X111672308Y-132506990D01*
X111670460Y-132503789D01*
X111614511Y-132447840D01*
X111575237Y-132425165D01*
X111545990Y-132408279D01*
X111545985Y-132408277D01*
X111469564Y-132387800D01*
X111469562Y-132387800D01*
X110825123Y-132387800D01*
X110772797Y-132366126D01*
X110682174Y-132275503D01*
X110660500Y-132223177D01*
X110660500Y-132112406D01*
X110660499Y-132112405D01*
X110632118Y-132006486D01*
X110626392Y-131985114D01*
X110560500Y-131870986D01*
X110467314Y-131777800D01*
X110455728Y-131771111D01*
X110353190Y-131711910D01*
X110353181Y-131711906D01*
X110225894Y-131677800D01*
X110225892Y-131677800D01*
X110094108Y-131677800D01*
X110094106Y-131677800D01*
X109966818Y-131711906D01*
X109966809Y-131711910D01*
X109852685Y-131777800D01*
X109759500Y-131870985D01*
X109693610Y-131985109D01*
X109693606Y-131985118D01*
X109659500Y-132112405D01*
X109659500Y-132244194D01*
X109693606Y-132371481D01*
X109693610Y-132371490D01*
X109724600Y-132425165D01*
X109759500Y-132485614D01*
X109852686Y-132578800D01*
X109966814Y-132644692D01*
X109966820Y-132644693D01*
X109971292Y-132646546D01*
X109970695Y-132647986D01*
X109981505Y-132656281D01*
X109999352Y-132663674D01*
X110003178Y-132672912D01*
X110011113Y-132679001D01*
X110013633Y-132698153D01*
X110021026Y-132716000D01*
X110017198Y-132725239D01*
X110018504Y-132735154D01*
X110006744Y-132750479D01*
X109999352Y-132768326D01*
X109990113Y-132772152D01*
X109984025Y-132780087D01*
X109947026Y-132790000D01*
X109918464Y-132790000D01*
X109911217Y-132789644D01*
X109909754Y-132789500D01*
X109909748Y-132789500D01*
X109264500Y-132789500D01*
X109212174Y-132767826D01*
X109190500Y-132715500D01*
X109190500Y-128170438D01*
X109178328Y-128125011D01*
X109178328Y-128125010D01*
X109175559Y-128114678D01*
X109170022Y-128094012D01*
X109130460Y-128025489D01*
X107860874Y-126755903D01*
X107839200Y-126703577D01*
X107839200Y-126319599D01*
X107860874Y-126267273D01*
X107913200Y-126245599D01*
X107965526Y-126267273D01*
X107981567Y-126291281D01*
X108003367Y-126343913D01*
X108108579Y-126501373D01*
X108112861Y-126507782D01*
X108252218Y-126647139D01*
X108416086Y-126756632D01*
X108598165Y-126832051D01*
X108791459Y-126870500D01*
X108791461Y-126870500D01*
X108988539Y-126870500D01*
X108988541Y-126870500D01*
X109181835Y-126832051D01*
X109363914Y-126756632D01*
X109527782Y-126647139D01*
X109667139Y-126507782D01*
X109776632Y-126343914D01*
X109852051Y-126161835D01*
X109890500Y-125968541D01*
X109890500Y-125771459D01*
X109852051Y-125578165D01*
X109776632Y-125396086D01*
X109667139Y-125232218D01*
X109527782Y-125092861D01*
X109419572Y-125020557D01*
X109363913Y-124983367D01*
X109181839Y-124907950D01*
X109181829Y-124907947D01*
X109052388Y-124882200D01*
X108988541Y-124869500D01*
X108791459Y-124869500D01*
X108736662Y-124880399D01*
X108598170Y-124907947D01*
X108598160Y-124907950D01*
X108416086Y-124983367D01*
X108252218Y-125092860D01*
X108252217Y-125092862D01*
X108112862Y-125232217D01*
X108112860Y-125232218D01*
X108003367Y-125396086D01*
X107981567Y-125448718D01*
X107941519Y-125488767D01*
X107884882Y-125488767D01*
X107844833Y-125448719D01*
X107839200Y-125420400D01*
X107839200Y-115669666D01*
X107860874Y-115617340D01*
X107939200Y-115539014D01*
X108005092Y-115424886D01*
X108039199Y-115297594D01*
X108039200Y-115297594D01*
X108039200Y-115165806D01*
X108039199Y-115165805D01*
X108005093Y-115038518D01*
X108005092Y-115038514D01*
X107939200Y-114924386D01*
X107846014Y-114831200D01*
X107731890Y-114765310D01*
X107731881Y-114765306D01*
X107604594Y-114731200D01*
X107604592Y-114731200D01*
X107472808Y-114731200D01*
X107472806Y-114731200D01*
X107345518Y-114765306D01*
X107345509Y-114765310D01*
X107231385Y-114831200D01*
X107138200Y-114924385D01*
X107072310Y-115038509D01*
X107072306Y-115038518D01*
X107038200Y-115165805D01*
X107038200Y-115297594D01*
X107072306Y-115424881D01*
X107072310Y-115424890D01*
X107138200Y-115539014D01*
X107216526Y-115617340D01*
X107238200Y-115669666D01*
X107238200Y-125164627D01*
X107216526Y-125216953D01*
X107164200Y-125238627D01*
X107111874Y-125216953D01*
X106987781Y-125092860D01*
X106823913Y-124983367D01*
X106641839Y-124907950D01*
X106641829Y-124907947D01*
X106512388Y-124882200D01*
X106448541Y-124869500D01*
X106251459Y-124869500D01*
X106196662Y-124880399D01*
X106058170Y-124907947D01*
X106058160Y-124907950D01*
X105876086Y-124983367D01*
X105712218Y-125092860D01*
X105712217Y-125092862D01*
X105572862Y-125232217D01*
X105572860Y-125232218D01*
X105546229Y-125272076D01*
X105499137Y-125303542D01*
X105443588Y-125292493D01*
X105412122Y-125245401D01*
X105410700Y-125230964D01*
X105410700Y-118659640D01*
X105410700Y-118659638D01*
X105390222Y-118583212D01*
X105350660Y-118514689D01*
X105135274Y-118299303D01*
X105113600Y-118246977D01*
X105113600Y-118136206D01*
X105113599Y-118136205D01*
X105079493Y-118008918D01*
X105079492Y-118008914D01*
X105013600Y-117894786D01*
X104920414Y-117801600D01*
X104871428Y-117773318D01*
X104806290Y-117735710D01*
X104806281Y-117735706D01*
X104678994Y-117701600D01*
X104678992Y-117701600D01*
X104547208Y-117701600D01*
X104547206Y-117701600D01*
X104419918Y-117735706D01*
X104419909Y-117735710D01*
X104305785Y-117801600D01*
X104212600Y-117894785D01*
X104146710Y-118008909D01*
X104146706Y-118008918D01*
X104112600Y-118136205D01*
X104112600Y-118267994D01*
X104146706Y-118395281D01*
X104146707Y-118395284D01*
X104146708Y-118395286D01*
X104212600Y-118509414D01*
X104305786Y-118602600D01*
X104419914Y-118668492D01*
X104547205Y-118702599D01*
X104547206Y-118702600D01*
X104657977Y-118702600D01*
X104710303Y-118724274D01*
X104788026Y-118801997D01*
X104809700Y-118854323D01*
X104809700Y-125321358D01*
X104788026Y-125373684D01*
X104735700Y-125395358D01*
X104683374Y-125373684D01*
X104674171Y-125362470D01*
X104587139Y-125232218D01*
X104447781Y-125092860D01*
X104283913Y-124983367D01*
X104101839Y-124907950D01*
X104101829Y-124907947D01*
X103972388Y-124882200D01*
X103908541Y-124869500D01*
X103711459Y-124869500D01*
X103656662Y-124880399D01*
X103518170Y-124907947D01*
X103518160Y-124907950D01*
X103336086Y-124983367D01*
X103172218Y-125092860D01*
X103172217Y-125092862D01*
X103032862Y-125232217D01*
X103032860Y-125232218D01*
X102923367Y-125396086D01*
X102847950Y-125578160D01*
X102847947Y-125578170D01*
X102809500Y-125771460D01*
X102809500Y-125968539D01*
X102847947Y-126161829D01*
X102847950Y-126161839D01*
X102923367Y-126343913D01*
X103028579Y-126501373D01*
X103032861Y-126507782D01*
X103172218Y-126647139D01*
X103336086Y-126756632D01*
X103518165Y-126832051D01*
X103711459Y-126870500D01*
X103711461Y-126870500D01*
X103908539Y-126870500D01*
X103908541Y-126870500D01*
X104101835Y-126832051D01*
X104283914Y-126756632D01*
X104447782Y-126647139D01*
X104587139Y-126507782D01*
X104674171Y-126377528D01*
X104721263Y-126346063D01*
X104776812Y-126357112D01*
X104808278Y-126404204D01*
X104809700Y-126418641D01*
X104809700Y-127009764D01*
X104830177Y-127086185D01*
X104830180Y-127086191D01*
X104837666Y-127099156D01*
X104837667Y-127099160D01*
X104837668Y-127099160D01*
X104869740Y-127154711D01*
X106027826Y-128312797D01*
X106049500Y-128365123D01*
X106049500Y-132715500D01*
X106027826Y-132767826D01*
X105975500Y-132789500D01*
X105330246Y-132789500D01*
X105328783Y-132789644D01*
X105321536Y-132790000D01*
X105150000Y-132790000D01*
X105132326Y-132807674D01*
X105080000Y-132829348D01*
X105027674Y-132807674D01*
X105010000Y-132790000D01*
X104838464Y-132790000D01*
X104831217Y-132789644D01*
X104829754Y-132789500D01*
X104829748Y-132789500D01*
X104184500Y-132789500D01*
X104132174Y-132767826D01*
X104110500Y-132715500D01*
X104110500Y-132634536D01*
X104110499Y-132634535D01*
X104103497Y-132608405D01*
X104095565Y-132578800D01*
X104090022Y-132558114D01*
X104090020Y-132558109D01*
X104069193Y-132522036D01*
X104050460Y-132489589D01*
X103994511Y-132433640D01*
X103836374Y-132275503D01*
X103814700Y-132223177D01*
X103814700Y-132112406D01*
X103814699Y-132112405D01*
X103786318Y-132006486D01*
X103780592Y-131985114D01*
X103714700Y-131870986D01*
X103621514Y-131777800D01*
X103609928Y-131771111D01*
X103507390Y-131711910D01*
X103507381Y-131711906D01*
X103380094Y-131677800D01*
X103380092Y-131677800D01*
X103248308Y-131677800D01*
X103248306Y-131677800D01*
X103121018Y-131711906D01*
X103121009Y-131711910D01*
X103006885Y-131777800D01*
X102913700Y-131870985D01*
X102847810Y-131985109D01*
X102847806Y-131985118D01*
X102813700Y-132112405D01*
X102813700Y-132244194D01*
X102847806Y-132371481D01*
X102847810Y-132371490D01*
X102878800Y-132425165D01*
X102913700Y-132485614D01*
X103006886Y-132578800D01*
X103121014Y-132644692D01*
X103121020Y-132644693D01*
X103125492Y-132646546D01*
X103124602Y-132648693D01*
X103163447Y-132678502D01*
X103170838Y-132734655D01*
X103136358Y-132779587D01*
X103099360Y-132789500D01*
X102790246Y-132789500D01*
X102788783Y-132789644D01*
X102781536Y-132790000D01*
X102610000Y-132790000D01*
X102592326Y-132807674D01*
X102540000Y-132829348D01*
X102487674Y-132807674D01*
X102470000Y-132790000D01*
X102298464Y-132790000D01*
X102291217Y-132789644D01*
X102289754Y-132789500D01*
X102289748Y-132789500D01*
X101644500Y-132789500D01*
X101621415Y-132779938D01*
X101597506Y-132772663D01*
X101595962Y-132769395D01*
X101592174Y-132767826D01*
X101570850Y-132722690D01*
X101570500Y-132719105D01*
X101570500Y-132648738D01*
X101561272Y-132614300D01*
X101550022Y-132572312D01*
X101510460Y-132503789D01*
X100463774Y-131457103D01*
X100442100Y-131404777D01*
X100442100Y-124408136D01*
X100442099Y-124408135D01*
X100421622Y-124331714D01*
X100421620Y-124331709D01*
X100391765Y-124279999D01*
X100382060Y-124263189D01*
X100326111Y-124207240D01*
X100095574Y-123976703D01*
X100073900Y-123924377D01*
X100073900Y-123813606D01*
X100073899Y-123813605D01*
X100064065Y-123776905D01*
X100039792Y-123686314D01*
X99973900Y-123572186D01*
X99880714Y-123479000D01*
X99766590Y-123413110D01*
X99766581Y-123413106D01*
X99639294Y-123379000D01*
X99639292Y-123379000D01*
X99507508Y-123379000D01*
X99507506Y-123379000D01*
X99380218Y-123413106D01*
X99380209Y-123413110D01*
X99266085Y-123479000D01*
X99172900Y-123572185D01*
X99107010Y-123686309D01*
X99107006Y-123686318D01*
X99072900Y-123813605D01*
X99072900Y-123945394D01*
X99107006Y-124072681D01*
X99107007Y-124072684D01*
X99107008Y-124072686D01*
X99172900Y-124186814D01*
X99266086Y-124280000D01*
X99380214Y-124345892D01*
X99507505Y-124379999D01*
X99507506Y-124380000D01*
X99618277Y-124380000D01*
X99670603Y-124401674D01*
X99819426Y-124550497D01*
X99841100Y-124602823D01*
X99841100Y-125576149D01*
X99819426Y-125628475D01*
X99767100Y-125650149D01*
X99714774Y-125628475D01*
X99694522Y-125590587D01*
X99694221Y-125589074D01*
X99692051Y-125578165D01*
X99616632Y-125396086D01*
X99507139Y-125232218D01*
X99367782Y-125092861D01*
X99259572Y-125020557D01*
X99203913Y-124983367D01*
X99021839Y-124907950D01*
X99021829Y-124907947D01*
X98892388Y-124882200D01*
X98828541Y-124869500D01*
X98631459Y-124869500D01*
X98576662Y-124880399D01*
X98438170Y-124907947D01*
X98438160Y-124907950D01*
X98256086Y-124983367D01*
X98092218Y-125092860D01*
X98092217Y-125092862D01*
X97952862Y-125232217D01*
X97952860Y-125232218D01*
X97843367Y-125396086D01*
X97767950Y-125578160D01*
X97767947Y-125578170D01*
X97729500Y-125771460D01*
X97729500Y-125968539D01*
X97767947Y-126161829D01*
X97767950Y-126161839D01*
X97843367Y-126343913D01*
X97948579Y-126501373D01*
X97952861Y-126507782D01*
X98092218Y-126647139D01*
X98256086Y-126756632D01*
X98438165Y-126832051D01*
X98631459Y-126870500D01*
X98631461Y-126870500D01*
X98828539Y-126870500D01*
X98828541Y-126870500D01*
X99021835Y-126832051D01*
X99203914Y-126756632D01*
X99367782Y-126647139D01*
X99507139Y-126507782D01*
X99616632Y-126343914D01*
X99692051Y-126161835D01*
X99694522Y-126149413D01*
X99725988Y-126102321D01*
X99781537Y-126091272D01*
X99828629Y-126122738D01*
X99841100Y-126163850D01*
X99841100Y-131599464D01*
X99861577Y-131675885D01*
X99861579Y-131675890D01*
X99901140Y-131744411D01*
X100819903Y-132663174D01*
X100841577Y-132715500D01*
X100819903Y-132767826D01*
X100767577Y-132789500D01*
X100250246Y-132789500D01*
X100248783Y-132789644D01*
X100241536Y-132790000D01*
X100070000Y-132790000D01*
X100052326Y-132807674D01*
X100000000Y-132829348D01*
X99947674Y-132807674D01*
X99930000Y-132790000D01*
X99758464Y-132790000D01*
X99751217Y-132789644D01*
X99749754Y-132789500D01*
X99749748Y-132789500D01*
X99104500Y-132789500D01*
X99052174Y-132767826D01*
X99030500Y-132715500D01*
X99030500Y-132444993D01*
X99040415Y-132407992D01*
X99058257Y-132377089D01*
X99061492Y-132371486D01*
X99095600Y-132244192D01*
X99095600Y-132112408D01*
X99095600Y-132112407D01*
X99095600Y-132112406D01*
X99095599Y-132112405D01*
X99067218Y-132006486D01*
X99061492Y-131985114D01*
X98995600Y-131870986D01*
X98902414Y-131777800D01*
X98890828Y-131771111D01*
X98788290Y-131711910D01*
X98788281Y-131711906D01*
X98660994Y-131677800D01*
X98660992Y-131677800D01*
X98529208Y-131677800D01*
X98529206Y-131677800D01*
X98401918Y-131711906D01*
X98401909Y-131711910D01*
X98287785Y-131777800D01*
X98194600Y-131870985D01*
X98128710Y-131985109D01*
X98128706Y-131985118D01*
X98094600Y-132112405D01*
X98094600Y-132244194D01*
X98128706Y-132371481D01*
X98128710Y-132371490D01*
X98159700Y-132425165D01*
X98194600Y-132485614D01*
X98287786Y-132578800D01*
X98392501Y-132639257D01*
X98398587Y-132647189D01*
X98407826Y-132651016D01*
X98415218Y-132668864D01*
X98426978Y-132684189D01*
X98429500Y-132703342D01*
X98429500Y-132715500D01*
X98407826Y-132767826D01*
X98355500Y-132789500D01*
X97710246Y-132789500D01*
X97708783Y-132789644D01*
X97701536Y-132790000D01*
X97530000Y-132790000D01*
X97512326Y-132807674D01*
X97460000Y-132829348D01*
X97407674Y-132807674D01*
X97390000Y-132790000D01*
X97218464Y-132790000D01*
X97211217Y-132789644D01*
X97209754Y-132789500D01*
X97209748Y-132789500D01*
X96564500Y-132789500D01*
X96512174Y-132767826D01*
X96490500Y-132715500D01*
X96490500Y-132648736D01*
X96490499Y-132648735D01*
X96489912Y-132646546D01*
X96471760Y-132578800D01*
X96470022Y-132572314D01*
X96470020Y-132572309D01*
X96432308Y-132506990D01*
X96430460Y-132503789D01*
X96374511Y-132447840D01*
X95410474Y-131483803D01*
X95388800Y-131431477D01*
X95388800Y-126662373D01*
X95410474Y-126610047D01*
X95462800Y-126588373D01*
X95515126Y-126610047D01*
X95552218Y-126647139D01*
X95716086Y-126756632D01*
X95898165Y-126832051D01*
X96091459Y-126870500D01*
X96091461Y-126870500D01*
X96288539Y-126870500D01*
X96288541Y-126870500D01*
X96481835Y-126832051D01*
X96663914Y-126756632D01*
X96827782Y-126647139D01*
X96967139Y-126507782D01*
X97076632Y-126343914D01*
X97152051Y-126161835D01*
X97190500Y-125968541D01*
X97190500Y-125771459D01*
X97152051Y-125578165D01*
X97076632Y-125396086D01*
X96967139Y-125232218D01*
X96827782Y-125092861D01*
X96719572Y-125020557D01*
X96663913Y-124983367D01*
X96481839Y-124907950D01*
X96481829Y-124907947D01*
X96352388Y-124882200D01*
X96288541Y-124869500D01*
X96091459Y-124869500D01*
X96036662Y-124880399D01*
X95898170Y-124907947D01*
X95898160Y-124907950D01*
X95716086Y-124983367D01*
X95552218Y-125092860D01*
X95552217Y-125092862D01*
X95515126Y-125129953D01*
X95462800Y-125151627D01*
X95410474Y-125129953D01*
X95388800Y-125077627D01*
X95388800Y-124323636D01*
X95382953Y-124301819D01*
X95377107Y-124280000D01*
X95377107Y-124279999D01*
X95377107Y-124279998D01*
X95368323Y-124247216D01*
X95368322Y-124247212D01*
X95328760Y-124178689D01*
X95090074Y-123940003D01*
X95068400Y-123887677D01*
X95068400Y-123776906D01*
X95068399Y-123776905D01*
X95034293Y-123649618D01*
X95034292Y-123649614D01*
X95020601Y-123625900D01*
X95013209Y-123569747D01*
X95047687Y-123524814D01*
X95084687Y-123514900D01*
X97964364Y-123514900D01*
X97964364Y-123514899D01*
X98040789Y-123494421D01*
X98109311Y-123454860D01*
X98165260Y-123398911D01*
X110232160Y-111332011D01*
X110271722Y-111263488D01*
X110292200Y-111187062D01*
X110292200Y-111107938D01*
X110292200Y-110789620D01*
X110313874Y-110737294D01*
X110366200Y-110715620D01*
X110418526Y-110737294D01*
G37*
%TD.AperFunction*%
%TA.AperFunction,Conductor*%
G36*
X104398853Y-97631574D02*
G01*
X104420527Y-97683900D01*
X104398853Y-97736226D01*
X104332862Y-97802217D01*
X104332860Y-97802218D01*
X104223367Y-97966086D01*
X104147950Y-98148160D01*
X104147947Y-98148170D01*
X104109500Y-98341460D01*
X104109500Y-98538539D01*
X104147947Y-98731829D01*
X104147950Y-98731839D01*
X104223367Y-98913913D01*
X104332860Y-99077781D01*
X104472218Y-99217139D01*
X104636086Y-99326632D01*
X104775913Y-99384550D01*
X104818165Y-99402051D01*
X105011459Y-99440500D01*
X105011461Y-99440500D01*
X105208539Y-99440500D01*
X105208541Y-99440500D01*
X105401835Y-99402051D01*
X105583914Y-99326632D01*
X105747782Y-99217139D01*
X105887139Y-99077782D01*
X105996632Y-98913914D01*
X106072051Y-98731835D01*
X106110500Y-98538541D01*
X106110500Y-98341459D01*
X106072051Y-98148165D01*
X105996632Y-97966086D01*
X105887139Y-97802218D01*
X105821147Y-97736226D01*
X105799473Y-97683900D01*
X105821147Y-97631574D01*
X105873473Y-97609900D01*
X106886527Y-97609900D01*
X106938853Y-97631574D01*
X106960527Y-97683900D01*
X106938853Y-97736226D01*
X106872862Y-97802217D01*
X106872860Y-97802218D01*
X106763367Y-97966086D01*
X106687950Y-98148160D01*
X106687947Y-98148170D01*
X106649500Y-98341460D01*
X106649500Y-98538539D01*
X106687947Y-98731829D01*
X106687950Y-98731839D01*
X106740857Y-98859567D01*
X106740857Y-98916204D01*
X106724816Y-98940211D01*
X103655489Y-102009540D01*
X103599540Y-102065488D01*
X103559979Y-102134009D01*
X103559977Y-102134014D01*
X103539500Y-102210435D01*
X103539500Y-105466161D01*
X103517826Y-105518487D01*
X103465500Y-105540161D01*
X103413174Y-105518487D01*
X103403971Y-105507273D01*
X103347139Y-105422218D01*
X103207781Y-105282860D01*
X103043913Y-105173367D01*
X102861839Y-105097950D01*
X102861829Y-105097947D01*
X102732388Y-105072200D01*
X102668541Y-105059500D01*
X102471459Y-105059500D01*
X102416662Y-105070399D01*
X102278170Y-105097947D01*
X102278160Y-105097950D01*
X102150431Y-105150857D01*
X102093794Y-105150857D01*
X102069787Y-105134816D01*
X101643411Y-104708440D01*
X101574890Y-104668879D01*
X101574885Y-104668877D01*
X101498464Y-104648400D01*
X101498462Y-104648400D01*
X83880662Y-104648400D01*
X83801538Y-104648400D01*
X83725112Y-104668878D01*
X83725111Y-104668878D01*
X83725109Y-104668879D01*
X83725107Y-104668880D01*
X83656590Y-104708438D01*
X83230211Y-105134816D01*
X83177885Y-105156490D01*
X83149567Y-105150857D01*
X83021839Y-105097950D01*
X83021829Y-105097947D01*
X82892388Y-105072200D01*
X82828541Y-105059500D01*
X82720322Y-105059500D01*
X82667996Y-105037826D01*
X82646322Y-104985500D01*
X82667996Y-104933174D01*
X86374497Y-101226674D01*
X86426823Y-101205000D01*
X97453864Y-101205000D01*
X97453864Y-101204999D01*
X97530289Y-101184521D01*
X97598811Y-101144960D01*
X97654760Y-101089011D01*
X101112197Y-97631574D01*
X101164523Y-97609900D01*
X104346527Y-97609900D01*
X104398853Y-97631574D01*
G37*
%TD.AperFunction*%
%TD*%
M02*
