%TF.GenerationSoftware,KiCad,Pcbnew,10.0.3*%
%TF.CreationDate,2026-06-16T20:38:53-04:00*%
%TF.ProjectId,index,696e6465-782e-46b6-9963-61645f706362,rev?*%
%TF.SameCoordinates,Original*%
%TF.FileFunction,Copper,L1,Top*%
%TF.FilePolarity,Positive*%
%FSLAX46Y46*%
G04 Gerber Fmt 4.6, Leading zero omitted, Abs format (unit mm)*
G04 Created by KiCad (PCBNEW 10.0.3) date 2026-06-16 20:38:53*
%MOMM*%
%LPD*%
G01*
G04 APERTURE LIST*
%TA.AperFunction,ComponentPad*%
%ADD10C,1.400000*%
%TD*%
%TA.AperFunction,ComponentPad*%
%ADD11R,1.600000X1.600000*%
%TD*%
%TA.AperFunction,ComponentPad*%
%ADD12C,1.600000*%
%TD*%
%TA.AperFunction,ComponentPad*%
%ADD13C,0.600000*%
%TD*%
%TA.AperFunction,SMDPad,CuDef*%
%ADD14R,2.000000X7.000000*%
%TD*%
%TA.AperFunction,ViaPad*%
%ADD15C,0.600000*%
%TD*%
%TA.AperFunction,Conductor*%
%ADD16C,0.200000*%
%TD*%
G04 APERTURE END LIST*
D10*
%TO.P,RAUDIOB,1*%
%TO.N,ANALOG_B*%
X120730000Y-73750000D03*
%TO.P,RAUDIOB,2*%
%TO.N,SUM_NODE*%
X123270000Y-73750000D03*
%TD*%
D11*
%TO.P,U5,1*%
%TO.N,OPAMP_OUT*%
X111810000Y-62190000D03*
D12*
%TO.P,U5,2*%
%TO.N,SUM_NODE*%
X109270000Y-62190000D03*
%TO.P,U5,3*%
%TO.N,GND*%
X106730000Y-62190000D03*
%TO.P,U5,4*%
X104190000Y-62190000D03*
%TO.P,U5,5*%
X104190000Y-69810000D03*
%TO.P,U5,6*%
%TO.N,U5_UNUSED_FB*%
X106730000Y-69810000D03*
%TO.P,U5,7*%
X109270000Y-69810000D03*
%TO.P,U5,8*%
%TO.N,VCC*%
X111810000Y-69810000D03*
%TD*%
D13*
%TO.P,U7,1*%
%TO.N,GND*%
X130000000Y-84250000D03*
%TD*%
D11*
%TO.P,U1,1*%
%TO.N,VCC*%
X116510000Y-110630000D03*
D12*
%TO.P,U1,2*%
%TO.N,A12*%
X113970000Y-110630000D03*
%TO.P,U1,3*%
%TO.N,A7*%
X111430000Y-110630000D03*
%TO.P,U1,4*%
%TO.N,A6*%
X108890000Y-110630000D03*
%TO.P,U1,5*%
%TO.N,A5*%
X106350000Y-110630000D03*
%TO.P,U1,6*%
%TO.N,A4*%
X103810000Y-110630000D03*
%TO.P,U1,7*%
%TO.N,A3*%
X101270000Y-110630000D03*
%TO.P,U1,8*%
%TO.N,A2*%
X98730000Y-110630000D03*
%TO.P,U1,9*%
%TO.N,A1*%
X96190000Y-110630000D03*
%TO.P,U1,10*%
%TO.N,A0*%
X93650000Y-110630000D03*
%TO.P,U1,11*%
%TO.N,D0*%
X91110000Y-110630000D03*
%TO.P,U1,12*%
%TO.N,D1*%
X88570000Y-110630000D03*
%TO.P,U1,13*%
%TO.N,D2*%
X86030000Y-110630000D03*
%TO.P,U1,14*%
%TO.N,GND*%
X83490000Y-110630000D03*
%TO.P,U1,15*%
%TO.N,D3*%
X83490000Y-125870000D03*
%TO.P,U1,16*%
%TO.N,D4*%
X86030000Y-125870000D03*
%TO.P,U1,17*%
%TO.N,D5*%
X88570000Y-125870000D03*
%TO.P,U1,18*%
%TO.N,D6*%
X91110000Y-125870000D03*
%TO.P,U1,19*%
%TO.N,D7*%
X93650000Y-125870000D03*
%TO.P,U1,20*%
%TO.N,ROM_CE*%
X96190000Y-125870000D03*
%TO.P,U1,21*%
%TO.N,A10*%
X98730000Y-125870000D03*
%TO.P,U1,22*%
%TO.N,GND*%
X101270000Y-125870000D03*
%TO.P,U1,23*%
%TO.N,A11*%
X103810000Y-125870000D03*
%TO.P,U1,24*%
%TO.N,A9*%
X106350000Y-125870000D03*
%TO.P,U1,25*%
%TO.N,A8*%
X108890000Y-125870000D03*
%TO.P,U1,26*%
%TO.N,A13*%
X111430000Y-125870000D03*
%TO.P,U1,27*%
%TO.N,A14*%
X113970000Y-125870000D03*
%TO.P,U1,28*%
%TO.N,VCC*%
X116510000Y-125870000D03*
%TD*%
D10*
%TO.P,RAUDIOA,1*%
%TO.N,ANALOG_A*%
X114730000Y-73750000D03*
%TO.P,RAUDIOA,2*%
%TO.N,SUM_NODE*%
X117270000Y-73750000D03*
%TD*%
%TO.P,CRESET1,1*%
%TO.N,RESET_DELAYED*%
X78730000Y-95750000D03*
%TO.P,CRESET1,2*%
%TO.N,GND*%
X81270000Y-95750000D03*
%TD*%
%TO.P,RSERIES,1*%
%TO.N,OPAMP_OUT*%
X118000000Y-67270000D03*
%TO.P,RSERIES,2*%
%TO.N,CAP_PLUS*%
X118000000Y-64730000D03*
%TD*%
%TO.P,RPULL,1*%
%TO.N,OPAMP_OUT*%
X128000000Y-67270000D03*
%TO.P,RPULL,2*%
%TO.N,GND*%
X128000000Y-64730000D03*
%TD*%
D11*
%TO.P,U4,1*%
%TO.N,GND*%
X124130000Y-76630000D03*
D12*
%TO.P,U4,2*%
%TO.N,N/C*%
X121590000Y-76630000D03*
%TO.P,U4,3*%
%TO.N,ANALOG_B*%
X119050000Y-76630000D03*
%TO.P,U4,4*%
%TO.N,ANALOG_A*%
X116510000Y-76630000D03*
%TO.P,U4,5*%
%TO.N,N/C*%
X113970000Y-76630000D03*
%TO.P,U4,6*%
X111430000Y-76630000D03*
%TO.P,U4,7*%
X108890000Y-76630000D03*
%TO.P,U4,8*%
X106350000Y-76630000D03*
%TO.P,U4,9*%
X103810000Y-76630000D03*
%TO.P,U4,10*%
X101270000Y-76630000D03*
%TO.P,U4,11*%
X98730000Y-76630000D03*
%TO.P,U4,12*%
X96190000Y-76630000D03*
%TO.P,U4,13*%
X93650000Y-76630000D03*
%TO.P,U4,14*%
X91110000Y-76630000D03*
%TO.P,U4,15*%
X88570000Y-76630000D03*
%TO.P,U4,16*%
X86030000Y-76630000D03*
%TO.P,U4,17*%
X83490000Y-76630000D03*
%TO.P,U4,18*%
X80950000Y-76630000D03*
%TO.P,U4,19*%
X78410000Y-76630000D03*
%TO.P,U4,20*%
X75870000Y-76630000D03*
%TO.P,U4,21*%
X75870000Y-91870000D03*
%TO.P,U4,22*%
%TO.N,PHI2OUT*%
X78410000Y-91870000D03*
%TO.P,U4,23*%
%TO.N,RESET_DELAYED*%
X80950000Y-91870000D03*
%TO.P,U4,24*%
%TO.N,GND*%
X83490000Y-91870000D03*
%TO.P,U4,25*%
%TO.N,VCC*%
X86030000Y-91870000D03*
%TO.P,U4,26*%
%TO.N,N/C*%
X88570000Y-91870000D03*
%TO.P,U4,27*%
%TO.N,BDIR*%
X91110000Y-91870000D03*
%TO.P,U4,28*%
%TO.N,VCC*%
X93650000Y-91870000D03*
%TO.P,U4,29*%
%TO.N,BC1*%
X96190000Y-91870000D03*
%TO.P,U4,30*%
%TO.N,DA7*%
X98730000Y-91870000D03*
%TO.P,U4,31*%
%TO.N,DA6*%
X101270000Y-91870000D03*
%TO.P,U4,32*%
%TO.N,DA5*%
X103810000Y-91870000D03*
%TO.P,U4,33*%
%TO.N,DA4*%
X106350000Y-91870000D03*
%TO.P,U4,34*%
%TO.N,DA3*%
X108890000Y-91870000D03*
%TO.P,U4,35*%
%TO.N,DA2*%
X111430000Y-91870000D03*
%TO.P,U4,36*%
%TO.N,DA1*%
X113970000Y-91870000D03*
%TO.P,U4,37*%
%TO.N,DA0*%
X116510000Y-91870000D03*
%TO.P,U4,38*%
%TO.N,ANALOG_C*%
X119050000Y-91870000D03*
%TO.P,U4,39*%
%TO.N,N/C*%
X121590000Y-91870000D03*
%TO.P,U4,40*%
%TO.N,VCC*%
X124130000Y-91870000D03*
%TD*%
D10*
%TO.P,RFB,1*%
%TO.N,SUM_NODE*%
X98000000Y-67270000D03*
%TO.P,RFB,2*%
%TO.N,OPAMP_OUT*%
X98000000Y-64730000D03*
%TD*%
%TO.P,C5,1*%
%TO.N,CAP_PLUS*%
X123000000Y-67270000D03*
%TO.P,C5,2*%
%TO.N,OPAMP_OUT_AC*%
X123000000Y-64730000D03*
%TD*%
D14*
%TO.P,J1,1*%
%TO.N,RW*%
X78410000Y-136490000D03*
%TO.P,J1,2*%
%TO.N,HALT*%
X80950000Y-136490000D03*
%TO.P,J1,3*%
%TO.N,D3*%
X86030000Y-136490000D03*
%TO.P,J1,4*%
%TO.N,D4*%
X88570000Y-136490000D03*
%TO.P,J1,5*%
%TO.N,D5*%
X91110000Y-136490000D03*
%TO.P,J1,6*%
%TO.N,D6*%
X93650000Y-136490000D03*
%TO.P,J1,7*%
%TO.N,D7*%
X96190000Y-136490000D03*
%TO.P,J1,8*%
%TO.N,A12*%
X98730000Y-136490000D03*
%TO.P,J1,9*%
%TO.N,A10*%
X101270000Y-136490000D03*
%TO.P,J1,10*%
%TO.N,A11*%
X103810000Y-136490000D03*
%TO.P,J1,11*%
%TO.N,A9*%
X106350000Y-136490000D03*
%TO.P,J1,12*%
%TO.N,A8*%
X108890000Y-136490000D03*
%TO.P,J1,13*%
%TO.N,VCC*%
X111430000Y-136490000D03*
%TO.P,J1,14*%
%TO.N,GND*%
X113970000Y-136490000D03*
%TO.P,J1,15*%
%TO.N,A13*%
X119050000Y-136490000D03*
%TO.P,J1,16*%
%TO.N,A14*%
X121590000Y-136490000D03*
%TD*%
D10*
%TO.P,RRESET1,1*%
%TO.N,VCC*%
X84730000Y-95750000D03*
%TO.P,RRESET1,2*%
%TO.N,RESET_DELAYED*%
X87270000Y-95750000D03*
%TD*%
D13*
%TO.P,U6,1*%
%TO.N,GND*%
X131000000Y-115000000D03*
%TD*%
D10*
%TO.P,RAUDIOC,1*%
%TO.N,ANALOG_C*%
X118730000Y-95750000D03*
%TO.P,RAUDIOC,2*%
%TO.N,SUM_NODE*%
X121270000Y-95750000D03*
%TD*%
D11*
%TO.P,U2,1*%
%TO.N,N/C*%
X95430000Y-98440000D03*
D12*
%TO.P,U2,2*%
%TO.N,A15*%
X92890000Y-98440000D03*
%TO.P,U2,3*%
%TO.N,A14*%
X90350000Y-98440000D03*
%TO.P,U2,4*%
%TO.N,A0*%
X87810000Y-98440000D03*
%TO.P,U2,5*%
%TO.N,HALT*%
X85270000Y-98440000D03*
%TO.P,U2,6*%
%TO.N,RW*%
X82730000Y-98440000D03*
%TO.P,U2,7*%
%TO.N,PHI2*%
X80190000Y-98440000D03*
%TO.P,U2,8*%
%TO.N,N/C*%
X77650000Y-98440000D03*
%TO.P,U2,9*%
X75110000Y-98440000D03*
%TO.P,U2,10*%
%TO.N,GND*%
X72570000Y-98440000D03*
%TO.P,U2,11*%
%TO.N,N/C*%
X72570000Y-106060000D03*
%TO.P,U2,12*%
X75110000Y-106060000D03*
%TO.P,U2,13*%
X77650000Y-106060000D03*
%TO.P,U2,14*%
X80190000Y-106060000D03*
%TO.P,U2,15*%
%TO.N,YM_LE*%
X82730000Y-106060000D03*
%TO.P,U2,16*%
%TO.N,PHI2OUT*%
X85270000Y-106060000D03*
%TO.P,U2,17*%
%TO.N,BC1*%
X87810000Y-106060000D03*
%TO.P,U2,18*%
%TO.N,BDIR*%
X90350000Y-106060000D03*
%TO.P,U2,19*%
%TO.N,ROM_CE*%
X92890000Y-106060000D03*
%TO.P,U2,20*%
%TO.N,VCC*%
X95430000Y-106060000D03*
%TD*%
D11*
%TO.P,U3,1*%
%TO.N,GND*%
X125430000Y-98440000D03*
D12*
%TO.P,U3,2*%
%TO.N,DA0*%
X122890000Y-98440000D03*
%TO.P,U3,3*%
%TO.N,D0*%
X120350000Y-98440000D03*
%TO.P,U3,4*%
%TO.N,D1*%
X117810000Y-98440000D03*
%TO.P,U3,5*%
%TO.N,DA1*%
X115270000Y-98440000D03*
%TO.P,U3,6*%
%TO.N,DA2*%
X112730000Y-98440000D03*
%TO.P,U3,7*%
%TO.N,D2*%
X110190000Y-98440000D03*
%TO.P,U3,8*%
%TO.N,D3*%
X107650000Y-98440000D03*
%TO.P,U3,9*%
%TO.N,DA3*%
X105110000Y-98440000D03*
%TO.P,U3,10*%
%TO.N,GND*%
X102570000Y-98440000D03*
%TO.P,U3,11*%
%TO.N,YM_LE*%
X102570000Y-106060000D03*
%TO.P,U3,12*%
%TO.N,DA4*%
X105110000Y-106060000D03*
%TO.P,U3,13*%
%TO.N,D4*%
X107650000Y-106060000D03*
%TO.P,U3,14*%
%TO.N,D5*%
X110190000Y-106060000D03*
%TO.P,U3,15*%
%TO.N,DA5*%
X112730000Y-106060000D03*
%TO.P,U3,16*%
%TO.N,DA6*%
X115270000Y-106060000D03*
%TO.P,U3,17*%
%TO.N,D6*%
X117810000Y-106060000D03*
%TO.P,U3,18*%
%TO.N,D7*%
X120350000Y-106060000D03*
%TO.P,U3,19*%
%TO.N,DA7*%
X122890000Y-106060000D03*
%TO.P,U3,20*%
%TO.N,VCC*%
X125430000Y-106060000D03*
%TD*%
D15*
%TO.N,A6*%
X110160000Y-132178300D03*
%TO.N,A5*%
X107538700Y-115231700D03*
%TO.N,A4*%
X104613100Y-118202100D03*
%TO.N,A3*%
X103314200Y-132178300D03*
%TO.N,A2*%
X99573400Y-123879500D03*
%TO.N,A1*%
X98595100Y-132178300D03*
%TO.N,A0*%
X83195500Y-100414300D03*
X85844200Y-107504400D03*
X94567900Y-123842800D03*
%TO.N,D0*%
X93956900Y-132178300D03*
%TO.N,D1*%
X89840000Y-132178300D03*
%TO.N,ROM_CE*%
X96587000Y-112080300D03*
%TO.N,A13*%
X113709100Y-123751600D03*
X118938300Y-132313800D03*
%TO.N,A14*%
X119073800Y-129877700D03*
X113824300Y-105088900D03*
%TO.N,DA5*%
X112181600Y-102791000D03*
%TO.N,OPAMP_OUT_AC*%
X122666300Y-117966500D03*
%TO.N,A15*%
X121300300Y-131888200D03*
X95741800Y-100414300D03*
%TD*%
%TO.N,ANALOG_B*%
D16*
X120730000Y-73750000D02*
X119050000Y-75430000D01*
X119050000Y-75430000D02*
X119050000Y-76630000D01*
%TO.N,SUM_NODE*%
X109270000Y-62190000D02*
X117270000Y-70190000D01*
X117270000Y-70190000D02*
X117270000Y-73750000D01*
%TO.N,VCC*%
X111810000Y-72825000D02*
X115240000Y-76255000D01*
X84730000Y-93170000D02*
X86030000Y-91870000D01*
X111810000Y-69810000D02*
X111810000Y-72825000D01*
X115240000Y-76255000D02*
X115240000Y-82980000D01*
X93650000Y-91870000D02*
X94301500Y-92521500D01*
X124130000Y-104760000D02*
X125430000Y-106060000D01*
X111430000Y-136490000D02*
X111430000Y-130950000D01*
X116510000Y-125870000D02*
X116510000Y-110630000D01*
X94301500Y-92521500D02*
X94301500Y-104931500D01*
X115240000Y-82980000D02*
X124130000Y-91870000D01*
X111430000Y-130950000D02*
X116510000Y-125870000D01*
X124130000Y-91870000D02*
X124130000Y-104760000D01*
X94301500Y-104931500D02*
X95430000Y-106060000D01*
X84730000Y-95750000D02*
X84730000Y-93170000D01*
%TO.N,A12*%
X112859300Y-111740700D02*
X110982700Y-111740700D01*
X97618700Y-110172900D02*
X97618700Y-128588800D01*
X110328300Y-110487200D02*
X109328100Y-109487000D01*
X110982700Y-111740700D02*
X110328300Y-111086300D01*
X97618700Y-128588800D02*
X99214000Y-130184100D01*
X109328100Y-109487000D02*
X98304600Y-109487000D01*
X110328300Y-111086300D02*
X110328300Y-110487200D01*
X99214000Y-130184100D02*
X99214000Y-136006000D01*
X98304600Y-109487000D02*
X97618700Y-110172900D01*
X113970000Y-110630000D02*
X112859300Y-111740700D01*
X99214000Y-136006000D02*
X98730000Y-136490000D01*
%TO.N,A6*%
X114350800Y-116090800D02*
X114350800Y-124028300D01*
X113692200Y-124560800D02*
X112700000Y-125553000D01*
X108890000Y-110630000D02*
X114350800Y-116090800D01*
X114350800Y-124028300D02*
X113818300Y-124560800D01*
X110160000Y-131429900D02*
X110160000Y-132178300D01*
X113818300Y-124560800D02*
X113692200Y-124560800D01*
X112700000Y-128889900D02*
X110160000Y-131429900D01*
X112700000Y-125553000D02*
X112700000Y-128889900D01*
%TO.N,A5*%
X106350000Y-110630000D02*
X106350000Y-114043000D01*
X106350000Y-114043000D02*
X107538700Y-115231700D01*
%TO.N,A4*%
X103810000Y-117399000D02*
X104613100Y-118202100D01*
X103810000Y-110630000D02*
X103810000Y-117399000D01*
%TO.N,A3*%
X103314200Y-129879300D02*
X100151900Y-126717000D01*
X100151900Y-126717000D02*
X100151900Y-124151900D01*
X101270000Y-123033800D02*
X101270000Y-110630000D01*
X100151900Y-124151900D02*
X101270000Y-123033800D01*
X103314200Y-132178300D02*
X103314200Y-129879300D01*
%TO.N,A2*%
X99573400Y-123879500D02*
X98730000Y-123036100D01*
X98730000Y-123036100D02*
X98730000Y-110630000D01*
%TO.N,A1*%
X98595100Y-130240200D02*
X98595100Y-132178300D01*
X95071900Y-124189700D02*
X95071900Y-126717000D01*
X95985300Y-123276300D02*
X95071900Y-124189700D01*
X96190000Y-110630000D02*
X95985300Y-110834700D01*
X95071900Y-126717000D02*
X98595100Y-130240200D01*
X95985300Y-110834700D02*
X95985300Y-123276300D01*
%TO.N,A0*%
X84000000Y-106438200D02*
X85066200Y-107504400D01*
X93650000Y-122924900D02*
X93650000Y-110630000D01*
X94567900Y-123842800D02*
X93650000Y-122924900D01*
X83195500Y-100414300D02*
X83195500Y-104560300D01*
X85066200Y-107504400D02*
X85844200Y-107504400D01*
X84000000Y-105364800D02*
X84000000Y-106438200D01*
X83195500Y-104560300D02*
X84000000Y-105364800D01*
%TO.N,D0*%
X109072000Y-108745200D02*
X92994800Y-108745200D01*
X92994800Y-108745200D02*
X91110000Y-110630000D01*
X92548300Y-112068300D02*
X92548300Y-126733400D01*
X120350000Y-98440000D02*
X116273400Y-102516600D01*
X111460000Y-105708200D02*
X111460000Y-106357200D01*
X91110000Y-110630000D02*
X92548300Y-112068300D01*
X92548300Y-126733400D02*
X93956900Y-128142000D01*
X111460000Y-106357200D02*
X109072000Y-108745200D01*
X116273400Y-102516600D02*
X114651600Y-102516600D01*
X114651600Y-102516600D02*
X111460000Y-105708200D01*
X93956900Y-128142000D02*
X93956900Y-132178300D01*
%TO.N,D1*%
X108920000Y-106357200D02*
X107985100Y-107292100D01*
X107985100Y-107292100D02*
X91907900Y-107292100D01*
X91907900Y-107292100D02*
X88570000Y-110630000D01*
X88570000Y-110630000D02*
X87451900Y-111748100D01*
X110798900Y-103851900D02*
X108920000Y-105730800D01*
X87451900Y-111748100D02*
X87451900Y-126358800D01*
X89840000Y-128746900D02*
X89840000Y-132178300D01*
X87451900Y-126358800D02*
X89840000Y-128746900D01*
X108920000Y-105730800D02*
X108920000Y-106357200D01*
X117810000Y-98440000D02*
X112398100Y-103851900D01*
X112398100Y-103851900D02*
X110798900Y-103851900D01*
%TO.N,D3*%
X83490000Y-125870000D02*
X86030000Y-128410000D01*
X86030000Y-128410000D02*
X86030000Y-136490000D01*
%TO.N,D4*%
X88570000Y-128410000D02*
X88570000Y-136490000D01*
X86030000Y-125870000D02*
X88570000Y-128410000D01*
%TO.N,D5*%
X91110000Y-128410000D02*
X91110000Y-136490000D01*
X88570000Y-125870000D02*
X91110000Y-128410000D01*
%TO.N,D6*%
X91110000Y-125870000D02*
X93355200Y-128115200D01*
X93355200Y-128115200D02*
X93355200Y-136195200D01*
X93355200Y-136195200D02*
X93650000Y-136490000D01*
%TO.N,D7*%
X96190000Y-128410000D02*
X96190000Y-136490000D01*
X93650000Y-125870000D02*
X96190000Y-128410000D01*
%TO.N,ROM_CE*%
X96587000Y-125473000D02*
X96190000Y-125870000D01*
X96587000Y-112080300D02*
X96587000Y-125473000D01*
%TO.N,A10*%
X98730000Y-125870000D02*
X101270000Y-128410000D01*
X101270000Y-128410000D02*
X101270000Y-136490000D01*
%TO.N,A11*%
X103931900Y-125991900D02*
X103810000Y-125870000D01*
X103810000Y-132688300D02*
X103931900Y-132566400D01*
X103810000Y-136490000D02*
X103810000Y-132688300D01*
X103931900Y-132566400D02*
X103931900Y-125991900D01*
%TO.N,A9*%
X106645000Y-136195000D02*
X106645000Y-126165000D01*
X106645000Y-126165000D02*
X106350000Y-125870000D01*
X106350000Y-136490000D02*
X106645000Y-136195000D01*
%TO.N,A8*%
X108890000Y-125870000D02*
X108890000Y-136490000D01*
%TO.N,A13*%
X113548400Y-123751600D02*
X113709100Y-123751600D01*
X111430000Y-125870000D02*
X113548400Y-123751600D01*
X118938300Y-132313800D02*
X119050000Y-132425500D01*
X119050000Y-132425500D02*
X119050000Y-136490000D01*
%TO.N,A14*%
X113858500Y-105123100D02*
X113858500Y-106223400D01*
X119073800Y-130512500D02*
X121249600Y-132688300D01*
X121249600Y-132688300D02*
X121590000Y-132688300D01*
X113824300Y-105088900D02*
X113858500Y-105123100D01*
X117147800Y-109235300D02*
X119073800Y-111161300D01*
X119073800Y-129877700D02*
X119073800Y-130512500D01*
X113858500Y-106223400D02*
X116870400Y-109235300D01*
X116870400Y-109235300D02*
X117147800Y-109235300D01*
X119073800Y-111161300D02*
X119073800Y-129877700D01*
X121590000Y-136490000D02*
X121590000Y-132688300D01*
%TO.N,ANALOG_A*%
X114730000Y-73750000D02*
X114730000Y-74850000D01*
X114730000Y-74850000D02*
X116510000Y-76630000D01*
%TO.N,RESET_DELAYED*%
X78730000Y-95750000D02*
X78730000Y-94090000D01*
X78730000Y-94090000D02*
X80950000Y-91870000D01*
%TO.N,PHI2OUT*%
X84000000Y-97094000D02*
X84000000Y-104790000D01*
X84000000Y-104790000D02*
X85270000Y-106060000D01*
X83705000Y-96799000D02*
X84000000Y-97094000D01*
X82270200Y-91613500D02*
X82270200Y-92970200D01*
X81421100Y-90764400D02*
X82270200Y-91613500D01*
X79515600Y-90764400D02*
X81421100Y-90764400D01*
X82270200Y-92970200D02*
X83705000Y-94405000D01*
X78410000Y-91870000D02*
X79515600Y-90764400D01*
X83705000Y-94405000D02*
X83705000Y-96799000D01*
%TO.N,BDIR*%
X91465200Y-104944800D02*
X90350000Y-106060000D01*
X91110000Y-91870000D02*
X91465200Y-92225200D01*
X91465200Y-92225200D02*
X91465200Y-104944800D01*
%TO.N,BC1*%
X89080000Y-93140000D02*
X89080000Y-104790000D01*
X89981600Y-91426200D02*
X89981600Y-92238400D01*
X90657000Y-90750800D02*
X89981600Y-91426200D01*
X96190000Y-91870000D02*
X95070800Y-90750800D01*
X95070800Y-90750800D02*
X90657000Y-90750800D01*
X89080000Y-104790000D02*
X87810000Y-106060000D01*
X89981600Y-92238400D02*
X89080000Y-93140000D01*
%TO.N,DA5*%
X112700000Y-96444800D02*
X113855600Y-97600400D01*
X103810000Y-91870000D02*
X104943500Y-90736500D01*
X104943500Y-90736500D02*
X111897700Y-90736500D01*
X112700000Y-91538800D02*
X112700000Y-96444800D01*
X113855600Y-97600400D02*
X113855600Y-101117000D01*
X113855600Y-101117000D02*
X112181600Y-102791000D01*
X111897700Y-90736500D02*
X112700000Y-91538800D01*
%TO.N,DA4*%
X103998700Y-104948700D02*
X105110000Y-106060000D01*
X103998700Y-94221300D02*
X103998700Y-104948700D01*
X106350000Y-91870000D02*
X103998700Y-94221300D01*
%TO.N,DA3*%
X108890000Y-91870000D02*
X108890000Y-94660000D01*
X108890000Y-94660000D02*
X105110000Y-98440000D01*
%TO.N,DA2*%
X111430000Y-97140000D02*
X112730000Y-98440000D01*
X111430000Y-91870000D02*
X111430000Y-97140000D01*
%TO.N,DA1*%
X113970000Y-91870000D02*
X113970000Y-97140000D01*
X113970000Y-97140000D02*
X115270000Y-98440000D01*
%TO.N,ANALOG_C*%
X118730000Y-95750000D02*
X119050000Y-95430000D01*
X119050000Y-95430000D02*
X119050000Y-91870000D01*
%TO.N,OPAMP_OUT_AC*%
X126547200Y-106500900D02*
X126547200Y-68277200D01*
X122666300Y-117966500D02*
X122666300Y-110381800D01*
X126547200Y-68277200D02*
X123000000Y-64730000D01*
X122666300Y-110381800D02*
X126547200Y-106500900D01*
%TO.N,RW*%
X78410000Y-132688300D02*
X78770000Y-132328300D01*
X78770000Y-102400000D02*
X82730000Y-98440000D01*
X78410000Y-136490000D02*
X78410000Y-132688300D01*
X78770000Y-132328300D02*
X78770000Y-102400000D01*
%TO.N,HALT*%
X80950000Y-136490000D02*
X80950000Y-126852000D01*
X86445900Y-99615900D02*
X85270000Y-98440000D01*
X84889200Y-122912800D02*
X84889200Y-109310300D01*
X86445900Y-107753600D02*
X86445900Y-99615900D01*
X84889200Y-109310300D02*
X86445900Y-107753600D01*
X80950000Y-126852000D02*
X84889200Y-122912800D01*
%TO.N,A15*%
X102540000Y-91570700D02*
X103801800Y-90308900D01*
X121300300Y-110293800D02*
X121300300Y-131888200D01*
X118326200Y-96804700D02*
X120329500Y-96804700D01*
X121458200Y-97933400D02*
X121458200Y-103393800D01*
X120329500Y-96804700D02*
X121458200Y-97933400D01*
X102540000Y-93616100D02*
X102540000Y-91570700D01*
X103801800Y-90308900D02*
X113997000Y-90308900D01*
X95741800Y-100414300D02*
X102540000Y-93616100D01*
X119248300Y-108241800D02*
X121300300Y-110293800D01*
X115408300Y-93886800D02*
X118326200Y-96804700D01*
X113997000Y-90308900D02*
X115408300Y-91720200D01*
X121458200Y-103393800D02*
X119248300Y-105603700D01*
X115408300Y-91720200D02*
X115408300Y-93886800D01*
X119248300Y-105603700D02*
X119248300Y-108241800D01*
%TD*%
%TA.AperFunction,Conductor*%
%TO.N,GND*%
G36*
X131778326Y-60221674D02*
G01*
X131800000Y-60274000D01*
X131800000Y-115636506D01*
X131778326Y-115688832D01*
X131438832Y-116028326D01*
X131386506Y-116050000D01*
X131300000Y-116050000D01*
X123800000Y-116050000D01*
X123787461Y-116051235D01*
X123760980Y-116053843D01*
X123738218Y-116060748D01*
X123723463Y-116065224D01*
X123723461Y-116065224D01*
X123723461Y-116065225D01*
X123688887Y-116083705D01*
X123688883Y-116083708D01*
X123658579Y-116108579D01*
X123633708Y-116138883D01*
X123633705Y-116138887D01*
X123615225Y-116173461D01*
X123603843Y-116210980D01*
X123600000Y-116250001D01*
X123600000Y-139726000D01*
X123578326Y-139778326D01*
X123526000Y-139800000D01*
X122864500Y-139800000D01*
X122812174Y-139778326D01*
X122790500Y-139726000D01*
X122790500Y-132970246D01*
X122790356Y-132968783D01*
X122790000Y-132961536D01*
X122790000Y-132790000D01*
X122618464Y-132790000D01*
X122611217Y-132789644D01*
X122609754Y-132789500D01*
X122609748Y-132789500D01*
X121964500Y-132789500D01*
X121912174Y-132767826D01*
X121890500Y-132715500D01*
X121890500Y-132648736D01*
X121890499Y-132648735D01*
X121889912Y-132646546D01*
X121873067Y-132583677D01*
X121870022Y-132572314D01*
X121870020Y-132572309D01*
X121843767Y-132526838D01*
X121830460Y-132503789D01*
X121774511Y-132447840D01*
X121705990Y-132408279D01*
X121705986Y-132408278D01*
X121657897Y-132395392D01*
X121612965Y-132360913D01*
X121605573Y-132304760D01*
X121624723Y-132271590D01*
X121700800Y-132195514D01*
X121766692Y-132081386D01*
X121800799Y-131954094D01*
X121800800Y-131954094D01*
X121800800Y-131822306D01*
X121800799Y-131822305D01*
X121766693Y-131695018D01*
X121766692Y-131695014D01*
X121700800Y-131580886D01*
X121622474Y-131502560D01*
X121600800Y-131450234D01*
X121600800Y-110254236D01*
X121600799Y-110254235D01*
X121580322Y-110177814D01*
X121580320Y-110177809D01*
X121566443Y-110153773D01*
X121540760Y-110109289D01*
X121484811Y-110053340D01*
X119570474Y-108139003D01*
X119548800Y-108086677D01*
X119548800Y-106852373D01*
X119570474Y-106800047D01*
X119622800Y-106778373D01*
X119675126Y-106800047D01*
X119712218Y-106837139D01*
X119876086Y-106946632D01*
X120058165Y-107022051D01*
X120251459Y-107060500D01*
X120251461Y-107060500D01*
X120448539Y-107060500D01*
X120448541Y-107060500D01*
X120641835Y-107022051D01*
X120823914Y-106946632D01*
X120987782Y-106837139D01*
X121127139Y-106697782D01*
X121236632Y-106533914D01*
X121312051Y-106351835D01*
X121350500Y-106158541D01*
X121350500Y-105961460D01*
X121889500Y-105961460D01*
X121889500Y-106158539D01*
X121927947Y-106351829D01*
X121927950Y-106351839D01*
X122003367Y-106533913D01*
X122072397Y-106637223D01*
X122112861Y-106697782D01*
X122252218Y-106837139D01*
X122416086Y-106946632D01*
X122598165Y-107022051D01*
X122791459Y-107060500D01*
X122791461Y-107060500D01*
X122988539Y-107060500D01*
X122988541Y-107060500D01*
X123181835Y-107022051D01*
X123363914Y-106946632D01*
X123527782Y-106837139D01*
X123667139Y-106697782D01*
X123776632Y-106533914D01*
X123852051Y-106351835D01*
X123890500Y-106158541D01*
X123890500Y-105961459D01*
X123852051Y-105768165D01*
X123776632Y-105586086D01*
X123667139Y-105422218D01*
X123527782Y-105282861D01*
X123526629Y-105282090D01*
X123363913Y-105173367D01*
X123181839Y-105097950D01*
X123181829Y-105097947D01*
X123030966Y-105067939D01*
X122988541Y-105059500D01*
X122791459Y-105059500D01*
X122749034Y-105067939D01*
X122598170Y-105097947D01*
X122598160Y-105097950D01*
X122416086Y-105173367D01*
X122252218Y-105282860D01*
X122252217Y-105282862D01*
X122112862Y-105422217D01*
X122112860Y-105422218D01*
X122003367Y-105586086D01*
X121927950Y-105768160D01*
X121927947Y-105768170D01*
X121889500Y-105961460D01*
X121350500Y-105961460D01*
X121350500Y-105961459D01*
X121312051Y-105768165D01*
X121236632Y-105586086D01*
X121127139Y-105422218D01*
X120987782Y-105282861D01*
X120986629Y-105282090D01*
X120823913Y-105173367D01*
X120641839Y-105097950D01*
X120641829Y-105097947D01*
X120490966Y-105067939D01*
X120448541Y-105059500D01*
X120396122Y-105059500D01*
X120343796Y-105037826D01*
X120322122Y-104985500D01*
X120343796Y-104933174D01*
X120871793Y-104405177D01*
X121698660Y-103578311D01*
X121738222Y-103509788D01*
X121758700Y-103433362D01*
X121758700Y-103354238D01*
X121758700Y-98632297D01*
X121780374Y-98579971D01*
X121832700Y-98558297D01*
X121885026Y-98579971D01*
X121905277Y-98617859D01*
X121910830Y-98645773D01*
X121927947Y-98731829D01*
X121927950Y-98731839D01*
X122003367Y-98913913D01*
X122083499Y-99033838D01*
X122112861Y-99077782D01*
X122252218Y-99217139D01*
X122416086Y-99326632D01*
X122598165Y-99402051D01*
X122791459Y-99440500D01*
X122791461Y-99440500D01*
X122988539Y-99440500D01*
X122988541Y-99440500D01*
X123181835Y-99402051D01*
X123363914Y-99326632D01*
X123527782Y-99217139D01*
X123667139Y-99077782D01*
X123693972Y-99037623D01*
X123741063Y-99006158D01*
X123796612Y-99017207D01*
X123828078Y-99064299D01*
X123829500Y-99078736D01*
X123829500Y-104799564D01*
X123849978Y-104875988D01*
X123883650Y-104934311D01*
X123889535Y-104944504D01*
X123889538Y-104944508D01*
X123889540Y-104944511D01*
X124220022Y-105274993D01*
X124504816Y-105559787D01*
X124526490Y-105612113D01*
X124520857Y-105640431D01*
X124467950Y-105768160D01*
X124467947Y-105768170D01*
X124429500Y-105961460D01*
X124429500Y-106158539D01*
X124467947Y-106351829D01*
X124467950Y-106351839D01*
X124543367Y-106533913D01*
X124612397Y-106637223D01*
X124652861Y-106697782D01*
X124792218Y-106837139D01*
X124956086Y-106946632D01*
X125138165Y-107022051D01*
X125331459Y-107060500D01*
X125331461Y-107060500D01*
X125383976Y-107060500D01*
X125436302Y-107082174D01*
X125457976Y-107134500D01*
X125436302Y-107186826D01*
X122481789Y-110141340D01*
X122425840Y-110197288D01*
X122386279Y-110265809D01*
X122386277Y-110265814D01*
X122365800Y-110342235D01*
X122365800Y-117528534D01*
X122344126Y-117580860D01*
X122265800Y-117659185D01*
X122199910Y-117773309D01*
X122199906Y-117773318D01*
X122165800Y-117900605D01*
X122165800Y-118032394D01*
X122199906Y-118159681D01*
X122199907Y-118159684D01*
X122199908Y-118159686D01*
X122265800Y-118273814D01*
X122358986Y-118367000D01*
X122473114Y-118432892D01*
X122600405Y-118466999D01*
X122600406Y-118467000D01*
X122600408Y-118467000D01*
X122732194Y-118467000D01*
X122732194Y-118466999D01*
X122859486Y-118432892D01*
X122973614Y-118367000D01*
X123066800Y-118273814D01*
X123132692Y-118159686D01*
X123166799Y-118032394D01*
X123166800Y-118032394D01*
X123166800Y-117900606D01*
X123166799Y-117900605D01*
X123132693Y-117773318D01*
X123132692Y-117773314D01*
X123066800Y-117659186D01*
X122988474Y-117580860D01*
X122966800Y-117528534D01*
X122966800Y-110536923D01*
X122988474Y-110484597D01*
X124559945Y-108913126D01*
X126787660Y-106685411D01*
X126815482Y-106637221D01*
X126827221Y-106616889D01*
X126847699Y-106540464D01*
X126847700Y-106540464D01*
X126847700Y-68237636D01*
X126847699Y-68237635D01*
X126827222Y-68161214D01*
X126827220Y-68161209D01*
X126787659Y-68092688D01*
X125876281Y-67181310D01*
X127099500Y-67181310D01*
X127099500Y-67358689D01*
X127134104Y-67532660D01*
X127134107Y-67532670D01*
X127201985Y-67696544D01*
X127201986Y-67696546D01*
X127201987Y-67696547D01*
X127300536Y-67844035D01*
X127425965Y-67969464D01*
X127573453Y-68068013D01*
X127573454Y-68068013D01*
X127573455Y-68068014D01*
X127737329Y-68135892D01*
X127737334Y-68135894D01*
X127911309Y-68170500D01*
X127911311Y-68170500D01*
X128088689Y-68170500D01*
X128088691Y-68170500D01*
X128262666Y-68135894D01*
X128426547Y-68068013D01*
X128574035Y-67969464D01*
X128699464Y-67844035D01*
X128798013Y-67696547D01*
X128865894Y-67532666D01*
X128900500Y-67358691D01*
X128900500Y-67181309D01*
X128865894Y-67007334D01*
X128798013Y-66843453D01*
X128699464Y-66695965D01*
X128574035Y-66570536D01*
X128426547Y-66471987D01*
X128426546Y-66471986D01*
X128426544Y-66471985D01*
X128262670Y-66404107D01*
X128262660Y-66404104D01*
X128146156Y-66380930D01*
X128088691Y-66369500D01*
X127911309Y-66369500D01*
X127861989Y-66379310D01*
X127737339Y-66404104D01*
X127737329Y-66404107D01*
X127573455Y-66471985D01*
X127425968Y-66570533D01*
X127300533Y-66695968D01*
X127201985Y-66843455D01*
X127134107Y-67007329D01*
X127134104Y-67007339D01*
X127099500Y-67181310D01*
X125876281Y-67181310D01*
X123848646Y-65153675D01*
X123826972Y-65101349D01*
X123832603Y-65073036D01*
X123865894Y-64992666D01*
X123900500Y-64818691D01*
X123900500Y-64641309D01*
X123865894Y-64467334D01*
X123798013Y-64303453D01*
X123699464Y-64155965D01*
X123574035Y-64030536D01*
X123426547Y-63931987D01*
X123426546Y-63931986D01*
X123426544Y-63931985D01*
X123262670Y-63864107D01*
X123262660Y-63864104D01*
X123146156Y-63840930D01*
X123088691Y-63829500D01*
X122911309Y-63829500D01*
X122861989Y-63839310D01*
X122737339Y-63864104D01*
X122737329Y-63864107D01*
X122573455Y-63931985D01*
X122425968Y-64030533D01*
X122300533Y-64155968D01*
X122201985Y-64303455D01*
X122134107Y-64467329D01*
X122134104Y-64467339D01*
X122099500Y-64641310D01*
X122099500Y-64818689D01*
X122134104Y-64992660D01*
X122134107Y-64992670D01*
X122201985Y-65156544D01*
X122201986Y-65156546D01*
X122201987Y-65156547D01*
X122300536Y-65304035D01*
X122425965Y-65429464D01*
X122573453Y-65528013D01*
X122573454Y-65528013D01*
X122573455Y-65528014D01*
X122656966Y-65562605D01*
X122737334Y-65595894D01*
X122911309Y-65630500D01*
X122911311Y-65630500D01*
X123088689Y-65630500D01*
X123088691Y-65630500D01*
X123262666Y-65595894D01*
X123343033Y-65562605D01*
X123399667Y-65562605D01*
X123423675Y-65578646D01*
X126225026Y-68379997D01*
X126246700Y-68432323D01*
X126246700Y-105283127D01*
X126225026Y-105335453D01*
X126172700Y-105357127D01*
X126120374Y-105335453D01*
X126067781Y-105282860D01*
X125903913Y-105173367D01*
X125721839Y-105097950D01*
X125721829Y-105097947D01*
X125570966Y-105067939D01*
X125528541Y-105059500D01*
X125331459Y-105059500D01*
X125289034Y-105067939D01*
X125138170Y-105097947D01*
X125138160Y-105097950D01*
X125010431Y-105150857D01*
X124953794Y-105150857D01*
X124929787Y-105134816D01*
X124452174Y-104657203D01*
X124430500Y-104604877D01*
X124430500Y-92877906D01*
X124452174Y-92825580D01*
X124476180Y-92809539D01*
X124603914Y-92756632D01*
X124767782Y-92647139D01*
X124907139Y-92507782D01*
X125016632Y-92343914D01*
X125092051Y-92161835D01*
X125130500Y-91968541D01*
X125130500Y-91771459D01*
X125092051Y-91578165D01*
X125016632Y-91396086D01*
X124907139Y-91232218D01*
X124767782Y-91092861D01*
X124725936Y-91064900D01*
X124603913Y-90983367D01*
X124421839Y-90907950D01*
X124421829Y-90907947D01*
X124285073Y-90880745D01*
X124228541Y-90869500D01*
X124031459Y-90869500D01*
X123976662Y-90880399D01*
X123838170Y-90907947D01*
X123838160Y-90907950D01*
X123710431Y-90960857D01*
X123653794Y-90960857D01*
X123629787Y-90944816D01*
X115562174Y-82877203D01*
X115540500Y-82824877D01*
X115540500Y-77223838D01*
X115562174Y-77171512D01*
X115614500Y-77149838D01*
X115666826Y-77171512D01*
X115676026Y-77182722D01*
X115732861Y-77267782D01*
X115872218Y-77407139D01*
X116036086Y-77516632D01*
X116218165Y-77592051D01*
X116411459Y-77630500D01*
X116411461Y-77630500D01*
X116608539Y-77630500D01*
X116608541Y-77630500D01*
X116801835Y-77592051D01*
X116983914Y-77516632D01*
X117147782Y-77407139D01*
X117287139Y-77267782D01*
X117396632Y-77103914D01*
X117472051Y-76921835D01*
X117510500Y-76728541D01*
X117510500Y-76531460D01*
X118049500Y-76531460D01*
X118049500Y-76728539D01*
X118087947Y-76921829D01*
X118087950Y-76921839D01*
X118163367Y-77103913D01*
X118243499Y-77223838D01*
X118272861Y-77267782D01*
X118412218Y-77407139D01*
X118576086Y-77516632D01*
X118758165Y-77592051D01*
X118951459Y-77630500D01*
X118951461Y-77630500D01*
X119148539Y-77630500D01*
X119148541Y-77630500D01*
X119341835Y-77592051D01*
X119523914Y-77516632D01*
X119687782Y-77407139D01*
X119827139Y-77267782D01*
X119936632Y-77103914D01*
X120012051Y-76921835D01*
X120050500Y-76728541D01*
X120050500Y-76531460D01*
X120589500Y-76531460D01*
X120589500Y-76728539D01*
X120627947Y-76921829D01*
X120627950Y-76921839D01*
X120703367Y-77103913D01*
X120783499Y-77223838D01*
X120812861Y-77267782D01*
X120952218Y-77407139D01*
X121116086Y-77516632D01*
X121298165Y-77592051D01*
X121491459Y-77630500D01*
X121491461Y-77630500D01*
X121688539Y-77630500D01*
X121688541Y-77630500D01*
X121881835Y-77592051D01*
X122063914Y-77516632D01*
X122227782Y-77407139D01*
X122367139Y-77267782D01*
X122476632Y-77103914D01*
X122552051Y-76921835D01*
X122590500Y-76728541D01*
X122590500Y-76531459D01*
X122552051Y-76338165D01*
X122476632Y-76156086D01*
X122367139Y-75992218D01*
X122227782Y-75852861D01*
X122063914Y-75743368D01*
X122063915Y-75743368D01*
X122063913Y-75743367D01*
X121881839Y-75667950D01*
X121881829Y-75667947D01*
X121752388Y-75642200D01*
X121688541Y-75629500D01*
X121491459Y-75629500D01*
X121436662Y-75640399D01*
X121298170Y-75667947D01*
X121298160Y-75667950D01*
X121116086Y-75743367D01*
X120952218Y-75852860D01*
X120952217Y-75852862D01*
X120812862Y-75992217D01*
X120812860Y-75992218D01*
X120703367Y-76156086D01*
X120627950Y-76338160D01*
X120627947Y-76338170D01*
X120589500Y-76531460D01*
X120050500Y-76531460D01*
X120050500Y-76531459D01*
X120012051Y-76338165D01*
X119936632Y-76156086D01*
X119827139Y-75992218D01*
X119687782Y-75852861D01*
X119523914Y-75743368D01*
X119523911Y-75743366D01*
X119523910Y-75743366D01*
X119396181Y-75690459D01*
X119385773Y-75680050D01*
X119372174Y-75674418D01*
X119366540Y-75660817D01*
X119356133Y-75650410D01*
X119350500Y-75622092D01*
X119350500Y-75585122D01*
X119372173Y-75532797D01*
X120306324Y-74598645D01*
X120358649Y-74576972D01*
X120386964Y-74582604D01*
X120467334Y-74615894D01*
X120641309Y-74650500D01*
X120641311Y-74650500D01*
X120818689Y-74650500D01*
X120818691Y-74650500D01*
X120992666Y-74615894D01*
X121156547Y-74548013D01*
X121304035Y-74449464D01*
X121429464Y-74324035D01*
X121528013Y-74176547D01*
X121595894Y-74012666D01*
X121630500Y-73838691D01*
X121630500Y-73661310D01*
X122369500Y-73661310D01*
X122369500Y-73838689D01*
X122404104Y-74012660D01*
X122404107Y-74012670D01*
X122471985Y-74176544D01*
X122471986Y-74176546D01*
X122471987Y-74176547D01*
X122570536Y-74324035D01*
X122695965Y-74449464D01*
X122843453Y-74548013D01*
X122843454Y-74548013D01*
X122843455Y-74548014D01*
X122965693Y-74598646D01*
X123007334Y-74615894D01*
X123181309Y-74650500D01*
X123181311Y-74650500D01*
X123358689Y-74650500D01*
X123358691Y-74650500D01*
X123532666Y-74615894D01*
X123696547Y-74548013D01*
X123844035Y-74449464D01*
X123969464Y-74324035D01*
X124068013Y-74176547D01*
X124135894Y-74012666D01*
X124170500Y-73838691D01*
X124170500Y-73661309D01*
X124135894Y-73487334D01*
X124068013Y-73323453D01*
X123969464Y-73175965D01*
X123844035Y-73050536D01*
X123696547Y-72951987D01*
X123696546Y-72951986D01*
X123696544Y-72951985D01*
X123532670Y-72884107D01*
X123532660Y-72884104D01*
X123416156Y-72860930D01*
X123358691Y-72849500D01*
X123181309Y-72849500D01*
X123131989Y-72859310D01*
X123007339Y-72884104D01*
X123007329Y-72884107D01*
X122843455Y-72951985D01*
X122695968Y-73050533D01*
X122570533Y-73175968D01*
X122471985Y-73323455D01*
X122404107Y-73487329D01*
X122404104Y-73487339D01*
X122369500Y-73661310D01*
X121630500Y-73661310D01*
X121630500Y-73661309D01*
X121595894Y-73487334D01*
X121528013Y-73323453D01*
X121429464Y-73175965D01*
X121304035Y-73050536D01*
X121156547Y-72951987D01*
X121156546Y-72951986D01*
X121156544Y-72951985D01*
X120992670Y-72884107D01*
X120992660Y-72884104D01*
X120876156Y-72860930D01*
X120818691Y-72849500D01*
X120641309Y-72849500D01*
X120591989Y-72859310D01*
X120467339Y-72884104D01*
X120467329Y-72884107D01*
X120303455Y-72951985D01*
X120155968Y-73050533D01*
X120030533Y-73175968D01*
X119931985Y-73323455D01*
X119864107Y-73487329D01*
X119864104Y-73487339D01*
X119829500Y-73661310D01*
X119829500Y-73838689D01*
X119864104Y-74012660D01*
X119864105Y-74012662D01*
X119864106Y-74012666D01*
X119864108Y-74012670D01*
X119897394Y-74093032D01*
X119897393Y-74149669D01*
X119881352Y-74173675D01*
X118865489Y-75189540D01*
X118809540Y-75245488D01*
X118769979Y-75314009D01*
X118769977Y-75314014D01*
X118749500Y-75390435D01*
X118749500Y-75622092D01*
X118727826Y-75674418D01*
X118703819Y-75690459D01*
X118576089Y-75743366D01*
X118412218Y-75852860D01*
X118412217Y-75852862D01*
X118272862Y-75992217D01*
X118272860Y-75992218D01*
X118163367Y-76156086D01*
X118087950Y-76338160D01*
X118087947Y-76338170D01*
X118049500Y-76531460D01*
X117510500Y-76531460D01*
X117510500Y-76531459D01*
X117472051Y-76338165D01*
X117396632Y-76156086D01*
X117287139Y-75992218D01*
X117147782Y-75852861D01*
X116983914Y-75743368D01*
X116983915Y-75743368D01*
X116983913Y-75743367D01*
X116801839Y-75667950D01*
X116801829Y-75667947D01*
X116672388Y-75642200D01*
X116608541Y-75629500D01*
X116411459Y-75629500D01*
X116356662Y-75640399D01*
X116218170Y-75667947D01*
X116218160Y-75667950D01*
X116090431Y-75720857D01*
X116033794Y-75720857D01*
X116009787Y-75704816D01*
X115052174Y-74747203D01*
X115030500Y-74694877D01*
X115030500Y-74649667D01*
X115052174Y-74597341D01*
X115076179Y-74581301D01*
X115156547Y-74548013D01*
X115304035Y-74449464D01*
X115429464Y-74324035D01*
X115528013Y-74176547D01*
X115595894Y-74012666D01*
X115630500Y-73838691D01*
X115630500Y-73661309D01*
X115595894Y-73487334D01*
X115528013Y-73323453D01*
X115429464Y-73175965D01*
X115304035Y-73050536D01*
X115156547Y-72951987D01*
X115156546Y-72951986D01*
X115156544Y-72951985D01*
X114992670Y-72884107D01*
X114992660Y-72884104D01*
X114876156Y-72860930D01*
X114818691Y-72849500D01*
X114641309Y-72849500D01*
X114591989Y-72859310D01*
X114467339Y-72884104D01*
X114467329Y-72884107D01*
X114303455Y-72951985D01*
X114155968Y-73050533D01*
X114030533Y-73175968D01*
X113931985Y-73323455D01*
X113864107Y-73487329D01*
X113864104Y-73487339D01*
X113829500Y-73661310D01*
X113829500Y-73838689D01*
X113864104Y-74012660D01*
X113864107Y-74012670D01*
X113931985Y-74176544D01*
X113931986Y-74176546D01*
X113931987Y-74176547D01*
X114030536Y-74324035D01*
X114155965Y-74449464D01*
X114303453Y-74548013D01*
X114383818Y-74581300D01*
X114423867Y-74621347D01*
X114429500Y-74649667D01*
X114429500Y-74840877D01*
X114407826Y-74893203D01*
X114355500Y-74914877D01*
X114303174Y-74893203D01*
X112132174Y-72722203D01*
X112110500Y-72669877D01*
X112110500Y-70817906D01*
X112132174Y-70765580D01*
X112156180Y-70749539D01*
X112283914Y-70696632D01*
X112447782Y-70587139D01*
X112587139Y-70447782D01*
X112696632Y-70283914D01*
X112772051Y-70101835D01*
X112810500Y-69908541D01*
X112810500Y-69711459D01*
X112772051Y-69518165D01*
X112696632Y-69336086D01*
X112587139Y-69172218D01*
X112447782Y-69032861D01*
X112283914Y-68923368D01*
X112283915Y-68923368D01*
X112283913Y-68923367D01*
X112101839Y-68847950D01*
X112101829Y-68847947D01*
X111972388Y-68822200D01*
X111908541Y-68809500D01*
X111711459Y-68809500D01*
X111656662Y-68820399D01*
X111518170Y-68847947D01*
X111518160Y-68847950D01*
X111336086Y-68923367D01*
X111172218Y-69032860D01*
X111172217Y-69032862D01*
X111032862Y-69172217D01*
X111032860Y-69172218D01*
X110923367Y-69336086D01*
X110847950Y-69518160D01*
X110847947Y-69518170D01*
X110809500Y-69711460D01*
X110809500Y-69908539D01*
X110847947Y-70101829D01*
X110847950Y-70101839D01*
X110923367Y-70283913D01*
X110964267Y-70345123D01*
X111032861Y-70447782D01*
X111172218Y-70587139D01*
X111336086Y-70696632D01*
X111463818Y-70749539D01*
X111503867Y-70789587D01*
X111509500Y-70817906D01*
X111509500Y-72864564D01*
X111529977Y-72940985D01*
X111529977Y-72940986D01*
X111529979Y-72940989D01*
X111536329Y-72951987D01*
X111569540Y-73009511D01*
X114063203Y-75503174D01*
X114084877Y-75555500D01*
X114063203Y-75607826D01*
X114010877Y-75629500D01*
X113871459Y-75629500D01*
X113816662Y-75640399D01*
X113678170Y-75667947D01*
X113678160Y-75667950D01*
X113496086Y-75743367D01*
X113332218Y-75852860D01*
X113332217Y-75852862D01*
X113192862Y-75992217D01*
X113192860Y-75992218D01*
X113083367Y-76156086D01*
X113007950Y-76338160D01*
X113007947Y-76338170D01*
X112969500Y-76531460D01*
X112969500Y-76728539D01*
X113007947Y-76921829D01*
X113007950Y-76921839D01*
X113083367Y-77103913D01*
X113163499Y-77223838D01*
X113192861Y-77267782D01*
X113332218Y-77407139D01*
X113496086Y-77516632D01*
X113678165Y-77592051D01*
X113871459Y-77630500D01*
X113871461Y-77630500D01*
X114068539Y-77630500D01*
X114068541Y-77630500D01*
X114261835Y-77592051D01*
X114443914Y-77516632D01*
X114607782Y-77407139D01*
X114747139Y-77267782D01*
X114803971Y-77182725D01*
X114851063Y-77151260D01*
X114906612Y-77162309D01*
X114938078Y-77209401D01*
X114939500Y-77223838D01*
X114939500Y-83019564D01*
X114959977Y-83095985D01*
X114959979Y-83095990D01*
X114999540Y-83164511D01*
X123204816Y-91369787D01*
X123226490Y-91422113D01*
X123220857Y-91450431D01*
X123167950Y-91578160D01*
X123167947Y-91578170D01*
X123129500Y-91771460D01*
X123129500Y-91968539D01*
X123167947Y-92161829D01*
X123167950Y-92161839D01*
X123243367Y-92343913D01*
X123335593Y-92481938D01*
X123352861Y-92507782D01*
X123492218Y-92647139D01*
X123656086Y-92756632D01*
X123783818Y-92809539D01*
X123823867Y-92849587D01*
X123829500Y-92877906D01*
X123829500Y-97801263D01*
X123807826Y-97853589D01*
X123755500Y-97875263D01*
X123703174Y-97853589D01*
X123693971Y-97842375D01*
X123667139Y-97802218D01*
X123527781Y-97662860D01*
X123363913Y-97553367D01*
X123181839Y-97477950D01*
X123181829Y-97477947D01*
X123047023Y-97451133D01*
X122988541Y-97439500D01*
X122791459Y-97439500D01*
X122736662Y-97450399D01*
X122598170Y-97477947D01*
X122598160Y-97477950D01*
X122416086Y-97553367D01*
X122252218Y-97662860D01*
X122252217Y-97662862D01*
X122112862Y-97802217D01*
X122112860Y-97802218D01*
X122003367Y-97966086D01*
X121927950Y-98148160D01*
X121927947Y-98148170D01*
X121905278Y-98262139D01*
X121873812Y-98309231D01*
X121818263Y-98320280D01*
X121771171Y-98288814D01*
X121758700Y-98247702D01*
X121758700Y-97893836D01*
X121758699Y-97893835D01*
X121754294Y-97877397D01*
X121738221Y-97817411D01*
X121698660Y-97748889D01*
X121642711Y-97692940D01*
X120514011Y-96564240D01*
X120504138Y-96558540D01*
X120445490Y-96524679D01*
X120445485Y-96524677D01*
X120369064Y-96504200D01*
X120369062Y-96504200D01*
X119427950Y-96504200D01*
X119375624Y-96482526D01*
X119353950Y-96430200D01*
X119375623Y-96377875D01*
X119429464Y-96324035D01*
X119528013Y-96176547D01*
X119595894Y-96012666D01*
X119630500Y-95838691D01*
X119630500Y-95661310D01*
X120369500Y-95661310D01*
X120369500Y-95838689D01*
X120404104Y-96012660D01*
X120404107Y-96012670D01*
X120471985Y-96176544D01*
X120568059Y-96320329D01*
X120570536Y-96324035D01*
X120695965Y-96449464D01*
X120843453Y-96548013D01*
X120843454Y-96548013D01*
X120843455Y-96548014D01*
X120882629Y-96564240D01*
X121007334Y-96615894D01*
X121181309Y-96650500D01*
X121181311Y-96650500D01*
X121358689Y-96650500D01*
X121358691Y-96650500D01*
X121532666Y-96615894D01*
X121696547Y-96548013D01*
X121844035Y-96449464D01*
X121969464Y-96324035D01*
X122068013Y-96176547D01*
X122135894Y-96012666D01*
X122170500Y-95838691D01*
X122170500Y-95661309D01*
X122135894Y-95487334D01*
X122068013Y-95323453D01*
X121969464Y-95175965D01*
X121844035Y-95050536D01*
X121696547Y-94951987D01*
X121696546Y-94951986D01*
X121696544Y-94951985D01*
X121532670Y-94884107D01*
X121532660Y-94884104D01*
X121416156Y-94860930D01*
X121358691Y-94849500D01*
X121181309Y-94849500D01*
X121131989Y-94859310D01*
X121007339Y-94884104D01*
X121007329Y-94884107D01*
X120843455Y-94951985D01*
X120695968Y-95050533D01*
X120570533Y-95175968D01*
X120471985Y-95323455D01*
X120404107Y-95487329D01*
X120404104Y-95487339D01*
X120369500Y-95661310D01*
X119630500Y-95661310D01*
X119630500Y-95661309D01*
X119595894Y-95487334D01*
X119528013Y-95323453D01*
X119429464Y-95175965D01*
X119429460Y-95175961D01*
X119372174Y-95118674D01*
X119350500Y-95066349D01*
X119350500Y-92877906D01*
X119372174Y-92825580D01*
X119396180Y-92809539D01*
X119523914Y-92756632D01*
X119687782Y-92647139D01*
X119827139Y-92507782D01*
X119936632Y-92343914D01*
X120012051Y-92161835D01*
X120050500Y-91968541D01*
X120050500Y-91771460D01*
X120589500Y-91771460D01*
X120589500Y-91968539D01*
X120627947Y-92161829D01*
X120627950Y-92161839D01*
X120703367Y-92343913D01*
X120812860Y-92507781D01*
X120952218Y-92647139D01*
X121116086Y-92756632D01*
X121282542Y-92825580D01*
X121298165Y-92832051D01*
X121491459Y-92870500D01*
X121491461Y-92870500D01*
X121688539Y-92870500D01*
X121688541Y-92870500D01*
X121881835Y-92832051D01*
X122063914Y-92756632D01*
X122227782Y-92647139D01*
X122367139Y-92507782D01*
X122476632Y-92343914D01*
X122552051Y-92161835D01*
X122590500Y-91968541D01*
X122590500Y-91771459D01*
X122552051Y-91578165D01*
X122476632Y-91396086D01*
X122367139Y-91232218D01*
X122227782Y-91092861D01*
X122185936Y-91064900D01*
X122063913Y-90983367D01*
X121881839Y-90907950D01*
X121881829Y-90907947D01*
X121745073Y-90880745D01*
X121688541Y-90869500D01*
X121491459Y-90869500D01*
X121436662Y-90880399D01*
X121298170Y-90907947D01*
X121298160Y-90907950D01*
X121116086Y-90983367D01*
X120952218Y-91092860D01*
X120952217Y-91092862D01*
X120812862Y-91232217D01*
X120812860Y-91232218D01*
X120703367Y-91396086D01*
X120627950Y-91578160D01*
X120627947Y-91578170D01*
X120589500Y-91771460D01*
X120050500Y-91771460D01*
X120050500Y-91771459D01*
X120012051Y-91578165D01*
X119936632Y-91396086D01*
X119827139Y-91232218D01*
X119687782Y-91092861D01*
X119645936Y-91064900D01*
X119523913Y-90983367D01*
X119341839Y-90907950D01*
X119341829Y-90907947D01*
X119205073Y-90880745D01*
X119148541Y-90869500D01*
X118951459Y-90869500D01*
X118896662Y-90880399D01*
X118758170Y-90907947D01*
X118758160Y-90907950D01*
X118576086Y-90983367D01*
X118412218Y-91092860D01*
X118412217Y-91092862D01*
X118272862Y-91232217D01*
X118272860Y-91232218D01*
X118163367Y-91396086D01*
X118087950Y-91578160D01*
X118087947Y-91578170D01*
X118049500Y-91771460D01*
X118049500Y-91968539D01*
X118087947Y-92161829D01*
X118087950Y-92161839D01*
X118163367Y-92343913D01*
X118255593Y-92481938D01*
X118272861Y-92507782D01*
X118412218Y-92647139D01*
X118576086Y-92756632D01*
X118703818Y-92809539D01*
X118743867Y-92849587D01*
X118749500Y-92877906D01*
X118749500Y-94775500D01*
X118727826Y-94827826D01*
X118675500Y-94849500D01*
X118641309Y-94849500D01*
X118591989Y-94859310D01*
X118467339Y-94884104D01*
X118467329Y-94884107D01*
X118303455Y-94951985D01*
X118155968Y-95050533D01*
X118030533Y-95175968D01*
X117931985Y-95323455D01*
X117864107Y-95487329D01*
X117864104Y-95487339D01*
X117829500Y-95661310D01*
X117829500Y-95704377D01*
X117807826Y-95756703D01*
X117755500Y-95778377D01*
X117703174Y-95756703D01*
X115730474Y-93784003D01*
X115708800Y-93731677D01*
X115708800Y-92662373D01*
X115730474Y-92610047D01*
X115782800Y-92588373D01*
X115835126Y-92610047D01*
X115872218Y-92647139D01*
X116036086Y-92756632D01*
X116202542Y-92825580D01*
X116218165Y-92832051D01*
X116411459Y-92870500D01*
X116411461Y-92870500D01*
X116608539Y-92870500D01*
X116608541Y-92870500D01*
X116801835Y-92832051D01*
X116983914Y-92756632D01*
X117147782Y-92647139D01*
X117287139Y-92507782D01*
X117396632Y-92343914D01*
X117472051Y-92161835D01*
X117510500Y-91968541D01*
X117510500Y-91771459D01*
X117472051Y-91578165D01*
X117396632Y-91396086D01*
X117287139Y-91232218D01*
X117147782Y-91092861D01*
X117105936Y-91064900D01*
X116983913Y-90983367D01*
X116801839Y-90907950D01*
X116801829Y-90907947D01*
X116665073Y-90880745D01*
X116608541Y-90869500D01*
X116411459Y-90869500D01*
X116356662Y-90880399D01*
X116218170Y-90907947D01*
X116218160Y-90907950D01*
X116036086Y-90983367D01*
X115872218Y-91092860D01*
X115872217Y-91092862D01*
X115732862Y-91232217D01*
X115732860Y-91232218D01*
X115627717Y-91389577D01*
X115580625Y-91421043D01*
X115525076Y-91409994D01*
X115513862Y-91400791D01*
X114181511Y-90068440D01*
X114112990Y-90028879D01*
X114112985Y-90028877D01*
X114036564Y-90008400D01*
X114036562Y-90008400D01*
X103841362Y-90008400D01*
X103762238Y-90008400D01*
X103685812Y-90028878D01*
X103685811Y-90028878D01*
X103685809Y-90028879D01*
X103685807Y-90028880D01*
X103617292Y-90068437D01*
X102355489Y-91330240D01*
X102299539Y-91386189D01*
X102288969Y-91404496D01*
X102244034Y-91438972D01*
X102187882Y-91431577D01*
X102159180Y-91398843D01*
X102158345Y-91399290D01*
X102156634Y-91396089D01*
X102047139Y-91232218D01*
X101907781Y-91092860D01*
X101743913Y-90983367D01*
X101561839Y-90907950D01*
X101561829Y-90907947D01*
X101425073Y-90880745D01*
X101368541Y-90869500D01*
X101171459Y-90869500D01*
X101116662Y-90880399D01*
X100978170Y-90907947D01*
X100978160Y-90907950D01*
X100796086Y-90983367D01*
X100632218Y-91092860D01*
X100632217Y-91092862D01*
X100492862Y-91232217D01*
X100492860Y-91232218D01*
X100383367Y-91396086D01*
X100307950Y-91578160D01*
X100307947Y-91578170D01*
X100269500Y-91771460D01*
X100269500Y-91968539D01*
X100307947Y-92161829D01*
X100307950Y-92161839D01*
X100383367Y-92343913D01*
X100492860Y-92507781D01*
X100632218Y-92647139D01*
X100796086Y-92756632D01*
X100962542Y-92825580D01*
X100978165Y-92832051D01*
X101171459Y-92870500D01*
X101171461Y-92870500D01*
X101368539Y-92870500D01*
X101368541Y-92870500D01*
X101561835Y-92832051D01*
X101743914Y-92756632D01*
X101907782Y-92647139D01*
X102047139Y-92507782D01*
X102103971Y-92422725D01*
X102151063Y-92391260D01*
X102206612Y-92402309D01*
X102238078Y-92449401D01*
X102239500Y-92463838D01*
X102239500Y-93460976D01*
X102217826Y-93513302D01*
X96556826Y-99174302D01*
X96504500Y-99195976D01*
X96452174Y-99174302D01*
X96430500Y-99121976D01*
X96430500Y-97620246D01*
X96430356Y-97618783D01*
X96430000Y-97611536D01*
X96430000Y-97440000D01*
X96258464Y-97440000D01*
X96251217Y-97439644D01*
X96249754Y-97439500D01*
X96249748Y-97439500D01*
X94676000Y-97439500D01*
X94623674Y-97417826D01*
X94602000Y-97365500D01*
X94602000Y-92481936D01*
X94601999Y-92481935D01*
X94595273Y-92456835D01*
X94588473Y-92431454D01*
X94581522Y-92405514D01*
X94581521Y-92405513D01*
X94581521Y-92405511D01*
X94558772Y-92366109D01*
X94551380Y-92309959D01*
X94554488Y-92300800D01*
X94612051Y-92161835D01*
X94650500Y-91968541D01*
X94650500Y-91771459D01*
X94612051Y-91578165D01*
X94536632Y-91396086D01*
X94427139Y-91232218D01*
X94372547Y-91177626D01*
X94350873Y-91125300D01*
X94372547Y-91072974D01*
X94424873Y-91051300D01*
X94915677Y-91051300D01*
X94968003Y-91072974D01*
X95264816Y-91369787D01*
X95286490Y-91422113D01*
X95280857Y-91450431D01*
X95227950Y-91578160D01*
X95227947Y-91578170D01*
X95189500Y-91771460D01*
X95189500Y-91968539D01*
X95227947Y-92161829D01*
X95227950Y-92161839D01*
X95303367Y-92343913D01*
X95412860Y-92507781D01*
X95552218Y-92647139D01*
X95716086Y-92756632D01*
X95882542Y-92825580D01*
X95898165Y-92832051D01*
X96091459Y-92870500D01*
X96091461Y-92870500D01*
X96288539Y-92870500D01*
X96288541Y-92870500D01*
X96481835Y-92832051D01*
X96663914Y-92756632D01*
X96827782Y-92647139D01*
X96967139Y-92507782D01*
X97076632Y-92343914D01*
X97152051Y-92161835D01*
X97190500Y-91968541D01*
X97190500Y-91771460D01*
X97729500Y-91771460D01*
X97729500Y-91968539D01*
X97767947Y-92161829D01*
X97767950Y-92161839D01*
X97843367Y-92343913D01*
X97952860Y-92507781D01*
X98092218Y-92647139D01*
X98256086Y-92756632D01*
X98422542Y-92825580D01*
X98438165Y-92832051D01*
X98631459Y-92870500D01*
X98631461Y-92870500D01*
X98828539Y-92870500D01*
X98828541Y-92870500D01*
X99021835Y-92832051D01*
X99203914Y-92756632D01*
X99367782Y-92647139D01*
X99507139Y-92507782D01*
X99616632Y-92343914D01*
X99692051Y-92161835D01*
X99730500Y-91968541D01*
X99730500Y-91771459D01*
X99692051Y-91578165D01*
X99616632Y-91396086D01*
X99507139Y-91232218D01*
X99367782Y-91092861D01*
X99325936Y-91064900D01*
X99203913Y-90983367D01*
X99021839Y-90907950D01*
X99021829Y-90907947D01*
X98885073Y-90880745D01*
X98828541Y-90869500D01*
X98631459Y-90869500D01*
X98576662Y-90880399D01*
X98438170Y-90907947D01*
X98438160Y-90907950D01*
X98256086Y-90983367D01*
X98092218Y-91092860D01*
X98092217Y-91092862D01*
X97952862Y-91232217D01*
X97952860Y-91232218D01*
X97843367Y-91396086D01*
X97767950Y-91578160D01*
X97767947Y-91578170D01*
X97729500Y-91771460D01*
X97190500Y-91771460D01*
X97190500Y-91771459D01*
X97152051Y-91578165D01*
X97076632Y-91396086D01*
X96967139Y-91232218D01*
X96827782Y-91092861D01*
X96785936Y-91064900D01*
X96663913Y-90983367D01*
X96481839Y-90907950D01*
X96481829Y-90907947D01*
X96345073Y-90880745D01*
X96288541Y-90869500D01*
X96091459Y-90869500D01*
X96036662Y-90880399D01*
X95898170Y-90907947D01*
X95898160Y-90907950D01*
X95770431Y-90960857D01*
X95713794Y-90960857D01*
X95689787Y-90944816D01*
X95255311Y-90510340D01*
X95186790Y-90470779D01*
X95186785Y-90470777D01*
X95110364Y-90450300D01*
X95110362Y-90450300D01*
X90617438Y-90450300D01*
X90617436Y-90450300D01*
X90541014Y-90470777D01*
X90541009Y-90470779D01*
X90472488Y-90510340D01*
X89741140Y-91241688D01*
X89701579Y-91310209D01*
X89701577Y-91310214D01*
X89681100Y-91386635D01*
X89681100Y-91576149D01*
X89659426Y-91628475D01*
X89607100Y-91650149D01*
X89554774Y-91628475D01*
X89534522Y-91590587D01*
X89534221Y-91589074D01*
X89532051Y-91578165D01*
X89456632Y-91396086D01*
X89347139Y-91232218D01*
X89207782Y-91092861D01*
X89165936Y-91064900D01*
X89043913Y-90983367D01*
X88861839Y-90907950D01*
X88861829Y-90907947D01*
X88725073Y-90880745D01*
X88668541Y-90869500D01*
X88471459Y-90869500D01*
X88416662Y-90880399D01*
X88278170Y-90907947D01*
X88278160Y-90907950D01*
X88096086Y-90983367D01*
X87932218Y-91092860D01*
X87932217Y-91092862D01*
X87792862Y-91232217D01*
X87792860Y-91232218D01*
X87683367Y-91396086D01*
X87607950Y-91578160D01*
X87607947Y-91578170D01*
X87569500Y-91771460D01*
X87569500Y-91968539D01*
X87607947Y-92161829D01*
X87607950Y-92161839D01*
X87683367Y-92343913D01*
X87792860Y-92507781D01*
X87932218Y-92647139D01*
X88096086Y-92756632D01*
X88262542Y-92825580D01*
X88278165Y-92832051D01*
X88471459Y-92870500D01*
X88471461Y-92870500D01*
X88668539Y-92870500D01*
X88668541Y-92870500D01*
X88756978Y-92852908D01*
X88812526Y-92863957D01*
X88843992Y-92911049D01*
X88835500Y-92962486D01*
X88799979Y-93024009D01*
X88799977Y-93024014D01*
X88779500Y-93100435D01*
X88779500Y-97846161D01*
X88757826Y-97898487D01*
X88705500Y-97920161D01*
X88653174Y-97898487D01*
X88643971Y-97887273D01*
X88587139Y-97802218D01*
X88447781Y-97662860D01*
X88283913Y-97553367D01*
X88101839Y-97477950D01*
X88101829Y-97477947D01*
X87967023Y-97451133D01*
X87908541Y-97439500D01*
X87711459Y-97439500D01*
X87656662Y-97450399D01*
X87518170Y-97477947D01*
X87518160Y-97477950D01*
X87336086Y-97553367D01*
X87172218Y-97662860D01*
X87172217Y-97662862D01*
X87032862Y-97802217D01*
X87032860Y-97802218D01*
X86923367Y-97966086D01*
X86847950Y-98148160D01*
X86847947Y-98148170D01*
X86809500Y-98341460D01*
X86809500Y-98538539D01*
X86847947Y-98731829D01*
X86847950Y-98731839D01*
X86923367Y-98913913D01*
X87003499Y-99033838D01*
X87032861Y-99077782D01*
X87172218Y-99217139D01*
X87336086Y-99326632D01*
X87518165Y-99402051D01*
X87711459Y-99440500D01*
X87711461Y-99440500D01*
X87908539Y-99440500D01*
X87908541Y-99440500D01*
X88101835Y-99402051D01*
X88283914Y-99326632D01*
X88447782Y-99217139D01*
X88587139Y-99077782D01*
X88643971Y-98992725D01*
X88691063Y-98961260D01*
X88746612Y-98972309D01*
X88778078Y-99019401D01*
X88779500Y-99033838D01*
X88779500Y-104634876D01*
X88757826Y-104687202D01*
X88310211Y-105134816D01*
X88257885Y-105156490D01*
X88229567Y-105150857D01*
X88101839Y-105097950D01*
X88101829Y-105097947D01*
X87950966Y-105067939D01*
X87908541Y-105059500D01*
X87711459Y-105059500D01*
X87669034Y-105067939D01*
X87518170Y-105097947D01*
X87518160Y-105097950D01*
X87336086Y-105173367D01*
X87172218Y-105282860D01*
X87172217Y-105282862D01*
X87032862Y-105422217D01*
X87032860Y-105422218D01*
X86923367Y-105586086D01*
X86888767Y-105669620D01*
X86848719Y-105709669D01*
X86792082Y-105709669D01*
X86752033Y-105669621D01*
X86746400Y-105641302D01*
X86746400Y-99576340D01*
X86746400Y-99576338D01*
X86725922Y-99499912D01*
X86686360Y-99431389D01*
X86195183Y-98940212D01*
X86173509Y-98887886D01*
X86179142Y-98859567D01*
X86232051Y-98731835D01*
X86270500Y-98538541D01*
X86270500Y-98341459D01*
X86232051Y-98148165D01*
X86156632Y-97966086D01*
X86047139Y-97802218D01*
X85907782Y-97662861D01*
X85899351Y-97657227D01*
X85743913Y-97553367D01*
X85561839Y-97477950D01*
X85561829Y-97477947D01*
X85427023Y-97451133D01*
X85368541Y-97439500D01*
X85171459Y-97439500D01*
X85116662Y-97450399D01*
X84978170Y-97477947D01*
X84978160Y-97477950D01*
X84796086Y-97553367D01*
X84632218Y-97662860D01*
X84632217Y-97662862D01*
X84492862Y-97802217D01*
X84492860Y-97802218D01*
X84436029Y-97887273D01*
X84388937Y-97918739D01*
X84333388Y-97907690D01*
X84301922Y-97860598D01*
X84300500Y-97846161D01*
X84300500Y-97054436D01*
X84300499Y-97054435D01*
X84280022Y-96978014D01*
X84280020Y-96978009D01*
X84243635Y-96914989D01*
X84240460Y-96909489D01*
X84184511Y-96853540D01*
X84027174Y-96696203D01*
X84005500Y-96643877D01*
X84005500Y-96477650D01*
X84027174Y-96425324D01*
X84079500Y-96403650D01*
X84131824Y-96425323D01*
X84155965Y-96449464D01*
X84303453Y-96548013D01*
X84303454Y-96548013D01*
X84303455Y-96548014D01*
X84342629Y-96564240D01*
X84467334Y-96615894D01*
X84641309Y-96650500D01*
X84641311Y-96650500D01*
X84818689Y-96650500D01*
X84818691Y-96650500D01*
X84992666Y-96615894D01*
X85156547Y-96548013D01*
X85304035Y-96449464D01*
X85429464Y-96324035D01*
X85528013Y-96176547D01*
X85595894Y-96012666D01*
X85630500Y-95838691D01*
X85630500Y-95661310D01*
X86369500Y-95661310D01*
X86369500Y-95838689D01*
X86404104Y-96012660D01*
X86404107Y-96012670D01*
X86471985Y-96176544D01*
X86568059Y-96320329D01*
X86570536Y-96324035D01*
X86695965Y-96449464D01*
X86843453Y-96548013D01*
X86843454Y-96548013D01*
X86843455Y-96548014D01*
X86882629Y-96564240D01*
X87007334Y-96615894D01*
X87181309Y-96650500D01*
X87181311Y-96650500D01*
X87358689Y-96650500D01*
X87358691Y-96650500D01*
X87532666Y-96615894D01*
X87696547Y-96548013D01*
X87844035Y-96449464D01*
X87969464Y-96324035D01*
X88068013Y-96176547D01*
X88135894Y-96012666D01*
X88170500Y-95838691D01*
X88170500Y-95661309D01*
X88135894Y-95487334D01*
X88068013Y-95323453D01*
X87969464Y-95175965D01*
X87844035Y-95050536D01*
X87696547Y-94951987D01*
X87696546Y-94951986D01*
X87696544Y-94951985D01*
X87532670Y-94884107D01*
X87532660Y-94884104D01*
X87416156Y-94860930D01*
X87358691Y-94849500D01*
X87181309Y-94849500D01*
X87131989Y-94859310D01*
X87007339Y-94884104D01*
X87007329Y-94884107D01*
X86843455Y-94951985D01*
X86695968Y-95050533D01*
X86570533Y-95175968D01*
X86471985Y-95323455D01*
X86404107Y-95487329D01*
X86404104Y-95487339D01*
X86369500Y-95661310D01*
X85630500Y-95661310D01*
X85630500Y-95661309D01*
X85595894Y-95487334D01*
X85528013Y-95323453D01*
X85429464Y-95175965D01*
X85304035Y-95050536D01*
X85156547Y-94951987D01*
X85156548Y-94951987D01*
X85156546Y-94951986D01*
X85076181Y-94918698D01*
X85036133Y-94878649D01*
X85030500Y-94850331D01*
X85030500Y-93325122D01*
X85052173Y-93272797D01*
X85529787Y-92795182D01*
X85582113Y-92773509D01*
X85610431Y-92779141D01*
X85738165Y-92832051D01*
X85931459Y-92870500D01*
X85931461Y-92870500D01*
X86128539Y-92870500D01*
X86128541Y-92870500D01*
X86321835Y-92832051D01*
X86503914Y-92756632D01*
X86667782Y-92647139D01*
X86807139Y-92507782D01*
X86916632Y-92343914D01*
X86992051Y-92161835D01*
X87030500Y-91968541D01*
X87030500Y-91771459D01*
X86992051Y-91578165D01*
X86916632Y-91396086D01*
X86807139Y-91232218D01*
X86667782Y-91092861D01*
X86625936Y-91064900D01*
X86503913Y-90983367D01*
X86321839Y-90907950D01*
X86321829Y-90907947D01*
X86185073Y-90880745D01*
X86128541Y-90869500D01*
X85931459Y-90869500D01*
X85876662Y-90880399D01*
X85738170Y-90907947D01*
X85738160Y-90907950D01*
X85556086Y-90983367D01*
X85392218Y-91092860D01*
X85392217Y-91092862D01*
X85252862Y-91232217D01*
X85252860Y-91232218D01*
X85143367Y-91396086D01*
X85067950Y-91578160D01*
X85067947Y-91578170D01*
X85029500Y-91771460D01*
X85029500Y-91968539D01*
X85067947Y-92161829D01*
X85067950Y-92161839D01*
X85120857Y-92289567D01*
X85120857Y-92346204D01*
X85104816Y-92370211D01*
X84545489Y-92929540D01*
X84489540Y-92985488D01*
X84449979Y-93054009D01*
X84449977Y-93054014D01*
X84429500Y-93130435D01*
X84429500Y-94850331D01*
X84407826Y-94902657D01*
X84383819Y-94918698D01*
X84303453Y-94951986D01*
X84155968Y-95050533D01*
X84155967Y-95050534D01*
X84155965Y-95050535D01*
X84155965Y-95050536D01*
X84131824Y-95074676D01*
X84079500Y-95096350D01*
X84027174Y-95074676D01*
X84005500Y-95022350D01*
X84005500Y-94365438D01*
X84000230Y-94345771D01*
X83997957Y-94337288D01*
X83994422Y-94324096D01*
X83985023Y-94289016D01*
X83985022Y-94289012D01*
X83945460Y-94220489D01*
X82592374Y-92867403D01*
X82570700Y-92815077D01*
X82570700Y-91573938D01*
X82567467Y-91561874D01*
X82567466Y-91561871D01*
X82550222Y-91497512D01*
X82510660Y-91428989D01*
X81605611Y-90523940D01*
X81582055Y-90510340D01*
X81537090Y-90484379D01*
X81537085Y-90484377D01*
X81460664Y-90463900D01*
X81460662Y-90463900D01*
X79555162Y-90463900D01*
X79476038Y-90463900D01*
X79399612Y-90484378D01*
X79399611Y-90484378D01*
X79399609Y-90484379D01*
X79399607Y-90484380D01*
X79331090Y-90523938D01*
X78910211Y-90944816D01*
X78857885Y-90966490D01*
X78829567Y-90960857D01*
X78701839Y-90907950D01*
X78701829Y-90907947D01*
X78565073Y-90880745D01*
X78508541Y-90869500D01*
X78311459Y-90869500D01*
X78256662Y-90880399D01*
X78118170Y-90907947D01*
X78118160Y-90907950D01*
X77936086Y-90983367D01*
X77772218Y-91092860D01*
X77772217Y-91092862D01*
X77632862Y-91232217D01*
X77632860Y-91232218D01*
X77523367Y-91396086D01*
X77447950Y-91578160D01*
X77447947Y-91578170D01*
X77409500Y-91771460D01*
X77409500Y-91968539D01*
X77447947Y-92161829D01*
X77447950Y-92161839D01*
X77523367Y-92343913D01*
X77632860Y-92507781D01*
X77772218Y-92647139D01*
X77936086Y-92756632D01*
X78102542Y-92825580D01*
X78118165Y-92832051D01*
X78311459Y-92870500D01*
X78311461Y-92870500D01*
X78508539Y-92870500D01*
X78508541Y-92870500D01*
X78701835Y-92832051D01*
X78883914Y-92756632D01*
X79047782Y-92647139D01*
X79187139Y-92507782D01*
X79296632Y-92343914D01*
X79372051Y-92161835D01*
X79410500Y-91968541D01*
X79410500Y-91771459D01*
X79372051Y-91578165D01*
X79319142Y-91450431D01*
X79319142Y-91393794D01*
X79335183Y-91369787D01*
X79472753Y-91232218D01*
X79618397Y-91086574D01*
X79670723Y-91064900D01*
X80161527Y-91064900D01*
X80213853Y-91086574D01*
X80235527Y-91138900D01*
X80213853Y-91191226D01*
X80172862Y-91232217D01*
X80172860Y-91232218D01*
X80063367Y-91396086D01*
X79987950Y-91578160D01*
X79987947Y-91578170D01*
X79949500Y-91771460D01*
X79949500Y-91968539D01*
X79987947Y-92161829D01*
X79987950Y-92161839D01*
X80040857Y-92289567D01*
X80040857Y-92346204D01*
X80024816Y-92370211D01*
X78545489Y-93849540D01*
X78489540Y-93905488D01*
X78449979Y-93974009D01*
X78449977Y-93974014D01*
X78429500Y-94050435D01*
X78429500Y-94850331D01*
X78407826Y-94902657D01*
X78383819Y-94918698D01*
X78303453Y-94951986D01*
X78155968Y-95050533D01*
X78030533Y-95175968D01*
X77931985Y-95323455D01*
X77864107Y-95487329D01*
X77864104Y-95487339D01*
X77829500Y-95661310D01*
X77829500Y-95838689D01*
X77864104Y-96012660D01*
X77864107Y-96012670D01*
X77931985Y-96176544D01*
X78028059Y-96320329D01*
X78030536Y-96324035D01*
X78155965Y-96449464D01*
X78303453Y-96548013D01*
X78303454Y-96548013D01*
X78303455Y-96548014D01*
X78342629Y-96564240D01*
X78467334Y-96615894D01*
X78641309Y-96650500D01*
X78641311Y-96650500D01*
X78818689Y-96650500D01*
X78818691Y-96650500D01*
X78992666Y-96615894D01*
X79156547Y-96548013D01*
X79304035Y-96449464D01*
X79429464Y-96324035D01*
X79528013Y-96176547D01*
X79595894Y-96012666D01*
X79630500Y-95838691D01*
X79630500Y-95661309D01*
X79595894Y-95487334D01*
X79528013Y-95323453D01*
X79429464Y-95175965D01*
X79304035Y-95050536D01*
X79156547Y-94951987D01*
X79156548Y-94951987D01*
X79156546Y-94951986D01*
X79076181Y-94918698D01*
X79036133Y-94878649D01*
X79030500Y-94850331D01*
X79030500Y-94245122D01*
X79052173Y-94192797D01*
X80449787Y-92795182D01*
X80502112Y-92773509D01*
X80530430Y-92779142D01*
X80649498Y-92828461D01*
X80658165Y-92832051D01*
X80851459Y-92870500D01*
X80851461Y-92870500D01*
X81048539Y-92870500D01*
X81048541Y-92870500D01*
X81241835Y-92832051D01*
X81423914Y-92756632D01*
X81587782Y-92647139D01*
X81727139Y-92507782D01*
X81834171Y-92347596D01*
X81881263Y-92316131D01*
X81936812Y-92327180D01*
X81968278Y-92374272D01*
X81969700Y-92388709D01*
X81969700Y-93009764D01*
X81990177Y-93086185D01*
X81990182Y-93086196D01*
X81998403Y-93100433D01*
X81998404Y-93100438D01*
X81998406Y-93100438D01*
X82029740Y-93154711D01*
X83382826Y-94507797D01*
X83404500Y-94560123D01*
X83404500Y-96838564D01*
X83424977Y-96914985D01*
X83424978Y-96914986D01*
X83424979Y-96914989D01*
X83428268Y-96920686D01*
X83428269Y-96920689D01*
X83428270Y-96920689D01*
X83464540Y-96983511D01*
X83677826Y-97196797D01*
X83699500Y-97249123D01*
X83699500Y-97846161D01*
X83677826Y-97898487D01*
X83625500Y-97920161D01*
X83573174Y-97898487D01*
X83563971Y-97887273D01*
X83507139Y-97802218D01*
X83367781Y-97662860D01*
X83203913Y-97553367D01*
X83021839Y-97477950D01*
X83021829Y-97477947D01*
X82887023Y-97451133D01*
X82828541Y-97439500D01*
X82631459Y-97439500D01*
X82576662Y-97450399D01*
X82438170Y-97477947D01*
X82438160Y-97477950D01*
X82256086Y-97553367D01*
X82092218Y-97662860D01*
X82092217Y-97662862D01*
X81952862Y-97802217D01*
X81952860Y-97802218D01*
X81843367Y-97966086D01*
X81767950Y-98148160D01*
X81767947Y-98148170D01*
X81729500Y-98341460D01*
X81729500Y-98538539D01*
X81767947Y-98731829D01*
X81767950Y-98731839D01*
X81820857Y-98859567D01*
X81820857Y-98916204D01*
X81804816Y-98940211D01*
X78585489Y-102159540D01*
X78529540Y-102215488D01*
X78489979Y-102284009D01*
X78489977Y-102284014D01*
X78469500Y-102360435D01*
X78469500Y-105285927D01*
X78447826Y-105338253D01*
X78395500Y-105359927D01*
X78343174Y-105338253D01*
X78287781Y-105282860D01*
X78123913Y-105173367D01*
X77941839Y-105097950D01*
X77941829Y-105097947D01*
X77790966Y-105067939D01*
X77748541Y-105059500D01*
X77551459Y-105059500D01*
X77509034Y-105067939D01*
X77358170Y-105097947D01*
X77358160Y-105097950D01*
X77176086Y-105173367D01*
X77012218Y-105282860D01*
X77012217Y-105282862D01*
X76872862Y-105422217D01*
X76872860Y-105422218D01*
X76763367Y-105586086D01*
X76687950Y-105768160D01*
X76687947Y-105768170D01*
X76649500Y-105961460D01*
X76649500Y-106158539D01*
X76687947Y-106351829D01*
X76687950Y-106351839D01*
X76763367Y-106533913D01*
X76832397Y-106637223D01*
X76872861Y-106697782D01*
X77012218Y-106837139D01*
X77176086Y-106946632D01*
X77358165Y-107022051D01*
X77551459Y-107060500D01*
X77551461Y-107060500D01*
X77748539Y-107060500D01*
X77748541Y-107060500D01*
X77941835Y-107022051D01*
X78123914Y-106946632D01*
X78287782Y-106837139D01*
X78343174Y-106781747D01*
X78395500Y-106760073D01*
X78447826Y-106781747D01*
X78469500Y-106834073D01*
X78469500Y-132173177D01*
X78447826Y-132225503D01*
X78169540Y-132503788D01*
X78129979Y-132572309D01*
X78129977Y-132572314D01*
X78109500Y-132648735D01*
X78109500Y-132715500D01*
X78087826Y-132767826D01*
X78035500Y-132789500D01*
X77390246Y-132789500D01*
X77388783Y-132789644D01*
X77381536Y-132790000D01*
X77210000Y-132790000D01*
X77210000Y-132961536D01*
X77209644Y-132968783D01*
X77209500Y-132970246D01*
X77209500Y-139726000D01*
X77187826Y-139778326D01*
X77135500Y-139800000D01*
X76474000Y-139800000D01*
X76421674Y-139778326D01*
X76400000Y-139726000D01*
X76400000Y-116250001D01*
X76399598Y-116245923D01*
X76396157Y-116210982D01*
X76384776Y-116173463D01*
X76366294Y-116138886D01*
X76341421Y-116108579D01*
X76311114Y-116083706D01*
X76276537Y-116065224D01*
X76250400Y-116057295D01*
X76239019Y-116053843D01*
X76212539Y-116051235D01*
X76200000Y-116050000D01*
X76199999Y-116050000D01*
X68613494Y-116050000D01*
X68561168Y-116028326D01*
X68221674Y-115688832D01*
X68200000Y-115636506D01*
X68200000Y-105961460D01*
X71569500Y-105961460D01*
X71569500Y-106158539D01*
X71607947Y-106351829D01*
X71607950Y-106351839D01*
X71683367Y-106533913D01*
X71752397Y-106637223D01*
X71792861Y-106697782D01*
X71932218Y-106837139D01*
X72096086Y-106946632D01*
X72278165Y-107022051D01*
X72471459Y-107060500D01*
X72471461Y-107060500D01*
X72668539Y-107060500D01*
X72668541Y-107060500D01*
X72861835Y-107022051D01*
X73043914Y-106946632D01*
X73207782Y-106837139D01*
X73347139Y-106697782D01*
X73456632Y-106533914D01*
X73532051Y-106351835D01*
X73570500Y-106158541D01*
X73570500Y-105961460D01*
X74109500Y-105961460D01*
X74109500Y-106158539D01*
X74147947Y-106351829D01*
X74147950Y-106351839D01*
X74223367Y-106533913D01*
X74292397Y-106637223D01*
X74332861Y-106697782D01*
X74472218Y-106837139D01*
X74636086Y-106946632D01*
X74818165Y-107022051D01*
X75011459Y-107060500D01*
X75011461Y-107060500D01*
X75208539Y-107060500D01*
X75208541Y-107060500D01*
X75401835Y-107022051D01*
X75583914Y-106946632D01*
X75747782Y-106837139D01*
X75887139Y-106697782D01*
X75996632Y-106533914D01*
X76072051Y-106351835D01*
X76110500Y-106158541D01*
X76110500Y-105961459D01*
X76072051Y-105768165D01*
X75996632Y-105586086D01*
X75887139Y-105422218D01*
X75747782Y-105282861D01*
X75746629Y-105282090D01*
X75583913Y-105173367D01*
X75401839Y-105097950D01*
X75401829Y-105097947D01*
X75250966Y-105067939D01*
X75208541Y-105059500D01*
X75011459Y-105059500D01*
X74969034Y-105067939D01*
X74818170Y-105097947D01*
X74818160Y-105097950D01*
X74636086Y-105173367D01*
X74472218Y-105282860D01*
X74472217Y-105282862D01*
X74332862Y-105422217D01*
X74332860Y-105422218D01*
X74223367Y-105586086D01*
X74147950Y-105768160D01*
X74147947Y-105768170D01*
X74109500Y-105961460D01*
X73570500Y-105961460D01*
X73570500Y-105961459D01*
X73532051Y-105768165D01*
X73456632Y-105586086D01*
X73347139Y-105422218D01*
X73207782Y-105282861D01*
X73206629Y-105282090D01*
X73043913Y-105173367D01*
X72861839Y-105097950D01*
X72861829Y-105097947D01*
X72710966Y-105067939D01*
X72668541Y-105059500D01*
X72471459Y-105059500D01*
X72429034Y-105067939D01*
X72278170Y-105097947D01*
X72278160Y-105097950D01*
X72096086Y-105173367D01*
X71932218Y-105282860D01*
X71932217Y-105282862D01*
X71792862Y-105422217D01*
X71792860Y-105422218D01*
X71683367Y-105586086D01*
X71607950Y-105768160D01*
X71607947Y-105768170D01*
X71569500Y-105961460D01*
X68200000Y-105961460D01*
X68200000Y-98341460D01*
X74109500Y-98341460D01*
X74109500Y-98538539D01*
X74147947Y-98731829D01*
X74147950Y-98731839D01*
X74223367Y-98913913D01*
X74303499Y-99033838D01*
X74332861Y-99077782D01*
X74472218Y-99217139D01*
X74636086Y-99326632D01*
X74818165Y-99402051D01*
X75011459Y-99440500D01*
X75011461Y-99440500D01*
X75208539Y-99440500D01*
X75208541Y-99440500D01*
X75401835Y-99402051D01*
X75583914Y-99326632D01*
X75747782Y-99217139D01*
X75887139Y-99077782D01*
X75996632Y-98913914D01*
X76072051Y-98731835D01*
X76110500Y-98538541D01*
X76110500Y-98341460D01*
X76649500Y-98341460D01*
X76649500Y-98538539D01*
X76687947Y-98731829D01*
X76687950Y-98731839D01*
X76763367Y-98913913D01*
X76843499Y-99033838D01*
X76872861Y-99077782D01*
X77012218Y-99217139D01*
X77176086Y-99326632D01*
X77358165Y-99402051D01*
X77551459Y-99440500D01*
X77551461Y-99440500D01*
X77748539Y-99440500D01*
X77748541Y-99440500D01*
X77941835Y-99402051D01*
X78123914Y-99326632D01*
X78287782Y-99217139D01*
X78427139Y-99077782D01*
X78536632Y-98913914D01*
X78612051Y-98731835D01*
X78650500Y-98538541D01*
X78650500Y-98341460D01*
X79189500Y-98341460D01*
X79189500Y-98538539D01*
X79227947Y-98731829D01*
X79227950Y-98731839D01*
X79303367Y-98913913D01*
X79383499Y-99033838D01*
X79412861Y-99077782D01*
X79552218Y-99217139D01*
X79716086Y-99326632D01*
X79898165Y-99402051D01*
X80091459Y-99440500D01*
X80091461Y-99440500D01*
X80288539Y-99440500D01*
X80288541Y-99440500D01*
X80481835Y-99402051D01*
X80663914Y-99326632D01*
X80827782Y-99217139D01*
X80967139Y-99077782D01*
X81076632Y-98913914D01*
X81152051Y-98731835D01*
X81190500Y-98538541D01*
X81190500Y-98341459D01*
X81152051Y-98148165D01*
X81076632Y-97966086D01*
X80967139Y-97802218D01*
X80827782Y-97662861D01*
X80819351Y-97657227D01*
X80663913Y-97553367D01*
X80481839Y-97477950D01*
X80481829Y-97477947D01*
X80347023Y-97451133D01*
X80288541Y-97439500D01*
X80091459Y-97439500D01*
X80036662Y-97450399D01*
X79898170Y-97477947D01*
X79898160Y-97477950D01*
X79716086Y-97553367D01*
X79552218Y-97662860D01*
X79552217Y-97662862D01*
X79412862Y-97802217D01*
X79412860Y-97802218D01*
X79303367Y-97966086D01*
X79227950Y-98148160D01*
X79227947Y-98148170D01*
X79189500Y-98341460D01*
X78650500Y-98341460D01*
X78650500Y-98341459D01*
X78612051Y-98148165D01*
X78536632Y-97966086D01*
X78427139Y-97802218D01*
X78287782Y-97662861D01*
X78279351Y-97657227D01*
X78123913Y-97553367D01*
X77941839Y-97477950D01*
X77941829Y-97477947D01*
X77807023Y-97451133D01*
X77748541Y-97439500D01*
X77551459Y-97439500D01*
X77496662Y-97450399D01*
X77358170Y-97477947D01*
X77358160Y-97477950D01*
X77176086Y-97553367D01*
X77012218Y-97662860D01*
X77012217Y-97662862D01*
X76872862Y-97802217D01*
X76872860Y-97802218D01*
X76763367Y-97966086D01*
X76687950Y-98148160D01*
X76687947Y-98148170D01*
X76649500Y-98341460D01*
X76110500Y-98341460D01*
X76110500Y-98341459D01*
X76072051Y-98148165D01*
X75996632Y-97966086D01*
X75887139Y-97802218D01*
X75747782Y-97662861D01*
X75739351Y-97657227D01*
X75583913Y-97553367D01*
X75401839Y-97477950D01*
X75401829Y-97477947D01*
X75267023Y-97451133D01*
X75208541Y-97439500D01*
X75011459Y-97439500D01*
X74956662Y-97450399D01*
X74818170Y-97477947D01*
X74818160Y-97477950D01*
X74636086Y-97553367D01*
X74472218Y-97662860D01*
X74472217Y-97662862D01*
X74332862Y-97802217D01*
X74332860Y-97802218D01*
X74223367Y-97966086D01*
X74147950Y-98148160D01*
X74147947Y-98148170D01*
X74109500Y-98341460D01*
X68200000Y-98341460D01*
X68200000Y-91771460D01*
X74869500Y-91771460D01*
X74869500Y-91968539D01*
X74907947Y-92161829D01*
X74907950Y-92161839D01*
X74983367Y-92343913D01*
X75092860Y-92507781D01*
X75232218Y-92647139D01*
X75396086Y-92756632D01*
X75562542Y-92825580D01*
X75578165Y-92832051D01*
X75771459Y-92870500D01*
X75771461Y-92870500D01*
X75968539Y-92870500D01*
X75968541Y-92870500D01*
X76161835Y-92832051D01*
X76343914Y-92756632D01*
X76507782Y-92647139D01*
X76647139Y-92507782D01*
X76756632Y-92343914D01*
X76832051Y-92161835D01*
X76870500Y-91968541D01*
X76870500Y-91771459D01*
X76832051Y-91578165D01*
X76756632Y-91396086D01*
X76647139Y-91232218D01*
X76507782Y-91092861D01*
X76465936Y-91064900D01*
X76343913Y-90983367D01*
X76161839Y-90907950D01*
X76161829Y-90907947D01*
X76025073Y-90880745D01*
X75968541Y-90869500D01*
X75771459Y-90869500D01*
X75716662Y-90880399D01*
X75578170Y-90907947D01*
X75578160Y-90907950D01*
X75396086Y-90983367D01*
X75232218Y-91092860D01*
X75232217Y-91092862D01*
X75092862Y-91232217D01*
X75092860Y-91232218D01*
X74983367Y-91396086D01*
X74907950Y-91578160D01*
X74907947Y-91578170D01*
X74869500Y-91771460D01*
X68200000Y-91771460D01*
X68200000Y-76531460D01*
X74869500Y-76531460D01*
X74869500Y-76728539D01*
X74907947Y-76921829D01*
X74907950Y-76921839D01*
X74983367Y-77103913D01*
X75063499Y-77223838D01*
X75092861Y-77267782D01*
X75232218Y-77407139D01*
X75396086Y-77516632D01*
X75578165Y-77592051D01*
X75771459Y-77630500D01*
X75771461Y-77630500D01*
X75968539Y-77630500D01*
X75968541Y-77630500D01*
X76161835Y-77592051D01*
X76343914Y-77516632D01*
X76507782Y-77407139D01*
X76647139Y-77267782D01*
X76756632Y-77103914D01*
X76832051Y-76921835D01*
X76870500Y-76728541D01*
X76870500Y-76531460D01*
X77409500Y-76531460D01*
X77409500Y-76728539D01*
X77447947Y-76921829D01*
X77447950Y-76921839D01*
X77523367Y-77103913D01*
X77603499Y-77223838D01*
X77632861Y-77267782D01*
X77772218Y-77407139D01*
X77936086Y-77516632D01*
X78118165Y-77592051D01*
X78311459Y-77630500D01*
X78311461Y-77630500D01*
X78508539Y-77630500D01*
X78508541Y-77630500D01*
X78701835Y-77592051D01*
X78883914Y-77516632D01*
X79047782Y-77407139D01*
X79187139Y-77267782D01*
X79296632Y-77103914D01*
X79372051Y-76921835D01*
X79410500Y-76728541D01*
X79410500Y-76531460D01*
X79949500Y-76531460D01*
X79949500Y-76728539D01*
X79987947Y-76921829D01*
X79987950Y-76921839D01*
X80063367Y-77103913D01*
X80143499Y-77223838D01*
X80172861Y-77267782D01*
X80312218Y-77407139D01*
X80476086Y-77516632D01*
X80658165Y-77592051D01*
X80851459Y-77630500D01*
X80851461Y-77630500D01*
X81048539Y-77630500D01*
X81048541Y-77630500D01*
X81241835Y-77592051D01*
X81423914Y-77516632D01*
X81587782Y-77407139D01*
X81727139Y-77267782D01*
X81836632Y-77103914D01*
X81912051Y-76921835D01*
X81950500Y-76728541D01*
X81950500Y-76531460D01*
X82489500Y-76531460D01*
X82489500Y-76728539D01*
X82527947Y-76921829D01*
X82527950Y-76921839D01*
X82603367Y-77103913D01*
X82683499Y-77223838D01*
X82712861Y-77267782D01*
X82852218Y-77407139D01*
X83016086Y-77516632D01*
X83198165Y-77592051D01*
X83391459Y-77630500D01*
X83391461Y-77630500D01*
X83588539Y-77630500D01*
X83588541Y-77630500D01*
X83781835Y-77592051D01*
X83963914Y-77516632D01*
X84127782Y-77407139D01*
X84267139Y-77267782D01*
X84376632Y-77103914D01*
X84452051Y-76921835D01*
X84490500Y-76728541D01*
X84490500Y-76531460D01*
X85029500Y-76531460D01*
X85029500Y-76728539D01*
X85067947Y-76921829D01*
X85067950Y-76921839D01*
X85143367Y-77103913D01*
X85223499Y-77223838D01*
X85252861Y-77267782D01*
X85392218Y-77407139D01*
X85556086Y-77516632D01*
X85738165Y-77592051D01*
X85931459Y-77630500D01*
X85931461Y-77630500D01*
X86128539Y-77630500D01*
X86128541Y-77630500D01*
X86321835Y-77592051D01*
X86503914Y-77516632D01*
X86667782Y-77407139D01*
X86807139Y-77267782D01*
X86916632Y-77103914D01*
X86992051Y-76921835D01*
X87030500Y-76728541D01*
X87030500Y-76531460D01*
X87569500Y-76531460D01*
X87569500Y-76728539D01*
X87607947Y-76921829D01*
X87607950Y-76921839D01*
X87683367Y-77103913D01*
X87763499Y-77223838D01*
X87792861Y-77267782D01*
X87932218Y-77407139D01*
X88096086Y-77516632D01*
X88278165Y-77592051D01*
X88471459Y-77630500D01*
X88471461Y-77630500D01*
X88668539Y-77630500D01*
X88668541Y-77630500D01*
X88861835Y-77592051D01*
X89043914Y-77516632D01*
X89207782Y-77407139D01*
X89347139Y-77267782D01*
X89456632Y-77103914D01*
X89532051Y-76921835D01*
X89570500Y-76728541D01*
X89570500Y-76531460D01*
X90109500Y-76531460D01*
X90109500Y-76728539D01*
X90147947Y-76921829D01*
X90147950Y-76921839D01*
X90223367Y-77103913D01*
X90303499Y-77223838D01*
X90332861Y-77267782D01*
X90472218Y-77407139D01*
X90636086Y-77516632D01*
X90818165Y-77592051D01*
X91011459Y-77630500D01*
X91011461Y-77630500D01*
X91208539Y-77630500D01*
X91208541Y-77630500D01*
X91401835Y-77592051D01*
X91583914Y-77516632D01*
X91747782Y-77407139D01*
X91887139Y-77267782D01*
X91996632Y-77103914D01*
X92072051Y-76921835D01*
X92110500Y-76728541D01*
X92110500Y-76531460D01*
X92649500Y-76531460D01*
X92649500Y-76728539D01*
X92687947Y-76921829D01*
X92687950Y-76921839D01*
X92763367Y-77103913D01*
X92843499Y-77223838D01*
X92872861Y-77267782D01*
X93012218Y-77407139D01*
X93176086Y-77516632D01*
X93358165Y-77592051D01*
X93551459Y-77630500D01*
X93551461Y-77630500D01*
X93748539Y-77630500D01*
X93748541Y-77630500D01*
X93941835Y-77592051D01*
X94123914Y-77516632D01*
X94287782Y-77407139D01*
X94427139Y-77267782D01*
X94536632Y-77103914D01*
X94612051Y-76921835D01*
X94650500Y-76728541D01*
X94650500Y-76531460D01*
X95189500Y-76531460D01*
X95189500Y-76728539D01*
X95227947Y-76921829D01*
X95227950Y-76921839D01*
X95303367Y-77103913D01*
X95383499Y-77223838D01*
X95412861Y-77267782D01*
X95552218Y-77407139D01*
X95716086Y-77516632D01*
X95898165Y-77592051D01*
X96091459Y-77630500D01*
X96091461Y-77630500D01*
X96288539Y-77630500D01*
X96288541Y-77630500D01*
X96481835Y-77592051D01*
X96663914Y-77516632D01*
X96827782Y-77407139D01*
X96967139Y-77267782D01*
X97076632Y-77103914D01*
X97152051Y-76921835D01*
X97190500Y-76728541D01*
X97190500Y-76531460D01*
X97729500Y-76531460D01*
X97729500Y-76728539D01*
X97767947Y-76921829D01*
X97767950Y-76921839D01*
X97843367Y-77103913D01*
X97923499Y-77223838D01*
X97952861Y-77267782D01*
X98092218Y-77407139D01*
X98256086Y-77516632D01*
X98438165Y-77592051D01*
X98631459Y-77630500D01*
X98631461Y-77630500D01*
X98828539Y-77630500D01*
X98828541Y-77630500D01*
X99021835Y-77592051D01*
X99203914Y-77516632D01*
X99367782Y-77407139D01*
X99507139Y-77267782D01*
X99616632Y-77103914D01*
X99692051Y-76921835D01*
X99730500Y-76728541D01*
X99730500Y-76531460D01*
X100269500Y-76531460D01*
X100269500Y-76728539D01*
X100307947Y-76921829D01*
X100307950Y-76921839D01*
X100383367Y-77103913D01*
X100463499Y-77223838D01*
X100492861Y-77267782D01*
X100632218Y-77407139D01*
X100796086Y-77516632D01*
X100978165Y-77592051D01*
X101171459Y-77630500D01*
X101171461Y-77630500D01*
X101368539Y-77630500D01*
X101368541Y-77630500D01*
X101561835Y-77592051D01*
X101743914Y-77516632D01*
X101907782Y-77407139D01*
X102047139Y-77267782D01*
X102156632Y-77103914D01*
X102232051Y-76921835D01*
X102270500Y-76728541D01*
X102270500Y-76531460D01*
X102809500Y-76531460D01*
X102809500Y-76728539D01*
X102847947Y-76921829D01*
X102847950Y-76921839D01*
X102923367Y-77103913D01*
X103003499Y-77223838D01*
X103032861Y-77267782D01*
X103172218Y-77407139D01*
X103336086Y-77516632D01*
X103518165Y-77592051D01*
X103711459Y-77630500D01*
X103711461Y-77630500D01*
X103908539Y-77630500D01*
X103908541Y-77630500D01*
X104101835Y-77592051D01*
X104283914Y-77516632D01*
X104447782Y-77407139D01*
X104587139Y-77267782D01*
X104696632Y-77103914D01*
X104772051Y-76921835D01*
X104810500Y-76728541D01*
X104810500Y-76531460D01*
X105349500Y-76531460D01*
X105349500Y-76728539D01*
X105387947Y-76921829D01*
X105387950Y-76921839D01*
X105463367Y-77103913D01*
X105543499Y-77223838D01*
X105572861Y-77267782D01*
X105712218Y-77407139D01*
X105876086Y-77516632D01*
X106058165Y-77592051D01*
X106251459Y-77630500D01*
X106251461Y-77630500D01*
X106448539Y-77630500D01*
X106448541Y-77630500D01*
X106641835Y-77592051D01*
X106823914Y-77516632D01*
X106987782Y-77407139D01*
X107127139Y-77267782D01*
X107236632Y-77103914D01*
X107312051Y-76921835D01*
X107350500Y-76728541D01*
X107350500Y-76531460D01*
X107889500Y-76531460D01*
X107889500Y-76728539D01*
X107927947Y-76921829D01*
X107927950Y-76921839D01*
X108003367Y-77103913D01*
X108083499Y-77223838D01*
X108112861Y-77267782D01*
X108252218Y-77407139D01*
X108416086Y-77516632D01*
X108598165Y-77592051D01*
X108791459Y-77630500D01*
X108791461Y-77630500D01*
X108988539Y-77630500D01*
X108988541Y-77630500D01*
X109181835Y-77592051D01*
X109363914Y-77516632D01*
X109527782Y-77407139D01*
X109667139Y-77267782D01*
X109776632Y-77103914D01*
X109852051Y-76921835D01*
X109890500Y-76728541D01*
X109890500Y-76531460D01*
X110429500Y-76531460D01*
X110429500Y-76728539D01*
X110467947Y-76921829D01*
X110467950Y-76921839D01*
X110543367Y-77103913D01*
X110623499Y-77223838D01*
X110652861Y-77267782D01*
X110792218Y-77407139D01*
X110956086Y-77516632D01*
X111138165Y-77592051D01*
X111331459Y-77630500D01*
X111331461Y-77630500D01*
X111528539Y-77630500D01*
X111528541Y-77630500D01*
X111721835Y-77592051D01*
X111903914Y-77516632D01*
X112067782Y-77407139D01*
X112207139Y-77267782D01*
X112316632Y-77103914D01*
X112392051Y-76921835D01*
X112430500Y-76728541D01*
X112430500Y-76531459D01*
X112392051Y-76338165D01*
X112316632Y-76156086D01*
X112207139Y-75992218D01*
X112067782Y-75852861D01*
X111903914Y-75743368D01*
X111903915Y-75743368D01*
X111903913Y-75743367D01*
X111721839Y-75667950D01*
X111721829Y-75667947D01*
X111592388Y-75642200D01*
X111528541Y-75629500D01*
X111331459Y-75629500D01*
X111276662Y-75640399D01*
X111138170Y-75667947D01*
X111138160Y-75667950D01*
X110956086Y-75743367D01*
X110792218Y-75852860D01*
X110792217Y-75852862D01*
X110652862Y-75992217D01*
X110652860Y-75992218D01*
X110543367Y-76156086D01*
X110467950Y-76338160D01*
X110467947Y-76338170D01*
X110429500Y-76531460D01*
X109890500Y-76531460D01*
X109890500Y-76531459D01*
X109852051Y-76338165D01*
X109776632Y-76156086D01*
X109667139Y-75992218D01*
X109527782Y-75852861D01*
X109363914Y-75743368D01*
X109363915Y-75743368D01*
X109363913Y-75743367D01*
X109181839Y-75667950D01*
X109181829Y-75667947D01*
X109052388Y-75642200D01*
X108988541Y-75629500D01*
X108791459Y-75629500D01*
X108736662Y-75640399D01*
X108598170Y-75667947D01*
X108598160Y-75667950D01*
X108416086Y-75743367D01*
X108252218Y-75852860D01*
X108252217Y-75852862D01*
X108112862Y-75992217D01*
X108112860Y-75992218D01*
X108003367Y-76156086D01*
X107927950Y-76338160D01*
X107927947Y-76338170D01*
X107889500Y-76531460D01*
X107350500Y-76531460D01*
X107350500Y-76531459D01*
X107312051Y-76338165D01*
X107236632Y-76156086D01*
X107127139Y-75992218D01*
X106987782Y-75852861D01*
X106823914Y-75743368D01*
X106823915Y-75743368D01*
X106823913Y-75743367D01*
X106641839Y-75667950D01*
X106641829Y-75667947D01*
X106512388Y-75642200D01*
X106448541Y-75629500D01*
X106251459Y-75629500D01*
X106196662Y-75640399D01*
X106058170Y-75667947D01*
X106058160Y-75667950D01*
X105876086Y-75743367D01*
X105712218Y-75852860D01*
X105712217Y-75852862D01*
X105572862Y-75992217D01*
X105572860Y-75992218D01*
X105463367Y-76156086D01*
X105387950Y-76338160D01*
X105387947Y-76338170D01*
X105349500Y-76531460D01*
X104810500Y-76531460D01*
X104810500Y-76531459D01*
X104772051Y-76338165D01*
X104696632Y-76156086D01*
X104587139Y-75992218D01*
X104447782Y-75852861D01*
X104283914Y-75743368D01*
X104283915Y-75743368D01*
X104283913Y-75743367D01*
X104101839Y-75667950D01*
X104101829Y-75667947D01*
X103972388Y-75642200D01*
X103908541Y-75629500D01*
X103711459Y-75629500D01*
X103656662Y-75640399D01*
X103518170Y-75667947D01*
X103518160Y-75667950D01*
X103336086Y-75743367D01*
X103172218Y-75852860D01*
X103172217Y-75852862D01*
X103032862Y-75992217D01*
X103032860Y-75992218D01*
X102923367Y-76156086D01*
X102847950Y-76338160D01*
X102847947Y-76338170D01*
X102809500Y-76531460D01*
X102270500Y-76531460D01*
X102270500Y-76531459D01*
X102232051Y-76338165D01*
X102156632Y-76156086D01*
X102047139Y-75992218D01*
X101907782Y-75852861D01*
X101743914Y-75743368D01*
X101743915Y-75743368D01*
X101743913Y-75743367D01*
X101561839Y-75667950D01*
X101561829Y-75667947D01*
X101432388Y-75642200D01*
X101368541Y-75629500D01*
X101171459Y-75629500D01*
X101116662Y-75640399D01*
X100978170Y-75667947D01*
X100978160Y-75667950D01*
X100796086Y-75743367D01*
X100632218Y-75852860D01*
X100632217Y-75852862D01*
X100492862Y-75992217D01*
X100492860Y-75992218D01*
X100383367Y-76156086D01*
X100307950Y-76338160D01*
X100307947Y-76338170D01*
X100269500Y-76531460D01*
X99730500Y-76531460D01*
X99730500Y-76531459D01*
X99692051Y-76338165D01*
X99616632Y-76156086D01*
X99507139Y-75992218D01*
X99367782Y-75852861D01*
X99203914Y-75743368D01*
X99203915Y-75743368D01*
X99203913Y-75743367D01*
X99021839Y-75667950D01*
X99021829Y-75667947D01*
X98892388Y-75642200D01*
X98828541Y-75629500D01*
X98631459Y-75629500D01*
X98576662Y-75640399D01*
X98438170Y-75667947D01*
X98438160Y-75667950D01*
X98256086Y-75743367D01*
X98092218Y-75852860D01*
X98092217Y-75852862D01*
X97952862Y-75992217D01*
X97952860Y-75992218D01*
X97843367Y-76156086D01*
X97767950Y-76338160D01*
X97767947Y-76338170D01*
X97729500Y-76531460D01*
X97190500Y-76531460D01*
X97190500Y-76531459D01*
X97152051Y-76338165D01*
X97076632Y-76156086D01*
X96967139Y-75992218D01*
X96827782Y-75852861D01*
X96663914Y-75743368D01*
X96663915Y-75743368D01*
X96663913Y-75743367D01*
X96481839Y-75667950D01*
X96481829Y-75667947D01*
X96352388Y-75642200D01*
X96288541Y-75629500D01*
X96091459Y-75629500D01*
X96036662Y-75640399D01*
X95898170Y-75667947D01*
X95898160Y-75667950D01*
X95716086Y-75743367D01*
X95552218Y-75852860D01*
X95552217Y-75852862D01*
X95412862Y-75992217D01*
X95412860Y-75992218D01*
X95303367Y-76156086D01*
X95227950Y-76338160D01*
X95227947Y-76338170D01*
X95189500Y-76531460D01*
X94650500Y-76531460D01*
X94650500Y-76531459D01*
X94612051Y-76338165D01*
X94536632Y-76156086D01*
X94427139Y-75992218D01*
X94287782Y-75852861D01*
X94123914Y-75743368D01*
X94123915Y-75743368D01*
X94123913Y-75743367D01*
X93941839Y-75667950D01*
X93941829Y-75667947D01*
X93812388Y-75642200D01*
X93748541Y-75629500D01*
X93551459Y-75629500D01*
X93496662Y-75640399D01*
X93358170Y-75667947D01*
X93358160Y-75667950D01*
X93176086Y-75743367D01*
X93012218Y-75852860D01*
X93012217Y-75852862D01*
X92872862Y-75992217D01*
X92872860Y-75992218D01*
X92763367Y-76156086D01*
X92687950Y-76338160D01*
X92687947Y-76338170D01*
X92649500Y-76531460D01*
X92110500Y-76531460D01*
X92110500Y-76531459D01*
X92072051Y-76338165D01*
X91996632Y-76156086D01*
X91887139Y-75992218D01*
X91747782Y-75852861D01*
X91583914Y-75743368D01*
X91583915Y-75743368D01*
X91583913Y-75743367D01*
X91401839Y-75667950D01*
X91401829Y-75667947D01*
X91272388Y-75642200D01*
X91208541Y-75629500D01*
X91011459Y-75629500D01*
X90956662Y-75640399D01*
X90818170Y-75667947D01*
X90818160Y-75667950D01*
X90636086Y-75743367D01*
X90472218Y-75852860D01*
X90472217Y-75852862D01*
X90332862Y-75992217D01*
X90332860Y-75992218D01*
X90223367Y-76156086D01*
X90147950Y-76338160D01*
X90147947Y-76338170D01*
X90109500Y-76531460D01*
X89570500Y-76531460D01*
X89570500Y-76531459D01*
X89532051Y-76338165D01*
X89456632Y-76156086D01*
X89347139Y-75992218D01*
X89207782Y-75852861D01*
X89043914Y-75743368D01*
X89043915Y-75743368D01*
X89043913Y-75743367D01*
X88861839Y-75667950D01*
X88861829Y-75667947D01*
X88732388Y-75642200D01*
X88668541Y-75629500D01*
X88471459Y-75629500D01*
X88416662Y-75640399D01*
X88278170Y-75667947D01*
X88278160Y-75667950D01*
X88096086Y-75743367D01*
X87932218Y-75852860D01*
X87932217Y-75852862D01*
X87792862Y-75992217D01*
X87792860Y-75992218D01*
X87683367Y-76156086D01*
X87607950Y-76338160D01*
X87607947Y-76338170D01*
X87569500Y-76531460D01*
X87030500Y-76531460D01*
X87030500Y-76531459D01*
X86992051Y-76338165D01*
X86916632Y-76156086D01*
X86807139Y-75992218D01*
X86667782Y-75852861D01*
X86503914Y-75743368D01*
X86503915Y-75743368D01*
X86503913Y-75743367D01*
X86321839Y-75667950D01*
X86321829Y-75667947D01*
X86192388Y-75642200D01*
X86128541Y-75629500D01*
X85931459Y-75629500D01*
X85876662Y-75640399D01*
X85738170Y-75667947D01*
X85738160Y-75667950D01*
X85556086Y-75743367D01*
X85392218Y-75852860D01*
X85392217Y-75852862D01*
X85252862Y-75992217D01*
X85252860Y-75992218D01*
X85143367Y-76156086D01*
X85067950Y-76338160D01*
X85067947Y-76338170D01*
X85029500Y-76531460D01*
X84490500Y-76531460D01*
X84490500Y-76531459D01*
X84452051Y-76338165D01*
X84376632Y-76156086D01*
X84267139Y-75992218D01*
X84127782Y-75852861D01*
X83963914Y-75743368D01*
X83963915Y-75743368D01*
X83963913Y-75743367D01*
X83781839Y-75667950D01*
X83781829Y-75667947D01*
X83652388Y-75642200D01*
X83588541Y-75629500D01*
X83391459Y-75629500D01*
X83336662Y-75640399D01*
X83198170Y-75667947D01*
X83198160Y-75667950D01*
X83016086Y-75743367D01*
X82852218Y-75852860D01*
X82852217Y-75852862D01*
X82712862Y-75992217D01*
X82712860Y-75992218D01*
X82603367Y-76156086D01*
X82527950Y-76338160D01*
X82527947Y-76338170D01*
X82489500Y-76531460D01*
X81950500Y-76531460D01*
X81950500Y-76531459D01*
X81912051Y-76338165D01*
X81836632Y-76156086D01*
X81727139Y-75992218D01*
X81587782Y-75852861D01*
X81423914Y-75743368D01*
X81423915Y-75743368D01*
X81423913Y-75743367D01*
X81241839Y-75667950D01*
X81241829Y-75667947D01*
X81112388Y-75642200D01*
X81048541Y-75629500D01*
X80851459Y-75629500D01*
X80796662Y-75640399D01*
X80658170Y-75667947D01*
X80658160Y-75667950D01*
X80476086Y-75743367D01*
X80312218Y-75852860D01*
X80312217Y-75852862D01*
X80172862Y-75992217D01*
X80172860Y-75992218D01*
X80063367Y-76156086D01*
X79987950Y-76338160D01*
X79987947Y-76338170D01*
X79949500Y-76531460D01*
X79410500Y-76531460D01*
X79410500Y-76531459D01*
X79372051Y-76338165D01*
X79296632Y-76156086D01*
X79187139Y-75992218D01*
X79047782Y-75852861D01*
X78883914Y-75743368D01*
X78883915Y-75743368D01*
X78883913Y-75743367D01*
X78701839Y-75667950D01*
X78701829Y-75667947D01*
X78572388Y-75642200D01*
X78508541Y-75629500D01*
X78311459Y-75629500D01*
X78256662Y-75640399D01*
X78118170Y-75667947D01*
X78118160Y-75667950D01*
X77936086Y-75743367D01*
X77772218Y-75852860D01*
X77772217Y-75852862D01*
X77632862Y-75992217D01*
X77632860Y-75992218D01*
X77523367Y-76156086D01*
X77447950Y-76338160D01*
X77447947Y-76338170D01*
X77409500Y-76531460D01*
X76870500Y-76531460D01*
X76870500Y-76531459D01*
X76832051Y-76338165D01*
X76756632Y-76156086D01*
X76647139Y-75992218D01*
X76507782Y-75852861D01*
X76343914Y-75743368D01*
X76343915Y-75743368D01*
X76343913Y-75743367D01*
X76161839Y-75667950D01*
X76161829Y-75667947D01*
X76032388Y-75642200D01*
X75968541Y-75629500D01*
X75771459Y-75629500D01*
X75716662Y-75640399D01*
X75578170Y-75667947D01*
X75578160Y-75667950D01*
X75396086Y-75743367D01*
X75232218Y-75852860D01*
X75232217Y-75852862D01*
X75092862Y-75992217D01*
X75092860Y-75992218D01*
X74983367Y-76156086D01*
X74907950Y-76338160D01*
X74907947Y-76338170D01*
X74869500Y-76531460D01*
X68200000Y-76531460D01*
X68200000Y-69711460D01*
X105729500Y-69711460D01*
X105729500Y-69908539D01*
X105767947Y-70101829D01*
X105767950Y-70101839D01*
X105843367Y-70283913D01*
X105952860Y-70447781D01*
X106092218Y-70587139D01*
X106256086Y-70696632D01*
X106422542Y-70765580D01*
X106438165Y-70772051D01*
X106631459Y-70810500D01*
X106631461Y-70810500D01*
X106828539Y-70810500D01*
X106828541Y-70810500D01*
X107021835Y-70772051D01*
X107203914Y-70696632D01*
X107367782Y-70587139D01*
X107507139Y-70447782D01*
X107616632Y-70283914D01*
X107692051Y-70101835D01*
X107730500Y-69908541D01*
X107730500Y-69711460D01*
X108269500Y-69711460D01*
X108269500Y-69908539D01*
X108307947Y-70101829D01*
X108307950Y-70101839D01*
X108383367Y-70283913D01*
X108492860Y-70447781D01*
X108632218Y-70587139D01*
X108796086Y-70696632D01*
X108962542Y-70765580D01*
X108978165Y-70772051D01*
X109171459Y-70810500D01*
X109171461Y-70810500D01*
X109368539Y-70810500D01*
X109368541Y-70810500D01*
X109561835Y-70772051D01*
X109743914Y-70696632D01*
X109907782Y-70587139D01*
X110047139Y-70447782D01*
X110156632Y-70283914D01*
X110232051Y-70101835D01*
X110270500Y-69908541D01*
X110270500Y-69711459D01*
X110232051Y-69518165D01*
X110156632Y-69336086D01*
X110047139Y-69172218D01*
X109907782Y-69032861D01*
X109743914Y-68923368D01*
X109743915Y-68923368D01*
X109743913Y-68923367D01*
X109561839Y-68847950D01*
X109561829Y-68847947D01*
X109432388Y-68822200D01*
X109368541Y-68809500D01*
X109171459Y-68809500D01*
X109116662Y-68820399D01*
X108978170Y-68847947D01*
X108978160Y-68847950D01*
X108796086Y-68923367D01*
X108632218Y-69032860D01*
X108632217Y-69032862D01*
X108492862Y-69172217D01*
X108492860Y-69172218D01*
X108383367Y-69336086D01*
X108307950Y-69518160D01*
X108307947Y-69518170D01*
X108269500Y-69711460D01*
X107730500Y-69711460D01*
X107730500Y-69711459D01*
X107692051Y-69518165D01*
X107616632Y-69336086D01*
X107507139Y-69172218D01*
X107367782Y-69032861D01*
X107203914Y-68923368D01*
X107203915Y-68923368D01*
X107203913Y-68923367D01*
X107021839Y-68847950D01*
X107021829Y-68847947D01*
X106892388Y-68822200D01*
X106828541Y-68809500D01*
X106631459Y-68809500D01*
X106576662Y-68820399D01*
X106438170Y-68847947D01*
X106438160Y-68847950D01*
X106256086Y-68923367D01*
X106092218Y-69032860D01*
X106092217Y-69032862D01*
X105952862Y-69172217D01*
X105952860Y-69172218D01*
X105843367Y-69336086D01*
X105767950Y-69518160D01*
X105767947Y-69518170D01*
X105729500Y-69711460D01*
X68200000Y-69711460D01*
X68200000Y-67181310D01*
X97099500Y-67181310D01*
X97099500Y-67358689D01*
X97134104Y-67532660D01*
X97134107Y-67532670D01*
X97201985Y-67696544D01*
X97201986Y-67696546D01*
X97201987Y-67696547D01*
X97300536Y-67844035D01*
X97425965Y-67969464D01*
X97573453Y-68068013D01*
X97573454Y-68068013D01*
X97573455Y-68068014D01*
X97737329Y-68135892D01*
X97737334Y-68135894D01*
X97911309Y-68170500D01*
X97911311Y-68170500D01*
X98088689Y-68170500D01*
X98088691Y-68170500D01*
X98262666Y-68135894D01*
X98426547Y-68068013D01*
X98574035Y-67969464D01*
X98699464Y-67844035D01*
X98798013Y-67696547D01*
X98865894Y-67532666D01*
X98900500Y-67358691D01*
X98900500Y-67181309D01*
X98865894Y-67007334D01*
X98798013Y-66843453D01*
X98699464Y-66695965D01*
X98574035Y-66570536D01*
X98426547Y-66471987D01*
X98426546Y-66471986D01*
X98426544Y-66471985D01*
X98262670Y-66404107D01*
X98262660Y-66404104D01*
X98146156Y-66380930D01*
X98088691Y-66369500D01*
X97911309Y-66369500D01*
X97861989Y-66379310D01*
X97737339Y-66404104D01*
X97737329Y-66404107D01*
X97573455Y-66471985D01*
X97425968Y-66570533D01*
X97300533Y-66695968D01*
X97201985Y-66843455D01*
X97134107Y-67007329D01*
X97134104Y-67007339D01*
X97099500Y-67181310D01*
X68200000Y-67181310D01*
X68200000Y-64641310D01*
X97099500Y-64641310D01*
X97099500Y-64818689D01*
X97134104Y-64992660D01*
X97134107Y-64992670D01*
X97201985Y-65156544D01*
X97201986Y-65156546D01*
X97201987Y-65156547D01*
X97300536Y-65304035D01*
X97425965Y-65429464D01*
X97573453Y-65528013D01*
X97573454Y-65528013D01*
X97573455Y-65528014D01*
X97656966Y-65562605D01*
X97737334Y-65595894D01*
X97911309Y-65630500D01*
X97911311Y-65630500D01*
X98088689Y-65630500D01*
X98088691Y-65630500D01*
X98262666Y-65595894D01*
X98426547Y-65528013D01*
X98574035Y-65429464D01*
X98699464Y-65304035D01*
X98798013Y-65156547D01*
X98865894Y-64992666D01*
X98900500Y-64818691D01*
X98900500Y-64641309D01*
X98865894Y-64467334D01*
X98798013Y-64303453D01*
X98699464Y-64155965D01*
X98574035Y-64030536D01*
X98426547Y-63931987D01*
X98426546Y-63931986D01*
X98426544Y-63931985D01*
X98262670Y-63864107D01*
X98262660Y-63864104D01*
X98146156Y-63840930D01*
X98088691Y-63829500D01*
X97911309Y-63829500D01*
X97861989Y-63839310D01*
X97737339Y-63864104D01*
X97737329Y-63864107D01*
X97573455Y-63931985D01*
X97425968Y-64030533D01*
X97300533Y-64155968D01*
X97201985Y-64303455D01*
X97134107Y-64467329D01*
X97134104Y-64467339D01*
X97099500Y-64641310D01*
X68200000Y-64641310D01*
X68200000Y-62091460D01*
X108269500Y-62091460D01*
X108269500Y-62288539D01*
X108307947Y-62481829D01*
X108307950Y-62481839D01*
X108383367Y-62663913D01*
X108400940Y-62690212D01*
X108492861Y-62827782D01*
X108632218Y-62967139D01*
X108796086Y-63076632D01*
X108978165Y-63152051D01*
X109171459Y-63190500D01*
X109171461Y-63190500D01*
X109368539Y-63190500D01*
X109368541Y-63190500D01*
X109561835Y-63152051D01*
X109689568Y-63099142D01*
X109746204Y-63099142D01*
X109770212Y-63115183D01*
X116947826Y-70292797D01*
X116969500Y-70345123D01*
X116969500Y-72850331D01*
X116947826Y-72902657D01*
X116923819Y-72918698D01*
X116843453Y-72951986D01*
X116695968Y-73050533D01*
X116570533Y-73175968D01*
X116471985Y-73323455D01*
X116404107Y-73487329D01*
X116404104Y-73487339D01*
X116369500Y-73661310D01*
X116369500Y-73838689D01*
X116404104Y-74012660D01*
X116404107Y-74012670D01*
X116471985Y-74176544D01*
X116471986Y-74176546D01*
X116471987Y-74176547D01*
X116570536Y-74324035D01*
X116695965Y-74449464D01*
X116843453Y-74548013D01*
X116843454Y-74548013D01*
X116843455Y-74548014D01*
X116965693Y-74598646D01*
X117007334Y-74615894D01*
X117181309Y-74650500D01*
X117181311Y-74650500D01*
X117358689Y-74650500D01*
X117358691Y-74650500D01*
X117532666Y-74615894D01*
X117696547Y-74548013D01*
X117844035Y-74449464D01*
X117969464Y-74324035D01*
X118068013Y-74176547D01*
X118135894Y-74012666D01*
X118170500Y-73838691D01*
X118170500Y-73661309D01*
X118135894Y-73487334D01*
X118068013Y-73323453D01*
X117969464Y-73175965D01*
X117844035Y-73050536D01*
X117844031Y-73050533D01*
X117696546Y-72951986D01*
X117616181Y-72918698D01*
X117576133Y-72878649D01*
X117570500Y-72850331D01*
X117570500Y-70150436D01*
X117570499Y-70150435D01*
X117550022Y-70074014D01*
X117550020Y-70074009D01*
X117510459Y-70005488D01*
X114686281Y-67181310D01*
X117099500Y-67181310D01*
X117099500Y-67358689D01*
X117134104Y-67532660D01*
X117134107Y-67532670D01*
X117201985Y-67696544D01*
X117201986Y-67696546D01*
X117201987Y-67696547D01*
X117300536Y-67844035D01*
X117425965Y-67969464D01*
X117573453Y-68068013D01*
X117573454Y-68068013D01*
X117573455Y-68068014D01*
X117737329Y-68135892D01*
X117737334Y-68135894D01*
X117911309Y-68170500D01*
X117911311Y-68170500D01*
X118088689Y-68170500D01*
X118088691Y-68170500D01*
X118262666Y-68135894D01*
X118426547Y-68068013D01*
X118574035Y-67969464D01*
X118699464Y-67844035D01*
X118798013Y-67696547D01*
X118865894Y-67532666D01*
X118900500Y-67358691D01*
X118900500Y-67181310D01*
X122099500Y-67181310D01*
X122099500Y-67358689D01*
X122134104Y-67532660D01*
X122134107Y-67532670D01*
X122201985Y-67696544D01*
X122201986Y-67696546D01*
X122201987Y-67696547D01*
X122300536Y-67844035D01*
X122425965Y-67969464D01*
X122573453Y-68068013D01*
X122573454Y-68068013D01*
X122573455Y-68068014D01*
X122737329Y-68135892D01*
X122737334Y-68135894D01*
X122911309Y-68170500D01*
X122911311Y-68170500D01*
X123088689Y-68170500D01*
X123088691Y-68170500D01*
X123262666Y-68135894D01*
X123426547Y-68068013D01*
X123574035Y-67969464D01*
X123699464Y-67844035D01*
X123798013Y-67696547D01*
X123865894Y-67532666D01*
X123900500Y-67358691D01*
X123900500Y-67181309D01*
X123865894Y-67007334D01*
X123798013Y-66843453D01*
X123699464Y-66695965D01*
X123574035Y-66570536D01*
X123426547Y-66471987D01*
X123426546Y-66471986D01*
X123426544Y-66471985D01*
X123262670Y-66404107D01*
X123262660Y-66404104D01*
X123146156Y-66380930D01*
X123088691Y-66369500D01*
X122911309Y-66369500D01*
X122861989Y-66379310D01*
X122737339Y-66404104D01*
X122737329Y-66404107D01*
X122573455Y-66471985D01*
X122425968Y-66570533D01*
X122300533Y-66695968D01*
X122201985Y-66843455D01*
X122134107Y-67007329D01*
X122134104Y-67007339D01*
X122099500Y-67181310D01*
X118900500Y-67181310D01*
X118900500Y-67181309D01*
X118865894Y-67007334D01*
X118798013Y-66843453D01*
X118699464Y-66695965D01*
X118574035Y-66570536D01*
X118426547Y-66471987D01*
X118426546Y-66471986D01*
X118426544Y-66471985D01*
X118262670Y-66404107D01*
X118262660Y-66404104D01*
X118146156Y-66380930D01*
X118088691Y-66369500D01*
X117911309Y-66369500D01*
X117861989Y-66379310D01*
X117737339Y-66404104D01*
X117737329Y-66404107D01*
X117573455Y-66471985D01*
X117425968Y-66570533D01*
X117300533Y-66695968D01*
X117201985Y-66843455D01*
X117134107Y-67007329D01*
X117134104Y-67007339D01*
X117099500Y-67181310D01*
X114686281Y-67181310D01*
X112146281Y-64641310D01*
X117099500Y-64641310D01*
X117099500Y-64818689D01*
X117134104Y-64992660D01*
X117134107Y-64992670D01*
X117201985Y-65156544D01*
X117201986Y-65156546D01*
X117201987Y-65156547D01*
X117300536Y-65304035D01*
X117425965Y-65429464D01*
X117573453Y-65528013D01*
X117573454Y-65528013D01*
X117573455Y-65528014D01*
X117656966Y-65562605D01*
X117737334Y-65595894D01*
X117911309Y-65630500D01*
X117911311Y-65630500D01*
X118088689Y-65630500D01*
X118088691Y-65630500D01*
X118262666Y-65595894D01*
X118426547Y-65528013D01*
X118574035Y-65429464D01*
X118699464Y-65304035D01*
X118798013Y-65156547D01*
X118865894Y-64992666D01*
X118900500Y-64818691D01*
X118900500Y-64641309D01*
X118865894Y-64467334D01*
X118798013Y-64303453D01*
X118699464Y-64155965D01*
X118574035Y-64030536D01*
X118426547Y-63931987D01*
X118426546Y-63931986D01*
X118426544Y-63931985D01*
X118262670Y-63864107D01*
X118262660Y-63864104D01*
X118146156Y-63840930D01*
X118088691Y-63829500D01*
X117911309Y-63829500D01*
X117861989Y-63839310D01*
X117737339Y-63864104D01*
X117737329Y-63864107D01*
X117573455Y-63931985D01*
X117425968Y-64030533D01*
X117300533Y-64155968D01*
X117201985Y-64303455D01*
X117134107Y-64467329D01*
X117134104Y-64467339D01*
X117099500Y-64641310D01*
X112146281Y-64641310D01*
X110821297Y-63316326D01*
X110799623Y-63264000D01*
X110821297Y-63211674D01*
X110873623Y-63190000D01*
X110981536Y-63190000D01*
X110988783Y-63190356D01*
X110990246Y-63190500D01*
X110990252Y-63190500D01*
X112629754Y-63190500D01*
X112631217Y-63190356D01*
X112638464Y-63190000D01*
X112810000Y-63190000D01*
X112810000Y-63018459D01*
X112810357Y-63011203D01*
X112810500Y-63009751D01*
X112810500Y-61370246D01*
X112810356Y-61368783D01*
X112810000Y-61361536D01*
X112810000Y-61190000D01*
X112638464Y-61190000D01*
X112631217Y-61189644D01*
X112629754Y-61189500D01*
X112629748Y-61189500D01*
X110990252Y-61189500D01*
X110990246Y-61189500D01*
X110988783Y-61189644D01*
X110981536Y-61190000D01*
X110810000Y-61190000D01*
X110810000Y-61361536D01*
X110809644Y-61368783D01*
X110809500Y-61370246D01*
X110809500Y-63009751D01*
X110809643Y-63011203D01*
X110810000Y-63018459D01*
X110810000Y-63126377D01*
X110788326Y-63178703D01*
X110736000Y-63200377D01*
X110683674Y-63178703D01*
X110195183Y-62690212D01*
X110173509Y-62637886D01*
X110179142Y-62609567D01*
X110232051Y-62481835D01*
X110270500Y-62288541D01*
X110270500Y-62091459D01*
X110232051Y-61898165D01*
X110156632Y-61716086D01*
X110047139Y-61552218D01*
X109907782Y-61412861D01*
X109844014Y-61370252D01*
X109743913Y-61303367D01*
X109561839Y-61227950D01*
X109561829Y-61227947D01*
X109427023Y-61201133D01*
X109368541Y-61189500D01*
X109171459Y-61189500D01*
X109116662Y-61200399D01*
X108978170Y-61227947D01*
X108978160Y-61227950D01*
X108796086Y-61303367D01*
X108632218Y-61412860D01*
X108632217Y-61412862D01*
X108492862Y-61552217D01*
X108492860Y-61552218D01*
X108383367Y-61716086D01*
X108307950Y-61898160D01*
X108307947Y-61898170D01*
X108269500Y-62091460D01*
X68200000Y-62091460D01*
X68200000Y-60274000D01*
X68221674Y-60221674D01*
X68274000Y-60200000D01*
X131726000Y-60200000D01*
X131778326Y-60221674D01*
G37*
%TD.AperFunction*%
%TA.AperFunction,Conductor*%
G36*
X117636826Y-110149297D02*
G01*
X118751626Y-111264097D01*
X118773300Y-111316423D01*
X118773300Y-129439734D01*
X118751626Y-129492060D01*
X118673300Y-129570385D01*
X118607410Y-129684509D01*
X118607406Y-129684518D01*
X118573300Y-129811805D01*
X118573300Y-129943594D01*
X118607406Y-130070881D01*
X118607410Y-130070890D01*
X118673300Y-130185014D01*
X118751626Y-130263340D01*
X118773300Y-130315666D01*
X118773300Y-130552064D01*
X118793777Y-130628485D01*
X118793778Y-130628487D01*
X118793779Y-130628489D01*
X118805910Y-130649500D01*
X118833340Y-130697011D01*
X120799503Y-132663174D01*
X120821177Y-132715500D01*
X120799503Y-132767826D01*
X120747177Y-132789500D01*
X120570246Y-132789500D01*
X120568783Y-132789644D01*
X120561536Y-132790000D01*
X120390000Y-132790000D01*
X120372326Y-132807674D01*
X120320000Y-132829348D01*
X120267674Y-132807674D01*
X120250000Y-132790000D01*
X120078464Y-132790000D01*
X120071217Y-132789644D01*
X120069754Y-132789500D01*
X120069748Y-132789500D01*
X119424500Y-132789500D01*
X119372174Y-132767826D01*
X119350500Y-132715500D01*
X119350500Y-132620677D01*
X119360414Y-132583677D01*
X119404692Y-132506986D01*
X119438799Y-132379694D01*
X119438800Y-132379694D01*
X119438800Y-132247906D01*
X119438799Y-132247905D01*
X119432796Y-132225503D01*
X119404692Y-132120614D01*
X119338800Y-132006486D01*
X119245614Y-131913300D01*
X119131490Y-131847410D01*
X119131481Y-131847406D01*
X119004194Y-131813300D01*
X119004192Y-131813300D01*
X118872408Y-131813300D01*
X118872406Y-131813300D01*
X118745118Y-131847406D01*
X118745109Y-131847410D01*
X118630985Y-131913300D01*
X118537800Y-132006485D01*
X118471910Y-132120609D01*
X118471906Y-132120618D01*
X118437800Y-132247905D01*
X118437800Y-132379694D01*
X118471906Y-132506981D01*
X118471910Y-132506990D01*
X118537800Y-132621114D01*
X118579860Y-132663174D01*
X118601534Y-132715500D01*
X118579860Y-132767826D01*
X118527534Y-132789500D01*
X118030246Y-132789500D01*
X118028783Y-132789644D01*
X118021536Y-132790000D01*
X117984000Y-132790000D01*
X117931674Y-132768326D01*
X117910000Y-132716000D01*
X117910000Y-130300001D01*
X117910000Y-130300000D01*
X117906157Y-130260982D01*
X117894776Y-130223463D01*
X117876294Y-130188886D01*
X117851421Y-130158579D01*
X117821114Y-130133706D01*
X117786537Y-130115224D01*
X117760400Y-130107295D01*
X117749019Y-130103843D01*
X117729509Y-130101921D01*
X117710000Y-130100000D01*
X117709999Y-130100000D01*
X115310001Y-130100000D01*
X115310000Y-130100000D01*
X115296994Y-130101281D01*
X115270980Y-130103843D01*
X115248218Y-130110748D01*
X115233463Y-130115224D01*
X115233461Y-130115224D01*
X115233461Y-130115225D01*
X115198887Y-130133705D01*
X115198883Y-130133708D01*
X115168579Y-130158579D01*
X115143708Y-130188883D01*
X115143705Y-130188887D01*
X115125225Y-130223461D01*
X115113843Y-130260980D01*
X115110000Y-130300001D01*
X115110000Y-139726000D01*
X115088326Y-139778326D01*
X115036000Y-139800000D01*
X112704500Y-139800000D01*
X112652174Y-139778326D01*
X112630500Y-139726000D01*
X112630500Y-132970246D01*
X112630356Y-132968783D01*
X112630000Y-132961536D01*
X112630000Y-132790000D01*
X112458464Y-132790000D01*
X112451217Y-132789644D01*
X112449754Y-132789500D01*
X112449748Y-132789500D01*
X111804500Y-132789500D01*
X111752174Y-132767826D01*
X111730500Y-132715500D01*
X111730500Y-131105122D01*
X111752173Y-131052797D01*
X116009787Y-126795182D01*
X116062112Y-126773509D01*
X116090430Y-126779142D01*
X116206970Y-126827414D01*
X116218165Y-126832051D01*
X116411459Y-126870500D01*
X116411461Y-126870500D01*
X116608539Y-126870500D01*
X116608541Y-126870500D01*
X116801835Y-126832051D01*
X116983914Y-126756632D01*
X117147782Y-126647139D01*
X117287139Y-126507782D01*
X117396632Y-126343914D01*
X117472051Y-126161835D01*
X117510500Y-125968541D01*
X117510500Y-125771459D01*
X117472051Y-125578165D01*
X117396632Y-125396086D01*
X117287139Y-125232218D01*
X117147782Y-125092861D01*
X117139350Y-125087227D01*
X117093650Y-125056691D01*
X116983914Y-124983368D01*
X116983911Y-124983366D01*
X116983910Y-124983366D01*
X116856181Y-124930459D01*
X116816133Y-124890410D01*
X116810500Y-124862092D01*
X116810500Y-111704500D01*
X116832174Y-111652174D01*
X116884500Y-111630500D01*
X117329754Y-111630500D01*
X117331217Y-111630356D01*
X117338464Y-111630000D01*
X117510000Y-111630000D01*
X117510000Y-111458459D01*
X117510357Y-111451203D01*
X117510500Y-111449751D01*
X117510500Y-110201623D01*
X117532174Y-110149297D01*
X117584500Y-110127623D01*
X117636826Y-110149297D01*
G37*
%TD.AperFunction*%
%TA.AperFunction,Conductor*%
G36*
X83666612Y-98972309D02*
G01*
X83698078Y-99019401D01*
X83699500Y-99033838D01*
X83699500Y-100031834D01*
X83677826Y-100084160D01*
X83625500Y-100105834D01*
X83573174Y-100084160D01*
X83502814Y-100013800D01*
X83388690Y-99947910D01*
X83388681Y-99947906D01*
X83261394Y-99913800D01*
X83261392Y-99913800D01*
X83129608Y-99913800D01*
X83129606Y-99913800D01*
X83002318Y-99947906D01*
X83002309Y-99947910D01*
X82888185Y-100013800D01*
X82795000Y-100106985D01*
X82729110Y-100221109D01*
X82729106Y-100221118D01*
X82695000Y-100348405D01*
X82695000Y-100480194D01*
X82729106Y-100607481D01*
X82729110Y-100607490D01*
X82795000Y-100721614D01*
X82873326Y-100799940D01*
X82895000Y-100852266D01*
X82895000Y-104599864D01*
X82915477Y-104676285D01*
X82915479Y-104676290D01*
X82955040Y-104744811D01*
X83247592Y-105037363D01*
X83269266Y-105089689D01*
X83247592Y-105142015D01*
X83195266Y-105163689D01*
X83166948Y-105158056D01*
X83021839Y-105097950D01*
X83021829Y-105097947D01*
X82870966Y-105067939D01*
X82828541Y-105059500D01*
X82631459Y-105059500D01*
X82589034Y-105067939D01*
X82438170Y-105097947D01*
X82438160Y-105097950D01*
X82256086Y-105173367D01*
X82092218Y-105282860D01*
X82092217Y-105282862D01*
X81952862Y-105422217D01*
X81952860Y-105422218D01*
X81843367Y-105586086D01*
X81767950Y-105768160D01*
X81767947Y-105768170D01*
X81729500Y-105961460D01*
X81729500Y-106158539D01*
X81767947Y-106351829D01*
X81767950Y-106351839D01*
X81843367Y-106533913D01*
X81912397Y-106637223D01*
X81952861Y-106697782D01*
X82092218Y-106837139D01*
X82256086Y-106946632D01*
X82438165Y-107022051D01*
X82631459Y-107060500D01*
X82631461Y-107060500D01*
X82828539Y-107060500D01*
X82828541Y-107060500D01*
X83021835Y-107022051D01*
X83203914Y-106946632D01*
X83367782Y-106837139D01*
X83507139Y-106697782D01*
X83599681Y-106559282D01*
X83613839Y-106549822D01*
X83624207Y-106536311D01*
X83636478Y-106534695D01*
X83646771Y-106527818D01*
X83663474Y-106531140D01*
X83680360Y-106528917D01*
X83690180Y-106536452D01*
X83702320Y-106538867D01*
X83725293Y-106563395D01*
X83745076Y-106597659D01*
X83745077Y-106597660D01*
X83759540Y-106622711D01*
X84881689Y-107744860D01*
X84950212Y-107784422D01*
X85026638Y-107804900D01*
X85406234Y-107804900D01*
X85458560Y-107826574D01*
X85536886Y-107904900D01*
X85651014Y-107970792D01*
X85651018Y-107970793D01*
X85655494Y-107972647D01*
X85654465Y-107975129D01*
X85692569Y-108004332D01*
X85699995Y-108060481D01*
X85680831Y-108093696D01*
X84704689Y-109069840D01*
X84648740Y-109125788D01*
X84609179Y-109194309D01*
X84609177Y-109194314D01*
X84588700Y-109270735D01*
X84588700Y-122757677D01*
X84567026Y-122810003D01*
X80709540Y-126667488D01*
X80669979Y-126736009D01*
X80669977Y-126736014D01*
X80649500Y-126812435D01*
X80649500Y-132715500D01*
X80627826Y-132767826D01*
X80575500Y-132789500D01*
X79930246Y-132789500D01*
X79928783Y-132789644D01*
X79921536Y-132790000D01*
X79750000Y-132790000D01*
X79732326Y-132807674D01*
X79680000Y-132829348D01*
X79627674Y-132807674D01*
X79610000Y-132790000D01*
X79438464Y-132790000D01*
X79431217Y-132789644D01*
X79429754Y-132789500D01*
X79429748Y-132789500D01*
X78912423Y-132789500D01*
X78860097Y-132767826D01*
X78838423Y-132715500D01*
X78860097Y-132663174D01*
X78880764Y-132642507D01*
X79010460Y-132512811D01*
X79018561Y-132498780D01*
X79050021Y-132444289D01*
X79070499Y-132367864D01*
X79070500Y-132367864D01*
X79070500Y-106311620D01*
X79092174Y-106259294D01*
X79144500Y-106237620D01*
X79196826Y-106259294D01*
X79217078Y-106297183D01*
X79227947Y-106351829D01*
X79227950Y-106351839D01*
X79303367Y-106533913D01*
X79372397Y-106637223D01*
X79412861Y-106697782D01*
X79552218Y-106837139D01*
X79716086Y-106946632D01*
X79898165Y-107022051D01*
X80091459Y-107060500D01*
X80091461Y-107060500D01*
X80288539Y-107060500D01*
X80288541Y-107060500D01*
X80481835Y-107022051D01*
X80663914Y-106946632D01*
X80827782Y-106837139D01*
X80967139Y-106697782D01*
X81076632Y-106533914D01*
X81152051Y-106351835D01*
X81190500Y-106158541D01*
X81190500Y-105961459D01*
X81152051Y-105768165D01*
X81076632Y-105586086D01*
X80967139Y-105422218D01*
X80827782Y-105282861D01*
X80826629Y-105282090D01*
X80663913Y-105173367D01*
X80481839Y-105097950D01*
X80481829Y-105097947D01*
X80330966Y-105067939D01*
X80288541Y-105059500D01*
X80091459Y-105059500D01*
X80049034Y-105067939D01*
X79898170Y-105097947D01*
X79898160Y-105097950D01*
X79716086Y-105173367D01*
X79552218Y-105282860D01*
X79552217Y-105282862D01*
X79412862Y-105422217D01*
X79412860Y-105422218D01*
X79303367Y-105586086D01*
X79227950Y-105768160D01*
X79227947Y-105768170D01*
X79217078Y-105822816D01*
X79185612Y-105869908D01*
X79130063Y-105880957D01*
X79082971Y-105849491D01*
X79070500Y-105808379D01*
X79070500Y-102555122D01*
X79092173Y-102502797D01*
X82229787Y-99365182D01*
X82282112Y-99343509D01*
X82310430Y-99349142D01*
X82438160Y-99402049D01*
X82438165Y-99402051D01*
X82631459Y-99440500D01*
X82631461Y-99440500D01*
X82828539Y-99440500D01*
X82828541Y-99440500D01*
X83021835Y-99402051D01*
X83203914Y-99326632D01*
X83367782Y-99217139D01*
X83507139Y-99077782D01*
X83563971Y-98992725D01*
X83611063Y-98961260D01*
X83666612Y-98972309D01*
G37*
%TD.AperFunction*%
%TA.AperFunction,Conductor*%
G36*
X103111253Y-109809174D02*
G01*
X103132927Y-109861500D01*
X103111253Y-109913826D01*
X103032862Y-109992217D01*
X103032860Y-109992218D01*
X102923367Y-110156086D01*
X102847950Y-110338160D01*
X102847947Y-110338170D01*
X102809500Y-110531460D01*
X102809500Y-110728539D01*
X102847947Y-110921829D01*
X102847950Y-110921839D01*
X102923367Y-111103913D01*
X103030399Y-111264097D01*
X103032861Y-111267782D01*
X103172218Y-111407139D01*
X103336086Y-111516632D01*
X103463818Y-111569539D01*
X103503867Y-111609587D01*
X103509500Y-111637906D01*
X103509500Y-117438564D01*
X103529977Y-117514985D01*
X103529979Y-117514990D01*
X103559430Y-117566000D01*
X103569540Y-117583511D01*
X104090926Y-118104897D01*
X104112600Y-118157223D01*
X104112600Y-118267994D01*
X104146706Y-118395281D01*
X104146707Y-118395284D01*
X104146708Y-118395286D01*
X104212600Y-118509414D01*
X104305786Y-118602600D01*
X104419914Y-118668492D01*
X104547205Y-118702599D01*
X104547206Y-118702600D01*
X104547208Y-118702600D01*
X104678994Y-118702600D01*
X104678994Y-118702599D01*
X104806286Y-118668492D01*
X104920414Y-118602600D01*
X105013600Y-118509414D01*
X105079492Y-118395286D01*
X105113599Y-118267994D01*
X105113600Y-118267994D01*
X105113600Y-118136206D01*
X105113599Y-118136205D01*
X105079493Y-118008918D01*
X105079492Y-118008914D01*
X105013600Y-117894786D01*
X104920414Y-117801600D01*
X104871428Y-117773318D01*
X104806290Y-117735710D01*
X104806281Y-117735706D01*
X104678994Y-117701600D01*
X104678992Y-117701600D01*
X104568223Y-117701600D01*
X104515897Y-117679926D01*
X104132174Y-117296203D01*
X104110500Y-117243877D01*
X104110500Y-111637906D01*
X104132174Y-111585580D01*
X104156180Y-111569539D01*
X104283914Y-111516632D01*
X104447782Y-111407139D01*
X104587139Y-111267782D01*
X104696632Y-111103914D01*
X104772051Y-110921835D01*
X104810500Y-110728541D01*
X104810500Y-110531459D01*
X104772051Y-110338165D01*
X104742082Y-110265814D01*
X104696632Y-110156086D01*
X104587139Y-109992218D01*
X104508747Y-109913826D01*
X104487073Y-109861500D01*
X104508747Y-109809174D01*
X104561073Y-109787500D01*
X105598927Y-109787500D01*
X105651253Y-109809174D01*
X105672927Y-109861500D01*
X105651253Y-109913826D01*
X105572862Y-109992217D01*
X105572860Y-109992218D01*
X105463367Y-110156086D01*
X105387950Y-110338160D01*
X105387947Y-110338170D01*
X105349500Y-110531460D01*
X105349500Y-110728539D01*
X105387947Y-110921829D01*
X105387950Y-110921839D01*
X105463367Y-111103913D01*
X105570399Y-111264097D01*
X105572861Y-111267782D01*
X105712218Y-111407139D01*
X105876086Y-111516632D01*
X106003818Y-111569539D01*
X106043867Y-111609587D01*
X106049500Y-111637906D01*
X106049500Y-114082564D01*
X106069977Y-114158985D01*
X106069979Y-114158990D01*
X106109540Y-114227511D01*
X107016526Y-115134497D01*
X107038200Y-115186823D01*
X107038200Y-115297594D01*
X107072306Y-115424881D01*
X107072307Y-115424884D01*
X107072308Y-115424886D01*
X107138200Y-115539014D01*
X107231386Y-115632200D01*
X107345514Y-115698092D01*
X107472805Y-115732199D01*
X107472806Y-115732200D01*
X107472808Y-115732200D01*
X107604594Y-115732200D01*
X107604594Y-115732199D01*
X107731886Y-115698092D01*
X107846014Y-115632200D01*
X107939200Y-115539014D01*
X108005092Y-115424886D01*
X108039199Y-115297594D01*
X108039200Y-115297594D01*
X108039200Y-115165806D01*
X108039199Y-115165805D01*
X108005093Y-115038518D01*
X108005092Y-115038514D01*
X107939200Y-114924386D01*
X107846014Y-114831200D01*
X107731890Y-114765310D01*
X107731881Y-114765306D01*
X107604594Y-114731200D01*
X107604592Y-114731200D01*
X107493823Y-114731200D01*
X107441497Y-114709526D01*
X106672174Y-113940203D01*
X106650500Y-113887877D01*
X106650500Y-111637906D01*
X106672174Y-111585580D01*
X106696180Y-111569539D01*
X106823914Y-111516632D01*
X106987782Y-111407139D01*
X107127139Y-111267782D01*
X107236632Y-111103914D01*
X107312051Y-110921835D01*
X107350500Y-110728541D01*
X107350500Y-110531459D01*
X107312051Y-110338165D01*
X107282082Y-110265814D01*
X107236632Y-110156086D01*
X107127139Y-109992218D01*
X107048747Y-109913826D01*
X107027073Y-109861500D01*
X107048747Y-109809174D01*
X107101073Y-109787500D01*
X108138927Y-109787500D01*
X108191253Y-109809174D01*
X108212927Y-109861500D01*
X108191253Y-109913826D01*
X108112862Y-109992217D01*
X108112860Y-109992218D01*
X108003367Y-110156086D01*
X107927950Y-110338160D01*
X107927947Y-110338170D01*
X107889500Y-110531460D01*
X107889500Y-110728539D01*
X107927947Y-110921829D01*
X107927950Y-110921839D01*
X108003367Y-111103913D01*
X108112860Y-111267781D01*
X108252218Y-111407139D01*
X108416086Y-111516632D01*
X108582542Y-111585580D01*
X108598165Y-111592051D01*
X108791459Y-111630500D01*
X108791461Y-111630500D01*
X108988539Y-111630500D01*
X108988541Y-111630500D01*
X109181835Y-111592051D01*
X109309568Y-111539142D01*
X109366204Y-111539142D01*
X109390212Y-111555183D01*
X114028626Y-116193597D01*
X114050300Y-116245923D01*
X114050300Y-123242492D01*
X114028626Y-123294818D01*
X113976300Y-123316492D01*
X113939300Y-123306578D01*
X113902290Y-123285210D01*
X113902281Y-123285206D01*
X113774994Y-123251100D01*
X113774992Y-123251100D01*
X113643208Y-123251100D01*
X113643206Y-123251100D01*
X113515918Y-123285206D01*
X113515909Y-123285210D01*
X113401785Y-123351100D01*
X113308600Y-123444285D01*
X113242708Y-123558412D01*
X113242706Y-123558417D01*
X113220788Y-123640218D01*
X113201636Y-123673391D01*
X111930211Y-124944816D01*
X111877885Y-124966490D01*
X111849567Y-124960857D01*
X111721839Y-124907950D01*
X111721829Y-124907947D01*
X111570966Y-124877939D01*
X111528541Y-124869500D01*
X111331459Y-124869500D01*
X111289034Y-124877939D01*
X111138170Y-124907947D01*
X111138160Y-124907950D01*
X110956086Y-124983367D01*
X110792218Y-125092860D01*
X110792217Y-125092862D01*
X110652862Y-125232217D01*
X110652860Y-125232218D01*
X110543367Y-125396086D01*
X110467950Y-125578160D01*
X110467947Y-125578170D01*
X110429500Y-125771460D01*
X110429500Y-125968539D01*
X110467947Y-126161829D01*
X110467950Y-126161839D01*
X110543367Y-126343913D01*
X110652860Y-126507781D01*
X110792218Y-126647139D01*
X110956086Y-126756632D01*
X111122542Y-126825580D01*
X111138165Y-126832051D01*
X111331459Y-126870500D01*
X111331461Y-126870500D01*
X111528539Y-126870500D01*
X111528541Y-126870500D01*
X111721835Y-126832051D01*
X111903914Y-126756632D01*
X112067782Y-126647139D01*
X112207139Y-126507782D01*
X112263971Y-126422725D01*
X112311063Y-126391260D01*
X112366612Y-126402309D01*
X112398078Y-126449401D01*
X112399500Y-126463838D01*
X112399500Y-128734777D01*
X112377826Y-128787103D01*
X109919540Y-131245388D01*
X109879979Y-131313909D01*
X109879977Y-131313914D01*
X109859500Y-131390335D01*
X109859500Y-131740334D01*
X109837826Y-131792660D01*
X109759500Y-131870985D01*
X109693610Y-131985109D01*
X109693606Y-131985118D01*
X109659500Y-132112405D01*
X109659500Y-132244194D01*
X109693606Y-132371481D01*
X109693610Y-132371490D01*
X109735640Y-132444288D01*
X109759500Y-132485614D01*
X109852686Y-132578800D01*
X109966814Y-132644692D01*
X109966820Y-132644693D01*
X109971292Y-132646546D01*
X109970695Y-132647986D01*
X109981505Y-132656281D01*
X109999352Y-132663674D01*
X110003178Y-132672912D01*
X110011113Y-132679001D01*
X110013633Y-132698153D01*
X110021026Y-132716000D01*
X110017198Y-132725239D01*
X110018504Y-132735154D01*
X110006744Y-132750479D01*
X109999352Y-132768326D01*
X109990113Y-132772152D01*
X109984025Y-132780087D01*
X109947026Y-132790000D01*
X109918464Y-132790000D01*
X109911217Y-132789644D01*
X109909754Y-132789500D01*
X109909748Y-132789500D01*
X109264500Y-132789500D01*
X109212174Y-132767826D01*
X109190500Y-132715500D01*
X109190500Y-126877906D01*
X109212174Y-126825580D01*
X109236180Y-126809539D01*
X109363914Y-126756632D01*
X109527782Y-126647139D01*
X109667139Y-126507782D01*
X109776632Y-126343914D01*
X109852051Y-126161835D01*
X109890500Y-125968541D01*
X109890500Y-125771459D01*
X109852051Y-125578165D01*
X109776632Y-125396086D01*
X109667139Y-125232218D01*
X109527782Y-125092861D01*
X109519351Y-125087227D01*
X109363913Y-124983367D01*
X109181839Y-124907950D01*
X109181829Y-124907947D01*
X109030966Y-124877939D01*
X108988541Y-124869500D01*
X108791459Y-124869500D01*
X108749034Y-124877939D01*
X108598170Y-124907947D01*
X108598160Y-124907950D01*
X108416086Y-124983367D01*
X108252218Y-125092860D01*
X108252217Y-125092862D01*
X108112862Y-125232217D01*
X108112860Y-125232218D01*
X108003367Y-125396086D01*
X107927950Y-125578160D01*
X107927947Y-125578170D01*
X107889500Y-125771460D01*
X107889500Y-125968539D01*
X107927947Y-126161829D01*
X107927950Y-126161839D01*
X108003367Y-126343913D01*
X108093080Y-126478177D01*
X108112861Y-126507782D01*
X108252218Y-126647139D01*
X108416086Y-126756632D01*
X108543818Y-126809539D01*
X108583867Y-126849587D01*
X108589500Y-126877906D01*
X108589500Y-132715500D01*
X108567826Y-132767826D01*
X108515500Y-132789500D01*
X107870246Y-132789500D01*
X107868783Y-132789644D01*
X107861536Y-132790000D01*
X107690000Y-132790000D01*
X107672326Y-132807674D01*
X107620000Y-132829348D01*
X107567674Y-132807674D01*
X107550000Y-132790000D01*
X107378464Y-132790000D01*
X107371217Y-132789644D01*
X107369754Y-132789500D01*
X107369748Y-132789500D01*
X107019500Y-132789500D01*
X106967174Y-132767826D01*
X106945500Y-132715500D01*
X106945500Y-126714944D01*
X106967174Y-126662618D01*
X106978392Y-126653413D01*
X106987778Y-126647142D01*
X106987778Y-126647141D01*
X106987782Y-126647139D01*
X107127139Y-126507782D01*
X107236632Y-126343914D01*
X107312051Y-126161835D01*
X107350500Y-125968541D01*
X107350500Y-125771459D01*
X107312051Y-125578165D01*
X107236632Y-125396086D01*
X107127139Y-125232218D01*
X106987782Y-125092861D01*
X106979351Y-125087227D01*
X106823913Y-124983367D01*
X106641839Y-124907950D01*
X106641829Y-124907947D01*
X106490966Y-124877939D01*
X106448541Y-124869500D01*
X106251459Y-124869500D01*
X106209034Y-124877939D01*
X106058170Y-124907947D01*
X106058160Y-124907950D01*
X105876086Y-124983367D01*
X105712218Y-125092860D01*
X105712217Y-125092862D01*
X105572862Y-125232217D01*
X105572860Y-125232218D01*
X105463367Y-125396086D01*
X105387950Y-125578160D01*
X105387947Y-125578170D01*
X105349500Y-125771460D01*
X105349500Y-125968539D01*
X105387947Y-126161829D01*
X105387950Y-126161839D01*
X105463367Y-126343913D01*
X105572860Y-126507781D01*
X105712218Y-126647139D01*
X105876086Y-126756632D01*
X106042542Y-126825580D01*
X106058165Y-126832051D01*
X106251459Y-126870500D01*
X106270500Y-126870500D01*
X106322826Y-126892174D01*
X106344500Y-126944500D01*
X106344500Y-132715500D01*
X106322826Y-132767826D01*
X106270500Y-132789500D01*
X105330246Y-132789500D01*
X105328783Y-132789644D01*
X105321536Y-132790000D01*
X105150000Y-132790000D01*
X105132326Y-132807674D01*
X105080000Y-132829348D01*
X105027674Y-132807674D01*
X105010000Y-132790000D01*
X104838464Y-132790000D01*
X104831217Y-132789644D01*
X104829754Y-132789500D01*
X104829748Y-132789500D01*
X104278253Y-132789500D01*
X104225927Y-132767826D01*
X104204253Y-132715500D01*
X104211733Y-132687564D01*
X104210064Y-132686873D01*
X104211917Y-132682395D01*
X104211922Y-132682388D01*
X104232400Y-132605962D01*
X104232400Y-132526838D01*
X104232400Y-126827414D01*
X104254074Y-126775088D01*
X104278083Y-126759046D01*
X104283914Y-126756632D01*
X104447782Y-126647139D01*
X104587139Y-126507782D01*
X104696632Y-126343914D01*
X104772051Y-126161835D01*
X104810500Y-125968541D01*
X104810500Y-125771459D01*
X104772051Y-125578165D01*
X104696632Y-125396086D01*
X104587139Y-125232218D01*
X104447782Y-125092861D01*
X104439351Y-125087227D01*
X104283913Y-124983367D01*
X104101839Y-124907950D01*
X104101829Y-124907947D01*
X103950966Y-124877939D01*
X103908541Y-124869500D01*
X103711459Y-124869500D01*
X103669034Y-124877939D01*
X103518170Y-124907947D01*
X103518160Y-124907950D01*
X103336086Y-124983367D01*
X103172218Y-125092860D01*
X103172217Y-125092862D01*
X103032862Y-125232217D01*
X103032860Y-125232218D01*
X102923367Y-125396086D01*
X102847950Y-125578160D01*
X102847947Y-125578170D01*
X102809500Y-125771460D01*
X102809500Y-125968539D01*
X102847947Y-126161829D01*
X102847950Y-126161839D01*
X102923367Y-126343913D01*
X103032860Y-126507781D01*
X103172218Y-126647139D01*
X103336086Y-126756632D01*
X103502542Y-126825580D01*
X103518165Y-126832051D01*
X103571837Y-126842727D01*
X103618929Y-126874193D01*
X103631400Y-126915305D01*
X103631400Y-129592877D01*
X103609726Y-129645203D01*
X103557400Y-129666877D01*
X103505074Y-129645203D01*
X100474074Y-126614203D01*
X100452400Y-126561877D01*
X100452400Y-124307022D01*
X100474073Y-124254697D01*
X101510460Y-123218311D01*
X101518191Y-123204921D01*
X101550021Y-123149789D01*
X101570499Y-123073364D01*
X101570500Y-123073364D01*
X101570500Y-111637906D01*
X101592174Y-111585580D01*
X101616180Y-111569539D01*
X101743914Y-111516632D01*
X101907782Y-111407139D01*
X102047139Y-111267782D01*
X102156632Y-111103914D01*
X102232051Y-110921835D01*
X102270500Y-110728541D01*
X102270500Y-110531459D01*
X102232051Y-110338165D01*
X102202082Y-110265814D01*
X102156632Y-110156086D01*
X102047139Y-109992218D01*
X101968747Y-109913826D01*
X101947073Y-109861500D01*
X101968747Y-109809174D01*
X102021073Y-109787500D01*
X103058927Y-109787500D01*
X103111253Y-109809174D01*
G37*
%TD.AperFunction*%
%TA.AperFunction,Conductor*%
G36*
X105641753Y-91058674D02*
G01*
X105663427Y-91111000D01*
X105641753Y-91163326D01*
X105572862Y-91232217D01*
X105572860Y-91232218D01*
X105463367Y-91396086D01*
X105387950Y-91578160D01*
X105387947Y-91578170D01*
X105349500Y-91771460D01*
X105349500Y-91968539D01*
X105387947Y-92161829D01*
X105387950Y-92161839D01*
X105440857Y-92289567D01*
X105440857Y-92346204D01*
X105424816Y-92370211D01*
X103814189Y-93980840D01*
X103758240Y-94036788D01*
X103718679Y-94105309D01*
X103718677Y-94105314D01*
X103698200Y-94181735D01*
X103698200Y-104988264D01*
X103718677Y-105064685D01*
X103718679Y-105064690D01*
X103730278Y-105084779D01*
X103758240Y-105133211D01*
X104184816Y-105559787D01*
X104206490Y-105612113D01*
X104200857Y-105640431D01*
X104147950Y-105768160D01*
X104147947Y-105768170D01*
X104109500Y-105961460D01*
X104109500Y-106158539D01*
X104147947Y-106351829D01*
X104147950Y-106351839D01*
X104223367Y-106533913D01*
X104292397Y-106637223D01*
X104332861Y-106697782D01*
X104472218Y-106837139D01*
X104495017Y-106852373D01*
X104500552Y-106856071D01*
X104532018Y-106903163D01*
X104520969Y-106958712D01*
X104473877Y-106990178D01*
X104459440Y-106991600D01*
X103220560Y-106991600D01*
X103168234Y-106969926D01*
X103146560Y-106917600D01*
X103168234Y-106865274D01*
X103179448Y-106856071D01*
X103207782Y-106837139D01*
X103347139Y-106697782D01*
X103456632Y-106533914D01*
X103532051Y-106351835D01*
X103570500Y-106158541D01*
X103570500Y-105961459D01*
X103532051Y-105768165D01*
X103456632Y-105586086D01*
X103347139Y-105422218D01*
X103207782Y-105282861D01*
X103206629Y-105282090D01*
X103043913Y-105173367D01*
X102861839Y-105097950D01*
X102861829Y-105097947D01*
X102710966Y-105067939D01*
X102668541Y-105059500D01*
X102471459Y-105059500D01*
X102429034Y-105067939D01*
X102278170Y-105097947D01*
X102278160Y-105097950D01*
X102096086Y-105173367D01*
X101932218Y-105282860D01*
X101932217Y-105282862D01*
X101792862Y-105422217D01*
X101792860Y-105422218D01*
X101683367Y-105586086D01*
X101607950Y-105768160D01*
X101607947Y-105768170D01*
X101569500Y-105961460D01*
X101569500Y-106158539D01*
X101607947Y-106351829D01*
X101607950Y-106351839D01*
X101683367Y-106533913D01*
X101752397Y-106637223D01*
X101792861Y-106697782D01*
X101932218Y-106837139D01*
X101955017Y-106852373D01*
X101960552Y-106856071D01*
X101992018Y-106903163D01*
X101980969Y-106958712D01*
X101933877Y-106990178D01*
X101919440Y-106991600D01*
X96080560Y-106991600D01*
X96028234Y-106969926D01*
X96006560Y-106917600D01*
X96028234Y-106865274D01*
X96039448Y-106856071D01*
X96067782Y-106837139D01*
X96207139Y-106697782D01*
X96316632Y-106533914D01*
X96392051Y-106351835D01*
X96430500Y-106158541D01*
X96430500Y-105961459D01*
X96392051Y-105768165D01*
X96316632Y-105586086D01*
X96207139Y-105422218D01*
X96067782Y-105282861D01*
X96066629Y-105282090D01*
X95903913Y-105173367D01*
X95721839Y-105097950D01*
X95721829Y-105097947D01*
X95570966Y-105067939D01*
X95528541Y-105059500D01*
X95331459Y-105059500D01*
X95289034Y-105067939D01*
X95138170Y-105097947D01*
X95138160Y-105097950D01*
X95010431Y-105150857D01*
X94953794Y-105150857D01*
X94929787Y-105134816D01*
X94623674Y-104828703D01*
X94602000Y-104776377D01*
X94602000Y-99514500D01*
X94623674Y-99462174D01*
X94676000Y-99440500D01*
X96111976Y-99440500D01*
X96164302Y-99462174D01*
X96185976Y-99514500D01*
X96164302Y-99566826D01*
X95839002Y-99892126D01*
X95786676Y-99913800D01*
X95675906Y-99913800D01*
X95548618Y-99947906D01*
X95548609Y-99947910D01*
X95434485Y-100013800D01*
X95341300Y-100106985D01*
X95275410Y-100221109D01*
X95275406Y-100221118D01*
X95241300Y-100348405D01*
X95241300Y-100480194D01*
X95275406Y-100607481D01*
X95275407Y-100607484D01*
X95275408Y-100607486D01*
X95341300Y-100721614D01*
X95434486Y-100814800D01*
X95548614Y-100880692D01*
X95675905Y-100914799D01*
X95675906Y-100914800D01*
X95675908Y-100914800D01*
X95807694Y-100914800D01*
X95807694Y-100914799D01*
X95934986Y-100880692D01*
X96049114Y-100814800D01*
X96142300Y-100721614D01*
X96208192Y-100607486D01*
X96242299Y-100480194D01*
X96242300Y-100480194D01*
X96242300Y-100369422D01*
X96263974Y-100317096D01*
X99496351Y-97084719D01*
X102780460Y-93800611D01*
X102820022Y-93732088D01*
X102840500Y-93655662D01*
X102840500Y-93576538D01*
X102840500Y-92463838D01*
X102862174Y-92411512D01*
X102914500Y-92389838D01*
X102966826Y-92411512D01*
X102976026Y-92422722D01*
X103003499Y-92463838D01*
X103032860Y-92507781D01*
X103172218Y-92647139D01*
X103336086Y-92756632D01*
X103502542Y-92825580D01*
X103518165Y-92832051D01*
X103711459Y-92870500D01*
X103711461Y-92870500D01*
X103908539Y-92870500D01*
X103908541Y-92870500D01*
X104101835Y-92832051D01*
X104283914Y-92756632D01*
X104447782Y-92647139D01*
X104587139Y-92507782D01*
X104696632Y-92343914D01*
X104772051Y-92161835D01*
X104810500Y-91968541D01*
X104810500Y-91771459D01*
X104772051Y-91578165D01*
X104719142Y-91450431D01*
X104719142Y-91393794D01*
X104735183Y-91369787D01*
X105046297Y-91058674D01*
X105098623Y-91037000D01*
X105589427Y-91037000D01*
X105641753Y-91058674D01*
G37*
%TD.AperFunction*%
%TD*%
M02*
