%TF.GenerationSoftware,KiCad,Pcbnew,10.0.3*%
%TF.CreationDate,2026-06-23T23:37:30-04:00*%
%TF.ProjectId,index,696e6465-782e-46b6-9963-61645f706362,Rev1*%
%TF.SameCoordinates,Original*%
%TF.FileFunction,Soldermask,Top*%
%TF.FilePolarity,Negative*%
%FSLAX46Y46*%
G04 Gerber Fmt 4.6, Leading zero omitted, Abs format (unit mm)*
G04 Created by KiCad (PCBNEW 10.0.3) date 2026-06-23 23:37:30*
%MOMM*%
%LPD*%
G01*
G04 APERTURE LIST*
%ADD10C,1.400000*%
%ADD11R,1.600000X0.800000*%
%ADD12R,1.600000X1.600000*%
%ADD13C,1.600000*%
%ADD14C,0.600000*%
%ADD15R,2.000000X7.000000*%
G04 APERTURE END LIST*
D10*
%TO.C,C_AMP*%
X85000000Y-102520000D03*
X85000000Y-99980000D03*
%TD*%
D11*
%TO.C,JP1*%
X120000000Y-114950000D03*
X120000000Y-113750000D03*
X120000000Y-112550000D03*
%TD*%
D10*
%TO.C,C_RESET*%
X110730000Y-87500000D03*
X113270000Y-87500000D03*
%TD*%
D12*
%TO.C,U_YM*%
X124130000Y-68380000D03*
D13*
X121590000Y-68380000D03*
X119050000Y-68380000D03*
X116510000Y-68380000D03*
X113970000Y-68380000D03*
X111430000Y-68380000D03*
X108890000Y-68380000D03*
X106350000Y-68380000D03*
X103810000Y-68380000D03*
X101270000Y-68380000D03*
X98730000Y-68380000D03*
X96190000Y-68380000D03*
X93650000Y-68380000D03*
X91110000Y-68380000D03*
X88570000Y-68380000D03*
X86030000Y-68380000D03*
X83490000Y-68380000D03*
X80950000Y-68380000D03*
X78410000Y-68380000D03*
X75870000Y-68380000D03*
X75870000Y-83620000D03*
X78410000Y-83620000D03*
X80950000Y-83620000D03*
X83490000Y-83620000D03*
X86030000Y-83620000D03*
X88570000Y-83620000D03*
X91110000Y-83620000D03*
X93650000Y-83620000D03*
X96190000Y-83620000D03*
X98730000Y-83620000D03*
X101270000Y-83620000D03*
X103810000Y-83620000D03*
X106350000Y-83620000D03*
X108890000Y-83620000D03*
X111430000Y-83620000D03*
X113970000Y-83620000D03*
X116510000Y-83620000D03*
X119050000Y-83620000D03*
X121590000Y-83620000D03*
X124130000Y-83620000D03*
%TD*%
D10*
%TO.C,R_YM_AUDIOC*%
X86730000Y-87500000D03*
X89270000Y-87500000D03*
%TD*%
%TO.C,C_LATCH*%
X115000000Y-77270000D03*
X115000000Y-74730000D03*
%TD*%
%TO.C,R_PULL*%
X110000000Y-102520000D03*
X110000000Y-99980000D03*
%TD*%
D12*
%TO.C,U_ROM*%
X116510000Y-110630000D03*
D13*
X113970000Y-110630000D03*
X111430000Y-110630000D03*
X108890000Y-110630000D03*
X106350000Y-110630000D03*
X103810000Y-110630000D03*
X101270000Y-110630000D03*
X98730000Y-110630000D03*
X96190000Y-110630000D03*
X93650000Y-110630000D03*
X91110000Y-110630000D03*
X88570000Y-110630000D03*
X86030000Y-110630000D03*
X83490000Y-110630000D03*
X83490000Y-125870000D03*
X86030000Y-125870000D03*
X88570000Y-125870000D03*
X91110000Y-125870000D03*
X93650000Y-125870000D03*
X96190000Y-125870000D03*
X98730000Y-125870000D03*
X101270000Y-125870000D03*
X103810000Y-125870000D03*
X106350000Y-125870000D03*
X108890000Y-125870000D03*
X111430000Y-125870000D03*
X113970000Y-125870000D03*
X116510000Y-125870000D03*
%TD*%
D12*
%TO.C,U_GAL*%
X111430000Y-122060000D03*
D13*
X108890000Y-122060000D03*
X106350000Y-122060000D03*
X103810000Y-122060000D03*
X101270000Y-122060000D03*
X98730000Y-122060000D03*
X96190000Y-122060000D03*
X93650000Y-122060000D03*
X91110000Y-122060000D03*
X88570000Y-122060000D03*
X88570000Y-114440000D03*
X91110000Y-114440000D03*
X93650000Y-114440000D03*
X96190000Y-114440000D03*
X98730000Y-114440000D03*
X101270000Y-114440000D03*
X103810000Y-114440000D03*
X106350000Y-114440000D03*
X108890000Y-114440000D03*
X111430000Y-114440000D03*
%TD*%
D12*
%TO.C,U_AMP*%
X103810000Y-97440000D03*
D13*
X101270000Y-97440000D03*
X98730000Y-97440000D03*
X96190000Y-97440000D03*
X96190000Y-105060000D03*
X98730000Y-105060000D03*
X101270000Y-105060000D03*
X103810000Y-105060000D03*
%TD*%
D12*
%TO.C,U_LATCH*%
X111430000Y-79810000D03*
D13*
X108890000Y-79810000D03*
X106350000Y-79810000D03*
X103810000Y-79810000D03*
X101270000Y-79810000D03*
X98730000Y-79810000D03*
X96190000Y-79810000D03*
X93650000Y-79810000D03*
X91110000Y-79810000D03*
X88570000Y-79810000D03*
X88570000Y-72190000D03*
X91110000Y-72190000D03*
X93650000Y-72190000D03*
X96190000Y-72190000D03*
X98730000Y-72190000D03*
X101270000Y-72190000D03*
X103810000Y-72190000D03*
X106350000Y-72190000D03*
X108890000Y-72190000D03*
X111430000Y-72190000D03*
%TD*%
D14*
%TO.C,U7*%
X126000000Y-84250000D03*
%TD*%
%TO.C,U6*%
X121000000Y-108500000D03*
%TD*%
D10*
%TO.C,C_ROM*%
X120000000Y-116980000D03*
X120000000Y-119520000D03*
%TD*%
D15*
%TO.C,J1*%
X78410000Y-136490000D03*
X80950000Y-136490000D03*
X86030000Y-136490000D03*
X88570000Y-136490000D03*
X91110000Y-136490000D03*
X93650000Y-136490000D03*
X96190000Y-136490000D03*
X98730000Y-136490000D03*
X101270000Y-136490000D03*
X103810000Y-136490000D03*
X106350000Y-136490000D03*
X108890000Y-136490000D03*
X111430000Y-136490000D03*
X113970000Y-136490000D03*
X119050000Y-136490000D03*
X121590000Y-136490000D03*
%TD*%
D10*
%TO.C,C_YM*%
X128000000Y-74730000D03*
X128000000Y-77270000D03*
%TD*%
%TO.C,R_FB*%
X90000000Y-102520000D03*
X90000000Y-99980000D03*
%TD*%
%TO.C,C_AUDIO_OUT*%
X117000000Y-102520000D03*
X117000000Y-99980000D03*
%TD*%
%TO.C,R_RESET*%
X104730000Y-87500000D03*
X107270000Y-87500000D03*
%TD*%
D11*
%TO.C,JP2*%
X120000000Y-123950000D03*
X120000000Y-122750000D03*
X120000000Y-121550000D03*
%TD*%
D10*
%TO.C,C_GAL*%
X115000000Y-119520000D03*
X115000000Y-116980000D03*
%TD*%
%TO.C,R_SERIES*%
X113500000Y-102520000D03*
X113500000Y-99980000D03*
%TD*%
%TO.C,R_YM_AUDIOB*%
X80730000Y-87500000D03*
X83270000Y-87500000D03*
%TD*%
%TO.C,R_YM_AUDIOA*%
X92730000Y-87500000D03*
X95270000Y-87500000D03*
%TD*%
M02*
