M48
; DRILL file KiCad 10.0.3 date 2026-06-15T21:31:44
; FORMAT={-:-/ absolute / metric / decimal}
; #@! TF.CreationDate,2026-06-15T21:31:44-04:00
; #@! TF.GenerationSoftware,Kicad,Pcbnew,10.0.3
; #@! TF.FileFunction,MixedPlating,1,2
FMAT,2
METRIC
; #@! TA.AperFunction,Plated,PTH,ViaDrill
T1C0.300
; #@! TA.AperFunction,Plated,PTH,ComponentDrill
T2C0.300
; #@! TA.AperFunction,Plated,PTH,ComponentDrill
T3C0.700
; #@! TA.AperFunction,Plated,PTH,ComponentDrill
T4C0.800
%
G90
G05
T1
X89.84Y-132.178
X91.512Y-107.324
X92.864Y-99.951
X93.957Y-132.178
X94.569Y-123.844
X96.587Y-112.08
X98.595Y-132.178
X99.573Y-123.879
X103.314Y-132.178
X104.427Y-115.192
X104.618Y-123.878
X106.191Y-129.878
X111.82Y-102.25
X113.046Y-130.284
X113.701Y-102.071
X119.072Y-132.178
X119.982Y-131.875
X123.811Y-90.466
T2
X130.0Y-84.25
X131.0Y-115.0
T3
X78.73Y-95.75
X81.27Y-95.75
X84.73Y-95.75
X87.27Y-95.75
X98.0Y-64.73
X98.0Y-67.27
X114.73Y-73.75
X117.27Y-73.75
X118.0Y-64.73
X118.0Y-67.27
X118.73Y-95.75
X120.73Y-73.75
X121.27Y-95.75
X123.0Y-64.73
X123.0Y-67.27
X123.27Y-73.75
X128.0Y-64.73
X128.0Y-67.27
T4
X72.57Y-98.44
X72.57Y-106.06
X75.11Y-98.44
X75.11Y-106.06
X75.87Y-76.63
X75.87Y-91.87
X77.65Y-98.44
X77.65Y-106.06
X78.41Y-76.63
X78.41Y-91.87
X80.19Y-98.44
X80.19Y-106.06
X80.95Y-76.63
X80.95Y-91.87
X82.73Y-98.44
X82.73Y-106.06
X83.49Y-76.63
X83.49Y-91.87
X83.49Y-110.63
X83.49Y-125.87
X85.27Y-98.44
X85.27Y-106.06
X86.03Y-76.63
X86.03Y-91.87
X86.03Y-110.63
X86.03Y-125.87
X87.81Y-98.44
X87.81Y-106.06
X88.57Y-76.63
X88.57Y-91.87
X88.57Y-110.63
X88.57Y-125.87
X90.35Y-98.44
X90.35Y-106.06
X91.11Y-76.63
X91.11Y-91.87
X91.11Y-110.63
X91.11Y-125.87
X92.89Y-98.44
X92.89Y-106.06
X93.65Y-76.63
X93.65Y-91.87
X93.65Y-110.63
X93.65Y-125.87
X95.43Y-98.44
X95.43Y-106.06
X96.19Y-76.63
X96.19Y-91.87
X96.19Y-110.63
X96.19Y-125.87
X98.73Y-76.63
X98.73Y-91.87
X98.73Y-110.63
X98.73Y-125.87
X101.27Y-76.63
X101.27Y-91.87
X101.27Y-110.63
X101.27Y-125.87
X102.57Y-98.44
X102.57Y-106.06
X103.81Y-76.63
X103.81Y-91.87
X103.81Y-110.63
X103.81Y-125.87
X104.19Y-62.19
X104.19Y-69.81
X105.11Y-98.44
X105.11Y-106.06
X106.35Y-76.63
X106.35Y-91.87
X106.35Y-110.63
X106.35Y-125.87
X106.73Y-62.19
X106.73Y-69.81
X107.65Y-98.44
X107.65Y-106.06
X108.89Y-76.63
X108.89Y-91.87
X108.89Y-110.63
X108.89Y-125.87
X109.27Y-62.19
X109.27Y-69.81
X110.19Y-98.44
X110.19Y-106.06
X111.43Y-76.63
X111.43Y-91.87
X111.43Y-110.63
X111.43Y-125.87
X111.81Y-62.19
X111.81Y-69.81
X112.73Y-98.44
X112.73Y-106.06
X113.97Y-76.63
X113.97Y-91.87
X113.97Y-110.63
X113.97Y-125.87
X115.27Y-98.44
X115.27Y-106.06
X116.51Y-76.63
X116.51Y-91.87
X116.51Y-110.63
X116.51Y-125.87
X117.81Y-98.44
X117.81Y-106.06
X119.05Y-76.63
X119.05Y-91.87
X120.35Y-98.44
X120.35Y-106.06
X121.59Y-76.63
X121.59Y-91.87
X122.89Y-98.44
X122.89Y-106.06
X124.13Y-76.63
X124.13Y-91.87
X125.43Y-98.44
X125.43Y-106.06
M30
