%TF.GenerationSoftware,KiCad,Pcbnew,10.0.3*%
%TF.CreationDate,2026-06-23T23:37:30-04:00*%
%TF.ProjectId,index,696e6465-782e-46b6-9963-61645f706362,Rev1*%
%TF.SameCoordinates,Original*%
%TF.FileFunction,Profile,NP*%
%FSLAX46Y46*%
G04 Gerber Fmt 4.6, Leading zero omitted, Abs format (unit mm)*
G04 Created by KiCad (PCBNEW 10.0.3) date 2026-06-23 23:37:30*
%MOMM*%
%LPD*%
G01*
G04 APERTURE LIST*
%TA.AperFunction,Profile*%
%ADD10C,0.100000*%
%TD*%
G04 APERTURE END LIST*
D10*
X70000000Y-60000000D02*
X130000000Y-60000000D01*
X70000000Y-90500000D02*
X70000000Y-60000000D01*
X76500000Y-107000000D02*
X79360000Y-107000000D01*
X76500000Y-140000000D02*
X76500000Y-107000000D01*
X79360000Y-90500000D02*
X70000000Y-90500000D01*
X79360000Y-100630000D02*
X79360000Y-90500000D01*
X79360000Y-105080000D02*
X80950000Y-105080000D01*
X79360000Y-107000000D02*
X79360000Y-105080000D01*
X80950000Y-100630000D02*
X79360000Y-100630000D01*
X80950000Y-105080000D02*
X80950000Y-100630000D01*
X82290000Y-130300000D02*
X82290000Y-140000000D01*
X82290000Y-140000000D02*
X76500000Y-140000000D01*
X84690000Y-130300000D02*
X82290000Y-130300000D01*
X84690000Y-140000000D02*
X84690000Y-130300000D01*
X115310000Y-130300000D02*
X115310000Y-140000000D01*
X115310000Y-140000000D02*
X84690000Y-140000000D01*
X117710000Y-130300000D02*
X115310000Y-130300000D01*
X117710000Y-140000000D02*
X117710000Y-130300000D01*
X119050000Y-100630000D02*
X119050000Y-105080000D01*
X119050000Y-105080000D02*
X120640000Y-105080000D01*
X120640000Y-90500000D02*
X120640000Y-100630000D01*
X120640000Y-100630000D02*
X119050000Y-100630000D01*
X120640000Y-105080000D02*
X120640000Y-107000000D01*
X120640000Y-107000000D02*
X123500000Y-107000000D01*
X123500000Y-107000000D02*
X123500000Y-140000000D01*
X123500000Y-140000000D02*
X117710000Y-140000000D01*
X130000000Y-60000000D02*
X130000000Y-90500000D01*
X130000000Y-90500000D02*
X120640000Y-90500000D01*
M02*
