%TF.GenerationSoftware,KiCad,Pcbnew,10.0.3*%
%TF.CreationDate,2026-06-23T23:37:30-04:00*%
%TF.ProjectId,index,696e6465-782e-46b6-9963-61645f706362,Rev1*%
%TF.SameCoordinates,Original*%
%TF.FileFunction,Other,User*%
%FSLAX46Y46*%
G04 Gerber Fmt 4.6, Leading zero omitted, Abs format (unit mm)*
G04 Created by KiCad (PCBNEW 10.0.3) date 2026-06-23 23:37:30*
%MOMM*%
%LPD*%
G01*
G04 APERTURE LIST*
%ADD10C,0.050000*%
G04 APERTURE END LIST*
D10*
%TO.C,C_AMP*%
X83950000Y-103570000D02*
X83950000Y-99020000D01*
X86050000Y-99020000D01*
X86050000Y-103570000D01*
X83950000Y-103570000D01*
%TO.C,C_RESET*%
X109680000Y-86450000D02*
X114230000Y-86450000D01*
X114230000Y-88550000D01*
X109680000Y-88550000D01*
X109680000Y-86450000D01*
%TO.C,U_YM*%
X125650000Y-67330000D02*
X125650000Y-84670000D01*
X74350000Y-84670000D01*
X74350000Y-67330000D01*
X125650000Y-67330000D01*
%TO.C,R_YM_AUDIOC*%
X85680000Y-86450000D02*
X90230000Y-86450000D01*
X90230000Y-88550000D01*
X85680000Y-88550000D01*
X85680000Y-86450000D01*
%TO.C,R_PULL*%
X108950000Y-103570000D02*
X108950000Y-99020000D01*
X111050000Y-99020000D01*
X111050000Y-103570000D01*
X108950000Y-103570000D01*
%TO.C,U_ROM*%
X118030000Y-109580000D02*
X118030000Y-126920000D01*
X81970000Y-126920000D01*
X81970000Y-109580000D01*
X118030000Y-109580000D01*
%TO.C,U_AMP*%
X105330000Y-96390000D02*
X105330000Y-106110000D01*
X94670000Y-106110000D01*
X94670000Y-96390000D01*
X105330000Y-96390000D01*
%TO.C,C_ROM*%
X121050000Y-115930000D02*
X121050000Y-120480000D01*
X118950000Y-120480000D01*
X118950000Y-115930000D01*
X121050000Y-115930000D01*
%TO.C,C_YM*%
X129050000Y-73680000D02*
X129050000Y-78230000D01*
X126950000Y-78230000D01*
X126950000Y-73680000D01*
X129050000Y-73680000D01*
%TO.C,R_FB*%
X88950000Y-103570000D02*
X88950000Y-99020000D01*
X91050000Y-99020000D01*
X91050000Y-103570000D01*
X88950000Y-103570000D01*
%TO.C,C_AUDIO_OUT*%
X115950000Y-103570000D02*
X115950000Y-99020000D01*
X118050000Y-99020000D01*
X118050000Y-103570000D01*
X115950000Y-103570000D01*
%TO.C,R_RESET*%
X103680000Y-86450000D02*
X108230000Y-86450000D01*
X108230000Y-88550000D01*
X103680000Y-88550000D01*
X103680000Y-86450000D01*
%TO.C,R_SERIES*%
X112450000Y-103570000D02*
X112450000Y-99020000D01*
X114550000Y-99020000D01*
X114550000Y-103570000D01*
X112450000Y-103570000D01*
%TO.C,R_YM_AUDIOB*%
X79680000Y-86450000D02*
X84230000Y-86450000D01*
X84230000Y-88550000D01*
X79680000Y-88550000D01*
X79680000Y-86450000D01*
%TO.C,R_YM_AUDIOA*%
X91680000Y-86450000D02*
X96230000Y-86450000D01*
X96230000Y-88550000D01*
X91680000Y-88550000D01*
X91680000Y-86450000D01*
%TD*%
M02*
