%TF.GenerationSoftware,KiCad,Pcbnew,10.0.3*%
%TF.CreationDate,2026-06-16T20:38:53-04:00*%
%TF.ProjectId,index,696e6465-782e-46b6-9963-61645f706362,rev?*%
%TF.SameCoordinates,Original*%
%TF.FileFunction,Other,User*%
%FSLAX46Y46*%
G04 Gerber Fmt 4.6, Leading zero omitted, Abs format (unit mm)*
G04 Created by KiCad (PCBNEW 10.0.3) date 2026-06-16 20:38:53*
%MOMM*%
%LPD*%
G01*
G04 APERTURE LIST*
%ADD10C,0.050000*%
G04 APERTURE END LIST*
D10*
%TO.C,RAUDIOB*%
X119680000Y-72700000D02*
X124230000Y-72700000D01*
X124230000Y-74800000D01*
X119680000Y-74800000D01*
X119680000Y-72700000D01*
%TO.C,U5*%
X113330000Y-61140000D02*
X113330000Y-70860000D01*
X102670000Y-70860000D01*
X102670000Y-61140000D01*
X113330000Y-61140000D01*
%TO.C,U1*%
X118030000Y-109580000D02*
X118030000Y-126920000D01*
X81970000Y-126920000D01*
X81970000Y-109580000D01*
X118030000Y-109580000D01*
%TO.C,RAUDIOA*%
X113680000Y-72700000D02*
X118230000Y-72700000D01*
X118230000Y-74800000D01*
X113680000Y-74800000D01*
X113680000Y-72700000D01*
%TO.C,CRESET1*%
X77680000Y-94700000D02*
X82230000Y-94700000D01*
X82230000Y-96800000D01*
X77680000Y-96800000D01*
X77680000Y-94700000D01*
%TO.C,RSERIES*%
X116950000Y-68320000D02*
X116950000Y-63770000D01*
X119050000Y-63770000D01*
X119050000Y-68320000D01*
X116950000Y-68320000D01*
%TO.C,RPULL*%
X126950000Y-68320000D02*
X126950000Y-63770000D01*
X129050000Y-63770000D01*
X129050000Y-68320000D01*
X126950000Y-68320000D01*
%TO.C,U4*%
X125650000Y-75580000D02*
X125650000Y-92920000D01*
X74350000Y-92920000D01*
X74350000Y-75580000D01*
X125650000Y-75580000D01*
%TO.C,RFB*%
X96950000Y-68320000D02*
X96950000Y-63770000D01*
X99050000Y-63770000D01*
X99050000Y-68320000D01*
X96950000Y-68320000D01*
%TO.C,C5*%
X121950000Y-68320000D02*
X121950000Y-63770000D01*
X124050000Y-63770000D01*
X124050000Y-68320000D01*
X121950000Y-68320000D01*
%TO.C,RRESET1*%
X83680000Y-94700000D02*
X88230000Y-94700000D01*
X88230000Y-96800000D01*
X83680000Y-96800000D01*
X83680000Y-94700000D01*
%TO.C,RAUDIOC*%
X117680000Y-94700000D02*
X122230000Y-94700000D01*
X122230000Y-96800000D01*
X117680000Y-96800000D01*
X117680000Y-94700000D01*
%TO.C,U2*%
X96950000Y-97390000D02*
X96950000Y-107110000D01*
X71050000Y-107110000D01*
X71050000Y-97390000D01*
X96950000Y-97390000D01*
%TO.C,U3*%
X126950000Y-97390000D02*
X126950000Y-107110000D01*
X101050000Y-107110000D01*
X101050000Y-97390000D01*
X126950000Y-97390000D01*
%TD*%
M02*
