%TF.GenerationSoftware,KiCad,Pcbnew,10.0.3*%
%TF.CreationDate,2026-06-17T00:12:18-04:00*%
%TF.ProjectId,index,696e6465-782e-46b6-9963-61645f706362,rev?*%
%TF.SameCoordinates,Original*%
%TF.FileFunction,Legend,Top*%
%TF.FilePolarity,Positive*%
%FSLAX46Y46*%
G04 Gerber Fmt 4.6, Leading zero omitted, Abs format (unit mm)*
G04 Created by KiCad (PCBNEW 10.0.3) date 2026-06-17 00:12:18*
%MOMM*%
%LPD*%
G01*
G04 APERTURE LIST*
%ADD10C,0.100000*%
%ADD11C,0.166667*%
%ADD12C,0.066667*%
%ADD13C,0.050000*%
G04 APERTURE END LIST*
D10*
X71542855Y-66831561D02*
X71542855Y-67479180D01*
X71542855Y-67479180D02*
X71504760Y-67555371D01*
X71504760Y-67555371D02*
X71466664Y-67593466D01*
X71466664Y-67593466D02*
X71390474Y-67631561D01*
X71390474Y-67631561D02*
X71276188Y-67631561D01*
X71276188Y-67631561D02*
X71199998Y-67593466D01*
X71542855Y-67326800D02*
X71466664Y-67364895D01*
X71466664Y-67364895D02*
X71314283Y-67364895D01*
X71314283Y-67364895D02*
X71238093Y-67326800D01*
X71238093Y-67326800D02*
X71199998Y-67288704D01*
X71199998Y-67288704D02*
X71161902Y-67212514D01*
X71161902Y-67212514D02*
X71161902Y-66983942D01*
X71161902Y-66983942D02*
X71199998Y-66907752D01*
X71199998Y-66907752D02*
X71238093Y-66869657D01*
X71238093Y-66869657D02*
X71314283Y-66831561D01*
X71314283Y-66831561D02*
X71466664Y-66831561D01*
X71466664Y-66831561D02*
X71542855Y-66869657D01*
X71923808Y-67364895D02*
X71923808Y-66831561D01*
X71923808Y-66564895D02*
X71885712Y-66602990D01*
X71885712Y-66602990D02*
X71923808Y-66641085D01*
X71923808Y-66641085D02*
X71961903Y-66602990D01*
X71961903Y-66602990D02*
X71923808Y-66564895D01*
X71923808Y-66564895D02*
X71923808Y-66641085D01*
X72190474Y-66831561D02*
X72495236Y-66831561D01*
X72304760Y-66564895D02*
X72304760Y-67250609D01*
X72304760Y-67250609D02*
X72342855Y-67326800D01*
X72342855Y-67326800D02*
X72419045Y-67364895D01*
X72419045Y-67364895D02*
X72495236Y-67364895D01*
X72761903Y-67364895D02*
X72761903Y-66564895D01*
X73104760Y-67364895D02*
X73104760Y-66945847D01*
X73104760Y-66945847D02*
X73066665Y-66869657D01*
X73066665Y-66869657D02*
X72990474Y-66831561D01*
X72990474Y-66831561D02*
X72876188Y-66831561D01*
X72876188Y-66831561D02*
X72799998Y-66869657D01*
X72799998Y-66869657D02*
X72761903Y-66907752D01*
X73828570Y-66831561D02*
X73828570Y-67364895D01*
X73485713Y-66831561D02*
X73485713Y-67250609D01*
X73485713Y-67250609D02*
X73523808Y-67326800D01*
X73523808Y-67326800D02*
X73599998Y-67364895D01*
X73599998Y-67364895D02*
X73714284Y-67364895D01*
X73714284Y-67364895D02*
X73790475Y-67326800D01*
X73790475Y-67326800D02*
X73828570Y-67288704D01*
X74209523Y-67364895D02*
X74209523Y-66564895D01*
X74209523Y-66869657D02*
X74285713Y-66831561D01*
X74285713Y-66831561D02*
X74438094Y-66831561D01*
X74438094Y-66831561D02*
X74514285Y-66869657D01*
X74514285Y-66869657D02*
X74552380Y-66907752D01*
X74552380Y-66907752D02*
X74590475Y-66983942D01*
X74590475Y-66983942D02*
X74590475Y-67212514D01*
X74590475Y-67212514D02*
X74552380Y-67288704D01*
X74552380Y-67288704D02*
X74514285Y-67326800D01*
X74514285Y-67326800D02*
X74438094Y-67364895D01*
X74438094Y-67364895D02*
X74285713Y-67364895D01*
X74285713Y-67364895D02*
X74209523Y-67326800D01*
X74933333Y-67288704D02*
X74971428Y-67326800D01*
X74971428Y-67326800D02*
X74933333Y-67364895D01*
X74933333Y-67364895D02*
X74895237Y-67326800D01*
X74895237Y-67326800D02*
X74933333Y-67288704D01*
X74933333Y-67288704D02*
X74933333Y-67364895D01*
X75657142Y-67326800D02*
X75580951Y-67364895D01*
X75580951Y-67364895D02*
X75428570Y-67364895D01*
X75428570Y-67364895D02*
X75352380Y-67326800D01*
X75352380Y-67326800D02*
X75314285Y-67288704D01*
X75314285Y-67288704D02*
X75276189Y-67212514D01*
X75276189Y-67212514D02*
X75276189Y-66983942D01*
X75276189Y-66983942D02*
X75314285Y-66907752D01*
X75314285Y-66907752D02*
X75352380Y-66869657D01*
X75352380Y-66869657D02*
X75428570Y-66831561D01*
X75428570Y-66831561D02*
X75580951Y-66831561D01*
X75580951Y-66831561D02*
X75657142Y-66869657D01*
X76114284Y-67364895D02*
X76038094Y-67326800D01*
X76038094Y-67326800D02*
X75999999Y-67288704D01*
X75999999Y-67288704D02*
X75961903Y-67212514D01*
X75961903Y-67212514D02*
X75961903Y-66983942D01*
X75961903Y-66983942D02*
X75999999Y-66907752D01*
X75999999Y-66907752D02*
X76038094Y-66869657D01*
X76038094Y-66869657D02*
X76114284Y-66831561D01*
X76114284Y-66831561D02*
X76228570Y-66831561D01*
X76228570Y-66831561D02*
X76304761Y-66869657D01*
X76304761Y-66869657D02*
X76342856Y-66907752D01*
X76342856Y-66907752D02*
X76380951Y-66983942D01*
X76380951Y-66983942D02*
X76380951Y-67212514D01*
X76380951Y-67212514D02*
X76342856Y-67288704D01*
X76342856Y-67288704D02*
X76304761Y-67326800D01*
X76304761Y-67326800D02*
X76228570Y-67364895D01*
X76228570Y-67364895D02*
X76114284Y-67364895D01*
X76723809Y-67364895D02*
X76723809Y-66831561D01*
X76723809Y-66907752D02*
X76761904Y-66869657D01*
X76761904Y-66869657D02*
X76838094Y-66831561D01*
X76838094Y-66831561D02*
X76952380Y-66831561D01*
X76952380Y-66831561D02*
X77028571Y-66869657D01*
X77028571Y-66869657D02*
X77066666Y-66945847D01*
X77066666Y-66945847D02*
X77066666Y-67364895D01*
X77066666Y-66945847D02*
X77104761Y-66869657D01*
X77104761Y-66869657D02*
X77180952Y-66831561D01*
X77180952Y-66831561D02*
X77295237Y-66831561D01*
X77295237Y-66831561D02*
X77371428Y-66869657D01*
X77371428Y-66869657D02*
X77409523Y-66945847D01*
X77409523Y-66945847D02*
X77409523Y-67364895D01*
X78361904Y-66526800D02*
X77676190Y-67555371D01*
X78628571Y-66831561D02*
X78628571Y-67517276D01*
X78628571Y-67517276D02*
X78590475Y-67593466D01*
X78590475Y-67593466D02*
X78514285Y-67631561D01*
X78514285Y-67631561D02*
X78476190Y-67631561D01*
X78628571Y-66564895D02*
X78590475Y-66602990D01*
X78590475Y-66602990D02*
X78628571Y-66641085D01*
X78628571Y-66641085D02*
X78666666Y-66602990D01*
X78666666Y-66602990D02*
X78628571Y-66564895D01*
X78628571Y-66564895D02*
X78628571Y-66641085D01*
X79009523Y-67364895D02*
X79009523Y-66564895D01*
X79009523Y-66869657D02*
X79085713Y-66831561D01*
X79085713Y-66831561D02*
X79238094Y-66831561D01*
X79238094Y-66831561D02*
X79314285Y-66869657D01*
X79314285Y-66869657D02*
X79352380Y-66907752D01*
X79352380Y-66907752D02*
X79390475Y-66983942D01*
X79390475Y-66983942D02*
X79390475Y-67212514D01*
X79390475Y-67212514D02*
X79352380Y-67288704D01*
X79352380Y-67288704D02*
X79314285Y-67326800D01*
X79314285Y-67326800D02*
X79238094Y-67364895D01*
X79238094Y-67364895D02*
X79085713Y-67364895D01*
X79085713Y-67364895D02*
X79009523Y-67326800D01*
X79695237Y-67326800D02*
X79771428Y-67364895D01*
X79771428Y-67364895D02*
X79923809Y-67364895D01*
X79923809Y-67364895D02*
X79999999Y-67326800D01*
X79999999Y-67326800D02*
X80038095Y-67250609D01*
X80038095Y-67250609D02*
X80038095Y-67212514D01*
X80038095Y-67212514D02*
X79999999Y-67136323D01*
X79999999Y-67136323D02*
X79923809Y-67098228D01*
X79923809Y-67098228D02*
X79809523Y-67098228D01*
X79809523Y-67098228D02*
X79733333Y-67060133D01*
X79733333Y-67060133D02*
X79695237Y-66983942D01*
X79695237Y-66983942D02*
X79695237Y-66945847D01*
X79695237Y-66945847D02*
X79733333Y-66869657D01*
X79733333Y-66869657D02*
X79809523Y-66831561D01*
X79809523Y-66831561D02*
X79923809Y-66831561D01*
X79923809Y-66831561D02*
X79999999Y-66869657D01*
X80495237Y-67364895D02*
X80419047Y-67326800D01*
X80419047Y-67326800D02*
X80380952Y-67288704D01*
X80380952Y-67288704D02*
X80342856Y-67212514D01*
X80342856Y-67212514D02*
X80342856Y-66983942D01*
X80342856Y-66983942D02*
X80380952Y-66907752D01*
X80380952Y-66907752D02*
X80419047Y-66869657D01*
X80419047Y-66869657D02*
X80495237Y-66831561D01*
X80495237Y-66831561D02*
X80609523Y-66831561D01*
X80609523Y-66831561D02*
X80685714Y-66869657D01*
X80685714Y-66869657D02*
X80723809Y-66907752D01*
X80723809Y-66907752D02*
X80761904Y-66983942D01*
X80761904Y-66983942D02*
X80761904Y-67212514D01*
X80761904Y-67212514D02*
X80723809Y-67288704D01*
X80723809Y-67288704D02*
X80685714Y-67326800D01*
X80685714Y-67326800D02*
X80609523Y-67364895D01*
X80609523Y-67364895D02*
X80495237Y-67364895D01*
X81104762Y-67364895D02*
X81104762Y-66564895D01*
X81447619Y-67364895D02*
X81447619Y-66945847D01*
X81447619Y-66945847D02*
X81409524Y-66869657D01*
X81409524Y-66869657D02*
X81333333Y-66831561D01*
X81333333Y-66831561D02*
X81219047Y-66831561D01*
X81219047Y-66831561D02*
X81142857Y-66869657D01*
X81142857Y-66869657D02*
X81104762Y-66907752D01*
X81828572Y-66831561D02*
X81828572Y-67364895D01*
X81828572Y-66907752D02*
X81866667Y-66869657D01*
X81866667Y-66869657D02*
X81942857Y-66831561D01*
X81942857Y-66831561D02*
X82057143Y-66831561D01*
X82057143Y-66831561D02*
X82133334Y-66869657D01*
X82133334Y-66869657D02*
X82171429Y-66945847D01*
X82171429Y-66945847D02*
X82171429Y-67364895D01*
X83123810Y-66526800D02*
X82438096Y-67555371D01*
X83504762Y-67364895D02*
X83428572Y-67326800D01*
X83428572Y-67326800D02*
X83390477Y-67250609D01*
X83390477Y-67250609D02*
X83390477Y-66564895D01*
X83923810Y-67364895D02*
X83847620Y-67326800D01*
X83847620Y-67326800D02*
X83809525Y-67288704D01*
X83809525Y-67288704D02*
X83771429Y-67212514D01*
X83771429Y-67212514D02*
X83771429Y-66983942D01*
X83771429Y-66983942D02*
X83809525Y-66907752D01*
X83809525Y-66907752D02*
X83847620Y-66869657D01*
X83847620Y-66869657D02*
X83923810Y-66831561D01*
X83923810Y-66831561D02*
X84038096Y-66831561D01*
X84038096Y-66831561D02*
X84114287Y-66869657D01*
X84114287Y-66869657D02*
X84152382Y-66907752D01*
X84152382Y-66907752D02*
X84190477Y-66983942D01*
X84190477Y-66983942D02*
X84190477Y-67212514D01*
X84190477Y-67212514D02*
X84152382Y-67288704D01*
X84152382Y-67288704D02*
X84114287Y-67326800D01*
X84114287Y-67326800D02*
X84038096Y-67364895D01*
X84038096Y-67364895D02*
X83923810Y-67364895D01*
X84533335Y-67364895D02*
X84533335Y-66564895D01*
X84609525Y-67060133D02*
X84838097Y-67364895D01*
X84838097Y-66831561D02*
X84533335Y-67136323D01*
X85485716Y-67326800D02*
X85409525Y-67364895D01*
X85409525Y-67364895D02*
X85257144Y-67364895D01*
X85257144Y-67364895D02*
X85180954Y-67326800D01*
X85180954Y-67326800D02*
X85142858Y-67250609D01*
X85142858Y-67250609D02*
X85142858Y-66945847D01*
X85142858Y-66945847D02*
X85180954Y-66869657D01*
X85180954Y-66869657D02*
X85257144Y-66831561D01*
X85257144Y-66831561D02*
X85409525Y-66831561D01*
X85409525Y-66831561D02*
X85485716Y-66869657D01*
X85485716Y-66869657D02*
X85523811Y-66945847D01*
X85523811Y-66945847D02*
X85523811Y-67022038D01*
X85523811Y-67022038D02*
X85142858Y-67098228D01*
X85790477Y-66831561D02*
X85980953Y-67364895D01*
X86171430Y-66831561D02*
X85980953Y-67364895D01*
X85980953Y-67364895D02*
X85904763Y-67555371D01*
X85904763Y-67555371D02*
X85866668Y-67593466D01*
X85866668Y-67593466D02*
X85790477Y-67631561D01*
X86476192Y-67060133D02*
X87085716Y-67060133D01*
X87390477Y-66564895D02*
X87923811Y-66564895D01*
X87923811Y-66564895D02*
X87580953Y-67364895D01*
X88342858Y-66907752D02*
X88266668Y-66869657D01*
X88266668Y-66869657D02*
X88228573Y-66831561D01*
X88228573Y-66831561D02*
X88190477Y-66755371D01*
X88190477Y-66755371D02*
X88190477Y-66717276D01*
X88190477Y-66717276D02*
X88228573Y-66641085D01*
X88228573Y-66641085D02*
X88266668Y-66602990D01*
X88266668Y-66602990D02*
X88342858Y-66564895D01*
X88342858Y-66564895D02*
X88495239Y-66564895D01*
X88495239Y-66564895D02*
X88571430Y-66602990D01*
X88571430Y-66602990D02*
X88609525Y-66641085D01*
X88609525Y-66641085D02*
X88647620Y-66717276D01*
X88647620Y-66717276D02*
X88647620Y-66755371D01*
X88647620Y-66755371D02*
X88609525Y-66831561D01*
X88609525Y-66831561D02*
X88571430Y-66869657D01*
X88571430Y-66869657D02*
X88495239Y-66907752D01*
X88495239Y-66907752D02*
X88342858Y-66907752D01*
X88342858Y-66907752D02*
X88266668Y-66945847D01*
X88266668Y-66945847D02*
X88228573Y-66983942D01*
X88228573Y-66983942D02*
X88190477Y-67060133D01*
X88190477Y-67060133D02*
X88190477Y-67212514D01*
X88190477Y-67212514D02*
X88228573Y-67288704D01*
X88228573Y-67288704D02*
X88266668Y-67326800D01*
X88266668Y-67326800D02*
X88342858Y-67364895D01*
X88342858Y-67364895D02*
X88495239Y-67364895D01*
X88495239Y-67364895D02*
X88571430Y-67326800D01*
X88571430Y-67326800D02*
X88609525Y-67288704D01*
X88609525Y-67288704D02*
X88647620Y-67212514D01*
X88647620Y-67212514D02*
X88647620Y-67060133D01*
X88647620Y-67060133D02*
X88609525Y-66983942D01*
X88609525Y-66983942D02*
X88571430Y-66945847D01*
X88571430Y-66945847D02*
X88495239Y-66907752D01*
X89142859Y-66564895D02*
X89219049Y-66564895D01*
X89219049Y-66564895D02*
X89295240Y-66602990D01*
X89295240Y-66602990D02*
X89333335Y-66641085D01*
X89333335Y-66641085D02*
X89371430Y-66717276D01*
X89371430Y-66717276D02*
X89409525Y-66869657D01*
X89409525Y-66869657D02*
X89409525Y-67060133D01*
X89409525Y-67060133D02*
X89371430Y-67212514D01*
X89371430Y-67212514D02*
X89333335Y-67288704D01*
X89333335Y-67288704D02*
X89295240Y-67326800D01*
X89295240Y-67326800D02*
X89219049Y-67364895D01*
X89219049Y-67364895D02*
X89142859Y-67364895D01*
X89142859Y-67364895D02*
X89066668Y-67326800D01*
X89066668Y-67326800D02*
X89028573Y-67288704D01*
X89028573Y-67288704D02*
X88990478Y-67212514D01*
X88990478Y-67212514D02*
X88952382Y-67060133D01*
X88952382Y-67060133D02*
X88952382Y-66869657D01*
X88952382Y-66869657D02*
X88990478Y-66717276D01*
X88990478Y-66717276D02*
X89028573Y-66641085D01*
X89028573Y-66641085D02*
X89066668Y-66602990D01*
X89066668Y-66602990D02*
X89142859Y-66564895D01*
X89904764Y-66564895D02*
X89980954Y-66564895D01*
X89980954Y-66564895D02*
X90057145Y-66602990D01*
X90057145Y-66602990D02*
X90095240Y-66641085D01*
X90095240Y-66641085D02*
X90133335Y-66717276D01*
X90133335Y-66717276D02*
X90171430Y-66869657D01*
X90171430Y-66869657D02*
X90171430Y-67060133D01*
X90171430Y-67060133D02*
X90133335Y-67212514D01*
X90133335Y-67212514D02*
X90095240Y-67288704D01*
X90095240Y-67288704D02*
X90057145Y-67326800D01*
X90057145Y-67326800D02*
X89980954Y-67364895D01*
X89980954Y-67364895D02*
X89904764Y-67364895D01*
X89904764Y-67364895D02*
X89828573Y-67326800D01*
X89828573Y-67326800D02*
X89790478Y-67288704D01*
X89790478Y-67288704D02*
X89752383Y-67212514D01*
X89752383Y-67212514D02*
X89714287Y-67060133D01*
X89714287Y-67060133D02*
X89714287Y-66869657D01*
X89714287Y-66869657D02*
X89752383Y-66717276D01*
X89752383Y-66717276D02*
X89790478Y-66641085D01*
X89790478Y-66641085D02*
X89828573Y-66602990D01*
X89828573Y-66602990D02*
X89904764Y-66564895D01*
X90514288Y-67060133D02*
X91123812Y-67060133D01*
X91428573Y-66831561D02*
X91619049Y-67364895D01*
X91809526Y-66831561D02*
X91619049Y-67364895D01*
X91619049Y-67364895D02*
X91542859Y-67555371D01*
X91542859Y-67555371D02*
X91504764Y-67593466D01*
X91504764Y-67593466D02*
X91428573Y-67631561D01*
X92114288Y-67364895D02*
X92114288Y-66831561D01*
X92114288Y-66907752D02*
X92152383Y-66869657D01*
X92152383Y-66869657D02*
X92228573Y-66831561D01*
X92228573Y-66831561D02*
X92342859Y-66831561D01*
X92342859Y-66831561D02*
X92419050Y-66869657D01*
X92419050Y-66869657D02*
X92457145Y-66945847D01*
X92457145Y-66945847D02*
X92457145Y-67364895D01*
X92457145Y-66945847D02*
X92495240Y-66869657D01*
X92495240Y-66869657D02*
X92571431Y-66831561D01*
X92571431Y-66831561D02*
X92685716Y-66831561D01*
X92685716Y-66831561D02*
X92761907Y-66869657D01*
X92761907Y-66869657D02*
X92800002Y-66945847D01*
X92800002Y-66945847D02*
X92800002Y-67364895D01*
D11*
X72698414Y-64608159D02*
X72063494Y-64608159D01*
X72063494Y-64608159D02*
X72063494Y-63274826D01*
X73333335Y-64608159D02*
X73206351Y-64544667D01*
X73206351Y-64544667D02*
X73142859Y-64481174D01*
X73142859Y-64481174D02*
X73079367Y-64354190D01*
X73079367Y-64354190D02*
X73079367Y-63973238D01*
X73079367Y-63973238D02*
X73142859Y-63846254D01*
X73142859Y-63846254D02*
X73206351Y-63782762D01*
X73206351Y-63782762D02*
X73333335Y-63719270D01*
X73333335Y-63719270D02*
X73523811Y-63719270D01*
X73523811Y-63719270D02*
X73650795Y-63782762D01*
X73650795Y-63782762D02*
X73714287Y-63846254D01*
X73714287Y-63846254D02*
X73777779Y-63973238D01*
X73777779Y-63973238D02*
X73777779Y-64354190D01*
X73777779Y-64354190D02*
X73714287Y-64481174D01*
X73714287Y-64481174D02*
X73650795Y-64544667D01*
X73650795Y-64544667D02*
X73523811Y-64608159D01*
X73523811Y-64608159D02*
X73333335Y-64608159D01*
X74349208Y-64608159D02*
X74349208Y-63274826D01*
X74476192Y-64100222D02*
X74857144Y-64608159D01*
X74857144Y-63719270D02*
X74349208Y-64227206D01*
X75936509Y-64544667D02*
X75809525Y-64608159D01*
X75809525Y-64608159D02*
X75555557Y-64608159D01*
X75555557Y-64608159D02*
X75428573Y-64544667D01*
X75428573Y-64544667D02*
X75365081Y-64417682D01*
X75365081Y-64417682D02*
X75365081Y-63909746D01*
X75365081Y-63909746D02*
X75428573Y-63782762D01*
X75428573Y-63782762D02*
X75555557Y-63719270D01*
X75555557Y-63719270D02*
X75809525Y-63719270D01*
X75809525Y-63719270D02*
X75936509Y-63782762D01*
X75936509Y-63782762D02*
X76000001Y-63909746D01*
X76000001Y-63909746D02*
X76000001Y-64036730D01*
X76000001Y-64036730D02*
X75365081Y-64163714D01*
X76444446Y-63719270D02*
X76761906Y-64608159D01*
X77079366Y-63719270D02*
X76761906Y-64608159D01*
X76761906Y-64608159D02*
X76634922Y-64925619D01*
X76634922Y-64925619D02*
X76571430Y-64989111D01*
X76571430Y-64989111D02*
X76444446Y-65052603D01*
X78476192Y-63274826D02*
X79365080Y-63274826D01*
X79365080Y-63274826D02*
X78793652Y-64608159D01*
X80063493Y-63846254D02*
X79936509Y-63782762D01*
X79936509Y-63782762D02*
X79873017Y-63719270D01*
X79873017Y-63719270D02*
X79809525Y-63592286D01*
X79809525Y-63592286D02*
X79809525Y-63528794D01*
X79809525Y-63528794D02*
X79873017Y-63401810D01*
X79873017Y-63401810D02*
X79936509Y-63338318D01*
X79936509Y-63338318D02*
X80063493Y-63274826D01*
X80063493Y-63274826D02*
X80317461Y-63274826D01*
X80317461Y-63274826D02*
X80444445Y-63338318D01*
X80444445Y-63338318D02*
X80507937Y-63401810D01*
X80507937Y-63401810D02*
X80571429Y-63528794D01*
X80571429Y-63528794D02*
X80571429Y-63592286D01*
X80571429Y-63592286D02*
X80507937Y-63719270D01*
X80507937Y-63719270D02*
X80444445Y-63782762D01*
X80444445Y-63782762D02*
X80317461Y-63846254D01*
X80317461Y-63846254D02*
X80063493Y-63846254D01*
X80063493Y-63846254D02*
X79936509Y-63909746D01*
X79936509Y-63909746D02*
X79873017Y-63973238D01*
X79873017Y-63973238D02*
X79809525Y-64100222D01*
X79809525Y-64100222D02*
X79809525Y-64354190D01*
X79809525Y-64354190D02*
X79873017Y-64481174D01*
X79873017Y-64481174D02*
X79936509Y-64544667D01*
X79936509Y-64544667D02*
X80063493Y-64608159D01*
X80063493Y-64608159D02*
X80317461Y-64608159D01*
X80317461Y-64608159D02*
X80444445Y-64544667D01*
X80444445Y-64544667D02*
X80507937Y-64481174D01*
X80507937Y-64481174D02*
X80571429Y-64354190D01*
X80571429Y-64354190D02*
X80571429Y-64100222D01*
X80571429Y-64100222D02*
X80507937Y-63973238D01*
X80507937Y-63973238D02*
X80444445Y-63909746D01*
X80444445Y-63909746D02*
X80317461Y-63846254D01*
X81396826Y-63274826D02*
X81523810Y-63274826D01*
X81523810Y-63274826D02*
X81650794Y-63338318D01*
X81650794Y-63338318D02*
X81714286Y-63401810D01*
X81714286Y-63401810D02*
X81777778Y-63528794D01*
X81777778Y-63528794D02*
X81841270Y-63782762D01*
X81841270Y-63782762D02*
X81841270Y-64100222D01*
X81841270Y-64100222D02*
X81777778Y-64354190D01*
X81777778Y-64354190D02*
X81714286Y-64481174D01*
X81714286Y-64481174D02*
X81650794Y-64544667D01*
X81650794Y-64544667D02*
X81523810Y-64608159D01*
X81523810Y-64608159D02*
X81396826Y-64608159D01*
X81396826Y-64608159D02*
X81269842Y-64544667D01*
X81269842Y-64544667D02*
X81206350Y-64481174D01*
X81206350Y-64481174D02*
X81142858Y-64354190D01*
X81142858Y-64354190D02*
X81079366Y-64100222D01*
X81079366Y-64100222D02*
X81079366Y-63782762D01*
X81079366Y-63782762D02*
X81142858Y-63528794D01*
X81142858Y-63528794D02*
X81206350Y-63401810D01*
X81206350Y-63401810D02*
X81269842Y-63338318D01*
X81269842Y-63338318D02*
X81396826Y-63274826D01*
X82666667Y-63274826D02*
X82793651Y-63274826D01*
X82793651Y-63274826D02*
X82920635Y-63338318D01*
X82920635Y-63338318D02*
X82984127Y-63401810D01*
X82984127Y-63401810D02*
X83047619Y-63528794D01*
X83047619Y-63528794D02*
X83111111Y-63782762D01*
X83111111Y-63782762D02*
X83111111Y-64100222D01*
X83111111Y-64100222D02*
X83047619Y-64354190D01*
X83047619Y-64354190D02*
X82984127Y-64481174D01*
X82984127Y-64481174D02*
X82920635Y-64544667D01*
X82920635Y-64544667D02*
X82793651Y-64608159D01*
X82793651Y-64608159D02*
X82666667Y-64608159D01*
X82666667Y-64608159D02*
X82539683Y-64544667D01*
X82539683Y-64544667D02*
X82476191Y-64481174D01*
X82476191Y-64481174D02*
X82412699Y-64354190D01*
X82412699Y-64354190D02*
X82349207Y-64100222D01*
X82349207Y-64100222D02*
X82349207Y-63782762D01*
X82349207Y-63782762D02*
X82412699Y-63528794D01*
X82412699Y-63528794D02*
X82476191Y-63401810D01*
X82476191Y-63401810D02*
X82539683Y-63338318D01*
X82539683Y-63338318D02*
X82666667Y-63274826D01*
X84952381Y-63973238D02*
X84952381Y-64608159D01*
X84507937Y-63274826D02*
X84952381Y-63973238D01*
X84952381Y-63973238D02*
X85396825Y-63274826D01*
X85841270Y-64608159D02*
X85841270Y-63274826D01*
X85841270Y-63274826D02*
X86285714Y-64227206D01*
X86285714Y-64227206D02*
X86730158Y-63274826D01*
X86730158Y-63274826D02*
X86730158Y-64608159D01*
X88253968Y-63719270D02*
X88571428Y-64608159D01*
X88571428Y-64608159D02*
X88888888Y-63719270D01*
X89650793Y-63274826D02*
X89777777Y-63274826D01*
X89777777Y-63274826D02*
X89904761Y-63338318D01*
X89904761Y-63338318D02*
X89968253Y-63401810D01*
X89968253Y-63401810D02*
X90031745Y-63528794D01*
X90031745Y-63528794D02*
X90095237Y-63782762D01*
X90095237Y-63782762D02*
X90095237Y-64100222D01*
X90095237Y-64100222D02*
X90031745Y-64354190D01*
X90031745Y-64354190D02*
X89968253Y-64481174D01*
X89968253Y-64481174D02*
X89904761Y-64544667D01*
X89904761Y-64544667D02*
X89777777Y-64608159D01*
X89777777Y-64608159D02*
X89650793Y-64608159D01*
X89650793Y-64608159D02*
X89523809Y-64544667D01*
X89523809Y-64544667D02*
X89460317Y-64481174D01*
X89460317Y-64481174D02*
X89396825Y-64354190D01*
X89396825Y-64354190D02*
X89333333Y-64100222D01*
X89333333Y-64100222D02*
X89333333Y-63782762D01*
X89333333Y-63782762D02*
X89396825Y-63528794D01*
X89396825Y-63528794D02*
X89460317Y-63401810D01*
X89460317Y-63401810D02*
X89523809Y-63338318D01*
X89523809Y-63338318D02*
X89650793Y-63274826D01*
X90666666Y-64481174D02*
X90730158Y-64544667D01*
X90730158Y-64544667D02*
X90666666Y-64608159D01*
X90666666Y-64608159D02*
X90603174Y-64544667D01*
X90603174Y-64544667D02*
X90666666Y-64481174D01*
X90666666Y-64481174D02*
X90666666Y-64608159D01*
X91999998Y-64608159D02*
X91238094Y-64608159D01*
X91619046Y-64608159D02*
X91619046Y-63274826D01*
X91619046Y-63274826D02*
X91492062Y-63465302D01*
X91492062Y-63465302D02*
X91365078Y-63592286D01*
X91365078Y-63592286D02*
X91238094Y-63655778D01*
D12*
X118209930Y-115515078D02*
X118590882Y-115515078D01*
X118590882Y-115515078D02*
X118667073Y-115540474D01*
X118667073Y-115540474D02*
X118717867Y-115591268D01*
X118717867Y-115591268D02*
X118743263Y-115667458D01*
X118743263Y-115667458D02*
X118743263Y-115718252D01*
X118743263Y-115261109D02*
X118209930Y-115261109D01*
X118209930Y-115261109D02*
X118209930Y-115057935D01*
X118209930Y-115057935D02*
X118235327Y-115007141D01*
X118235327Y-115007141D02*
X118260724Y-114981745D01*
X118260724Y-114981745D02*
X118311518Y-114956348D01*
X118311518Y-114956348D02*
X118387708Y-114956348D01*
X118387708Y-114956348D02*
X118438502Y-114981745D01*
X118438502Y-114981745D02*
X118463898Y-115007141D01*
X118463898Y-115007141D02*
X118489295Y-115057935D01*
X118489295Y-115057935D02*
X118489295Y-115261109D01*
X118743263Y-114448412D02*
X118743263Y-114753173D01*
X118743263Y-114600792D02*
X118209930Y-114600792D01*
X118209930Y-114600792D02*
X118286121Y-114651586D01*
X118286121Y-114651586D02*
X118336914Y-114702380D01*
X118336914Y-114702380D02*
X118362311Y-114753173D01*
X118946438Y-113661111D02*
X118921041Y-113686507D01*
X118921041Y-113686507D02*
X118844851Y-113737301D01*
X118844851Y-113737301D02*
X118794057Y-113762698D01*
X118794057Y-113762698D02*
X118717867Y-113788095D01*
X118717867Y-113788095D02*
X118590882Y-113813491D01*
X118590882Y-113813491D02*
X118489295Y-113813491D01*
X118489295Y-113813491D02*
X118362311Y-113788095D01*
X118362311Y-113788095D02*
X118286121Y-113762698D01*
X118286121Y-113762698D02*
X118235327Y-113737301D01*
X118235327Y-113737301D02*
X118159137Y-113686507D01*
X118159137Y-113686507D02*
X118133740Y-113661111D01*
X118209930Y-113534127D02*
X118743263Y-113356349D01*
X118743263Y-113356349D02*
X118209930Y-113178572D01*
X118743263Y-113000793D02*
X118209930Y-113000793D01*
X118209930Y-113000793D02*
X118209930Y-112797619D01*
X118209930Y-112797619D02*
X118235327Y-112746825D01*
X118235327Y-112746825D02*
X118260724Y-112721429D01*
X118260724Y-112721429D02*
X118311518Y-112696032D01*
X118311518Y-112696032D02*
X118387708Y-112696032D01*
X118387708Y-112696032D02*
X118438502Y-112721429D01*
X118438502Y-112721429D02*
X118463898Y-112746825D01*
X118463898Y-112746825D02*
X118489295Y-112797619D01*
X118489295Y-112797619D02*
X118489295Y-113000793D01*
X118743263Y-112467460D02*
X118209930Y-112467460D01*
X118209930Y-112467460D02*
X118209930Y-112264286D01*
X118209930Y-112264286D02*
X118235327Y-112213492D01*
X118235327Y-112213492D02*
X118260724Y-112188096D01*
X118260724Y-112188096D02*
X118311518Y-112162699D01*
X118311518Y-112162699D02*
X118387708Y-112162699D01*
X118387708Y-112162699D02*
X118438502Y-112188096D01*
X118438502Y-112188096D02*
X118463898Y-112213492D01*
X118463898Y-112213492D02*
X118489295Y-112264286D01*
X118489295Y-112264286D02*
X118489295Y-112467460D01*
X118946438Y-111984921D02*
X118921041Y-111959524D01*
X118921041Y-111959524D02*
X118844851Y-111908731D01*
X118844851Y-111908731D02*
X118794057Y-111883334D01*
X118794057Y-111883334D02*
X118717867Y-111857937D01*
X118717867Y-111857937D02*
X118590882Y-111832540D01*
X118590882Y-111832540D02*
X118489295Y-111832540D01*
X118489295Y-111832540D02*
X118362311Y-111857937D01*
X118362311Y-111857937D02*
X118286121Y-111883334D01*
X118286121Y-111883334D02*
X118235327Y-111908731D01*
X118235327Y-111908731D02*
X118159137Y-111959524D01*
X118159137Y-111959524D02*
X118133740Y-111984921D01*
D13*
X121568161Y-113026189D02*
X121568161Y-112835713D01*
X121682447Y-113064284D02*
X121282447Y-112930951D01*
X121282447Y-112930951D02*
X121682447Y-112797618D01*
X121682447Y-112454761D02*
X121682447Y-112683332D01*
X121682447Y-112569046D02*
X121282447Y-112569046D01*
X121282447Y-112569046D02*
X121339590Y-112607142D01*
X121339590Y-112607142D02*
X121377685Y-112645237D01*
X121377685Y-112645237D02*
X121396733Y-112683332D01*
X121282447Y-112092856D02*
X121282447Y-112283332D01*
X121282447Y-112283332D02*
X121472923Y-112302380D01*
X121472923Y-112302380D02*
X121453876Y-112283332D01*
X121453876Y-112283332D02*
X121434828Y-112245237D01*
X121434828Y-112245237D02*
X121434828Y-112149999D01*
X121434828Y-112149999D02*
X121453876Y-112111904D01*
X121453876Y-112111904D02*
X121472923Y-112092856D01*
X121472923Y-112092856D02*
X121511019Y-112073809D01*
X121511019Y-112073809D02*
X121606257Y-112073809D01*
X121606257Y-112073809D02*
X121644352Y-112092856D01*
X121644352Y-112092856D02*
X121663400Y-112111904D01*
X121663400Y-112111904D02*
X121682447Y-112149999D01*
X121682447Y-112149999D02*
X121682447Y-112245237D01*
X121682447Y-112245237D02*
X121663400Y-112283332D01*
X121663400Y-112283332D02*
X121644352Y-112302380D01*
X121282447Y-115483332D02*
X121682447Y-115349999D01*
X121682447Y-115349999D02*
X121282447Y-115216666D01*
X121644352Y-114854761D02*
X121663400Y-114873809D01*
X121663400Y-114873809D02*
X121682447Y-114930951D01*
X121682447Y-114930951D02*
X121682447Y-114969047D01*
X121682447Y-114969047D02*
X121663400Y-115026190D01*
X121663400Y-115026190D02*
X121625304Y-115064285D01*
X121625304Y-115064285D02*
X121587209Y-115083332D01*
X121587209Y-115083332D02*
X121511019Y-115102380D01*
X121511019Y-115102380D02*
X121453876Y-115102380D01*
X121453876Y-115102380D02*
X121377685Y-115083332D01*
X121377685Y-115083332D02*
X121339590Y-115064285D01*
X121339590Y-115064285D02*
X121301495Y-115026190D01*
X121301495Y-115026190D02*
X121282447Y-114969047D01*
X121282447Y-114969047D02*
X121282447Y-114930951D01*
X121282447Y-114930951D02*
X121301495Y-114873809D01*
X121301495Y-114873809D02*
X121320542Y-114854761D01*
X121644352Y-114454761D02*
X121663400Y-114473809D01*
X121663400Y-114473809D02*
X121682447Y-114530951D01*
X121682447Y-114530951D02*
X121682447Y-114569047D01*
X121682447Y-114569047D02*
X121663400Y-114626190D01*
X121663400Y-114626190D02*
X121625304Y-114664285D01*
X121625304Y-114664285D02*
X121587209Y-114683332D01*
X121587209Y-114683332D02*
X121511019Y-114702380D01*
X121511019Y-114702380D02*
X121453876Y-114702380D01*
X121453876Y-114702380D02*
X121377685Y-114683332D01*
X121377685Y-114683332D02*
X121339590Y-114664285D01*
X121339590Y-114664285D02*
X121301495Y-114626190D01*
X121301495Y-114626190D02*
X121282447Y-114569047D01*
X121282447Y-114569047D02*
X121282447Y-114530951D01*
X121282447Y-114530951D02*
X121301495Y-114473809D01*
X121301495Y-114473809D02*
X121320542Y-114454761D01*
D10*
X112874895Y-66609523D02*
X113522514Y-66609523D01*
X113522514Y-66609523D02*
X113598704Y-66571428D01*
X113598704Y-66571428D02*
X113636800Y-66533333D01*
X113636800Y-66533333D02*
X113674895Y-66457142D01*
X113674895Y-66457142D02*
X113674895Y-66304761D01*
X113674895Y-66304761D02*
X113636800Y-66228571D01*
X113636800Y-66228571D02*
X113598704Y-66190476D01*
X113598704Y-66190476D02*
X113522514Y-66152380D01*
X113522514Y-66152380D02*
X112874895Y-66152380D01*
X112874895Y-65390476D02*
X112874895Y-65771428D01*
X112874895Y-65771428D02*
X113255847Y-65809524D01*
X113255847Y-65809524D02*
X113217752Y-65771428D01*
X113217752Y-65771428D02*
X113179657Y-65695238D01*
X113179657Y-65695238D02*
X113179657Y-65504762D01*
X113179657Y-65504762D02*
X113217752Y-65428571D01*
X113217752Y-65428571D02*
X113255847Y-65390476D01*
X113255847Y-65390476D02*
X113332038Y-65352381D01*
X113332038Y-65352381D02*
X113522514Y-65352381D01*
X113522514Y-65352381D02*
X113598704Y-65390476D01*
X113598704Y-65390476D02*
X113636800Y-65428571D01*
X113636800Y-65428571D02*
X113674895Y-65504762D01*
X113674895Y-65504762D02*
X113674895Y-65695238D01*
X113674895Y-65695238D02*
X113636800Y-65771428D01*
X113636800Y-65771428D02*
X113598704Y-65809524D01*
X120076191Y-72614895D02*
X119809524Y-72233942D01*
X119619048Y-72614895D02*
X119619048Y-71814895D01*
X119619048Y-71814895D02*
X119923810Y-71814895D01*
X119923810Y-71814895D02*
X120000000Y-71852990D01*
X120000000Y-71852990D02*
X120038095Y-71891085D01*
X120038095Y-71891085D02*
X120076191Y-71967276D01*
X120076191Y-71967276D02*
X120076191Y-72081561D01*
X120076191Y-72081561D02*
X120038095Y-72157752D01*
X120038095Y-72157752D02*
X120000000Y-72195847D01*
X120000000Y-72195847D02*
X119923810Y-72233942D01*
X119923810Y-72233942D02*
X119619048Y-72233942D01*
X120380952Y-72386323D02*
X120761905Y-72386323D01*
X120304762Y-72614895D02*
X120571429Y-71814895D01*
X120571429Y-71814895D02*
X120838095Y-72614895D01*
X121104762Y-71814895D02*
X121104762Y-72462514D01*
X121104762Y-72462514D02*
X121142857Y-72538704D01*
X121142857Y-72538704D02*
X121180952Y-72576800D01*
X121180952Y-72576800D02*
X121257143Y-72614895D01*
X121257143Y-72614895D02*
X121409524Y-72614895D01*
X121409524Y-72614895D02*
X121485714Y-72576800D01*
X121485714Y-72576800D02*
X121523809Y-72538704D01*
X121523809Y-72538704D02*
X121561905Y-72462514D01*
X121561905Y-72462514D02*
X121561905Y-71814895D01*
X121942857Y-72614895D02*
X121942857Y-71814895D01*
X121942857Y-71814895D02*
X122133333Y-71814895D01*
X122133333Y-71814895D02*
X122247619Y-71852990D01*
X122247619Y-71852990D02*
X122323809Y-71929180D01*
X122323809Y-71929180D02*
X122361904Y-72005371D01*
X122361904Y-72005371D02*
X122400000Y-72157752D01*
X122400000Y-72157752D02*
X122400000Y-72272038D01*
X122400000Y-72272038D02*
X122361904Y-72424419D01*
X122361904Y-72424419D02*
X122323809Y-72500609D01*
X122323809Y-72500609D02*
X122247619Y-72576800D01*
X122247619Y-72576800D02*
X122133333Y-72614895D01*
X122133333Y-72614895D02*
X121942857Y-72614895D01*
X122742857Y-72614895D02*
X122742857Y-71814895D01*
X123276190Y-71814895D02*
X123428571Y-71814895D01*
X123428571Y-71814895D02*
X123504761Y-71852990D01*
X123504761Y-71852990D02*
X123580952Y-71929180D01*
X123580952Y-71929180D02*
X123619047Y-72081561D01*
X123619047Y-72081561D02*
X123619047Y-72348228D01*
X123619047Y-72348228D02*
X123580952Y-72500609D01*
X123580952Y-72500609D02*
X123504761Y-72576800D01*
X123504761Y-72576800D02*
X123428571Y-72614895D01*
X123428571Y-72614895D02*
X123276190Y-72614895D01*
X123276190Y-72614895D02*
X123199999Y-72576800D01*
X123199999Y-72576800D02*
X123123809Y-72500609D01*
X123123809Y-72500609D02*
X123085713Y-72348228D01*
X123085713Y-72348228D02*
X123085713Y-72081561D01*
X123085713Y-72081561D02*
X123123809Y-71929180D01*
X123123809Y-71929180D02*
X123199999Y-71852990D01*
X123199999Y-71852990D02*
X123276190Y-71814895D01*
X124228570Y-72195847D02*
X124342856Y-72233942D01*
X124342856Y-72233942D02*
X124380951Y-72272038D01*
X124380951Y-72272038D02*
X124419047Y-72348228D01*
X124419047Y-72348228D02*
X124419047Y-72462514D01*
X124419047Y-72462514D02*
X124380951Y-72538704D01*
X124380951Y-72538704D02*
X124342856Y-72576800D01*
X124342856Y-72576800D02*
X124266666Y-72614895D01*
X124266666Y-72614895D02*
X123961904Y-72614895D01*
X123961904Y-72614895D02*
X123961904Y-71814895D01*
X123961904Y-71814895D02*
X124228570Y-71814895D01*
X124228570Y-71814895D02*
X124304761Y-71852990D01*
X124304761Y-71852990D02*
X124342856Y-71891085D01*
X124342856Y-71891085D02*
X124380951Y-71967276D01*
X124380951Y-71967276D02*
X124380951Y-72043466D01*
X124380951Y-72043466D02*
X124342856Y-72119657D01*
X124342856Y-72119657D02*
X124304761Y-72157752D01*
X124304761Y-72157752D02*
X124228570Y-72195847D01*
X124228570Y-72195847D02*
X123961904Y-72195847D01*
X126494895Y-102859523D02*
X127142514Y-102859523D01*
X127142514Y-102859523D02*
X127218704Y-102821428D01*
X127218704Y-102821428D02*
X127256800Y-102783333D01*
X127256800Y-102783333D02*
X127294895Y-102707142D01*
X127294895Y-102707142D02*
X127294895Y-102554761D01*
X127294895Y-102554761D02*
X127256800Y-102478571D01*
X127256800Y-102478571D02*
X127218704Y-102440476D01*
X127218704Y-102440476D02*
X127142514Y-102402380D01*
X127142514Y-102402380D02*
X126494895Y-102402380D01*
X126494895Y-102097619D02*
X126494895Y-101602381D01*
X126494895Y-101602381D02*
X126799657Y-101869047D01*
X126799657Y-101869047D02*
X126799657Y-101754762D01*
X126799657Y-101754762D02*
X126837752Y-101678571D01*
X126837752Y-101678571D02*
X126875847Y-101640476D01*
X126875847Y-101640476D02*
X126952038Y-101602381D01*
X126952038Y-101602381D02*
X127142514Y-101602381D01*
X127142514Y-101602381D02*
X127218704Y-101640476D01*
X127218704Y-101640476D02*
X127256800Y-101678571D01*
X127256800Y-101678571D02*
X127294895Y-101754762D01*
X127294895Y-101754762D02*
X127294895Y-101983333D01*
X127294895Y-101983333D02*
X127256800Y-102059524D01*
X127256800Y-102059524D02*
X127218704Y-102097619D01*
X78057142Y-94538704D02*
X78019046Y-94576800D01*
X78019046Y-94576800D02*
X77904761Y-94614895D01*
X77904761Y-94614895D02*
X77828570Y-94614895D01*
X77828570Y-94614895D02*
X77714284Y-94576800D01*
X77714284Y-94576800D02*
X77638094Y-94500609D01*
X77638094Y-94500609D02*
X77599999Y-94424419D01*
X77599999Y-94424419D02*
X77561903Y-94272038D01*
X77561903Y-94272038D02*
X77561903Y-94157752D01*
X77561903Y-94157752D02*
X77599999Y-94005371D01*
X77599999Y-94005371D02*
X77638094Y-93929180D01*
X77638094Y-93929180D02*
X77714284Y-93852990D01*
X77714284Y-93852990D02*
X77828570Y-93814895D01*
X77828570Y-93814895D02*
X77904761Y-93814895D01*
X77904761Y-93814895D02*
X78019046Y-93852990D01*
X78019046Y-93852990D02*
X78057142Y-93891085D01*
X78857142Y-94614895D02*
X78590475Y-94233942D01*
X78399999Y-94614895D02*
X78399999Y-93814895D01*
X78399999Y-93814895D02*
X78704761Y-93814895D01*
X78704761Y-93814895D02*
X78780951Y-93852990D01*
X78780951Y-93852990D02*
X78819046Y-93891085D01*
X78819046Y-93891085D02*
X78857142Y-93967276D01*
X78857142Y-93967276D02*
X78857142Y-94081561D01*
X78857142Y-94081561D02*
X78819046Y-94157752D01*
X78819046Y-94157752D02*
X78780951Y-94195847D01*
X78780951Y-94195847D02*
X78704761Y-94233942D01*
X78704761Y-94233942D02*
X78399999Y-94233942D01*
X79199999Y-94195847D02*
X79466665Y-94195847D01*
X79580951Y-94614895D02*
X79199999Y-94614895D01*
X79199999Y-94614895D02*
X79199999Y-93814895D01*
X79199999Y-93814895D02*
X79580951Y-93814895D01*
X79885713Y-94576800D02*
X79999999Y-94614895D01*
X79999999Y-94614895D02*
X80190475Y-94614895D01*
X80190475Y-94614895D02*
X80266666Y-94576800D01*
X80266666Y-94576800D02*
X80304761Y-94538704D01*
X80304761Y-94538704D02*
X80342856Y-94462514D01*
X80342856Y-94462514D02*
X80342856Y-94386323D01*
X80342856Y-94386323D02*
X80304761Y-94310133D01*
X80304761Y-94310133D02*
X80266666Y-94272038D01*
X80266666Y-94272038D02*
X80190475Y-94233942D01*
X80190475Y-94233942D02*
X80038094Y-94195847D01*
X80038094Y-94195847D02*
X79961904Y-94157752D01*
X79961904Y-94157752D02*
X79923809Y-94119657D01*
X79923809Y-94119657D02*
X79885713Y-94043466D01*
X79885713Y-94043466D02*
X79885713Y-93967276D01*
X79885713Y-93967276D02*
X79923809Y-93891085D01*
X79923809Y-93891085D02*
X79961904Y-93852990D01*
X79961904Y-93852990D02*
X80038094Y-93814895D01*
X80038094Y-93814895D02*
X80228571Y-93814895D01*
X80228571Y-93814895D02*
X80342856Y-93852990D01*
X80685714Y-94195847D02*
X80952380Y-94195847D01*
X81066666Y-94614895D02*
X80685714Y-94614895D01*
X80685714Y-94614895D02*
X80685714Y-93814895D01*
X80685714Y-93814895D02*
X81066666Y-93814895D01*
X81295238Y-93814895D02*
X81752381Y-93814895D01*
X81523809Y-94614895D02*
X81523809Y-93814895D01*
X82438095Y-94614895D02*
X81980952Y-94614895D01*
X82209524Y-94614895D02*
X82209524Y-93814895D01*
X82209524Y-93814895D02*
X82133333Y-93929180D01*
X82133333Y-93929180D02*
X82057143Y-94005371D01*
X82057143Y-94005371D02*
X81980952Y-94043466D01*
X117574895Y-118859523D02*
X118222514Y-118859523D01*
X118222514Y-118859523D02*
X118298704Y-118821428D01*
X118298704Y-118821428D02*
X118336800Y-118783333D01*
X118336800Y-118783333D02*
X118374895Y-118707142D01*
X118374895Y-118707142D02*
X118374895Y-118554761D01*
X118374895Y-118554761D02*
X118336800Y-118478571D01*
X118336800Y-118478571D02*
X118298704Y-118440476D01*
X118298704Y-118440476D02*
X118222514Y-118402380D01*
X118222514Y-118402380D02*
X117574895Y-118402380D01*
X118374895Y-117602381D02*
X118374895Y-118059524D01*
X118374895Y-117830952D02*
X117574895Y-117830952D01*
X117574895Y-117830952D02*
X117689180Y-117907143D01*
X117689180Y-117907143D02*
X117765371Y-117983333D01*
X117765371Y-117983333D02*
X117803466Y-118059524D01*
X116864895Y-67828571D02*
X116483942Y-68095238D01*
X116864895Y-68285714D02*
X116064895Y-68285714D01*
X116064895Y-68285714D02*
X116064895Y-67980952D01*
X116064895Y-67980952D02*
X116102990Y-67904762D01*
X116102990Y-67904762D02*
X116141085Y-67866667D01*
X116141085Y-67866667D02*
X116217276Y-67828571D01*
X116217276Y-67828571D02*
X116331561Y-67828571D01*
X116331561Y-67828571D02*
X116407752Y-67866667D01*
X116407752Y-67866667D02*
X116445847Y-67904762D01*
X116445847Y-67904762D02*
X116483942Y-67980952D01*
X116483942Y-67980952D02*
X116483942Y-68285714D01*
X116826800Y-67523810D02*
X116864895Y-67409524D01*
X116864895Y-67409524D02*
X116864895Y-67219048D01*
X116864895Y-67219048D02*
X116826800Y-67142857D01*
X116826800Y-67142857D02*
X116788704Y-67104762D01*
X116788704Y-67104762D02*
X116712514Y-67066667D01*
X116712514Y-67066667D02*
X116636323Y-67066667D01*
X116636323Y-67066667D02*
X116560133Y-67104762D01*
X116560133Y-67104762D02*
X116522038Y-67142857D01*
X116522038Y-67142857D02*
X116483942Y-67219048D01*
X116483942Y-67219048D02*
X116445847Y-67371429D01*
X116445847Y-67371429D02*
X116407752Y-67447619D01*
X116407752Y-67447619D02*
X116369657Y-67485714D01*
X116369657Y-67485714D02*
X116293466Y-67523810D01*
X116293466Y-67523810D02*
X116217276Y-67523810D01*
X116217276Y-67523810D02*
X116141085Y-67485714D01*
X116141085Y-67485714D02*
X116102990Y-67447619D01*
X116102990Y-67447619D02*
X116064895Y-67371429D01*
X116064895Y-67371429D02*
X116064895Y-67180952D01*
X116064895Y-67180952D02*
X116102990Y-67066667D01*
X116445847Y-66723809D02*
X116445847Y-66457143D01*
X116864895Y-66342857D02*
X116864895Y-66723809D01*
X116864895Y-66723809D02*
X116064895Y-66723809D01*
X116064895Y-66723809D02*
X116064895Y-66342857D01*
X116864895Y-65542856D02*
X116483942Y-65809523D01*
X116864895Y-65999999D02*
X116064895Y-65999999D01*
X116064895Y-65999999D02*
X116064895Y-65695237D01*
X116064895Y-65695237D02*
X116102990Y-65619047D01*
X116102990Y-65619047D02*
X116141085Y-65580952D01*
X116141085Y-65580952D02*
X116217276Y-65542856D01*
X116217276Y-65542856D02*
X116331561Y-65542856D01*
X116331561Y-65542856D02*
X116407752Y-65580952D01*
X116407752Y-65580952D02*
X116445847Y-65619047D01*
X116445847Y-65619047D02*
X116483942Y-65695237D01*
X116483942Y-65695237D02*
X116483942Y-65999999D01*
X116864895Y-65199999D02*
X116064895Y-65199999D01*
X116445847Y-64819047D02*
X116445847Y-64552381D01*
X116864895Y-64438095D02*
X116864895Y-64819047D01*
X116864895Y-64819047D02*
X116064895Y-64819047D01*
X116064895Y-64819047D02*
X116064895Y-64438095D01*
X116826800Y-64133333D02*
X116864895Y-64019047D01*
X116864895Y-64019047D02*
X116864895Y-63828571D01*
X116864895Y-63828571D02*
X116826800Y-63752380D01*
X116826800Y-63752380D02*
X116788704Y-63714285D01*
X116788704Y-63714285D02*
X116712514Y-63676190D01*
X116712514Y-63676190D02*
X116636323Y-63676190D01*
X116636323Y-63676190D02*
X116560133Y-63714285D01*
X116560133Y-63714285D02*
X116522038Y-63752380D01*
X116522038Y-63752380D02*
X116483942Y-63828571D01*
X116483942Y-63828571D02*
X116445847Y-63980952D01*
X116445847Y-63980952D02*
X116407752Y-64057142D01*
X116407752Y-64057142D02*
X116369657Y-64095237D01*
X116369657Y-64095237D02*
X116293466Y-64133333D01*
X116293466Y-64133333D02*
X116217276Y-64133333D01*
X116217276Y-64133333D02*
X116141085Y-64095237D01*
X116141085Y-64095237D02*
X116102990Y-64057142D01*
X116102990Y-64057142D02*
X116064895Y-63980952D01*
X116064895Y-63980952D02*
X116064895Y-63790475D01*
X116064895Y-63790475D02*
X116102990Y-63676190D01*
X96494895Y-102859523D02*
X97142514Y-102859523D01*
X97142514Y-102859523D02*
X97218704Y-102821428D01*
X97218704Y-102821428D02*
X97256800Y-102783333D01*
X97256800Y-102783333D02*
X97294895Y-102707142D01*
X97294895Y-102707142D02*
X97294895Y-102554761D01*
X97294895Y-102554761D02*
X97256800Y-102478571D01*
X97256800Y-102478571D02*
X97218704Y-102440476D01*
X97218704Y-102440476D02*
X97142514Y-102402380D01*
X97142514Y-102402380D02*
X96494895Y-102402380D01*
X96571085Y-102059524D02*
X96532990Y-102021428D01*
X96532990Y-102021428D02*
X96494895Y-101945238D01*
X96494895Y-101945238D02*
X96494895Y-101754762D01*
X96494895Y-101754762D02*
X96532990Y-101678571D01*
X96532990Y-101678571D02*
X96571085Y-101640476D01*
X96571085Y-101640476D02*
X96647276Y-101602381D01*
X96647276Y-101602381D02*
X96723466Y-101602381D01*
X96723466Y-101602381D02*
X96837752Y-101640476D01*
X96837752Y-101640476D02*
X97294895Y-102097619D01*
X97294895Y-102097619D02*
X97294895Y-101602381D01*
X114133334Y-72614895D02*
X113866667Y-72233942D01*
X113676191Y-72614895D02*
X113676191Y-71814895D01*
X113676191Y-71814895D02*
X113980953Y-71814895D01*
X113980953Y-71814895D02*
X114057143Y-71852990D01*
X114057143Y-71852990D02*
X114095238Y-71891085D01*
X114095238Y-71891085D02*
X114133334Y-71967276D01*
X114133334Y-71967276D02*
X114133334Y-72081561D01*
X114133334Y-72081561D02*
X114095238Y-72157752D01*
X114095238Y-72157752D02*
X114057143Y-72195847D01*
X114057143Y-72195847D02*
X113980953Y-72233942D01*
X113980953Y-72233942D02*
X113676191Y-72233942D01*
X114438095Y-72386323D02*
X114819048Y-72386323D01*
X114361905Y-72614895D02*
X114628572Y-71814895D01*
X114628572Y-71814895D02*
X114895238Y-72614895D01*
X115161905Y-71814895D02*
X115161905Y-72462514D01*
X115161905Y-72462514D02*
X115200000Y-72538704D01*
X115200000Y-72538704D02*
X115238095Y-72576800D01*
X115238095Y-72576800D02*
X115314286Y-72614895D01*
X115314286Y-72614895D02*
X115466667Y-72614895D01*
X115466667Y-72614895D02*
X115542857Y-72576800D01*
X115542857Y-72576800D02*
X115580952Y-72538704D01*
X115580952Y-72538704D02*
X115619048Y-72462514D01*
X115619048Y-72462514D02*
X115619048Y-71814895D01*
X116000000Y-72614895D02*
X116000000Y-71814895D01*
X116000000Y-71814895D02*
X116190476Y-71814895D01*
X116190476Y-71814895D02*
X116304762Y-71852990D01*
X116304762Y-71852990D02*
X116380952Y-71929180D01*
X116380952Y-71929180D02*
X116419047Y-72005371D01*
X116419047Y-72005371D02*
X116457143Y-72157752D01*
X116457143Y-72157752D02*
X116457143Y-72272038D01*
X116457143Y-72272038D02*
X116419047Y-72424419D01*
X116419047Y-72424419D02*
X116380952Y-72500609D01*
X116380952Y-72500609D02*
X116304762Y-72576800D01*
X116304762Y-72576800D02*
X116190476Y-72614895D01*
X116190476Y-72614895D02*
X116000000Y-72614895D01*
X116800000Y-72614895D02*
X116800000Y-71814895D01*
X117333333Y-71814895D02*
X117485714Y-71814895D01*
X117485714Y-71814895D02*
X117561904Y-71852990D01*
X117561904Y-71852990D02*
X117638095Y-71929180D01*
X117638095Y-71929180D02*
X117676190Y-72081561D01*
X117676190Y-72081561D02*
X117676190Y-72348228D01*
X117676190Y-72348228D02*
X117638095Y-72500609D01*
X117638095Y-72500609D02*
X117561904Y-72576800D01*
X117561904Y-72576800D02*
X117485714Y-72614895D01*
X117485714Y-72614895D02*
X117333333Y-72614895D01*
X117333333Y-72614895D02*
X117257142Y-72576800D01*
X117257142Y-72576800D02*
X117180952Y-72500609D01*
X117180952Y-72500609D02*
X117142856Y-72348228D01*
X117142856Y-72348228D02*
X117142856Y-72081561D01*
X117142856Y-72081561D02*
X117180952Y-71929180D01*
X117180952Y-71929180D02*
X117257142Y-71852990D01*
X117257142Y-71852990D02*
X117333333Y-71814895D01*
X117980951Y-72386323D02*
X118361904Y-72386323D01*
X117904761Y-72614895D02*
X118171428Y-71814895D01*
X118171428Y-71814895D02*
X118438094Y-72614895D01*
X125194895Y-84859523D02*
X125842514Y-84859523D01*
X125842514Y-84859523D02*
X125918704Y-84821428D01*
X125918704Y-84821428D02*
X125956800Y-84783333D01*
X125956800Y-84783333D02*
X125994895Y-84707142D01*
X125994895Y-84707142D02*
X125994895Y-84554761D01*
X125994895Y-84554761D02*
X125956800Y-84478571D01*
X125956800Y-84478571D02*
X125918704Y-84440476D01*
X125918704Y-84440476D02*
X125842514Y-84402380D01*
X125842514Y-84402380D02*
X125194895Y-84402380D01*
X125461561Y-83678571D02*
X125994895Y-83678571D01*
X125156800Y-83869047D02*
X125728228Y-84059524D01*
X125728228Y-84059524D02*
X125728228Y-83564285D01*
X84057142Y-94614895D02*
X83790475Y-94233942D01*
X83599999Y-94614895D02*
X83599999Y-93814895D01*
X83599999Y-93814895D02*
X83904761Y-93814895D01*
X83904761Y-93814895D02*
X83980951Y-93852990D01*
X83980951Y-93852990D02*
X84019046Y-93891085D01*
X84019046Y-93891085D02*
X84057142Y-93967276D01*
X84057142Y-93967276D02*
X84057142Y-94081561D01*
X84057142Y-94081561D02*
X84019046Y-94157752D01*
X84019046Y-94157752D02*
X83980951Y-94195847D01*
X83980951Y-94195847D02*
X83904761Y-94233942D01*
X83904761Y-94233942D02*
X83599999Y-94233942D01*
X84857142Y-94614895D02*
X84590475Y-94233942D01*
X84399999Y-94614895D02*
X84399999Y-93814895D01*
X84399999Y-93814895D02*
X84704761Y-93814895D01*
X84704761Y-93814895D02*
X84780951Y-93852990D01*
X84780951Y-93852990D02*
X84819046Y-93891085D01*
X84819046Y-93891085D02*
X84857142Y-93967276D01*
X84857142Y-93967276D02*
X84857142Y-94081561D01*
X84857142Y-94081561D02*
X84819046Y-94157752D01*
X84819046Y-94157752D02*
X84780951Y-94195847D01*
X84780951Y-94195847D02*
X84704761Y-94233942D01*
X84704761Y-94233942D02*
X84399999Y-94233942D01*
X85199999Y-94195847D02*
X85466665Y-94195847D01*
X85580951Y-94614895D02*
X85199999Y-94614895D01*
X85199999Y-94614895D02*
X85199999Y-93814895D01*
X85199999Y-93814895D02*
X85580951Y-93814895D01*
X85885713Y-94576800D02*
X85999999Y-94614895D01*
X85999999Y-94614895D02*
X86190475Y-94614895D01*
X86190475Y-94614895D02*
X86266666Y-94576800D01*
X86266666Y-94576800D02*
X86304761Y-94538704D01*
X86304761Y-94538704D02*
X86342856Y-94462514D01*
X86342856Y-94462514D02*
X86342856Y-94386323D01*
X86342856Y-94386323D02*
X86304761Y-94310133D01*
X86304761Y-94310133D02*
X86266666Y-94272038D01*
X86266666Y-94272038D02*
X86190475Y-94233942D01*
X86190475Y-94233942D02*
X86038094Y-94195847D01*
X86038094Y-94195847D02*
X85961904Y-94157752D01*
X85961904Y-94157752D02*
X85923809Y-94119657D01*
X85923809Y-94119657D02*
X85885713Y-94043466D01*
X85885713Y-94043466D02*
X85885713Y-93967276D01*
X85885713Y-93967276D02*
X85923809Y-93891085D01*
X85923809Y-93891085D02*
X85961904Y-93852990D01*
X85961904Y-93852990D02*
X86038094Y-93814895D01*
X86038094Y-93814895D02*
X86228571Y-93814895D01*
X86228571Y-93814895D02*
X86342856Y-93852990D01*
X86685714Y-94195847D02*
X86952380Y-94195847D01*
X87066666Y-94614895D02*
X86685714Y-94614895D01*
X86685714Y-94614895D02*
X86685714Y-93814895D01*
X86685714Y-93814895D02*
X87066666Y-93814895D01*
X87295238Y-93814895D02*
X87752381Y-93814895D01*
X87523809Y-94614895D02*
X87523809Y-93814895D01*
X88438095Y-94614895D02*
X87980952Y-94614895D01*
X88209524Y-94614895D02*
X88209524Y-93814895D01*
X88209524Y-93814895D02*
X88133333Y-93929180D01*
X88133333Y-93929180D02*
X88057143Y-94005371D01*
X88057143Y-94005371D02*
X87980952Y-94043466D01*
X121788704Y-66133332D02*
X121826800Y-66171428D01*
X121826800Y-66171428D02*
X121864895Y-66285713D01*
X121864895Y-66285713D02*
X121864895Y-66361904D01*
X121864895Y-66361904D02*
X121826800Y-66476190D01*
X121826800Y-66476190D02*
X121750609Y-66552380D01*
X121750609Y-66552380D02*
X121674419Y-66590475D01*
X121674419Y-66590475D02*
X121522038Y-66628571D01*
X121522038Y-66628571D02*
X121407752Y-66628571D01*
X121407752Y-66628571D02*
X121255371Y-66590475D01*
X121255371Y-66590475D02*
X121179180Y-66552380D01*
X121179180Y-66552380D02*
X121102990Y-66476190D01*
X121102990Y-66476190D02*
X121064895Y-66361904D01*
X121064895Y-66361904D02*
X121064895Y-66285713D01*
X121064895Y-66285713D02*
X121102990Y-66171428D01*
X121102990Y-66171428D02*
X121141085Y-66133332D01*
X121064895Y-65409523D02*
X121064895Y-65790475D01*
X121064895Y-65790475D02*
X121445847Y-65828571D01*
X121445847Y-65828571D02*
X121407752Y-65790475D01*
X121407752Y-65790475D02*
X121369657Y-65714285D01*
X121369657Y-65714285D02*
X121369657Y-65523809D01*
X121369657Y-65523809D02*
X121407752Y-65447618D01*
X121407752Y-65447618D02*
X121445847Y-65409523D01*
X121445847Y-65409523D02*
X121522038Y-65371428D01*
X121522038Y-65371428D02*
X121712514Y-65371428D01*
X121712514Y-65371428D02*
X121788704Y-65409523D01*
X121788704Y-65409523D02*
X121826800Y-65447618D01*
X121826800Y-65447618D02*
X121864895Y-65523809D01*
X121864895Y-65523809D02*
X121864895Y-65714285D01*
X121864895Y-65714285D02*
X121826800Y-65790475D01*
X121826800Y-65790475D02*
X121788704Y-65828571D01*
X126864895Y-67219046D02*
X126483942Y-67485713D01*
X126864895Y-67676189D02*
X126064895Y-67676189D01*
X126064895Y-67676189D02*
X126064895Y-67371427D01*
X126064895Y-67371427D02*
X126102990Y-67295237D01*
X126102990Y-67295237D02*
X126141085Y-67257142D01*
X126141085Y-67257142D02*
X126217276Y-67219046D01*
X126217276Y-67219046D02*
X126331561Y-67219046D01*
X126331561Y-67219046D02*
X126407752Y-67257142D01*
X126407752Y-67257142D02*
X126445847Y-67295237D01*
X126445847Y-67295237D02*
X126483942Y-67371427D01*
X126483942Y-67371427D02*
X126483942Y-67676189D01*
X126864895Y-66876189D02*
X126064895Y-66876189D01*
X126064895Y-66876189D02*
X126064895Y-66571427D01*
X126064895Y-66571427D02*
X126102990Y-66495237D01*
X126102990Y-66495237D02*
X126141085Y-66457142D01*
X126141085Y-66457142D02*
X126217276Y-66419046D01*
X126217276Y-66419046D02*
X126331561Y-66419046D01*
X126331561Y-66419046D02*
X126407752Y-66457142D01*
X126407752Y-66457142D02*
X126445847Y-66495237D01*
X126445847Y-66495237D02*
X126483942Y-66571427D01*
X126483942Y-66571427D02*
X126483942Y-66876189D01*
X126064895Y-66076189D02*
X126712514Y-66076189D01*
X126712514Y-66076189D02*
X126788704Y-66038094D01*
X126788704Y-66038094D02*
X126826800Y-65999999D01*
X126826800Y-65999999D02*
X126864895Y-65923808D01*
X126864895Y-65923808D02*
X126864895Y-65771427D01*
X126864895Y-65771427D02*
X126826800Y-65695237D01*
X126826800Y-65695237D02*
X126788704Y-65657142D01*
X126788704Y-65657142D02*
X126712514Y-65619046D01*
X126712514Y-65619046D02*
X126064895Y-65619046D01*
X126864895Y-64857142D02*
X126864895Y-65238094D01*
X126864895Y-65238094D02*
X126064895Y-65238094D01*
X126864895Y-64209523D02*
X126864895Y-64590475D01*
X126864895Y-64590475D02*
X126064895Y-64590475D01*
X118076191Y-94614895D02*
X117809524Y-94233942D01*
X117619048Y-94614895D02*
X117619048Y-93814895D01*
X117619048Y-93814895D02*
X117923810Y-93814895D01*
X117923810Y-93814895D02*
X118000000Y-93852990D01*
X118000000Y-93852990D02*
X118038095Y-93891085D01*
X118038095Y-93891085D02*
X118076191Y-93967276D01*
X118076191Y-93967276D02*
X118076191Y-94081561D01*
X118076191Y-94081561D02*
X118038095Y-94157752D01*
X118038095Y-94157752D02*
X118000000Y-94195847D01*
X118000000Y-94195847D02*
X117923810Y-94233942D01*
X117923810Y-94233942D02*
X117619048Y-94233942D01*
X118380952Y-94386323D02*
X118761905Y-94386323D01*
X118304762Y-94614895D02*
X118571429Y-93814895D01*
X118571429Y-93814895D02*
X118838095Y-94614895D01*
X119104762Y-93814895D02*
X119104762Y-94462514D01*
X119104762Y-94462514D02*
X119142857Y-94538704D01*
X119142857Y-94538704D02*
X119180952Y-94576800D01*
X119180952Y-94576800D02*
X119257143Y-94614895D01*
X119257143Y-94614895D02*
X119409524Y-94614895D01*
X119409524Y-94614895D02*
X119485714Y-94576800D01*
X119485714Y-94576800D02*
X119523809Y-94538704D01*
X119523809Y-94538704D02*
X119561905Y-94462514D01*
X119561905Y-94462514D02*
X119561905Y-93814895D01*
X119942857Y-94614895D02*
X119942857Y-93814895D01*
X119942857Y-93814895D02*
X120133333Y-93814895D01*
X120133333Y-93814895D02*
X120247619Y-93852990D01*
X120247619Y-93852990D02*
X120323809Y-93929180D01*
X120323809Y-93929180D02*
X120361904Y-94005371D01*
X120361904Y-94005371D02*
X120400000Y-94157752D01*
X120400000Y-94157752D02*
X120400000Y-94272038D01*
X120400000Y-94272038D02*
X120361904Y-94424419D01*
X120361904Y-94424419D02*
X120323809Y-94500609D01*
X120323809Y-94500609D02*
X120247619Y-94576800D01*
X120247619Y-94576800D02*
X120133333Y-94614895D01*
X120133333Y-94614895D02*
X119942857Y-94614895D01*
X120742857Y-94614895D02*
X120742857Y-93814895D01*
X121276190Y-93814895D02*
X121428571Y-93814895D01*
X121428571Y-93814895D02*
X121504761Y-93852990D01*
X121504761Y-93852990D02*
X121580952Y-93929180D01*
X121580952Y-93929180D02*
X121619047Y-94081561D01*
X121619047Y-94081561D02*
X121619047Y-94348228D01*
X121619047Y-94348228D02*
X121580952Y-94500609D01*
X121580952Y-94500609D02*
X121504761Y-94576800D01*
X121504761Y-94576800D02*
X121428571Y-94614895D01*
X121428571Y-94614895D02*
X121276190Y-94614895D01*
X121276190Y-94614895D02*
X121199999Y-94576800D01*
X121199999Y-94576800D02*
X121123809Y-94500609D01*
X121123809Y-94500609D02*
X121085713Y-94348228D01*
X121085713Y-94348228D02*
X121085713Y-94081561D01*
X121085713Y-94081561D02*
X121123809Y-93929180D01*
X121123809Y-93929180D02*
X121199999Y-93852990D01*
X121199999Y-93852990D02*
X121276190Y-93814895D01*
X122419047Y-94538704D02*
X122380951Y-94576800D01*
X122380951Y-94576800D02*
X122266666Y-94614895D01*
X122266666Y-94614895D02*
X122190475Y-94614895D01*
X122190475Y-94614895D02*
X122076189Y-94576800D01*
X122076189Y-94576800D02*
X121999999Y-94500609D01*
X121999999Y-94500609D02*
X121961904Y-94424419D01*
X121961904Y-94424419D02*
X121923808Y-94272038D01*
X121923808Y-94272038D02*
X121923808Y-94157752D01*
X121923808Y-94157752D02*
X121961904Y-94005371D01*
X121961904Y-94005371D02*
X121999999Y-93929180D01*
X121999999Y-93929180D02*
X122076189Y-93852990D01*
X122076189Y-93852990D02*
X122190475Y-93814895D01*
X122190475Y-93814895D02*
X122266666Y-93814895D01*
X122266666Y-93814895D02*
X122380951Y-93852990D01*
X122380951Y-93852990D02*
X122419047Y-93891085D01*
X96864895Y-66495237D02*
X96483942Y-66761904D01*
X96864895Y-66952380D02*
X96064895Y-66952380D01*
X96064895Y-66952380D02*
X96064895Y-66647618D01*
X96064895Y-66647618D02*
X96102990Y-66571428D01*
X96102990Y-66571428D02*
X96141085Y-66533333D01*
X96141085Y-66533333D02*
X96217276Y-66495237D01*
X96217276Y-66495237D02*
X96331561Y-66495237D01*
X96331561Y-66495237D02*
X96407752Y-66533333D01*
X96407752Y-66533333D02*
X96445847Y-66571428D01*
X96445847Y-66571428D02*
X96483942Y-66647618D01*
X96483942Y-66647618D02*
X96483942Y-66952380D01*
X96445847Y-65885714D02*
X96445847Y-66152380D01*
X96864895Y-66152380D02*
X96064895Y-66152380D01*
X96064895Y-66152380D02*
X96064895Y-65771428D01*
X96445847Y-65200000D02*
X96483942Y-65085714D01*
X96483942Y-65085714D02*
X96522038Y-65047619D01*
X96522038Y-65047619D02*
X96598228Y-65009523D01*
X96598228Y-65009523D02*
X96712514Y-65009523D01*
X96712514Y-65009523D02*
X96788704Y-65047619D01*
X96788704Y-65047619D02*
X96826800Y-65085714D01*
X96826800Y-65085714D02*
X96864895Y-65161904D01*
X96864895Y-65161904D02*
X96864895Y-65466666D01*
X96864895Y-65466666D02*
X96064895Y-65466666D01*
X96064895Y-65466666D02*
X96064895Y-65200000D01*
X96064895Y-65200000D02*
X96102990Y-65123809D01*
X96102990Y-65123809D02*
X96141085Y-65085714D01*
X96141085Y-65085714D02*
X96217276Y-65047619D01*
X96217276Y-65047619D02*
X96293466Y-65047619D01*
X96293466Y-65047619D02*
X96369657Y-65085714D01*
X96369657Y-65085714D02*
X96407752Y-65123809D01*
X96407752Y-65123809D02*
X96445847Y-65200000D01*
X96445847Y-65200000D02*
X96445847Y-65466666D01*
X77228571Y-141854895D02*
X76771428Y-141854895D01*
X77000000Y-141854895D02*
X77000000Y-141054895D01*
X77000000Y-141054895D02*
X76923809Y-141169180D01*
X76923809Y-141169180D02*
X76847619Y-141245371D01*
X76847619Y-141245371D02*
X76771428Y-141283466D01*
X122847618Y-141854895D02*
X122390475Y-141854895D01*
X122619047Y-141854895D02*
X122619047Y-141054895D01*
X122619047Y-141054895D02*
X122542856Y-141169180D01*
X122542856Y-141169180D02*
X122466666Y-141245371D01*
X122466666Y-141245371D02*
X122390475Y-141283466D01*
X123533333Y-141054895D02*
X123380952Y-141054895D01*
X123380952Y-141054895D02*
X123304761Y-141092990D01*
X123304761Y-141092990D02*
X123266666Y-141131085D01*
X123266666Y-141131085D02*
X123190476Y-141245371D01*
X123190476Y-141245371D02*
X123152380Y-141397752D01*
X123152380Y-141397752D02*
X123152380Y-141702514D01*
X123152380Y-141702514D02*
X123190476Y-141778704D01*
X123190476Y-141778704D02*
X123228571Y-141816800D01*
X123228571Y-141816800D02*
X123304761Y-141854895D01*
X123304761Y-141854895D02*
X123457142Y-141854895D01*
X123457142Y-141854895D02*
X123533333Y-141816800D01*
X123533333Y-141816800D02*
X123571428Y-141778704D01*
X123571428Y-141778704D02*
X123609523Y-141702514D01*
X123609523Y-141702514D02*
X123609523Y-141512038D01*
X123609523Y-141512038D02*
X123571428Y-141435847D01*
X123571428Y-141435847D02*
X123533333Y-141397752D01*
X123533333Y-141397752D02*
X123457142Y-141359657D01*
X123457142Y-141359657D02*
X123304761Y-141359657D01*
X123304761Y-141359657D02*
X123228571Y-141397752D01*
X123228571Y-141397752D02*
X123190476Y-141435847D01*
X123190476Y-141435847D02*
X123152380Y-141512038D01*
D12*
X118209930Y-124489681D02*
X118590882Y-124489681D01*
X118590882Y-124489681D02*
X118667073Y-124515077D01*
X118667073Y-124515077D02*
X118717867Y-124565871D01*
X118717867Y-124565871D02*
X118743263Y-124642061D01*
X118743263Y-124642061D02*
X118743263Y-124692855D01*
X118743263Y-124235712D02*
X118209930Y-124235712D01*
X118209930Y-124235712D02*
X118209930Y-124032538D01*
X118209930Y-124032538D02*
X118235327Y-123981744D01*
X118235327Y-123981744D02*
X118260724Y-123956348D01*
X118260724Y-123956348D02*
X118311518Y-123930951D01*
X118311518Y-123930951D02*
X118387708Y-123930951D01*
X118387708Y-123930951D02*
X118438502Y-123956348D01*
X118438502Y-123956348D02*
X118463898Y-123981744D01*
X118463898Y-123981744D02*
X118489295Y-124032538D01*
X118489295Y-124032538D02*
X118489295Y-124235712D01*
X118260724Y-123727776D02*
X118235327Y-123702379D01*
X118235327Y-123702379D02*
X118209930Y-123651586D01*
X118209930Y-123651586D02*
X118209930Y-123524602D01*
X118209930Y-123524602D02*
X118235327Y-123473808D01*
X118235327Y-123473808D02*
X118260724Y-123448411D01*
X118260724Y-123448411D02*
X118311518Y-123423015D01*
X118311518Y-123423015D02*
X118362311Y-123423015D01*
X118362311Y-123423015D02*
X118438502Y-123448411D01*
X118438502Y-123448411D02*
X118743263Y-123753173D01*
X118743263Y-123753173D02*
X118743263Y-123423015D01*
X118946438Y-122635714D02*
X118921041Y-122661110D01*
X118921041Y-122661110D02*
X118844851Y-122711904D01*
X118844851Y-122711904D02*
X118794057Y-122737301D01*
X118794057Y-122737301D02*
X118717867Y-122762698D01*
X118717867Y-122762698D02*
X118590882Y-122788094D01*
X118590882Y-122788094D02*
X118489295Y-122788094D01*
X118489295Y-122788094D02*
X118362311Y-122762698D01*
X118362311Y-122762698D02*
X118286121Y-122737301D01*
X118286121Y-122737301D02*
X118235327Y-122711904D01*
X118235327Y-122711904D02*
X118159137Y-122661110D01*
X118159137Y-122661110D02*
X118133740Y-122635714D01*
X118590882Y-122457936D02*
X118590882Y-122203968D01*
X118743263Y-122508730D02*
X118209930Y-122330952D01*
X118209930Y-122330952D02*
X118743263Y-122153175D01*
X118743263Y-121696032D02*
X118743263Y-122000793D01*
X118743263Y-121848412D02*
X118209930Y-121848412D01*
X118209930Y-121848412D02*
X118286121Y-121899206D01*
X118286121Y-121899206D02*
X118336914Y-121950000D01*
X118336914Y-121950000D02*
X118362311Y-122000793D01*
X118387708Y-121238889D02*
X118743263Y-121238889D01*
X118184534Y-121365873D02*
X118565486Y-121492857D01*
X118565486Y-121492857D02*
X118565486Y-121162699D01*
X118946438Y-121010318D02*
X118921041Y-120984921D01*
X118921041Y-120984921D02*
X118844851Y-120934128D01*
X118844851Y-120934128D02*
X118794057Y-120908731D01*
X118794057Y-120908731D02*
X118717867Y-120883334D01*
X118717867Y-120883334D02*
X118590882Y-120857937D01*
X118590882Y-120857937D02*
X118489295Y-120857937D01*
X118489295Y-120857937D02*
X118362311Y-120883334D01*
X118362311Y-120883334D02*
X118286121Y-120908731D01*
X118286121Y-120908731D02*
X118235327Y-120934128D01*
X118235327Y-120934128D02*
X118159137Y-120984921D01*
X118159137Y-120984921D02*
X118133740Y-121010318D01*
D13*
X121568161Y-122026189D02*
X121568161Y-121835713D01*
X121682447Y-122064284D02*
X121282447Y-121930951D01*
X121282447Y-121930951D02*
X121682447Y-121797618D01*
X121682447Y-121454761D02*
X121682447Y-121683332D01*
X121682447Y-121569046D02*
X121282447Y-121569046D01*
X121282447Y-121569046D02*
X121339590Y-121607142D01*
X121339590Y-121607142D02*
X121377685Y-121645237D01*
X121377685Y-121645237D02*
X121396733Y-121683332D01*
X121415780Y-121111904D02*
X121682447Y-121111904D01*
X121263400Y-121207142D02*
X121549114Y-121302380D01*
X121549114Y-121302380D02*
X121549114Y-121054761D01*
X121282447Y-124483332D02*
X121682447Y-124349999D01*
X121682447Y-124349999D02*
X121282447Y-124216666D01*
X121644352Y-123854761D02*
X121663400Y-123873809D01*
X121663400Y-123873809D02*
X121682447Y-123930951D01*
X121682447Y-123930951D02*
X121682447Y-123969047D01*
X121682447Y-123969047D02*
X121663400Y-124026190D01*
X121663400Y-124026190D02*
X121625304Y-124064285D01*
X121625304Y-124064285D02*
X121587209Y-124083332D01*
X121587209Y-124083332D02*
X121511019Y-124102380D01*
X121511019Y-124102380D02*
X121453876Y-124102380D01*
X121453876Y-124102380D02*
X121377685Y-124083332D01*
X121377685Y-124083332D02*
X121339590Y-124064285D01*
X121339590Y-124064285D02*
X121301495Y-124026190D01*
X121301495Y-124026190D02*
X121282447Y-123969047D01*
X121282447Y-123969047D02*
X121282447Y-123930951D01*
X121282447Y-123930951D02*
X121301495Y-123873809D01*
X121301495Y-123873809D02*
X121320542Y-123854761D01*
X121644352Y-123454761D02*
X121663400Y-123473809D01*
X121663400Y-123473809D02*
X121682447Y-123530951D01*
X121682447Y-123530951D02*
X121682447Y-123569047D01*
X121682447Y-123569047D02*
X121663400Y-123626190D01*
X121663400Y-123626190D02*
X121625304Y-123664285D01*
X121625304Y-123664285D02*
X121587209Y-123683332D01*
X121587209Y-123683332D02*
X121511019Y-123702380D01*
X121511019Y-123702380D02*
X121453876Y-123702380D01*
X121453876Y-123702380D02*
X121377685Y-123683332D01*
X121377685Y-123683332D02*
X121339590Y-123664285D01*
X121339590Y-123664285D02*
X121301495Y-123626190D01*
X121301495Y-123626190D02*
X121282447Y-123569047D01*
X121282447Y-123569047D02*
X121282447Y-123530951D01*
X121282447Y-123530951D02*
X121301495Y-123473809D01*
X121301495Y-123473809D02*
X121320542Y-123454761D01*
%TO.C,U5*%
D10*
X103190000Y-63490000D02*
X112810000Y-63490000D01*
X103190000Y-68510000D02*
X103190000Y-63490000D01*
X111973333Y-66000000D02*
X112037021Y-66320178D01*
X112037021Y-65679822D02*
X111973333Y-66000000D01*
X112037021Y-66320178D02*
X112218387Y-66591613D01*
X112218387Y-65408387D02*
X112037021Y-65679822D01*
X112218387Y-66591613D02*
X112489822Y-66772979D01*
X112489822Y-65227021D02*
X112218387Y-65408387D01*
X112489822Y-66772979D02*
X112810000Y-66836667D01*
X112810000Y-63490000D02*
X112810000Y-65163333D01*
X112810000Y-65163333D02*
X112489822Y-65227021D01*
X112810000Y-66836667D02*
X112810000Y-68510000D01*
X112810000Y-68510000D02*
X103190000Y-68510000D01*
%TO.C,RAUDIOB*%
X122480000Y-73750000D02*
X121520000Y-73750000D01*
%TO.C,U3*%
X101570000Y-99740000D02*
X126430000Y-99740000D01*
X101570000Y-104760000D02*
X101570000Y-99740000D01*
X125593333Y-102250000D02*
X125657021Y-102570178D01*
X125657021Y-101929822D02*
X125593333Y-102250000D01*
X125657021Y-102570178D02*
X125838387Y-102841613D01*
X125838387Y-101658387D02*
X125657021Y-101929822D01*
X125838387Y-102841613D02*
X126109822Y-103022979D01*
X126109822Y-101477021D02*
X125838387Y-101658387D01*
X126109822Y-103022979D02*
X126430000Y-103086667D01*
X126430000Y-99740000D02*
X126430000Y-101413333D01*
X126430000Y-101413333D02*
X126109822Y-101477021D01*
X126430000Y-103086667D02*
X126430000Y-104760000D01*
X126430000Y-104760000D02*
X101570000Y-104760000D01*
%TO.C,CRESET1*%
X80480000Y-95750000D02*
X79520000Y-95750000D01*
%TO.C,U1*%
X82490000Y-111930000D02*
X117510000Y-111930000D01*
X82490000Y-124570000D02*
X82490000Y-111930000D01*
X115403333Y-118250000D02*
X115563694Y-119056186D01*
X115563694Y-117443814D02*
X115403333Y-118250000D01*
X115563694Y-119056186D02*
X116020362Y-119739638D01*
X116020362Y-116760362D02*
X115563694Y-117443814D01*
X116020362Y-119739638D02*
X116703814Y-120196306D01*
X116703814Y-116303694D02*
X116020362Y-116760362D01*
X116703814Y-120196306D02*
X117510000Y-120356667D01*
X117510000Y-111930000D02*
X117510000Y-116143333D01*
X117510000Y-116143333D02*
X116703814Y-116303694D01*
X117510000Y-120356667D02*
X117510000Y-124570000D01*
X117510000Y-124570000D02*
X82490000Y-124570000D01*
%TO.C,RSERIES*%
X118000000Y-65520000D02*
X118000000Y-66480000D01*
%TO.C,U2*%
X71570000Y-99740000D02*
X96430000Y-99740000D01*
X71570000Y-104760000D02*
X71570000Y-99740000D01*
X95593333Y-102250000D02*
X95657021Y-102570178D01*
X95657021Y-101929822D02*
X95593333Y-102250000D01*
X95657021Y-102570178D02*
X95838387Y-102841613D01*
X95838387Y-101658387D02*
X95657021Y-101929822D01*
X95838387Y-102841613D02*
X96109822Y-103022979D01*
X96109822Y-101477021D02*
X95838387Y-101658387D01*
X96109822Y-103022979D02*
X96430000Y-103086667D01*
X96430000Y-99740000D02*
X96430000Y-101413333D01*
X96430000Y-101413333D02*
X96109822Y-101477021D01*
X96430000Y-103086667D02*
X96430000Y-104760000D01*
X96430000Y-104760000D02*
X71570000Y-104760000D01*
%TO.C,RAUDIOA*%
X116480000Y-73750000D02*
X115520000Y-73750000D01*
%TO.C,U4*%
X74870000Y-77930000D02*
X125130000Y-77930000D01*
X74870000Y-90570000D02*
X74870000Y-77930000D01*
X123023333Y-84250000D02*
X123183694Y-85056186D01*
X123183694Y-83443814D02*
X123023333Y-84250000D01*
X123183694Y-85056186D02*
X123640362Y-85739638D01*
X123640362Y-82760362D02*
X123183694Y-83443814D01*
X123640362Y-85739638D02*
X124323814Y-86196306D01*
X124323814Y-82303694D02*
X123640362Y-82760362D01*
X124323814Y-86196306D02*
X125130000Y-86356667D01*
X125130000Y-77930000D02*
X125130000Y-82143333D01*
X125130000Y-82143333D02*
X124323814Y-82303694D01*
X125130000Y-86356667D02*
X125130000Y-90570000D01*
X125130000Y-90570000D02*
X74870000Y-90570000D01*
%TO.C,RRESET1*%
X86480000Y-95750000D02*
X85520000Y-95750000D01*
%TO.C,C5*%
X123000000Y-65520000D02*
X123000000Y-66480000D01*
%TO.C,RPULL*%
X128000000Y-65520000D02*
X128000000Y-66480000D01*
%TO.C,RAUDIOC*%
X120480000Y-95750000D02*
X119520000Y-95750000D01*
%TO.C,RFB*%
X98000000Y-65520000D02*
X98000000Y-66480000D01*
%TD*%
M02*
