%TF.GenerationSoftware,KiCad,Pcbnew,10.0.4*%
%TF.CreationDate,2026-06-28T17:54:53-04:00*%
%TF.ProjectId,index,696e6465-782e-46b6-9963-61645f706362,Rev1*%
%TF.SameCoordinates,Original*%
%TF.FileFunction,Other,User*%
%FSLAX46Y46*%
G04 Gerber Fmt 4.6, Leading zero omitted, Abs format (unit mm)*
G04 Created by KiCad (PCBNEW 10.0.4) date 2026-06-28 17:54:53*
%MOMM*%
%LPD*%
G01*
G04 APERTURE LIST*
%ADD10C,0.050000*%
G04 APERTURE END LIST*
D10*
%TO.C,C_RESET*%
X109680000Y-86450000D02*
X114230000Y-86450000D01*
X114230000Y-88550000D01*
X109680000Y-88550000D01*
X109680000Y-86450000D01*
%TO.C,C_AMP*%
X86950000Y-102320000D02*
X86950000Y-97770000D01*
X89050000Y-97770000D01*
X89050000Y-102320000D01*
X86950000Y-102320000D01*
%TO.C,R_YM_AUDIOC*%
X85680000Y-86450000D02*
X90230000Y-86450000D01*
X90230000Y-88550000D01*
X85680000Y-88550000D01*
X85680000Y-86450000D01*
%TO.C,C_AUDIO_OUT*%
X114950000Y-102320000D02*
X114950000Y-97770000D01*
X117050000Y-97770000D01*
X117050000Y-102320000D01*
X114950000Y-102320000D01*
%TO.C,U_YM*%
X123650000Y-67330000D02*
X123650000Y-84670000D01*
X72350000Y-84670000D01*
X72350000Y-67330000D01*
X123650000Y-67330000D01*
%TO.C,C_YM*%
X126050000Y-73680000D02*
X126050000Y-78230000D01*
X123950000Y-78230000D01*
X123950000Y-73680000D01*
X126050000Y-73680000D01*
%TO.C,R_PULL*%
X106950000Y-102320000D02*
X106950000Y-97770000D01*
X109050000Y-97770000D01*
X109050000Y-102320000D01*
X106950000Y-102320000D01*
%TO.C,R_SERIES*%
X110950000Y-102320000D02*
X110950000Y-97770000D01*
X113050000Y-97770000D01*
X113050000Y-102320000D01*
X110950000Y-102320000D01*
%TO.C,R_RESET*%
X103680000Y-86450000D02*
X108230000Y-86450000D01*
X108230000Y-88550000D01*
X103680000Y-88550000D01*
X103680000Y-86450000D01*
%TO.C,U_AMP*%
X105330000Y-95140000D02*
X105330000Y-104860000D01*
X94670000Y-104860000D01*
X94670000Y-95140000D01*
X105330000Y-95140000D01*
%TO.C,U_ROM*%
X116030000Y-109580000D02*
X116030000Y-126920000D01*
X79970000Y-126920000D01*
X79970000Y-109580000D01*
X116030000Y-109580000D01*
%TO.C,C_ROM*%
X119050000Y-115930000D02*
X119050000Y-120480000D01*
X116950000Y-120480000D01*
X116950000Y-115930000D01*
X119050000Y-115930000D01*
%TO.C,R_FB*%
X90950000Y-102320000D02*
X90950000Y-97770000D01*
X93050000Y-97770000D01*
X93050000Y-102320000D01*
X90950000Y-102320000D01*
%TO.C,R_YM_AUDIOB*%
X79680000Y-86450000D02*
X84230000Y-86450000D01*
X84230000Y-88550000D01*
X79680000Y-88550000D01*
X79680000Y-86450000D01*
%TO.C,R_YM_AUDIOA*%
X91680000Y-86450000D02*
X96230000Y-86450000D01*
X96230000Y-88550000D01*
X91680000Y-88550000D01*
X91680000Y-86450000D01*
%TD*%
M02*
