M48
; DRILL file KiCad 10.0.3 date 2026-06-17T00:12:19
; FORMAT={-:-/ absolute / metric / decimal}
; #@! TF.CreationDate,2026-06-17T00:12:19-04:00
; #@! TF.GenerationSoftware,Kicad,Pcbnew,10.0.3
; #@! TF.FileFunction,MixedPlating,1,2
FMAT,2
METRIC
; #@! TA.AperFunction,Plated,PTH,ViaDrill
T1C0.300
; #@! TA.AperFunction,Plated,PTH,ComponentDrill
T2C0.300
; #@! TA.AperFunction,Plated,PTH,ComponentDrill
T3C0.700
; #@! TA.AperFunction,Plated,PTH,ComponentDrill
T4C0.800
%
G90
G05
T1
X93.957Y-132.178
X94.567Y-124.166
X96.686Y-112.465
X98.541Y-101.132
X98.595Y-132.178
X99.348Y-130.783
X99.49Y-96.695
X100.585Y-132.178
X103.314Y-132.178
X104.377Y-121.111
X108.052Y-132.178
X110.781Y-132.178
X113.501Y-131.929
X113.824Y-105.139
X113.943Y-112.852
X116.652Y-103.412
X118.335Y-132.178
X119.084Y-129.286
X121.956Y-111.894
X122.518Y-129.878
T2
X126.0Y-84.25
X129.0Y-113.0
T3
X78.73Y-95.75
X81.27Y-95.75
X84.73Y-95.75
X87.27Y-95.75
X98.0Y-64.73
X98.0Y-67.27
X114.73Y-73.75
X117.27Y-73.75
X118.0Y-64.73
X118.0Y-67.27
X118.73Y-95.75
X120.73Y-73.75
X121.27Y-95.75
X123.0Y-64.73
X123.0Y-67.27
X123.27Y-73.75
X128.0Y-64.73
X128.0Y-67.27
T4
X72.57Y-98.44
X72.57Y-106.06
X75.11Y-98.44
X75.11Y-106.06
X75.87Y-76.63
X75.87Y-91.87
X77.65Y-98.44
X77.65Y-106.06
X78.41Y-76.63
X78.41Y-91.87
X80.19Y-98.44
X80.19Y-106.06
X80.95Y-76.63
X80.95Y-91.87
X82.73Y-98.44
X82.73Y-106.06
X83.49Y-76.63
X83.49Y-91.87
X83.49Y-110.63
X83.49Y-125.87
X85.27Y-98.44
X85.27Y-106.06
X86.03Y-76.63
X86.03Y-91.87
X86.03Y-110.63
X86.03Y-125.87
X87.81Y-98.44
X87.81Y-106.06
X88.57Y-76.63
X88.57Y-91.87
X88.57Y-110.63
X88.57Y-125.87
X90.35Y-98.44
X90.35Y-106.06
X91.11Y-76.63
X91.11Y-91.87
X91.11Y-110.63
X91.11Y-125.87
X92.89Y-98.44
X92.89Y-106.06
X93.65Y-76.63
X93.65Y-91.87
X93.65Y-110.63
X93.65Y-125.87
X95.43Y-98.44
X95.43Y-106.06
X96.19Y-76.63
X96.19Y-91.87
X96.19Y-110.63
X96.19Y-125.87
X98.73Y-76.63
X98.73Y-91.87
X98.73Y-110.63
X98.73Y-125.87
X101.27Y-76.63
X101.27Y-91.87
X101.27Y-110.63
X101.27Y-125.87
X102.57Y-98.44
X102.57Y-106.06
X103.81Y-76.63
X103.81Y-91.87
X103.81Y-110.63
X103.81Y-125.87
X104.19Y-62.19
X104.19Y-69.81
X105.11Y-98.44
X105.11Y-106.06
X106.35Y-76.63
X106.35Y-91.87
X106.35Y-110.63
X106.35Y-125.87
X106.73Y-62.19
X106.73Y-69.81
X107.65Y-98.44
X107.65Y-106.06
X108.89Y-76.63
X108.89Y-91.87
X108.89Y-110.63
X108.89Y-125.87
X109.27Y-62.19
X109.27Y-69.81
X110.19Y-98.44
X110.19Y-106.06
X111.43Y-76.63
X111.43Y-91.87
X111.43Y-110.63
X111.43Y-125.87
X111.81Y-62.19
X111.81Y-69.81
X112.73Y-98.44
X112.73Y-106.06
X113.97Y-76.63
X113.97Y-91.87
X113.97Y-110.63
X113.97Y-125.87
X115.27Y-98.44
X115.27Y-106.06
X116.51Y-76.63
X116.51Y-91.87
X116.51Y-110.63
X116.51Y-125.87
X117.81Y-98.44
X117.81Y-106.06
X119.05Y-76.63
X119.05Y-91.87
X120.35Y-98.44
X120.35Y-106.06
X121.59Y-76.63
X121.59Y-91.87
X122.89Y-98.44
X122.89Y-106.06
X124.13Y-76.63
X124.13Y-91.87
X125.43Y-98.44
X125.43Y-106.06
M30
