M48
; DRILL file KiCad 10.0.3 date 2026-06-23T23:37:30
; FORMAT={-:-/ absolute / metric / decimal}
; #@! TF.CreationDate,2026-06-23T23:37:30-04:00
; #@! TF.GenerationSoftware,Kicad,Pcbnew,10.0.3
; #@! TF.FileFunction,MixedPlating,1,2
FMAT,2
METRIC
; #@! TA.AperFunction,Plated,PTH,ViaDrill
T1C0.300
; #@! TA.AperFunction,Plated,PTH,ComponentDrill
T2C0.300
; #@! TA.AperFunction,Plated,PTH,ComponentDrill
T3C0.700
; #@! TA.AperFunction,Plated,PTH,ComponentDrill
T4C0.800
%
G90
G05
T1
X77.41Y-117.966
X83.235Y-81.003
X85.667Y-81.555
X85.92Y-120.158
X87.268Y-120.865
X88.157Y-85.432
X88.724Y-123.589
X91.25Y-123.527
X93.349Y-102.155
X94.309Y-108.806
X94.468Y-94.7
X94.859Y-123.405
X94.914Y-93.918
X96.617Y-87.262
X97.869Y-117.68
X98.669Y-78.388
X98.731Y-131.974
X99.709Y-120.319
X101.975Y-118.363
X102.015Y-119.847
X102.67Y-69.637
X113.816Y-117.951
X114.418Y-129.263
X115.007Y-88.399
T2
X121.0Y-108.5
X126.0Y-84.25
T3
X80.73Y-87.5
X83.27Y-87.5
X85.0Y-99.98
X85.0Y-102.52
X86.73Y-87.5
X89.27Y-87.5
X90.0Y-99.98
X90.0Y-102.52
X92.73Y-87.5
X95.27Y-87.5
X104.73Y-87.5
X107.27Y-87.5
X110.0Y-99.98
X110.0Y-102.52
X110.73Y-87.5
X113.27Y-87.5
X113.5Y-99.98
X113.5Y-102.52
X115.0Y-74.73
X115.0Y-77.27
X115.0Y-116.98
X115.0Y-119.52
X117.0Y-99.98
X117.0Y-102.52
X120.0Y-116.98
X120.0Y-119.52
X128.0Y-74.73
X128.0Y-77.27
T4
X75.87Y-68.38
X75.87Y-83.62
X78.41Y-68.38
X78.41Y-83.62
X80.95Y-68.38
X80.95Y-83.62
X83.49Y-68.38
X83.49Y-83.62
X83.49Y-110.63
X83.49Y-125.87
X86.03Y-68.38
X86.03Y-83.62
X86.03Y-110.63
X86.03Y-125.87
X88.57Y-68.38
X88.57Y-72.19
X88.57Y-79.81
X88.57Y-83.62
X88.57Y-110.63
X88.57Y-114.44
X88.57Y-122.06
X88.57Y-125.87
X91.11Y-68.38
X91.11Y-72.19
X91.11Y-79.81
X91.11Y-83.62
X91.11Y-110.63
X91.11Y-114.44
X91.11Y-122.06
X91.11Y-125.87
X93.65Y-68.38
X93.65Y-72.19
X93.65Y-79.81
X93.65Y-83.62
X93.65Y-110.63
X93.65Y-114.44
X93.65Y-122.06
X93.65Y-125.87
X96.19Y-68.38
X96.19Y-72.19
X96.19Y-79.81
X96.19Y-83.62
X96.19Y-97.44
X96.19Y-105.06
X96.19Y-110.63
X96.19Y-114.44
X96.19Y-122.06
X96.19Y-125.87
X98.73Y-68.38
X98.73Y-72.19
X98.73Y-79.81
X98.73Y-83.62
X98.73Y-97.44
X98.73Y-105.06
X98.73Y-110.63
X98.73Y-114.44
X98.73Y-122.06
X98.73Y-125.87
X101.27Y-68.38
X101.27Y-72.19
X101.27Y-79.81
X101.27Y-83.62
X101.27Y-97.44
X101.27Y-105.06
X101.27Y-110.63
X101.27Y-114.44
X101.27Y-122.06
X101.27Y-125.87
X103.81Y-68.38
X103.81Y-72.19
X103.81Y-79.81
X103.81Y-83.62
X103.81Y-97.44
X103.81Y-105.06
X103.81Y-110.63
X103.81Y-114.44
X103.81Y-122.06
X103.81Y-125.87
X106.35Y-68.38
X106.35Y-72.19
X106.35Y-79.81
X106.35Y-83.62
X106.35Y-110.63
X106.35Y-114.44
X106.35Y-122.06
X106.35Y-125.87
X108.89Y-68.38
X108.89Y-72.19
X108.89Y-79.81
X108.89Y-83.62
X108.89Y-110.63
X108.89Y-114.44
X108.89Y-122.06
X108.89Y-125.87
X111.43Y-68.38
X111.43Y-72.19
X111.43Y-79.81
X111.43Y-83.62
X111.43Y-110.63
X111.43Y-114.44
X111.43Y-122.06
X111.43Y-125.87
X113.97Y-68.38
X113.97Y-83.62
X113.97Y-110.63
X113.97Y-125.87
X116.51Y-68.38
X116.51Y-83.62
X116.51Y-110.63
X116.51Y-125.87
X119.05Y-68.38
X119.05Y-83.62
X121.59Y-68.38
X121.59Y-83.62
X124.13Y-68.38
X124.13Y-83.62
M30
