%TF.GenerationSoftware,KiCad,Pcbnew,10.0.3*%
%TF.CreationDate,2026-06-17T00:12:18-04:00*%
%TF.ProjectId,index,696e6465-782e-46b6-9963-61645f706362,rev?*%
%TF.SameCoordinates,Original*%
%TF.FileFunction,Copper,L1,Top*%
%TF.FilePolarity,Positive*%
%FSLAX46Y46*%
G04 Gerber Fmt 4.6, Leading zero omitted, Abs format (unit mm)*
G04 Created by KiCad (PCBNEW 10.0.3) date 2026-06-17 00:12:18*
%MOMM*%
%LPD*%
G01*
G04 APERTURE LIST*
%TA.AperFunction,SMDPad,CuDef*%
%ADD10R,1.600000X0.800000*%
%TD*%
%TA.AperFunction,ComponentPad*%
%ADD11R,1.600000X1.600000*%
%TD*%
%TA.AperFunction,ComponentPad*%
%ADD12C,1.600000*%
%TD*%
%TA.AperFunction,ComponentPad*%
%ADD13C,1.400000*%
%TD*%
%TA.AperFunction,ComponentPad*%
%ADD14C,0.600000*%
%TD*%
%TA.AperFunction,SMDPad,CuDef*%
%ADD15R,2.000000X7.000000*%
%TD*%
%TA.AperFunction,ViaPad*%
%ADD16C,0.600000*%
%TD*%
%TA.AperFunction,Conductor*%
%ADD17C,0.200000*%
%TD*%
G04 APERTURE END LIST*
D10*
%TO.P,JP1,1*%
%TO.N,VCC*%
X120000000Y-114950000D03*
%TO.P,JP1,2*%
%TO.N,ROM_VPP*%
X120000000Y-113750000D03*
%TO.P,JP1,3*%
%TO.N,A15*%
X120000000Y-112550000D03*
%TD*%
D11*
%TO.P,U5,1*%
%TO.N,OPAMP_OUT*%
X111810000Y-62190000D03*
D12*
%TO.P,U5,2*%
%TO.N,SUM_NODE*%
X109270000Y-62190000D03*
%TO.P,U5,3*%
%TO.N,GND*%
X106730000Y-62190000D03*
%TO.P,U5,4*%
X104190000Y-62190000D03*
%TO.P,U5,5*%
X104190000Y-69810000D03*
%TO.P,U5,6*%
%TO.N,U5_UNUSED_FB*%
X106730000Y-69810000D03*
%TO.P,U5,7*%
X109270000Y-69810000D03*
%TO.P,U5,8*%
%TO.N,VCC*%
X111810000Y-69810000D03*
%TD*%
D13*
%TO.P,RAUDIOB,1*%
%TO.N,ANALOG_B*%
X120730000Y-73750000D03*
%TO.P,RAUDIOB,2*%
%TO.N,SUM_NODE*%
X123270000Y-73750000D03*
%TD*%
D11*
%TO.P,U3,1*%
%TO.N,GND*%
X125430000Y-98440000D03*
D12*
%TO.P,U3,2*%
%TO.N,DA0*%
X122890000Y-98440000D03*
%TO.P,U3,3*%
%TO.N,D0*%
X120350000Y-98440000D03*
%TO.P,U3,4*%
%TO.N,D1*%
X117810000Y-98440000D03*
%TO.P,U3,5*%
%TO.N,DA1*%
X115270000Y-98440000D03*
%TO.P,U3,6*%
%TO.N,DA2*%
X112730000Y-98440000D03*
%TO.P,U3,7*%
%TO.N,D2*%
X110190000Y-98440000D03*
%TO.P,U3,8*%
%TO.N,D3*%
X107650000Y-98440000D03*
%TO.P,U3,9*%
%TO.N,DA3*%
X105110000Y-98440000D03*
%TO.P,U3,10*%
%TO.N,GND*%
X102570000Y-98440000D03*
%TO.P,U3,11*%
%TO.N,YM_LE*%
X102570000Y-106060000D03*
%TO.P,U3,12*%
%TO.N,DA4*%
X105110000Y-106060000D03*
%TO.P,U3,13*%
%TO.N,D4*%
X107650000Y-106060000D03*
%TO.P,U3,14*%
%TO.N,D5*%
X110190000Y-106060000D03*
%TO.P,U3,15*%
%TO.N,DA5*%
X112730000Y-106060000D03*
%TO.P,U3,16*%
%TO.N,DA6*%
X115270000Y-106060000D03*
%TO.P,U3,17*%
%TO.N,D6*%
X117810000Y-106060000D03*
%TO.P,U3,18*%
%TO.N,D7*%
X120350000Y-106060000D03*
%TO.P,U3,19*%
%TO.N,DA7*%
X122890000Y-106060000D03*
%TO.P,U3,20*%
%TO.N,VCC*%
X125430000Y-106060000D03*
%TD*%
D13*
%TO.P,CRESET1,1*%
%TO.N,RESET_DELAYED*%
X78730000Y-95750000D03*
%TO.P,CRESET1,2*%
%TO.N,GND*%
X81270000Y-95750000D03*
%TD*%
D11*
%TO.P,U1,1*%
%TO.N,ROM_VPP*%
X116510000Y-110630000D03*
D12*
%TO.P,U1,2*%
%TO.N,A12*%
X113970000Y-110630000D03*
%TO.P,U1,3*%
%TO.N,A7*%
X111430000Y-110630000D03*
%TO.P,U1,4*%
%TO.N,A6*%
X108890000Y-110630000D03*
%TO.P,U1,5*%
%TO.N,A5*%
X106350000Y-110630000D03*
%TO.P,U1,6*%
%TO.N,A4*%
X103810000Y-110630000D03*
%TO.P,U1,7*%
%TO.N,A3*%
X101270000Y-110630000D03*
%TO.P,U1,8*%
%TO.N,A2*%
X98730000Y-110630000D03*
%TO.P,U1,9*%
%TO.N,A1*%
X96190000Y-110630000D03*
%TO.P,U1,10*%
%TO.N,A0*%
X93650000Y-110630000D03*
%TO.P,U1,11*%
%TO.N,D0*%
X91110000Y-110630000D03*
%TO.P,U1,12*%
%TO.N,D1*%
X88570000Y-110630000D03*
%TO.P,U1,13*%
%TO.N,D2*%
X86030000Y-110630000D03*
%TO.P,U1,14*%
%TO.N,GND*%
X83490000Y-110630000D03*
%TO.P,U1,15*%
%TO.N,D3*%
X83490000Y-125870000D03*
%TO.P,U1,16*%
%TO.N,D4*%
X86030000Y-125870000D03*
%TO.P,U1,17*%
%TO.N,D5*%
X88570000Y-125870000D03*
%TO.P,U1,18*%
%TO.N,D6*%
X91110000Y-125870000D03*
%TO.P,U1,19*%
%TO.N,D7*%
X93650000Y-125870000D03*
%TO.P,U1,20*%
%TO.N,ROM_CE*%
X96190000Y-125870000D03*
%TO.P,U1,21*%
%TO.N,A10*%
X98730000Y-125870000D03*
%TO.P,U1,22*%
%TO.N,GND*%
X101270000Y-125870000D03*
%TO.P,U1,23*%
%TO.N,A11*%
X103810000Y-125870000D03*
%TO.P,U1,24*%
%TO.N,A9*%
X106350000Y-125870000D03*
%TO.P,U1,25*%
%TO.N,A8*%
X108890000Y-125870000D03*
%TO.P,U1,26*%
%TO.N,A13*%
X111430000Y-125870000D03*
%TO.P,U1,27*%
%TO.N,A14*%
X113970000Y-125870000D03*
%TO.P,U1,28*%
%TO.N,VCC*%
X116510000Y-125870000D03*
%TD*%
D13*
%TO.P,RSERIES,1*%
%TO.N,OPAMP_OUT*%
X118000000Y-67270000D03*
%TO.P,RSERIES,2*%
%TO.N,CAP_PLUS*%
X118000000Y-64730000D03*
%TD*%
D14*
%TO.P,U6,1*%
%TO.N,GND*%
X129000000Y-113000000D03*
%TD*%
D11*
%TO.P,U2,1*%
%TO.N,N/C*%
X95430000Y-98440000D03*
D12*
%TO.P,U2,2*%
%TO.N,A15*%
X92890000Y-98440000D03*
%TO.P,U2,3*%
%TO.N,A14*%
X90350000Y-98440000D03*
%TO.P,U2,4*%
%TO.N,A0*%
X87810000Y-98440000D03*
%TO.P,U2,5*%
%TO.N,HALT*%
X85270000Y-98440000D03*
%TO.P,U2,6*%
%TO.N,RW*%
X82730000Y-98440000D03*
%TO.P,U2,7*%
%TO.N,PHI2*%
X80190000Y-98440000D03*
%TO.P,U2,8*%
%TO.N,N/C*%
X77650000Y-98440000D03*
%TO.P,U2,9*%
X75110000Y-98440000D03*
%TO.P,U2,10*%
%TO.N,GND*%
X72570000Y-98440000D03*
%TO.P,U2,11*%
%TO.N,N/C*%
X72570000Y-106060000D03*
%TO.P,U2,12*%
X75110000Y-106060000D03*
%TO.P,U2,13*%
X77650000Y-106060000D03*
%TO.P,U2,14*%
X80190000Y-106060000D03*
%TO.P,U2,15*%
%TO.N,YM_LE*%
X82730000Y-106060000D03*
%TO.P,U2,16*%
%TO.N,PHI2OUT*%
X85270000Y-106060000D03*
%TO.P,U2,17*%
%TO.N,BC1*%
X87810000Y-106060000D03*
%TO.P,U2,18*%
%TO.N,BDIR*%
X90350000Y-106060000D03*
%TO.P,U2,19*%
%TO.N,ROM_CE*%
X92890000Y-106060000D03*
%TO.P,U2,20*%
%TO.N,VCC*%
X95430000Y-106060000D03*
%TD*%
D14*
%TO.P,U7,1*%
%TO.N,GND*%
X126000000Y-84250000D03*
%TD*%
D13*
%TO.P,RAUDIOA,1*%
%TO.N,ANALOG_A*%
X114730000Y-73750000D03*
%TO.P,RAUDIOA,2*%
%TO.N,SUM_NODE*%
X117270000Y-73750000D03*
%TD*%
D11*
%TO.P,U4,1*%
%TO.N,GND*%
X124130000Y-76630000D03*
D12*
%TO.P,U4,2*%
%TO.N,N/C*%
X121590000Y-76630000D03*
%TO.P,U4,3*%
%TO.N,ANALOG_B*%
X119050000Y-76630000D03*
%TO.P,U4,4*%
%TO.N,ANALOG_A*%
X116510000Y-76630000D03*
%TO.P,U4,5*%
%TO.N,N/C*%
X113970000Y-76630000D03*
%TO.P,U4,6*%
X111430000Y-76630000D03*
%TO.P,U4,7*%
X108890000Y-76630000D03*
%TO.P,U4,8*%
X106350000Y-76630000D03*
%TO.P,U4,9*%
X103810000Y-76630000D03*
%TO.P,U4,10*%
X101270000Y-76630000D03*
%TO.P,U4,11*%
X98730000Y-76630000D03*
%TO.P,U4,12*%
X96190000Y-76630000D03*
%TO.P,U4,13*%
X93650000Y-76630000D03*
%TO.P,U4,14*%
X91110000Y-76630000D03*
%TO.P,U4,15*%
X88570000Y-76630000D03*
%TO.P,U4,16*%
X86030000Y-76630000D03*
%TO.P,U4,17*%
X83490000Y-76630000D03*
%TO.P,U4,18*%
X80950000Y-76630000D03*
%TO.P,U4,19*%
X78410000Y-76630000D03*
%TO.P,U4,20*%
X75870000Y-76630000D03*
%TO.P,U4,21*%
X75870000Y-91870000D03*
%TO.P,U4,22*%
%TO.N,PHI2OUT*%
X78410000Y-91870000D03*
%TO.P,U4,23*%
%TO.N,RESET_DELAYED*%
X80950000Y-91870000D03*
%TO.P,U4,24*%
%TO.N,GND*%
X83490000Y-91870000D03*
%TO.P,U4,25*%
%TO.N,VCC*%
X86030000Y-91870000D03*
%TO.P,U4,26*%
%TO.N,N/C*%
X88570000Y-91870000D03*
%TO.P,U4,27*%
%TO.N,BDIR*%
X91110000Y-91870000D03*
%TO.P,U4,28*%
%TO.N,VCC*%
X93650000Y-91870000D03*
%TO.P,U4,29*%
%TO.N,BC1*%
X96190000Y-91870000D03*
%TO.P,U4,30*%
%TO.N,DA7*%
X98730000Y-91870000D03*
%TO.P,U4,31*%
%TO.N,DA6*%
X101270000Y-91870000D03*
%TO.P,U4,32*%
%TO.N,DA5*%
X103810000Y-91870000D03*
%TO.P,U4,33*%
%TO.N,DA4*%
X106350000Y-91870000D03*
%TO.P,U4,34*%
%TO.N,DA3*%
X108890000Y-91870000D03*
%TO.P,U4,35*%
%TO.N,DA2*%
X111430000Y-91870000D03*
%TO.P,U4,36*%
%TO.N,DA1*%
X113970000Y-91870000D03*
%TO.P,U4,37*%
%TO.N,DA0*%
X116510000Y-91870000D03*
%TO.P,U4,38*%
%TO.N,ANALOG_C*%
X119050000Y-91870000D03*
%TO.P,U4,39*%
%TO.N,N/C*%
X121590000Y-91870000D03*
%TO.P,U4,40*%
%TO.N,VCC*%
X124130000Y-91870000D03*
%TD*%
D13*
%TO.P,RRESET1,1*%
%TO.N,VCC*%
X84730000Y-95750000D03*
%TO.P,RRESET1,2*%
%TO.N,RESET_DELAYED*%
X87270000Y-95750000D03*
%TD*%
%TO.P,C5,1*%
%TO.N,CAP_PLUS*%
X123000000Y-67270000D03*
%TO.P,C5,2*%
%TO.N,OPAMP_OUT_AC*%
X123000000Y-64730000D03*
%TD*%
%TO.P,RPULL,1*%
%TO.N,OPAMP_OUT*%
X128000000Y-67270000D03*
%TO.P,RPULL,2*%
%TO.N,GND*%
X128000000Y-64730000D03*
%TD*%
%TO.P,RAUDIOC,1*%
%TO.N,ANALOG_C*%
X118730000Y-95750000D03*
%TO.P,RAUDIOC,2*%
%TO.N,SUM_NODE*%
X121270000Y-95750000D03*
%TD*%
%TO.P,RFB,1*%
%TO.N,SUM_NODE*%
X98000000Y-67270000D03*
%TO.P,RFB,2*%
%TO.N,OPAMP_OUT*%
X98000000Y-64730000D03*
%TD*%
D15*
%TO.P,J1,1*%
%TO.N,RW*%
X78410000Y-136490000D03*
%TO.P,J1,2*%
%TO.N,HALT*%
X80950000Y-136490000D03*
%TO.P,J1,3*%
%TO.N,D3*%
X86030000Y-136490000D03*
%TO.P,J1,4*%
%TO.N,D4*%
X88570000Y-136490000D03*
%TO.P,J1,5*%
%TO.N,D5*%
X91110000Y-136490000D03*
%TO.P,J1,6*%
%TO.N,D6*%
X93650000Y-136490000D03*
%TO.P,J1,7*%
%TO.N,D7*%
X96190000Y-136490000D03*
%TO.P,J1,8*%
%TO.N,A12*%
X98730000Y-136490000D03*
%TO.P,J1,9*%
%TO.N,A10*%
X101270000Y-136490000D03*
%TO.P,J1,10*%
%TO.N,A11*%
X103810000Y-136490000D03*
%TO.P,J1,11*%
%TO.N,A9*%
X106350000Y-136490000D03*
%TO.P,J1,12*%
%TO.N,A8*%
X108890000Y-136490000D03*
%TO.P,J1,13*%
%TO.N,VCC*%
X111430000Y-136490000D03*
%TO.P,J1,14*%
%TO.N,GND*%
X113970000Y-136490000D03*
%TO.P,J1,15*%
%TO.N,A13*%
X119050000Y-136490000D03*
%TO.P,J1,16*%
%TO.N,A14*%
X121590000Y-136490000D03*
%TD*%
D10*
%TO.P,JP2,1*%
%TO.N,VCC*%
X120000000Y-123950000D03*
%TO.P,JP2,2*%
%TO.N,A14*%
X120000000Y-122750000D03*
%TO.P,JP2,3*%
X120000000Y-121550000D03*
%TD*%
D16*
%TO.N,A15*%
X121956000Y-111894000D03*
%TO.N,D0*%
X93956900Y-132178300D03*
%TO.N,YM_LE*%
X99490500Y-96695400D03*
%TO.N,DA5*%
X98541100Y-101131800D03*
%TO.N,DA6*%
X116652000Y-103411700D03*
%TO.N,A12*%
X99347700Y-130782700D03*
X113943400Y-112852000D03*
%TO.N,A7*%
X113501100Y-131928900D03*
%TO.N,A6*%
X110781500Y-132178300D03*
%TO.N,A5*%
X108052400Y-132178300D03*
%TO.N,A4*%
X104377500Y-121111500D03*
%TO.N,A3*%
X103314200Y-132178300D03*
%TO.N,A2*%
X100585100Y-132178300D03*
%TO.N,A1*%
X98595100Y-132178300D03*
%TO.N,A0*%
X94566700Y-124166300D03*
%TO.N,ROM_CE*%
X96686000Y-112464900D03*
%TO.N,A13*%
X118335000Y-132178300D03*
%TO.N,A14*%
X119084200Y-129286100D03*
X113824300Y-105138800D03*
%TO.N,OPAMP_OUT_AC*%
X122517900Y-129877700D03*
%TD*%
%TO.N,VCC*%
D17*
X120000000Y-124651700D02*
X118781700Y-125870000D01*
X94301500Y-92521500D02*
X94301500Y-104931500D01*
X121101700Y-114950000D02*
X121101700Y-123950000D01*
X120000000Y-123950000D02*
X121101700Y-123950000D01*
X111810000Y-69810000D02*
X111810000Y-72825000D01*
X111430000Y-136490000D02*
X111430000Y-132688300D01*
X120000000Y-123950000D02*
X120000000Y-124651700D01*
X124937900Y-106060000D02*
X125430000Y-106060000D01*
X124937900Y-111113800D02*
X121101700Y-114950000D01*
X113662000Y-132688300D02*
X114953200Y-131397100D01*
X84730000Y-95750000D02*
X84730000Y-93170000D01*
X114953200Y-127426800D02*
X116510000Y-125870000D01*
X124130000Y-105252100D02*
X124937900Y-106060000D01*
X93650000Y-91870000D02*
X94301500Y-92521500D01*
X120000000Y-114950000D02*
X121101700Y-114950000D01*
X115240000Y-82980000D02*
X124130000Y-91870000D01*
X124937900Y-106060000D02*
X124937900Y-111113800D01*
X118781700Y-125870000D02*
X116510000Y-125870000D01*
X84730000Y-93170000D02*
X86030000Y-91870000D01*
X111810000Y-72825000D02*
X115240000Y-76255000D01*
X115240000Y-76255000D02*
X115240000Y-82980000D01*
X94301500Y-104931500D02*
X95430000Y-106060000D01*
X124130000Y-91870000D02*
X124130000Y-105252100D01*
X114953200Y-131397100D02*
X114953200Y-127426800D01*
X111430000Y-132688300D02*
X113662000Y-132688300D01*
%TO.N,ROM_VPP*%
X120000000Y-113750000D02*
X118898300Y-113750000D01*
X116510000Y-110630000D02*
X116510000Y-111731700D01*
X118898300Y-113750000D02*
X116880000Y-111731700D01*
X116880000Y-111731700D02*
X116510000Y-111731700D01*
%TO.N,A15*%
X121956000Y-111894000D02*
X121757700Y-111894000D01*
X121757700Y-111894000D02*
X121101700Y-112550000D01*
X120000000Y-112550000D02*
X121101700Y-112550000D01*
%TO.N,SUM_NODE*%
X117270000Y-70190000D02*
X117270000Y-73750000D01*
X109270000Y-62190000D02*
X117270000Y-70190000D01*
%TO.N,ANALOG_B*%
X120730000Y-73750000D02*
X119050000Y-75430000D01*
X119050000Y-75430000D02*
X119050000Y-76630000D01*
%TO.N,D0*%
X111460000Y-106371500D02*
X109086300Y-108745200D01*
X120350000Y-98440000D02*
X114252900Y-104537100D01*
X112680900Y-104537100D02*
X111460000Y-105758000D01*
X114252900Y-104537100D02*
X112680900Y-104537100D01*
X92994800Y-108745200D02*
X91110000Y-110630000D01*
X109086300Y-108745200D02*
X92994800Y-108745200D01*
X92548300Y-126733400D02*
X93956900Y-128142000D01*
X93956900Y-128142000D02*
X93956900Y-132178300D01*
X111460000Y-105758000D02*
X111460000Y-106371500D01*
X92548300Y-112068300D02*
X92548300Y-126733400D01*
X91110000Y-110630000D02*
X92548300Y-112068300D01*
%TO.N,D1*%
X108920000Y-106357200D02*
X106933700Y-108343500D01*
X116708300Y-99541700D02*
X115110900Y-99541700D01*
X106933700Y-108343500D02*
X90856500Y-108343500D01*
X115110900Y-99541700D02*
X108920000Y-105732600D01*
X90856500Y-108343500D02*
X88570000Y-110630000D01*
X108920000Y-105732600D02*
X108920000Y-106357200D01*
X117810000Y-98440000D02*
X116708300Y-99541700D01*
%TO.N,DA1*%
X113970000Y-97140000D02*
X115270000Y-98440000D01*
X113970000Y-91870000D02*
X113970000Y-97140000D01*
%TO.N,DA2*%
X111430000Y-97140000D02*
X112730000Y-98440000D01*
X111430000Y-91870000D02*
X111430000Y-97140000D01*
%TO.N,D3*%
X106380000Y-99710000D02*
X107650000Y-98440000D01*
X87300000Y-110334500D02*
X90111100Y-107523400D01*
X86030000Y-136490000D02*
X86030000Y-127917900D01*
X106380000Y-106352000D02*
X106380000Y-99710000D01*
X87300000Y-122552100D02*
X87300000Y-110334500D01*
X105208600Y-107523400D02*
X106380000Y-106352000D01*
X83982100Y-125870000D02*
X83490000Y-125870000D01*
X86030000Y-127917900D02*
X83982100Y-125870000D01*
X83982100Y-125870000D02*
X87300000Y-122552100D01*
X90111100Y-107523400D02*
X105208600Y-107523400D01*
%TO.N,DA3*%
X108890000Y-91870000D02*
X108890000Y-94660000D01*
X108890000Y-94660000D02*
X105110000Y-98440000D01*
%TO.N,YM_LE*%
X99490500Y-102980500D02*
X99490500Y-96695400D01*
X102570000Y-106060000D02*
X99490500Y-102980500D01*
%TO.N,DA4*%
X106350000Y-91870000D02*
X103998700Y-94221300D01*
X103998700Y-94221300D02*
X103998700Y-104948700D01*
X103998700Y-104948700D02*
X105110000Y-106060000D01*
%TO.N,D4*%
X86030000Y-125870000D02*
X88570000Y-128410000D01*
X88570000Y-128410000D02*
X88570000Y-136490000D01*
%TO.N,D5*%
X88570000Y-125870000D02*
X91110000Y-128410000D01*
X91110000Y-128410000D02*
X91110000Y-136490000D01*
%TO.N,DA5*%
X103465100Y-91870000D02*
X98541100Y-96794000D01*
X103810000Y-91870000D02*
X103465100Y-91870000D01*
X98541100Y-96794000D02*
X98541100Y-101131800D01*
%TO.N,DA6*%
X115270000Y-104793700D02*
X115270000Y-106060000D01*
X116652000Y-103411700D02*
X115270000Y-104793700D01*
%TO.N,D6*%
X93355200Y-128115200D02*
X93355200Y-136195200D01*
X93355200Y-136195200D02*
X93650000Y-136490000D01*
X91110000Y-125870000D02*
X93355200Y-128115200D01*
%TO.N,D7*%
X93650000Y-125870000D02*
X96190000Y-128410000D01*
X96190000Y-128410000D02*
X96190000Y-136490000D01*
%TO.N,RESET_DELAYED*%
X78730000Y-95750000D02*
X78730000Y-94090000D01*
X78730000Y-94090000D02*
X80950000Y-91870000D01*
%TO.N,A12*%
X113943400Y-110656600D02*
X113943400Y-112852000D01*
X113970000Y-110630000D02*
X113943400Y-110656600D01*
X99347700Y-130782700D02*
X99347700Y-135872300D01*
X99347700Y-135872300D02*
X98730000Y-136490000D01*
%TO.N,A7*%
X112747900Y-131175700D02*
X113501100Y-131928900D01*
X112747900Y-111947900D02*
X112747900Y-131175700D01*
X111430000Y-110630000D02*
X112747900Y-111947900D01*
%TO.N,A6*%
X110245000Y-131641800D02*
X110245000Y-111985000D01*
X110781500Y-132178300D02*
X110245000Y-131641800D01*
X110245000Y-111985000D02*
X108890000Y-110630000D01*
%TO.N,A5*%
X107620000Y-131745900D02*
X107620000Y-111900000D01*
X108052400Y-132178300D02*
X107620000Y-131745900D01*
X107620000Y-111900000D02*
X106350000Y-110630000D01*
%TO.N,A4*%
X103810000Y-110630000D02*
X104377500Y-111197500D01*
X104377500Y-111197500D02*
X104377500Y-121111500D01*
%TO.N,A3*%
X103314200Y-129879300D02*
X103314200Y-132178300D01*
X101270000Y-110630000D02*
X100151900Y-111748100D01*
X100151900Y-126717000D02*
X103314200Y-129879300D01*
X100151900Y-111748100D02*
X100151900Y-126717000D01*
%TO.N,A2*%
X97618700Y-111741300D02*
X97618700Y-126673800D01*
X100585100Y-129640200D02*
X100585100Y-132178300D01*
X98730000Y-110630000D02*
X97618700Y-111741300D01*
X97618700Y-126673800D02*
X100585100Y-129640200D01*
%TO.N,A1*%
X95071900Y-124514400D02*
X95071900Y-126717000D01*
X96084300Y-110735700D02*
X96084300Y-123502000D01*
X98595100Y-130240200D02*
X98595100Y-132178300D01*
X96190000Y-110630000D02*
X96084300Y-110735700D01*
X95071900Y-126717000D02*
X98595100Y-130240200D01*
X96084300Y-123502000D02*
X95071900Y-124514400D01*
%TO.N,A0*%
X94566700Y-124166300D02*
X93650000Y-123249600D01*
X93650000Y-123249600D02*
X93650000Y-110630000D01*
%TO.N,ROM_CE*%
X96686000Y-112464900D02*
X96686000Y-125374000D01*
X96686000Y-125374000D02*
X96190000Y-125870000D01*
%TO.N,A10*%
X98730000Y-125870000D02*
X101270000Y-128410000D01*
X101270000Y-128410000D02*
X101270000Y-136490000D01*
%TO.N,A11*%
X103810000Y-132688300D02*
X103931900Y-132566400D01*
X103931900Y-132566400D02*
X103931900Y-125991900D01*
X103931900Y-125991900D02*
X103810000Y-125870000D01*
X103810000Y-136490000D02*
X103810000Y-132688300D01*
%TO.N,A9*%
X106350000Y-136490000D02*
X106350000Y-125870000D01*
%TO.N,A8*%
X108890000Y-125870000D02*
X108890000Y-132688300D01*
X108890000Y-136490000D02*
X108890000Y-132688300D01*
%TO.N,A13*%
X119050000Y-136490000D02*
X119050000Y-132688300D01*
X118335000Y-132178300D02*
X118845000Y-132688300D01*
X118845000Y-132688300D02*
X119050000Y-132688300D01*
%TO.N,A14*%
X120000000Y-121550000D02*
X120000000Y-122750000D01*
X115140000Y-122750000D02*
X115140000Y-107488000D01*
X118898300Y-122750000D02*
X115140000Y-122750000D01*
X113970000Y-125870000D02*
X115140000Y-124700000D01*
X115140000Y-107488000D02*
X114168300Y-106516300D01*
X120000000Y-122750000D02*
X118898300Y-122750000D01*
X115140000Y-124700000D02*
X115140000Y-122750000D01*
X119084200Y-129286100D02*
X121590000Y-131791900D01*
X121590000Y-131791900D02*
X121590000Y-136490000D01*
X114168300Y-106516300D02*
X114168300Y-105482800D01*
X114168300Y-105482800D02*
X113824300Y-105138800D01*
%TO.N,HALT*%
X85270000Y-98440000D02*
X86395200Y-99565200D01*
X86395200Y-107521900D02*
X84889200Y-109027900D01*
X84889200Y-122912800D02*
X80950000Y-126852000D01*
X84889200Y-109027900D02*
X84889200Y-122912800D01*
X86395200Y-99565200D02*
X86395200Y-107521900D01*
X80950000Y-126852000D02*
X80950000Y-136490000D01*
%TO.N,RW*%
X78410000Y-132688300D02*
X78770000Y-132328300D01*
X78770000Y-132328300D02*
X78770000Y-102400000D01*
X78770000Y-102400000D02*
X82730000Y-98440000D01*
X78410000Y-136490000D02*
X78410000Y-132688300D01*
%TO.N,PHI2OUT*%
X83705000Y-96799000D02*
X84000000Y-97094000D01*
X82270200Y-92970200D02*
X83705000Y-94405000D01*
X81421100Y-90764400D02*
X82270200Y-91613500D01*
X84000000Y-97094000D02*
X84000000Y-104790000D01*
X78410000Y-91870000D02*
X79515600Y-90764400D01*
X79515600Y-90764400D02*
X81421100Y-90764400D01*
X84000000Y-104790000D02*
X85270000Y-106060000D01*
X83705000Y-94405000D02*
X83705000Y-96799000D01*
X82270200Y-91613500D02*
X82270200Y-92970200D01*
%TO.N,BC1*%
X89981600Y-92238400D02*
X89080000Y-93140000D01*
X89080000Y-93140000D02*
X89080000Y-104790000D01*
X90657000Y-90750800D02*
X89981600Y-91426200D01*
X89080000Y-104790000D02*
X87810000Y-106060000D01*
X89981600Y-91426200D02*
X89981600Y-92238400D01*
X96190000Y-91870000D02*
X95070800Y-90750800D01*
X95070800Y-90750800D02*
X90657000Y-90750800D01*
%TO.N,BDIR*%
X91465200Y-92225200D02*
X91465200Y-104944800D01*
X91110000Y-91870000D02*
X91465200Y-92225200D01*
X91465200Y-104944800D02*
X90350000Y-106060000D01*
%TO.N,ANALOG_A*%
X114730000Y-73750000D02*
X114730000Y-74850000D01*
X114730000Y-74850000D02*
X116510000Y-76630000D01*
%TO.N,ANALOG_C*%
X118730000Y-95750000D02*
X119050000Y-95430000D01*
X119050000Y-95430000D02*
X119050000Y-91870000D01*
%TO.N,OPAMP_OUT_AC*%
X126608900Y-112321100D02*
X126608900Y-68338900D01*
X126608900Y-68338900D02*
X123000000Y-64730000D01*
X122517900Y-116412100D02*
X126608900Y-112321100D01*
X122517900Y-129877700D02*
X122517900Y-116412100D01*
%TD*%
%TA.AperFunction,Conductor*%
%TO.N,GND*%
G36*
X131778326Y-60221674D02*
G01*
X131800000Y-60274000D01*
X131800000Y-115636506D01*
X131778326Y-115688832D01*
X131438832Y-116028326D01*
X131386506Y-116050000D01*
X131300000Y-116050000D01*
X123800000Y-116050000D01*
X123786994Y-116051281D01*
X123760980Y-116053843D01*
X123738218Y-116060748D01*
X123723463Y-116065224D01*
X123723461Y-116065224D01*
X123723461Y-116065225D01*
X123688887Y-116083705D01*
X123688883Y-116083708D01*
X123658579Y-116108579D01*
X123633708Y-116138883D01*
X123633705Y-116138887D01*
X123615225Y-116173461D01*
X123603843Y-116210980D01*
X123600000Y-116250001D01*
X123600000Y-139726000D01*
X123578326Y-139778326D01*
X123526000Y-139800000D01*
X122864500Y-139800000D01*
X122812174Y-139778326D01*
X122790500Y-139726000D01*
X122790500Y-132970246D01*
X122790356Y-132968783D01*
X122790000Y-132961536D01*
X122790000Y-132790000D01*
X122618464Y-132790000D01*
X122611217Y-132789644D01*
X122609754Y-132789500D01*
X122609748Y-132789500D01*
X121964500Y-132789500D01*
X121912174Y-132767826D01*
X121890500Y-132715500D01*
X121890500Y-131752336D01*
X121890499Y-131752335D01*
X121886046Y-131735718D01*
X121870021Y-131675911D01*
X121830460Y-131607389D01*
X121774511Y-131551440D01*
X119606374Y-129383303D01*
X119584700Y-129330977D01*
X119584700Y-129220206D01*
X119584699Y-129220205D01*
X119550593Y-129092918D01*
X119550592Y-129092914D01*
X119484700Y-128978786D01*
X119391514Y-128885600D01*
X119277390Y-128819710D01*
X119277381Y-128819706D01*
X119150094Y-128785600D01*
X119150092Y-128785600D01*
X119018308Y-128785600D01*
X119018306Y-128785600D01*
X118891018Y-128819706D01*
X118891009Y-128819710D01*
X118776885Y-128885600D01*
X118683700Y-128978785D01*
X118617810Y-129092909D01*
X118617806Y-129092918D01*
X118583700Y-129220205D01*
X118583700Y-129351994D01*
X118617806Y-129479281D01*
X118617810Y-129479290D01*
X118670404Y-129570385D01*
X118683700Y-129593414D01*
X118776886Y-129686600D01*
X118891014Y-129752492D01*
X119018305Y-129786599D01*
X119018306Y-129786600D01*
X119129077Y-129786600D01*
X119181403Y-129808274D01*
X121267826Y-131894697D01*
X121289500Y-131947023D01*
X121289500Y-132715500D01*
X121267826Y-132767826D01*
X121215500Y-132789500D01*
X120570246Y-132789500D01*
X120568783Y-132789644D01*
X120561536Y-132790000D01*
X120390000Y-132790000D01*
X120372326Y-132807674D01*
X120320000Y-132829348D01*
X120267674Y-132807674D01*
X120250000Y-132790000D01*
X120078464Y-132790000D01*
X120071217Y-132789644D01*
X120069754Y-132789500D01*
X120069748Y-132789500D01*
X119424500Y-132789500D01*
X119372174Y-132767826D01*
X119350500Y-132715500D01*
X119350500Y-132648736D01*
X119350499Y-132648735D01*
X119349912Y-132646546D01*
X119339037Y-132605959D01*
X119330022Y-132572314D01*
X119330020Y-132572309D01*
X119302814Y-132525187D01*
X119290460Y-132503789D01*
X119234511Y-132447840D01*
X119228362Y-132444290D01*
X119165990Y-132408279D01*
X119165985Y-132408277D01*
X119089564Y-132387800D01*
X119089562Y-132387800D01*
X119000123Y-132387800D01*
X118947797Y-132366126D01*
X118857174Y-132275503D01*
X118835500Y-132223177D01*
X118835500Y-132112406D01*
X118835499Y-132112405D01*
X118801393Y-131985118D01*
X118801392Y-131985114D01*
X118735500Y-131870986D01*
X118642314Y-131777800D01*
X118598209Y-131752336D01*
X118528190Y-131711910D01*
X118528181Y-131711906D01*
X118400894Y-131677800D01*
X118400892Y-131677800D01*
X118269108Y-131677800D01*
X118269106Y-131677800D01*
X118141818Y-131711906D01*
X118141809Y-131711910D01*
X118023486Y-131780225D01*
X118022497Y-131778513D01*
X117974330Y-131791412D01*
X117925285Y-131763086D01*
X117910000Y-131718046D01*
X117910000Y-130300001D01*
X117910000Y-130300000D01*
X117906157Y-130260982D01*
X117894776Y-130223463D01*
X117876294Y-130188886D01*
X117851421Y-130158579D01*
X117821114Y-130133706D01*
X117786537Y-130115224D01*
X117760400Y-130107295D01*
X117749019Y-130103843D01*
X117729509Y-130101921D01*
X117710000Y-130100000D01*
X117709999Y-130100000D01*
X115327700Y-130100000D01*
X115275374Y-130078326D01*
X115253700Y-130026000D01*
X115253700Y-127581922D01*
X115275373Y-127529597D01*
X116009787Y-126795182D01*
X116062112Y-126773509D01*
X116090430Y-126779142D01*
X116206970Y-126827414D01*
X116218165Y-126832051D01*
X116411459Y-126870500D01*
X116411461Y-126870500D01*
X116608539Y-126870500D01*
X116608541Y-126870500D01*
X116801835Y-126832051D01*
X116983914Y-126756632D01*
X117147782Y-126647139D01*
X117287139Y-126507782D01*
X117396632Y-126343914D01*
X117449540Y-126216181D01*
X117489588Y-126176133D01*
X117517907Y-126170500D01*
X118821264Y-126170500D01*
X118821264Y-126170499D01*
X118897689Y-126150021D01*
X118966211Y-126110460D01*
X119022160Y-126054511D01*
X120240460Y-124836211D01*
X120264587Y-124794421D01*
X120280021Y-124767689D01*
X120300499Y-124691264D01*
X120300500Y-124691264D01*
X120300500Y-124624500D01*
X120322174Y-124572174D01*
X120374500Y-124550500D01*
X120819754Y-124550500D01*
X120821217Y-124550356D01*
X120828464Y-124550000D01*
X121000000Y-124550000D01*
X121000000Y-124378459D01*
X121000003Y-124377773D01*
X121000056Y-124371976D01*
X121000500Y-124369748D01*
X121000500Y-124324137D01*
X121000503Y-124323814D01*
X121011469Y-124298018D01*
X121022174Y-124272174D01*
X121022515Y-124272032D01*
X121022661Y-124271691D01*
X121048652Y-124261206D01*
X121074500Y-124250500D01*
X121141264Y-124250500D01*
X121141264Y-124250499D01*
X121217689Y-124230021D01*
X121286211Y-124190460D01*
X121342160Y-124134511D01*
X121381721Y-124065989D01*
X121402199Y-123989564D01*
X121402200Y-123989564D01*
X121402200Y-115105123D01*
X121423874Y-115052797D01*
X123271223Y-113205448D01*
X125178360Y-111298311D01*
X125203076Y-111255501D01*
X125217921Y-111229789D01*
X125238399Y-111153364D01*
X125238400Y-111153364D01*
X125238400Y-107132158D01*
X125260074Y-107079832D01*
X125312400Y-107058158D01*
X125326829Y-107059579D01*
X125331459Y-107060500D01*
X125331463Y-107060500D01*
X125528539Y-107060500D01*
X125528541Y-107060500D01*
X125721835Y-107022051D01*
X125903914Y-106946632D01*
X126067782Y-106837139D01*
X126182074Y-106722847D01*
X126234400Y-106701173D01*
X126286726Y-106722847D01*
X126308400Y-106775173D01*
X126308400Y-112165977D01*
X126286726Y-112218303D01*
X122277440Y-116227588D01*
X122237879Y-116296109D01*
X122237877Y-116296114D01*
X122217400Y-116372535D01*
X122217400Y-129439734D01*
X122195726Y-129492060D01*
X122117400Y-129570385D01*
X122051510Y-129684509D01*
X122051506Y-129684518D01*
X122017400Y-129811805D01*
X122017400Y-129943594D01*
X122051506Y-130070881D01*
X122051510Y-130070890D01*
X122077107Y-130115225D01*
X122117400Y-130185014D01*
X122210586Y-130278200D01*
X122324714Y-130344092D01*
X122452005Y-130378199D01*
X122452006Y-130378200D01*
X122452008Y-130378200D01*
X122583794Y-130378200D01*
X122583794Y-130378199D01*
X122711086Y-130344092D01*
X122825214Y-130278200D01*
X122918400Y-130185014D01*
X122984292Y-130070886D01*
X123018399Y-129943594D01*
X123018400Y-129943594D01*
X123018400Y-129811806D01*
X123018399Y-129811805D01*
X123011645Y-129786600D01*
X122984292Y-129684514D01*
X122918400Y-129570386D01*
X122840074Y-129492060D01*
X122818400Y-129439734D01*
X122818400Y-116567222D01*
X122840073Y-116514897D01*
X126849360Y-112505611D01*
X126888922Y-112437088D01*
X126909400Y-112360662D01*
X126909400Y-112281538D01*
X126909400Y-68299338D01*
X126909400Y-68299336D01*
X126909399Y-68299335D01*
X126888922Y-68222914D01*
X126888920Y-68222909D01*
X126878320Y-68204549D01*
X126849360Y-68154389D01*
X126793411Y-68098440D01*
X125876281Y-67181310D01*
X127099500Y-67181310D01*
X127099500Y-67358689D01*
X127134104Y-67532660D01*
X127134107Y-67532670D01*
X127201985Y-67696544D01*
X127201986Y-67696546D01*
X127201987Y-67696547D01*
X127300536Y-67844035D01*
X127425965Y-67969464D01*
X127573453Y-68068013D01*
X127737334Y-68135894D01*
X127911309Y-68170500D01*
X127911311Y-68170500D01*
X128088689Y-68170500D01*
X128088691Y-68170500D01*
X128262666Y-68135894D01*
X128426547Y-68068013D01*
X128574035Y-67969464D01*
X128699464Y-67844035D01*
X128798013Y-67696547D01*
X128865894Y-67532666D01*
X128900500Y-67358691D01*
X128900500Y-67181309D01*
X128865894Y-67007334D01*
X128798013Y-66843453D01*
X128699464Y-66695965D01*
X128574035Y-66570536D01*
X128426547Y-66471987D01*
X128426546Y-66471986D01*
X128426544Y-66471985D01*
X128262670Y-66404107D01*
X128262660Y-66404104D01*
X128146156Y-66380930D01*
X128088691Y-66369500D01*
X127911309Y-66369500D01*
X127861989Y-66379310D01*
X127737339Y-66404104D01*
X127737329Y-66404107D01*
X127573455Y-66471985D01*
X127425968Y-66570533D01*
X127300533Y-66695968D01*
X127201985Y-66843455D01*
X127134107Y-67007329D01*
X127134104Y-67007339D01*
X127099500Y-67181310D01*
X125876281Y-67181310D01*
X123848646Y-65153675D01*
X123826972Y-65101349D01*
X123832603Y-65073036D01*
X123865894Y-64992666D01*
X123900500Y-64818691D01*
X123900500Y-64641309D01*
X123865894Y-64467334D01*
X123798013Y-64303453D01*
X123699464Y-64155965D01*
X123574035Y-64030536D01*
X123426547Y-63931987D01*
X123426546Y-63931986D01*
X123426544Y-63931985D01*
X123262670Y-63864107D01*
X123262660Y-63864104D01*
X123146156Y-63840930D01*
X123088691Y-63829500D01*
X122911309Y-63829500D01*
X122861989Y-63839310D01*
X122737339Y-63864104D01*
X122737329Y-63864107D01*
X122573455Y-63931985D01*
X122425968Y-64030533D01*
X122300533Y-64155968D01*
X122201985Y-64303455D01*
X122134107Y-64467329D01*
X122134104Y-64467339D01*
X122099500Y-64641310D01*
X122099500Y-64818689D01*
X122134104Y-64992660D01*
X122134107Y-64992670D01*
X122201985Y-65156544D01*
X122201986Y-65156546D01*
X122201987Y-65156547D01*
X122300536Y-65304035D01*
X122425965Y-65429464D01*
X122573453Y-65528013D01*
X122573454Y-65528013D01*
X122573455Y-65528014D01*
X122656966Y-65562605D01*
X122737334Y-65595894D01*
X122911309Y-65630500D01*
X122911311Y-65630500D01*
X123088689Y-65630500D01*
X123088691Y-65630500D01*
X123262666Y-65595894D01*
X123343033Y-65562605D01*
X123399667Y-65562605D01*
X123423675Y-65578646D01*
X126286726Y-68441697D01*
X126308400Y-68494023D01*
X126308400Y-105344827D01*
X126286726Y-105397153D01*
X126234400Y-105418827D01*
X126182074Y-105397153D01*
X126067781Y-105282860D01*
X125903913Y-105173367D01*
X125721839Y-105097950D01*
X125721829Y-105097947D01*
X125588441Y-105071415D01*
X125528541Y-105059500D01*
X125331459Y-105059500D01*
X125276662Y-105070399D01*
X125138170Y-105097947D01*
X125138160Y-105097950D01*
X124956086Y-105173367D01*
X124792218Y-105282860D01*
X124792217Y-105282862D01*
X124741301Y-105333778D01*
X124688975Y-105355452D01*
X124636649Y-105333778D01*
X124452174Y-105149303D01*
X124430500Y-105096977D01*
X124430500Y-92877906D01*
X124452174Y-92825580D01*
X124476180Y-92809539D01*
X124603914Y-92756632D01*
X124767782Y-92647139D01*
X124907139Y-92507782D01*
X125016632Y-92343914D01*
X125092051Y-92161835D01*
X125130500Y-91968541D01*
X125130500Y-91771459D01*
X125092051Y-91578165D01*
X125016632Y-91396086D01*
X124907139Y-91232218D01*
X124767782Y-91092861D01*
X124725936Y-91064900D01*
X124603913Y-90983367D01*
X124421839Y-90907950D01*
X124421829Y-90907947D01*
X124292388Y-90882200D01*
X124228541Y-90869500D01*
X124031459Y-90869500D01*
X123976662Y-90880399D01*
X123838170Y-90907947D01*
X123838160Y-90907950D01*
X123710431Y-90960857D01*
X123653794Y-90960857D01*
X123629787Y-90944816D01*
X115562174Y-82877203D01*
X115540500Y-82824877D01*
X115540500Y-77223838D01*
X115562174Y-77171512D01*
X115614500Y-77149838D01*
X115666826Y-77171512D01*
X115676026Y-77182722D01*
X115732861Y-77267782D01*
X115872218Y-77407139D01*
X116036086Y-77516632D01*
X116218165Y-77592051D01*
X116411459Y-77630500D01*
X116411461Y-77630500D01*
X116608539Y-77630500D01*
X116608541Y-77630500D01*
X116801835Y-77592051D01*
X116983914Y-77516632D01*
X117147782Y-77407139D01*
X117287139Y-77267782D01*
X117396632Y-77103914D01*
X117472051Y-76921835D01*
X117510500Y-76728541D01*
X117510500Y-76531460D01*
X118049500Y-76531460D01*
X118049500Y-76728539D01*
X118087947Y-76921829D01*
X118087950Y-76921839D01*
X118163367Y-77103913D01*
X118243499Y-77223838D01*
X118272861Y-77267782D01*
X118412218Y-77407139D01*
X118576086Y-77516632D01*
X118758165Y-77592051D01*
X118951459Y-77630500D01*
X118951461Y-77630500D01*
X119148539Y-77630500D01*
X119148541Y-77630500D01*
X119341835Y-77592051D01*
X119523914Y-77516632D01*
X119687782Y-77407139D01*
X119827139Y-77267782D01*
X119936632Y-77103914D01*
X120012051Y-76921835D01*
X120050500Y-76728541D01*
X120050500Y-76531460D01*
X120589500Y-76531460D01*
X120589500Y-76728539D01*
X120627947Y-76921829D01*
X120627950Y-76921839D01*
X120703367Y-77103913D01*
X120783499Y-77223838D01*
X120812861Y-77267782D01*
X120952218Y-77407139D01*
X121116086Y-77516632D01*
X121298165Y-77592051D01*
X121491459Y-77630500D01*
X121491461Y-77630500D01*
X121688539Y-77630500D01*
X121688541Y-77630500D01*
X121881835Y-77592051D01*
X122063914Y-77516632D01*
X122227782Y-77407139D01*
X122367139Y-77267782D01*
X122476632Y-77103914D01*
X122552051Y-76921835D01*
X122590500Y-76728541D01*
X122590500Y-76531459D01*
X122552051Y-76338165D01*
X122476632Y-76156086D01*
X122367139Y-75992218D01*
X122227782Y-75852861D01*
X122063914Y-75743368D01*
X122063915Y-75743368D01*
X122063913Y-75743367D01*
X121881839Y-75667950D01*
X121881829Y-75667947D01*
X121752388Y-75642200D01*
X121688541Y-75629500D01*
X121491459Y-75629500D01*
X121436662Y-75640399D01*
X121298170Y-75667947D01*
X121298160Y-75667950D01*
X121116086Y-75743367D01*
X120952218Y-75852860D01*
X120952217Y-75852862D01*
X120812862Y-75992217D01*
X120812860Y-75992218D01*
X120703367Y-76156086D01*
X120627950Y-76338160D01*
X120627947Y-76338170D01*
X120589500Y-76531460D01*
X120050500Y-76531460D01*
X120050500Y-76531459D01*
X120012051Y-76338165D01*
X119936632Y-76156086D01*
X119827139Y-75992218D01*
X119687782Y-75852861D01*
X119523914Y-75743368D01*
X119523911Y-75743366D01*
X119523910Y-75743366D01*
X119396181Y-75690459D01*
X119385773Y-75680050D01*
X119372174Y-75674418D01*
X119366540Y-75660817D01*
X119356133Y-75650410D01*
X119350500Y-75622092D01*
X119350500Y-75585122D01*
X119372173Y-75532797D01*
X120306324Y-74598645D01*
X120358649Y-74576972D01*
X120386964Y-74582604D01*
X120467334Y-74615894D01*
X120641309Y-74650500D01*
X120641311Y-74650500D01*
X120818689Y-74650500D01*
X120818691Y-74650500D01*
X120992666Y-74615894D01*
X121156547Y-74548013D01*
X121304035Y-74449464D01*
X121429464Y-74324035D01*
X121528013Y-74176547D01*
X121595894Y-74012666D01*
X121630500Y-73838691D01*
X121630500Y-73661310D01*
X122369500Y-73661310D01*
X122369500Y-73838689D01*
X122404104Y-74012660D01*
X122404107Y-74012670D01*
X122471985Y-74176544D01*
X122471986Y-74176546D01*
X122471987Y-74176547D01*
X122570536Y-74324035D01*
X122695965Y-74449464D01*
X122843453Y-74548013D01*
X122843454Y-74548013D01*
X122843455Y-74548014D01*
X122965693Y-74598646D01*
X123007334Y-74615894D01*
X123181309Y-74650500D01*
X123181311Y-74650500D01*
X123358689Y-74650500D01*
X123358691Y-74650500D01*
X123532666Y-74615894D01*
X123696547Y-74548013D01*
X123844035Y-74449464D01*
X123969464Y-74324035D01*
X124068013Y-74176547D01*
X124135894Y-74012666D01*
X124170500Y-73838691D01*
X124170500Y-73661309D01*
X124135894Y-73487334D01*
X124068013Y-73323453D01*
X123969464Y-73175965D01*
X123844035Y-73050536D01*
X123696547Y-72951987D01*
X123696546Y-72951986D01*
X123696544Y-72951985D01*
X123532670Y-72884107D01*
X123532660Y-72884104D01*
X123416156Y-72860930D01*
X123358691Y-72849500D01*
X123181309Y-72849500D01*
X123131989Y-72859310D01*
X123007339Y-72884104D01*
X123007329Y-72884107D01*
X122843455Y-72951985D01*
X122695968Y-73050533D01*
X122570533Y-73175968D01*
X122471985Y-73323455D01*
X122404107Y-73487329D01*
X122404104Y-73487339D01*
X122369500Y-73661310D01*
X121630500Y-73661310D01*
X121630500Y-73661309D01*
X121595894Y-73487334D01*
X121528013Y-73323453D01*
X121429464Y-73175965D01*
X121304035Y-73050536D01*
X121156547Y-72951987D01*
X121156546Y-72951986D01*
X121156544Y-72951985D01*
X120992670Y-72884107D01*
X120992660Y-72884104D01*
X120876156Y-72860930D01*
X120818691Y-72849500D01*
X120641309Y-72849500D01*
X120591989Y-72859310D01*
X120467339Y-72884104D01*
X120467329Y-72884107D01*
X120303455Y-72951985D01*
X120155968Y-73050533D01*
X120030533Y-73175968D01*
X119931985Y-73323455D01*
X119864107Y-73487329D01*
X119864104Y-73487339D01*
X119829500Y-73661310D01*
X119829500Y-73838689D01*
X119864104Y-74012660D01*
X119864105Y-74012662D01*
X119864106Y-74012666D01*
X119864108Y-74012670D01*
X119897394Y-74093032D01*
X119897393Y-74149669D01*
X119881352Y-74173675D01*
X118865489Y-75189540D01*
X118809540Y-75245488D01*
X118769979Y-75314009D01*
X118769977Y-75314014D01*
X118749500Y-75390435D01*
X118749500Y-75622092D01*
X118727826Y-75674418D01*
X118703819Y-75690459D01*
X118576089Y-75743366D01*
X118412218Y-75852860D01*
X118412217Y-75852862D01*
X118272862Y-75992217D01*
X118272860Y-75992218D01*
X118163367Y-76156086D01*
X118087950Y-76338160D01*
X118087947Y-76338170D01*
X118049500Y-76531460D01*
X117510500Y-76531460D01*
X117510500Y-76531459D01*
X117472051Y-76338165D01*
X117396632Y-76156086D01*
X117287139Y-75992218D01*
X117147782Y-75852861D01*
X116983914Y-75743368D01*
X116983915Y-75743368D01*
X116983913Y-75743367D01*
X116801839Y-75667950D01*
X116801829Y-75667947D01*
X116672388Y-75642200D01*
X116608541Y-75629500D01*
X116411459Y-75629500D01*
X116356662Y-75640399D01*
X116218170Y-75667947D01*
X116218160Y-75667950D01*
X116090431Y-75720857D01*
X116033794Y-75720857D01*
X116009787Y-75704816D01*
X115052174Y-74747203D01*
X115030500Y-74694877D01*
X115030500Y-74649667D01*
X115052174Y-74597341D01*
X115076179Y-74581301D01*
X115156547Y-74548013D01*
X115304035Y-74449464D01*
X115429464Y-74324035D01*
X115528013Y-74176547D01*
X115595894Y-74012666D01*
X115630500Y-73838691D01*
X115630500Y-73661309D01*
X115595894Y-73487334D01*
X115528013Y-73323453D01*
X115429464Y-73175965D01*
X115304035Y-73050536D01*
X115156547Y-72951987D01*
X115156546Y-72951986D01*
X115156544Y-72951985D01*
X114992670Y-72884107D01*
X114992660Y-72884104D01*
X114876156Y-72860930D01*
X114818691Y-72849500D01*
X114641309Y-72849500D01*
X114591989Y-72859310D01*
X114467339Y-72884104D01*
X114467329Y-72884107D01*
X114303455Y-72951985D01*
X114155968Y-73050533D01*
X114030533Y-73175968D01*
X113931985Y-73323455D01*
X113864107Y-73487329D01*
X113864104Y-73487339D01*
X113829500Y-73661310D01*
X113829500Y-73838689D01*
X113864104Y-74012660D01*
X113864107Y-74012670D01*
X113931985Y-74176544D01*
X113931986Y-74176546D01*
X113931987Y-74176547D01*
X114030536Y-74324035D01*
X114155965Y-74449464D01*
X114303453Y-74548013D01*
X114383818Y-74581300D01*
X114423867Y-74621347D01*
X114429500Y-74649667D01*
X114429500Y-74840877D01*
X114407826Y-74893203D01*
X114355500Y-74914877D01*
X114303174Y-74893203D01*
X112132174Y-72722203D01*
X112110500Y-72669877D01*
X112110500Y-70817906D01*
X112132174Y-70765580D01*
X112156180Y-70749539D01*
X112283914Y-70696632D01*
X112447782Y-70587139D01*
X112587139Y-70447782D01*
X112696632Y-70283914D01*
X112772051Y-70101835D01*
X112810500Y-69908541D01*
X112810500Y-69711459D01*
X112772051Y-69518165D01*
X112696632Y-69336086D01*
X112587139Y-69172218D01*
X112447782Y-69032861D01*
X112283914Y-68923368D01*
X112283915Y-68923368D01*
X112283913Y-68923367D01*
X112101839Y-68847950D01*
X112101829Y-68847947D01*
X111972388Y-68822200D01*
X111908541Y-68809500D01*
X111711459Y-68809500D01*
X111656662Y-68820399D01*
X111518170Y-68847947D01*
X111518160Y-68847950D01*
X111336086Y-68923367D01*
X111172218Y-69032860D01*
X111172217Y-69032862D01*
X111032862Y-69172217D01*
X111032860Y-69172218D01*
X110923367Y-69336086D01*
X110847950Y-69518160D01*
X110847947Y-69518170D01*
X110809500Y-69711460D01*
X110809500Y-69908539D01*
X110847947Y-70101829D01*
X110847950Y-70101839D01*
X110923367Y-70283913D01*
X110964267Y-70345123D01*
X111032861Y-70447782D01*
X111172218Y-70587139D01*
X111336086Y-70696632D01*
X111463818Y-70749539D01*
X111503867Y-70789587D01*
X111509500Y-70817906D01*
X111509500Y-72864564D01*
X111529977Y-72940985D01*
X111529977Y-72940986D01*
X111529979Y-72940989D01*
X111536329Y-72951987D01*
X111569540Y-73009511D01*
X114063203Y-75503174D01*
X114084877Y-75555500D01*
X114063203Y-75607826D01*
X114010877Y-75629500D01*
X113871459Y-75629500D01*
X113816662Y-75640399D01*
X113678170Y-75667947D01*
X113678160Y-75667950D01*
X113496086Y-75743367D01*
X113332218Y-75852860D01*
X113332217Y-75852862D01*
X113192862Y-75992217D01*
X113192860Y-75992218D01*
X113083367Y-76156086D01*
X113007950Y-76338160D01*
X113007947Y-76338170D01*
X112969500Y-76531460D01*
X112969500Y-76728539D01*
X113007947Y-76921829D01*
X113007950Y-76921839D01*
X113083367Y-77103913D01*
X113163499Y-77223838D01*
X113192861Y-77267782D01*
X113332218Y-77407139D01*
X113496086Y-77516632D01*
X113678165Y-77592051D01*
X113871459Y-77630500D01*
X113871461Y-77630500D01*
X114068539Y-77630500D01*
X114068541Y-77630500D01*
X114261835Y-77592051D01*
X114443914Y-77516632D01*
X114607782Y-77407139D01*
X114747139Y-77267782D01*
X114803971Y-77182725D01*
X114851063Y-77151260D01*
X114906612Y-77162309D01*
X114938078Y-77209401D01*
X114939500Y-77223838D01*
X114939500Y-83019564D01*
X114959977Y-83095985D01*
X114959979Y-83095990D01*
X114999540Y-83164511D01*
X123204816Y-91369787D01*
X123226490Y-91422113D01*
X123220857Y-91450431D01*
X123167950Y-91578160D01*
X123167947Y-91578170D01*
X123129500Y-91771460D01*
X123129500Y-91968539D01*
X123167947Y-92161829D01*
X123167950Y-92161839D01*
X123243367Y-92343913D01*
X123335593Y-92481938D01*
X123352861Y-92507782D01*
X123492218Y-92647139D01*
X123656086Y-92756632D01*
X123783818Y-92809539D01*
X123823867Y-92849587D01*
X123829500Y-92877906D01*
X123829500Y-97801263D01*
X123807826Y-97853589D01*
X123755500Y-97875263D01*
X123703174Y-97853589D01*
X123693971Y-97842375D01*
X123667139Y-97802218D01*
X123527781Y-97662860D01*
X123363913Y-97553367D01*
X123181839Y-97477950D01*
X123181829Y-97477947D01*
X123047023Y-97451133D01*
X122988541Y-97439500D01*
X122791459Y-97439500D01*
X122736662Y-97450399D01*
X122598170Y-97477947D01*
X122598160Y-97477950D01*
X122416086Y-97553367D01*
X122252218Y-97662860D01*
X122252217Y-97662862D01*
X122112862Y-97802217D01*
X122112860Y-97802218D01*
X122003367Y-97966086D01*
X121927950Y-98148160D01*
X121927947Y-98148170D01*
X121889500Y-98341460D01*
X121889500Y-98538539D01*
X121927947Y-98731829D01*
X121927950Y-98731839D01*
X122003367Y-98913913D01*
X122083499Y-99033838D01*
X122112861Y-99077782D01*
X122252218Y-99217139D01*
X122416086Y-99326632D01*
X122598165Y-99402051D01*
X122791459Y-99440500D01*
X122791461Y-99440500D01*
X122988539Y-99440500D01*
X122988541Y-99440500D01*
X123181835Y-99402051D01*
X123363914Y-99326632D01*
X123527782Y-99217139D01*
X123667139Y-99077782D01*
X123693972Y-99037623D01*
X123741063Y-99006158D01*
X123796612Y-99017207D01*
X123828078Y-99064299D01*
X123829500Y-99078736D01*
X123829500Y-105291664D01*
X123849977Y-105368085D01*
X123849978Y-105368086D01*
X123849979Y-105368089D01*
X123859577Y-105384713D01*
X123889540Y-105436611D01*
X124407826Y-105954897D01*
X124429500Y-106007223D01*
X124429500Y-106158539D01*
X124467947Y-106351829D01*
X124467950Y-106351839D01*
X124543366Y-106533911D01*
X124543367Y-106533913D01*
X124543368Y-106533914D01*
X124624929Y-106655978D01*
X124637400Y-106697089D01*
X124637400Y-110958677D01*
X124615726Y-111011003D01*
X121126326Y-114500403D01*
X121074000Y-114522077D01*
X121021674Y-114500403D01*
X121000000Y-114448077D01*
X121000000Y-114178459D01*
X121000357Y-114171203D01*
X121000500Y-114169751D01*
X121000500Y-113330246D01*
X121000356Y-113328783D01*
X121000000Y-113321536D01*
X121000000Y-112978459D01*
X121000003Y-112977773D01*
X121000056Y-112971976D01*
X121000500Y-112969748D01*
X121000500Y-112924137D01*
X121000503Y-112923814D01*
X121011469Y-112898018D01*
X121022174Y-112872174D01*
X121022515Y-112872032D01*
X121022661Y-112871691D01*
X121048652Y-112861206D01*
X121074500Y-112850500D01*
X121141264Y-112850500D01*
X121141264Y-112850499D01*
X121217689Y-112830021D01*
X121286211Y-112790460D01*
X121342160Y-112734511D01*
X121695902Y-112380767D01*
X121748228Y-112359094D01*
X121767375Y-112361614D01*
X121890108Y-112394500D01*
X121890109Y-112394500D01*
X122021894Y-112394500D01*
X122021894Y-112394499D01*
X122149186Y-112360392D01*
X122263314Y-112294500D01*
X122356500Y-112201314D01*
X122422392Y-112087186D01*
X122456499Y-111959894D01*
X122456500Y-111959894D01*
X122456500Y-111828106D01*
X122456499Y-111828105D01*
X122449099Y-111800489D01*
X122422392Y-111700814D01*
X122356500Y-111586686D01*
X122263314Y-111493500D01*
X122149190Y-111427610D01*
X122149181Y-111427606D01*
X122021894Y-111393500D01*
X122021892Y-111393500D01*
X121890108Y-111393500D01*
X121890106Y-111393500D01*
X121762818Y-111427606D01*
X121762809Y-111427610D01*
X121648685Y-111493500D01*
X121555500Y-111586685D01*
X121489608Y-111700812D01*
X121489607Y-111700816D01*
X121481450Y-111731258D01*
X121462298Y-111764430D01*
X121126326Y-112100402D01*
X121074000Y-112122076D01*
X121021674Y-112100402D01*
X121000000Y-112048076D01*
X121000000Y-111950000D01*
X120828464Y-111950000D01*
X120821217Y-111949644D01*
X120819754Y-111949500D01*
X120819748Y-111949500D01*
X119180252Y-111949500D01*
X119180246Y-111949500D01*
X119178783Y-111949644D01*
X119171536Y-111950000D01*
X119000000Y-111950000D01*
X119000000Y-112121536D01*
X118999644Y-112128783D01*
X118999500Y-112130246D01*
X118999500Y-112969751D01*
X118999643Y-112971203D01*
X119000000Y-112978459D01*
X119000000Y-113248077D01*
X118978326Y-113300403D01*
X118926000Y-113322077D01*
X118873674Y-113300403D01*
X117329597Y-111756326D01*
X117307923Y-111704000D01*
X117329597Y-111651674D01*
X117381923Y-111630000D01*
X117510000Y-111630000D01*
X117510000Y-111458459D01*
X117510357Y-111451203D01*
X117510500Y-111449751D01*
X117510500Y-109810246D01*
X117510356Y-109808783D01*
X117510000Y-109801536D01*
X117510000Y-109630000D01*
X117338464Y-109630000D01*
X117331217Y-109629644D01*
X117329754Y-109629500D01*
X117329748Y-109629500D01*
X115690252Y-109629500D01*
X115690246Y-109629500D01*
X115688783Y-109629644D01*
X115681536Y-109630000D01*
X115514500Y-109630000D01*
X115462174Y-109608326D01*
X115440500Y-109556000D01*
X115440500Y-107448436D01*
X115440499Y-107448435D01*
X115432639Y-107419103D01*
X115420021Y-107372011D01*
X115380460Y-107303489D01*
X115324511Y-107247540D01*
X115263797Y-107186826D01*
X115242123Y-107134500D01*
X115263797Y-107082174D01*
X115316123Y-107060500D01*
X115368539Y-107060500D01*
X115368541Y-107060500D01*
X115561835Y-107022051D01*
X115743914Y-106946632D01*
X115907782Y-106837139D01*
X116047139Y-106697782D01*
X116156632Y-106533914D01*
X116232051Y-106351835D01*
X116270500Y-106158541D01*
X116270500Y-105961460D01*
X116809500Y-105961460D01*
X116809500Y-106158539D01*
X116847947Y-106351829D01*
X116847950Y-106351839D01*
X116923367Y-106533913D01*
X117004928Y-106655977D01*
X117032861Y-106697782D01*
X117172218Y-106837139D01*
X117336086Y-106946632D01*
X117518165Y-107022051D01*
X117711459Y-107060500D01*
X117711461Y-107060500D01*
X117908539Y-107060500D01*
X117908541Y-107060500D01*
X118101835Y-107022051D01*
X118283914Y-106946632D01*
X118447782Y-106837139D01*
X118587139Y-106697782D01*
X118696632Y-106533914D01*
X118772051Y-106351835D01*
X118810500Y-106158541D01*
X118810500Y-105961460D01*
X119349500Y-105961460D01*
X119349500Y-106158539D01*
X119387947Y-106351829D01*
X119387950Y-106351839D01*
X119463367Y-106533913D01*
X119544928Y-106655977D01*
X119572861Y-106697782D01*
X119712218Y-106837139D01*
X119876086Y-106946632D01*
X120058165Y-107022051D01*
X120251459Y-107060500D01*
X120251461Y-107060500D01*
X120448539Y-107060500D01*
X120448541Y-107060500D01*
X120641835Y-107022051D01*
X120823914Y-106946632D01*
X120987782Y-106837139D01*
X121127139Y-106697782D01*
X121236632Y-106533914D01*
X121312051Y-106351835D01*
X121350500Y-106158541D01*
X121350500Y-105961460D01*
X121889500Y-105961460D01*
X121889500Y-106158539D01*
X121927947Y-106351829D01*
X121927950Y-106351839D01*
X122003367Y-106533913D01*
X122084928Y-106655977D01*
X122112861Y-106697782D01*
X122252218Y-106837139D01*
X122416086Y-106946632D01*
X122598165Y-107022051D01*
X122791459Y-107060500D01*
X122791461Y-107060500D01*
X122988539Y-107060500D01*
X122988541Y-107060500D01*
X123181835Y-107022051D01*
X123363914Y-106946632D01*
X123527782Y-106837139D01*
X123667139Y-106697782D01*
X123776632Y-106533914D01*
X123852051Y-106351835D01*
X123890500Y-106158541D01*
X123890500Y-105961459D01*
X123852051Y-105768165D01*
X123776632Y-105586086D01*
X123667139Y-105422218D01*
X123527782Y-105282861D01*
X123368692Y-105176560D01*
X123363913Y-105173367D01*
X123181839Y-105097950D01*
X123181829Y-105097947D01*
X123048441Y-105071415D01*
X122988541Y-105059500D01*
X122791459Y-105059500D01*
X122736662Y-105070399D01*
X122598170Y-105097947D01*
X122598160Y-105097950D01*
X122416086Y-105173367D01*
X122252218Y-105282860D01*
X122252217Y-105282862D01*
X122112862Y-105422217D01*
X122112860Y-105422218D01*
X122003367Y-105586086D01*
X121927950Y-105768160D01*
X121927947Y-105768170D01*
X121889500Y-105961460D01*
X121350500Y-105961460D01*
X121350500Y-105961459D01*
X121312051Y-105768165D01*
X121236632Y-105586086D01*
X121127139Y-105422218D01*
X120987782Y-105282861D01*
X120828692Y-105176560D01*
X120823913Y-105173367D01*
X120641839Y-105097950D01*
X120641829Y-105097947D01*
X120508441Y-105071415D01*
X120448541Y-105059500D01*
X120251459Y-105059500D01*
X120196662Y-105070399D01*
X120058170Y-105097947D01*
X120058160Y-105097950D01*
X119876086Y-105173367D01*
X119712218Y-105282860D01*
X119712217Y-105282862D01*
X119572862Y-105422217D01*
X119572860Y-105422218D01*
X119463367Y-105586086D01*
X119387950Y-105768160D01*
X119387947Y-105768170D01*
X119349500Y-105961460D01*
X118810500Y-105961460D01*
X118810500Y-105961459D01*
X118772051Y-105768165D01*
X118696632Y-105586086D01*
X118587139Y-105422218D01*
X118447782Y-105282861D01*
X118288692Y-105176560D01*
X118283913Y-105173367D01*
X118101839Y-105097950D01*
X118101829Y-105097947D01*
X117968441Y-105071415D01*
X117908541Y-105059500D01*
X117711459Y-105059500D01*
X117656662Y-105070399D01*
X117518170Y-105097947D01*
X117518160Y-105097950D01*
X117336086Y-105173367D01*
X117172218Y-105282860D01*
X117172217Y-105282862D01*
X117032862Y-105422217D01*
X117032860Y-105422218D01*
X116923367Y-105586086D01*
X116847950Y-105768160D01*
X116847947Y-105768170D01*
X116809500Y-105961460D01*
X116270500Y-105961460D01*
X116270500Y-105961459D01*
X116232051Y-105768165D01*
X116156632Y-105586086D01*
X116047139Y-105422218D01*
X115907782Y-105282861D01*
X115743914Y-105173368D01*
X115743911Y-105173366D01*
X115743910Y-105173366D01*
X115616181Y-105120459D01*
X115605773Y-105110050D01*
X115592174Y-105104418D01*
X115586540Y-105090817D01*
X115576133Y-105080410D01*
X115570500Y-105052092D01*
X115570500Y-104948822D01*
X115592173Y-104896497D01*
X116554796Y-103933873D01*
X116607122Y-103912200D01*
X116717894Y-103912200D01*
X116717894Y-103912199D01*
X116845186Y-103878092D01*
X116959314Y-103812200D01*
X117052500Y-103719014D01*
X117118392Y-103604886D01*
X117152499Y-103477594D01*
X117152500Y-103477594D01*
X117152500Y-103345806D01*
X117152499Y-103345805D01*
X117118393Y-103218518D01*
X117118392Y-103218514D01*
X117052500Y-103104386D01*
X116959314Y-103011200D01*
X116845190Y-102945310D01*
X116845181Y-102945306D01*
X116717894Y-102911200D01*
X116717892Y-102911200D01*
X116586108Y-102911200D01*
X116467189Y-102943064D01*
X116411037Y-102935671D01*
X116376558Y-102890737D01*
X116383951Y-102834585D01*
X116395708Y-102819261D01*
X119849787Y-99365182D01*
X119902112Y-99343509D01*
X119930430Y-99349142D01*
X120058160Y-99402049D01*
X120058165Y-99402051D01*
X120251459Y-99440500D01*
X120251461Y-99440500D01*
X120448539Y-99440500D01*
X120448541Y-99440500D01*
X120641835Y-99402051D01*
X120823914Y-99326632D01*
X120987782Y-99217139D01*
X121127139Y-99077782D01*
X121236632Y-98913914D01*
X121312051Y-98731835D01*
X121350500Y-98538541D01*
X121350500Y-98341459D01*
X121312051Y-98148165D01*
X121236632Y-97966086D01*
X121127139Y-97802218D01*
X120987782Y-97662861D01*
X120979351Y-97657227D01*
X120823913Y-97553367D01*
X120641839Y-97477950D01*
X120641829Y-97477947D01*
X120507023Y-97451133D01*
X120448541Y-97439500D01*
X120251459Y-97439500D01*
X120196662Y-97450399D01*
X120058170Y-97477947D01*
X120058160Y-97477950D01*
X119876086Y-97553367D01*
X119712218Y-97662860D01*
X119712217Y-97662862D01*
X119572862Y-97802217D01*
X119572860Y-97802218D01*
X119463367Y-97966086D01*
X119387950Y-98148160D01*
X119387947Y-98148170D01*
X119349500Y-98341460D01*
X119349500Y-98538539D01*
X119387947Y-98731829D01*
X119387950Y-98731839D01*
X119440857Y-98859567D01*
X119440857Y-98916204D01*
X119424816Y-98940211D01*
X114150103Y-104214926D01*
X114097777Y-104236600D01*
X112641336Y-104236600D01*
X112564914Y-104257077D01*
X112564909Y-104257079D01*
X112496388Y-104296640D01*
X111219540Y-105573488D01*
X111208319Y-105592923D01*
X111163384Y-105627400D01*
X111107232Y-105620006D01*
X111079676Y-105588578D01*
X111078345Y-105589290D01*
X111076634Y-105586089D01*
X110967139Y-105422218D01*
X110827781Y-105282860D01*
X110663913Y-105173367D01*
X110481839Y-105097950D01*
X110481829Y-105097947D01*
X110348441Y-105071415D01*
X110288541Y-105059500D01*
X110196722Y-105059500D01*
X110144396Y-105037826D01*
X110122722Y-104985500D01*
X110144396Y-104933174D01*
X115213697Y-99863874D01*
X115266023Y-99842200D01*
X116747864Y-99842200D01*
X116747864Y-99842199D01*
X116824289Y-99821721D01*
X116892811Y-99782160D01*
X116948760Y-99726211D01*
X117309787Y-99365182D01*
X117362113Y-99343509D01*
X117390431Y-99349141D01*
X117518165Y-99402051D01*
X117711459Y-99440500D01*
X117711461Y-99440500D01*
X117908539Y-99440500D01*
X117908541Y-99440500D01*
X118101835Y-99402051D01*
X118283914Y-99326632D01*
X118447782Y-99217139D01*
X118587139Y-99077782D01*
X118696632Y-98913914D01*
X118772051Y-98731835D01*
X118810500Y-98538541D01*
X118810500Y-98341459D01*
X118772051Y-98148165D01*
X118696632Y-97966086D01*
X118587139Y-97802218D01*
X118447782Y-97662861D01*
X118439351Y-97657227D01*
X118283913Y-97553367D01*
X118101839Y-97477950D01*
X118101829Y-97477947D01*
X117967023Y-97451133D01*
X117908541Y-97439500D01*
X117711459Y-97439500D01*
X117656662Y-97450399D01*
X117518170Y-97477947D01*
X117518160Y-97477950D01*
X117336086Y-97553367D01*
X117172218Y-97662860D01*
X117172217Y-97662862D01*
X117032862Y-97802217D01*
X117032860Y-97802218D01*
X116923367Y-97966086D01*
X116847950Y-98148160D01*
X116847947Y-98148170D01*
X116809500Y-98341460D01*
X116809500Y-98538539D01*
X116847947Y-98731829D01*
X116847950Y-98731839D01*
X116900857Y-98859567D01*
X116900857Y-98916204D01*
X116884816Y-98940211D01*
X116605503Y-99219526D01*
X116553177Y-99241200D01*
X116062373Y-99241200D01*
X116010047Y-99219526D01*
X115988373Y-99167200D01*
X116010047Y-99114874D01*
X116047138Y-99077783D01*
X116047139Y-99077782D01*
X116156632Y-98913914D01*
X116232051Y-98731835D01*
X116270500Y-98538541D01*
X116270500Y-98341459D01*
X116232051Y-98148165D01*
X116156632Y-97966086D01*
X116047139Y-97802218D01*
X115907782Y-97662861D01*
X115899351Y-97657227D01*
X115743913Y-97553367D01*
X115561839Y-97477950D01*
X115561829Y-97477947D01*
X115427023Y-97451133D01*
X115368541Y-97439500D01*
X115171459Y-97439500D01*
X115116662Y-97450399D01*
X114978170Y-97477947D01*
X114978160Y-97477950D01*
X114850431Y-97530857D01*
X114793794Y-97530857D01*
X114769787Y-97514816D01*
X114292174Y-97037203D01*
X114270500Y-96984877D01*
X114270500Y-95661310D01*
X117829500Y-95661310D01*
X117829500Y-95838689D01*
X117864104Y-96012660D01*
X117864107Y-96012670D01*
X117931985Y-96176544D01*
X117967040Y-96229008D01*
X118030536Y-96324035D01*
X118155965Y-96449464D01*
X118303453Y-96548013D01*
X118303454Y-96548013D01*
X118303455Y-96548014D01*
X118451868Y-96609488D01*
X118467334Y-96615894D01*
X118641309Y-96650500D01*
X118641311Y-96650500D01*
X118818689Y-96650500D01*
X118818691Y-96650500D01*
X118992666Y-96615894D01*
X119156547Y-96548013D01*
X119304035Y-96449464D01*
X119429464Y-96324035D01*
X119528013Y-96176547D01*
X119595894Y-96012666D01*
X119630500Y-95838691D01*
X119630500Y-95661310D01*
X120369500Y-95661310D01*
X120369500Y-95838689D01*
X120404104Y-96012660D01*
X120404107Y-96012670D01*
X120471985Y-96176544D01*
X120507040Y-96229008D01*
X120570536Y-96324035D01*
X120695965Y-96449464D01*
X120843453Y-96548013D01*
X120843454Y-96548013D01*
X120843455Y-96548014D01*
X120991868Y-96609488D01*
X121007334Y-96615894D01*
X121181309Y-96650500D01*
X121181311Y-96650500D01*
X121358689Y-96650500D01*
X121358691Y-96650500D01*
X121532666Y-96615894D01*
X121696547Y-96548013D01*
X121844035Y-96449464D01*
X121969464Y-96324035D01*
X122068013Y-96176547D01*
X122135894Y-96012666D01*
X122170500Y-95838691D01*
X122170500Y-95661309D01*
X122135894Y-95487334D01*
X122068013Y-95323453D01*
X121969464Y-95175965D01*
X121844035Y-95050536D01*
X121696547Y-94951987D01*
X121696546Y-94951986D01*
X121696544Y-94951985D01*
X121532670Y-94884107D01*
X121532660Y-94884104D01*
X121416156Y-94860930D01*
X121358691Y-94849500D01*
X121181309Y-94849500D01*
X121131989Y-94859310D01*
X121007339Y-94884104D01*
X121007329Y-94884107D01*
X120843455Y-94951985D01*
X120695968Y-95050533D01*
X120570533Y-95175968D01*
X120471985Y-95323455D01*
X120404107Y-95487329D01*
X120404104Y-95487339D01*
X120369500Y-95661310D01*
X119630500Y-95661310D01*
X119630500Y-95661309D01*
X119595894Y-95487334D01*
X119528013Y-95323453D01*
X119429464Y-95175965D01*
X119429460Y-95175961D01*
X119372174Y-95118674D01*
X119350500Y-95066349D01*
X119350500Y-92877906D01*
X119372174Y-92825580D01*
X119396180Y-92809539D01*
X119523914Y-92756632D01*
X119687782Y-92647139D01*
X119827139Y-92507782D01*
X119936632Y-92343914D01*
X120012051Y-92161835D01*
X120050500Y-91968541D01*
X120050500Y-91771460D01*
X120589500Y-91771460D01*
X120589500Y-91968539D01*
X120627947Y-92161829D01*
X120627950Y-92161839D01*
X120703367Y-92343913D01*
X120812860Y-92507781D01*
X120952218Y-92647139D01*
X121116086Y-92756632D01*
X121282542Y-92825580D01*
X121298165Y-92832051D01*
X121491459Y-92870500D01*
X121491461Y-92870500D01*
X121688539Y-92870500D01*
X121688541Y-92870500D01*
X121881835Y-92832051D01*
X122063914Y-92756632D01*
X122227782Y-92647139D01*
X122367139Y-92507782D01*
X122476632Y-92343914D01*
X122552051Y-92161835D01*
X122590500Y-91968541D01*
X122590500Y-91771459D01*
X122552051Y-91578165D01*
X122476632Y-91396086D01*
X122367139Y-91232218D01*
X122227782Y-91092861D01*
X122185936Y-91064900D01*
X122063913Y-90983367D01*
X121881839Y-90907950D01*
X121881829Y-90907947D01*
X121752388Y-90882200D01*
X121688541Y-90869500D01*
X121491459Y-90869500D01*
X121436662Y-90880399D01*
X121298170Y-90907947D01*
X121298160Y-90907950D01*
X121116086Y-90983367D01*
X120952218Y-91092860D01*
X120952217Y-91092862D01*
X120812862Y-91232217D01*
X120812860Y-91232218D01*
X120703367Y-91396086D01*
X120627950Y-91578160D01*
X120627947Y-91578170D01*
X120589500Y-91771460D01*
X120050500Y-91771460D01*
X120050500Y-91771459D01*
X120012051Y-91578165D01*
X119936632Y-91396086D01*
X119827139Y-91232218D01*
X119687782Y-91092861D01*
X119645936Y-91064900D01*
X119523913Y-90983367D01*
X119341839Y-90907950D01*
X119341829Y-90907947D01*
X119212388Y-90882200D01*
X119148541Y-90869500D01*
X118951459Y-90869500D01*
X118896662Y-90880399D01*
X118758170Y-90907947D01*
X118758160Y-90907950D01*
X118576086Y-90983367D01*
X118412218Y-91092860D01*
X118412217Y-91092862D01*
X118272862Y-91232217D01*
X118272860Y-91232218D01*
X118163367Y-91396086D01*
X118087950Y-91578160D01*
X118087947Y-91578170D01*
X118049500Y-91771460D01*
X118049500Y-91968539D01*
X118087947Y-92161829D01*
X118087950Y-92161839D01*
X118163367Y-92343913D01*
X118255593Y-92481938D01*
X118272861Y-92507782D01*
X118412218Y-92647139D01*
X118576086Y-92756632D01*
X118703818Y-92809539D01*
X118743867Y-92849587D01*
X118749500Y-92877906D01*
X118749500Y-94775500D01*
X118727826Y-94827826D01*
X118675500Y-94849500D01*
X118641309Y-94849500D01*
X118591989Y-94859310D01*
X118467339Y-94884104D01*
X118467329Y-94884107D01*
X118303455Y-94951985D01*
X118155968Y-95050533D01*
X118030533Y-95175968D01*
X117931985Y-95323455D01*
X117864107Y-95487329D01*
X117864104Y-95487339D01*
X117829500Y-95661310D01*
X114270500Y-95661310D01*
X114270500Y-92877906D01*
X114292174Y-92825580D01*
X114316180Y-92809539D01*
X114443914Y-92756632D01*
X114607782Y-92647139D01*
X114747139Y-92507782D01*
X114856632Y-92343914D01*
X114932051Y-92161835D01*
X114970500Y-91968541D01*
X114970500Y-91771460D01*
X115509500Y-91771460D01*
X115509500Y-91968539D01*
X115547947Y-92161829D01*
X115547950Y-92161839D01*
X115623367Y-92343913D01*
X115732860Y-92507781D01*
X115872218Y-92647139D01*
X116036086Y-92756632D01*
X116202542Y-92825580D01*
X116218165Y-92832051D01*
X116411459Y-92870500D01*
X116411461Y-92870500D01*
X116608539Y-92870500D01*
X116608541Y-92870500D01*
X116801835Y-92832051D01*
X116983914Y-92756632D01*
X117147782Y-92647139D01*
X117287139Y-92507782D01*
X117396632Y-92343914D01*
X117472051Y-92161835D01*
X117510500Y-91968541D01*
X117510500Y-91771459D01*
X117472051Y-91578165D01*
X117396632Y-91396086D01*
X117287139Y-91232218D01*
X117147782Y-91092861D01*
X117105936Y-91064900D01*
X116983913Y-90983367D01*
X116801839Y-90907950D01*
X116801829Y-90907947D01*
X116672388Y-90882200D01*
X116608541Y-90869500D01*
X116411459Y-90869500D01*
X116356662Y-90880399D01*
X116218170Y-90907947D01*
X116218160Y-90907950D01*
X116036086Y-90983367D01*
X115872218Y-91092860D01*
X115872217Y-91092862D01*
X115732862Y-91232217D01*
X115732860Y-91232218D01*
X115623367Y-91396086D01*
X115547950Y-91578160D01*
X115547947Y-91578170D01*
X115509500Y-91771460D01*
X114970500Y-91771460D01*
X114970500Y-91771459D01*
X114932051Y-91578165D01*
X114856632Y-91396086D01*
X114747139Y-91232218D01*
X114607782Y-91092861D01*
X114565936Y-91064900D01*
X114443913Y-90983367D01*
X114261839Y-90907950D01*
X114261829Y-90907947D01*
X114132388Y-90882200D01*
X114068541Y-90869500D01*
X113871459Y-90869500D01*
X113816662Y-90880399D01*
X113678170Y-90907947D01*
X113678160Y-90907950D01*
X113496086Y-90983367D01*
X113332218Y-91092860D01*
X113332217Y-91092862D01*
X113192862Y-91232217D01*
X113192860Y-91232218D01*
X113083367Y-91396086D01*
X113007950Y-91578160D01*
X113007947Y-91578170D01*
X112969500Y-91771460D01*
X112969500Y-91968539D01*
X113007947Y-92161829D01*
X113007950Y-92161839D01*
X113083367Y-92343913D01*
X113175593Y-92481938D01*
X113192861Y-92507782D01*
X113332218Y-92647139D01*
X113496086Y-92756632D01*
X113623818Y-92809539D01*
X113663867Y-92849587D01*
X113669500Y-92877906D01*
X113669500Y-97179564D01*
X113689977Y-97255985D01*
X113689979Y-97255990D01*
X113702982Y-97278511D01*
X113729540Y-97324511D01*
X114344816Y-97939787D01*
X114366490Y-97992113D01*
X114360857Y-98020431D01*
X114307950Y-98148160D01*
X114307947Y-98148170D01*
X114269500Y-98341460D01*
X114269500Y-98538539D01*
X114307947Y-98731829D01*
X114307950Y-98731839D01*
X114383367Y-98913913D01*
X114463499Y-99033838D01*
X114492861Y-99077782D01*
X114632218Y-99217139D01*
X114698164Y-99261203D01*
X114784001Y-99318557D01*
X114815467Y-99365649D01*
X114804418Y-99421198D01*
X114795215Y-99432412D01*
X108737847Y-105489781D01*
X108737841Y-105489787D01*
X108735489Y-105492140D01*
X108679540Y-105548089D01*
X108657843Y-105585667D01*
X108653763Y-105590559D01*
X108633893Y-105600972D01*
X108616095Y-105614630D01*
X108609493Y-105613760D01*
X108603598Y-105616851D01*
X108582185Y-105610165D01*
X108559943Y-105607237D01*
X108553510Y-105601212D01*
X108549535Y-105599971D01*
X108546979Y-105595095D01*
X108535414Y-105584263D01*
X108427139Y-105422218D01*
X108287781Y-105282860D01*
X108123913Y-105173367D01*
X107941839Y-105097950D01*
X107941829Y-105097947D01*
X107808441Y-105071415D01*
X107748541Y-105059500D01*
X107551459Y-105059500D01*
X107496662Y-105070399D01*
X107358170Y-105097947D01*
X107358160Y-105097950D01*
X107176086Y-105173367D01*
X107012218Y-105282860D01*
X107012217Y-105282862D01*
X106872862Y-105422217D01*
X106872860Y-105422218D01*
X106816029Y-105507273D01*
X106768937Y-105538739D01*
X106713388Y-105527690D01*
X106681922Y-105480598D01*
X106680500Y-105466161D01*
X106680500Y-99865122D01*
X106702173Y-99812797D01*
X107149787Y-99365182D01*
X107202113Y-99343509D01*
X107230431Y-99349141D01*
X107358165Y-99402051D01*
X107551459Y-99440500D01*
X107551461Y-99440500D01*
X107748539Y-99440500D01*
X107748541Y-99440500D01*
X107941835Y-99402051D01*
X108123914Y-99326632D01*
X108287782Y-99217139D01*
X108427139Y-99077782D01*
X108536632Y-98913914D01*
X108612051Y-98731835D01*
X108650500Y-98538541D01*
X108650500Y-98341460D01*
X109189500Y-98341460D01*
X109189500Y-98538539D01*
X109227947Y-98731829D01*
X109227950Y-98731839D01*
X109303367Y-98913913D01*
X109383499Y-99033838D01*
X109412861Y-99077782D01*
X109552218Y-99217139D01*
X109716086Y-99326632D01*
X109898165Y-99402051D01*
X110091459Y-99440500D01*
X110091461Y-99440500D01*
X110288539Y-99440500D01*
X110288541Y-99440500D01*
X110481835Y-99402051D01*
X110663914Y-99326632D01*
X110827782Y-99217139D01*
X110967139Y-99077782D01*
X111076632Y-98913914D01*
X111152051Y-98731835D01*
X111190500Y-98538541D01*
X111190500Y-98341459D01*
X111152051Y-98148165D01*
X111076632Y-97966086D01*
X110967139Y-97802218D01*
X110827782Y-97662861D01*
X110819351Y-97657227D01*
X110663913Y-97553367D01*
X110481839Y-97477950D01*
X110481829Y-97477947D01*
X110347023Y-97451133D01*
X110288541Y-97439500D01*
X110091459Y-97439500D01*
X110036662Y-97450399D01*
X109898170Y-97477947D01*
X109898160Y-97477950D01*
X109716086Y-97553367D01*
X109552218Y-97662860D01*
X109552217Y-97662862D01*
X109412862Y-97802217D01*
X109412860Y-97802218D01*
X109303367Y-97966086D01*
X109227950Y-98148160D01*
X109227947Y-98148170D01*
X109189500Y-98341460D01*
X108650500Y-98341460D01*
X108650500Y-98341459D01*
X108612051Y-98148165D01*
X108536632Y-97966086D01*
X108427139Y-97802218D01*
X108287782Y-97662861D01*
X108279351Y-97657227D01*
X108123913Y-97553367D01*
X107941839Y-97477950D01*
X107941829Y-97477947D01*
X107807023Y-97451133D01*
X107748541Y-97439500D01*
X107551459Y-97439500D01*
X107496662Y-97450399D01*
X107358170Y-97477947D01*
X107358160Y-97477950D01*
X107176086Y-97553367D01*
X107012218Y-97662860D01*
X107012217Y-97662862D01*
X106872862Y-97802217D01*
X106872860Y-97802218D01*
X106763367Y-97966086D01*
X106687950Y-98148160D01*
X106687947Y-98148170D01*
X106649500Y-98341460D01*
X106649500Y-98538539D01*
X106687947Y-98731829D01*
X106687950Y-98731839D01*
X106740857Y-98859567D01*
X106740857Y-98916204D01*
X106724816Y-98940211D01*
X106195489Y-99469540D01*
X106139540Y-99525488D01*
X106099979Y-99594009D01*
X106099977Y-99594014D01*
X106079500Y-99670435D01*
X106079500Y-105466161D01*
X106057826Y-105518487D01*
X106005500Y-105540161D01*
X105953174Y-105518487D01*
X105943971Y-105507273D01*
X105887139Y-105422218D01*
X105747781Y-105282860D01*
X105583913Y-105173367D01*
X105401839Y-105097950D01*
X105401829Y-105097947D01*
X105268441Y-105071415D01*
X105208541Y-105059500D01*
X105011459Y-105059500D01*
X104956662Y-105070399D01*
X104818170Y-105097947D01*
X104818160Y-105097950D01*
X104690431Y-105150857D01*
X104633794Y-105150857D01*
X104609787Y-105134816D01*
X104320874Y-104845903D01*
X104299200Y-104793577D01*
X104299200Y-99222773D01*
X104320874Y-99170447D01*
X104373200Y-99148773D01*
X104425526Y-99170447D01*
X104472218Y-99217139D01*
X104636086Y-99326632D01*
X104818165Y-99402051D01*
X105011459Y-99440500D01*
X105011461Y-99440500D01*
X105208539Y-99440500D01*
X105208541Y-99440500D01*
X105401835Y-99402051D01*
X105583914Y-99326632D01*
X105747782Y-99217139D01*
X105887139Y-99077782D01*
X105996632Y-98913914D01*
X106072051Y-98731835D01*
X106110500Y-98538541D01*
X106110500Y-98341459D01*
X106072051Y-98148165D01*
X106019142Y-98020431D01*
X106019142Y-98020430D01*
X106019142Y-97963793D01*
X106035180Y-97939789D01*
X109130460Y-94844511D01*
X109170021Y-94775989D01*
X109190499Y-94699564D01*
X109190500Y-94699564D01*
X109190500Y-92877906D01*
X109212174Y-92825580D01*
X109236180Y-92809539D01*
X109363914Y-92756632D01*
X109527782Y-92647139D01*
X109667139Y-92507782D01*
X109776632Y-92343914D01*
X109852051Y-92161835D01*
X109890500Y-91968541D01*
X109890500Y-91771460D01*
X110429500Y-91771460D01*
X110429500Y-91968539D01*
X110467947Y-92161829D01*
X110467950Y-92161839D01*
X110543367Y-92343913D01*
X110635593Y-92481938D01*
X110652861Y-92507782D01*
X110792218Y-92647139D01*
X110956086Y-92756632D01*
X111083818Y-92809539D01*
X111123867Y-92849587D01*
X111129500Y-92877906D01*
X111129500Y-97179564D01*
X111149977Y-97255985D01*
X111149979Y-97255990D01*
X111162982Y-97278511D01*
X111189540Y-97324511D01*
X111804816Y-97939787D01*
X111826490Y-97992113D01*
X111820857Y-98020431D01*
X111767950Y-98148160D01*
X111767947Y-98148170D01*
X111729500Y-98341460D01*
X111729500Y-98538539D01*
X111767947Y-98731829D01*
X111767950Y-98731839D01*
X111843367Y-98913913D01*
X111923499Y-99033838D01*
X111952861Y-99077782D01*
X112092218Y-99217139D01*
X112256086Y-99326632D01*
X112438165Y-99402051D01*
X112631459Y-99440500D01*
X112631461Y-99440500D01*
X112828539Y-99440500D01*
X112828541Y-99440500D01*
X113021835Y-99402051D01*
X113203914Y-99326632D01*
X113367782Y-99217139D01*
X113507139Y-99077782D01*
X113616632Y-98913914D01*
X113692051Y-98731835D01*
X113730500Y-98538541D01*
X113730500Y-98341459D01*
X113692051Y-98148165D01*
X113616632Y-97966086D01*
X113507139Y-97802218D01*
X113367782Y-97662861D01*
X113359351Y-97657227D01*
X113203913Y-97553367D01*
X113021839Y-97477950D01*
X113021829Y-97477947D01*
X112887023Y-97451133D01*
X112828541Y-97439500D01*
X112631459Y-97439500D01*
X112576662Y-97450399D01*
X112438170Y-97477947D01*
X112438160Y-97477950D01*
X112310431Y-97530857D01*
X112253794Y-97530857D01*
X112229787Y-97514816D01*
X111752174Y-97037203D01*
X111730500Y-96984877D01*
X111730500Y-92877906D01*
X111752174Y-92825580D01*
X111776180Y-92809539D01*
X111903914Y-92756632D01*
X112067782Y-92647139D01*
X112207139Y-92507782D01*
X112316632Y-92343914D01*
X112392051Y-92161835D01*
X112430500Y-91968541D01*
X112430500Y-91771459D01*
X112392051Y-91578165D01*
X112316632Y-91396086D01*
X112207139Y-91232218D01*
X112067782Y-91092861D01*
X112025936Y-91064900D01*
X111903913Y-90983367D01*
X111721839Y-90907950D01*
X111721829Y-90907947D01*
X111592388Y-90882200D01*
X111528541Y-90869500D01*
X111331459Y-90869500D01*
X111276662Y-90880399D01*
X111138170Y-90907947D01*
X111138160Y-90907950D01*
X110956086Y-90983367D01*
X110792218Y-91092860D01*
X110792217Y-91092862D01*
X110652862Y-91232217D01*
X110652860Y-91232218D01*
X110543367Y-91396086D01*
X110467950Y-91578160D01*
X110467947Y-91578170D01*
X110429500Y-91771460D01*
X109890500Y-91771460D01*
X109890500Y-91771459D01*
X109852051Y-91578165D01*
X109776632Y-91396086D01*
X109667139Y-91232218D01*
X109527782Y-91092861D01*
X109485936Y-91064900D01*
X109363913Y-90983367D01*
X109181839Y-90907950D01*
X109181829Y-90907947D01*
X109052388Y-90882200D01*
X108988541Y-90869500D01*
X108791459Y-90869500D01*
X108736662Y-90880399D01*
X108598170Y-90907947D01*
X108598160Y-90907950D01*
X108416086Y-90983367D01*
X108252218Y-91092860D01*
X108252217Y-91092862D01*
X108112862Y-91232217D01*
X108112860Y-91232218D01*
X108003367Y-91396086D01*
X107927950Y-91578160D01*
X107927947Y-91578170D01*
X107889500Y-91771460D01*
X107889500Y-91968539D01*
X107927947Y-92161829D01*
X107927950Y-92161839D01*
X108003367Y-92343913D01*
X108095593Y-92481938D01*
X108112861Y-92507782D01*
X108252218Y-92647139D01*
X108416086Y-92756632D01*
X108543818Y-92809539D01*
X108583867Y-92849587D01*
X108589500Y-92877906D01*
X108589500Y-94504876D01*
X108567826Y-94557202D01*
X105610211Y-97514816D01*
X105557885Y-97536490D01*
X105529567Y-97530857D01*
X105401839Y-97477950D01*
X105401829Y-97477947D01*
X105267023Y-97451133D01*
X105208541Y-97439500D01*
X105011459Y-97439500D01*
X104956662Y-97450399D01*
X104818170Y-97477947D01*
X104818160Y-97477950D01*
X104636086Y-97553367D01*
X104472218Y-97662860D01*
X104472217Y-97662862D01*
X104425526Y-97709553D01*
X104373200Y-97731227D01*
X104320874Y-97709553D01*
X104299200Y-97657227D01*
X104299200Y-94376422D01*
X104320873Y-94324097D01*
X105849787Y-92795182D01*
X105902112Y-92773509D01*
X105930430Y-92779142D01*
X106049498Y-92828461D01*
X106058165Y-92832051D01*
X106251459Y-92870500D01*
X106251461Y-92870500D01*
X106448539Y-92870500D01*
X106448541Y-92870500D01*
X106641835Y-92832051D01*
X106823914Y-92756632D01*
X106987782Y-92647139D01*
X107127139Y-92507782D01*
X107236632Y-92343914D01*
X107312051Y-92161835D01*
X107350500Y-91968541D01*
X107350500Y-91771459D01*
X107312051Y-91578165D01*
X107236632Y-91396086D01*
X107127139Y-91232218D01*
X106987782Y-91092861D01*
X106945936Y-91064900D01*
X106823913Y-90983367D01*
X106641839Y-90907950D01*
X106641829Y-90907947D01*
X106512388Y-90882200D01*
X106448541Y-90869500D01*
X106251459Y-90869500D01*
X106196662Y-90880399D01*
X106058170Y-90907947D01*
X106058160Y-90907950D01*
X105876086Y-90983367D01*
X105712218Y-91092860D01*
X105712217Y-91092862D01*
X105572862Y-91232217D01*
X105572860Y-91232218D01*
X105463367Y-91396086D01*
X105387950Y-91578160D01*
X105387947Y-91578170D01*
X105349500Y-91771460D01*
X105349500Y-91968539D01*
X105387947Y-92161829D01*
X105387950Y-92161839D01*
X105440857Y-92289567D01*
X105440857Y-92346204D01*
X105424816Y-92370211D01*
X103814189Y-93980840D01*
X103758240Y-94036788D01*
X103718679Y-94105309D01*
X103718677Y-94105314D01*
X103698200Y-94181735D01*
X103698200Y-104988264D01*
X103718677Y-105064685D01*
X103718678Y-105064688D01*
X103723895Y-105073723D01*
X103758240Y-105133211D01*
X104184816Y-105559787D01*
X104206490Y-105612113D01*
X104200857Y-105640431D01*
X104147950Y-105768160D01*
X104147947Y-105768170D01*
X104109500Y-105961460D01*
X104109500Y-106158539D01*
X104147947Y-106351829D01*
X104147950Y-106351839D01*
X104223367Y-106533913D01*
X104304928Y-106655977D01*
X104332861Y-106697782D01*
X104472218Y-106837139D01*
X104636086Y-106946632D01*
X104818165Y-107022051D01*
X105011459Y-107060500D01*
X105011461Y-107060500D01*
X105067877Y-107060500D01*
X105120203Y-107082174D01*
X105141877Y-107134500D01*
X105120203Y-107186826D01*
X105105803Y-107201226D01*
X105053477Y-107222900D01*
X90150662Y-107222900D01*
X90071538Y-107222900D01*
X89995112Y-107243378D01*
X89995111Y-107243378D01*
X89995109Y-107243379D01*
X89995107Y-107243380D01*
X89926592Y-107282937D01*
X87115489Y-110094040D01*
X87059539Y-110149989D01*
X87049887Y-110166707D01*
X87004953Y-110201185D01*
X86948801Y-110193791D01*
X86918481Y-110159217D01*
X86918345Y-110159290D01*
X86918032Y-110158705D01*
X86917435Y-110158024D01*
X86916632Y-110156086D01*
X86807139Y-109992218D01*
X86667781Y-109852860D01*
X86503913Y-109743367D01*
X86321839Y-109667950D01*
X86321829Y-109667947D01*
X86180327Y-109639801D01*
X86128541Y-109629500D01*
X85931459Y-109629500D01*
X85879673Y-109639801D01*
X85738170Y-109667947D01*
X85738160Y-109667950D01*
X85556086Y-109743367D01*
X85392218Y-109852860D01*
X85392217Y-109852862D01*
X85316026Y-109929053D01*
X85263700Y-109950727D01*
X85211374Y-109929053D01*
X85189700Y-109876727D01*
X85189700Y-109183022D01*
X85211373Y-109130697D01*
X86635660Y-107706411D01*
X86675222Y-107637888D01*
X86695700Y-107561462D01*
X86695700Y-107482338D01*
X86695700Y-106337762D01*
X86717374Y-106285436D01*
X86769700Y-106263762D01*
X86822026Y-106285436D01*
X86842278Y-106323326D01*
X86847947Y-106351828D01*
X86847950Y-106351839D01*
X86923367Y-106533913D01*
X87004928Y-106655977D01*
X87032861Y-106697782D01*
X87172218Y-106837139D01*
X87336086Y-106946632D01*
X87518165Y-107022051D01*
X87711459Y-107060500D01*
X87711461Y-107060500D01*
X87908539Y-107060500D01*
X87908541Y-107060500D01*
X88101835Y-107022051D01*
X88283914Y-106946632D01*
X88447782Y-106837139D01*
X88587139Y-106697782D01*
X88696632Y-106533914D01*
X88772051Y-106351835D01*
X88810500Y-106158541D01*
X88810500Y-105961459D01*
X88772051Y-105768165D01*
X88719142Y-105640431D01*
X88719142Y-105583794D01*
X88735183Y-105559787D01*
X89009043Y-105285927D01*
X89320460Y-104974511D01*
X89332135Y-104954289D01*
X89360021Y-104905989D01*
X89380499Y-104829564D01*
X89380500Y-104829564D01*
X89380500Y-99033838D01*
X89402174Y-98981512D01*
X89454500Y-98959838D01*
X89506826Y-98981512D01*
X89516026Y-98992722D01*
X89572861Y-99077782D01*
X89712218Y-99217139D01*
X89876086Y-99326632D01*
X90058165Y-99402051D01*
X90251459Y-99440500D01*
X90251461Y-99440500D01*
X90448539Y-99440500D01*
X90448541Y-99440500D01*
X90641835Y-99402051D01*
X90823914Y-99326632D01*
X90987782Y-99217139D01*
X91038374Y-99166547D01*
X91090700Y-99144873D01*
X91143026Y-99166547D01*
X91164700Y-99218873D01*
X91164700Y-104789676D01*
X91143026Y-104842002D01*
X90850211Y-105134816D01*
X90797885Y-105156490D01*
X90769567Y-105150857D01*
X90641839Y-105097950D01*
X90641829Y-105097947D01*
X90508441Y-105071415D01*
X90448541Y-105059500D01*
X90251459Y-105059500D01*
X90196662Y-105070399D01*
X90058170Y-105097947D01*
X90058160Y-105097950D01*
X89876086Y-105173367D01*
X89712218Y-105282860D01*
X89712217Y-105282862D01*
X89572862Y-105422217D01*
X89572860Y-105422218D01*
X89463367Y-105586086D01*
X89387950Y-105768160D01*
X89387947Y-105768170D01*
X89349500Y-105961460D01*
X89349500Y-106158539D01*
X89387947Y-106351829D01*
X89387950Y-106351839D01*
X89463367Y-106533913D01*
X89544928Y-106655977D01*
X89572861Y-106697782D01*
X89712218Y-106837139D01*
X89876086Y-106946632D01*
X90058165Y-107022051D01*
X90251459Y-107060500D01*
X90251461Y-107060500D01*
X90448539Y-107060500D01*
X90448541Y-107060500D01*
X90641835Y-107022051D01*
X90823914Y-106946632D01*
X90987782Y-106837139D01*
X91127139Y-106697782D01*
X91236632Y-106533914D01*
X91312051Y-106351835D01*
X91350500Y-106158541D01*
X91350500Y-105961460D01*
X91889500Y-105961460D01*
X91889500Y-106158539D01*
X91927947Y-106351829D01*
X91927950Y-106351839D01*
X92003367Y-106533913D01*
X92084928Y-106655977D01*
X92112861Y-106697782D01*
X92252218Y-106837139D01*
X92416086Y-106946632D01*
X92598165Y-107022051D01*
X92791459Y-107060500D01*
X92791461Y-107060500D01*
X92988539Y-107060500D01*
X92988541Y-107060500D01*
X93181835Y-107022051D01*
X93363914Y-106946632D01*
X93527782Y-106837139D01*
X93667139Y-106697782D01*
X93776632Y-106533914D01*
X93852051Y-106351835D01*
X93890500Y-106158541D01*
X93890500Y-105961459D01*
X93852051Y-105768165D01*
X93776632Y-105586086D01*
X93667139Y-105422218D01*
X93527782Y-105282861D01*
X93368692Y-105176560D01*
X93363913Y-105173367D01*
X93181839Y-105097950D01*
X93181829Y-105097947D01*
X93048441Y-105071415D01*
X92988541Y-105059500D01*
X92791459Y-105059500D01*
X92736662Y-105070399D01*
X92598170Y-105097947D01*
X92598160Y-105097950D01*
X92416086Y-105173367D01*
X92252218Y-105282860D01*
X92252217Y-105282862D01*
X92112862Y-105422217D01*
X92112860Y-105422218D01*
X92003367Y-105586086D01*
X91927950Y-105768160D01*
X91927947Y-105768170D01*
X91889500Y-105961460D01*
X91350500Y-105961460D01*
X91350500Y-105961459D01*
X91312051Y-105768165D01*
X91259142Y-105640431D01*
X91259142Y-105583794D01*
X91275183Y-105559787D01*
X91469843Y-105365127D01*
X91705660Y-105129311D01*
X91713339Y-105116011D01*
X91745221Y-105060789D01*
X91765699Y-104984364D01*
X91765700Y-104984364D01*
X91765700Y-98667489D01*
X91787374Y-98615163D01*
X91839700Y-98593489D01*
X91892026Y-98615163D01*
X91912278Y-98653052D01*
X91927947Y-98731829D01*
X91927950Y-98731839D01*
X92003367Y-98913913D01*
X92083499Y-99033838D01*
X92112861Y-99077782D01*
X92252218Y-99217139D01*
X92416086Y-99326632D01*
X92598165Y-99402051D01*
X92791459Y-99440500D01*
X92791461Y-99440500D01*
X92988539Y-99440500D01*
X92988541Y-99440500D01*
X93181835Y-99402051D01*
X93363914Y-99326632D01*
X93527782Y-99217139D01*
X93667139Y-99077782D01*
X93776632Y-98913914D01*
X93852051Y-98731835D01*
X93854422Y-98719916D01*
X93885887Y-98672824D01*
X93941436Y-98661774D01*
X93988528Y-98693239D01*
X94001000Y-98734352D01*
X94001000Y-104971064D01*
X94021477Y-105047485D01*
X94021479Y-105047490D01*
X94050612Y-105097949D01*
X94061040Y-105116011D01*
X94504816Y-105559787D01*
X94526490Y-105612113D01*
X94520857Y-105640431D01*
X94467950Y-105768160D01*
X94467947Y-105768170D01*
X94429500Y-105961460D01*
X94429500Y-106158539D01*
X94467947Y-106351829D01*
X94467950Y-106351839D01*
X94543367Y-106533913D01*
X94624928Y-106655977D01*
X94652861Y-106697782D01*
X94792218Y-106837139D01*
X94956086Y-106946632D01*
X95138165Y-107022051D01*
X95331459Y-107060500D01*
X95331461Y-107060500D01*
X95528539Y-107060500D01*
X95528541Y-107060500D01*
X95721835Y-107022051D01*
X95903914Y-106946632D01*
X96067782Y-106837139D01*
X96207139Y-106697782D01*
X96316632Y-106533914D01*
X96392051Y-106351835D01*
X96430500Y-106158541D01*
X96430500Y-105961459D01*
X96392051Y-105768165D01*
X96316632Y-105586086D01*
X96207139Y-105422218D01*
X96067782Y-105282861D01*
X95908692Y-105176560D01*
X95903913Y-105173367D01*
X95721839Y-105097950D01*
X95721829Y-105097947D01*
X95588441Y-105071415D01*
X95528541Y-105059500D01*
X95331459Y-105059500D01*
X95276662Y-105070399D01*
X95138170Y-105097947D01*
X95138160Y-105097950D01*
X95010431Y-105150857D01*
X94953794Y-105150857D01*
X94929787Y-105134816D01*
X94623674Y-104828703D01*
X94602000Y-104776377D01*
X94602000Y-101065905D01*
X98040600Y-101065905D01*
X98040600Y-101197694D01*
X98074706Y-101324981D01*
X98074707Y-101324984D01*
X98074708Y-101324986D01*
X98140600Y-101439114D01*
X98233786Y-101532300D01*
X98347914Y-101598192D01*
X98475205Y-101632299D01*
X98475206Y-101632300D01*
X98475208Y-101632300D01*
X98606994Y-101632300D01*
X98606994Y-101632299D01*
X98734286Y-101598192D01*
X98848414Y-101532300D01*
X98941600Y-101439114D01*
X99007492Y-101324986D01*
X99041599Y-101197694D01*
X99041600Y-101197694D01*
X99041600Y-101065906D01*
X99041599Y-101065905D01*
X99007493Y-100938618D01*
X99007492Y-100938614D01*
X98941600Y-100824486D01*
X98863274Y-100746160D01*
X98841600Y-100693834D01*
X98841600Y-96949122D01*
X98863272Y-96896798D01*
X98901224Y-96858845D01*
X98953548Y-96837172D01*
X99005874Y-96858845D01*
X99020814Y-96884704D01*
X99022254Y-96884108D01*
X99024110Y-96888590D01*
X99090000Y-97002714D01*
X99168326Y-97081040D01*
X99190000Y-97133366D01*
X99190000Y-103020064D01*
X99210477Y-103096485D01*
X99210479Y-103096490D01*
X99230796Y-103131679D01*
X99250040Y-103165011D01*
X101644816Y-105559787D01*
X101666490Y-105612113D01*
X101660857Y-105640431D01*
X101607950Y-105768160D01*
X101607947Y-105768170D01*
X101569500Y-105961460D01*
X101569500Y-106158539D01*
X101607947Y-106351829D01*
X101607950Y-106351839D01*
X101683367Y-106533913D01*
X101764928Y-106655977D01*
X101792861Y-106697782D01*
X101932218Y-106837139D01*
X102096086Y-106946632D01*
X102278165Y-107022051D01*
X102471459Y-107060500D01*
X102471461Y-107060500D01*
X102668539Y-107060500D01*
X102668541Y-107060500D01*
X102861835Y-107022051D01*
X103043914Y-106946632D01*
X103207782Y-106837139D01*
X103347139Y-106697782D01*
X103456632Y-106533914D01*
X103532051Y-106351835D01*
X103570500Y-106158541D01*
X103570500Y-105961459D01*
X103532051Y-105768165D01*
X103456632Y-105586086D01*
X103347139Y-105422218D01*
X103207782Y-105282861D01*
X103048692Y-105176560D01*
X103043913Y-105173367D01*
X102861839Y-105097950D01*
X102861829Y-105097947D01*
X102728441Y-105071415D01*
X102668541Y-105059500D01*
X102471459Y-105059500D01*
X102416662Y-105070399D01*
X102278170Y-105097947D01*
X102278160Y-105097950D01*
X102150431Y-105150857D01*
X102093794Y-105150857D01*
X102069787Y-105134816D01*
X99812674Y-102877703D01*
X99791000Y-102825377D01*
X99791000Y-97133366D01*
X99812674Y-97081040D01*
X99839279Y-97054435D01*
X99891000Y-97002714D01*
X99956892Y-96888586D01*
X99990999Y-96761294D01*
X99991000Y-96761294D01*
X99991000Y-96629506D01*
X99990999Y-96629505D01*
X99987351Y-96615892D01*
X99956892Y-96502214D01*
X99891000Y-96388086D01*
X99797814Y-96294900D01*
X99783379Y-96286566D01*
X99683690Y-96229010D01*
X99683688Y-96229009D01*
X99683686Y-96229008D01*
X99683683Y-96229007D01*
X99679208Y-96227154D01*
X99680239Y-96224663D01*
X99642164Y-96195411D01*
X99634805Y-96139254D01*
X99653944Y-96106125D01*
X103093736Y-92666334D01*
X103146061Y-92644661D01*
X103187173Y-92657132D01*
X103336086Y-92756632D01*
X103502542Y-92825580D01*
X103518165Y-92832051D01*
X103711459Y-92870500D01*
X103711461Y-92870500D01*
X103908539Y-92870500D01*
X103908541Y-92870500D01*
X104101835Y-92832051D01*
X104283914Y-92756632D01*
X104447782Y-92647139D01*
X104587139Y-92507782D01*
X104696632Y-92343914D01*
X104772051Y-92161835D01*
X104810500Y-91968541D01*
X104810500Y-91771459D01*
X104772051Y-91578165D01*
X104696632Y-91396086D01*
X104587139Y-91232218D01*
X104447782Y-91092861D01*
X104405936Y-91064900D01*
X104283913Y-90983367D01*
X104101839Y-90907950D01*
X104101829Y-90907947D01*
X103972388Y-90882200D01*
X103908541Y-90869500D01*
X103711459Y-90869500D01*
X103656662Y-90880399D01*
X103518170Y-90907947D01*
X103518160Y-90907950D01*
X103336086Y-90983367D01*
X103172218Y-91092860D01*
X103172217Y-91092862D01*
X103032862Y-91232217D01*
X103032860Y-91232218D01*
X102923367Y-91396086D01*
X102847950Y-91578160D01*
X102847947Y-91578170D01*
X102809500Y-91771460D01*
X102809500Y-91968539D01*
X102823698Y-92039918D01*
X102812649Y-92095467D01*
X102803446Y-92106681D01*
X98356589Y-96553540D01*
X98300640Y-96609488D01*
X98261079Y-96678009D01*
X98261077Y-96678014D01*
X98240600Y-96754435D01*
X98240600Y-100693834D01*
X98218926Y-100746160D01*
X98140600Y-100824485D01*
X98074710Y-100938609D01*
X98074706Y-100938618D01*
X98040600Y-101065905D01*
X94602000Y-101065905D01*
X94602000Y-99514500D01*
X94623674Y-99462174D01*
X94676000Y-99440500D01*
X96249754Y-99440500D01*
X96251217Y-99440356D01*
X96258464Y-99440000D01*
X96430000Y-99440000D01*
X96430000Y-99268459D01*
X96430357Y-99261203D01*
X96430500Y-99259751D01*
X96430500Y-97620246D01*
X96430356Y-97618783D01*
X96430000Y-97611536D01*
X96430000Y-97440000D01*
X96258464Y-97440000D01*
X96251217Y-97439644D01*
X96249754Y-97439500D01*
X96249748Y-97439500D01*
X94676000Y-97439500D01*
X94623674Y-97417826D01*
X94602000Y-97365500D01*
X94602000Y-92481936D01*
X94601999Y-92481935D01*
X94581522Y-92405514D01*
X94581521Y-92405513D01*
X94581521Y-92405511D01*
X94558772Y-92366109D01*
X94551380Y-92309959D01*
X94554488Y-92300800D01*
X94612051Y-92161835D01*
X94650500Y-91968541D01*
X94650500Y-91771459D01*
X94612051Y-91578165D01*
X94536632Y-91396086D01*
X94427139Y-91232218D01*
X94372547Y-91177626D01*
X94350873Y-91125300D01*
X94372547Y-91072974D01*
X94424873Y-91051300D01*
X94915677Y-91051300D01*
X94968003Y-91072974D01*
X95264816Y-91369787D01*
X95286490Y-91422113D01*
X95280857Y-91450431D01*
X95227950Y-91578160D01*
X95227947Y-91578170D01*
X95189500Y-91771460D01*
X95189500Y-91968539D01*
X95227947Y-92161829D01*
X95227950Y-92161839D01*
X95303367Y-92343913D01*
X95412860Y-92507781D01*
X95552218Y-92647139D01*
X95716086Y-92756632D01*
X95882542Y-92825580D01*
X95898165Y-92832051D01*
X96091459Y-92870500D01*
X96091461Y-92870500D01*
X96288539Y-92870500D01*
X96288541Y-92870500D01*
X96481835Y-92832051D01*
X96663914Y-92756632D01*
X96827782Y-92647139D01*
X96967139Y-92507782D01*
X97076632Y-92343914D01*
X97152051Y-92161835D01*
X97190500Y-91968541D01*
X97190500Y-91771460D01*
X97729500Y-91771460D01*
X97729500Y-91968539D01*
X97767947Y-92161829D01*
X97767950Y-92161839D01*
X97843367Y-92343913D01*
X97952860Y-92507781D01*
X98092218Y-92647139D01*
X98256086Y-92756632D01*
X98422542Y-92825580D01*
X98438165Y-92832051D01*
X98631459Y-92870500D01*
X98631461Y-92870500D01*
X98828539Y-92870500D01*
X98828541Y-92870500D01*
X99021835Y-92832051D01*
X99203914Y-92756632D01*
X99367782Y-92647139D01*
X99507139Y-92507782D01*
X99616632Y-92343914D01*
X99692051Y-92161835D01*
X99730500Y-91968541D01*
X99730500Y-91771460D01*
X100269500Y-91771460D01*
X100269500Y-91968539D01*
X100307947Y-92161829D01*
X100307950Y-92161839D01*
X100383367Y-92343913D01*
X100492860Y-92507781D01*
X100632218Y-92647139D01*
X100796086Y-92756632D01*
X100962542Y-92825580D01*
X100978165Y-92832051D01*
X101171459Y-92870500D01*
X101171461Y-92870500D01*
X101368539Y-92870500D01*
X101368541Y-92870500D01*
X101561835Y-92832051D01*
X101743914Y-92756632D01*
X101907782Y-92647139D01*
X102047139Y-92507782D01*
X102156632Y-92343914D01*
X102232051Y-92161835D01*
X102270500Y-91968541D01*
X102270500Y-91771459D01*
X102232051Y-91578165D01*
X102156632Y-91396086D01*
X102047139Y-91232218D01*
X101907782Y-91092861D01*
X101865936Y-91064900D01*
X101743913Y-90983367D01*
X101561839Y-90907950D01*
X101561829Y-90907947D01*
X101432388Y-90882200D01*
X101368541Y-90869500D01*
X101171459Y-90869500D01*
X101116662Y-90880399D01*
X100978170Y-90907947D01*
X100978160Y-90907950D01*
X100796086Y-90983367D01*
X100632218Y-91092860D01*
X100632217Y-91092862D01*
X100492862Y-91232217D01*
X100492860Y-91232218D01*
X100383367Y-91396086D01*
X100307950Y-91578160D01*
X100307947Y-91578170D01*
X100269500Y-91771460D01*
X99730500Y-91771460D01*
X99730500Y-91771459D01*
X99692051Y-91578165D01*
X99616632Y-91396086D01*
X99507139Y-91232218D01*
X99367782Y-91092861D01*
X99325936Y-91064900D01*
X99203913Y-90983367D01*
X99021839Y-90907950D01*
X99021829Y-90907947D01*
X98892388Y-90882200D01*
X98828541Y-90869500D01*
X98631459Y-90869500D01*
X98576662Y-90880399D01*
X98438170Y-90907947D01*
X98438160Y-90907950D01*
X98256086Y-90983367D01*
X98092218Y-91092860D01*
X98092217Y-91092862D01*
X97952862Y-91232217D01*
X97952860Y-91232218D01*
X97843367Y-91396086D01*
X97767950Y-91578160D01*
X97767947Y-91578170D01*
X97729500Y-91771460D01*
X97190500Y-91771460D01*
X97190500Y-91771459D01*
X97152051Y-91578165D01*
X97076632Y-91396086D01*
X96967139Y-91232218D01*
X96827782Y-91092861D01*
X96785936Y-91064900D01*
X96663913Y-90983367D01*
X96481839Y-90907950D01*
X96481829Y-90907947D01*
X96352388Y-90882200D01*
X96288541Y-90869500D01*
X96091459Y-90869500D01*
X96036662Y-90880399D01*
X95898170Y-90907947D01*
X95898160Y-90907950D01*
X95770431Y-90960857D01*
X95713794Y-90960857D01*
X95689787Y-90944816D01*
X95255311Y-90510340D01*
X95186790Y-90470779D01*
X95186785Y-90470777D01*
X95110364Y-90450300D01*
X95110362Y-90450300D01*
X90617438Y-90450300D01*
X90617436Y-90450300D01*
X90541014Y-90470777D01*
X90541009Y-90470779D01*
X90472488Y-90510340D01*
X89741140Y-91241688D01*
X89701579Y-91310209D01*
X89701577Y-91310214D01*
X89681100Y-91386635D01*
X89681100Y-91576149D01*
X89659426Y-91628475D01*
X89607100Y-91650149D01*
X89554774Y-91628475D01*
X89534522Y-91590587D01*
X89534221Y-91589074D01*
X89532051Y-91578165D01*
X89456632Y-91396086D01*
X89347139Y-91232218D01*
X89207782Y-91092861D01*
X89165936Y-91064900D01*
X89043913Y-90983367D01*
X88861839Y-90907950D01*
X88861829Y-90907947D01*
X88732388Y-90882200D01*
X88668541Y-90869500D01*
X88471459Y-90869500D01*
X88416662Y-90880399D01*
X88278170Y-90907947D01*
X88278160Y-90907950D01*
X88096086Y-90983367D01*
X87932218Y-91092860D01*
X87932217Y-91092862D01*
X87792862Y-91232217D01*
X87792860Y-91232218D01*
X87683367Y-91396086D01*
X87607950Y-91578160D01*
X87607947Y-91578170D01*
X87569500Y-91771460D01*
X87569500Y-91968539D01*
X87607947Y-92161829D01*
X87607950Y-92161839D01*
X87683367Y-92343913D01*
X87792860Y-92507781D01*
X87932218Y-92647139D01*
X88096086Y-92756632D01*
X88262542Y-92825580D01*
X88278165Y-92832051D01*
X88471459Y-92870500D01*
X88471461Y-92870500D01*
X88668539Y-92870500D01*
X88668541Y-92870500D01*
X88756978Y-92852908D01*
X88812526Y-92863957D01*
X88843992Y-92911049D01*
X88835500Y-92962486D01*
X88799979Y-93024009D01*
X88799977Y-93024014D01*
X88779500Y-93100435D01*
X88779500Y-97846161D01*
X88757826Y-97898487D01*
X88705500Y-97920161D01*
X88653174Y-97898487D01*
X88643971Y-97887273D01*
X88587139Y-97802218D01*
X88447781Y-97662860D01*
X88283913Y-97553367D01*
X88101839Y-97477950D01*
X88101829Y-97477947D01*
X87967023Y-97451133D01*
X87908541Y-97439500D01*
X87711459Y-97439500D01*
X87656662Y-97450399D01*
X87518170Y-97477947D01*
X87518160Y-97477950D01*
X87336086Y-97553367D01*
X87172218Y-97662860D01*
X87172217Y-97662862D01*
X87032862Y-97802217D01*
X87032860Y-97802218D01*
X86923367Y-97966086D01*
X86847950Y-98148160D01*
X86847947Y-98148170D01*
X86809500Y-98341460D01*
X86809500Y-98538539D01*
X86847947Y-98731829D01*
X86847950Y-98731839D01*
X86923367Y-98913913D01*
X87003499Y-99033838D01*
X87032861Y-99077782D01*
X87172218Y-99217139D01*
X87336086Y-99326632D01*
X87518165Y-99402051D01*
X87711459Y-99440500D01*
X87711461Y-99440500D01*
X87908539Y-99440500D01*
X87908541Y-99440500D01*
X88101835Y-99402051D01*
X88283914Y-99326632D01*
X88447782Y-99217139D01*
X88587139Y-99077782D01*
X88643971Y-98992725D01*
X88691063Y-98961260D01*
X88746612Y-98972309D01*
X88778078Y-99019401D01*
X88779500Y-99033838D01*
X88779500Y-104634876D01*
X88757826Y-104687202D01*
X88310211Y-105134816D01*
X88257885Y-105156490D01*
X88229567Y-105150857D01*
X88101839Y-105097950D01*
X88101829Y-105097947D01*
X87968441Y-105071415D01*
X87908541Y-105059500D01*
X87711459Y-105059500D01*
X87656662Y-105070399D01*
X87518170Y-105097947D01*
X87518160Y-105097950D01*
X87336086Y-105173367D01*
X87172218Y-105282860D01*
X87172217Y-105282862D01*
X87032862Y-105422217D01*
X87032860Y-105422218D01*
X86923367Y-105586086D01*
X86847950Y-105768160D01*
X86847947Y-105768170D01*
X86842278Y-105796674D01*
X86810812Y-105843766D01*
X86755263Y-105854815D01*
X86708171Y-105823349D01*
X86695700Y-105782237D01*
X86695700Y-99525636D01*
X86695699Y-99525635D01*
X86692715Y-99514500D01*
X86675221Y-99449211D01*
X86635660Y-99380689D01*
X86579711Y-99324740D01*
X86195183Y-98940212D01*
X86173509Y-98887886D01*
X86179142Y-98859567D01*
X86232051Y-98731835D01*
X86270500Y-98538541D01*
X86270500Y-98341459D01*
X86232051Y-98148165D01*
X86156632Y-97966086D01*
X86047139Y-97802218D01*
X85907782Y-97662861D01*
X85899351Y-97657227D01*
X85743913Y-97553367D01*
X85561839Y-97477950D01*
X85561829Y-97477947D01*
X85427023Y-97451133D01*
X85368541Y-97439500D01*
X85171459Y-97439500D01*
X85116662Y-97450399D01*
X84978170Y-97477947D01*
X84978160Y-97477950D01*
X84796086Y-97553367D01*
X84632218Y-97662860D01*
X84632217Y-97662862D01*
X84492862Y-97802217D01*
X84492860Y-97802218D01*
X84436029Y-97887273D01*
X84388937Y-97918739D01*
X84333388Y-97907690D01*
X84301922Y-97860598D01*
X84300500Y-97846161D01*
X84300500Y-97054436D01*
X84300499Y-97054435D01*
X84280022Y-96978014D01*
X84280020Y-96978009D01*
X84263342Y-96949122D01*
X84240460Y-96909489D01*
X84184511Y-96853540D01*
X84027174Y-96696203D01*
X84005500Y-96643877D01*
X84005500Y-96477650D01*
X84027174Y-96425324D01*
X84079500Y-96403650D01*
X84131824Y-96425323D01*
X84155965Y-96449464D01*
X84303453Y-96548013D01*
X84303454Y-96548013D01*
X84303455Y-96548014D01*
X84451868Y-96609488D01*
X84467334Y-96615894D01*
X84641309Y-96650500D01*
X84641311Y-96650500D01*
X84818689Y-96650500D01*
X84818691Y-96650500D01*
X84992666Y-96615894D01*
X85156547Y-96548013D01*
X85304035Y-96449464D01*
X85429464Y-96324035D01*
X85528013Y-96176547D01*
X85595894Y-96012666D01*
X85630500Y-95838691D01*
X85630500Y-95661310D01*
X86369500Y-95661310D01*
X86369500Y-95838689D01*
X86404104Y-96012660D01*
X86404107Y-96012670D01*
X86471985Y-96176544D01*
X86507040Y-96229008D01*
X86570536Y-96324035D01*
X86695965Y-96449464D01*
X86843453Y-96548013D01*
X86843454Y-96548013D01*
X86843455Y-96548014D01*
X86991868Y-96609488D01*
X87007334Y-96615894D01*
X87181309Y-96650500D01*
X87181311Y-96650500D01*
X87358689Y-96650500D01*
X87358691Y-96650500D01*
X87532666Y-96615894D01*
X87696547Y-96548013D01*
X87844035Y-96449464D01*
X87969464Y-96324035D01*
X88068013Y-96176547D01*
X88135894Y-96012666D01*
X88170500Y-95838691D01*
X88170500Y-95661309D01*
X88135894Y-95487334D01*
X88068013Y-95323453D01*
X87969464Y-95175965D01*
X87844035Y-95050536D01*
X87696547Y-94951987D01*
X87696546Y-94951986D01*
X87696544Y-94951985D01*
X87532670Y-94884107D01*
X87532660Y-94884104D01*
X87416156Y-94860930D01*
X87358691Y-94849500D01*
X87181309Y-94849500D01*
X87131989Y-94859310D01*
X87007339Y-94884104D01*
X87007329Y-94884107D01*
X86843455Y-94951985D01*
X86695968Y-95050533D01*
X86570533Y-95175968D01*
X86471985Y-95323455D01*
X86404107Y-95487329D01*
X86404104Y-95487339D01*
X86369500Y-95661310D01*
X85630500Y-95661310D01*
X85630500Y-95661309D01*
X85595894Y-95487334D01*
X85528013Y-95323453D01*
X85429464Y-95175965D01*
X85304035Y-95050536D01*
X85156547Y-94951987D01*
X85156548Y-94951987D01*
X85156546Y-94951986D01*
X85076181Y-94918698D01*
X85036133Y-94878649D01*
X85030500Y-94850331D01*
X85030500Y-93325122D01*
X85052173Y-93272797D01*
X85529787Y-92795182D01*
X85582113Y-92773509D01*
X85610431Y-92779141D01*
X85738165Y-92832051D01*
X85931459Y-92870500D01*
X85931461Y-92870500D01*
X86128539Y-92870500D01*
X86128541Y-92870500D01*
X86321835Y-92832051D01*
X86503914Y-92756632D01*
X86667782Y-92647139D01*
X86807139Y-92507782D01*
X86916632Y-92343914D01*
X86992051Y-92161835D01*
X87030500Y-91968541D01*
X87030500Y-91771459D01*
X86992051Y-91578165D01*
X86916632Y-91396086D01*
X86807139Y-91232218D01*
X86667782Y-91092861D01*
X86625936Y-91064900D01*
X86503913Y-90983367D01*
X86321839Y-90907950D01*
X86321829Y-90907947D01*
X86192388Y-90882200D01*
X86128541Y-90869500D01*
X85931459Y-90869500D01*
X85876662Y-90880399D01*
X85738170Y-90907947D01*
X85738160Y-90907950D01*
X85556086Y-90983367D01*
X85392218Y-91092860D01*
X85392217Y-91092862D01*
X85252862Y-91232217D01*
X85252860Y-91232218D01*
X85143367Y-91396086D01*
X85067950Y-91578160D01*
X85067947Y-91578170D01*
X85029500Y-91771460D01*
X85029500Y-91968539D01*
X85067947Y-92161829D01*
X85067950Y-92161839D01*
X85120857Y-92289567D01*
X85120857Y-92346204D01*
X85104816Y-92370211D01*
X84545489Y-92929540D01*
X84489540Y-92985488D01*
X84449979Y-93054009D01*
X84449977Y-93054014D01*
X84429500Y-93130435D01*
X84429500Y-94850331D01*
X84407826Y-94902657D01*
X84383819Y-94918698D01*
X84303453Y-94951986D01*
X84155968Y-95050533D01*
X84155967Y-95050534D01*
X84155965Y-95050535D01*
X84155965Y-95050536D01*
X84131824Y-95074676D01*
X84079500Y-95096350D01*
X84027174Y-95074676D01*
X84005500Y-95022350D01*
X84005500Y-94365438D01*
X84000230Y-94345771D01*
X83997957Y-94337288D01*
X83994422Y-94324096D01*
X83985023Y-94289016D01*
X83985022Y-94289012D01*
X83945460Y-94220489D01*
X82592374Y-92867403D01*
X82570700Y-92815077D01*
X82570700Y-91573938D01*
X82567467Y-91561874D01*
X82567466Y-91561871D01*
X82550222Y-91497512D01*
X82510660Y-91428989D01*
X81605611Y-90523940D01*
X81582055Y-90510340D01*
X81537090Y-90484379D01*
X81537085Y-90484377D01*
X81460664Y-90463900D01*
X81460662Y-90463900D01*
X79555162Y-90463900D01*
X79476038Y-90463900D01*
X79399612Y-90484378D01*
X79399611Y-90484378D01*
X79399609Y-90484379D01*
X79399607Y-90484380D01*
X79331090Y-90523938D01*
X78910211Y-90944816D01*
X78857885Y-90966490D01*
X78829567Y-90960857D01*
X78701839Y-90907950D01*
X78701829Y-90907947D01*
X78572388Y-90882200D01*
X78508541Y-90869500D01*
X78311459Y-90869500D01*
X78256662Y-90880399D01*
X78118170Y-90907947D01*
X78118160Y-90907950D01*
X77936086Y-90983367D01*
X77772218Y-91092860D01*
X77772217Y-91092862D01*
X77632862Y-91232217D01*
X77632860Y-91232218D01*
X77523367Y-91396086D01*
X77447950Y-91578160D01*
X77447947Y-91578170D01*
X77409500Y-91771460D01*
X77409500Y-91968539D01*
X77447947Y-92161829D01*
X77447950Y-92161839D01*
X77523367Y-92343913D01*
X77632860Y-92507781D01*
X77772218Y-92647139D01*
X77936086Y-92756632D01*
X78102542Y-92825580D01*
X78118165Y-92832051D01*
X78311459Y-92870500D01*
X78311461Y-92870500D01*
X78508539Y-92870500D01*
X78508541Y-92870500D01*
X78701835Y-92832051D01*
X78883914Y-92756632D01*
X79047782Y-92647139D01*
X79187139Y-92507782D01*
X79296632Y-92343914D01*
X79372051Y-92161835D01*
X79410500Y-91968541D01*
X79410500Y-91771459D01*
X79372051Y-91578165D01*
X79319142Y-91450431D01*
X79319142Y-91393794D01*
X79335183Y-91369787D01*
X79472753Y-91232218D01*
X79618397Y-91086574D01*
X79670723Y-91064900D01*
X80161527Y-91064900D01*
X80213853Y-91086574D01*
X80235527Y-91138900D01*
X80213853Y-91191226D01*
X80172862Y-91232217D01*
X80172860Y-91232218D01*
X80063367Y-91396086D01*
X79987950Y-91578160D01*
X79987947Y-91578170D01*
X79949500Y-91771460D01*
X79949500Y-91968539D01*
X79987947Y-92161829D01*
X79987950Y-92161839D01*
X80040857Y-92289567D01*
X80040857Y-92346204D01*
X80024816Y-92370211D01*
X78545489Y-93849540D01*
X78489540Y-93905488D01*
X78449979Y-93974009D01*
X78449977Y-93974014D01*
X78429500Y-94050435D01*
X78429500Y-94850331D01*
X78407826Y-94902657D01*
X78383819Y-94918698D01*
X78303453Y-94951986D01*
X78155968Y-95050533D01*
X78030533Y-95175968D01*
X77931985Y-95323455D01*
X77864107Y-95487329D01*
X77864104Y-95487339D01*
X77829500Y-95661310D01*
X77829500Y-95838689D01*
X77864104Y-96012660D01*
X77864107Y-96012670D01*
X77931985Y-96176544D01*
X77967040Y-96229008D01*
X78030536Y-96324035D01*
X78155965Y-96449464D01*
X78303453Y-96548013D01*
X78303454Y-96548013D01*
X78303455Y-96548014D01*
X78451868Y-96609488D01*
X78467334Y-96615894D01*
X78641309Y-96650500D01*
X78641311Y-96650500D01*
X78818689Y-96650500D01*
X78818691Y-96650500D01*
X78992666Y-96615894D01*
X79156547Y-96548013D01*
X79304035Y-96449464D01*
X79429464Y-96324035D01*
X79528013Y-96176547D01*
X79595894Y-96012666D01*
X79630500Y-95838691D01*
X79630500Y-95661309D01*
X79595894Y-95487334D01*
X79528013Y-95323453D01*
X79429464Y-95175965D01*
X79304035Y-95050536D01*
X79156547Y-94951987D01*
X79156548Y-94951987D01*
X79156546Y-94951986D01*
X79076181Y-94918698D01*
X79036133Y-94878649D01*
X79030500Y-94850331D01*
X79030500Y-94245122D01*
X79052173Y-94192797D01*
X80449787Y-92795182D01*
X80502112Y-92773509D01*
X80530430Y-92779142D01*
X80649498Y-92828461D01*
X80658165Y-92832051D01*
X80851459Y-92870500D01*
X80851461Y-92870500D01*
X81048539Y-92870500D01*
X81048541Y-92870500D01*
X81241835Y-92832051D01*
X81423914Y-92756632D01*
X81587782Y-92647139D01*
X81727139Y-92507782D01*
X81834171Y-92347596D01*
X81881263Y-92316131D01*
X81936812Y-92327180D01*
X81968278Y-92374272D01*
X81969700Y-92388709D01*
X81969700Y-93009764D01*
X81990177Y-93086185D01*
X81990182Y-93086196D01*
X81998403Y-93100433D01*
X81998404Y-93100438D01*
X81998406Y-93100438D01*
X82029740Y-93154711D01*
X83382826Y-94507797D01*
X83404500Y-94560123D01*
X83404500Y-96838564D01*
X83424978Y-96914988D01*
X83440176Y-96941313D01*
X83440177Y-96941313D01*
X83464540Y-96983511D01*
X83677826Y-97196797D01*
X83699500Y-97249123D01*
X83699500Y-97846161D01*
X83677826Y-97898487D01*
X83625500Y-97920161D01*
X83573174Y-97898487D01*
X83563971Y-97887273D01*
X83507139Y-97802218D01*
X83367781Y-97662860D01*
X83203913Y-97553367D01*
X83021839Y-97477950D01*
X83021829Y-97477947D01*
X82887023Y-97451133D01*
X82828541Y-97439500D01*
X82631459Y-97439500D01*
X82576662Y-97450399D01*
X82438170Y-97477947D01*
X82438160Y-97477950D01*
X82256086Y-97553367D01*
X82092218Y-97662860D01*
X82092217Y-97662862D01*
X81952862Y-97802217D01*
X81952860Y-97802218D01*
X81843367Y-97966086D01*
X81767950Y-98148160D01*
X81767947Y-98148170D01*
X81729500Y-98341460D01*
X81729500Y-98538539D01*
X81767947Y-98731829D01*
X81767950Y-98731839D01*
X81820857Y-98859567D01*
X81820857Y-98916204D01*
X81804816Y-98940211D01*
X78585489Y-102159540D01*
X78529540Y-102215488D01*
X78489979Y-102284009D01*
X78489977Y-102284014D01*
X78469500Y-102360435D01*
X78469500Y-105285927D01*
X78447826Y-105338253D01*
X78395500Y-105359927D01*
X78343174Y-105338253D01*
X78287781Y-105282860D01*
X78123913Y-105173367D01*
X77941839Y-105097950D01*
X77941829Y-105097947D01*
X77808441Y-105071415D01*
X77748541Y-105059500D01*
X77551459Y-105059500D01*
X77496662Y-105070399D01*
X77358170Y-105097947D01*
X77358160Y-105097950D01*
X77176086Y-105173367D01*
X77012218Y-105282860D01*
X77012217Y-105282862D01*
X76872862Y-105422217D01*
X76872860Y-105422218D01*
X76763367Y-105586086D01*
X76687950Y-105768160D01*
X76687947Y-105768170D01*
X76649500Y-105961460D01*
X76649500Y-106158539D01*
X76687947Y-106351829D01*
X76687950Y-106351839D01*
X76763367Y-106533913D01*
X76844928Y-106655977D01*
X76872861Y-106697782D01*
X77012218Y-106837139D01*
X77176086Y-106946632D01*
X77358165Y-107022051D01*
X77551459Y-107060500D01*
X77551461Y-107060500D01*
X77748539Y-107060500D01*
X77748541Y-107060500D01*
X77941835Y-107022051D01*
X78123914Y-106946632D01*
X78287782Y-106837139D01*
X78343174Y-106781747D01*
X78395500Y-106760073D01*
X78447826Y-106781747D01*
X78469500Y-106834073D01*
X78469500Y-132173177D01*
X78447826Y-132225503D01*
X78169540Y-132503788D01*
X78129979Y-132572309D01*
X78129977Y-132572314D01*
X78109500Y-132648735D01*
X78109500Y-132715500D01*
X78087826Y-132767826D01*
X78035500Y-132789500D01*
X77390246Y-132789500D01*
X77388783Y-132789644D01*
X77381536Y-132790000D01*
X77210000Y-132790000D01*
X77210000Y-132961536D01*
X77209644Y-132968783D01*
X77209500Y-132970246D01*
X77209500Y-139726000D01*
X77187826Y-139778326D01*
X77135500Y-139800000D01*
X76474000Y-139800000D01*
X76421674Y-139778326D01*
X76400000Y-139726000D01*
X76400000Y-116250001D01*
X76400000Y-116250000D01*
X76396157Y-116210982D01*
X76384776Y-116173463D01*
X76366294Y-116138886D01*
X76341421Y-116108579D01*
X76311114Y-116083706D01*
X76276537Y-116065224D01*
X76250400Y-116057295D01*
X76239019Y-116053843D01*
X76219509Y-116051921D01*
X76200000Y-116050000D01*
X76199999Y-116050000D01*
X68613494Y-116050000D01*
X68561168Y-116028326D01*
X68221674Y-115688832D01*
X68200000Y-115636506D01*
X68200000Y-105961460D01*
X71569500Y-105961460D01*
X71569500Y-106158539D01*
X71607947Y-106351829D01*
X71607950Y-106351839D01*
X71683367Y-106533913D01*
X71764928Y-106655977D01*
X71792861Y-106697782D01*
X71932218Y-106837139D01*
X72096086Y-106946632D01*
X72278165Y-107022051D01*
X72471459Y-107060500D01*
X72471461Y-107060500D01*
X72668539Y-107060500D01*
X72668541Y-107060500D01*
X72861835Y-107022051D01*
X73043914Y-106946632D01*
X73207782Y-106837139D01*
X73347139Y-106697782D01*
X73456632Y-106533914D01*
X73532051Y-106351835D01*
X73570500Y-106158541D01*
X73570500Y-105961460D01*
X74109500Y-105961460D01*
X74109500Y-106158539D01*
X74147947Y-106351829D01*
X74147950Y-106351839D01*
X74223367Y-106533913D01*
X74304928Y-106655977D01*
X74332861Y-106697782D01*
X74472218Y-106837139D01*
X74636086Y-106946632D01*
X74818165Y-107022051D01*
X75011459Y-107060500D01*
X75011461Y-107060500D01*
X75208539Y-107060500D01*
X75208541Y-107060500D01*
X75401835Y-107022051D01*
X75583914Y-106946632D01*
X75747782Y-106837139D01*
X75887139Y-106697782D01*
X75996632Y-106533914D01*
X76072051Y-106351835D01*
X76110500Y-106158541D01*
X76110500Y-105961459D01*
X76072051Y-105768165D01*
X75996632Y-105586086D01*
X75887139Y-105422218D01*
X75747782Y-105282861D01*
X75588692Y-105176560D01*
X75583913Y-105173367D01*
X75401839Y-105097950D01*
X75401829Y-105097947D01*
X75268441Y-105071415D01*
X75208541Y-105059500D01*
X75011459Y-105059500D01*
X74956662Y-105070399D01*
X74818170Y-105097947D01*
X74818160Y-105097950D01*
X74636086Y-105173367D01*
X74472218Y-105282860D01*
X74472217Y-105282862D01*
X74332862Y-105422217D01*
X74332860Y-105422218D01*
X74223367Y-105586086D01*
X74147950Y-105768160D01*
X74147947Y-105768170D01*
X74109500Y-105961460D01*
X73570500Y-105961460D01*
X73570500Y-105961459D01*
X73532051Y-105768165D01*
X73456632Y-105586086D01*
X73347139Y-105422218D01*
X73207782Y-105282861D01*
X73048692Y-105176560D01*
X73043913Y-105173367D01*
X72861839Y-105097950D01*
X72861829Y-105097947D01*
X72728441Y-105071415D01*
X72668541Y-105059500D01*
X72471459Y-105059500D01*
X72416662Y-105070399D01*
X72278170Y-105097947D01*
X72278160Y-105097950D01*
X72096086Y-105173367D01*
X71932218Y-105282860D01*
X71932217Y-105282862D01*
X71792862Y-105422217D01*
X71792860Y-105422218D01*
X71683367Y-105586086D01*
X71607950Y-105768160D01*
X71607947Y-105768170D01*
X71569500Y-105961460D01*
X68200000Y-105961460D01*
X68200000Y-98341460D01*
X74109500Y-98341460D01*
X74109500Y-98538539D01*
X74147947Y-98731829D01*
X74147950Y-98731839D01*
X74223367Y-98913913D01*
X74303499Y-99033838D01*
X74332861Y-99077782D01*
X74472218Y-99217139D01*
X74636086Y-99326632D01*
X74818165Y-99402051D01*
X75011459Y-99440500D01*
X75011461Y-99440500D01*
X75208539Y-99440500D01*
X75208541Y-99440500D01*
X75401835Y-99402051D01*
X75583914Y-99326632D01*
X75747782Y-99217139D01*
X75887139Y-99077782D01*
X75996632Y-98913914D01*
X76072051Y-98731835D01*
X76110500Y-98538541D01*
X76110500Y-98341460D01*
X76649500Y-98341460D01*
X76649500Y-98538539D01*
X76687947Y-98731829D01*
X76687950Y-98731839D01*
X76763367Y-98913913D01*
X76843499Y-99033838D01*
X76872861Y-99077782D01*
X77012218Y-99217139D01*
X77176086Y-99326632D01*
X77358165Y-99402051D01*
X77551459Y-99440500D01*
X77551461Y-99440500D01*
X77748539Y-99440500D01*
X77748541Y-99440500D01*
X77941835Y-99402051D01*
X78123914Y-99326632D01*
X78287782Y-99217139D01*
X78427139Y-99077782D01*
X78536632Y-98913914D01*
X78612051Y-98731835D01*
X78650500Y-98538541D01*
X78650500Y-98341460D01*
X79189500Y-98341460D01*
X79189500Y-98538539D01*
X79227947Y-98731829D01*
X79227950Y-98731839D01*
X79303367Y-98913913D01*
X79383499Y-99033838D01*
X79412861Y-99077782D01*
X79552218Y-99217139D01*
X79716086Y-99326632D01*
X79898165Y-99402051D01*
X80091459Y-99440500D01*
X80091461Y-99440500D01*
X80288539Y-99440500D01*
X80288541Y-99440500D01*
X80481835Y-99402051D01*
X80663914Y-99326632D01*
X80827782Y-99217139D01*
X80967139Y-99077782D01*
X81076632Y-98913914D01*
X81152051Y-98731835D01*
X81190500Y-98538541D01*
X81190500Y-98341459D01*
X81152051Y-98148165D01*
X81076632Y-97966086D01*
X80967139Y-97802218D01*
X80827782Y-97662861D01*
X80819351Y-97657227D01*
X80663913Y-97553367D01*
X80481839Y-97477950D01*
X80481829Y-97477947D01*
X80347023Y-97451133D01*
X80288541Y-97439500D01*
X80091459Y-97439500D01*
X80036662Y-97450399D01*
X79898170Y-97477947D01*
X79898160Y-97477950D01*
X79716086Y-97553367D01*
X79552218Y-97662860D01*
X79552217Y-97662862D01*
X79412862Y-97802217D01*
X79412860Y-97802218D01*
X79303367Y-97966086D01*
X79227950Y-98148160D01*
X79227947Y-98148170D01*
X79189500Y-98341460D01*
X78650500Y-98341460D01*
X78650500Y-98341459D01*
X78612051Y-98148165D01*
X78536632Y-97966086D01*
X78427139Y-97802218D01*
X78287782Y-97662861D01*
X78279351Y-97657227D01*
X78123913Y-97553367D01*
X77941839Y-97477950D01*
X77941829Y-97477947D01*
X77807023Y-97451133D01*
X77748541Y-97439500D01*
X77551459Y-97439500D01*
X77496662Y-97450399D01*
X77358170Y-97477947D01*
X77358160Y-97477950D01*
X77176086Y-97553367D01*
X77012218Y-97662860D01*
X77012217Y-97662862D01*
X76872862Y-97802217D01*
X76872860Y-97802218D01*
X76763367Y-97966086D01*
X76687950Y-98148160D01*
X76687947Y-98148170D01*
X76649500Y-98341460D01*
X76110500Y-98341460D01*
X76110500Y-98341459D01*
X76072051Y-98148165D01*
X75996632Y-97966086D01*
X75887139Y-97802218D01*
X75747782Y-97662861D01*
X75739351Y-97657227D01*
X75583913Y-97553367D01*
X75401839Y-97477950D01*
X75401829Y-97477947D01*
X75267023Y-97451133D01*
X75208541Y-97439500D01*
X75011459Y-97439500D01*
X74956662Y-97450399D01*
X74818170Y-97477947D01*
X74818160Y-97477950D01*
X74636086Y-97553367D01*
X74472218Y-97662860D01*
X74472217Y-97662862D01*
X74332862Y-97802217D01*
X74332860Y-97802218D01*
X74223367Y-97966086D01*
X74147950Y-98148160D01*
X74147947Y-98148170D01*
X74109500Y-98341460D01*
X68200000Y-98341460D01*
X68200000Y-91771460D01*
X74869500Y-91771460D01*
X74869500Y-91968539D01*
X74907947Y-92161829D01*
X74907950Y-92161839D01*
X74983367Y-92343913D01*
X75092860Y-92507781D01*
X75232218Y-92647139D01*
X75396086Y-92756632D01*
X75562542Y-92825580D01*
X75578165Y-92832051D01*
X75771459Y-92870500D01*
X75771461Y-92870500D01*
X75968539Y-92870500D01*
X75968541Y-92870500D01*
X76161835Y-92832051D01*
X76343914Y-92756632D01*
X76507782Y-92647139D01*
X76647139Y-92507782D01*
X76756632Y-92343914D01*
X76832051Y-92161835D01*
X76870500Y-91968541D01*
X76870500Y-91771459D01*
X76832051Y-91578165D01*
X76756632Y-91396086D01*
X76647139Y-91232218D01*
X76507782Y-91092861D01*
X76465936Y-91064900D01*
X76343913Y-90983367D01*
X76161839Y-90907950D01*
X76161829Y-90907947D01*
X76032388Y-90882200D01*
X75968541Y-90869500D01*
X75771459Y-90869500D01*
X75716662Y-90880399D01*
X75578170Y-90907947D01*
X75578160Y-90907950D01*
X75396086Y-90983367D01*
X75232218Y-91092860D01*
X75232217Y-91092862D01*
X75092862Y-91232217D01*
X75092860Y-91232218D01*
X74983367Y-91396086D01*
X74907950Y-91578160D01*
X74907947Y-91578170D01*
X74869500Y-91771460D01*
X68200000Y-91771460D01*
X68200000Y-76531460D01*
X74869500Y-76531460D01*
X74869500Y-76728539D01*
X74907947Y-76921829D01*
X74907950Y-76921839D01*
X74983367Y-77103913D01*
X75063499Y-77223838D01*
X75092861Y-77267782D01*
X75232218Y-77407139D01*
X75396086Y-77516632D01*
X75578165Y-77592051D01*
X75771459Y-77630500D01*
X75771461Y-77630500D01*
X75968539Y-77630500D01*
X75968541Y-77630500D01*
X76161835Y-77592051D01*
X76343914Y-77516632D01*
X76507782Y-77407139D01*
X76647139Y-77267782D01*
X76756632Y-77103914D01*
X76832051Y-76921835D01*
X76870500Y-76728541D01*
X76870500Y-76531460D01*
X77409500Y-76531460D01*
X77409500Y-76728539D01*
X77447947Y-76921829D01*
X77447950Y-76921839D01*
X77523367Y-77103913D01*
X77603499Y-77223838D01*
X77632861Y-77267782D01*
X77772218Y-77407139D01*
X77936086Y-77516632D01*
X78118165Y-77592051D01*
X78311459Y-77630500D01*
X78311461Y-77630500D01*
X78508539Y-77630500D01*
X78508541Y-77630500D01*
X78701835Y-77592051D01*
X78883914Y-77516632D01*
X79047782Y-77407139D01*
X79187139Y-77267782D01*
X79296632Y-77103914D01*
X79372051Y-76921835D01*
X79410500Y-76728541D01*
X79410500Y-76531460D01*
X79949500Y-76531460D01*
X79949500Y-76728539D01*
X79987947Y-76921829D01*
X79987950Y-76921839D01*
X80063367Y-77103913D01*
X80143499Y-77223838D01*
X80172861Y-77267782D01*
X80312218Y-77407139D01*
X80476086Y-77516632D01*
X80658165Y-77592051D01*
X80851459Y-77630500D01*
X80851461Y-77630500D01*
X81048539Y-77630500D01*
X81048541Y-77630500D01*
X81241835Y-77592051D01*
X81423914Y-77516632D01*
X81587782Y-77407139D01*
X81727139Y-77267782D01*
X81836632Y-77103914D01*
X81912051Y-76921835D01*
X81950500Y-76728541D01*
X81950500Y-76531460D01*
X82489500Y-76531460D01*
X82489500Y-76728539D01*
X82527947Y-76921829D01*
X82527950Y-76921839D01*
X82603367Y-77103913D01*
X82683499Y-77223838D01*
X82712861Y-77267782D01*
X82852218Y-77407139D01*
X83016086Y-77516632D01*
X83198165Y-77592051D01*
X83391459Y-77630500D01*
X83391461Y-77630500D01*
X83588539Y-77630500D01*
X83588541Y-77630500D01*
X83781835Y-77592051D01*
X83963914Y-77516632D01*
X84127782Y-77407139D01*
X84267139Y-77267782D01*
X84376632Y-77103914D01*
X84452051Y-76921835D01*
X84490500Y-76728541D01*
X84490500Y-76531460D01*
X85029500Y-76531460D01*
X85029500Y-76728539D01*
X85067947Y-76921829D01*
X85067950Y-76921839D01*
X85143367Y-77103913D01*
X85223499Y-77223838D01*
X85252861Y-77267782D01*
X85392218Y-77407139D01*
X85556086Y-77516632D01*
X85738165Y-77592051D01*
X85931459Y-77630500D01*
X85931461Y-77630500D01*
X86128539Y-77630500D01*
X86128541Y-77630500D01*
X86321835Y-77592051D01*
X86503914Y-77516632D01*
X86667782Y-77407139D01*
X86807139Y-77267782D01*
X86916632Y-77103914D01*
X86992051Y-76921835D01*
X87030500Y-76728541D01*
X87030500Y-76531460D01*
X87569500Y-76531460D01*
X87569500Y-76728539D01*
X87607947Y-76921829D01*
X87607950Y-76921839D01*
X87683367Y-77103913D01*
X87763499Y-77223838D01*
X87792861Y-77267782D01*
X87932218Y-77407139D01*
X88096086Y-77516632D01*
X88278165Y-77592051D01*
X88471459Y-77630500D01*
X88471461Y-77630500D01*
X88668539Y-77630500D01*
X88668541Y-77630500D01*
X88861835Y-77592051D01*
X89043914Y-77516632D01*
X89207782Y-77407139D01*
X89347139Y-77267782D01*
X89456632Y-77103914D01*
X89532051Y-76921835D01*
X89570500Y-76728541D01*
X89570500Y-76531460D01*
X90109500Y-76531460D01*
X90109500Y-76728539D01*
X90147947Y-76921829D01*
X90147950Y-76921839D01*
X90223367Y-77103913D01*
X90303499Y-77223838D01*
X90332861Y-77267782D01*
X90472218Y-77407139D01*
X90636086Y-77516632D01*
X90818165Y-77592051D01*
X91011459Y-77630500D01*
X91011461Y-77630500D01*
X91208539Y-77630500D01*
X91208541Y-77630500D01*
X91401835Y-77592051D01*
X91583914Y-77516632D01*
X91747782Y-77407139D01*
X91887139Y-77267782D01*
X91996632Y-77103914D01*
X92072051Y-76921835D01*
X92110500Y-76728541D01*
X92110500Y-76531460D01*
X92649500Y-76531460D01*
X92649500Y-76728539D01*
X92687947Y-76921829D01*
X92687950Y-76921839D01*
X92763367Y-77103913D01*
X92843499Y-77223838D01*
X92872861Y-77267782D01*
X93012218Y-77407139D01*
X93176086Y-77516632D01*
X93358165Y-77592051D01*
X93551459Y-77630500D01*
X93551461Y-77630500D01*
X93748539Y-77630500D01*
X93748541Y-77630500D01*
X93941835Y-77592051D01*
X94123914Y-77516632D01*
X94287782Y-77407139D01*
X94427139Y-77267782D01*
X94536632Y-77103914D01*
X94612051Y-76921835D01*
X94650500Y-76728541D01*
X94650500Y-76531460D01*
X95189500Y-76531460D01*
X95189500Y-76728539D01*
X95227947Y-76921829D01*
X95227950Y-76921839D01*
X95303367Y-77103913D01*
X95383499Y-77223838D01*
X95412861Y-77267782D01*
X95552218Y-77407139D01*
X95716086Y-77516632D01*
X95898165Y-77592051D01*
X96091459Y-77630500D01*
X96091461Y-77630500D01*
X96288539Y-77630500D01*
X96288541Y-77630500D01*
X96481835Y-77592051D01*
X96663914Y-77516632D01*
X96827782Y-77407139D01*
X96967139Y-77267782D01*
X97076632Y-77103914D01*
X97152051Y-76921835D01*
X97190500Y-76728541D01*
X97190500Y-76531460D01*
X97729500Y-76531460D01*
X97729500Y-76728539D01*
X97767947Y-76921829D01*
X97767950Y-76921839D01*
X97843367Y-77103913D01*
X97923499Y-77223838D01*
X97952861Y-77267782D01*
X98092218Y-77407139D01*
X98256086Y-77516632D01*
X98438165Y-77592051D01*
X98631459Y-77630500D01*
X98631461Y-77630500D01*
X98828539Y-77630500D01*
X98828541Y-77630500D01*
X99021835Y-77592051D01*
X99203914Y-77516632D01*
X99367782Y-77407139D01*
X99507139Y-77267782D01*
X99616632Y-77103914D01*
X99692051Y-76921835D01*
X99730500Y-76728541D01*
X99730500Y-76531460D01*
X100269500Y-76531460D01*
X100269500Y-76728539D01*
X100307947Y-76921829D01*
X100307950Y-76921839D01*
X100383367Y-77103913D01*
X100463499Y-77223838D01*
X100492861Y-77267782D01*
X100632218Y-77407139D01*
X100796086Y-77516632D01*
X100978165Y-77592051D01*
X101171459Y-77630500D01*
X101171461Y-77630500D01*
X101368539Y-77630500D01*
X101368541Y-77630500D01*
X101561835Y-77592051D01*
X101743914Y-77516632D01*
X101907782Y-77407139D01*
X102047139Y-77267782D01*
X102156632Y-77103914D01*
X102232051Y-76921835D01*
X102270500Y-76728541D01*
X102270500Y-76531460D01*
X102809500Y-76531460D01*
X102809500Y-76728539D01*
X102847947Y-76921829D01*
X102847950Y-76921839D01*
X102923367Y-77103913D01*
X103003499Y-77223838D01*
X103032861Y-77267782D01*
X103172218Y-77407139D01*
X103336086Y-77516632D01*
X103518165Y-77592051D01*
X103711459Y-77630500D01*
X103711461Y-77630500D01*
X103908539Y-77630500D01*
X103908541Y-77630500D01*
X104101835Y-77592051D01*
X104283914Y-77516632D01*
X104447782Y-77407139D01*
X104587139Y-77267782D01*
X104696632Y-77103914D01*
X104772051Y-76921835D01*
X104810500Y-76728541D01*
X104810500Y-76531460D01*
X105349500Y-76531460D01*
X105349500Y-76728539D01*
X105387947Y-76921829D01*
X105387950Y-76921839D01*
X105463367Y-77103913D01*
X105543499Y-77223838D01*
X105572861Y-77267782D01*
X105712218Y-77407139D01*
X105876086Y-77516632D01*
X106058165Y-77592051D01*
X106251459Y-77630500D01*
X106251461Y-77630500D01*
X106448539Y-77630500D01*
X106448541Y-77630500D01*
X106641835Y-77592051D01*
X106823914Y-77516632D01*
X106987782Y-77407139D01*
X107127139Y-77267782D01*
X107236632Y-77103914D01*
X107312051Y-76921835D01*
X107350500Y-76728541D01*
X107350500Y-76531460D01*
X107889500Y-76531460D01*
X107889500Y-76728539D01*
X107927947Y-76921829D01*
X107927950Y-76921839D01*
X108003367Y-77103913D01*
X108083499Y-77223838D01*
X108112861Y-77267782D01*
X108252218Y-77407139D01*
X108416086Y-77516632D01*
X108598165Y-77592051D01*
X108791459Y-77630500D01*
X108791461Y-77630500D01*
X108988539Y-77630500D01*
X108988541Y-77630500D01*
X109181835Y-77592051D01*
X109363914Y-77516632D01*
X109527782Y-77407139D01*
X109667139Y-77267782D01*
X109776632Y-77103914D01*
X109852051Y-76921835D01*
X109890500Y-76728541D01*
X109890500Y-76531460D01*
X110429500Y-76531460D01*
X110429500Y-76728539D01*
X110467947Y-76921829D01*
X110467950Y-76921839D01*
X110543367Y-77103913D01*
X110623499Y-77223838D01*
X110652861Y-77267782D01*
X110792218Y-77407139D01*
X110956086Y-77516632D01*
X111138165Y-77592051D01*
X111331459Y-77630500D01*
X111331461Y-77630500D01*
X111528539Y-77630500D01*
X111528541Y-77630500D01*
X111721835Y-77592051D01*
X111903914Y-77516632D01*
X112067782Y-77407139D01*
X112207139Y-77267782D01*
X112316632Y-77103914D01*
X112392051Y-76921835D01*
X112430500Y-76728541D01*
X112430500Y-76531459D01*
X112392051Y-76338165D01*
X112316632Y-76156086D01*
X112207139Y-75992218D01*
X112067782Y-75852861D01*
X111903914Y-75743368D01*
X111903915Y-75743368D01*
X111903913Y-75743367D01*
X111721839Y-75667950D01*
X111721829Y-75667947D01*
X111592388Y-75642200D01*
X111528541Y-75629500D01*
X111331459Y-75629500D01*
X111276662Y-75640399D01*
X111138170Y-75667947D01*
X111138160Y-75667950D01*
X110956086Y-75743367D01*
X110792218Y-75852860D01*
X110792217Y-75852862D01*
X110652862Y-75992217D01*
X110652860Y-75992218D01*
X110543367Y-76156086D01*
X110467950Y-76338160D01*
X110467947Y-76338170D01*
X110429500Y-76531460D01*
X109890500Y-76531460D01*
X109890500Y-76531459D01*
X109852051Y-76338165D01*
X109776632Y-76156086D01*
X109667139Y-75992218D01*
X109527782Y-75852861D01*
X109363914Y-75743368D01*
X109363915Y-75743368D01*
X109363913Y-75743367D01*
X109181839Y-75667950D01*
X109181829Y-75667947D01*
X109052388Y-75642200D01*
X108988541Y-75629500D01*
X108791459Y-75629500D01*
X108736662Y-75640399D01*
X108598170Y-75667947D01*
X108598160Y-75667950D01*
X108416086Y-75743367D01*
X108252218Y-75852860D01*
X108252217Y-75852862D01*
X108112862Y-75992217D01*
X108112860Y-75992218D01*
X108003367Y-76156086D01*
X107927950Y-76338160D01*
X107927947Y-76338170D01*
X107889500Y-76531460D01*
X107350500Y-76531460D01*
X107350500Y-76531459D01*
X107312051Y-76338165D01*
X107236632Y-76156086D01*
X107127139Y-75992218D01*
X106987782Y-75852861D01*
X106823914Y-75743368D01*
X106823915Y-75743368D01*
X106823913Y-75743367D01*
X106641839Y-75667950D01*
X106641829Y-75667947D01*
X106512388Y-75642200D01*
X106448541Y-75629500D01*
X106251459Y-75629500D01*
X106196662Y-75640399D01*
X106058170Y-75667947D01*
X106058160Y-75667950D01*
X105876086Y-75743367D01*
X105712218Y-75852860D01*
X105712217Y-75852862D01*
X105572862Y-75992217D01*
X105572860Y-75992218D01*
X105463367Y-76156086D01*
X105387950Y-76338160D01*
X105387947Y-76338170D01*
X105349500Y-76531460D01*
X104810500Y-76531460D01*
X104810500Y-76531459D01*
X104772051Y-76338165D01*
X104696632Y-76156086D01*
X104587139Y-75992218D01*
X104447782Y-75852861D01*
X104283914Y-75743368D01*
X104283915Y-75743368D01*
X104283913Y-75743367D01*
X104101839Y-75667950D01*
X104101829Y-75667947D01*
X103972388Y-75642200D01*
X103908541Y-75629500D01*
X103711459Y-75629500D01*
X103656662Y-75640399D01*
X103518170Y-75667947D01*
X103518160Y-75667950D01*
X103336086Y-75743367D01*
X103172218Y-75852860D01*
X103172217Y-75852862D01*
X103032862Y-75992217D01*
X103032860Y-75992218D01*
X102923367Y-76156086D01*
X102847950Y-76338160D01*
X102847947Y-76338170D01*
X102809500Y-76531460D01*
X102270500Y-76531460D01*
X102270500Y-76531459D01*
X102232051Y-76338165D01*
X102156632Y-76156086D01*
X102047139Y-75992218D01*
X101907782Y-75852861D01*
X101743914Y-75743368D01*
X101743915Y-75743368D01*
X101743913Y-75743367D01*
X101561839Y-75667950D01*
X101561829Y-75667947D01*
X101432388Y-75642200D01*
X101368541Y-75629500D01*
X101171459Y-75629500D01*
X101116662Y-75640399D01*
X100978170Y-75667947D01*
X100978160Y-75667950D01*
X100796086Y-75743367D01*
X100632218Y-75852860D01*
X100632217Y-75852862D01*
X100492862Y-75992217D01*
X100492860Y-75992218D01*
X100383367Y-76156086D01*
X100307950Y-76338160D01*
X100307947Y-76338170D01*
X100269500Y-76531460D01*
X99730500Y-76531460D01*
X99730500Y-76531459D01*
X99692051Y-76338165D01*
X99616632Y-76156086D01*
X99507139Y-75992218D01*
X99367782Y-75852861D01*
X99203914Y-75743368D01*
X99203915Y-75743368D01*
X99203913Y-75743367D01*
X99021839Y-75667950D01*
X99021829Y-75667947D01*
X98892388Y-75642200D01*
X98828541Y-75629500D01*
X98631459Y-75629500D01*
X98576662Y-75640399D01*
X98438170Y-75667947D01*
X98438160Y-75667950D01*
X98256086Y-75743367D01*
X98092218Y-75852860D01*
X98092217Y-75852862D01*
X97952862Y-75992217D01*
X97952860Y-75992218D01*
X97843367Y-76156086D01*
X97767950Y-76338160D01*
X97767947Y-76338170D01*
X97729500Y-76531460D01*
X97190500Y-76531460D01*
X97190500Y-76531459D01*
X97152051Y-76338165D01*
X97076632Y-76156086D01*
X96967139Y-75992218D01*
X96827782Y-75852861D01*
X96663914Y-75743368D01*
X96663915Y-75743368D01*
X96663913Y-75743367D01*
X96481839Y-75667950D01*
X96481829Y-75667947D01*
X96352388Y-75642200D01*
X96288541Y-75629500D01*
X96091459Y-75629500D01*
X96036662Y-75640399D01*
X95898170Y-75667947D01*
X95898160Y-75667950D01*
X95716086Y-75743367D01*
X95552218Y-75852860D01*
X95552217Y-75852862D01*
X95412862Y-75992217D01*
X95412860Y-75992218D01*
X95303367Y-76156086D01*
X95227950Y-76338160D01*
X95227947Y-76338170D01*
X95189500Y-76531460D01*
X94650500Y-76531460D01*
X94650500Y-76531459D01*
X94612051Y-76338165D01*
X94536632Y-76156086D01*
X94427139Y-75992218D01*
X94287782Y-75852861D01*
X94123914Y-75743368D01*
X94123915Y-75743368D01*
X94123913Y-75743367D01*
X93941839Y-75667950D01*
X93941829Y-75667947D01*
X93812388Y-75642200D01*
X93748541Y-75629500D01*
X93551459Y-75629500D01*
X93496662Y-75640399D01*
X93358170Y-75667947D01*
X93358160Y-75667950D01*
X93176086Y-75743367D01*
X93012218Y-75852860D01*
X93012217Y-75852862D01*
X92872862Y-75992217D01*
X92872860Y-75992218D01*
X92763367Y-76156086D01*
X92687950Y-76338160D01*
X92687947Y-76338170D01*
X92649500Y-76531460D01*
X92110500Y-76531460D01*
X92110500Y-76531459D01*
X92072051Y-76338165D01*
X91996632Y-76156086D01*
X91887139Y-75992218D01*
X91747782Y-75852861D01*
X91583914Y-75743368D01*
X91583915Y-75743368D01*
X91583913Y-75743367D01*
X91401839Y-75667950D01*
X91401829Y-75667947D01*
X91272388Y-75642200D01*
X91208541Y-75629500D01*
X91011459Y-75629500D01*
X90956662Y-75640399D01*
X90818170Y-75667947D01*
X90818160Y-75667950D01*
X90636086Y-75743367D01*
X90472218Y-75852860D01*
X90472217Y-75852862D01*
X90332862Y-75992217D01*
X90332860Y-75992218D01*
X90223367Y-76156086D01*
X90147950Y-76338160D01*
X90147947Y-76338170D01*
X90109500Y-76531460D01*
X89570500Y-76531460D01*
X89570500Y-76531459D01*
X89532051Y-76338165D01*
X89456632Y-76156086D01*
X89347139Y-75992218D01*
X89207782Y-75852861D01*
X89043914Y-75743368D01*
X89043915Y-75743368D01*
X89043913Y-75743367D01*
X88861839Y-75667950D01*
X88861829Y-75667947D01*
X88732388Y-75642200D01*
X88668541Y-75629500D01*
X88471459Y-75629500D01*
X88416662Y-75640399D01*
X88278170Y-75667947D01*
X88278160Y-75667950D01*
X88096086Y-75743367D01*
X87932218Y-75852860D01*
X87932217Y-75852862D01*
X87792862Y-75992217D01*
X87792860Y-75992218D01*
X87683367Y-76156086D01*
X87607950Y-76338160D01*
X87607947Y-76338170D01*
X87569500Y-76531460D01*
X87030500Y-76531460D01*
X87030500Y-76531459D01*
X86992051Y-76338165D01*
X86916632Y-76156086D01*
X86807139Y-75992218D01*
X86667782Y-75852861D01*
X86503914Y-75743368D01*
X86503915Y-75743368D01*
X86503913Y-75743367D01*
X86321839Y-75667950D01*
X86321829Y-75667947D01*
X86192388Y-75642200D01*
X86128541Y-75629500D01*
X85931459Y-75629500D01*
X85876662Y-75640399D01*
X85738170Y-75667947D01*
X85738160Y-75667950D01*
X85556086Y-75743367D01*
X85392218Y-75852860D01*
X85392217Y-75852862D01*
X85252862Y-75992217D01*
X85252860Y-75992218D01*
X85143367Y-76156086D01*
X85067950Y-76338160D01*
X85067947Y-76338170D01*
X85029500Y-76531460D01*
X84490500Y-76531460D01*
X84490500Y-76531459D01*
X84452051Y-76338165D01*
X84376632Y-76156086D01*
X84267139Y-75992218D01*
X84127782Y-75852861D01*
X83963914Y-75743368D01*
X83963915Y-75743368D01*
X83963913Y-75743367D01*
X83781839Y-75667950D01*
X83781829Y-75667947D01*
X83652388Y-75642200D01*
X83588541Y-75629500D01*
X83391459Y-75629500D01*
X83336662Y-75640399D01*
X83198170Y-75667947D01*
X83198160Y-75667950D01*
X83016086Y-75743367D01*
X82852218Y-75852860D01*
X82852217Y-75852862D01*
X82712862Y-75992217D01*
X82712860Y-75992218D01*
X82603367Y-76156086D01*
X82527950Y-76338160D01*
X82527947Y-76338170D01*
X82489500Y-76531460D01*
X81950500Y-76531460D01*
X81950500Y-76531459D01*
X81912051Y-76338165D01*
X81836632Y-76156086D01*
X81727139Y-75992218D01*
X81587782Y-75852861D01*
X81423914Y-75743368D01*
X81423915Y-75743368D01*
X81423913Y-75743367D01*
X81241839Y-75667950D01*
X81241829Y-75667947D01*
X81112388Y-75642200D01*
X81048541Y-75629500D01*
X80851459Y-75629500D01*
X80796662Y-75640399D01*
X80658170Y-75667947D01*
X80658160Y-75667950D01*
X80476086Y-75743367D01*
X80312218Y-75852860D01*
X80312217Y-75852862D01*
X80172862Y-75992217D01*
X80172860Y-75992218D01*
X80063367Y-76156086D01*
X79987950Y-76338160D01*
X79987947Y-76338170D01*
X79949500Y-76531460D01*
X79410500Y-76531460D01*
X79410500Y-76531459D01*
X79372051Y-76338165D01*
X79296632Y-76156086D01*
X79187139Y-75992218D01*
X79047782Y-75852861D01*
X78883914Y-75743368D01*
X78883915Y-75743368D01*
X78883913Y-75743367D01*
X78701839Y-75667950D01*
X78701829Y-75667947D01*
X78572388Y-75642200D01*
X78508541Y-75629500D01*
X78311459Y-75629500D01*
X78256662Y-75640399D01*
X78118170Y-75667947D01*
X78118160Y-75667950D01*
X77936086Y-75743367D01*
X77772218Y-75852860D01*
X77772217Y-75852862D01*
X77632862Y-75992217D01*
X77632860Y-75992218D01*
X77523367Y-76156086D01*
X77447950Y-76338160D01*
X77447947Y-76338170D01*
X77409500Y-76531460D01*
X76870500Y-76531460D01*
X76870500Y-76531459D01*
X76832051Y-76338165D01*
X76756632Y-76156086D01*
X76647139Y-75992218D01*
X76507782Y-75852861D01*
X76343914Y-75743368D01*
X76343915Y-75743368D01*
X76343913Y-75743367D01*
X76161839Y-75667950D01*
X76161829Y-75667947D01*
X76032388Y-75642200D01*
X75968541Y-75629500D01*
X75771459Y-75629500D01*
X75716662Y-75640399D01*
X75578170Y-75667947D01*
X75578160Y-75667950D01*
X75396086Y-75743367D01*
X75232218Y-75852860D01*
X75232217Y-75852862D01*
X75092862Y-75992217D01*
X75092860Y-75992218D01*
X74983367Y-76156086D01*
X74907950Y-76338160D01*
X74907947Y-76338170D01*
X74869500Y-76531460D01*
X68200000Y-76531460D01*
X68200000Y-69711460D01*
X105729500Y-69711460D01*
X105729500Y-69908539D01*
X105767947Y-70101829D01*
X105767950Y-70101839D01*
X105843367Y-70283913D01*
X105952860Y-70447781D01*
X106092218Y-70587139D01*
X106256086Y-70696632D01*
X106422542Y-70765580D01*
X106438165Y-70772051D01*
X106631459Y-70810500D01*
X106631461Y-70810500D01*
X106828539Y-70810500D01*
X106828541Y-70810500D01*
X107021835Y-70772051D01*
X107203914Y-70696632D01*
X107367782Y-70587139D01*
X107507139Y-70447782D01*
X107616632Y-70283914D01*
X107692051Y-70101835D01*
X107730500Y-69908541D01*
X107730500Y-69711460D01*
X108269500Y-69711460D01*
X108269500Y-69908539D01*
X108307947Y-70101829D01*
X108307950Y-70101839D01*
X108383367Y-70283913D01*
X108492860Y-70447781D01*
X108632218Y-70587139D01*
X108796086Y-70696632D01*
X108962542Y-70765580D01*
X108978165Y-70772051D01*
X109171459Y-70810500D01*
X109171461Y-70810500D01*
X109368539Y-70810500D01*
X109368541Y-70810500D01*
X109561835Y-70772051D01*
X109743914Y-70696632D01*
X109907782Y-70587139D01*
X110047139Y-70447782D01*
X110156632Y-70283914D01*
X110232051Y-70101835D01*
X110270500Y-69908541D01*
X110270500Y-69711459D01*
X110232051Y-69518165D01*
X110156632Y-69336086D01*
X110047139Y-69172218D01*
X109907782Y-69032861D01*
X109743914Y-68923368D01*
X109743915Y-68923368D01*
X109743913Y-68923367D01*
X109561839Y-68847950D01*
X109561829Y-68847947D01*
X109432388Y-68822200D01*
X109368541Y-68809500D01*
X109171459Y-68809500D01*
X109116662Y-68820399D01*
X108978170Y-68847947D01*
X108978160Y-68847950D01*
X108796086Y-68923367D01*
X108632218Y-69032860D01*
X108632217Y-69032862D01*
X108492862Y-69172217D01*
X108492860Y-69172218D01*
X108383367Y-69336086D01*
X108307950Y-69518160D01*
X108307947Y-69518170D01*
X108269500Y-69711460D01*
X107730500Y-69711460D01*
X107730500Y-69711459D01*
X107692051Y-69518165D01*
X107616632Y-69336086D01*
X107507139Y-69172218D01*
X107367782Y-69032861D01*
X107203914Y-68923368D01*
X107203915Y-68923368D01*
X107203913Y-68923367D01*
X107021839Y-68847950D01*
X107021829Y-68847947D01*
X106892388Y-68822200D01*
X106828541Y-68809500D01*
X106631459Y-68809500D01*
X106576662Y-68820399D01*
X106438170Y-68847947D01*
X106438160Y-68847950D01*
X106256086Y-68923367D01*
X106092218Y-69032860D01*
X106092217Y-69032862D01*
X105952862Y-69172217D01*
X105952860Y-69172218D01*
X105843367Y-69336086D01*
X105767950Y-69518160D01*
X105767947Y-69518170D01*
X105729500Y-69711460D01*
X68200000Y-69711460D01*
X68200000Y-67181310D01*
X97099500Y-67181310D01*
X97099500Y-67358689D01*
X97134104Y-67532660D01*
X97134107Y-67532670D01*
X97201985Y-67696544D01*
X97201986Y-67696546D01*
X97201987Y-67696547D01*
X97300536Y-67844035D01*
X97425965Y-67969464D01*
X97573453Y-68068013D01*
X97737334Y-68135894D01*
X97911309Y-68170500D01*
X97911311Y-68170500D01*
X98088689Y-68170500D01*
X98088691Y-68170500D01*
X98262666Y-68135894D01*
X98426547Y-68068013D01*
X98574035Y-67969464D01*
X98699464Y-67844035D01*
X98798013Y-67696547D01*
X98865894Y-67532666D01*
X98900500Y-67358691D01*
X98900500Y-67181309D01*
X98865894Y-67007334D01*
X98798013Y-66843453D01*
X98699464Y-66695965D01*
X98574035Y-66570536D01*
X98426547Y-66471987D01*
X98426546Y-66471986D01*
X98426544Y-66471985D01*
X98262670Y-66404107D01*
X98262660Y-66404104D01*
X98146156Y-66380930D01*
X98088691Y-66369500D01*
X97911309Y-66369500D01*
X97861989Y-66379310D01*
X97737339Y-66404104D01*
X97737329Y-66404107D01*
X97573455Y-66471985D01*
X97425968Y-66570533D01*
X97300533Y-66695968D01*
X97201985Y-66843455D01*
X97134107Y-67007329D01*
X97134104Y-67007339D01*
X97099500Y-67181310D01*
X68200000Y-67181310D01*
X68200000Y-64641310D01*
X97099500Y-64641310D01*
X97099500Y-64818689D01*
X97134104Y-64992660D01*
X97134107Y-64992670D01*
X97201985Y-65156544D01*
X97201986Y-65156546D01*
X97201987Y-65156547D01*
X97300536Y-65304035D01*
X97425965Y-65429464D01*
X97573453Y-65528013D01*
X97573454Y-65528013D01*
X97573455Y-65528014D01*
X97656966Y-65562605D01*
X97737334Y-65595894D01*
X97911309Y-65630500D01*
X97911311Y-65630500D01*
X98088689Y-65630500D01*
X98088691Y-65630500D01*
X98262666Y-65595894D01*
X98426547Y-65528013D01*
X98574035Y-65429464D01*
X98699464Y-65304035D01*
X98798013Y-65156547D01*
X98865894Y-64992666D01*
X98900500Y-64818691D01*
X98900500Y-64641309D01*
X98865894Y-64467334D01*
X98798013Y-64303453D01*
X98699464Y-64155965D01*
X98574035Y-64030536D01*
X98426547Y-63931987D01*
X98426546Y-63931986D01*
X98426544Y-63931985D01*
X98262670Y-63864107D01*
X98262660Y-63864104D01*
X98146156Y-63840930D01*
X98088691Y-63829500D01*
X97911309Y-63829500D01*
X97861989Y-63839310D01*
X97737339Y-63864104D01*
X97737329Y-63864107D01*
X97573455Y-63931985D01*
X97425968Y-64030533D01*
X97300533Y-64155968D01*
X97201985Y-64303455D01*
X97134107Y-64467329D01*
X97134104Y-64467339D01*
X97099500Y-64641310D01*
X68200000Y-64641310D01*
X68200000Y-62091460D01*
X108269500Y-62091460D01*
X108269500Y-62288539D01*
X108307947Y-62481829D01*
X108307950Y-62481839D01*
X108383367Y-62663913D01*
X108400940Y-62690212D01*
X108492861Y-62827782D01*
X108632218Y-62967139D01*
X108796086Y-63076632D01*
X108978165Y-63152051D01*
X109171459Y-63190500D01*
X109171461Y-63190500D01*
X109368539Y-63190500D01*
X109368541Y-63190500D01*
X109561835Y-63152051D01*
X109689568Y-63099142D01*
X109746204Y-63099142D01*
X109770212Y-63115183D01*
X116947826Y-70292797D01*
X116969500Y-70345123D01*
X116969500Y-72850331D01*
X116947826Y-72902657D01*
X116923819Y-72918698D01*
X116843453Y-72951986D01*
X116695968Y-73050533D01*
X116570533Y-73175968D01*
X116471985Y-73323455D01*
X116404107Y-73487329D01*
X116404104Y-73487339D01*
X116369500Y-73661310D01*
X116369500Y-73838689D01*
X116404104Y-74012660D01*
X116404107Y-74012670D01*
X116471985Y-74176544D01*
X116471986Y-74176546D01*
X116471987Y-74176547D01*
X116570536Y-74324035D01*
X116695965Y-74449464D01*
X116843453Y-74548013D01*
X116843454Y-74548013D01*
X116843455Y-74548014D01*
X116965693Y-74598646D01*
X117007334Y-74615894D01*
X117181309Y-74650500D01*
X117181311Y-74650500D01*
X117358689Y-74650500D01*
X117358691Y-74650500D01*
X117532666Y-74615894D01*
X117696547Y-74548013D01*
X117844035Y-74449464D01*
X117969464Y-74324035D01*
X118068013Y-74176547D01*
X118135894Y-74012666D01*
X118170500Y-73838691D01*
X118170500Y-73661309D01*
X118135894Y-73487334D01*
X118068013Y-73323453D01*
X117969464Y-73175965D01*
X117844035Y-73050536D01*
X117844031Y-73050533D01*
X117696546Y-72951986D01*
X117616181Y-72918698D01*
X117576133Y-72878649D01*
X117570500Y-72850331D01*
X117570500Y-70150436D01*
X117570499Y-70150435D01*
X117550022Y-70074014D01*
X117550020Y-70074009D01*
X117510459Y-70005488D01*
X114686281Y-67181310D01*
X117099500Y-67181310D01*
X117099500Y-67358689D01*
X117134104Y-67532660D01*
X117134107Y-67532670D01*
X117201985Y-67696544D01*
X117201986Y-67696546D01*
X117201987Y-67696547D01*
X117300536Y-67844035D01*
X117425965Y-67969464D01*
X117573453Y-68068013D01*
X117737334Y-68135894D01*
X117911309Y-68170500D01*
X117911311Y-68170500D01*
X118088689Y-68170500D01*
X118088691Y-68170500D01*
X118262666Y-68135894D01*
X118426547Y-68068013D01*
X118574035Y-67969464D01*
X118699464Y-67844035D01*
X118798013Y-67696547D01*
X118865894Y-67532666D01*
X118900500Y-67358691D01*
X118900500Y-67181310D01*
X122099500Y-67181310D01*
X122099500Y-67358689D01*
X122134104Y-67532660D01*
X122134107Y-67532670D01*
X122201985Y-67696544D01*
X122201986Y-67696546D01*
X122201987Y-67696547D01*
X122300536Y-67844035D01*
X122425965Y-67969464D01*
X122573453Y-68068013D01*
X122737334Y-68135894D01*
X122911309Y-68170500D01*
X122911311Y-68170500D01*
X123088689Y-68170500D01*
X123088691Y-68170500D01*
X123262666Y-68135894D01*
X123426547Y-68068013D01*
X123574035Y-67969464D01*
X123699464Y-67844035D01*
X123798013Y-67696547D01*
X123865894Y-67532666D01*
X123900500Y-67358691D01*
X123900500Y-67181309D01*
X123865894Y-67007334D01*
X123798013Y-66843453D01*
X123699464Y-66695965D01*
X123574035Y-66570536D01*
X123426547Y-66471987D01*
X123426546Y-66471986D01*
X123426544Y-66471985D01*
X123262670Y-66404107D01*
X123262660Y-66404104D01*
X123146156Y-66380930D01*
X123088691Y-66369500D01*
X122911309Y-66369500D01*
X122861989Y-66379310D01*
X122737339Y-66404104D01*
X122737329Y-66404107D01*
X122573455Y-66471985D01*
X122425968Y-66570533D01*
X122300533Y-66695968D01*
X122201985Y-66843455D01*
X122134107Y-67007329D01*
X122134104Y-67007339D01*
X122099500Y-67181310D01*
X118900500Y-67181310D01*
X118900500Y-67181309D01*
X118865894Y-67007334D01*
X118798013Y-66843453D01*
X118699464Y-66695965D01*
X118574035Y-66570536D01*
X118426547Y-66471987D01*
X118426546Y-66471986D01*
X118426544Y-66471985D01*
X118262670Y-66404107D01*
X118262660Y-66404104D01*
X118146156Y-66380930D01*
X118088691Y-66369500D01*
X117911309Y-66369500D01*
X117861989Y-66379310D01*
X117737339Y-66404104D01*
X117737329Y-66404107D01*
X117573455Y-66471985D01*
X117425968Y-66570533D01*
X117300533Y-66695968D01*
X117201985Y-66843455D01*
X117134107Y-67007329D01*
X117134104Y-67007339D01*
X117099500Y-67181310D01*
X114686281Y-67181310D01*
X112146281Y-64641310D01*
X117099500Y-64641310D01*
X117099500Y-64818689D01*
X117134104Y-64992660D01*
X117134107Y-64992670D01*
X117201985Y-65156544D01*
X117201986Y-65156546D01*
X117201987Y-65156547D01*
X117300536Y-65304035D01*
X117425965Y-65429464D01*
X117573453Y-65528013D01*
X117573454Y-65528013D01*
X117573455Y-65528014D01*
X117656966Y-65562605D01*
X117737334Y-65595894D01*
X117911309Y-65630500D01*
X117911311Y-65630500D01*
X118088689Y-65630500D01*
X118088691Y-65630500D01*
X118262666Y-65595894D01*
X118426547Y-65528013D01*
X118574035Y-65429464D01*
X118699464Y-65304035D01*
X118798013Y-65156547D01*
X118865894Y-64992666D01*
X118900500Y-64818691D01*
X118900500Y-64641309D01*
X118865894Y-64467334D01*
X118798013Y-64303453D01*
X118699464Y-64155965D01*
X118574035Y-64030536D01*
X118426547Y-63931987D01*
X118426546Y-63931986D01*
X118426544Y-63931985D01*
X118262670Y-63864107D01*
X118262660Y-63864104D01*
X118146156Y-63840930D01*
X118088691Y-63829500D01*
X117911309Y-63829500D01*
X117861989Y-63839310D01*
X117737339Y-63864104D01*
X117737329Y-63864107D01*
X117573455Y-63931985D01*
X117425968Y-64030533D01*
X117300533Y-64155968D01*
X117201985Y-64303455D01*
X117134107Y-64467329D01*
X117134104Y-64467339D01*
X117099500Y-64641310D01*
X112146281Y-64641310D01*
X110821297Y-63316326D01*
X110799623Y-63264000D01*
X110821297Y-63211674D01*
X110873623Y-63190000D01*
X110981536Y-63190000D01*
X110988783Y-63190356D01*
X110990246Y-63190500D01*
X110990252Y-63190500D01*
X112629754Y-63190500D01*
X112631217Y-63190356D01*
X112638464Y-63190000D01*
X112810000Y-63190000D01*
X112810000Y-63018459D01*
X112810357Y-63011203D01*
X112810500Y-63009751D01*
X112810500Y-61370246D01*
X112810356Y-61368783D01*
X112810000Y-61361536D01*
X112810000Y-61190000D01*
X112638464Y-61190000D01*
X112631217Y-61189644D01*
X112629754Y-61189500D01*
X112629748Y-61189500D01*
X110990252Y-61189500D01*
X110990246Y-61189500D01*
X110988783Y-61189644D01*
X110981536Y-61190000D01*
X110810000Y-61190000D01*
X110810000Y-61361536D01*
X110809644Y-61368783D01*
X110809500Y-61370246D01*
X110809500Y-63009751D01*
X110809643Y-63011203D01*
X110810000Y-63018459D01*
X110810000Y-63126377D01*
X110788326Y-63178703D01*
X110736000Y-63200377D01*
X110683674Y-63178703D01*
X110195183Y-62690212D01*
X110173509Y-62637886D01*
X110179142Y-62609567D01*
X110232051Y-62481835D01*
X110270500Y-62288541D01*
X110270500Y-62091459D01*
X110232051Y-61898165D01*
X110156632Y-61716086D01*
X110047139Y-61552218D01*
X109907782Y-61412861D01*
X109844014Y-61370252D01*
X109743913Y-61303367D01*
X109561839Y-61227950D01*
X109561829Y-61227947D01*
X109427023Y-61201133D01*
X109368541Y-61189500D01*
X109171459Y-61189500D01*
X109116662Y-61200399D01*
X108978170Y-61227947D01*
X108978160Y-61227950D01*
X108796086Y-61303367D01*
X108632218Y-61412860D01*
X108632217Y-61412862D01*
X108492862Y-61552217D01*
X108492860Y-61552218D01*
X108383367Y-61716086D01*
X108307950Y-61898160D01*
X108307947Y-61898170D01*
X108269500Y-62091460D01*
X68200000Y-62091460D01*
X68200000Y-60274000D01*
X68221674Y-60221674D01*
X68274000Y-60200000D01*
X131726000Y-60200000D01*
X131778326Y-60221674D01*
G37*
%TD.AperFunction*%
%TA.AperFunction,Conductor*%
G36*
X115088326Y-131791597D02*
G01*
X115110000Y-131843923D01*
X115110000Y-139726000D01*
X115088326Y-139778326D01*
X115036000Y-139800000D01*
X112704500Y-139800000D01*
X112652174Y-139778326D01*
X112630500Y-139726000D01*
X112630500Y-133062800D01*
X112652174Y-133010474D01*
X112704500Y-132988800D01*
X113701564Y-132988800D01*
X113701564Y-132988799D01*
X113777989Y-132968321D01*
X113846511Y-132928760D01*
X113902460Y-132872811D01*
X114983674Y-131791597D01*
X115036000Y-131769923D01*
X115088326Y-131791597D01*
G37*
%TD.AperFunction*%
%TA.AperFunction,Conductor*%
G36*
X83666612Y-98972309D02*
G01*
X83698078Y-99019401D01*
X83699500Y-99033838D01*
X83699500Y-104829564D01*
X83719977Y-104905985D01*
X83719979Y-104905990D01*
X83747865Y-104954289D01*
X83759540Y-104974511D01*
X84344816Y-105559787D01*
X84366490Y-105612113D01*
X84360857Y-105640431D01*
X84307950Y-105768160D01*
X84307947Y-105768170D01*
X84269500Y-105961460D01*
X84269500Y-106158539D01*
X84307947Y-106351829D01*
X84307950Y-106351839D01*
X84383367Y-106533913D01*
X84464928Y-106655977D01*
X84492861Y-106697782D01*
X84632218Y-106837139D01*
X84796086Y-106946632D01*
X84978165Y-107022051D01*
X85171459Y-107060500D01*
X85171461Y-107060500D01*
X85368539Y-107060500D01*
X85368541Y-107060500D01*
X85561835Y-107022051D01*
X85743914Y-106946632D01*
X85907782Y-106837139D01*
X85968374Y-106776547D01*
X86020700Y-106754873D01*
X86073026Y-106776547D01*
X86094700Y-106828873D01*
X86094700Y-107366777D01*
X86073026Y-107419103D01*
X84648740Y-108843388D01*
X84609179Y-108911909D01*
X84609177Y-108911914D01*
X84588700Y-108988335D01*
X84588700Y-122757677D01*
X84567026Y-122810003D01*
X80709540Y-126667488D01*
X80669979Y-126736009D01*
X80669977Y-126736014D01*
X80649500Y-126812435D01*
X80649500Y-132715500D01*
X80627826Y-132767826D01*
X80575500Y-132789500D01*
X79930246Y-132789500D01*
X79928783Y-132789644D01*
X79921536Y-132790000D01*
X79750000Y-132790000D01*
X79732326Y-132807674D01*
X79680000Y-132829348D01*
X79627674Y-132807674D01*
X79610000Y-132790000D01*
X79438464Y-132790000D01*
X79431217Y-132789644D01*
X79429754Y-132789500D01*
X79429748Y-132789500D01*
X78912423Y-132789500D01*
X78860097Y-132767826D01*
X78838423Y-132715500D01*
X78860097Y-132663174D01*
X78917312Y-132605959D01*
X79010460Y-132512811D01*
X79041919Y-132458322D01*
X79050021Y-132444289D01*
X79070499Y-132367864D01*
X79070500Y-132367864D01*
X79070500Y-106311620D01*
X79092174Y-106259294D01*
X79144500Y-106237620D01*
X79196826Y-106259294D01*
X79217078Y-106297183D01*
X79227947Y-106351829D01*
X79227950Y-106351839D01*
X79303367Y-106533913D01*
X79384928Y-106655977D01*
X79412861Y-106697782D01*
X79552218Y-106837139D01*
X79716086Y-106946632D01*
X79898165Y-107022051D01*
X80091459Y-107060500D01*
X80091461Y-107060500D01*
X80288539Y-107060500D01*
X80288541Y-107060500D01*
X80481835Y-107022051D01*
X80663914Y-106946632D01*
X80827782Y-106837139D01*
X80967139Y-106697782D01*
X81076632Y-106533914D01*
X81152051Y-106351835D01*
X81190500Y-106158541D01*
X81190500Y-105961460D01*
X81729500Y-105961460D01*
X81729500Y-106158539D01*
X81767947Y-106351829D01*
X81767950Y-106351839D01*
X81843367Y-106533913D01*
X81924928Y-106655977D01*
X81952861Y-106697782D01*
X82092218Y-106837139D01*
X82256086Y-106946632D01*
X82438165Y-107022051D01*
X82631459Y-107060500D01*
X82631461Y-107060500D01*
X82828539Y-107060500D01*
X82828541Y-107060500D01*
X83021835Y-107022051D01*
X83203914Y-106946632D01*
X83367782Y-106837139D01*
X83507139Y-106697782D01*
X83616632Y-106533914D01*
X83692051Y-106351835D01*
X83730500Y-106158541D01*
X83730500Y-105961459D01*
X83692051Y-105768165D01*
X83616632Y-105586086D01*
X83507139Y-105422218D01*
X83367782Y-105282861D01*
X83208692Y-105176560D01*
X83203913Y-105173367D01*
X83021839Y-105097950D01*
X83021829Y-105097947D01*
X82888441Y-105071415D01*
X82828541Y-105059500D01*
X82631459Y-105059500D01*
X82576662Y-105070399D01*
X82438170Y-105097947D01*
X82438160Y-105097950D01*
X82256086Y-105173367D01*
X82092218Y-105282860D01*
X82092217Y-105282862D01*
X81952862Y-105422217D01*
X81952860Y-105422218D01*
X81843367Y-105586086D01*
X81767950Y-105768160D01*
X81767947Y-105768170D01*
X81729500Y-105961460D01*
X81190500Y-105961460D01*
X81190500Y-105961459D01*
X81152051Y-105768165D01*
X81076632Y-105586086D01*
X80967139Y-105422218D01*
X80827782Y-105282861D01*
X80668692Y-105176560D01*
X80663913Y-105173367D01*
X80481839Y-105097950D01*
X80481829Y-105097947D01*
X80348441Y-105071415D01*
X80288541Y-105059500D01*
X80091459Y-105059500D01*
X80036662Y-105070399D01*
X79898170Y-105097947D01*
X79898160Y-105097950D01*
X79716086Y-105173367D01*
X79552218Y-105282860D01*
X79552217Y-105282862D01*
X79412862Y-105422217D01*
X79412860Y-105422218D01*
X79303367Y-105586086D01*
X79227950Y-105768160D01*
X79227947Y-105768170D01*
X79217078Y-105822816D01*
X79185612Y-105869908D01*
X79130063Y-105880957D01*
X79082971Y-105849491D01*
X79070500Y-105808379D01*
X79070500Y-102555122D01*
X79092173Y-102502797D01*
X82229787Y-99365182D01*
X82282112Y-99343509D01*
X82310430Y-99349142D01*
X82438160Y-99402049D01*
X82438165Y-99402051D01*
X82631459Y-99440500D01*
X82631461Y-99440500D01*
X82828539Y-99440500D01*
X82828541Y-99440500D01*
X83021835Y-99402051D01*
X83203914Y-99326632D01*
X83367782Y-99217139D01*
X83507139Y-99077782D01*
X83563971Y-98992725D01*
X83611063Y-98961260D01*
X83666612Y-98972309D01*
G37*
%TD.AperFunction*%
%TA.AperFunction,Conductor*%
G36*
X113855329Y-106178508D02*
G01*
X113867800Y-106219620D01*
X113867800Y-106555862D01*
X113888279Y-106632289D01*
X113899383Y-106651521D01*
X113903276Y-106658265D01*
X113903277Y-106658266D01*
X113927839Y-106700810D01*
X114817826Y-107590797D01*
X114839500Y-107643123D01*
X114839500Y-109905927D01*
X114817826Y-109958253D01*
X114765500Y-109979927D01*
X114713174Y-109958253D01*
X114607781Y-109852860D01*
X114443913Y-109743367D01*
X114261839Y-109667950D01*
X114261829Y-109667947D01*
X114120327Y-109639801D01*
X114068541Y-109629500D01*
X113871459Y-109629500D01*
X113819673Y-109639801D01*
X113678170Y-109667947D01*
X113678160Y-109667950D01*
X113496086Y-109743367D01*
X113332218Y-109852860D01*
X113332217Y-109852862D01*
X113192862Y-109992217D01*
X113192860Y-109992218D01*
X113083367Y-110156086D01*
X113007950Y-110338160D01*
X113007947Y-110338170D01*
X112969500Y-110531460D01*
X112969500Y-110728539D01*
X113007947Y-110921829D01*
X113007950Y-110921839D01*
X113083367Y-111103913D01*
X113167476Y-111229790D01*
X113192861Y-111267782D01*
X113332218Y-111407139D01*
X113496086Y-111516632D01*
X113597218Y-111558521D01*
X113637267Y-111598569D01*
X113642900Y-111626888D01*
X113642900Y-112414034D01*
X113621226Y-112466360D01*
X113542900Y-112544685D01*
X113477010Y-112658809D01*
X113477006Y-112658818D01*
X113442900Y-112786105D01*
X113442900Y-112917894D01*
X113477006Y-113045181D01*
X113477010Y-113045190D01*
X113531095Y-113138867D01*
X113542900Y-113159314D01*
X113636086Y-113252500D01*
X113750214Y-113318392D01*
X113877505Y-113352499D01*
X113877506Y-113352500D01*
X113877508Y-113352500D01*
X114009294Y-113352500D01*
X114009294Y-113352499D01*
X114136586Y-113318392D01*
X114250714Y-113252500D01*
X114343900Y-113159314D01*
X114409792Y-113045186D01*
X114443899Y-112917894D01*
X114443900Y-112917894D01*
X114443900Y-112786106D01*
X114443899Y-112786105D01*
X114409793Y-112658818D01*
X114409792Y-112658814D01*
X114343900Y-112544686D01*
X114265574Y-112466360D01*
X114243900Y-112414034D01*
X114243900Y-111648925D01*
X114265574Y-111596599D01*
X114289582Y-111580558D01*
X114342784Y-111558521D01*
X114443914Y-111516632D01*
X114607782Y-111407139D01*
X114713174Y-111301747D01*
X114765500Y-111280073D01*
X114817826Y-111301747D01*
X114839500Y-111354073D01*
X114839500Y-124544876D01*
X114817826Y-124597202D01*
X114470211Y-124944816D01*
X114417885Y-124966490D01*
X114389567Y-124960857D01*
X114261839Y-124907950D01*
X114261829Y-124907947D01*
X114110966Y-124877939D01*
X114068541Y-124869500D01*
X113871459Y-124869500D01*
X113829034Y-124877939D01*
X113678170Y-124907947D01*
X113678160Y-124907950D01*
X113496086Y-124983367D01*
X113332218Y-125092860D01*
X113332217Y-125092862D01*
X113192862Y-125232217D01*
X113192861Y-125232217D01*
X113183928Y-125245587D01*
X113136835Y-125277051D01*
X113081286Y-125266001D01*
X113049822Y-125218908D01*
X113048400Y-125204473D01*
X113048400Y-111908336D01*
X113048399Y-111908335D01*
X113027922Y-111831914D01*
X113027920Y-111831909D01*
X113017320Y-111813549D01*
X112988360Y-111763389D01*
X112932411Y-111707440D01*
X112355183Y-111130212D01*
X112333509Y-111077886D01*
X112339142Y-111049567D01*
X112355116Y-111011003D01*
X112392051Y-110921835D01*
X112430500Y-110728541D01*
X112430500Y-110531459D01*
X112392051Y-110338165D01*
X112316632Y-110156086D01*
X112207139Y-109992218D01*
X112067782Y-109852861D01*
X112004014Y-109810252D01*
X111903913Y-109743367D01*
X111721839Y-109667950D01*
X111721829Y-109667947D01*
X111580327Y-109639801D01*
X111528541Y-109629500D01*
X111331459Y-109629500D01*
X111279673Y-109639801D01*
X111138170Y-109667947D01*
X111138160Y-109667950D01*
X110956086Y-109743367D01*
X110792218Y-109852860D01*
X110792217Y-109852862D01*
X110652862Y-109992217D01*
X110652860Y-109992218D01*
X110543367Y-110156086D01*
X110467950Y-110338160D01*
X110467947Y-110338170D01*
X110429500Y-110531460D01*
X110429500Y-110728539D01*
X110467947Y-110921829D01*
X110467950Y-110921839D01*
X110543367Y-111103913D01*
X110652860Y-111267781D01*
X110792218Y-111407139D01*
X110956086Y-111516632D01*
X111125212Y-111586686D01*
X111138165Y-111592051D01*
X111331459Y-111630500D01*
X111331461Y-111630500D01*
X111528539Y-111630500D01*
X111528541Y-111630500D01*
X111721835Y-111592051D01*
X111849568Y-111539142D01*
X111906204Y-111539142D01*
X111930212Y-111555183D01*
X112425726Y-112050697D01*
X112447400Y-112103023D01*
X112447400Y-125347848D01*
X112425726Y-125400174D01*
X112373400Y-125421848D01*
X112321074Y-125400174D01*
X112311871Y-125388960D01*
X112207139Y-125232218D01*
X112067781Y-125092860D01*
X111903913Y-124983367D01*
X111721839Y-124907950D01*
X111721829Y-124907947D01*
X111570966Y-124877939D01*
X111528541Y-124869500D01*
X111331459Y-124869500D01*
X111289034Y-124877939D01*
X111138170Y-124907947D01*
X111138160Y-124907950D01*
X110956086Y-124983367D01*
X110792218Y-125092860D01*
X110792217Y-125092862D01*
X110671826Y-125213253D01*
X110619500Y-125234927D01*
X110567174Y-125213253D01*
X110545500Y-125160927D01*
X110545500Y-111945436D01*
X110545499Y-111945435D01*
X110525022Y-111869014D01*
X110525020Y-111869009D01*
X110501406Y-111828108D01*
X110485460Y-111800489D01*
X110429511Y-111744540D01*
X109815183Y-111130212D01*
X109793509Y-111077886D01*
X109799142Y-111049567D01*
X109815116Y-111011003D01*
X109852051Y-110921835D01*
X109890500Y-110728541D01*
X109890500Y-110531459D01*
X109852051Y-110338165D01*
X109776632Y-110156086D01*
X109667139Y-109992218D01*
X109527782Y-109852861D01*
X109464014Y-109810252D01*
X109363913Y-109743367D01*
X109181839Y-109667950D01*
X109181829Y-109667947D01*
X109040327Y-109639801D01*
X108988541Y-109629500D01*
X108791459Y-109629500D01*
X108739673Y-109639801D01*
X108598170Y-109667947D01*
X108598160Y-109667950D01*
X108416086Y-109743367D01*
X108252218Y-109852860D01*
X108252217Y-109852862D01*
X108112862Y-109992217D01*
X108112860Y-109992218D01*
X108003367Y-110156086D01*
X107927950Y-110338160D01*
X107927947Y-110338170D01*
X107889500Y-110531460D01*
X107889500Y-110728539D01*
X107927947Y-110921829D01*
X107927950Y-110921839D01*
X108003367Y-111103913D01*
X108112860Y-111267781D01*
X108252218Y-111407139D01*
X108416086Y-111516632D01*
X108585212Y-111586686D01*
X108598165Y-111592051D01*
X108791459Y-111630500D01*
X108791461Y-111630500D01*
X108988539Y-111630500D01*
X108988541Y-111630500D01*
X109181835Y-111592051D01*
X109309568Y-111539142D01*
X109366204Y-111539142D01*
X109390212Y-111555183D01*
X109922826Y-112087797D01*
X109944500Y-112140123D01*
X109944500Y-125429332D01*
X109922826Y-125481658D01*
X109870500Y-125503332D01*
X109818174Y-125481658D01*
X109802133Y-125457651D01*
X109787303Y-125421848D01*
X109776632Y-125396086D01*
X109667139Y-125232218D01*
X109527782Y-125092861D01*
X109519351Y-125087227D01*
X109363913Y-124983367D01*
X109181839Y-124907950D01*
X109181829Y-124907947D01*
X109030966Y-124877939D01*
X108988541Y-124869500D01*
X108791459Y-124869500D01*
X108749034Y-124877939D01*
X108598170Y-124907947D01*
X108598160Y-124907950D01*
X108416086Y-124983367D01*
X108252218Y-125092860D01*
X108252217Y-125092862D01*
X108112862Y-125232217D01*
X108112860Y-125232218D01*
X108056029Y-125317273D01*
X108008937Y-125348739D01*
X107953388Y-125337690D01*
X107921922Y-125290598D01*
X107920500Y-125276161D01*
X107920500Y-111860436D01*
X107920499Y-111860435D01*
X107912855Y-111831909D01*
X107900021Y-111784011D01*
X107860460Y-111715489D01*
X107804511Y-111659540D01*
X107275183Y-111130212D01*
X107253509Y-111077886D01*
X107259142Y-111049567D01*
X107275116Y-111011003D01*
X107312051Y-110921835D01*
X107350500Y-110728541D01*
X107350500Y-110531459D01*
X107312051Y-110338165D01*
X107236632Y-110156086D01*
X107127139Y-109992218D01*
X106987782Y-109852861D01*
X106924014Y-109810252D01*
X106823913Y-109743367D01*
X106641839Y-109667950D01*
X106641829Y-109667947D01*
X106500327Y-109639801D01*
X106448541Y-109629500D01*
X106251459Y-109629500D01*
X106199673Y-109639801D01*
X106058170Y-109667947D01*
X106058160Y-109667950D01*
X105876086Y-109743367D01*
X105712218Y-109852860D01*
X105712217Y-109852862D01*
X105572862Y-109992217D01*
X105572860Y-109992218D01*
X105463367Y-110156086D01*
X105387950Y-110338160D01*
X105387947Y-110338170D01*
X105349500Y-110531460D01*
X105349500Y-110728539D01*
X105387947Y-110921829D01*
X105387950Y-110921839D01*
X105463367Y-111103913D01*
X105572860Y-111267781D01*
X105712218Y-111407139D01*
X105876086Y-111516632D01*
X106045212Y-111586686D01*
X106058165Y-111592051D01*
X106251459Y-111630500D01*
X106251461Y-111630500D01*
X106448539Y-111630500D01*
X106448541Y-111630500D01*
X106641835Y-111592051D01*
X106769568Y-111539142D01*
X106826204Y-111539142D01*
X106850212Y-111555183D01*
X107297826Y-112002797D01*
X107319500Y-112055123D01*
X107319500Y-125276161D01*
X107297826Y-125328487D01*
X107245500Y-125350161D01*
X107193174Y-125328487D01*
X107183971Y-125317273D01*
X107127139Y-125232218D01*
X106987781Y-125092860D01*
X106823913Y-124983367D01*
X106641839Y-124907950D01*
X106641829Y-124907947D01*
X106490966Y-124877939D01*
X106448541Y-124869500D01*
X106251459Y-124869500D01*
X106209034Y-124877939D01*
X106058170Y-124907947D01*
X106058160Y-124907950D01*
X105876086Y-124983367D01*
X105712218Y-125092860D01*
X105712217Y-125092862D01*
X105572862Y-125232217D01*
X105572860Y-125232218D01*
X105463367Y-125396086D01*
X105387950Y-125578160D01*
X105387947Y-125578170D01*
X105356530Y-125736117D01*
X105349500Y-125771459D01*
X105349500Y-125968541D01*
X105353472Y-125988508D01*
X105387947Y-126161829D01*
X105387950Y-126161839D01*
X105463367Y-126343913D01*
X105563929Y-126494414D01*
X105572861Y-126507782D01*
X105712218Y-126647139D01*
X105876086Y-126756632D01*
X106003818Y-126809539D01*
X106043867Y-126849587D01*
X106049500Y-126877906D01*
X106049500Y-132715500D01*
X106027826Y-132767826D01*
X105975500Y-132789500D01*
X105330246Y-132789500D01*
X105328783Y-132789644D01*
X105321536Y-132790000D01*
X105150000Y-132790000D01*
X105132326Y-132807674D01*
X105080000Y-132829348D01*
X105027674Y-132807674D01*
X105010000Y-132790000D01*
X104838464Y-132790000D01*
X104831217Y-132789644D01*
X104829754Y-132789500D01*
X104829748Y-132789500D01*
X104278253Y-132789500D01*
X104225927Y-132767826D01*
X104204253Y-132715500D01*
X104211733Y-132687564D01*
X104210064Y-132686873D01*
X104211917Y-132682395D01*
X104211922Y-132682388D01*
X104232400Y-132605962D01*
X104232400Y-132526838D01*
X104232400Y-126827414D01*
X104254074Y-126775088D01*
X104278083Y-126759046D01*
X104283914Y-126756632D01*
X104447782Y-126647139D01*
X104587139Y-126507782D01*
X104696632Y-126343914D01*
X104772051Y-126161835D01*
X104810500Y-125968541D01*
X104810500Y-125771459D01*
X104772051Y-125578165D01*
X104696632Y-125396086D01*
X104587139Y-125232218D01*
X104447782Y-125092861D01*
X104439351Y-125087227D01*
X104283913Y-124983367D01*
X104101839Y-124907950D01*
X104101829Y-124907947D01*
X103950966Y-124877939D01*
X103908541Y-124869500D01*
X103711459Y-124869500D01*
X103669034Y-124877939D01*
X103518170Y-124907947D01*
X103518160Y-124907950D01*
X103336086Y-124983367D01*
X103172218Y-125092860D01*
X103172217Y-125092862D01*
X103032862Y-125232217D01*
X103032860Y-125232218D01*
X102923367Y-125396086D01*
X102847950Y-125578160D01*
X102847947Y-125578170D01*
X102816530Y-125736117D01*
X102809500Y-125771459D01*
X102809500Y-125968541D01*
X102813472Y-125988508D01*
X102847947Y-126161829D01*
X102847950Y-126161839D01*
X102923367Y-126343913D01*
X103032860Y-126507781D01*
X103172218Y-126647139D01*
X103336086Y-126756632D01*
X103502542Y-126825580D01*
X103518165Y-126832051D01*
X103571837Y-126842727D01*
X103618929Y-126874193D01*
X103631400Y-126915305D01*
X103631400Y-129592877D01*
X103609726Y-129645203D01*
X103557400Y-129666877D01*
X103505074Y-129645203D01*
X100474074Y-126614203D01*
X100452400Y-126561877D01*
X100452400Y-111903222D01*
X100474073Y-111850897D01*
X100769787Y-111555182D01*
X100822113Y-111533509D01*
X100850431Y-111539141D01*
X100978165Y-111592051D01*
X101171459Y-111630500D01*
X101171461Y-111630500D01*
X101368539Y-111630500D01*
X101368541Y-111630500D01*
X101561835Y-111592051D01*
X101743914Y-111516632D01*
X101907782Y-111407139D01*
X102047139Y-111267782D01*
X102156632Y-111103914D01*
X102232051Y-110921835D01*
X102270500Y-110728541D01*
X102270500Y-110531460D01*
X102809500Y-110531460D01*
X102809500Y-110728539D01*
X102847947Y-110921829D01*
X102847950Y-110921839D01*
X102923367Y-111103913D01*
X103032860Y-111267781D01*
X103172218Y-111407139D01*
X103336086Y-111516632D01*
X103505212Y-111586686D01*
X103518165Y-111592051D01*
X103711459Y-111630500D01*
X103711461Y-111630500D01*
X103908539Y-111630500D01*
X103908541Y-111630500D01*
X103988564Y-111614582D01*
X104044112Y-111625631D01*
X104075578Y-111672723D01*
X104077000Y-111687160D01*
X104077000Y-120673534D01*
X104055326Y-120725860D01*
X103977000Y-120804185D01*
X103911110Y-120918309D01*
X103911106Y-120918318D01*
X103877000Y-121045605D01*
X103877000Y-121177394D01*
X103911106Y-121304681D01*
X103911107Y-121304684D01*
X103911108Y-121304686D01*
X103977000Y-121418814D01*
X104070186Y-121512000D01*
X104184314Y-121577892D01*
X104311605Y-121611999D01*
X104311606Y-121612000D01*
X104311608Y-121612000D01*
X104443394Y-121612000D01*
X104443394Y-121611999D01*
X104570686Y-121577892D01*
X104684814Y-121512000D01*
X104778000Y-121418814D01*
X104843892Y-121304686D01*
X104877999Y-121177394D01*
X104878000Y-121177394D01*
X104878000Y-121045606D01*
X104877999Y-121045605D01*
X104843893Y-120918318D01*
X104843892Y-120918314D01*
X104778000Y-120804186D01*
X104699674Y-120725860D01*
X104678000Y-120673534D01*
X104678000Y-111154246D01*
X104690473Y-111113131D01*
X104696629Y-111103918D01*
X104696632Y-111103914D01*
X104772051Y-110921835D01*
X104810500Y-110728541D01*
X104810500Y-110531459D01*
X104772051Y-110338165D01*
X104696632Y-110156086D01*
X104587139Y-109992218D01*
X104447782Y-109852861D01*
X104384014Y-109810252D01*
X104283913Y-109743367D01*
X104101839Y-109667950D01*
X104101829Y-109667947D01*
X103960327Y-109639801D01*
X103908541Y-109629500D01*
X103711459Y-109629500D01*
X103659673Y-109639801D01*
X103518170Y-109667947D01*
X103518160Y-109667950D01*
X103336086Y-109743367D01*
X103172218Y-109852860D01*
X103172217Y-109852862D01*
X103032862Y-109992217D01*
X103032860Y-109992218D01*
X102923367Y-110156086D01*
X102847950Y-110338160D01*
X102847947Y-110338170D01*
X102809500Y-110531460D01*
X102270500Y-110531460D01*
X102270500Y-110531459D01*
X102232051Y-110338165D01*
X102156632Y-110156086D01*
X102047139Y-109992218D01*
X101907782Y-109852861D01*
X101844014Y-109810252D01*
X101743913Y-109743367D01*
X101561839Y-109667950D01*
X101561829Y-109667947D01*
X101420327Y-109639801D01*
X101368541Y-109629500D01*
X101171459Y-109629500D01*
X101119673Y-109639801D01*
X100978170Y-109667947D01*
X100978160Y-109667950D01*
X100796086Y-109743367D01*
X100632218Y-109852860D01*
X100632217Y-109852862D01*
X100492862Y-109992217D01*
X100492860Y-109992218D01*
X100383367Y-110156086D01*
X100307950Y-110338160D01*
X100307947Y-110338170D01*
X100269500Y-110531460D01*
X100269500Y-110728539D01*
X100307947Y-110921829D01*
X100307950Y-110921839D01*
X100360857Y-111049567D01*
X100360857Y-111106204D01*
X100344816Y-111130211D01*
X99967389Y-111507640D01*
X99911440Y-111563588D01*
X99871879Y-111632109D01*
X99871877Y-111632114D01*
X99851400Y-111708535D01*
X99851400Y-125627931D01*
X99829726Y-125680257D01*
X99777400Y-125701931D01*
X99725074Y-125680257D01*
X99704822Y-125642368D01*
X99692052Y-125578170D01*
X99692051Y-125578169D01*
X99692051Y-125578165D01*
X99616632Y-125396086D01*
X99507139Y-125232218D01*
X99367782Y-125092861D01*
X99359351Y-125087227D01*
X99203913Y-124983367D01*
X99021839Y-124907950D01*
X99021829Y-124907947D01*
X98870966Y-124877939D01*
X98828541Y-124869500D01*
X98631459Y-124869500D01*
X98589034Y-124877939D01*
X98438170Y-124907947D01*
X98438160Y-124907950D01*
X98256086Y-124983367D01*
X98092218Y-125092860D01*
X98092217Y-125092862D01*
X98045526Y-125139553D01*
X97993200Y-125161227D01*
X97940874Y-125139553D01*
X97919200Y-125087227D01*
X97919200Y-111896422D01*
X97940873Y-111844097D01*
X98229787Y-111555182D01*
X98282113Y-111533509D01*
X98310431Y-111539141D01*
X98438165Y-111592051D01*
X98631459Y-111630500D01*
X98631461Y-111630500D01*
X98828539Y-111630500D01*
X98828541Y-111630500D01*
X99021835Y-111592051D01*
X99203914Y-111516632D01*
X99367782Y-111407139D01*
X99507139Y-111267782D01*
X99616632Y-111103914D01*
X99692051Y-110921835D01*
X99730500Y-110728541D01*
X99730500Y-110531459D01*
X99692051Y-110338165D01*
X99616632Y-110156086D01*
X99507139Y-109992218D01*
X99367782Y-109852861D01*
X99304014Y-109810252D01*
X99203913Y-109743367D01*
X99021839Y-109667950D01*
X99021829Y-109667947D01*
X98880327Y-109639801D01*
X98828541Y-109629500D01*
X98631459Y-109629500D01*
X98579673Y-109639801D01*
X98438170Y-109667947D01*
X98438160Y-109667950D01*
X98256086Y-109743367D01*
X98092218Y-109852860D01*
X98092217Y-109852862D01*
X97952862Y-109992217D01*
X97952860Y-109992218D01*
X97843367Y-110156086D01*
X97767950Y-110338160D01*
X97767947Y-110338170D01*
X97729500Y-110531460D01*
X97729500Y-110728539D01*
X97767947Y-110921829D01*
X97767950Y-110921839D01*
X97820857Y-111049567D01*
X97820857Y-111106204D01*
X97804816Y-111130211D01*
X97434189Y-111500840D01*
X97378240Y-111556788D01*
X97338679Y-111625309D01*
X97338677Y-111625314D01*
X97318200Y-111701735D01*
X97318200Y-112328432D01*
X97296526Y-112380758D01*
X97244200Y-112402432D01*
X97191874Y-112380758D01*
X97172722Y-112347585D01*
X97152393Y-112271718D01*
X97152392Y-112271714D01*
X97086500Y-112157586D01*
X96993314Y-112064400D01*
X96977246Y-112055123D01*
X96879190Y-111998510D01*
X96879181Y-111998506D01*
X96751894Y-111964400D01*
X96751892Y-111964400D01*
X96620108Y-111964400D01*
X96620106Y-111964400D01*
X96492818Y-111998506D01*
X96488329Y-112000366D01*
X96487312Y-111997911D01*
X96439607Y-112004165D01*
X96394693Y-111969661D01*
X96384800Y-111932697D01*
X96384800Y-111672082D01*
X96406474Y-111619756D01*
X96444365Y-111599504D01*
X96481826Y-111592053D01*
X96481827Y-111592052D01*
X96481835Y-111592051D01*
X96663914Y-111516632D01*
X96827782Y-111407139D01*
X96967139Y-111267782D01*
X97076632Y-111103914D01*
X97152051Y-110921835D01*
X97190500Y-110728541D01*
X97190500Y-110531459D01*
X97152051Y-110338165D01*
X97076632Y-110156086D01*
X96967139Y-109992218D01*
X96827782Y-109852861D01*
X96764014Y-109810252D01*
X96663913Y-109743367D01*
X96481839Y-109667950D01*
X96481829Y-109667947D01*
X96340327Y-109639801D01*
X96288541Y-109629500D01*
X96091459Y-109629500D01*
X96039673Y-109639801D01*
X95898170Y-109667947D01*
X95898160Y-109667950D01*
X95716086Y-109743367D01*
X95552218Y-109852860D01*
X95552217Y-109852862D01*
X95412862Y-109992217D01*
X95412860Y-109992218D01*
X95303367Y-110156086D01*
X95227950Y-110338160D01*
X95227947Y-110338170D01*
X95189500Y-110531460D01*
X95189500Y-110728539D01*
X95227947Y-110921829D01*
X95227950Y-110921839D01*
X95303367Y-111103913D01*
X95387476Y-111229790D01*
X95412861Y-111267782D01*
X95552218Y-111407139D01*
X95716086Y-111516632D01*
X95738117Y-111525757D01*
X95778166Y-111565802D01*
X95783800Y-111594124D01*
X95783800Y-123346876D01*
X95762126Y-123399202D01*
X95156504Y-124004823D01*
X95104178Y-124026497D01*
X95051852Y-124004823D01*
X95035902Y-123977197D01*
X95034947Y-123977593D01*
X95033091Y-123973112D01*
X94967199Y-123858985D01*
X94874014Y-123765800D01*
X94759890Y-123699910D01*
X94759881Y-123699906D01*
X94632594Y-123665800D01*
X94632592Y-123665800D01*
X94521823Y-123665800D01*
X94469497Y-123644126D01*
X93972174Y-123146803D01*
X93950500Y-123094477D01*
X93950500Y-111637906D01*
X93972174Y-111585580D01*
X93996180Y-111569539D01*
X94123914Y-111516632D01*
X94287782Y-111407139D01*
X94427139Y-111267782D01*
X94536632Y-111103914D01*
X94612051Y-110921835D01*
X94650500Y-110728541D01*
X94650500Y-110531459D01*
X94612051Y-110338165D01*
X94536632Y-110156086D01*
X94427139Y-109992218D01*
X94287782Y-109852861D01*
X94224014Y-109810252D01*
X94123913Y-109743367D01*
X93941839Y-109667950D01*
X93941829Y-109667947D01*
X93800327Y-109639801D01*
X93748541Y-109629500D01*
X93551459Y-109629500D01*
X93499673Y-109639801D01*
X93358170Y-109667947D01*
X93358160Y-109667950D01*
X93176086Y-109743367D01*
X93012218Y-109852860D01*
X93012217Y-109852862D01*
X92872862Y-109992217D01*
X92872860Y-109992218D01*
X92763367Y-110156086D01*
X92687950Y-110338160D01*
X92687947Y-110338170D01*
X92649500Y-110531460D01*
X92649500Y-110728539D01*
X92687947Y-110921829D01*
X92687950Y-110921839D01*
X92763367Y-111103913D01*
X92847476Y-111229790D01*
X92872861Y-111267782D01*
X93012218Y-111407139D01*
X93176086Y-111516632D01*
X93303818Y-111569539D01*
X93343867Y-111609587D01*
X93349500Y-111637906D01*
X93349500Y-123289164D01*
X93369977Y-123365585D01*
X93369979Y-123365590D01*
X93409540Y-123434111D01*
X94044526Y-124069097D01*
X94066200Y-124121423D01*
X94066200Y-124232194D01*
X94100306Y-124359481D01*
X94100310Y-124359490D01*
X94107073Y-124371203D01*
X94166200Y-124473614D01*
X94259386Y-124566800D01*
X94373514Y-124632692D01*
X94500805Y-124666799D01*
X94500806Y-124666800D01*
X94500808Y-124666800D01*
X94632594Y-124666800D01*
X94632594Y-124666799D01*
X94678247Y-124654567D01*
X94734399Y-124661959D01*
X94768878Y-124706892D01*
X94771400Y-124726045D01*
X94771400Y-125627931D01*
X94749726Y-125680257D01*
X94697400Y-125701931D01*
X94645074Y-125680257D01*
X94624822Y-125642368D01*
X94612052Y-125578170D01*
X94612051Y-125578169D01*
X94612051Y-125578165D01*
X94536632Y-125396086D01*
X94427139Y-125232218D01*
X94287782Y-125092861D01*
X94279351Y-125087227D01*
X94123913Y-124983367D01*
X93941839Y-124907950D01*
X93941829Y-124907947D01*
X93790966Y-124877939D01*
X93748541Y-124869500D01*
X93551459Y-124869500D01*
X93509034Y-124877939D01*
X93358170Y-124907947D01*
X93358160Y-124907950D01*
X93176086Y-124983367D01*
X93012218Y-125092860D01*
X93012217Y-125092862D01*
X92975126Y-125129953D01*
X92922800Y-125151627D01*
X92870474Y-125129953D01*
X92848800Y-125077627D01*
X92848800Y-112028736D01*
X92848799Y-112028735D01*
X92847656Y-112024471D01*
X92830353Y-111959894D01*
X92828322Y-111952314D01*
X92828320Y-111952309D01*
X92802932Y-111908336D01*
X92788760Y-111883789D01*
X92732811Y-111827840D01*
X92035183Y-111130212D01*
X92013509Y-111077886D01*
X92019142Y-111049567D01*
X92035116Y-111011003D01*
X92072051Y-110921835D01*
X92110500Y-110728541D01*
X92110500Y-110531459D01*
X92072051Y-110338165D01*
X92022489Y-110218511D01*
X92019142Y-110210430D01*
X92019142Y-110153793D01*
X92035180Y-110129789D01*
X93097597Y-109067374D01*
X93149923Y-109045700D01*
X109125864Y-109045700D01*
X109125864Y-109045699D01*
X109202289Y-109025221D01*
X109270811Y-108985660D01*
X109326760Y-108929711D01*
X111700460Y-106556011D01*
X111714221Y-106532176D01*
X111759152Y-106497697D01*
X111815305Y-106505088D01*
X111840699Y-106531324D01*
X111841348Y-106530891D01*
X111845100Y-106536507D01*
X111952861Y-106697782D01*
X112092218Y-106837139D01*
X112256086Y-106946632D01*
X112438165Y-107022051D01*
X112631459Y-107060500D01*
X112631461Y-107060500D01*
X112828539Y-107060500D01*
X112828541Y-107060500D01*
X113021835Y-107022051D01*
X113203914Y-106946632D01*
X113367782Y-106837139D01*
X113507139Y-106697782D01*
X113616632Y-106533914D01*
X113692051Y-106351835D01*
X113721222Y-106205182D01*
X113752688Y-106158091D01*
X113808237Y-106147042D01*
X113855329Y-106178508D01*
G37*
%TD.AperFunction*%
%TD*%
M02*
