M48
; DRILL file KiCad 10.0.4 date 2026-06-28T17:54:53
; FORMAT={-:-/ absolute / metric / decimal}
; #@! TF.CreationDate,2026-06-28T17:54:53-04:00
; #@! TF.GenerationSoftware,Kicad,Pcbnew,10.0.4
; #@! TF.FileFunction,MixedPlating,1,2
FMAT,2
METRIC
; #@! TA.AperFunction,Plated,PTH,ViaDrill
T1C0.300
; #@! TA.AperFunction,Plated,PTH,ComponentDrill
T2C0.300
; #@! TA.AperFunction,Plated,PTH,ComponentDrill
T3C0.700
; #@! TA.AperFunction,Plated,PTH,ComponentDrill
T4C0.800
%
G90
G05
T1
X78.96Y-132.178
X79.376Y-123.892
X79.572Y-80.082
X81.078Y-99.618
X82.013Y-85.158
X82.097Y-108.892
X84.72Y-123.752
X84.742Y-112.037
X84.76Y-85.243
X84.834Y-124.689
X84.943Y-112.918
X86.373Y-112.764
X87.903Y-75.609
X88.452Y-85.642
X89.188Y-117.429
X89.763Y-120.533
X90.661Y-100.578
X91.696Y-85.012
X97.743Y-117.302
X99.225Y-81.833
X100.143Y-124.318
X100.473Y-82.133
X101.335Y-130.047
X102.867Y-85.162
X107.547Y-120.295
X111.957Y-127.35
X112.75Y-121.745
X113.87Y-112.666
X114.247Y-130.375
X114.484Y-120.156
X114.777Y-124.045
X118.792Y-120.513
T2
X121.0Y-108.5
X126.0Y-84.25
T3
X80.73Y-87.5
X83.27Y-87.5
X86.73Y-87.5
X88.0Y-98.73
X88.0Y-101.27
X89.27Y-87.5
X92.0Y-98.73
X92.0Y-101.27
X92.73Y-87.5
X95.27Y-87.5
X104.73Y-87.5
X107.27Y-87.5
X108.0Y-98.73
X108.0Y-101.27
X110.73Y-87.5
X112.0Y-98.73
X112.0Y-101.27
X112.5Y-116.98
X112.5Y-119.52
X113.27Y-87.5
X115.0Y-74.73
X115.0Y-77.27
X116.0Y-98.73
X116.0Y-101.27
X118.0Y-116.98
X118.0Y-119.52
X125.0Y-74.73
X125.0Y-77.27
T4
X73.87Y-68.38
X73.87Y-83.62
X76.41Y-68.38
X76.41Y-83.62
X78.95Y-68.38
X78.95Y-83.62
X81.49Y-68.38
X81.49Y-83.62
X81.49Y-110.63
X81.49Y-125.87
X84.03Y-68.38
X84.03Y-83.62
X84.03Y-110.63
X84.03Y-125.87
X86.57Y-68.38
X86.57Y-83.62
X86.57Y-110.63
X86.57Y-114.44
X86.57Y-122.06
X86.57Y-125.87
X88.57Y-72.19
X88.57Y-79.81
X89.11Y-68.38
X89.11Y-83.62
X89.11Y-110.63
X89.11Y-114.44
X89.11Y-122.06
X89.11Y-125.87
X91.11Y-72.19
X91.11Y-79.81
X91.65Y-68.38
X91.65Y-83.62
X91.65Y-110.63
X91.65Y-114.44
X91.65Y-122.06
X91.65Y-125.87
X93.65Y-72.19
X93.65Y-79.81
X94.19Y-68.38
X94.19Y-83.62
X94.19Y-110.63
X94.19Y-114.44
X94.19Y-122.06
X94.19Y-125.87
X96.19Y-72.19
X96.19Y-79.81
X96.19Y-96.19
X96.19Y-103.81
X96.73Y-68.38
X96.73Y-83.62
X96.73Y-110.63
X96.73Y-114.44
X96.73Y-122.06
X96.73Y-125.87
X98.73Y-72.19
X98.73Y-79.81
X98.73Y-96.19
X98.73Y-103.81
X99.27Y-68.38
X99.27Y-83.62
X99.27Y-110.63
X99.27Y-114.44
X99.27Y-122.06
X99.27Y-125.87
X101.27Y-72.19
X101.27Y-79.81
X101.27Y-96.19
X101.27Y-103.81
X101.81Y-68.38
X101.81Y-83.62
X101.81Y-110.63
X101.81Y-114.44
X101.81Y-122.06
X101.81Y-125.87
X103.81Y-72.19
X103.81Y-79.81
X103.81Y-96.19
X103.81Y-103.81
X104.35Y-68.38
X104.35Y-83.62
X104.35Y-110.63
X104.35Y-114.44
X104.35Y-122.06
X104.35Y-125.87
X106.35Y-72.19
X106.35Y-79.81
X106.89Y-68.38
X106.89Y-83.62
X106.89Y-110.63
X106.89Y-114.44
X106.89Y-122.06
X106.89Y-125.87
X108.89Y-72.19
X108.89Y-79.81
X109.43Y-68.38
X109.43Y-83.62
X109.43Y-110.63
X109.43Y-114.44
X109.43Y-122.06
X109.43Y-125.87
X111.43Y-72.19
X111.43Y-79.81
X111.97Y-68.38
X111.97Y-83.62
X111.97Y-110.63
X111.97Y-125.87
X114.51Y-68.38
X114.51Y-83.62
X114.51Y-110.63
X114.51Y-125.87
X117.05Y-68.38
X117.05Y-83.62
X119.59Y-68.38
X119.59Y-83.62
X122.13Y-68.38
X122.13Y-83.62
M30
