%TF.GenerationSoftware,KiCad,Pcbnew,10.0.3*%
%TF.CreationDate,2026-06-18T22:55:39-04:00*%
%TF.ProjectId,index,696e6465-782e-46b6-9963-61645f706362,Rev1*%
%TF.SameCoordinates,Original*%
%TF.FileFunction,Legend,Top*%
%TF.FilePolarity,Positive*%
%FSLAX46Y46*%
G04 Gerber Fmt 4.6, Leading zero omitted, Abs format (unit mm)*
G04 Created by KiCad (PCBNEW 10.0.3) date 2026-06-18 22:55:39*
%MOMM*%
%LPD*%
G01*
G04 APERTURE LIST*
%ADD10C,0.100000*%
%ADD11C,0.166667*%
%ADD12C,0.066667*%
%ADD13C,0.050000*%
G04 APERTURE END LIST*
D10*
X71831561Y-85207144D02*
X72479180Y-85207144D01*
X72479180Y-85207144D02*
X72555371Y-85245239D01*
X72555371Y-85245239D02*
X72593466Y-85283335D01*
X72593466Y-85283335D02*
X72631561Y-85359525D01*
X72631561Y-85359525D02*
X72631561Y-85473811D01*
X72631561Y-85473811D02*
X72593466Y-85550001D01*
X72326800Y-85207144D02*
X72364895Y-85283335D01*
X72364895Y-85283335D02*
X72364895Y-85435716D01*
X72364895Y-85435716D02*
X72326800Y-85511906D01*
X72326800Y-85511906D02*
X72288704Y-85550001D01*
X72288704Y-85550001D02*
X72212514Y-85588097D01*
X72212514Y-85588097D02*
X71983942Y-85588097D01*
X71983942Y-85588097D02*
X71907752Y-85550001D01*
X71907752Y-85550001D02*
X71869657Y-85511906D01*
X71869657Y-85511906D02*
X71831561Y-85435716D01*
X71831561Y-85435716D02*
X71831561Y-85283335D01*
X71831561Y-85283335D02*
X71869657Y-85207144D01*
X72364895Y-84826191D02*
X71831561Y-84826191D01*
X71564895Y-84826191D02*
X71602990Y-84864287D01*
X71602990Y-84864287D02*
X71641085Y-84826191D01*
X71641085Y-84826191D02*
X71602990Y-84788096D01*
X71602990Y-84788096D02*
X71564895Y-84826191D01*
X71564895Y-84826191D02*
X71641085Y-84826191D01*
X71831561Y-84559525D02*
X71831561Y-84254763D01*
X71564895Y-84445239D02*
X72250609Y-84445239D01*
X72250609Y-84445239D02*
X72326800Y-84407144D01*
X72326800Y-84407144D02*
X72364895Y-84330954D01*
X72364895Y-84330954D02*
X72364895Y-84254763D01*
X72364895Y-83988096D02*
X71564895Y-83988096D01*
X72364895Y-83645239D02*
X71945847Y-83645239D01*
X71945847Y-83645239D02*
X71869657Y-83683334D01*
X71869657Y-83683334D02*
X71831561Y-83759525D01*
X71831561Y-83759525D02*
X71831561Y-83873811D01*
X71831561Y-83873811D02*
X71869657Y-83950001D01*
X71869657Y-83950001D02*
X71907752Y-83988096D01*
X71831561Y-82921429D02*
X72364895Y-82921429D01*
X71831561Y-83264286D02*
X72250609Y-83264286D01*
X72250609Y-83264286D02*
X72326800Y-83226191D01*
X72326800Y-83226191D02*
X72364895Y-83150001D01*
X72364895Y-83150001D02*
X72364895Y-83035715D01*
X72364895Y-83035715D02*
X72326800Y-82959524D01*
X72326800Y-82959524D02*
X72288704Y-82921429D01*
X72364895Y-82540476D02*
X71564895Y-82540476D01*
X71869657Y-82540476D02*
X71831561Y-82464286D01*
X71831561Y-82464286D02*
X71831561Y-82311905D01*
X71831561Y-82311905D02*
X71869657Y-82235714D01*
X71869657Y-82235714D02*
X71907752Y-82197619D01*
X71907752Y-82197619D02*
X71983942Y-82159524D01*
X71983942Y-82159524D02*
X72212514Y-82159524D01*
X72212514Y-82159524D02*
X72288704Y-82197619D01*
X72288704Y-82197619D02*
X72326800Y-82235714D01*
X72326800Y-82235714D02*
X72364895Y-82311905D01*
X72364895Y-82311905D02*
X72364895Y-82464286D01*
X72364895Y-82464286D02*
X72326800Y-82540476D01*
X72288704Y-81816666D02*
X72326800Y-81778571D01*
X72326800Y-81778571D02*
X72364895Y-81816666D01*
X72364895Y-81816666D02*
X72326800Y-81854762D01*
X72326800Y-81854762D02*
X72288704Y-81816666D01*
X72288704Y-81816666D02*
X72364895Y-81816666D01*
X72326800Y-81092857D02*
X72364895Y-81169048D01*
X72364895Y-81169048D02*
X72364895Y-81321429D01*
X72364895Y-81321429D02*
X72326800Y-81397619D01*
X72326800Y-81397619D02*
X72288704Y-81435714D01*
X72288704Y-81435714D02*
X72212514Y-81473810D01*
X72212514Y-81473810D02*
X71983942Y-81473810D01*
X71983942Y-81473810D02*
X71907752Y-81435714D01*
X71907752Y-81435714D02*
X71869657Y-81397619D01*
X71869657Y-81397619D02*
X71831561Y-81321429D01*
X71831561Y-81321429D02*
X71831561Y-81169048D01*
X71831561Y-81169048D02*
X71869657Y-81092857D01*
X72364895Y-80635715D02*
X72326800Y-80711905D01*
X72326800Y-80711905D02*
X72288704Y-80750000D01*
X72288704Y-80750000D02*
X72212514Y-80788096D01*
X72212514Y-80788096D02*
X71983942Y-80788096D01*
X71983942Y-80788096D02*
X71907752Y-80750000D01*
X71907752Y-80750000D02*
X71869657Y-80711905D01*
X71869657Y-80711905D02*
X71831561Y-80635715D01*
X71831561Y-80635715D02*
X71831561Y-80521429D01*
X71831561Y-80521429D02*
X71869657Y-80445238D01*
X71869657Y-80445238D02*
X71907752Y-80407143D01*
X71907752Y-80407143D02*
X71983942Y-80369048D01*
X71983942Y-80369048D02*
X72212514Y-80369048D01*
X72212514Y-80369048D02*
X72288704Y-80407143D01*
X72288704Y-80407143D02*
X72326800Y-80445238D01*
X72326800Y-80445238D02*
X72364895Y-80521429D01*
X72364895Y-80521429D02*
X72364895Y-80635715D01*
X72364895Y-80026190D02*
X71831561Y-80026190D01*
X71907752Y-80026190D02*
X71869657Y-79988095D01*
X71869657Y-79988095D02*
X71831561Y-79911905D01*
X71831561Y-79911905D02*
X71831561Y-79797619D01*
X71831561Y-79797619D02*
X71869657Y-79721428D01*
X71869657Y-79721428D02*
X71945847Y-79683333D01*
X71945847Y-79683333D02*
X72364895Y-79683333D01*
X71945847Y-79683333D02*
X71869657Y-79645238D01*
X71869657Y-79645238D02*
X71831561Y-79569047D01*
X71831561Y-79569047D02*
X71831561Y-79454762D01*
X71831561Y-79454762D02*
X71869657Y-79378571D01*
X71869657Y-79378571D02*
X71945847Y-79340476D01*
X71945847Y-79340476D02*
X72364895Y-79340476D01*
X71526800Y-78388095D02*
X72555371Y-79073809D01*
X71831561Y-78121428D02*
X72517276Y-78121428D01*
X72517276Y-78121428D02*
X72593466Y-78159524D01*
X72593466Y-78159524D02*
X72631561Y-78235714D01*
X72631561Y-78235714D02*
X72631561Y-78273809D01*
X71564895Y-78121428D02*
X71602990Y-78159524D01*
X71602990Y-78159524D02*
X71641085Y-78121428D01*
X71641085Y-78121428D02*
X71602990Y-78083333D01*
X71602990Y-78083333D02*
X71564895Y-78121428D01*
X71564895Y-78121428D02*
X71641085Y-78121428D01*
X72364895Y-77740476D02*
X71564895Y-77740476D01*
X71869657Y-77740476D02*
X71831561Y-77664286D01*
X71831561Y-77664286D02*
X71831561Y-77511905D01*
X71831561Y-77511905D02*
X71869657Y-77435714D01*
X71869657Y-77435714D02*
X71907752Y-77397619D01*
X71907752Y-77397619D02*
X71983942Y-77359524D01*
X71983942Y-77359524D02*
X72212514Y-77359524D01*
X72212514Y-77359524D02*
X72288704Y-77397619D01*
X72288704Y-77397619D02*
X72326800Y-77435714D01*
X72326800Y-77435714D02*
X72364895Y-77511905D01*
X72364895Y-77511905D02*
X72364895Y-77664286D01*
X72364895Y-77664286D02*
X72326800Y-77740476D01*
X72326800Y-77054762D02*
X72364895Y-76978571D01*
X72364895Y-76978571D02*
X72364895Y-76826190D01*
X72364895Y-76826190D02*
X72326800Y-76750000D01*
X72326800Y-76750000D02*
X72250609Y-76711904D01*
X72250609Y-76711904D02*
X72212514Y-76711904D01*
X72212514Y-76711904D02*
X72136323Y-76750000D01*
X72136323Y-76750000D02*
X72098228Y-76826190D01*
X72098228Y-76826190D02*
X72098228Y-76940476D01*
X72098228Y-76940476D02*
X72060133Y-77016666D01*
X72060133Y-77016666D02*
X71983942Y-77054762D01*
X71983942Y-77054762D02*
X71945847Y-77054762D01*
X71945847Y-77054762D02*
X71869657Y-77016666D01*
X71869657Y-77016666D02*
X71831561Y-76940476D01*
X71831561Y-76940476D02*
X71831561Y-76826190D01*
X71831561Y-76826190D02*
X71869657Y-76750000D01*
X72364895Y-76254762D02*
X72326800Y-76330952D01*
X72326800Y-76330952D02*
X72288704Y-76369047D01*
X72288704Y-76369047D02*
X72212514Y-76407143D01*
X72212514Y-76407143D02*
X71983942Y-76407143D01*
X71983942Y-76407143D02*
X71907752Y-76369047D01*
X71907752Y-76369047D02*
X71869657Y-76330952D01*
X71869657Y-76330952D02*
X71831561Y-76254762D01*
X71831561Y-76254762D02*
X71831561Y-76140476D01*
X71831561Y-76140476D02*
X71869657Y-76064285D01*
X71869657Y-76064285D02*
X71907752Y-76026190D01*
X71907752Y-76026190D02*
X71983942Y-75988095D01*
X71983942Y-75988095D02*
X72212514Y-75988095D01*
X72212514Y-75988095D02*
X72288704Y-76026190D01*
X72288704Y-76026190D02*
X72326800Y-76064285D01*
X72326800Y-76064285D02*
X72364895Y-76140476D01*
X72364895Y-76140476D02*
X72364895Y-76254762D01*
X72364895Y-75645237D02*
X71564895Y-75645237D01*
X72364895Y-75302380D02*
X71945847Y-75302380D01*
X71945847Y-75302380D02*
X71869657Y-75340475D01*
X71869657Y-75340475D02*
X71831561Y-75416666D01*
X71831561Y-75416666D02*
X71831561Y-75530952D01*
X71831561Y-75530952D02*
X71869657Y-75607142D01*
X71869657Y-75607142D02*
X71907752Y-75645237D01*
X71831561Y-74921427D02*
X72364895Y-74921427D01*
X71907752Y-74921427D02*
X71869657Y-74883332D01*
X71869657Y-74883332D02*
X71831561Y-74807142D01*
X71831561Y-74807142D02*
X71831561Y-74692856D01*
X71831561Y-74692856D02*
X71869657Y-74616665D01*
X71869657Y-74616665D02*
X71945847Y-74578570D01*
X71945847Y-74578570D02*
X72364895Y-74578570D01*
X71526800Y-73626189D02*
X72555371Y-74311903D01*
X72364895Y-73245237D02*
X72326800Y-73321427D01*
X72326800Y-73321427D02*
X72250609Y-73359522D01*
X72250609Y-73359522D02*
X71564895Y-73359522D01*
X72364895Y-72826189D02*
X72326800Y-72902379D01*
X72326800Y-72902379D02*
X72288704Y-72940474D01*
X72288704Y-72940474D02*
X72212514Y-72978570D01*
X72212514Y-72978570D02*
X71983942Y-72978570D01*
X71983942Y-72978570D02*
X71907752Y-72940474D01*
X71907752Y-72940474D02*
X71869657Y-72902379D01*
X71869657Y-72902379D02*
X71831561Y-72826189D01*
X71831561Y-72826189D02*
X71831561Y-72711903D01*
X71831561Y-72711903D02*
X71869657Y-72635712D01*
X71869657Y-72635712D02*
X71907752Y-72597617D01*
X71907752Y-72597617D02*
X71983942Y-72559522D01*
X71983942Y-72559522D02*
X72212514Y-72559522D01*
X72212514Y-72559522D02*
X72288704Y-72597617D01*
X72288704Y-72597617D02*
X72326800Y-72635712D01*
X72326800Y-72635712D02*
X72364895Y-72711903D01*
X72364895Y-72711903D02*
X72364895Y-72826189D01*
X72364895Y-72216664D02*
X71564895Y-72216664D01*
X72060133Y-72140474D02*
X72364895Y-71911902D01*
X71831561Y-71911902D02*
X72136323Y-72216664D01*
X72326800Y-71264283D02*
X72364895Y-71340474D01*
X72364895Y-71340474D02*
X72364895Y-71492855D01*
X72364895Y-71492855D02*
X72326800Y-71569045D01*
X72326800Y-71569045D02*
X72250609Y-71607141D01*
X72250609Y-71607141D02*
X71945847Y-71607141D01*
X71945847Y-71607141D02*
X71869657Y-71569045D01*
X71869657Y-71569045D02*
X71831561Y-71492855D01*
X71831561Y-71492855D02*
X71831561Y-71340474D01*
X71831561Y-71340474D02*
X71869657Y-71264283D01*
X71869657Y-71264283D02*
X71945847Y-71226188D01*
X71945847Y-71226188D02*
X72022038Y-71226188D01*
X72022038Y-71226188D02*
X72098228Y-71607141D01*
X71831561Y-70959522D02*
X72364895Y-70769046D01*
X71831561Y-70578569D02*
X72364895Y-70769046D01*
X72364895Y-70769046D02*
X72555371Y-70845236D01*
X72555371Y-70845236D02*
X72593466Y-70883331D01*
X72593466Y-70883331D02*
X72631561Y-70959522D01*
X72060133Y-70273807D02*
X72060133Y-69664284D01*
X71564895Y-69359522D02*
X71564895Y-68826188D01*
X71564895Y-68826188D02*
X72364895Y-69169046D01*
X71907752Y-68407141D02*
X71869657Y-68483331D01*
X71869657Y-68483331D02*
X71831561Y-68521426D01*
X71831561Y-68521426D02*
X71755371Y-68559522D01*
X71755371Y-68559522D02*
X71717276Y-68559522D01*
X71717276Y-68559522D02*
X71641085Y-68521426D01*
X71641085Y-68521426D02*
X71602990Y-68483331D01*
X71602990Y-68483331D02*
X71564895Y-68407141D01*
X71564895Y-68407141D02*
X71564895Y-68254760D01*
X71564895Y-68254760D02*
X71602990Y-68178569D01*
X71602990Y-68178569D02*
X71641085Y-68140474D01*
X71641085Y-68140474D02*
X71717276Y-68102379D01*
X71717276Y-68102379D02*
X71755371Y-68102379D01*
X71755371Y-68102379D02*
X71831561Y-68140474D01*
X71831561Y-68140474D02*
X71869657Y-68178569D01*
X71869657Y-68178569D02*
X71907752Y-68254760D01*
X71907752Y-68254760D02*
X71907752Y-68407141D01*
X71907752Y-68407141D02*
X71945847Y-68483331D01*
X71945847Y-68483331D02*
X71983942Y-68521426D01*
X71983942Y-68521426D02*
X72060133Y-68559522D01*
X72060133Y-68559522D02*
X72212514Y-68559522D01*
X72212514Y-68559522D02*
X72288704Y-68521426D01*
X72288704Y-68521426D02*
X72326800Y-68483331D01*
X72326800Y-68483331D02*
X72364895Y-68407141D01*
X72364895Y-68407141D02*
X72364895Y-68254760D01*
X72364895Y-68254760D02*
X72326800Y-68178569D01*
X72326800Y-68178569D02*
X72288704Y-68140474D01*
X72288704Y-68140474D02*
X72212514Y-68102379D01*
X72212514Y-68102379D02*
X72060133Y-68102379D01*
X72060133Y-68102379D02*
X71983942Y-68140474D01*
X71983942Y-68140474D02*
X71945847Y-68178569D01*
X71945847Y-68178569D02*
X71907752Y-68254760D01*
X71564895Y-67607140D02*
X71564895Y-67530950D01*
X71564895Y-67530950D02*
X71602990Y-67454759D01*
X71602990Y-67454759D02*
X71641085Y-67416664D01*
X71641085Y-67416664D02*
X71717276Y-67378569D01*
X71717276Y-67378569D02*
X71869657Y-67340474D01*
X71869657Y-67340474D02*
X72060133Y-67340474D01*
X72060133Y-67340474D02*
X72212514Y-67378569D01*
X72212514Y-67378569D02*
X72288704Y-67416664D01*
X72288704Y-67416664D02*
X72326800Y-67454759D01*
X72326800Y-67454759D02*
X72364895Y-67530950D01*
X72364895Y-67530950D02*
X72364895Y-67607140D01*
X72364895Y-67607140D02*
X72326800Y-67683331D01*
X72326800Y-67683331D02*
X72288704Y-67721426D01*
X72288704Y-67721426D02*
X72212514Y-67759521D01*
X72212514Y-67759521D02*
X72060133Y-67797617D01*
X72060133Y-67797617D02*
X71869657Y-67797617D01*
X71869657Y-67797617D02*
X71717276Y-67759521D01*
X71717276Y-67759521D02*
X71641085Y-67721426D01*
X71641085Y-67721426D02*
X71602990Y-67683331D01*
X71602990Y-67683331D02*
X71564895Y-67607140D01*
X71564895Y-66845235D02*
X71564895Y-66769045D01*
X71564895Y-66769045D02*
X71602990Y-66692854D01*
X71602990Y-66692854D02*
X71641085Y-66654759D01*
X71641085Y-66654759D02*
X71717276Y-66616664D01*
X71717276Y-66616664D02*
X71869657Y-66578569D01*
X71869657Y-66578569D02*
X72060133Y-66578569D01*
X72060133Y-66578569D02*
X72212514Y-66616664D01*
X72212514Y-66616664D02*
X72288704Y-66654759D01*
X72288704Y-66654759D02*
X72326800Y-66692854D01*
X72326800Y-66692854D02*
X72364895Y-66769045D01*
X72364895Y-66769045D02*
X72364895Y-66845235D01*
X72364895Y-66845235D02*
X72326800Y-66921426D01*
X72326800Y-66921426D02*
X72288704Y-66959521D01*
X72288704Y-66959521D02*
X72212514Y-66997616D01*
X72212514Y-66997616D02*
X72060133Y-67035712D01*
X72060133Y-67035712D02*
X71869657Y-67035712D01*
X71869657Y-67035712D02*
X71717276Y-66997616D01*
X71717276Y-66997616D02*
X71641085Y-66959521D01*
X71641085Y-66959521D02*
X71602990Y-66921426D01*
X71602990Y-66921426D02*
X71564895Y-66845235D01*
X72060133Y-66235711D02*
X72060133Y-65626188D01*
X71831561Y-65321426D02*
X72364895Y-65130950D01*
X71831561Y-64940473D02*
X72364895Y-65130950D01*
X72364895Y-65130950D02*
X72555371Y-65207140D01*
X72555371Y-65207140D02*
X72593466Y-65245235D01*
X72593466Y-65245235D02*
X72631561Y-65321426D01*
X72364895Y-64635711D02*
X71831561Y-64635711D01*
X71907752Y-64635711D02*
X71869657Y-64597616D01*
X71869657Y-64597616D02*
X71831561Y-64521426D01*
X71831561Y-64521426D02*
X71831561Y-64407140D01*
X71831561Y-64407140D02*
X71869657Y-64330949D01*
X71869657Y-64330949D02*
X71945847Y-64292854D01*
X71945847Y-64292854D02*
X72364895Y-64292854D01*
X71945847Y-64292854D02*
X71869657Y-64254759D01*
X71869657Y-64254759D02*
X71831561Y-64178568D01*
X71831561Y-64178568D02*
X71831561Y-64064283D01*
X71831561Y-64064283D02*
X71869657Y-63988092D01*
X71869657Y-63988092D02*
X71945847Y-63949997D01*
X71945847Y-63949997D02*
X72364895Y-63949997D01*
D11*
X70608159Y-83301585D02*
X70608159Y-83936505D01*
X70608159Y-83936505D02*
X69274826Y-83936505D01*
X70608159Y-82666664D02*
X70544667Y-82793648D01*
X70544667Y-82793648D02*
X70481174Y-82857140D01*
X70481174Y-82857140D02*
X70354190Y-82920632D01*
X70354190Y-82920632D02*
X69973238Y-82920632D01*
X69973238Y-82920632D02*
X69846254Y-82857140D01*
X69846254Y-82857140D02*
X69782762Y-82793648D01*
X69782762Y-82793648D02*
X69719270Y-82666664D01*
X69719270Y-82666664D02*
X69719270Y-82476188D01*
X69719270Y-82476188D02*
X69782762Y-82349204D01*
X69782762Y-82349204D02*
X69846254Y-82285712D01*
X69846254Y-82285712D02*
X69973238Y-82222220D01*
X69973238Y-82222220D02*
X70354190Y-82222220D01*
X70354190Y-82222220D02*
X70481174Y-82285712D01*
X70481174Y-82285712D02*
X70544667Y-82349204D01*
X70544667Y-82349204D02*
X70608159Y-82476188D01*
X70608159Y-82476188D02*
X70608159Y-82666664D01*
X70608159Y-81650791D02*
X69274826Y-81650791D01*
X70100222Y-81523807D02*
X70608159Y-81142855D01*
X69719270Y-81142855D02*
X70227206Y-81650791D01*
X70544667Y-80063490D02*
X70608159Y-80190474D01*
X70608159Y-80190474D02*
X70608159Y-80444442D01*
X70608159Y-80444442D02*
X70544667Y-80571426D01*
X70544667Y-80571426D02*
X70417682Y-80634918D01*
X70417682Y-80634918D02*
X69909746Y-80634918D01*
X69909746Y-80634918D02*
X69782762Y-80571426D01*
X69782762Y-80571426D02*
X69719270Y-80444442D01*
X69719270Y-80444442D02*
X69719270Y-80190474D01*
X69719270Y-80190474D02*
X69782762Y-80063490D01*
X69782762Y-80063490D02*
X69909746Y-79999998D01*
X69909746Y-79999998D02*
X70036730Y-79999998D01*
X70036730Y-79999998D02*
X70163714Y-80634918D01*
X69719270Y-79555553D02*
X70608159Y-79238093D01*
X69719270Y-78920633D02*
X70608159Y-79238093D01*
X70608159Y-79238093D02*
X70925619Y-79365077D01*
X70925619Y-79365077D02*
X70989111Y-79428569D01*
X70989111Y-79428569D02*
X71052603Y-79555553D01*
X69274826Y-77523807D02*
X69274826Y-76634919D01*
X69274826Y-76634919D02*
X70608159Y-77206347D01*
X69846254Y-75936506D02*
X69782762Y-76063490D01*
X69782762Y-76063490D02*
X69719270Y-76126982D01*
X69719270Y-76126982D02*
X69592286Y-76190474D01*
X69592286Y-76190474D02*
X69528794Y-76190474D01*
X69528794Y-76190474D02*
X69401810Y-76126982D01*
X69401810Y-76126982D02*
X69338318Y-76063490D01*
X69338318Y-76063490D02*
X69274826Y-75936506D01*
X69274826Y-75936506D02*
X69274826Y-75682538D01*
X69274826Y-75682538D02*
X69338318Y-75555554D01*
X69338318Y-75555554D02*
X69401810Y-75492062D01*
X69401810Y-75492062D02*
X69528794Y-75428570D01*
X69528794Y-75428570D02*
X69592286Y-75428570D01*
X69592286Y-75428570D02*
X69719270Y-75492062D01*
X69719270Y-75492062D02*
X69782762Y-75555554D01*
X69782762Y-75555554D02*
X69846254Y-75682538D01*
X69846254Y-75682538D02*
X69846254Y-75936506D01*
X69846254Y-75936506D02*
X69909746Y-76063490D01*
X69909746Y-76063490D02*
X69973238Y-76126982D01*
X69973238Y-76126982D02*
X70100222Y-76190474D01*
X70100222Y-76190474D02*
X70354190Y-76190474D01*
X70354190Y-76190474D02*
X70481174Y-76126982D01*
X70481174Y-76126982D02*
X70544667Y-76063490D01*
X70544667Y-76063490D02*
X70608159Y-75936506D01*
X70608159Y-75936506D02*
X70608159Y-75682538D01*
X70608159Y-75682538D02*
X70544667Y-75555554D01*
X70544667Y-75555554D02*
X70481174Y-75492062D01*
X70481174Y-75492062D02*
X70354190Y-75428570D01*
X70354190Y-75428570D02*
X70100222Y-75428570D01*
X70100222Y-75428570D02*
X69973238Y-75492062D01*
X69973238Y-75492062D02*
X69909746Y-75555554D01*
X69909746Y-75555554D02*
X69846254Y-75682538D01*
X69274826Y-74603173D02*
X69274826Y-74476189D01*
X69274826Y-74476189D02*
X69338318Y-74349205D01*
X69338318Y-74349205D02*
X69401810Y-74285713D01*
X69401810Y-74285713D02*
X69528794Y-74222221D01*
X69528794Y-74222221D02*
X69782762Y-74158729D01*
X69782762Y-74158729D02*
X70100222Y-74158729D01*
X70100222Y-74158729D02*
X70354190Y-74222221D01*
X70354190Y-74222221D02*
X70481174Y-74285713D01*
X70481174Y-74285713D02*
X70544667Y-74349205D01*
X70544667Y-74349205D02*
X70608159Y-74476189D01*
X70608159Y-74476189D02*
X70608159Y-74603173D01*
X70608159Y-74603173D02*
X70544667Y-74730157D01*
X70544667Y-74730157D02*
X70481174Y-74793649D01*
X70481174Y-74793649D02*
X70354190Y-74857141D01*
X70354190Y-74857141D02*
X70100222Y-74920633D01*
X70100222Y-74920633D02*
X69782762Y-74920633D01*
X69782762Y-74920633D02*
X69528794Y-74857141D01*
X69528794Y-74857141D02*
X69401810Y-74793649D01*
X69401810Y-74793649D02*
X69338318Y-74730157D01*
X69338318Y-74730157D02*
X69274826Y-74603173D01*
X69274826Y-73333332D02*
X69274826Y-73206348D01*
X69274826Y-73206348D02*
X69338318Y-73079364D01*
X69338318Y-73079364D02*
X69401810Y-73015872D01*
X69401810Y-73015872D02*
X69528794Y-72952380D01*
X69528794Y-72952380D02*
X69782762Y-72888888D01*
X69782762Y-72888888D02*
X70100222Y-72888888D01*
X70100222Y-72888888D02*
X70354190Y-72952380D01*
X70354190Y-72952380D02*
X70481174Y-73015872D01*
X70481174Y-73015872D02*
X70544667Y-73079364D01*
X70544667Y-73079364D02*
X70608159Y-73206348D01*
X70608159Y-73206348D02*
X70608159Y-73333332D01*
X70608159Y-73333332D02*
X70544667Y-73460316D01*
X70544667Y-73460316D02*
X70481174Y-73523808D01*
X70481174Y-73523808D02*
X70354190Y-73587300D01*
X70354190Y-73587300D02*
X70100222Y-73650792D01*
X70100222Y-73650792D02*
X69782762Y-73650792D01*
X69782762Y-73650792D02*
X69528794Y-73587300D01*
X69528794Y-73587300D02*
X69401810Y-73523808D01*
X69401810Y-73523808D02*
X69338318Y-73460316D01*
X69338318Y-73460316D02*
X69274826Y-73333332D01*
X69973238Y-71047618D02*
X70608159Y-71047618D01*
X69274826Y-71492062D02*
X69973238Y-71047618D01*
X69973238Y-71047618D02*
X69274826Y-70603174D01*
X70608159Y-70158729D02*
X69274826Y-70158729D01*
X69274826Y-70158729D02*
X70227206Y-69714285D01*
X70227206Y-69714285D02*
X69274826Y-69269841D01*
X69274826Y-69269841D02*
X70608159Y-69269841D01*
X69719270Y-67746031D02*
X70608159Y-67428571D01*
X70608159Y-67428571D02*
X69719270Y-67111111D01*
X69274826Y-66349206D02*
X69274826Y-66222222D01*
X69274826Y-66222222D02*
X69338318Y-66095238D01*
X69338318Y-66095238D02*
X69401810Y-66031746D01*
X69401810Y-66031746D02*
X69528794Y-65968254D01*
X69528794Y-65968254D02*
X69782762Y-65904762D01*
X69782762Y-65904762D02*
X70100222Y-65904762D01*
X70100222Y-65904762D02*
X70354190Y-65968254D01*
X70354190Y-65968254D02*
X70481174Y-66031746D01*
X70481174Y-66031746D02*
X70544667Y-66095238D01*
X70544667Y-66095238D02*
X70608159Y-66222222D01*
X70608159Y-66222222D02*
X70608159Y-66349206D01*
X70608159Y-66349206D02*
X70544667Y-66476190D01*
X70544667Y-66476190D02*
X70481174Y-66539682D01*
X70481174Y-66539682D02*
X70354190Y-66603174D01*
X70354190Y-66603174D02*
X70100222Y-66666666D01*
X70100222Y-66666666D02*
X69782762Y-66666666D01*
X69782762Y-66666666D02*
X69528794Y-66603174D01*
X69528794Y-66603174D02*
X69401810Y-66539682D01*
X69401810Y-66539682D02*
X69338318Y-66476190D01*
X69338318Y-66476190D02*
X69274826Y-66349206D01*
X70481174Y-65333333D02*
X70544667Y-65269841D01*
X70544667Y-65269841D02*
X70608159Y-65333333D01*
X70608159Y-65333333D02*
X70544667Y-65396825D01*
X70544667Y-65396825D02*
X70481174Y-65333333D01*
X70481174Y-65333333D02*
X70608159Y-65333333D01*
X70608159Y-64000001D02*
X70608159Y-64761905D01*
X70608159Y-64380953D02*
X69274826Y-64380953D01*
X69274826Y-64380953D02*
X69465302Y-64507937D01*
X69465302Y-64507937D02*
X69592286Y-64634921D01*
X69592286Y-64634921D02*
X69655778Y-64761905D01*
D12*
X118209930Y-115515078D02*
X118590882Y-115515078D01*
X118590882Y-115515078D02*
X118667073Y-115540474D01*
X118667073Y-115540474D02*
X118717867Y-115591268D01*
X118717867Y-115591268D02*
X118743263Y-115667458D01*
X118743263Y-115667458D02*
X118743263Y-115718252D01*
X118743263Y-115261109D02*
X118209930Y-115261109D01*
X118209930Y-115261109D02*
X118209930Y-115057935D01*
X118209930Y-115057935D02*
X118235327Y-115007141D01*
X118235327Y-115007141D02*
X118260724Y-114981745D01*
X118260724Y-114981745D02*
X118311518Y-114956348D01*
X118311518Y-114956348D02*
X118387708Y-114956348D01*
X118387708Y-114956348D02*
X118438502Y-114981745D01*
X118438502Y-114981745D02*
X118463898Y-115007141D01*
X118463898Y-115007141D02*
X118489295Y-115057935D01*
X118489295Y-115057935D02*
X118489295Y-115261109D01*
X118743263Y-114448412D02*
X118743263Y-114753173D01*
X118743263Y-114600792D02*
X118209930Y-114600792D01*
X118209930Y-114600792D02*
X118286121Y-114651586D01*
X118286121Y-114651586D02*
X118336914Y-114702380D01*
X118336914Y-114702380D02*
X118362311Y-114753173D01*
X118946438Y-113661111D02*
X118921041Y-113686507D01*
X118921041Y-113686507D02*
X118844851Y-113737301D01*
X118844851Y-113737301D02*
X118794057Y-113762698D01*
X118794057Y-113762698D02*
X118717867Y-113788095D01*
X118717867Y-113788095D02*
X118590882Y-113813491D01*
X118590882Y-113813491D02*
X118489295Y-113813491D01*
X118489295Y-113813491D02*
X118362311Y-113788095D01*
X118362311Y-113788095D02*
X118286121Y-113762698D01*
X118286121Y-113762698D02*
X118235327Y-113737301D01*
X118235327Y-113737301D02*
X118159137Y-113686507D01*
X118159137Y-113686507D02*
X118133740Y-113661111D01*
X118209930Y-113534127D02*
X118743263Y-113356349D01*
X118743263Y-113356349D02*
X118209930Y-113178572D01*
X118743263Y-113000793D02*
X118209930Y-113000793D01*
X118209930Y-113000793D02*
X118209930Y-112797619D01*
X118209930Y-112797619D02*
X118235327Y-112746825D01*
X118235327Y-112746825D02*
X118260724Y-112721429D01*
X118260724Y-112721429D02*
X118311518Y-112696032D01*
X118311518Y-112696032D02*
X118387708Y-112696032D01*
X118387708Y-112696032D02*
X118438502Y-112721429D01*
X118438502Y-112721429D02*
X118463898Y-112746825D01*
X118463898Y-112746825D02*
X118489295Y-112797619D01*
X118489295Y-112797619D02*
X118489295Y-113000793D01*
X118743263Y-112467460D02*
X118209930Y-112467460D01*
X118209930Y-112467460D02*
X118209930Y-112264286D01*
X118209930Y-112264286D02*
X118235327Y-112213492D01*
X118235327Y-112213492D02*
X118260724Y-112188096D01*
X118260724Y-112188096D02*
X118311518Y-112162699D01*
X118311518Y-112162699D02*
X118387708Y-112162699D01*
X118387708Y-112162699D02*
X118438502Y-112188096D01*
X118438502Y-112188096D02*
X118463898Y-112213492D01*
X118463898Y-112213492D02*
X118489295Y-112264286D01*
X118489295Y-112264286D02*
X118489295Y-112467460D01*
X118946438Y-111984921D02*
X118921041Y-111959524D01*
X118921041Y-111959524D02*
X118844851Y-111908731D01*
X118844851Y-111908731D02*
X118794057Y-111883334D01*
X118794057Y-111883334D02*
X118717867Y-111857937D01*
X118717867Y-111857937D02*
X118590882Y-111832540D01*
X118590882Y-111832540D02*
X118489295Y-111832540D01*
X118489295Y-111832540D02*
X118362311Y-111857937D01*
X118362311Y-111857937D02*
X118286121Y-111883334D01*
X118286121Y-111883334D02*
X118235327Y-111908731D01*
X118235327Y-111908731D02*
X118159137Y-111959524D01*
X118159137Y-111959524D02*
X118133740Y-111984921D01*
D13*
X121568161Y-113026189D02*
X121568161Y-112835713D01*
X121682447Y-113064284D02*
X121282447Y-112930951D01*
X121282447Y-112930951D02*
X121682447Y-112797618D01*
X121682447Y-112454761D02*
X121682447Y-112683332D01*
X121682447Y-112569046D02*
X121282447Y-112569046D01*
X121282447Y-112569046D02*
X121339590Y-112607142D01*
X121339590Y-112607142D02*
X121377685Y-112645237D01*
X121377685Y-112645237D02*
X121396733Y-112683332D01*
X121282447Y-112092856D02*
X121282447Y-112283332D01*
X121282447Y-112283332D02*
X121472923Y-112302380D01*
X121472923Y-112302380D02*
X121453876Y-112283332D01*
X121453876Y-112283332D02*
X121434828Y-112245237D01*
X121434828Y-112245237D02*
X121434828Y-112149999D01*
X121434828Y-112149999D02*
X121453876Y-112111904D01*
X121453876Y-112111904D02*
X121472923Y-112092856D01*
X121472923Y-112092856D02*
X121511019Y-112073809D01*
X121511019Y-112073809D02*
X121606257Y-112073809D01*
X121606257Y-112073809D02*
X121644352Y-112092856D01*
X121644352Y-112092856D02*
X121663400Y-112111904D01*
X121663400Y-112111904D02*
X121682447Y-112149999D01*
X121682447Y-112149999D02*
X121682447Y-112245237D01*
X121682447Y-112245237D02*
X121663400Y-112283332D01*
X121663400Y-112283332D02*
X121644352Y-112302380D01*
X121282447Y-115483332D02*
X121682447Y-115349999D01*
X121682447Y-115349999D02*
X121282447Y-115216666D01*
X121644352Y-114854761D02*
X121663400Y-114873809D01*
X121663400Y-114873809D02*
X121682447Y-114930951D01*
X121682447Y-114930951D02*
X121682447Y-114969047D01*
X121682447Y-114969047D02*
X121663400Y-115026190D01*
X121663400Y-115026190D02*
X121625304Y-115064285D01*
X121625304Y-115064285D02*
X121587209Y-115083332D01*
X121587209Y-115083332D02*
X121511019Y-115102380D01*
X121511019Y-115102380D02*
X121453876Y-115102380D01*
X121453876Y-115102380D02*
X121377685Y-115083332D01*
X121377685Y-115083332D02*
X121339590Y-115064285D01*
X121339590Y-115064285D02*
X121301495Y-115026190D01*
X121301495Y-115026190D02*
X121282447Y-114969047D01*
X121282447Y-114969047D02*
X121282447Y-114930951D01*
X121282447Y-114930951D02*
X121301495Y-114873809D01*
X121301495Y-114873809D02*
X121320542Y-114854761D01*
X121644352Y-114454761D02*
X121663400Y-114473809D01*
X121663400Y-114473809D02*
X121682447Y-114530951D01*
X121682447Y-114530951D02*
X121682447Y-114569047D01*
X121682447Y-114569047D02*
X121663400Y-114626190D01*
X121663400Y-114626190D02*
X121625304Y-114664285D01*
X121625304Y-114664285D02*
X121587209Y-114683332D01*
X121587209Y-114683332D02*
X121511019Y-114702380D01*
X121511019Y-114702380D02*
X121453876Y-114702380D01*
X121453876Y-114702380D02*
X121377685Y-114683332D01*
X121377685Y-114683332D02*
X121339590Y-114664285D01*
X121339590Y-114664285D02*
X121301495Y-114626190D01*
X121301495Y-114626190D02*
X121282447Y-114569047D01*
X121282447Y-114569047D02*
X121282447Y-114530951D01*
X121282447Y-114530951D02*
X121301495Y-114473809D01*
X121301495Y-114473809D02*
X121320542Y-114454761D01*
D10*
X112874895Y-66609523D02*
X113522514Y-66609523D01*
X113522514Y-66609523D02*
X113598704Y-66571428D01*
X113598704Y-66571428D02*
X113636800Y-66533333D01*
X113636800Y-66533333D02*
X113674895Y-66457142D01*
X113674895Y-66457142D02*
X113674895Y-66304761D01*
X113674895Y-66304761D02*
X113636800Y-66228571D01*
X113636800Y-66228571D02*
X113598704Y-66190476D01*
X113598704Y-66190476D02*
X113522514Y-66152380D01*
X113522514Y-66152380D02*
X112874895Y-66152380D01*
X112874895Y-65390476D02*
X112874895Y-65771428D01*
X112874895Y-65771428D02*
X113255847Y-65809524D01*
X113255847Y-65809524D02*
X113217752Y-65771428D01*
X113217752Y-65771428D02*
X113179657Y-65695238D01*
X113179657Y-65695238D02*
X113179657Y-65504762D01*
X113179657Y-65504762D02*
X113217752Y-65428571D01*
X113217752Y-65428571D02*
X113255847Y-65390476D01*
X113255847Y-65390476D02*
X113332038Y-65352381D01*
X113332038Y-65352381D02*
X113522514Y-65352381D01*
X113522514Y-65352381D02*
X113598704Y-65390476D01*
X113598704Y-65390476D02*
X113636800Y-65428571D01*
X113636800Y-65428571D02*
X113674895Y-65504762D01*
X113674895Y-65504762D02*
X113674895Y-65695238D01*
X113674895Y-65695238D02*
X113636800Y-65771428D01*
X113636800Y-65771428D02*
X113598704Y-65809524D01*
X120076191Y-72614895D02*
X119809524Y-72233942D01*
X119619048Y-72614895D02*
X119619048Y-71814895D01*
X119619048Y-71814895D02*
X119923810Y-71814895D01*
X119923810Y-71814895D02*
X120000000Y-71852990D01*
X120000000Y-71852990D02*
X120038095Y-71891085D01*
X120038095Y-71891085D02*
X120076191Y-71967276D01*
X120076191Y-71967276D02*
X120076191Y-72081561D01*
X120076191Y-72081561D02*
X120038095Y-72157752D01*
X120038095Y-72157752D02*
X120000000Y-72195847D01*
X120000000Y-72195847D02*
X119923810Y-72233942D01*
X119923810Y-72233942D02*
X119619048Y-72233942D01*
X120380952Y-72386323D02*
X120761905Y-72386323D01*
X120304762Y-72614895D02*
X120571429Y-71814895D01*
X120571429Y-71814895D02*
X120838095Y-72614895D01*
X121104762Y-71814895D02*
X121104762Y-72462514D01*
X121104762Y-72462514D02*
X121142857Y-72538704D01*
X121142857Y-72538704D02*
X121180952Y-72576800D01*
X121180952Y-72576800D02*
X121257143Y-72614895D01*
X121257143Y-72614895D02*
X121409524Y-72614895D01*
X121409524Y-72614895D02*
X121485714Y-72576800D01*
X121485714Y-72576800D02*
X121523809Y-72538704D01*
X121523809Y-72538704D02*
X121561905Y-72462514D01*
X121561905Y-72462514D02*
X121561905Y-71814895D01*
X121942857Y-72614895D02*
X121942857Y-71814895D01*
X121942857Y-71814895D02*
X122133333Y-71814895D01*
X122133333Y-71814895D02*
X122247619Y-71852990D01*
X122247619Y-71852990D02*
X122323809Y-71929180D01*
X122323809Y-71929180D02*
X122361904Y-72005371D01*
X122361904Y-72005371D02*
X122400000Y-72157752D01*
X122400000Y-72157752D02*
X122400000Y-72272038D01*
X122400000Y-72272038D02*
X122361904Y-72424419D01*
X122361904Y-72424419D02*
X122323809Y-72500609D01*
X122323809Y-72500609D02*
X122247619Y-72576800D01*
X122247619Y-72576800D02*
X122133333Y-72614895D01*
X122133333Y-72614895D02*
X121942857Y-72614895D01*
X122742857Y-72614895D02*
X122742857Y-71814895D01*
X123276190Y-71814895D02*
X123428571Y-71814895D01*
X123428571Y-71814895D02*
X123504761Y-71852990D01*
X123504761Y-71852990D02*
X123580952Y-71929180D01*
X123580952Y-71929180D02*
X123619047Y-72081561D01*
X123619047Y-72081561D02*
X123619047Y-72348228D01*
X123619047Y-72348228D02*
X123580952Y-72500609D01*
X123580952Y-72500609D02*
X123504761Y-72576800D01*
X123504761Y-72576800D02*
X123428571Y-72614895D01*
X123428571Y-72614895D02*
X123276190Y-72614895D01*
X123276190Y-72614895D02*
X123199999Y-72576800D01*
X123199999Y-72576800D02*
X123123809Y-72500609D01*
X123123809Y-72500609D02*
X123085713Y-72348228D01*
X123085713Y-72348228D02*
X123085713Y-72081561D01*
X123085713Y-72081561D02*
X123123809Y-71929180D01*
X123123809Y-71929180D02*
X123199999Y-71852990D01*
X123199999Y-71852990D02*
X123276190Y-71814895D01*
X124228570Y-72195847D02*
X124342856Y-72233942D01*
X124342856Y-72233942D02*
X124380951Y-72272038D01*
X124380951Y-72272038D02*
X124419047Y-72348228D01*
X124419047Y-72348228D02*
X124419047Y-72462514D01*
X124419047Y-72462514D02*
X124380951Y-72538704D01*
X124380951Y-72538704D02*
X124342856Y-72576800D01*
X124342856Y-72576800D02*
X124266666Y-72614895D01*
X124266666Y-72614895D02*
X123961904Y-72614895D01*
X123961904Y-72614895D02*
X123961904Y-71814895D01*
X123961904Y-71814895D02*
X124228570Y-71814895D01*
X124228570Y-71814895D02*
X124304761Y-71852990D01*
X124304761Y-71852990D02*
X124342856Y-71891085D01*
X124342856Y-71891085D02*
X124380951Y-71967276D01*
X124380951Y-71967276D02*
X124380951Y-72043466D01*
X124380951Y-72043466D02*
X124342856Y-72119657D01*
X124342856Y-72119657D02*
X124304761Y-72157752D01*
X124304761Y-72157752D02*
X124228570Y-72195847D01*
X124228570Y-72195847D02*
X123961904Y-72195847D01*
X126494895Y-102859523D02*
X127142514Y-102859523D01*
X127142514Y-102859523D02*
X127218704Y-102821428D01*
X127218704Y-102821428D02*
X127256800Y-102783333D01*
X127256800Y-102783333D02*
X127294895Y-102707142D01*
X127294895Y-102707142D02*
X127294895Y-102554761D01*
X127294895Y-102554761D02*
X127256800Y-102478571D01*
X127256800Y-102478571D02*
X127218704Y-102440476D01*
X127218704Y-102440476D02*
X127142514Y-102402380D01*
X127142514Y-102402380D02*
X126494895Y-102402380D01*
X126494895Y-102097619D02*
X126494895Y-101602381D01*
X126494895Y-101602381D02*
X126799657Y-101869047D01*
X126799657Y-101869047D02*
X126799657Y-101754762D01*
X126799657Y-101754762D02*
X126837752Y-101678571D01*
X126837752Y-101678571D02*
X126875847Y-101640476D01*
X126875847Y-101640476D02*
X126952038Y-101602381D01*
X126952038Y-101602381D02*
X127142514Y-101602381D01*
X127142514Y-101602381D02*
X127218704Y-101640476D01*
X127218704Y-101640476D02*
X127256800Y-101678571D01*
X127256800Y-101678571D02*
X127294895Y-101754762D01*
X127294895Y-101754762D02*
X127294895Y-101983333D01*
X127294895Y-101983333D02*
X127256800Y-102059524D01*
X127256800Y-102059524D02*
X127218704Y-102097619D01*
X78057142Y-94538704D02*
X78019046Y-94576800D01*
X78019046Y-94576800D02*
X77904761Y-94614895D01*
X77904761Y-94614895D02*
X77828570Y-94614895D01*
X77828570Y-94614895D02*
X77714284Y-94576800D01*
X77714284Y-94576800D02*
X77638094Y-94500609D01*
X77638094Y-94500609D02*
X77599999Y-94424419D01*
X77599999Y-94424419D02*
X77561903Y-94272038D01*
X77561903Y-94272038D02*
X77561903Y-94157752D01*
X77561903Y-94157752D02*
X77599999Y-94005371D01*
X77599999Y-94005371D02*
X77638094Y-93929180D01*
X77638094Y-93929180D02*
X77714284Y-93852990D01*
X77714284Y-93852990D02*
X77828570Y-93814895D01*
X77828570Y-93814895D02*
X77904761Y-93814895D01*
X77904761Y-93814895D02*
X78019046Y-93852990D01*
X78019046Y-93852990D02*
X78057142Y-93891085D01*
X78857142Y-94614895D02*
X78590475Y-94233942D01*
X78399999Y-94614895D02*
X78399999Y-93814895D01*
X78399999Y-93814895D02*
X78704761Y-93814895D01*
X78704761Y-93814895D02*
X78780951Y-93852990D01*
X78780951Y-93852990D02*
X78819046Y-93891085D01*
X78819046Y-93891085D02*
X78857142Y-93967276D01*
X78857142Y-93967276D02*
X78857142Y-94081561D01*
X78857142Y-94081561D02*
X78819046Y-94157752D01*
X78819046Y-94157752D02*
X78780951Y-94195847D01*
X78780951Y-94195847D02*
X78704761Y-94233942D01*
X78704761Y-94233942D02*
X78399999Y-94233942D01*
X79199999Y-94195847D02*
X79466665Y-94195847D01*
X79580951Y-94614895D02*
X79199999Y-94614895D01*
X79199999Y-94614895D02*
X79199999Y-93814895D01*
X79199999Y-93814895D02*
X79580951Y-93814895D01*
X79885713Y-94576800D02*
X79999999Y-94614895D01*
X79999999Y-94614895D02*
X80190475Y-94614895D01*
X80190475Y-94614895D02*
X80266666Y-94576800D01*
X80266666Y-94576800D02*
X80304761Y-94538704D01*
X80304761Y-94538704D02*
X80342856Y-94462514D01*
X80342856Y-94462514D02*
X80342856Y-94386323D01*
X80342856Y-94386323D02*
X80304761Y-94310133D01*
X80304761Y-94310133D02*
X80266666Y-94272038D01*
X80266666Y-94272038D02*
X80190475Y-94233942D01*
X80190475Y-94233942D02*
X80038094Y-94195847D01*
X80038094Y-94195847D02*
X79961904Y-94157752D01*
X79961904Y-94157752D02*
X79923809Y-94119657D01*
X79923809Y-94119657D02*
X79885713Y-94043466D01*
X79885713Y-94043466D02*
X79885713Y-93967276D01*
X79885713Y-93967276D02*
X79923809Y-93891085D01*
X79923809Y-93891085D02*
X79961904Y-93852990D01*
X79961904Y-93852990D02*
X80038094Y-93814895D01*
X80038094Y-93814895D02*
X80228571Y-93814895D01*
X80228571Y-93814895D02*
X80342856Y-93852990D01*
X80685714Y-94195847D02*
X80952380Y-94195847D01*
X81066666Y-94614895D02*
X80685714Y-94614895D01*
X80685714Y-94614895D02*
X80685714Y-93814895D01*
X80685714Y-93814895D02*
X81066666Y-93814895D01*
X81295238Y-93814895D02*
X81752381Y-93814895D01*
X81523809Y-94614895D02*
X81523809Y-93814895D01*
X82438095Y-94614895D02*
X81980952Y-94614895D01*
X82209524Y-94614895D02*
X82209524Y-93814895D01*
X82209524Y-93814895D02*
X82133333Y-93929180D01*
X82133333Y-93929180D02*
X82057143Y-94005371D01*
X82057143Y-94005371D02*
X81980952Y-94043466D01*
X117574895Y-118859523D02*
X118222514Y-118859523D01*
X118222514Y-118859523D02*
X118298704Y-118821428D01*
X118298704Y-118821428D02*
X118336800Y-118783333D01*
X118336800Y-118783333D02*
X118374895Y-118707142D01*
X118374895Y-118707142D02*
X118374895Y-118554761D01*
X118374895Y-118554761D02*
X118336800Y-118478571D01*
X118336800Y-118478571D02*
X118298704Y-118440476D01*
X118298704Y-118440476D02*
X118222514Y-118402380D01*
X118222514Y-118402380D02*
X117574895Y-118402380D01*
X118374895Y-117602381D02*
X118374895Y-118059524D01*
X118374895Y-117830952D02*
X117574895Y-117830952D01*
X117574895Y-117830952D02*
X117689180Y-117907143D01*
X117689180Y-117907143D02*
X117765371Y-117983333D01*
X117765371Y-117983333D02*
X117803466Y-118059524D01*
X116864895Y-67828571D02*
X116483942Y-68095238D01*
X116864895Y-68285714D02*
X116064895Y-68285714D01*
X116064895Y-68285714D02*
X116064895Y-67980952D01*
X116064895Y-67980952D02*
X116102990Y-67904762D01*
X116102990Y-67904762D02*
X116141085Y-67866667D01*
X116141085Y-67866667D02*
X116217276Y-67828571D01*
X116217276Y-67828571D02*
X116331561Y-67828571D01*
X116331561Y-67828571D02*
X116407752Y-67866667D01*
X116407752Y-67866667D02*
X116445847Y-67904762D01*
X116445847Y-67904762D02*
X116483942Y-67980952D01*
X116483942Y-67980952D02*
X116483942Y-68285714D01*
X116826800Y-67523810D02*
X116864895Y-67409524D01*
X116864895Y-67409524D02*
X116864895Y-67219048D01*
X116864895Y-67219048D02*
X116826800Y-67142857D01*
X116826800Y-67142857D02*
X116788704Y-67104762D01*
X116788704Y-67104762D02*
X116712514Y-67066667D01*
X116712514Y-67066667D02*
X116636323Y-67066667D01*
X116636323Y-67066667D02*
X116560133Y-67104762D01*
X116560133Y-67104762D02*
X116522038Y-67142857D01*
X116522038Y-67142857D02*
X116483942Y-67219048D01*
X116483942Y-67219048D02*
X116445847Y-67371429D01*
X116445847Y-67371429D02*
X116407752Y-67447619D01*
X116407752Y-67447619D02*
X116369657Y-67485714D01*
X116369657Y-67485714D02*
X116293466Y-67523810D01*
X116293466Y-67523810D02*
X116217276Y-67523810D01*
X116217276Y-67523810D02*
X116141085Y-67485714D01*
X116141085Y-67485714D02*
X116102990Y-67447619D01*
X116102990Y-67447619D02*
X116064895Y-67371429D01*
X116064895Y-67371429D02*
X116064895Y-67180952D01*
X116064895Y-67180952D02*
X116102990Y-67066667D01*
X116445847Y-66723809D02*
X116445847Y-66457143D01*
X116864895Y-66342857D02*
X116864895Y-66723809D01*
X116864895Y-66723809D02*
X116064895Y-66723809D01*
X116064895Y-66723809D02*
X116064895Y-66342857D01*
X116864895Y-65542856D02*
X116483942Y-65809523D01*
X116864895Y-65999999D02*
X116064895Y-65999999D01*
X116064895Y-65999999D02*
X116064895Y-65695237D01*
X116064895Y-65695237D02*
X116102990Y-65619047D01*
X116102990Y-65619047D02*
X116141085Y-65580952D01*
X116141085Y-65580952D02*
X116217276Y-65542856D01*
X116217276Y-65542856D02*
X116331561Y-65542856D01*
X116331561Y-65542856D02*
X116407752Y-65580952D01*
X116407752Y-65580952D02*
X116445847Y-65619047D01*
X116445847Y-65619047D02*
X116483942Y-65695237D01*
X116483942Y-65695237D02*
X116483942Y-65999999D01*
X116864895Y-65199999D02*
X116064895Y-65199999D01*
X116445847Y-64819047D02*
X116445847Y-64552381D01*
X116864895Y-64438095D02*
X116864895Y-64819047D01*
X116864895Y-64819047D02*
X116064895Y-64819047D01*
X116064895Y-64819047D02*
X116064895Y-64438095D01*
X116826800Y-64133333D02*
X116864895Y-64019047D01*
X116864895Y-64019047D02*
X116864895Y-63828571D01*
X116864895Y-63828571D02*
X116826800Y-63752380D01*
X116826800Y-63752380D02*
X116788704Y-63714285D01*
X116788704Y-63714285D02*
X116712514Y-63676190D01*
X116712514Y-63676190D02*
X116636323Y-63676190D01*
X116636323Y-63676190D02*
X116560133Y-63714285D01*
X116560133Y-63714285D02*
X116522038Y-63752380D01*
X116522038Y-63752380D02*
X116483942Y-63828571D01*
X116483942Y-63828571D02*
X116445847Y-63980952D01*
X116445847Y-63980952D02*
X116407752Y-64057142D01*
X116407752Y-64057142D02*
X116369657Y-64095237D01*
X116369657Y-64095237D02*
X116293466Y-64133333D01*
X116293466Y-64133333D02*
X116217276Y-64133333D01*
X116217276Y-64133333D02*
X116141085Y-64095237D01*
X116141085Y-64095237D02*
X116102990Y-64057142D01*
X116102990Y-64057142D02*
X116064895Y-63980952D01*
X116064895Y-63980952D02*
X116064895Y-63790475D01*
X116064895Y-63790475D02*
X116102990Y-63676190D01*
X96494895Y-102859523D02*
X97142514Y-102859523D01*
X97142514Y-102859523D02*
X97218704Y-102821428D01*
X97218704Y-102821428D02*
X97256800Y-102783333D01*
X97256800Y-102783333D02*
X97294895Y-102707142D01*
X97294895Y-102707142D02*
X97294895Y-102554761D01*
X97294895Y-102554761D02*
X97256800Y-102478571D01*
X97256800Y-102478571D02*
X97218704Y-102440476D01*
X97218704Y-102440476D02*
X97142514Y-102402380D01*
X97142514Y-102402380D02*
X96494895Y-102402380D01*
X96571085Y-102059524D02*
X96532990Y-102021428D01*
X96532990Y-102021428D02*
X96494895Y-101945238D01*
X96494895Y-101945238D02*
X96494895Y-101754762D01*
X96494895Y-101754762D02*
X96532990Y-101678571D01*
X96532990Y-101678571D02*
X96571085Y-101640476D01*
X96571085Y-101640476D02*
X96647276Y-101602381D01*
X96647276Y-101602381D02*
X96723466Y-101602381D01*
X96723466Y-101602381D02*
X96837752Y-101640476D01*
X96837752Y-101640476D02*
X97294895Y-102097619D01*
X97294895Y-102097619D02*
X97294895Y-101602381D01*
X130788704Y-102383332D02*
X130826800Y-102421428D01*
X130826800Y-102421428D02*
X130864895Y-102535713D01*
X130864895Y-102535713D02*
X130864895Y-102611904D01*
X130864895Y-102611904D02*
X130826800Y-102726190D01*
X130826800Y-102726190D02*
X130750609Y-102802380D01*
X130750609Y-102802380D02*
X130674419Y-102840475D01*
X130674419Y-102840475D02*
X130522038Y-102878571D01*
X130522038Y-102878571D02*
X130407752Y-102878571D01*
X130407752Y-102878571D02*
X130255371Y-102840475D01*
X130255371Y-102840475D02*
X130179180Y-102802380D01*
X130179180Y-102802380D02*
X130102990Y-102726190D01*
X130102990Y-102726190D02*
X130064895Y-102611904D01*
X130064895Y-102611904D02*
X130064895Y-102535713D01*
X130064895Y-102535713D02*
X130102990Y-102421428D01*
X130102990Y-102421428D02*
X130141085Y-102383332D01*
X130064895Y-102116666D02*
X130064895Y-101621428D01*
X130064895Y-101621428D02*
X130369657Y-101888094D01*
X130369657Y-101888094D02*
X130369657Y-101773809D01*
X130369657Y-101773809D02*
X130407752Y-101697618D01*
X130407752Y-101697618D02*
X130445847Y-101659523D01*
X130445847Y-101659523D02*
X130522038Y-101621428D01*
X130522038Y-101621428D02*
X130712514Y-101621428D01*
X130712514Y-101621428D02*
X130788704Y-101659523D01*
X130788704Y-101659523D02*
X130826800Y-101697618D01*
X130826800Y-101697618D02*
X130864895Y-101773809D01*
X130864895Y-101773809D02*
X130864895Y-102002380D01*
X130864895Y-102002380D02*
X130826800Y-102078571D01*
X130826800Y-102078571D02*
X130788704Y-102116666D01*
X114133334Y-72614895D02*
X113866667Y-72233942D01*
X113676191Y-72614895D02*
X113676191Y-71814895D01*
X113676191Y-71814895D02*
X113980953Y-71814895D01*
X113980953Y-71814895D02*
X114057143Y-71852990D01*
X114057143Y-71852990D02*
X114095238Y-71891085D01*
X114095238Y-71891085D02*
X114133334Y-71967276D01*
X114133334Y-71967276D02*
X114133334Y-72081561D01*
X114133334Y-72081561D02*
X114095238Y-72157752D01*
X114095238Y-72157752D02*
X114057143Y-72195847D01*
X114057143Y-72195847D02*
X113980953Y-72233942D01*
X113980953Y-72233942D02*
X113676191Y-72233942D01*
X114438095Y-72386323D02*
X114819048Y-72386323D01*
X114361905Y-72614895D02*
X114628572Y-71814895D01*
X114628572Y-71814895D02*
X114895238Y-72614895D01*
X115161905Y-71814895D02*
X115161905Y-72462514D01*
X115161905Y-72462514D02*
X115200000Y-72538704D01*
X115200000Y-72538704D02*
X115238095Y-72576800D01*
X115238095Y-72576800D02*
X115314286Y-72614895D01*
X115314286Y-72614895D02*
X115466667Y-72614895D01*
X115466667Y-72614895D02*
X115542857Y-72576800D01*
X115542857Y-72576800D02*
X115580952Y-72538704D01*
X115580952Y-72538704D02*
X115619048Y-72462514D01*
X115619048Y-72462514D02*
X115619048Y-71814895D01*
X116000000Y-72614895D02*
X116000000Y-71814895D01*
X116000000Y-71814895D02*
X116190476Y-71814895D01*
X116190476Y-71814895D02*
X116304762Y-71852990D01*
X116304762Y-71852990D02*
X116380952Y-71929180D01*
X116380952Y-71929180D02*
X116419047Y-72005371D01*
X116419047Y-72005371D02*
X116457143Y-72157752D01*
X116457143Y-72157752D02*
X116457143Y-72272038D01*
X116457143Y-72272038D02*
X116419047Y-72424419D01*
X116419047Y-72424419D02*
X116380952Y-72500609D01*
X116380952Y-72500609D02*
X116304762Y-72576800D01*
X116304762Y-72576800D02*
X116190476Y-72614895D01*
X116190476Y-72614895D02*
X116000000Y-72614895D01*
X116800000Y-72614895D02*
X116800000Y-71814895D01*
X117333333Y-71814895D02*
X117485714Y-71814895D01*
X117485714Y-71814895D02*
X117561904Y-71852990D01*
X117561904Y-71852990D02*
X117638095Y-71929180D01*
X117638095Y-71929180D02*
X117676190Y-72081561D01*
X117676190Y-72081561D02*
X117676190Y-72348228D01*
X117676190Y-72348228D02*
X117638095Y-72500609D01*
X117638095Y-72500609D02*
X117561904Y-72576800D01*
X117561904Y-72576800D02*
X117485714Y-72614895D01*
X117485714Y-72614895D02*
X117333333Y-72614895D01*
X117333333Y-72614895D02*
X117257142Y-72576800D01*
X117257142Y-72576800D02*
X117180952Y-72500609D01*
X117180952Y-72500609D02*
X117142856Y-72348228D01*
X117142856Y-72348228D02*
X117142856Y-72081561D01*
X117142856Y-72081561D02*
X117180952Y-71929180D01*
X117180952Y-71929180D02*
X117257142Y-71852990D01*
X117257142Y-71852990D02*
X117333333Y-71814895D01*
X117980951Y-72386323D02*
X118361904Y-72386323D01*
X117904761Y-72614895D02*
X118171428Y-71814895D01*
X118171428Y-71814895D02*
X118438094Y-72614895D01*
X125194895Y-84859523D02*
X125842514Y-84859523D01*
X125842514Y-84859523D02*
X125918704Y-84821428D01*
X125918704Y-84821428D02*
X125956800Y-84783333D01*
X125956800Y-84783333D02*
X125994895Y-84707142D01*
X125994895Y-84707142D02*
X125994895Y-84554761D01*
X125994895Y-84554761D02*
X125956800Y-84478571D01*
X125956800Y-84478571D02*
X125918704Y-84440476D01*
X125918704Y-84440476D02*
X125842514Y-84402380D01*
X125842514Y-84402380D02*
X125194895Y-84402380D01*
X125461561Y-83678571D02*
X125994895Y-83678571D01*
X125156800Y-83869047D02*
X125728228Y-84059524D01*
X125728228Y-84059524D02*
X125728228Y-83564285D01*
X121788704Y-118383332D02*
X121826800Y-118421428D01*
X121826800Y-118421428D02*
X121864895Y-118535713D01*
X121864895Y-118535713D02*
X121864895Y-118611904D01*
X121864895Y-118611904D02*
X121826800Y-118726190D01*
X121826800Y-118726190D02*
X121750609Y-118802380D01*
X121750609Y-118802380D02*
X121674419Y-118840475D01*
X121674419Y-118840475D02*
X121522038Y-118878571D01*
X121522038Y-118878571D02*
X121407752Y-118878571D01*
X121407752Y-118878571D02*
X121255371Y-118840475D01*
X121255371Y-118840475D02*
X121179180Y-118802380D01*
X121179180Y-118802380D02*
X121102990Y-118726190D01*
X121102990Y-118726190D02*
X121064895Y-118611904D01*
X121064895Y-118611904D02*
X121064895Y-118535713D01*
X121064895Y-118535713D02*
X121102990Y-118421428D01*
X121102990Y-118421428D02*
X121141085Y-118383332D01*
X121864895Y-117621428D02*
X121864895Y-118078571D01*
X121864895Y-117849999D02*
X121064895Y-117849999D01*
X121064895Y-117849999D02*
X121179180Y-117926190D01*
X121179180Y-117926190D02*
X121255371Y-118002380D01*
X121255371Y-118002380D02*
X121293466Y-118078571D01*
X84057142Y-94614895D02*
X83790475Y-94233942D01*
X83599999Y-94614895D02*
X83599999Y-93814895D01*
X83599999Y-93814895D02*
X83904761Y-93814895D01*
X83904761Y-93814895D02*
X83980951Y-93852990D01*
X83980951Y-93852990D02*
X84019046Y-93891085D01*
X84019046Y-93891085D02*
X84057142Y-93967276D01*
X84057142Y-93967276D02*
X84057142Y-94081561D01*
X84057142Y-94081561D02*
X84019046Y-94157752D01*
X84019046Y-94157752D02*
X83980951Y-94195847D01*
X83980951Y-94195847D02*
X83904761Y-94233942D01*
X83904761Y-94233942D02*
X83599999Y-94233942D01*
X84857142Y-94614895D02*
X84590475Y-94233942D01*
X84399999Y-94614895D02*
X84399999Y-93814895D01*
X84399999Y-93814895D02*
X84704761Y-93814895D01*
X84704761Y-93814895D02*
X84780951Y-93852990D01*
X84780951Y-93852990D02*
X84819046Y-93891085D01*
X84819046Y-93891085D02*
X84857142Y-93967276D01*
X84857142Y-93967276D02*
X84857142Y-94081561D01*
X84857142Y-94081561D02*
X84819046Y-94157752D01*
X84819046Y-94157752D02*
X84780951Y-94195847D01*
X84780951Y-94195847D02*
X84704761Y-94233942D01*
X84704761Y-94233942D02*
X84399999Y-94233942D01*
X85199999Y-94195847D02*
X85466665Y-94195847D01*
X85580951Y-94614895D02*
X85199999Y-94614895D01*
X85199999Y-94614895D02*
X85199999Y-93814895D01*
X85199999Y-93814895D02*
X85580951Y-93814895D01*
X85885713Y-94576800D02*
X85999999Y-94614895D01*
X85999999Y-94614895D02*
X86190475Y-94614895D01*
X86190475Y-94614895D02*
X86266666Y-94576800D01*
X86266666Y-94576800D02*
X86304761Y-94538704D01*
X86304761Y-94538704D02*
X86342856Y-94462514D01*
X86342856Y-94462514D02*
X86342856Y-94386323D01*
X86342856Y-94386323D02*
X86304761Y-94310133D01*
X86304761Y-94310133D02*
X86266666Y-94272038D01*
X86266666Y-94272038D02*
X86190475Y-94233942D01*
X86190475Y-94233942D02*
X86038094Y-94195847D01*
X86038094Y-94195847D02*
X85961904Y-94157752D01*
X85961904Y-94157752D02*
X85923809Y-94119657D01*
X85923809Y-94119657D02*
X85885713Y-94043466D01*
X85885713Y-94043466D02*
X85885713Y-93967276D01*
X85885713Y-93967276D02*
X85923809Y-93891085D01*
X85923809Y-93891085D02*
X85961904Y-93852990D01*
X85961904Y-93852990D02*
X86038094Y-93814895D01*
X86038094Y-93814895D02*
X86228571Y-93814895D01*
X86228571Y-93814895D02*
X86342856Y-93852990D01*
X86685714Y-94195847D02*
X86952380Y-94195847D01*
X87066666Y-94614895D02*
X86685714Y-94614895D01*
X86685714Y-94614895D02*
X86685714Y-93814895D01*
X86685714Y-93814895D02*
X87066666Y-93814895D01*
X87295238Y-93814895D02*
X87752381Y-93814895D01*
X87523809Y-94614895D02*
X87523809Y-93814895D01*
X88438095Y-94614895D02*
X87980952Y-94614895D01*
X88209524Y-94614895D02*
X88209524Y-93814895D01*
X88209524Y-93814895D02*
X88133333Y-93929180D01*
X88133333Y-93929180D02*
X88057143Y-94005371D01*
X88057143Y-94005371D02*
X87980952Y-94043466D01*
X121788704Y-66133332D02*
X121826800Y-66171428D01*
X121826800Y-66171428D02*
X121864895Y-66285713D01*
X121864895Y-66285713D02*
X121864895Y-66361904D01*
X121864895Y-66361904D02*
X121826800Y-66476190D01*
X121826800Y-66476190D02*
X121750609Y-66552380D01*
X121750609Y-66552380D02*
X121674419Y-66590475D01*
X121674419Y-66590475D02*
X121522038Y-66628571D01*
X121522038Y-66628571D02*
X121407752Y-66628571D01*
X121407752Y-66628571D02*
X121255371Y-66590475D01*
X121255371Y-66590475D02*
X121179180Y-66552380D01*
X121179180Y-66552380D02*
X121102990Y-66476190D01*
X121102990Y-66476190D02*
X121064895Y-66361904D01*
X121064895Y-66361904D02*
X121064895Y-66285713D01*
X121064895Y-66285713D02*
X121102990Y-66171428D01*
X121102990Y-66171428D02*
X121141085Y-66133332D01*
X121064895Y-65409523D02*
X121064895Y-65790475D01*
X121064895Y-65790475D02*
X121445847Y-65828571D01*
X121445847Y-65828571D02*
X121407752Y-65790475D01*
X121407752Y-65790475D02*
X121369657Y-65714285D01*
X121369657Y-65714285D02*
X121369657Y-65523809D01*
X121369657Y-65523809D02*
X121407752Y-65447618D01*
X121407752Y-65447618D02*
X121445847Y-65409523D01*
X121445847Y-65409523D02*
X121522038Y-65371428D01*
X121522038Y-65371428D02*
X121712514Y-65371428D01*
X121712514Y-65371428D02*
X121788704Y-65409523D01*
X121788704Y-65409523D02*
X121826800Y-65447618D01*
X121826800Y-65447618D02*
X121864895Y-65523809D01*
X121864895Y-65523809D02*
X121864895Y-65714285D01*
X121864895Y-65714285D02*
X121826800Y-65790475D01*
X121826800Y-65790475D02*
X121788704Y-65828571D01*
X126864895Y-67219046D02*
X126483942Y-67485713D01*
X126864895Y-67676189D02*
X126064895Y-67676189D01*
X126064895Y-67676189D02*
X126064895Y-67371427D01*
X126064895Y-67371427D02*
X126102990Y-67295237D01*
X126102990Y-67295237D02*
X126141085Y-67257142D01*
X126141085Y-67257142D02*
X126217276Y-67219046D01*
X126217276Y-67219046D02*
X126331561Y-67219046D01*
X126331561Y-67219046D02*
X126407752Y-67257142D01*
X126407752Y-67257142D02*
X126445847Y-67295237D01*
X126445847Y-67295237D02*
X126483942Y-67371427D01*
X126483942Y-67371427D02*
X126483942Y-67676189D01*
X126864895Y-66876189D02*
X126064895Y-66876189D01*
X126064895Y-66876189D02*
X126064895Y-66571427D01*
X126064895Y-66571427D02*
X126102990Y-66495237D01*
X126102990Y-66495237D02*
X126141085Y-66457142D01*
X126141085Y-66457142D02*
X126217276Y-66419046D01*
X126217276Y-66419046D02*
X126331561Y-66419046D01*
X126331561Y-66419046D02*
X126407752Y-66457142D01*
X126407752Y-66457142D02*
X126445847Y-66495237D01*
X126445847Y-66495237D02*
X126483942Y-66571427D01*
X126483942Y-66571427D02*
X126483942Y-66876189D01*
X126064895Y-66076189D02*
X126712514Y-66076189D01*
X126712514Y-66076189D02*
X126788704Y-66038094D01*
X126788704Y-66038094D02*
X126826800Y-65999999D01*
X126826800Y-65999999D02*
X126864895Y-65923808D01*
X126864895Y-65923808D02*
X126864895Y-65771427D01*
X126864895Y-65771427D02*
X126826800Y-65695237D01*
X126826800Y-65695237D02*
X126788704Y-65657142D01*
X126788704Y-65657142D02*
X126712514Y-65619046D01*
X126712514Y-65619046D02*
X126064895Y-65619046D01*
X126864895Y-64857142D02*
X126864895Y-65238094D01*
X126864895Y-65238094D02*
X126064895Y-65238094D01*
X126864895Y-64209523D02*
X126864895Y-64590475D01*
X126864895Y-64590475D02*
X126064895Y-64590475D01*
X100788704Y-102383332D02*
X100826800Y-102421428D01*
X100826800Y-102421428D02*
X100864895Y-102535713D01*
X100864895Y-102535713D02*
X100864895Y-102611904D01*
X100864895Y-102611904D02*
X100826800Y-102726190D01*
X100826800Y-102726190D02*
X100750609Y-102802380D01*
X100750609Y-102802380D02*
X100674419Y-102840475D01*
X100674419Y-102840475D02*
X100522038Y-102878571D01*
X100522038Y-102878571D02*
X100407752Y-102878571D01*
X100407752Y-102878571D02*
X100255371Y-102840475D01*
X100255371Y-102840475D02*
X100179180Y-102802380D01*
X100179180Y-102802380D02*
X100102990Y-102726190D01*
X100102990Y-102726190D02*
X100064895Y-102611904D01*
X100064895Y-102611904D02*
X100064895Y-102535713D01*
X100064895Y-102535713D02*
X100102990Y-102421428D01*
X100102990Y-102421428D02*
X100141085Y-102383332D01*
X100141085Y-102078571D02*
X100102990Y-102040475D01*
X100102990Y-102040475D02*
X100064895Y-101964285D01*
X100064895Y-101964285D02*
X100064895Y-101773809D01*
X100064895Y-101773809D02*
X100102990Y-101697618D01*
X100102990Y-101697618D02*
X100141085Y-101659523D01*
X100141085Y-101659523D02*
X100217276Y-101621428D01*
X100217276Y-101621428D02*
X100293466Y-101621428D01*
X100293466Y-101621428D02*
X100407752Y-101659523D01*
X100407752Y-101659523D02*
X100864895Y-102116666D01*
X100864895Y-102116666D02*
X100864895Y-101621428D01*
X118076191Y-94614895D02*
X117809524Y-94233942D01*
X117619048Y-94614895D02*
X117619048Y-93814895D01*
X117619048Y-93814895D02*
X117923810Y-93814895D01*
X117923810Y-93814895D02*
X118000000Y-93852990D01*
X118000000Y-93852990D02*
X118038095Y-93891085D01*
X118038095Y-93891085D02*
X118076191Y-93967276D01*
X118076191Y-93967276D02*
X118076191Y-94081561D01*
X118076191Y-94081561D02*
X118038095Y-94157752D01*
X118038095Y-94157752D02*
X118000000Y-94195847D01*
X118000000Y-94195847D02*
X117923810Y-94233942D01*
X117923810Y-94233942D02*
X117619048Y-94233942D01*
X118380952Y-94386323D02*
X118761905Y-94386323D01*
X118304762Y-94614895D02*
X118571429Y-93814895D01*
X118571429Y-93814895D02*
X118838095Y-94614895D01*
X119104762Y-93814895D02*
X119104762Y-94462514D01*
X119104762Y-94462514D02*
X119142857Y-94538704D01*
X119142857Y-94538704D02*
X119180952Y-94576800D01*
X119180952Y-94576800D02*
X119257143Y-94614895D01*
X119257143Y-94614895D02*
X119409524Y-94614895D01*
X119409524Y-94614895D02*
X119485714Y-94576800D01*
X119485714Y-94576800D02*
X119523809Y-94538704D01*
X119523809Y-94538704D02*
X119561905Y-94462514D01*
X119561905Y-94462514D02*
X119561905Y-93814895D01*
X119942857Y-94614895D02*
X119942857Y-93814895D01*
X119942857Y-93814895D02*
X120133333Y-93814895D01*
X120133333Y-93814895D02*
X120247619Y-93852990D01*
X120247619Y-93852990D02*
X120323809Y-93929180D01*
X120323809Y-93929180D02*
X120361904Y-94005371D01*
X120361904Y-94005371D02*
X120400000Y-94157752D01*
X120400000Y-94157752D02*
X120400000Y-94272038D01*
X120400000Y-94272038D02*
X120361904Y-94424419D01*
X120361904Y-94424419D02*
X120323809Y-94500609D01*
X120323809Y-94500609D02*
X120247619Y-94576800D01*
X120247619Y-94576800D02*
X120133333Y-94614895D01*
X120133333Y-94614895D02*
X119942857Y-94614895D01*
X120742857Y-94614895D02*
X120742857Y-93814895D01*
X121276190Y-93814895D02*
X121428571Y-93814895D01*
X121428571Y-93814895D02*
X121504761Y-93852990D01*
X121504761Y-93852990D02*
X121580952Y-93929180D01*
X121580952Y-93929180D02*
X121619047Y-94081561D01*
X121619047Y-94081561D02*
X121619047Y-94348228D01*
X121619047Y-94348228D02*
X121580952Y-94500609D01*
X121580952Y-94500609D02*
X121504761Y-94576800D01*
X121504761Y-94576800D02*
X121428571Y-94614895D01*
X121428571Y-94614895D02*
X121276190Y-94614895D01*
X121276190Y-94614895D02*
X121199999Y-94576800D01*
X121199999Y-94576800D02*
X121123809Y-94500609D01*
X121123809Y-94500609D02*
X121085713Y-94348228D01*
X121085713Y-94348228D02*
X121085713Y-94081561D01*
X121085713Y-94081561D02*
X121123809Y-93929180D01*
X121123809Y-93929180D02*
X121199999Y-93852990D01*
X121199999Y-93852990D02*
X121276190Y-93814895D01*
X122419047Y-94538704D02*
X122380951Y-94576800D01*
X122380951Y-94576800D02*
X122266666Y-94614895D01*
X122266666Y-94614895D02*
X122190475Y-94614895D01*
X122190475Y-94614895D02*
X122076189Y-94576800D01*
X122076189Y-94576800D02*
X121999999Y-94500609D01*
X121999999Y-94500609D02*
X121961904Y-94424419D01*
X121961904Y-94424419D02*
X121923808Y-94272038D01*
X121923808Y-94272038D02*
X121923808Y-94157752D01*
X121923808Y-94157752D02*
X121961904Y-94005371D01*
X121961904Y-94005371D02*
X121999999Y-93929180D01*
X121999999Y-93929180D02*
X122076189Y-93852990D01*
X122076189Y-93852990D02*
X122190475Y-93814895D01*
X122190475Y-93814895D02*
X122266666Y-93814895D01*
X122266666Y-93814895D02*
X122380951Y-93852990D01*
X122380951Y-93852990D02*
X122419047Y-93891085D01*
X96864895Y-66495237D02*
X96483942Y-66761904D01*
X96864895Y-66952380D02*
X96064895Y-66952380D01*
X96064895Y-66952380D02*
X96064895Y-66647618D01*
X96064895Y-66647618D02*
X96102990Y-66571428D01*
X96102990Y-66571428D02*
X96141085Y-66533333D01*
X96141085Y-66533333D02*
X96217276Y-66495237D01*
X96217276Y-66495237D02*
X96331561Y-66495237D01*
X96331561Y-66495237D02*
X96407752Y-66533333D01*
X96407752Y-66533333D02*
X96445847Y-66571428D01*
X96445847Y-66571428D02*
X96483942Y-66647618D01*
X96483942Y-66647618D02*
X96483942Y-66952380D01*
X96445847Y-65885714D02*
X96445847Y-66152380D01*
X96864895Y-66152380D02*
X96064895Y-66152380D01*
X96064895Y-66152380D02*
X96064895Y-65771428D01*
X96445847Y-65200000D02*
X96483942Y-65085714D01*
X96483942Y-65085714D02*
X96522038Y-65047619D01*
X96522038Y-65047619D02*
X96598228Y-65009523D01*
X96598228Y-65009523D02*
X96712514Y-65009523D01*
X96712514Y-65009523D02*
X96788704Y-65047619D01*
X96788704Y-65047619D02*
X96826800Y-65085714D01*
X96826800Y-65085714D02*
X96864895Y-65161904D01*
X96864895Y-65161904D02*
X96864895Y-65466666D01*
X96864895Y-65466666D02*
X96064895Y-65466666D01*
X96064895Y-65466666D02*
X96064895Y-65200000D01*
X96064895Y-65200000D02*
X96102990Y-65123809D01*
X96102990Y-65123809D02*
X96141085Y-65085714D01*
X96141085Y-65085714D02*
X96217276Y-65047619D01*
X96217276Y-65047619D02*
X96293466Y-65047619D01*
X96293466Y-65047619D02*
X96369657Y-65085714D01*
X96369657Y-65085714D02*
X96407752Y-65123809D01*
X96407752Y-65123809D02*
X96445847Y-65200000D01*
X96445847Y-65200000D02*
X96445847Y-65466666D01*
X91788704Y-66133332D02*
X91826800Y-66171428D01*
X91826800Y-66171428D02*
X91864895Y-66285713D01*
X91864895Y-66285713D02*
X91864895Y-66361904D01*
X91864895Y-66361904D02*
X91826800Y-66476190D01*
X91826800Y-66476190D02*
X91750609Y-66552380D01*
X91750609Y-66552380D02*
X91674419Y-66590475D01*
X91674419Y-66590475D02*
X91522038Y-66628571D01*
X91522038Y-66628571D02*
X91407752Y-66628571D01*
X91407752Y-66628571D02*
X91255371Y-66590475D01*
X91255371Y-66590475D02*
X91179180Y-66552380D01*
X91179180Y-66552380D02*
X91102990Y-66476190D01*
X91102990Y-66476190D02*
X91064895Y-66361904D01*
X91064895Y-66361904D02*
X91064895Y-66285713D01*
X91064895Y-66285713D02*
X91102990Y-66171428D01*
X91102990Y-66171428D02*
X91141085Y-66133332D01*
X91064895Y-65447618D02*
X91064895Y-65599999D01*
X91064895Y-65599999D02*
X91102990Y-65676190D01*
X91102990Y-65676190D02*
X91141085Y-65714285D01*
X91141085Y-65714285D02*
X91255371Y-65790475D01*
X91255371Y-65790475D02*
X91407752Y-65828571D01*
X91407752Y-65828571D02*
X91712514Y-65828571D01*
X91712514Y-65828571D02*
X91788704Y-65790475D01*
X91788704Y-65790475D02*
X91826800Y-65752380D01*
X91826800Y-65752380D02*
X91864895Y-65676190D01*
X91864895Y-65676190D02*
X91864895Y-65523809D01*
X91864895Y-65523809D02*
X91826800Y-65447618D01*
X91826800Y-65447618D02*
X91788704Y-65409523D01*
X91788704Y-65409523D02*
X91712514Y-65371428D01*
X91712514Y-65371428D02*
X91522038Y-65371428D01*
X91522038Y-65371428D02*
X91445847Y-65409523D01*
X91445847Y-65409523D02*
X91407752Y-65447618D01*
X91407752Y-65447618D02*
X91369657Y-65523809D01*
X91369657Y-65523809D02*
X91369657Y-65676190D01*
X91369657Y-65676190D02*
X91407752Y-65752380D01*
X91407752Y-65752380D02*
X91445847Y-65790475D01*
X91445847Y-65790475D02*
X91522038Y-65828571D01*
X77228571Y-141854895D02*
X76771428Y-141854895D01*
X77000000Y-141854895D02*
X77000000Y-141054895D01*
X77000000Y-141054895D02*
X76923809Y-141169180D01*
X76923809Y-141169180D02*
X76847619Y-141245371D01*
X76847619Y-141245371D02*
X76771428Y-141283466D01*
X122847618Y-141854895D02*
X122390475Y-141854895D01*
X122619047Y-141854895D02*
X122619047Y-141054895D01*
X122619047Y-141054895D02*
X122542856Y-141169180D01*
X122542856Y-141169180D02*
X122466666Y-141245371D01*
X122466666Y-141245371D02*
X122390475Y-141283466D01*
X123533333Y-141054895D02*
X123380952Y-141054895D01*
X123380952Y-141054895D02*
X123304761Y-141092990D01*
X123304761Y-141092990D02*
X123266666Y-141131085D01*
X123266666Y-141131085D02*
X123190476Y-141245371D01*
X123190476Y-141245371D02*
X123152380Y-141397752D01*
X123152380Y-141397752D02*
X123152380Y-141702514D01*
X123152380Y-141702514D02*
X123190476Y-141778704D01*
X123190476Y-141778704D02*
X123228571Y-141816800D01*
X123228571Y-141816800D02*
X123304761Y-141854895D01*
X123304761Y-141854895D02*
X123457142Y-141854895D01*
X123457142Y-141854895D02*
X123533333Y-141816800D01*
X123533333Y-141816800D02*
X123571428Y-141778704D01*
X123571428Y-141778704D02*
X123609523Y-141702514D01*
X123609523Y-141702514D02*
X123609523Y-141512038D01*
X123609523Y-141512038D02*
X123571428Y-141435847D01*
X123571428Y-141435847D02*
X123533333Y-141397752D01*
X123533333Y-141397752D02*
X123457142Y-141359657D01*
X123457142Y-141359657D02*
X123304761Y-141359657D01*
X123304761Y-141359657D02*
X123228571Y-141397752D01*
X123228571Y-141397752D02*
X123190476Y-141435847D01*
X123190476Y-141435847D02*
X123152380Y-141512038D01*
D12*
X118209930Y-124489681D02*
X118590882Y-124489681D01*
X118590882Y-124489681D02*
X118667073Y-124515077D01*
X118667073Y-124515077D02*
X118717867Y-124565871D01*
X118717867Y-124565871D02*
X118743263Y-124642061D01*
X118743263Y-124642061D02*
X118743263Y-124692855D01*
X118743263Y-124235712D02*
X118209930Y-124235712D01*
X118209930Y-124235712D02*
X118209930Y-124032538D01*
X118209930Y-124032538D02*
X118235327Y-123981744D01*
X118235327Y-123981744D02*
X118260724Y-123956348D01*
X118260724Y-123956348D02*
X118311518Y-123930951D01*
X118311518Y-123930951D02*
X118387708Y-123930951D01*
X118387708Y-123930951D02*
X118438502Y-123956348D01*
X118438502Y-123956348D02*
X118463898Y-123981744D01*
X118463898Y-123981744D02*
X118489295Y-124032538D01*
X118489295Y-124032538D02*
X118489295Y-124235712D01*
X118260724Y-123727776D02*
X118235327Y-123702379D01*
X118235327Y-123702379D02*
X118209930Y-123651586D01*
X118209930Y-123651586D02*
X118209930Y-123524602D01*
X118209930Y-123524602D02*
X118235327Y-123473808D01*
X118235327Y-123473808D02*
X118260724Y-123448411D01*
X118260724Y-123448411D02*
X118311518Y-123423015D01*
X118311518Y-123423015D02*
X118362311Y-123423015D01*
X118362311Y-123423015D02*
X118438502Y-123448411D01*
X118438502Y-123448411D02*
X118743263Y-123753173D01*
X118743263Y-123753173D02*
X118743263Y-123423015D01*
X118946438Y-122635714D02*
X118921041Y-122661110D01*
X118921041Y-122661110D02*
X118844851Y-122711904D01*
X118844851Y-122711904D02*
X118794057Y-122737301D01*
X118794057Y-122737301D02*
X118717867Y-122762698D01*
X118717867Y-122762698D02*
X118590882Y-122788094D01*
X118590882Y-122788094D02*
X118489295Y-122788094D01*
X118489295Y-122788094D02*
X118362311Y-122762698D01*
X118362311Y-122762698D02*
X118286121Y-122737301D01*
X118286121Y-122737301D02*
X118235327Y-122711904D01*
X118235327Y-122711904D02*
X118159137Y-122661110D01*
X118159137Y-122661110D02*
X118133740Y-122635714D01*
X118590882Y-122457936D02*
X118590882Y-122203968D01*
X118743263Y-122508730D02*
X118209930Y-122330952D01*
X118209930Y-122330952D02*
X118743263Y-122153175D01*
X118743263Y-121696032D02*
X118743263Y-122000793D01*
X118743263Y-121848412D02*
X118209930Y-121848412D01*
X118209930Y-121848412D02*
X118286121Y-121899206D01*
X118286121Y-121899206D02*
X118336914Y-121950000D01*
X118336914Y-121950000D02*
X118362311Y-122000793D01*
X118387708Y-121238889D02*
X118743263Y-121238889D01*
X118184534Y-121365873D02*
X118565486Y-121492857D01*
X118565486Y-121492857D02*
X118565486Y-121162699D01*
X118946438Y-121010318D02*
X118921041Y-120984921D01*
X118921041Y-120984921D02*
X118844851Y-120934128D01*
X118844851Y-120934128D02*
X118794057Y-120908731D01*
X118794057Y-120908731D02*
X118717867Y-120883334D01*
X118717867Y-120883334D02*
X118590882Y-120857937D01*
X118590882Y-120857937D02*
X118489295Y-120857937D01*
X118489295Y-120857937D02*
X118362311Y-120883334D01*
X118362311Y-120883334D02*
X118286121Y-120908731D01*
X118286121Y-120908731D02*
X118235327Y-120934128D01*
X118235327Y-120934128D02*
X118159137Y-120984921D01*
X118159137Y-120984921D02*
X118133740Y-121010318D01*
D13*
X121568161Y-122026189D02*
X121568161Y-121835713D01*
X121682447Y-122064284D02*
X121282447Y-121930951D01*
X121282447Y-121930951D02*
X121682447Y-121797618D01*
X121682447Y-121454761D02*
X121682447Y-121683332D01*
X121682447Y-121569046D02*
X121282447Y-121569046D01*
X121282447Y-121569046D02*
X121339590Y-121607142D01*
X121339590Y-121607142D02*
X121377685Y-121645237D01*
X121377685Y-121645237D02*
X121396733Y-121683332D01*
X121415780Y-121111904D02*
X121682447Y-121111904D01*
X121263400Y-121207142D02*
X121549114Y-121302380D01*
X121549114Y-121302380D02*
X121549114Y-121054761D01*
X121282447Y-124483332D02*
X121682447Y-124349999D01*
X121682447Y-124349999D02*
X121282447Y-124216666D01*
X121644352Y-123854761D02*
X121663400Y-123873809D01*
X121663400Y-123873809D02*
X121682447Y-123930951D01*
X121682447Y-123930951D02*
X121682447Y-123969047D01*
X121682447Y-123969047D02*
X121663400Y-124026190D01*
X121663400Y-124026190D02*
X121625304Y-124064285D01*
X121625304Y-124064285D02*
X121587209Y-124083332D01*
X121587209Y-124083332D02*
X121511019Y-124102380D01*
X121511019Y-124102380D02*
X121453876Y-124102380D01*
X121453876Y-124102380D02*
X121377685Y-124083332D01*
X121377685Y-124083332D02*
X121339590Y-124064285D01*
X121339590Y-124064285D02*
X121301495Y-124026190D01*
X121301495Y-124026190D02*
X121282447Y-123969047D01*
X121282447Y-123969047D02*
X121282447Y-123930951D01*
X121282447Y-123930951D02*
X121301495Y-123873809D01*
X121301495Y-123873809D02*
X121320542Y-123854761D01*
X121644352Y-123454761D02*
X121663400Y-123473809D01*
X121663400Y-123473809D02*
X121682447Y-123530951D01*
X121682447Y-123530951D02*
X121682447Y-123569047D01*
X121682447Y-123569047D02*
X121663400Y-123626190D01*
X121663400Y-123626190D02*
X121625304Y-123664285D01*
X121625304Y-123664285D02*
X121587209Y-123683332D01*
X121587209Y-123683332D02*
X121511019Y-123702380D01*
X121511019Y-123702380D02*
X121453876Y-123702380D01*
X121453876Y-123702380D02*
X121377685Y-123683332D01*
X121377685Y-123683332D02*
X121339590Y-123664285D01*
X121339590Y-123664285D02*
X121301495Y-123626190D01*
X121301495Y-123626190D02*
X121282447Y-123569047D01*
X121282447Y-123569047D02*
X121282447Y-123530951D01*
X121282447Y-123530951D02*
X121301495Y-123473809D01*
X121301495Y-123473809D02*
X121320542Y-123454761D01*
D10*
X129788704Y-84383332D02*
X129826800Y-84421428D01*
X129826800Y-84421428D02*
X129864895Y-84535713D01*
X129864895Y-84535713D02*
X129864895Y-84611904D01*
X129864895Y-84611904D02*
X129826800Y-84726190D01*
X129826800Y-84726190D02*
X129750609Y-84802380D01*
X129750609Y-84802380D02*
X129674419Y-84840475D01*
X129674419Y-84840475D02*
X129522038Y-84878571D01*
X129522038Y-84878571D02*
X129407752Y-84878571D01*
X129407752Y-84878571D02*
X129255371Y-84840475D01*
X129255371Y-84840475D02*
X129179180Y-84802380D01*
X129179180Y-84802380D02*
X129102990Y-84726190D01*
X129102990Y-84726190D02*
X129064895Y-84611904D01*
X129064895Y-84611904D02*
X129064895Y-84535713D01*
X129064895Y-84535713D02*
X129102990Y-84421428D01*
X129102990Y-84421428D02*
X129141085Y-84383332D01*
X129331561Y-83697618D02*
X129864895Y-83697618D01*
X129026800Y-83888094D02*
X129598228Y-84078571D01*
X129598228Y-84078571D02*
X129598228Y-83583332D01*
%TO.C,U5*%
X103190000Y-63490000D02*
X112810000Y-63490000D01*
X103190000Y-68510000D02*
X103190000Y-63490000D01*
X111973333Y-66000000D02*
X112037021Y-66320178D01*
X112037021Y-65679822D02*
X111973333Y-66000000D01*
X112037021Y-66320178D02*
X112218387Y-66591613D01*
X112218387Y-65408387D02*
X112037021Y-65679822D01*
X112218387Y-66591613D02*
X112489822Y-66772979D01*
X112489822Y-65227021D02*
X112218387Y-65408387D01*
X112489822Y-66772979D02*
X112810000Y-66836667D01*
X112810000Y-63490000D02*
X112810000Y-65163333D01*
X112810000Y-65163333D02*
X112489822Y-65227021D01*
X112810000Y-66836667D02*
X112810000Y-68510000D01*
X112810000Y-68510000D02*
X103190000Y-68510000D01*
%TO.C,RAUDIOB*%
X122480000Y-73750000D02*
X121520000Y-73750000D01*
%TO.C,U3*%
X101570000Y-99740000D02*
X126430000Y-99740000D01*
X101570000Y-104760000D02*
X101570000Y-99740000D01*
X125593333Y-102250000D02*
X125657021Y-102570178D01*
X125657021Y-101929822D02*
X125593333Y-102250000D01*
X125657021Y-102570178D02*
X125838387Y-102841613D01*
X125838387Y-101658387D02*
X125657021Y-101929822D01*
X125838387Y-102841613D02*
X126109822Y-103022979D01*
X126109822Y-101477021D02*
X125838387Y-101658387D01*
X126109822Y-103022979D02*
X126430000Y-103086667D01*
X126430000Y-99740000D02*
X126430000Y-101413333D01*
X126430000Y-101413333D02*
X126109822Y-101477021D01*
X126430000Y-103086667D02*
X126430000Y-104760000D01*
X126430000Y-104760000D02*
X101570000Y-104760000D01*
%TO.C,CRESET1*%
X80480000Y-95750000D02*
X79520000Y-95750000D01*
%TO.C,U1*%
X82490000Y-111930000D02*
X117510000Y-111930000D01*
X82490000Y-124570000D02*
X82490000Y-111930000D01*
X115403333Y-118250000D02*
X115563694Y-119056186D01*
X115563694Y-117443814D02*
X115403333Y-118250000D01*
X115563694Y-119056186D02*
X116020362Y-119739638D01*
X116020362Y-116760362D02*
X115563694Y-117443814D01*
X116020362Y-119739638D02*
X116703814Y-120196306D01*
X116703814Y-116303694D02*
X116020362Y-116760362D01*
X116703814Y-120196306D02*
X117510000Y-120356667D01*
X117510000Y-111930000D02*
X117510000Y-116143333D01*
X117510000Y-116143333D02*
X116703814Y-116303694D01*
X117510000Y-120356667D02*
X117510000Y-124570000D01*
X117510000Y-124570000D02*
X82490000Y-124570000D01*
%TO.C,RSERIES*%
X118000000Y-65520000D02*
X118000000Y-66480000D01*
%TO.C,U2*%
X71570000Y-99740000D02*
X96430000Y-99740000D01*
X71570000Y-104760000D02*
X71570000Y-99740000D01*
X95593333Y-102250000D02*
X95657021Y-102570178D01*
X95657021Y-101929822D02*
X95593333Y-102250000D01*
X95657021Y-102570178D02*
X95838387Y-102841613D01*
X95838387Y-101658387D02*
X95657021Y-101929822D01*
X95838387Y-102841613D02*
X96109822Y-103022979D01*
X96109822Y-101477021D02*
X95838387Y-101658387D01*
X96109822Y-103022979D02*
X96430000Y-103086667D01*
X96430000Y-99740000D02*
X96430000Y-101413333D01*
X96430000Y-101413333D02*
X96109822Y-101477021D01*
X96430000Y-103086667D02*
X96430000Y-104760000D01*
X96430000Y-104760000D02*
X71570000Y-104760000D01*
%TO.C,C3*%
X129000000Y-102730000D02*
X129000000Y-101770000D01*
%TO.C,RAUDIOA*%
X116480000Y-73750000D02*
X115520000Y-73750000D01*
%TO.C,U4*%
X74870000Y-77930000D02*
X125130000Y-77930000D01*
X74870000Y-90570000D02*
X74870000Y-77930000D01*
X123023333Y-84250000D02*
X123183694Y-85056186D01*
X123183694Y-83443814D02*
X123023333Y-84250000D01*
X123183694Y-85056186D02*
X123640362Y-85739638D01*
X123640362Y-82760362D02*
X123183694Y-83443814D01*
X123640362Y-85739638D02*
X124323814Y-86196306D01*
X124323814Y-82303694D02*
X123640362Y-82760362D01*
X124323814Y-86196306D02*
X125130000Y-86356667D01*
X125130000Y-77930000D02*
X125130000Y-82143333D01*
X125130000Y-82143333D02*
X124323814Y-82303694D01*
X125130000Y-86356667D02*
X125130000Y-90570000D01*
X125130000Y-90570000D02*
X74870000Y-90570000D01*
%TO.C,C1*%
X120000000Y-118730000D02*
X120000000Y-117770000D01*
%TO.C,RRESET1*%
X86480000Y-95750000D02*
X85520000Y-95750000D01*
%TO.C,C5*%
X123000000Y-65520000D02*
X123000000Y-66480000D01*
%TO.C,RPULL*%
X128000000Y-65520000D02*
X128000000Y-66480000D01*
%TO.C,C2*%
X99000000Y-102730000D02*
X99000000Y-101770000D01*
%TO.C,RAUDIOC*%
X120480000Y-95750000D02*
X119520000Y-95750000D01*
%TO.C,RFB*%
X98000000Y-65520000D02*
X98000000Y-66480000D01*
%TO.C,C6*%
X93000000Y-65520000D02*
X93000000Y-66480000D01*
%TO.C,C4*%
X128000000Y-84730000D02*
X128000000Y-83770000D01*
%TD*%
M02*
